<?xml version="1.0" encoding="UTF-8"?>
<svg id="Vrstva_1" data-name="Vrstva 1" xmlns="http://www.w3.org/2000/svg" viewBox="0 0 211.74 44.41">
  <defs>
    <style>
      .cls-1 {
        stroke-width: 0px;
      }

      .cls-2 {
        fill: none;
        stroke: #1d1d1b;
        stroke-width: .69px;
      }
    </style>
  </defs>
  <path class="cls-1" d="m2.38,31.77c-.78,0-1.56.03-2.35.09l.16-3.07.06-14.51-.09-3.85h.78c2.06.12,4.19,0,6.29,0,3.25,0,6.38-.16,9.04,2,2.35,1.94,3.35,4.85,3.35,7.82,0,1.72-.22,3.63-.94,5.19-.72,1.53-1.72,2.94-3.01,4.04-2.66,2.31-6.13,2.38-9.45,2.35l-3.85-.06Zm.5-1.31c1.12.06,2.25.19,3.38.19,1.06,0,2.47-.06,3.54-.22.81-.12,1.5-.34,2.25-.72,1.81-.87,2.69-1.84,3.53-3.69.81-1.66,1.06-3.44,1.06-5.29,0-2.38-.56-5.57-2.5-7.19-2.19-1.82-4.63-1.85-7.32-1.85-1.28,0-2.59.09-3.88.12-.06,2.16-.19,4.32-.19,6.48v8.54l.13,3.63Z"/>
  <path class="cls-1" d="m32.01,10.56c1.06,0,2.16-.06,3.22-.12-.03.31-.09.63-.09.94s0,.62.09.94c-.94-.06-1.88-.16-2.82-.22l-3.13-.09h-2.29l-.16,4.69v1.41c0,.6.03,1.19.03,1.78h3.16l1.69-.09c.94-.06,1.84-.09,2.78-.16-.09.31-.16.63-.16.94s.06.62.12.94c-.94-.09-1.85-.19-2.75-.19l-1.75-.06h-3.1c0,.84-.03,1.69-.03,2.5v3.91c0,.91.03,1.82.06,2.72,1.88.06,3.76-.06,5.63-.13.97-.03,1.91-.12,2.85-.28-.12.62-.12,1.25.03,1.88l-2.16-.06c-1.28-.03-2.56-.06-3.85-.06-.91,0-1.81.03-2.72.03s-1.75.03-2.63.06l.19-3.94.1-10.7-.06-2.75c-.03-1.31-.09-2.66-.16-4l3.38.12h4.51Z"/>
  <path class="cls-1" d="m42.36,10.53l4.16-.06c2.25-.03,5.1.16,6.29,2.41.38.72.66,1.63.66,2.44,0,3.63-3.25,5.38-6.41,5.94l6.44,8.17,1.5,1.75.53.69c-.62-.03-1.22-.16-1.85-.16-.59,0-1.16.13-1.75.16-.62-.88-1.25-1.75-1.91-2.63l-3.69-4.79-2.5-2.94h-1.19v3.85l.12,6.51c-.47-.03-.97-.09-1.44-.09-.5,0-1.03.06-1.53.09.03-1.22.13-2.41.16-3.63l.16-10.95-.19-6.07v-.75l2.44.06Zm.22,9.79c.5.03,1,.06,1.5.06,1,0,1.63-.03,2.6-.22,2.28-.47,4.01-2.03,4.01-4.47,0-1.03-.28-2.03-1.03-2.78-.81-.84-1.28-.97-2.41-1.16-.6-.09-1.38-.09-1.97-.09-.84,0-1.72.03-2.57.06l-.12,8.6Z"/>
  <path class="cls-1" d="m61.79,17.45c-.06,1.94-.13,3.91-.13,5.88,0,.63.03,1.25.06,1.88l.28,6.66c-.5-.03-1.03-.09-1.53-.09-.53,0-1.07.06-1.6.09l.31-6.72c.07-1,.03-2,.07-3,0-.88.03-1.78.03-2.66,0-.75-.03-1.5-.03-2.25l-.13-6.69c.44.06.97.16,1.41.16.5,0,1.07,0,1.53-.19l-.28,6.94Z"/>
  <path class="cls-1" d="m83.62,13.97c-.12-.09-.19-.25-.34-.34-1.5-1.41-3.54-2.34-5.63-2.34-5.76,0-8.63,4.66-8.63,9.98,0,1.16.25,2.82.53,3.91.31,1.16.78,2.07,1.53,3,1.53,1.91,3.91,2.94,6.35,2.94,2.25,0,4.47-.91,6.26-2.25.13-.06.25-.22.5-.22l-.28,1.91c-1.97,1.31-4.54,1.75-6.91,1.75-6.88,0-11.01-4.32-11.01-11.17,0-3,1.28-6.32,3.6-8.29,2.32-1.94,5.19-2.75,8.2-2.75,2.29,0,4.63.53,6.73,1.44-.31.78-.5,1.6-.66,2.41l-.22.03Z"/>
  <path class="cls-1" d="m88.56,11.22l-.06-.72c.13.03.25.03.38.06.84.19,1.72.06,2.56-.06-.06.28-.06.6-.06.91l-.15,8.29c0,.19.03.38.03.53,0,.09.19.22.28.19,0,.03.66-.47.88-.66.44-.41.84-.81,1.28-1.25l1.53-1.5,6.07-6.51c.38.03.75.06,1.12.06.44,0,.91-.06,1.34-.06l-7.01,6.88-2.66,2.69c2.5,2.88,5.1,5.69,7.6,8.6l2.53,2.97v.22c-.56-.03-1.1-.16-1.66-.16-.6,0-1.16.13-1.75.16-.75-.91-1.44-1.85-2.22-2.75l-4.22-5.04-2.59-2.94c-.16-.13-.35-.22-.53-.09-.03.13-.03.28-.03.44,0,1.09.03,2.22.03,3.32v3.19l.12,3.1.06.78c-.81-.16-1.56-.09-2.38-.03l-.59.03c.03-.28.03-.53.06-.81l.19-5.54c.03-1.44.07-2.91.07-4.35s-.03-2.79-.07-4.16l-.09-2.94-.06-2.85Z"/>
  <path class="cls-1" d="m110.58,23.44c-.74-1.1-1.54-2.21-1.54-3.58,0-.94.51-1.98,1.22-2.6.6-.53,1.52-.8,2.32-.8.9,0,1.42.11,2.16.67.55.41.87,1.03.87,1.75,0,1.95-1.65,3.17-3.12,4.16.94,1.19,1.81,2.43,2.83,3.58l1.22,1.38.12-.14c.25-.32.46-.69.69-1.03.39-.6.8-1.19,1.15-1.84.21-.35.39-.71.58-1.08.09-.14.16-.28.21-.44.02.05.05.11.07.16.09.16.21.28.32.42.16.14.32.23.48.37-.96,1.47-1.97,2.87-3.1,4.2l2.87,3.31c-.46-.05-.94-.09-1.4-.09-.43,0-.87.05-1.31.07-.46-.67-.92-1.31-1.45-1.93-1.29,1.42-3.03,2.23-4.96,2.23-1.15,0-2.3-.28-3.17-1.06-.78-.73-1.2-1.72-1.2-2.78s.64-2.3,1.4-3.08c.83-.83,1.56-1.24,2.62-1.77l.14-.07Zm.21.67c-1.38.87-2.5,1.97-2.5,3.72,0,.99.39,1.79,1.1,2.46.69.69,1.29.9,2.28.9,1.36,0,2.51-.57,3.47-1.52.07-.05.12-.11.16-.18-1.47-1.79-2.94-3.61-4.32-5.49-.07.05-.14.07-.18.11m3.65-5.1c0-1.08-.73-1.93-1.84-1.93-.55,0-1.17.35-1.49.76-.35.42-.46.88-.46,1.4,0,1.19.76,2.37,1.45,3.31,1.22-.87,2.34-1.93,2.34-3.54"/>
  <path class="cls-1" d="m142,14.35c-1.75-2-4.38-3.1-7.04-3.1s-5.04,1-6.79,2.94c-1.66,1.88-2.25,4.5-2.25,6.94,0,2.6.75,5.51,2.57,7.44,1.82,1.94,4.22,2.56,6.82,2.56,1.69,0,3.44-.28,4.97-1.03v-5.07c0-.97-.03-1.91-.09-2.88.59.06,1.06.12,1.5.12.41,0,1.03.03,1.38-.22-.03.31-.03.63-.03.94l-.09,3.13v4.79c-2.72.94-5.6,1.44-8.51,1.44-2.13,0-4.22-.47-6.13-1.38-1.97-.91-3.25-2.25-4.28-4.13-.94-1.75-1.13-3.63-1.13-5.57,0-7.32,5.26-11.13,12.2-11.13,2.78,0,5.04.41,7.57,1.53.12.09.28.15.41.25-.28.78-.5,1.6-.72,2.41h-.34Z"/>
  <path class="cls-1" d="m151.39,17.45c-.06,1.94-.12,3.91-.12,5.88,0,.63.03,1.25.06,1.88l.28,6.66c-.5-.03-1.03-.09-1.53-.09-.53,0-1.06.06-1.6.09l.31-6.72c.06-1,.03-2,.06-3,0-.88.03-1.78.03-2.66,0-.75-.03-1.5-.03-2.25l-.12-6.69c.44.06.97.16,1.41.16.5,0,1.06,0,1.53-.19l-.28,6.94Z"/>
  <path class="cls-1" d="m157.77,20.48v-10.45h.53l15.39,16.46.22.19c.06-1.13.09-2.28.09-3.41v-10.01l-.13-2.5-.03-.25c.44.06.91.09,1.35.09.25,0,.53-.03.78-.09-.03.25-.03.5-.06.75l-.16,3.07-.28,7.42-.1,7.01.1,3.53h-.47c-.62-.75-1.25-1.5-1.91-2.22l-5.1-5.66-8.73-9.29-.06,2.94c-.03,1.56,0,3.1,0,4.63v2.5l.09,3.69.16,3c-.72-.12-1.44-.12-2.16,0,.12-1.38.22-2.75.25-4.13l.22-7.26Z"/>
  <path class="cls-1" d="m197.81,11.25c3.76,1.97,5.69,5.19,5.69,9.45,0,7.04-4.94,11.63-11.92,11.63-4.72,0-8.57-1.94-10.64-6.28-.38-.81-.53-1.63-.69-2.5-.13-.78-.19-1.56-.19-2.35,0-3.16,1.16-6.1,3.54-8.23,2.25-2.03,5-3.03,8.04-3.03,2,0,4.38.37,6.16,1.31m.66,2.85c-1.57-2-4-3.07-6.51-3.07-1.94,0-3.69.53-5.22,1.66-2.75,2.03-3.6,5.72-3.6,8.95,0,2.53.53,4.97,2.22,6.91,1.63,1.85,3.88,2.82,6.32,2.82,4.38,0,7.7-3.32,8.48-7.51.19-.91.28-1.91.28-2.85,0-2.6-.34-4.82-1.97-6.91"/>
  <path class="cls-1" d="m1.46,42.11l.02.75.02.07h-.45c-.35-.02-.69-.03-1.04,0,.02-.07.02-.15.02-.22l.12-1.67v-2.81l-.05-.66-.02-.05.23.02h1.07c.07,0,.16-.01.23-.02-.02.06-.02.13-.02.19l-.12,1.6v2.79Z"/>
  <path class="cls-1" d="m10.06,39.99l-.04-.42v-.05c.22.02.47.02.69.02.24,0,.49,0,.73-.02-.05.28-.09.56-.1.85-.02.43-.03.87-.03,1.3,0,.26.03.53.03.79,0,.16.02.33.03.49-.28-.01-.48-.02-.67-.02-.23,0-.45,0-.67.02v-.15l.04-.42v-.07c-.61.44-1.59.68-2.81.68-.78,0-1.64-.12-2.18-.36-.62-.28-.62-.67-.61-1.03l.05-1.04-.03-.71v-.32c.31.02.54.02.75.02.24,0,.48,0,.72-.02-.05.17-.07.35-.09.53-.03.46-.09.91-.09,1.37,0,.22.03.57.28.77.36.29,1.02.44,1.82.44.47,0,1.02-.08,1.37-.21.43-.16.6-.35.73-.58.1-.22.09-.44.09-.67v-1.18Z"/>
  <path class="cls-1" d="m18.53,40.64l-.83.42,3.24,1.83v.05c-.28-.02-.57-.02-.86-.02-.26,0-.54,0-.8.02-.31-.19-.59-.38-.88-.57l-1.52-.9c-.33.19-.66.38-.97.57l-.86.51-.62.39c-.15-.02-.31-.02-.48-.02-.19,0-.4,0-.59.02v-.05c.09-.04.17-.09.26-.13l.99-.5,1.87-1.01-3.12-1.74h.14c.26.01.52.02.78.02.28,0,.57,0,.85-.02l.87.56.74.43.59.34.97-.52,1.42-.81c.26.01.41.02.57.02.21,0,.42,0,.62-.02-.43.19-.85.4-1.26.6l-1.09.52Z"/>
  <path class="cls-1" d="m28.34,39.99l-.04-.42v-.05c.23.02.47.02.69.02.24,0,.48,0,.73-.02-.05.28-.09.56-.11.85-.02.43-.03.87-.03,1.3,0,.26.03.53.03.79,0,.16.02.33.03.49-.28-.01-.48-.02-.67-.02-.22,0-.45,0-.68.02v-.15l.04-.42v-.07c-.61.44-1.59.68-2.8.68-.78,0-1.65-.12-2.18-.36-.62-.28-.62-.67-.61-1.03l.05-1.04-.03-.71v-.32c.31.02.54.02.74.02.24,0,.48,0,.73-.02-.05.17-.07.35-.09.53-.04.46-.09.91-.09,1.37,0,.22.03.57.28.77.36.29,1.02.44,1.82.44.47,0,1.02-.08,1.37-.21.43-.16.6-.35.73-.58.1-.22.09-.44.09-.67v-1.18Z"/>
  <path class="cls-1" d="m32.55,41.98l-.05-2.42-.02-.05h.38c.35.02.68.03,1.02,0l-.09.5v.17l.03.04.12-.09c.57-.38,1.32-.76,2.51-.67.07,0,.14.01.21.02l-.09.18v.17l-.03.15v.09l-.12.03c-.07-.01-.12-.04-.19-.05-.17-.03-.43-.06-.62-.06-.38,0-.85.06-1.11.18-.26.11-.33.15-.47.3-.24.26-.23.57-.23.84v.88l.05.7.02.06c-.24-.02-.5-.02-.75-.02-.23,0-.43,0-.66.02.02-.07.02-.13.02-.2l.05-.76Z"/>
  <path class="cls-1" d="m39.75,43.81l.71-.57.3-.25.07-.06-.23-.25-3.25-3.17.57.02h1.07s.14.17.14.17l.88.97,1.45,1.45.14.05.21-.19.57-.54.7-.75,1.05-1.19c.22.01.38.02.52.02.21,0,.4,0,.61-.02l-4.09,3.78-1.07,1.12c-.17-.01-.43-.03-.52-.03-.22,0-.43.01-.66.03l.83-.6Z"/>
  <path class="cls-1" d="m58.26,40.19l.47.63,1.16,1.31.09.06.26-.21,1.21-1.33.93-1.09.03-.04h.38c.24.02.49.02.71,0l-.17.16-.93.84-.89.84-.9.96-.55.62c-.14-.01-.28-.02-.41-.02-.17,0-.36,0-.54.02l-.12-.18-.47-.65-1.02-1.22-.55-.56-.19.17-1.04,1.13-.57.67-.5.64c-.22-.01-.38-.02-.5-.02-.16,0-.31,0-.47.02l-.59-.77-1.19-1.37-1.2-1.24-.05-.04c.28.01.55.02.83.02.26,0,.52,0,.78-.02l.5.69,1.07,1.3.7.67,1.25-1.4,1.05-1.26c.16,0,.31.01.45.01.17,0,.34,0,.5-.02l.48.68Z"/>
  <path class="cls-1" d="m68.8,39.44c1.14,0,2.23.19,2.99.55.74.35,1.02.77,1.02,1.23,0,.35-.21.68-.62.98-.82.57-2.16.82-3.71.82-.52,0-1.3-.07-1.77-.15-.59-.11-.9-.22-1.33-.41-.82-.38-.99-.76-.99-1.25,0-1.07,1.91-1.76,4.4-1.76m1.75,2.9c.41-.24.57-.49.67-.78.05-.12.07-.25.07-.38,0-.65-.59-1.51-2.51-1.51-2.2,0-2.84.86-2.84,1.63,0,.72.71,1.47,2.68,1.47.81,0,1.44-.17,1.92-.44"/>
  <path class="cls-1" d="m86.55,41.64v.63l.05.48v.19h-.17s-.36-.02-.36-.02c-.31,0-.62,0-.93.02.02-.08.02-.14.03-.21l.07-.46.07-.78v-.54c0-.26.03-.6-.31-.82-.33-.2-.9-.32-1.49-.32-.97,0-1.76.22-2.06.61-.1.19-.1.38-.12.58-.02.29-.02.59-.02.88,0,.19,0,.4.04.59v.31l.05.16c-.24-.02-.47-.02-.71-.02-.26,0-.52,0-.78.02.02-.05.02-.1.03-.15l.1-.84v-1.11c0-.26-.02-.53-.41-.74-.35-.19-.87-.26-1.42-.26-.83,0-1.57.18-1.89.51-.28.3-.28.63-.28.94v.98l.05.51.04.15h-.17c-.17-.02-.36-.02-.55-.02-.24,0-.48,0-.73.02.02-.06.02-.12.02-.18l.12-1.42v-.86l-.07-.8v-.17h.12c.19.02.38.02.57.02.22,0,.45,0,.67-.02-.05.2-.02.41-.03.61.62-.41,1.4-.65,2.61-.65,1.12,0,2.16.24,2.53.7.66-.46,1.54-.7,2.84-.7,1.54,0,2.6.38,2.6,1.04,0,.22-.03.44-.05.66l-.05.46Z"/>
  <path class="cls-1" d="m95.93,41.2l-3.51-.02-2.48.02c-.15.82.94,1.52,3.03,1.52.83,0,1.82-.18,2.4-.43.05-.03.1-.04.24-.05l-.1.36c-.85.25-1.92.43-2.98.43-.41,0-.81-.04-1.21-.08-.9-.08-1.75-.35-2.23-.68-.5-.33-.64-.65-.64-1.03,0-.44.36-.99,1.09-1.31.73-.33,1.82-.49,2.87-.49,2.23,0,3.46.56,3.55,1.48l-.03.28Zm-3.51-1.52c-1.63,0-2.34.65-2.44,1.23.76,0,1.5.02,2.27.02s1.56-.02,2.34-.02c-.03-.61-.45-1.23-2.16-1.23"/>
  <path class="cls-1" d="m104.78,41.91l.03.7v.33c-.31-.02-.54-.02-.74-.02-.24,0-.47,0-.71.02.02-.21.05-.41.07-.62.02-.27.05-.53.07-.8,0-.16.02-.32.02-.48,0-.18-.05-.58-.23-.72-.36-.3-.94-.48-1.77-.48-.78,0-1.54.15-1.92.44-.36.31-.36.67-.36,1.01v1.18l.05.43v.05c-.22-.01-.47-.02-.71-.02s-.48,0-.71.02c.02-.28.07-.57.09-.85.03-.43.05-.86.05-1.29,0-.23-.03-.47-.05-.7-.02-.19-.02-.38-.04-.57.29.01.49.02.68.02.23,0,.47,0,.69-.02v.15l-.05.23v.26c.62-.44,1.57-.69,2.8-.69.78,0,1.66.11,2.18.36.66.33.62.63.61,1.03l-.05,1.05Z"/>
  <path class="cls-1" d="m108.36,39.09h-.59l2.16-.9c.15-.07.29-.11.43-.18.15-.04.28-.11.47-.13.28-.03.6.03.69.15.05.05.09.15-.02.19-.09.08-.28.12-.43.16l-2.72.71Z"/>
  <path class="cls-1" d="m113.14,42.26c.42.28,1.18.51,1.99.51s1.7-.25,1.7-.64c0-.5-1.11-.57-2.01-.69-.49-.07-.99-.12-1.37-.27-.42-.16-.71-.42-.71-.65,0-.69,1.26-1.07,2.82-1.07.64,0,1.25.05,1.84.17.03,0,.09.01.12.02-.17.17-.31.34-.42.51h-.16c-.22-.24-.83-.46-1.47-.46-.87,0-1.56.19-1.56.58,0,.44.78.56,1.65.66.38.04,1.25.14,1.56.24.57.19.86.38.86.69,0,.45-.52.74-1.39.97-.45.12-1.26.17-1.8.17-.71,0-1.56-.08-2.16-.23.14-.17.29-.35.36-.53h.14Z"/>
  <path class="cls-1" d="m130.31,39.99l-.04-.42v-.05c.22.02.47.02.69.02.24,0,.48,0,.73-.02-.05.28-.09.56-.1.85-.02.43-.03.87-.03,1.3,0,.26.03.53.03.79,0,.16.02.33.03.49-.28-.01-.48-.02-.67-.02-.22,0-.45,0-.67.02v-.15l.04-.42v-.07c-.61.44-1.59.68-2.81.68-.78,0-1.64-.12-2.18-.36-.62-.28-.62-.67-.61-1.03l.05-1.04-.03-.71v-.32c.31.02.54.02.74.02.24,0,.48,0,.73-.02-.05.17-.07.35-.09.53-.04.46-.09.91-.09,1.37,0,.22.04.57.28.77.36.29,1.02.44,1.82.44.47,0,1.02-.08,1.37-.21.43-.16.61-.35.73-.58.1-.22.09-.44.09-.67v-1.18Z"/>
  <path class="cls-1" d="m141.34,41.91l.03.7v.33c-.31-.02-.54-.02-.74-.02-.24,0-.47,0-.71.02.02-.21.05-.41.07-.62.02-.27.05-.53.07-.8,0-.16.02-.32.02-.48,0-.18-.05-.58-.23-.72-.36-.3-.93-.48-1.77-.48-.78,0-1.54.15-1.92.44-.36.31-.36.67-.36,1.01v1.18l.05.43v.05c-.22-.01-.47-.02-.71-.02s-.49,0-.71.02c.02-.28.07-.57.09-.85.03-.43.05-.86.05-1.29,0-.23-.04-.47-.05-.7-.02-.19-.02-.38-.04-.57.29.01.48.02.67.02.23,0,.47,0,.69-.02v.15l-.05.23v.26c.62-.44,1.58-.69,2.8-.69.78,0,1.66.11,2.18.36.66.33.62.63.61,1.03l-.05,1.05Z"/>
  <path class="cls-1" d="m149.74,38.91l-.03-1.2v-.19h.16c.19.03.38.03.57.03.24,0,.48,0,.71-.03-.02.07-.02.15-.03.21l-.05.59-.05,4.61h-.17s-.31-.02-.31-.02c-.26,0-.52,0-.78.02l.03-.69c-.07.02-.09.04-.1.05-.62.47-1.59.72-2.89.72-.5,0-1.02-.06-1.49-.14-.43-.08-.73-.21-1.06-.35-.73-.32-.92-.85-.92-1.26,0-.46.26-.92.99-1.28.68-.34,1.7-.53,2.74-.53,1.21,0,2.11.27,2.7.7v-1.24Zm-4.76,3.01c.19.45,1.11.83,2.23.83,2.01,0,2.53-.96,2.53-1.62,0-.61-.55-1.38-2.32-1.38-2.22,0-2.61.87-2.61,1.61,0,.19.09.37.17.56"/>
  <path class="cls-1" d="m160.41,41.2l-3.52-.02-2.48.02c-.16.82.93,1.52,3.03,1.52.83,0,1.82-.18,2.4-.43.05-.03.1-.04.24-.05l-.1.36c-.85.25-1.92.43-2.98.43-.42,0-.82-.04-1.21-.08-.9-.08-1.75-.35-2.23-.68-.5-.33-.64-.65-.64-1.03,0-.44.36-.99,1.09-1.31.73-.33,1.82-.49,2.87-.49,2.23,0,3.46.56,3.55,1.48l-.03.28Zm-3.52-1.52c-1.63,0-2.34.65-2.44,1.23.76,0,1.5.02,2.27.02s1.56-.02,2.34-.02c-.03-.61-.45-1.23-2.16-1.23"/>
  <path class="cls-1" d="m162.43,41.98l-.05-2.42-.02-.05h.38c.35.02.67.03,1.02,0l-.09.5v.17l.04.04.12-.09c.57-.38,1.32-.76,2.51-.67.07,0,.14.01.21.02l-.09.18v.17l-.03.15v.09l-.12.03c-.07-.01-.12-.04-.19-.05-.17-.03-.43-.06-.62-.06-.38,0-.85.06-1.11.18-.26.11-.33.15-.47.3-.24.26-.23.57-.23.84v.88l.05.7.02.06c-.24-.02-.5-.02-.74-.02-.23,0-.43,0-.66.02.02-.07.02-.13.02-.2l.05-.76Z"/>
  <path class="cls-1" d="m174.67,40.19l.47.63,1.16,1.31.09.06.26-.21,1.21-1.33.93-1.09.03-.04h.38c.24.02.49.02.71,0l-.17.16-.93.84-.88.84-.9.96-.55.62c-.14-.01-.28-.02-.42-.02-.17,0-.36,0-.54.02l-.12-.18-.47-.65-1.02-1.22-.55-.56-.19.17-1.04,1.13-.57.67-.5.64c-.22-.01-.38-.02-.5-.02-.15,0-.31,0-.47.02l-.59-.77-1.2-1.37-1.19-1.24-.05-.04c.28.01.55.02.83.02.26,0,.52,0,.78-.02l.5.69,1.07,1.3.69.67,1.25-1.4,1.05-1.26c.15,0,.31.01.45.01.17,0,.34,0,.5-.02l.49.68Z"/>
  <path class="cls-1" d="m188.29,41.2l-3.51-.02-2.48.02c-.16.82.94,1.52,3.03,1.52.83,0,1.82-.18,2.41-.43.05-.03.1-.04.24-.05l-.1.36c-.85.25-1.92.43-2.98.43-.41,0-.81-.04-1.21-.08-.9-.08-1.75-.35-2.23-.68-.5-.33-.64-.65-.64-1.03,0-.44.36-.99,1.09-1.31.73-.33,1.82-.49,2.88-.49,2.23,0,3.46.56,3.55,1.48l-.04.28Zm-3.51-1.52c-1.63,0-2.34.65-2.44,1.23.76,0,1.51.02,2.27.02s1.56-.02,2.34-.02c-.03-.61-.45-1.23-2.16-1.23"/>
  <path class="cls-1" d="m190.44,40.26v-.4c.83-.24,1.77-.41,2.79-.41.78,0,1.59.1,2.15.34.64.28.68.53.66.89l-.05.87c0,.17-.03.35-.03.52,0,.21-.09.65.66.65.14,0,.28,0,.4-.03v.16s-.08,0-.12.02c-.14.02-.26.04-.4.05-.9.06-1.65,0-1.79-.42l-.16.07c-.73.3-1.52.45-2.56.45-1.23,0-2.3-.35-2.3-.88,0-.31.36-.65,1.02-.8.68-.15,1.42-.19,2.18-.25.5-.04,1.06-.06,1.52-.17.1-.02.19-.04.26-.08.07-.07.05-.16.05-.24,0-.53-.73-.86-2.03-.86-.75,0-1.49.15-1.9.41-.07.03-.12.06-.16.1h-.19Zm4.28.88c-.05,0-.1.02-.16.03l-.52.04c-1.18.09-2.94.16-2.94.82,0,.45.64.68,1.7.68.47,0,1.05-.14,1.4-.27.1-.05.21-.1.31-.15.07-.02.1-.05.14-.08l.07-1.08Z"/>
  <path class="cls-1" d="m198.98,41.98l-.05-2.42-.02-.05h.38c.35.02.68.03,1.02,0l-.09.5v.17l.03.04.12-.09c.57-.38,1.32-.76,2.51-.67.07,0,.14.01.21.02l-.09.18v.17l-.04.15v.09l-.12.03c-.07-.01-.12-.04-.19-.05-.17-.03-.43-.06-.62-.06-.38,0-.85.06-1.11.18-.26.11-.33.15-.47.3-.24.26-.22.57-.22.84v.88l.05.7.02.06c-.24-.02-.5-.02-.75-.02-.22,0-.43,0-.66.02.02-.07.02-.13.02-.2l.05-.76Z"/>
  <path class="cls-2" d="m211.39,5.03c0,2.59-2.1,4.69-4.69,4.69s-4.69-2.1-4.69-4.69,2.1-4.69,4.69-4.69,4.69,2.1,4.69,4.69Z"/>
  <path class="cls-1" d="m205.49,1.61l1.26-.02c.69-.01,1.55.05,1.91.73.12.22.2.49.2.74,0,1.1-.99,1.63-1.95,1.8l1.96,2.48.45.53.16.21c-.19,0-.37-.05-.56-.05-.18,0-.35.04-.53.05-.19-.26-.38-.53-.58-.8l-1.12-1.45-.76-.89h-.36v1.16l.04,1.98c-.14,0-.29-.03-.44-.03-.15,0-.31.02-.47.03.01-.37.04-.73.05-1.1l.05-3.32-.06-1.84v-.23l.74.02Zm.07,2.97c.15.01.3.02.46.02.3,0,.49-.01.79-.07.69-.14,1.22-.62,1.22-1.36,0-.31-.09-.62-.31-.84-.25-.26-.39-.3-.73-.35-.18-.03-.42-.03-.6-.03-.26,0-.52,0-.78.02l-.04,2.61Z"/>
</svg>