<?xml version="1.0" encoding="UTF-8"?>
<svg id="Vrstva_1" data-name="Vrstva 1" xmlns="http://www.w3.org/2000/svg" viewBox="0 0 116.53 58.81">
  <defs>
    <style>
      .cls-1, .cls-2 {
        fill: #004884;
        stroke-width: 0px;
      }

      .cls-2 {
        fill-rule: evenodd;
      }
    </style>
  </defs>
  <polygon class="cls-2" points="2.47 43.16 7.4 18.81 12.33 16.03 9.86 28.67 23.74 8.94 32.37 4.01 16.65 28.06 24.05 43.16 18.81 43.16 13.26 31.14 8.63 35.45 7.09 43.16 2.47 43.16"/>
  <path class="cls-2" d="m26.2,35.45c0-3.08.92-5.86,2.78-7.71,1.54-2.16,4.01-3.08,6.78-3.08,2.46,0,4.32.62,5.55,2.16,1.54,1.54,2.16,3.39,2.16,5.86,0,3.08-.92,5.55-2.47,7.7-1.85,2.16-4.01,3.09-7.09,3.09-1.54,0-2.77-.31-4.01-.93-1.23-.92-2.16-1.85-2.77-3.08-.61-1.23-.92-2.47-.92-4.01m12.95-3.39c0-1.23-.31-2.16-.92-2.77-.61-.62-1.54-.92-2.46-.92s-1.85.31-2.47.92c-.92.62-1.54,1.54-1.85,2.77-.31,1.23-.62,2.47-.62,3.39,0,1.23.31,2.47.92,3.08.62.92,1.54,1.23,2.47,1.23,1.23,0,2.16-.62,3.08-1.85,1.24-1.54,1.85-3.39,1.85-5.86"/>
  <path class="cls-2" d="m48.4,24.97h4.32l-.92,3.7c1.54-2.78,3.39-4.01,5.24-4.01.62,0,1.23.31,2.16.62l-1.85,4.01c-.31-.31-.93-.31-1.23-.31-.92,0-1.54.31-2.47.92-.61.62-1.23,1.54-1.85,2.47-.31.92-.93,2.77-1.23,4.93l-1.23,5.86h-4.32l3.39-18.19Z"/>
  <path class="cls-2" d="m61.04,24.97h4.62l-2.16,10.79c-.31,1.23-.31,2.16-.31,2.47s0,.92.31,1.23c.62.31.93.62,1.54.62.31,0,.62-.31,1.23-.31.31-.31.62-.31,1.23-.62.31-.61.62-.92.93-1.23.31-.62.62-.93.92-1.85.31-.31.31-1.23.62-2.46l1.54-8.63h4.62l-3.39,18.19h-4.32l.62-2.47c-1.85,1.85-4.01,2.78-6.17,2.78-1.23,0-2.47-.31-3.08-1.23-.93-.92-1.24-2.16-1.24-3.39,0-.62.31-1.85.62-3.7l1.85-10.17Z"/>
  <path class="cls-2" d="m80.77,24.97h4.32l-.62,2.47c1.23-.92,2.16-1.85,3.08-2.16.92-.31,1.85-.62,2.78-.62,1.54,0,2.46.31,3.39,1.23.62.93,1.23,1.85,1.23,3.39,0,.62-.31,1.85-.62,3.7l-1.85,10.17h-4.63l1.85-10.17c.31-1.54.61-2.47.61-2.78,0-.62-.31-1.23-.61-1.54-.31-.31-.93-.62-1.24-.62-.92,0-1.54.31-2.46.92-.62.61-1.23,1.54-1.85,2.47-.31.62-.62,2.16-.92,4.31l-1.54,7.4h-4.31l3.39-18.19Z"/>
  <path class="cls-2" d="m111.91,44.39h-4.32l.31-2.16c-.92.93-1.54,1.54-2.46,1.85-.62.31-1.54.62-2.47.62-1.85,0-3.08-.62-4.32-1.85-.93-1.23-1.54-3.39-1.54-5.86,0-2.77.61-5.54,2.16-8.01,1.54-2.16,3.39-3.39,5.86-3.39s4,.93,5.24,2.78l1.85-8.63,4.32-.62-4.62,25.28Zm-10.48-7.4c0,1.23.31,2.16.93,2.78.62.92,1.23,1.23,2.16,1.23s1.54-.31,2.16-.92c.92-.62,1.54-1.54,1.85-2.78.31-1.23.61-2.47.61-3.7s-.3-2.47-.92-3.08c-.62-.93-1.54-1.23-2.16-1.23-1.54,0-2.47.62-3.39,2.47-.93,1.54-1.24,3.08-1.24,5.24"/>
  <path class="cls-1" d="m0,22.51L37.92,0l.62.61L.31,23.12l-.31-.62ZM37.92,0h.31v.31l-.31-.31Zm.31,0l77.69,18.8v.92L38.23.61v-.61Zm77.69,18.8l.62.31-.31.31h-.31v-.62Zm.31.62l-2.47,3.7-.62-.62,2.47-3.39.61.31Zm-2.47,3.7v.31l-.31-.31v-.31l.31.31Zm-.31,0L33.29,3.39l.31-.62,80.16,19.73-.31.62Z"/>
  <path class="cls-1" d="m38.84.31l2.47,4.62-.62.31-2.47-4.62.62-.31Zm2.47,4.93l-.31.31-.31-.31.31-.31.31.31Zm-.31-.62l6.48-2.16v.62l-6.17,2.16-.31-.62Zm6.48-2.16h.31l-.31.31v-.31Zm.31,0l3.08,4.62-.62.31-3.08-4.32.61-.62Zm3.08,5.24h-.31l-.31-.31h.31l.31.31Zm-.31-.92l5.55-2.16.31.62-5.55,2.47-.31-.92Zm5.55-2.16h.62l-.31.31-.31-.31Zm.62,0l3.7,4.93-.61.31-3.7-4.62.62-.62Zm3.39,5.55h-.31v-.31l.31-.31v.62Zm-.31-.93l6.16-2.16v.62l-5.86,2.47-.31-.93Zm6.16-2.16v-.31l.31.31-.31.31v-.31Zm.31,0l3.39,4.62-.61.31-3.39-4.32.62-.62Zm3.08,4.93l-.31.31v-.31l.31-.31v.31Zm-.31-.62l5.24-2.47.31.62-5.24,2.47-.31-.62Zm5.24-2.47l.31-.31.31.31-.31.31-.31-.31Zm.62,0l3.39,4.93-.62.31-3.39-4.62.62-.62Zm3.08,5.55h-.31v-.31l.31-.31v.62Zm-.31-.92l6.47-2.47.31.93-6.47,2.46-.31-.92Zm6.47-2.47h.31l.31.31-.31.31-.31-.62Zm.62.31l3.7,4.93-.61.31-3.7-4.93.62-.31Zm3.39,5.55h0l-.31-.31.31-.31v.62Zm0-.92l6.17-2.16.31.62-6.47,2.47v-.92Zm6.17-2.16l.31-.31.31.31-.31.31-.31-.31Zm.62,0l4.01,4.93-.62.62-4.01-4.93.62-.62Zm3.7,5.55l-.31.31v-.31l.31-.31v.31Zm-.31-.62l6.17-2.46.31.62-6.16,2.47-.31-.62Zm6.17-2.46l.31-.31v.31l-.31.31v-.31Zm.31,0l4.31,4.93-.61.62-4.31-4.93.61-.62Zm4.01,5.55v.31l-.31-.31.31-.31v.31Zm-.31-.62l6.17-2.77.31.93-6.16,2.46-.31-.62Z"/>
  <path class="cls-1" d="m13.8,51.6c0,2.14-.75,4.2-2.08,5.52-1.09,1.06-2.57,1.69-4.33,1.69-3.04,0-4.74-2.16-4.74-4.88,0-2.12.78-4.22,2.16-5.54,1.09-1.05,2.59-1.67,4.27-1.67,3.09,0,4.72,2.08,4.72,4.88m-7.03-1.91c-.94.94-1.46,2.74-1.46,4.15,0,1.65.75,2.89,2.45,2.89.73,0,1.42-.33,1.96-.85.92-.92,1.42-2.85,1.42-4.21,0-1.46-.52-2.86-2.36-2.86-.78,0-1.48.35-2.01.89"/>
  <path class="cls-1" d="m18.87,58.37c-.34.16-1,.4-1.86.4-1.66,0-2.48-1.13-2.48-2.5,0-2.2,1.62-4.22,3.94-4.22.6,0,1.14.18,1.35.28l-.32.88c-.25-.12-.61-.24-1.09-.24-1.68,0-2.73,1.65-2.73,3.17,0,1.04.54,1.72,1.6,1.72.65,0,1.16-.2,1.49-.36l.11.88Z"/>
  <path class="cls-1" d="m24.59,58.25c-.48.28-1.26.52-2.13.52-1.71,0-2.45-1.17-2.45-2.6,0-1.94,1.44-4.14,3.51-4.14,1.23,0,1.89.73,1.89,1.65,0,1.69-1.9,2.14-4.28,2.1-.06.28-.01.88.13,1.22.25.57.77.86,1.44.86.76,0,1.33-.24,1.73-.45l.16.82Zm-.24-4.54c0-.52-.4-.82-.99-.82-1.05,0-1.84,1.03-2.1,2.04,1.73.01,3.09-.21,3.09-1.21h0Z"/>
  <polygon class="cls-1" points="25.99 58.62 27.78 49.17 28.89 49.17 27.08 58.62 25.99 58.62"/>
  <path class="cls-1" d="m35.2,54.72c0,1.98-1.41,4.04-3.57,4.04-1.61,0-2.52-1.2-2.52-2.65,0-2.12,1.48-4.09,3.57-4.09,1.74,0,2.52,1.32,2.52,2.69m-4.94,1.35c0,1.05.57,1.81,1.52,1.81,1.31,0,2.29-1.67,2.29-3.18,0-.75-.35-1.8-1.51-1.8-1.38,0-2.32,1.69-2.3,3.17"/>
  <path class="cls-1" d="m37.31,52.18l.56,3.67c.09.73.17,1.23.2,1.58h.04c.13-.35.31-.77.68-1.51l1.97-3.75h1.21l-3.58,6.44h-1.09l-1.12-6.44h1.13Z"/>
  <path class="cls-1" d="m46.47,58.25c-.48.28-1.26.52-2.13.52-1.7,0-2.45-1.17-2.45-2.6,0-1.94,1.44-4.14,3.51-4.14,1.22,0,1.89.73,1.89,1.65,0,1.69-1.9,2.14-4.29,2.1-.05.28-.01.88.13,1.22.25.58.77.86,1.44.86.76,0,1.33-.24,1.73-.45l.16.83Zm-.24-4.54c0-.52-.4-.82-.99-.82-1.05,0-1.84,1.02-2.1,2.04,1.73.01,3.09-.21,3.09-1.21h0Zm1.21-4.22l-1.77,1.91h-.86l1.32-1.91h1.32Z"/>
  <path class="cls-1" d="m52.46,46.91h2.46l-.99,5.23h.05c.35-.51.71-.92,1.04-1.34l3.25-3.89h3.13l-4.74,5.05,2.71,6.66h-2.71l-1.96-5.09-1.25,1.18-.75,3.91h-2.46l2.22-11.71Z"/>
  <path class="cls-1" d="m66.7,54.72c0,1.98-1.41,4.04-3.57,4.04-1.61,0-2.52-1.2-2.52-2.65,0-2.12,1.48-4.09,3.57-4.09,1.74,0,2.52,1.32,2.52,2.69m-4.94,1.35c0,1.05.57,1.81,1.52,1.81,1.3,0,2.29-1.67,2.29-3.18,0-.75-.34-1.8-1.51-1.8-1.38,0-2.31,1.69-2.3,3.17"/>
  <path class="cls-1" d="m67.47,58.62l.86-4.56c.15-.72.23-1.35.31-1.88h.98l-.16,1.27h.03c.57-.91,1.44-1.41,2.38-1.41.77,0,1.64.44,1.64,1.8,0,.27-.05.69-.12,1.04l-.72,3.75h-1.1l.71-3.71c.05-.26.09-.56.09-.83,0-.65-.25-1.13-1.01-1.13s-1.9.95-2.2,2.55l-.59,3.12h-1.1Z"/>
  <path class="cls-1" d="m74.64,57.51c.31.18.86.4,1.38.4.74,0,1.22-.48,1.22-1.05,0-.51-.23-.81-.89-1.19-.74-.41-1.16-.98-1.16-1.64,0-1.13.97-2,2.33-2,.59,0,1.1.16,1.34.32l-.3.84c-.23-.13-.64-.29-1.12-.29-.67,0-1.15.41-1.15.97,0,.47.31.76.88,1.08.72.41,1.21.97,1.21,1.69,0,1.36-1.1,2.13-2.46,2.13-.69-.01-1.3-.23-1.6-.45l.31-.81Z"/>
  <path class="cls-1" d="m82.39,50.64l-.29,1.54h1.55l-.18.87h-1.54l-.6,3.13c-.07.36-.12.69-.12,1.03,0,.39.19.63.61.63.19,0,.37-.02.52-.05l-.05.88c-.2.07-.54.12-.85.12-.98,0-1.36-.6-1.36-1.25,0-.37.04-.75.13-1.21l.64-3.26h-.93l.17-.87h.92l.23-1.18,1.16-.36Z"/>
  <path class="cls-1" d="m83.71,58.62l.78-4.15c.16-.84.27-1.69.33-2.29h.97c-.05.45-.11.91-.17,1.4h.04c.41-.88,1.11-1.55,1.97-1.55.09,0,.23.01.3.03l-.21,1.09c-.07-.01-.17-.02-.29-.02-.96,0-1.81,1.16-2.09,2.66l-.53,2.83h-1.1Z"/>
  <path class="cls-1" d="m94.23,52.18l-.87,4.57c-.13.72-.23,1.35-.29,1.88h-1l.17-1.21h-.03c-.57.84-1.43,1.36-2.28,1.36s-1.69-.4-1.69-1.86c0-.31.04-.65.12-1.08l.69-3.65h1.1l-.68,3.6c-.08.36-.12.66-.12.94,0,.66.28,1.12,1.04,1.12.8,0,1.82-.93,2.09-2.36l.63-3.3h1.1Z"/>
  <path class="cls-1" d="m94.96,58.62l1.78-9.45h1.1l-1.13,5.92h.03c.2-.23.44-.47.6-.66l2.27-2.26h1.36l-2.81,2.65,1.93,3.79h-1.22l-1.54-3.18-.81.73-.47,2.45h-1.09Z"/>
  <path class="cls-1" d="m105.26,58.37c-.33.16-1,.4-1.86.4-1.66,0-2.48-1.13-2.48-2.5,0-2.2,1.63-4.22,3.94-4.22.6,0,1.15.18,1.35.28l-.32.88c-.25-.12-.61-.24-1.09-.24-1.68,0-2.73,1.65-2.73,3.17,0,1.04.54,1.72,1.6,1.72.65,0,1.16-.2,1.49-.36l.11.88Z"/>
  <path class="cls-1" d="m110.99,58.25c-.48.28-1.27.52-2.13.52-1.7,0-2.45-1.17-2.45-2.6,0-1.94,1.44-4.14,3.51-4.14,1.23,0,1.89.73,1.89,1.65,0,1.69-1.9,2.14-4.29,2.1-.05.28-.01.88.13,1.22.25.57.77.86,1.44.86.76,0,1.33-.24,1.73-.45l.16.82Zm-.24-4.54c0-.52-.4-.82-.99-.82-1.05,0-1.84,1.03-2.1,2.04,1.73.01,3.09-.21,3.09-1.21h0Z"/>
</svg>