<?xml version="1.0" encoding="UTF-8"?>
<svg id="Vrstva_1" data-name="Vrstva 1" xmlns="http://www.w3.org/2000/svg" xmlns:xlink="http://www.w3.org/1999/xlink" viewBox="0 0 94.89 52.72">
  <defs>
    <style>
      .cls-1 {
        fill: none;
      }

      .cls-1, .cls-2, .cls-3, .cls-4 {
        stroke-width: 0px;
      }

      .cls-2 {
        fill: #acb1b9;
      }

      .cls-3 {
        fill: #fff;
      }

      .cls-5 {
        clip-path: url(#clippath);
      }

      .cls-4 {
        fill: #085194;
      }
    </style>
    <clipPath id="clippath">
      <rect class="cls-1" width="94.89" height="52.72"/>
    </clipPath>
  </defs>
  <rect class="cls-4" width="94.89" height="52.72"/>
  <g class="cls-5">
    <path class="cls-3" d="m50.02,45.33c.06.15.12.28.2.37.14.16.31.24.51.24.11,0,.21-.03.28-.11.08-.07.12-.17.12-.29,0-.11-.04-.21-.12-.29-.05-.05-.16-.13-.33-.24l-.29-.18c-.09-.05-.16-.11-.21-.17-.1-.11-.15-.23-.15-.36,0-.18.06-.32.17-.44.11-.11.27-.17.46-.17.08,0,.17.02.28.06.11.04.17.06.19.06.04,0,.07-.01.09-.03.02-.02.03-.05.04-.09h.07l.07.73h-.08c-.06-.22-.15-.37-.27-.46-.12-.09-.25-.13-.37-.13-.09,0-.18.03-.24.08-.07.05-.11.13-.11.23,0,.09.03.17.08.23s.14.13.25.2l.3.19c.19.12.32.22.4.32.08.1.11.22.11.35,0,.18-.07.33-.2.45-.14.12-.31.18-.52.18-.11,0-.22-.02-.33-.06-.12-.04-.18-.06-.2-.06-.04,0-.07.01-.08.04-.02.03-.02.05-.03.08h-.08l-.1-.73h.08Z"/>
    <path class="cls-3" d="m51.78,43.74h1.95l.02.59h-.08c-.04-.19-.09-.3-.15-.36-.06-.05-.19-.08-.39-.08h-.19v1.76c0,.13.02.21.06.25.04.03.13.05.27.06v.06h-1.01v-.06c.15-.01.24-.04.27-.07.04-.04.05-.13.05-.28v-1.72h-.19c-.19,0-.32.03-.39.08-.07.05-.12.17-.16.36h-.08l.02-.59Z"/>
    <path class="cls-3" d="m53.59,46.02v-.06c.09-.01.15-.04.2-.1.04-.06.12-.21.23-.46l.72-1.69h.07l.86,1.95c.06.13.1.21.14.24.03.03.09.05.17.06v.06h-.88v-.06c.1-.01.17-.02.19-.03.03-.01.04-.05.04-.1,0-.02,0-.05-.02-.09-.01-.04-.03-.09-.05-.13l-.14-.33h-.91c-.09.22-.14.36-.16.41-.02.05-.03.09-.03.12,0,.06.02.1.07.12.03.02.08.02.17.03v.06h-.68Zm1.48-.89l-.4-.95-.4.95h.79Z"/>
    <path class="cls-3" d="m56.56,43.74v.06c-.09,0-.15,0-.18.02-.06.02-.08.05-.08.11,0,.03,0,.07.03.12.02.05.06.14.11.26l.54,1.2.49-1.3c.02-.06.04-.1.05-.15.01-.04.02-.07.02-.1,0-.07-.03-.11-.09-.14-.03-.01-.09-.02-.17-.02v-.06h.71v.06c-.07.01-.13.03-.16.06-.05.04-.11.13-.16.26l-.76,1.94h-.05l-.85-1.89c-.07-.16-.13-.26-.17-.3-.04-.04-.11-.06-.19-.07v-.06h.92Z"/>
    <path class="cls-3" d="m58.11,45.96c.13-.01.21-.04.25-.07.04-.03.06-.11.06-.24v-1.53c0-.12-.02-.2-.06-.24-.04-.04-.12-.06-.25-.07v-.07h1.83v.5s-.08,0-.08,0c-.03-.15-.07-.25-.13-.3-.06-.04-.19-.07-.39-.07h-.47c-.05,0-.08,0-.09.03-.01.02-.02.05-.02.09v.77h.53c.15,0,.24-.02.28-.07s.07-.13.1-.26h.08v.79h-.08c-.02-.13-.06-.22-.1-.26-.04-.04-.13-.07-.28-.07h-.53v.85c0,.07.02.11.06.12.04.01.17.02.39.02.23,0,.41-.03.52-.08.11-.05.21-.17.3-.37h.1l-.16.58h-1.86v-.06Z"/>
    <path class="cls-3" d="m60.24,45.96c.14,0,.23-.03.27-.06.04-.04.06-.12.06-.25v-1.53c0-.13-.02-.21-.06-.25-.04-.04-.13-.06-.27-.07v-.07h.96c.28,0,.49.05.66.14.16.09.24.24.24.46,0,.16-.06.29-.17.37-.06.05-.16.09-.29.12.16.04.29.1.41.19.11.09.17.21.17.37,0,.27-.12.46-.37.56-.13.05-.29.08-.48.08h-1.12v-.06Zm1.3-1.25c.15-.07.22-.19.22-.36,0-.2-.08-.34-.25-.42-.09-.04-.23-.06-.43-.06-.07,0-.11,0-.13.02-.02.02-.03.05-.03.1v.78h.33c.12,0,.21-.03.29-.06m.11,1.09c.12-.07.18-.2.18-.39s-.07-.33-.21-.4c-.14-.07-.32-.1-.53-.1h-.1s-.03,0-.06,0v.86c0,.06.02.1.05.11.03.02.11.03.23.03.18,0,.32-.03.44-.1"/>
    <path class="cls-3" d="m62.52,45.96c.14-.01.23-.05.27-.1.04-.05.06-.17.06-.35v-1.52l-.05-.06c-.05-.06-.09-.1-.13-.11-.04-.01-.09-.02-.16-.02v-.07h.59l1.33,1.65v-1.14c0-.19-.03-.31-.09-.37-.03-.04-.12-.06-.24-.07v-.07h.81v.07c-.13.02-.22.04-.26.1-.04.05-.06.17-.06.35v1.81h-.06l-1.52-1.89v1.34c0,.19.03.31.08.37.03.04.11.06.24.08v.06h-.81v-.06Z"/>
    <path class="cls-3" d="m65.02,45.96c.14-.01.23-.03.27-.06.04-.03.06-.11.06-.25v-1.53c0-.13-.02-.21-.06-.25-.04-.04-.13-.06-.27-.07v-.07h1.02v.07c-.14,0-.23.03-.27.07-.04.04-.06.12-.06.25v1.53c0,.13.02.21.06.25.04.03.13.05.27.06v.06h-1.02v-.06Zm1.02-2.79s-.05.04-.08.07l-.53.34h-.14l.51-.51s.04-.04.07-.06c.03-.02.05-.03.09-.03.03,0,.06,0,.08.03.02.02.03.05.03.08s0,.06-.03.08"/>
    <path class="cls-3" d="m67.01,45.96c.13-.01.22-.04.25-.07.03-.04.05-.13.05-.28v-1.49c0-.12-.02-.2-.06-.24-.04-.04-.12-.06-.25-.07v-.07h1.83v.5s-.08,0-.08,0c-.02-.16-.07-.26-.13-.3-.06-.04-.19-.06-.39-.06h-.47s-.08,0-.09.03c-.01.02-.02.05-.02.09v.77h.5c.15,0,.24-.02.28-.07.04-.04.07-.13.1-.26h.08v.79h-.08c-.02-.13-.06-.22-.1-.26-.04-.04-.13-.07-.28-.07h-.5v.75c0,.13.02.21.06.24.04.04.12.06.25.07v.06h-.96v-.06Z"/>
    <path class="cls-3" d="m68.94,45.96c.14,0,.23-.03.27-.06.04-.03.06-.11.06-.25v-1.53c0-.13-.02-.21-.06-.25-.04-.04-.13-.06-.27-.07v-.07h1.02v.07c-.14,0-.23.03-.27.07-.04.04-.06.12-.06.25v1.53c0,.13.02.22.06.25.04.03.13.05.27.06v.06h-1.02v-.06Z"/>
    <path class="cls-3" d="m70.07,45.96c.13-.01.22-.04.25-.08.03-.04.05-.13.05-.27v-1.49c0-.12-.02-.2-.05-.24-.04-.04-.12-.06-.24-.07v-.07h.95c.2,0,.36.03.5.08.25.1.38.27.38.53,0,.17-.06.3-.17.39-.11.09-.26.15-.45.18l.71.87c.04.05.09.09.13.11.04.03.1.04.17.05v.06h-.55l-.86-1.06h-.15v.69c0,.13.02.21.06.24.04.04.12.06.25.07v.06h-.96v-.06Zm1.18-1.19c.18-.08.27-.22.27-.42s-.08-.33-.25-.41c-.09-.04-.2-.06-.35-.06-.1,0-.16,0-.18.02-.02.01-.03.05-.03.1v.85c.25,0,.42-.03.53-.08"/>
    <path class="cls-3" d="m72.37,45.96c.14-.01.23-.05.27-.1.04-.05.06-.17.06-.35v-1.4c0-.12-.02-.2-.06-.24-.04-.04-.13-.06-.27-.07v-.07h.68l.79,1.72.77-1.72h.68v.07c-.13.01-.21.03-.25.07-.04.04-.06.12-.06.24v1.53c0,.13.02.2.06.24.04.04.12.06.25.07v.06h-.96v-.06c.14-.01.23-.04.26-.07.03-.04.05-.13.05-.28v-1.55l-.88,1.96h-.05l-.87-1.88v1.38c0,.19.03.31.08.37.04.04.12.06.24.08v.06h-.81v-.06Z"/>
    <path class="cls-3" d="m75.45,46.02v-.06c.09-.01.15-.04.2-.1.04-.06.12-.21.23-.46l.72-1.69h.07l.86,1.95c.06.13.1.21.14.24.04.03.09.05.17.06v.06h-.88v-.06c.1-.01.16-.02.19-.03.03-.01.04-.05.04-.1,0-.02,0-.05-.02-.09-.01-.04-.03-.09-.05-.13l-.14-.33h-.91c-.09.22-.14.36-.16.41-.02.05-.03.09-.03.12,0,.06.02.1.07.12.03.02.08.02.17.03v.06h-.68Zm1.48-.89l-.4-.95-.4.95h.79Z"/>
    <rect class="cls-3" x="10.35" y="7.01" width="75.38" height=".87"/>
    <rect class="cls-3" x="10.35" y="41.97" width="75.38" height=".87"/>
    <rect class="cls-3" x="10.35" y="46.8" width="75.38" height=".87"/>
    <polygon class="cls-2" points="67.56 23.77 67.32 23.6 66.8 25.43 67.72 29.29 65.78 29.04 65.39 30.41 69.25 30.92 67.56 23.77"/>
    <path class="cls-2" d="m70.31,37.5c.18-.13.25-.43.25-.92,0-.22-.05-.56-.15-1.01-.06-.27-.15-.6-.25-.98l-.59-2.54-1.19-.14.24,1.05c.11.39.19.72.25.98.1.45.15.79.15,1.01,0,.49-.05.8-.23.95-.1.09-.11.12-.73.15v.55l1.54,1.63v-.55c.62-.02.58-.09.71-.18"/>
    <path class="cls-2" d="m62.78,36.37c.18-.4.44-1.28.77-2.63l4.43-15.71h.47l-1.53-1.63h-.47l-4.43,15.7c-.34,1.35-.6,2.23-.78,2.63-.28.64-1.13,1.18-1.59,1.22v.64s1.53,1.63,1.53,1.63v-.64c.47-.04,1.32-.58,1.6-1.22"/>
    <path class="cls-2" d="m21,27.73l-3.3.61v1.91l4.83-.9v-5.01c0-.69-.35-1.11-.69-1.23-.15-.05-.38-.05-.7,0v-.65l5.91-2.12-1.53-1.63-5.91,2.12v.65l1.39,1.46v4.77Z"/>
    <path class="cls-2" d="m13.22,37.75c.5-.03.85-.12,1.06-.25.35-.22.52-.62.52-1.21v-9.61c0-.57-.15-.9-.47-1-.18-.05-.54-.01-1.07.11v8.88c0,.59-.17.99-.52,1.21-.21.13-.56.21-1.06.24v.49l1.53,1.62v-.49Z"/>
    <polygon class="cls-2" points="13.22 25.31 19.01 23.24 19.02 23.23 17.48 21.61 11.68 23.68 11.68 24.18 13.22 25.79 13.22 25.31"/>
    <path class="cls-2" d="m25.99,37.31c.21.15.4.24.9.26,0,0-1.14-1.23-1.46-1.55.03.63.22,1.06.55,1.29"/>
    <path class="cls-2" d="m21.82,37.35c.35-.26.71-.74.71-1.43v-5.44s-1.53.25-1.53.25v3.56c0,.69-.36,1.17-.71,1.43-.15.11-.38.2-.67.25v.64l1.53,1.63v-.65c.29-.05.52-.14.67-.25"/>
    <path class="cls-2" d="m35.28,26.4c.51-.65.89-1.24.99-3.08l.47.03-1.53-1.63-.47-.03c-.1,1.85-.48,2.43-.99,3.09-.25.32-.74.51-1.3.64v1.87c1.05-.13,2.37-.28,2.83-.88"/>
    <path class="cls-2" d="m36.03,18.62c.09.25.17.54.24.86l1.53,1.63c-.23-1.02-.53-1.7-.91-2.08-.22-.21-.5-.35-.86-.41"/>
    <path class="cls-2" d="m34.7,28.44c.02.2.03.44.05.7l1.53,1.63c-.11-1.54-.12-1.91-.51-2.36-.23-.27-.74-.34-1.32-.33.12.1.2.23.24.36"/>
    <path class="cls-2" d="m28.9,37.21c.35-.3.52-.85.52-1.64v-13.4c0-.81-.18-1.29-.54-1.45-.19-.09-.52-.07-.99.04v13.18c0,.8-.17,1.35-.52,1.64-.23.19-.61.3-1.14.35v.68l1.54,1.63v-.68c.54-.04.92-.15,1.14-.35"/>
    <polygon class="cls-2" points="27.76 20.1 38.55 16.23 37.02 14.6 26.22 18.48 26.22 19.16 27.76 20.78 27.76 20.1"/>
    <path class="cls-2" d="m36.77,30.76c-.52,1.75-.73,2.97-1.37,3.68-.76.81-1.73,1.22-2.93,1.25h-.03v.06c0,.62.1,1.04.31,1.26.2.22.62.32,1.26.31,1.2-.03,2.17-.44,2.93-1.25.64-.7.85-1.92,1.37-3.67h.61l-1.53-1.63h-.61Z"/>
    <path class="cls-2" d="m45.7,14.42c.53,1.2.91,3.07,1.13,4.74l1.54,1.63c-.24-1.83-.68-3.91-1.29-5.07-.4-.74-.86-1.17-1.37-1.29"/>
    <polyline class="cls-2" points="47.58 24.79 47.58 24.79 47.57 24.79 47.58 24.79"/>
    <path class="cls-2" d="m45.55,23.14l1.38,1.06c.23.18.44.38.63.59l-1.53-1.63c-.19-.21-.41-.4-.63-.59l-1.38-1.05c-.21-.15-.4-.29-.58-.43-.13-.13-.27-.29-.4-.46.07.22.17.41.28.57.33.47,1.08,1.12,2.23,1.95"/>
    <polygon class="cls-2" points="41.15 30.36 39.62 28.74 39.08 28.74 39.08 36.9 40.61 38.53 40.61 30.36 41.15 30.36"/>
    <path class="cls-2" d="m41.15,24.87h0s.1.11.1.11c0,0,0,0,0,0l1.39,1.48h0c-.51-.54-.9-1.09-1.18-1.65-.49-.96-.73-2.2-.73-3.75,0-1.65.32-2.73.97-4.38.65-1.68,1.63-2.77,2.97-3.27.68-.25,1.33-.29,1.96-.11.63.18.99.26,1.09.23.2-.07.34-.24.42-.51.08-.27.14-.81.19-1.22h.55l-1.53-1.63h-.56c-.05.41-.11.95-.19,1.22-.08.27-.22.43-.42.51-.09.03-.45-.05-1.08-.23-.63-.18-1.29-.14-1.97.11-1.33.49-2.32,1.59-2.96,3.27-.65,1.65-.97,2.73-.97,4.38,0,1.55.24,2.79.73,3.75.29.57.69,1.13,1.22,1.68"/>
    <path class="cls-2" d="m42.6,35.76c.66,1.16,1.43,1.74,2.28,1.72.84-.02,1.43-.45,1.78-1.32.35-.87.53-1.79.53-2.74,0-1.11-.18-2.55-.55-3.21-.24-.43-.74-.95-1.48-1.58l-.05-.04c.36.66.55,2.1.55,3.2,0,.95-.18,1.87-.53,2.74-.35.87-.95,1.3-1.78,1.32-.27,0-.54-.05-.79-.17.01.02.03.05.04.07"/>
    <path class="cls-2" d="m82.25,24.22c0,.16-.04.55-.12.79-.04.15-.08.26-.14.4l-2.37,6.04.95,2.88.12-.07,2.84-7.23c.06-.14.1-.24.14-.4.08-.24.12-.62.12-.79,0-.39-.18-.74-.4-.91-.21-.17-.33-.33-.99-.61v-.53l4.08,1.53-1.53-1.63-4.08-1.53v.53l1.38,1.46s0,.03,0,.05"/>
    <path class="cls-2" d="m73.79,21.63c-.21-.35-.53-.63-.97-.84v-.65l5.85,2.23-1.54-1.63-5.85-2.23v.65c.44.21.76.49.97.84.21.35.41.86.61,1.54l4.94,15.43,1.53,1.63-4.93-15.43c-.2-.68-.4-1.2-.61-1.54"/>
    <polygon class="cls-2" points="51.4 11.98 62.16 16.07 60.62 14.45 49.86 10.35 49.85 17.13 51.38 18.75 51.4 11.98"/>
    <path class="cls-2" d="m58.46,35.98v-.25s-.03,0-.04,0c.01.09.03.17.04.25"/>
    <path class="cls-2" d="m59.38,16.48c.44.78.57,1.53.71,3.38l1.53,1.63c-.18-2.4-.35-2.96-1.2-4.12-.28-.38-.62-.65-1.04-.89"/>
    <path class="cls-2" d="m55.26,36.64c.24-.44.37-1.32.37-2.65V15.12c-.6-.21-1.11-.29-1.53-.27v17.51c0,1.33-.12,2.21-.37,2.65-.25.44-.74.65-1.49.63v.95l1.53,1.63v-.95c.75.02,1.24-.19,1.49-.63"/>
    <path class="cls-3" d="m51.4,11.98l10.76,4.09.02,5.41h-.55c-.18-2.4-.35-2.96-1.2-4.12-.48-.65-1.16-.99-2.11-1.41v18.03c0,1.28.13,2.29.38,2.72.25.42.53.64,1.31.66v.85h-6.23s0-.94,0-.94c.75.02,1.24-.19,1.49-.63.24-.44.37-1.32.37-2.65V15.12c-.93-.32-1.67-.36-2.15-.11-.78.41-1.43,1.04-1.55,3.77l-.55-.02.02-6.78Z"/>
    <path class="cls-3" d="m61.18,37.59c.46-.04,1.31-.58,1.59-1.22.18-.4.44-1.28.77-2.63l4.43-15.71h.47l4.32,15.82c.48,1.6.84,2.62,1.07,3.08.24.45.57.67,1.01.66v.65h-5.25v-.55c.62-.02.58-.09.71-.18.18-.13.25-.43.25-.92,0-.22-.05-.56-.15-1.01-.06-.27-.15-.6-.25-.98l-.59-2.54-4.46-.51c-.28,1.2-.8,3-.88,3.37-.17.79-.19.98-.19,1.34,0,.45.18.78.55,1,.22.12.36.19.79.21v.77h-4.2s0-.65,0-.65Zm8.07-6.67l-1.69-7.15-.23-.17-1.93,6.81,3.86.51Z"/>
    <path class="cls-3" d="m78.67,22.37v.56c-.69-.2-.96-.19-1.17-.17-.2.03-.47.43-.4,1.01.02.12.15.45.16.56.02.11.17.51.21.65l3.09,9.34.12-.07,2.84-7.23c.05-.14.09-.24.14-.4.08-.24.12-.62.12-.79,0-.39-.18-.74-.4-.91-.21-.17-.33-.33-.99-.6v-.53l4.08,1.53.02.46c-.47-.1-.85-.04-1.08.12-.23.16-.46.5-.68,1.02l-4.68,11.69-.72-.03-4.93-15.43c-.2-.68-.4-1.2-.61-1.54-.21-.35-.53-.63-.97-.84v-.65l5.85,2.23Z"/>
    <path class="cls-3" d="m25.94,21.75c.2-.23.58-.47,1.12-.72v-.67l-5.91,2.12v.65c.32-.06.55-.06.7,0,.34.13.69.54.69,1.23v5.01l-4.84.9v-4.53c0-.63.18-1.11.53-1.46.14-.14.44-.28.79-.43v-.61l-5.8,2.07v.49c.56-.13.93-.18,1.11-.12.31.1.47.43.47,1v9.61c0,.59-.17.99-.52,1.21-.21.13-.56.21-1.06.25v.49h5.8v-.61c-.32-.03-.6-.09-.75-.17-.38-.22-.57-.65-.57-1.3v-4.89s4.83-.79,4.83-.79v5.44c0,.69-.37,1.17-.71,1.43-.15.11-.38.19-.67.25v.65h5.75v-.67c-.5-.02-.69-.1-.91-.26-.37-.26-.56-.77-.56-1.52v-12.39c0-.73.17-1.28.5-1.66"/>
    <path class="cls-3" d="m36.94,36.06c-.76.81-1.73,1.22-2.93,1.25-.64.02-1.05-.09-1.26-.31-.21-.22-.31-.64-.31-1.26v-7.4c1.07-.19,2.84-.51,3.33.07.38.45.4.82.51,2.36h.48s-.02-7.42-.02-7.42l-.47-.03c-.1,1.85-.48,2.43-.99,3.08-.46.6-1.78.75-2.83.88v-6.48c0-.55.08-.95.23-1.19.16-.24.52-.46,1.09-.65,1.51-.52,2.55-.5,3.12.07.39.39.69,1.06.91,2.08h.76v-4.88l-10.8,3.88v.68c.54-.14.92-.17,1.12-.07.36.16.54.64.54,1.45v13.4c0,.8-.17,1.35-.52,1.64-.23.19-.61.31-1.15.35v.68h10.95s.2-5.86.2-5.86h-.61c-.52,1.75-.73,2.97-1.37,3.67"/>
    <path class="cls-3" d="m40.61,30.36h.54c.3,2.51.78,4.26,1.45,5.39.66,1.16,1.43,1.74,2.28,1.73.84-.02,1.43-.45,1.78-1.32.35-.87.53-1.79.53-2.74,0-1.11-.18-2.55-.55-3.21-.24-.43-.73-.95-1.48-1.58l-1.19-.98c-1.18-.93-2.02-1.87-2.51-2.84-.49-.96-.73-2.21-.73-3.75,0-1.65.32-2.72.97-4.38.65-1.68,1.63-2.77,2.97-3.26.68-.25,1.33-.29,1.97-.11.63.18.99.26,1.08.23.2-.07.34-.24.42-.51.08-.27.14-.81.19-1.22h.56v8.98h-.52c-.25-1.83-.68-3.91-1.29-5.07-.62-1.14-1.37-1.54-2.25-1.23-.62.22-1.11.72-1.47,1.49-.36.76-.54,1.97-.54,2.89,0,1.1.17,1.87.51,2.33.33.47,1.08,1.12,2.23,1.95l1.38,1.05c.62.49,1.11,1.08,1.48,1.77.68,1.31,1.03,3.01,1.03,5.08,0,1.93-.37,3.39-1.1,5.12-.74,1.7-1.91,2.53-3.53,2.53-.37,0-.75-.07-1.13-.2-.38-.13-.76-.33-1.13-.6l-.36-.25c-.08-.04-.16-.08-.24-.11-.08-.02-.14-.04-.2-.04-.19,0-.32.11-.4.31-.07.21-.13.34-.19.71h-.54v-8.17Z"/>
  </g>
</svg>