<?xml version="1.0" encoding="UTF-8"?>
<svg id="Vrstva_1" data-name="Vrstva 1" xmlns="http://www.w3.org/2000/svg" viewBox="0 0 133.47 68.49">
  <defs>
    <style>
      .cls-1 {
        fill: #cd1719;
      }

      .cls-1, .cls-2 {
        stroke-width: 0px;
      }
    </style>
  </defs>
  <path class="cls-2" d="m42.13,64.56c0,1.02-.78,1.81-1.82,1.81h-1.29v2.01h-.75v-5.63h2.04c1.04,0,1.82.78,1.82,1.81m-.74,0c0-.64-.46-1.11-1.08-1.11h-1.29v2.22h1.29c.62,0,1.08-.48,1.08-1.11"/>
  <path class="cls-2" d="m47.3,67.12h-2.53l-.46,1.26h-.8l2.1-5.63h.84l2.1,5.63h-.8l-.46-1.26Zm-.26-.7l-1.01-2.77-1.01,2.77h2.02Z"/>
  <path class="cls-2" d="m50.33,65.57c0-1.62,1.22-2.92,2.94-2.92,1.04,0,1.95.54,2.43,1.37l-.65.38c-.32-.62-1.01-1.02-1.78-1.02-1.32,0-2.2.96-2.2,2.19s.88,2.19,2.2,2.19c.77,0,1.45-.4,1.78-1.01l.65.37c-.47.83-1.38,1.38-2.43,1.38-1.72,0-2.94-1.3-2.94-2.92"/>
  <polygon class="cls-2" points="61.33 68.38 58.9 65.68 58.9 68.38 58.16 68.38 58.16 62.75 58.9 62.75 58.9 65.29 61.25 62.75 62.17 62.75 59.68 65.49 62.25 68.38 61.33 68.38"/>
  <path class="cls-2" d="m67.88,67.12h-2.53l-.46,1.26h-.8l2.1-5.63h.84l2.1,5.63h-.8l-.46-1.26Zm-.26-.7l-1.01-2.77-1.01,2.77h2.02Z"/>
  <path class="cls-2" d="m76.64,65.93c0,1.43-1.06,2.56-2.76,2.56s-2.97-1.31-2.97-2.92,1.24-2.92,2.95-2.92c1.05,0,1.97.55,2.44,1.36l-.64.38c-.32-.6-1.01-1.01-1.8-1.01-1.3,0-2.2.96-2.2,2.19s.89,2.19,2.24,2.19c1.17,0,1.86-.64,2-1.49h-2.07v-.68h2.82v.34Z"/>
  <rect class="cls-2" x="79.15" y="62.75" width=".75" height="5.63"/>
  <polygon class="cls-2" points="86.96 62.75 86.96 68.38 86.36 68.38 83.46 64.18 83.46 68.38 82.71 68.38 82.71 62.75 83.32 62.75 86.21 66.95 86.21 62.75 86.96 62.75"/>
  <path class="cls-2" d="m95.2,65.93c0,1.43-1.06,2.56-2.76,2.56s-2.97-1.31-2.97-2.92,1.24-2.92,2.95-2.92c1.05,0,1.97.55,2.44,1.36l-.64.38c-.32-.6-1.01-1.01-1.8-1.01-1.3,0-2.2.96-2.2,2.19s.89,2.19,2.24,2.19c1.17,0,1.86-.64,2-1.49h-2.07v-.68h2.81v.34Z"/>
  <path class="cls-1" d="m61.99,1.47s1.32,9.06-2.69,14.77c-3.41,4.85-9.52,5.1-9.52,5.1,2.59.82,5.2,1.24,7.78,1.31h1.48c10.23-.27,19.73-6.12,24.46-15.46.09-.17.14-.4.14-.68v-.04c-.02-1.92-2.27-5.84-9.55-6.42-.45-.04-.92-.05-1.41-.05-4.65,0-10.7,1.47-10.7,1.47"/>
  <path class="cls-2" d="m22.25,33.03v19.95c0,6.73-5.27,9.87-10.75,9.87-4.6,0-8.15-1.71-9.91-5.06l3.89-2.26c.92,1.8,2.47,3.22,6.11,3.22,3.89,0,6.23-2.13,6.23-5.77v-2.55c-1.59,2.26-4.06,3.64-7.28,3.64-5.9,0-10.54-4.81-10.54-10.79s4.64-10.79,10.54-10.79c3.22,0,5.69,1.38,7.28,3.64v-3.1h4.43Zm-4.43,10.25c0-3.76-2.84-6.56-6.65-6.56s-6.65,2.8-6.65,6.56,2.84,6.57,6.65,6.57,6.65-2.8,6.65-6.57"/>
  <path class="cls-2" d="m38.05,32.65v4.89c-2.97-.21-6.44,1.17-6.44,5.85v10.54h-4.52v-20.91h4.52v3.51c1.25-2.84,3.81-3.89,6.44-3.89"/>
  <path class="cls-2" d="m51.31,50.34c2.51,0,4.39-1.13,5.39-2.59l3.72,2.17c-1.92,2.84-5.06,4.56-9.16,4.56-6.9,0-11.38-4.72-11.38-11s4.47-11,11.04-11,10.5,5.02,10.5,11.04c0,.63-.08,1.3-.17,1.88h-16.64c.71,3.26,3.34,4.93,6.69,4.93m5.56-8.61c-.63-3.6-3.26-5.14-5.98-5.14-3.39,0-5.69,2.01-6.31,5.14h12.29Z"/>
  <rect class="cls-2" x="65.4" y="33.03" width="4.52" height="20.91"/>
  <path class="cls-2" d="m93.96,41.1v12.84h-4.52v-12.38c0-3.18-1.84-4.85-4.68-4.85s-5.31,1.76-5.31,6.02v11.21h-4.52v-20.91h4.52v2.68c1.38-2.17,3.64-3.22,6.48-3.22,4.68,0,8.03,3.18,8.03,8.61"/>
  <path class="cls-2" d="m108.84,50.34c2.51,0,4.39-1.13,5.39-2.59l3.72,2.17c-1.92,2.84-5.06,4.56-9.16,4.56-6.9,0-11.37-4.72-11.37-11s4.47-11,11.04-11,10.5,5.02,10.5,11.04c0,.63-.08,1.3-.17,1.88h-16.64c.71,3.26,3.35,4.93,6.69,4.93m5.56-8.61c-.63-3.6-3.26-5.14-5.98-5.14-3.39,0-5.69,2.01-6.32,5.14h12.3Z"/>
  <path class="cls-2" d="m133.47,32.65v4.89c-2.97-.21-6.44,1.17-6.44,5.85v10.54h-4.52v-20.91h4.52v3.51c1.25-2.84,3.8-3.89,6.44-3.89"/>
</svg>