<?xml version="1.0" encoding="UTF-8"?>
<svg id="Vrstva_1" data-name="Vrstva 1" xmlns="http://www.w3.org/2000/svg" viewBox="0 0 147.51 44.04">
  <defs>
    <style>
      .cls-1 {
        stroke-width: 1.26px;
      }

      .cls-1, .cls-2 {
        fill: none;
        stroke: #e52924;
      }

      .cls-3 {
        fill: #646363;
      }

      .cls-3, .cls-4 {
        stroke-width: 0px;
      }

      .cls-2 {
        stroke-width: 3.78px;
      }

      .cls-4 {
        fill: #e52924;
      }
    </style>
  </defs>
  <polygon class="cls-4" points="3.78 25.41 3.78 25.41 3.78 40.26 18.37 40.26 18.37 25.41 3.78 25.41"/>
  <polygon class="cls-1" points=".63 25.41 .63 40.26 .63 43.41 3.78 43.41 18.37 43.41 21.52 43.41 21.52 40.26 21.52 25.41 21.52 22.26 18.37 22.26 3.78 22.26 .63 22.26 .63 25.41"/>
  <rect class="cls-2" x="5.68" y="27.3" width="10.81" height="11.07"/>
  <polygon class="cls-4" points="25.19 25.41 25.19 25.41 25.19 40.26 39.78 40.26 39.78 25.41 25.19 25.41"/>
  <polygon class="cls-1" points="22.04 25.41 22.04 40.26 22.04 43.41 25.19 43.41 39.78 43.41 42.93 43.41 42.93 40.26 42.93 25.41 42.93 22.26 39.78 22.26 25.19 22.26 22.04 22.26 22.04 25.41"/>
  <rect class="cls-2" x="27.08" y="27.3" width="10.81" height="11.07"/>
  <polygon class="cls-4" points="25.19 3.78 25.19 3.78 25.19 18.64 39.78 18.64 39.78 3.78 25.19 3.78"/>
  <polygon class="cls-1" points="22.04 3.78 22.04 18.64 22.04 21.79 25.19 21.79 39.78 21.79 42.93 21.79 42.93 18.64 42.93 3.78 42.93 .63 39.78 .63 25.19 .63 22.04 .63 22.04 3.78"/>
  <rect class="cls-2" x="27.08" y="5.68" width="10.81" height="11.07"/>
  <path class="cls-4" d="m129.82,26.92v-1.27h-2.29c-.36,0-.64-.06-.84-.18-.2-.12-.3-.29-.3-.51s.01-.41.03-.57c.02-.16.05-.28.09-.36l1.69-4.36h7.78l2.25,5.97h-3.11v1.27h12.39v-1.27h-2.27L135.64.83h-1.54l-8.78,22.86c-.29.74-.58,1.26-.86,1.54-.28.28-.63.42-1.06.42h-1.57v1.27h7.99Zm2.36-17.46l3.38,8.97h-6.93l3.55-8.97Zm-16.73,17.46v-1.27h-3.75v-11.31h.75c1.52,0,2.65.38,3.38,1.15.73.77,1.16,2.04,1.31,3.8h1.31v-10.91h-1.31c-.22,1.64-.68,2.83-1.4,3.57-.72.74-1.76,1.11-3.13,1.11-.23,0-.41,0-.55-.01-.13,0-.25-.02-.34-.03l-.02-10.51h3.94c2,0,3.52.47,4.57,1.4,1.05.93,1.89,2.55,2.52,4.86h1.33l-.23-7.43h-21.74v1.17h3.13v23.12h-3.05v1.27h13.29Zm-15.59,0l.29-8.53h-1.23c-.68,2.61-1.61,4.47-2.8,5.59-1.19,1.11-2.84,1.67-4.94,1.67h-3.75V2.52h3.55v-1.17h-12.75v1.17h2.63v23.12h-2.63v1.27h21.63Zm-41.53,0v-1.27h-2.29c-.36,0-.64-.06-.84-.18-.2-.12-.3-.29-.3-.51s0-.41.03-.57c.02-.16.05-.28.09-.36l1.69-4.36h7.78l2.25,5.97h-3.11v1.27h12.39v-1.27h-2.27L64.15.83h-1.54l-8.78,22.86c-.29.74-.58,1.26-.86,1.54-.28.28-.63.42-1.06.42h-1.58v1.27h7.99Zm2.36-17.46l3.38,8.97h-6.93l3.55-8.97Z"/>
  <path class="cls-3" d="m139.98,33.53h2.56c.82,0,1.45.17,1.88.52.43.35.65.87.65,1.56s-.22,1.23-.65,1.59c-.43.36-1.06.54-1.88.54h-2.56v-4.2Zm7.42,9.46l-2.5-3.77c.74-.31,1.3-.78,1.68-1.41.38-.63.58-1.38.58-2.27,0-1.24-.4-2.21-1.2-2.89-.8-.68-1.94-1.02-3.41-1.02h-4.74v11.36h2.18v-3.34h2.56c.18,0,.32,0,.41-.02l1.97,3.36h2.48Zm-20.49,0h8.52v-1.9h-6.35v-2.86h5.52v-1.9h-5.52v-2.81h6.15v-1.9h-8.33v11.36Zm-5.06-3.52l-5.86-7.84h-2.06v11.36h2.13v-7.82l5.84,7.82h2.06v-11.36h-2.11v7.84Zm-13.05,3.52h2.17v-11.36h-2.17v11.36Zm-7.65-9.04l1.98,4.77h-3.99l2.01-4.77Zm6.1,9.04l-4.92-11.36h-2.26l-4.98,11.36h2.26l1.01-2.4h5.55l1.01,2.4h2.34Zm-20.57-9.43h3.54v9.43h2.19v-9.43h3.54v-1.93h-9.27v1.93Zm-3.8,5.91l-5.86-7.84h-2.06v11.36h2.13v-7.82l5.84,7.82h2.06v-11.36h-2.11v7.84Zm-16.02-6.04c.68,0,1.31.17,1.9.51.58.34,1.05.81,1.39,1.4.34.59.51,1.24.51,1.96s-.17,1.37-.51,1.96c-.34.6-.8,1.07-1.39,1.41-.58.35-1.22.52-1.9.52s-1.33-.17-1.92-.52c-.59-.35-1.06-.82-1.41-1.41-.35-.6-.53-1.25-.53-1.96s.17-1.37.52-1.96c.35-.59.82-1.06,1.41-1.4.59-.34,1.24-.51,1.93-.51m-.03-1.95c-1.12,0-2.15.25-3.08.76-.93.51-1.65,1.21-2.18,2.09-.53.89-.8,1.87-.8,2.95s.27,2.07.8,2.96c.53.89,1.26,1.6,2.18,2.12.92.52,1.95.78,3.08.78s2.15-.26,3.08-.78c.93-.52,1.65-1.23,2.18-2.12.53-.89.79-1.88.79-2.96s-.27-2.07-.79-2.95c-.53-.89-1.26-1.59-2.18-2.09-.92-.51-1.95-.76-3.08-.76m-8.16,3.42l1.27-1.59c-.55-.57-1.22-1.02-2-1.35-.78-.32-1.58-.49-2.39-.49-1.12,0-2.13.25-3.04.76-.91.51-1.64,1.21-2.17,2.09-.53.89-.8,1.87-.8,2.95s.26,2.07.78,2.96c.52.89,1.23,1.6,2.14,2.12.91.52,1.91.78,3,.78.81,0,1.61-.18,2.4-.53.79-.35,1.48-.83,2.08-1.44l-1.28-1.43c-.42.42-.91.75-1.45.99-.55.24-1.09.36-1.63.36-.7,0-1.35-.17-1.93-.51-.58-.34-1.04-.81-1.38-1.4-.33-.59-.5-1.24-.5-1.94s.17-1.35.5-1.94c.34-.59.8-1.05,1.38-1.39.58-.33,1.23-.5,1.93-.5.56,0,1.12.13,1.66.39.55.26,1.02.62,1.42,1.09"/>
</svg>