<?xml version="1.0" encoding="UTF-8"?>
<svg id="Vrstva_1" data-name="Vrstva 1" xmlns="http://www.w3.org/2000/svg" viewBox="0 0 143.76 34.24">
  <defs>
    <style>
      .cls-1 {
        fill: #e30613;
      }

      .cls-1, .cls-2, .cls-3 {
        stroke-width: 0px;
      }

      .cls-3 {
        fill: #fff;
      }
    </style>
  </defs>
  <rect class="cls-1" y="3.25" width="30.99" height="30.99"/>
  <polygon class="cls-3" points="8.85 25.39 8.85 12.11 26.57 12.11 26.57 7.68 4.43 7.68 4.43 29.82 26.57 29.82 26.57 16.53 15.52 16.53 15.52 20.96 22.14 20.96 22.14 25.39 8.85 25.39"/>
  <path class="cls-2" d="m35.4,7.68v22.14h4.43v-8.86h13.28v8.86h4.43V7.68h-22.14Zm17.71,8.86h-13.28v-4.43h13.28v4.43Z"/>
  <polygon class="cls-2" points="84.1 7.68 61.96 7.68 61.96 12.11 70.82 12.11 70.82 29.82 75.25 29.82 75.25 12.11 84.1 12.11 84.1 7.68"/>
  <polygon class="cls-2" points="110.67 12.11 110.67 7.68 88.53 7.68 88.53 29.82 110.67 29.82 110.67 25.39 92.96 25.39 92.96 12.11 110.67 12.11"/>
  <polygon class="cls-2" points="132.81 7.68 132.81 16.53 119.53 16.53 119.53 7.68 115.1 7.68 115.1 29.82 119.53 29.82 119.53 20.96 132.81 20.96 132.81 29.82 137.24 29.82 137.24 7.68 132.81 7.68"/>
  <path class="cls-2" d="m139.32,1.46c.27-.05.67-.08,1.13-.08.56,0,.95.08,1.22.3.23.18.35.44.35.79,0,.47-.34.8-.67.92v.02c.26.11.41.35.5.7.12.43.23.92.3,1.07h-.87c-.06-.11-.15-.41-.26-.88-.11-.48-.27-.6-.62-.6h-.25v1.48h-.84V1.46Zm.84,1.61h.33c.42,0,.67-.21.67-.54s-.23-.52-.62-.52c-.2,0-.32.01-.38.03v1.03Z"/>
  <path class="cls-2" d="m137.25,3.25c0,1.79,1.46,3.25,3.25,3.25s3.25-1.46,3.25-3.25-1.46-3.25-3.25-3.25-3.25,1.46-3.25,3.25m.53,0c0-1.5,1.22-2.72,2.72-2.72s2.72,1.22,2.72,2.72-1.22,2.72-2.72,2.72-2.72-1.22-2.72-2.72"/>
</svg>