<?xml version="1.0" encoding="UTF-8"?>
<svg id="Vrstva_1" data-name="Vrstva 1" xmlns="http://www.w3.org/2000/svg" viewBox="0 0 161.88 44.39">
  <defs>
    <style>
      .cls-1 {
        stroke-width: .61px;
      }

      .cls-1, .cls-2 {
        fill: none;
        stroke: #1d1d1b;
      }

      .cls-3 {
        fill: #e30613;
      }

      .cls-3, .cls-4 {
        stroke-width: 0px;
      }

      .cls-2 {
        stroke-width: .73px;
      }
    </style>
  </defs>
  <rect class="cls-3" y="25.8" width="18.59" height="18.59"/>
  <rect class="cls-3" x="21.69" y="25.8" width="18.59" height="18.59"/>
  <rect class="cls-3" x="43.39" y="25.8" width="18.59" height="18.59"/>
  <rect class="cls-3" y="1" width="18.59" height="18.6"/>
  <rect class="cls-3" x="21.69" y="1" width="18.59" height="18.6"/>
  <rect class="cls-3" x="43.39" y="1" width="18.59" height="18.6"/>
  <path class="cls-4" d="m65.66,38.82l.32,1.22c.07.27.14.51.18.76h.02c.05-.24.14-.5.22-.76l.4-1.22h.38l.38,1.2c.09.29.16.54.22.78h.02c.04-.24.11-.49.19-.78l.35-1.2h.44l-.79,2.4h-.41l-.38-1.15c-.09-.26-.16-.51-.22-.78h-.01c-.06.29-.14.53-.22.79l-.4,1.14h-.41l-.74-2.4h.46Z"/>
  <path class="cls-4" d="m69.47,38.82l.32,1.22c.08.27.14.51.19.76h.02c.05-.24.14-.5.22-.76l.4-1.22h.38l.38,1.2c.09.29.16.54.22.78h.02c.04-.24.11-.49.19-.78l.35-1.2h.44l-.79,2.4h-.41l-.38-1.15c-.09-.26-.16-.51-.22-.78h-.01c-.06.29-.14.53-.22.79l-.4,1.14h-.41l-.74-2.4h.46Z"/>
  <path class="cls-4" d="m73.28,38.82l.33,1.22c.07.27.14.51.18.76h.02c.05-.24.14-.5.22-.76l.41-1.22h.38l.38,1.2c.09.29.17.54.22.78h.01c.04-.24.11-.49.19-.78l.35-1.2h.44l-.79,2.4h-.41l-.37-1.15c-.09-.26-.16-.51-.22-.78h-.01c-.06.29-.14.53-.22.79l-.39,1.14h-.41l-.74-2.4h.46Z"/>
  <path class="cls-4" d="m76.83,41.27c-.17,0-.29-.13-.29-.31s.13-.31.3-.31.3.13.3.31-.12.31-.31.31h0Z"/>
  <path class="cls-4" d="m78.5,36.02l1.05,2.92c.17.47.32.9.43,1.33h.03c.12-.43.28-.86.45-1.33l1.04-2.92h1.01l-2.09,5.19h-.93l-2.03-5.19h1.04Z"/>
  <path class="cls-4" d="m83.85,38.79c.02,1.27.86,1.8,1.83,1.8.69,0,1.11-.12,1.47-.26l.17.67c-.34.15-.93.33-1.77.33-1.65,0-2.62-1.06-2.62-2.63s.94-2.79,2.5-2.79c1.74,0,2.2,1.49,2.2,2.44,0,.2-.02.34-.03.44h-3.74Zm2.84-.68c0-.6-.25-1.53-1.34-1.53-.98,0-1.41.88-1.49,1.53h2.83Z"/>
  <path class="cls-4" d="m88.7,40.25c.29.18.79.38,1.27.38.71,0,1.04-.35,1.04-.78s-.27-.69-.99-.95c-.96-.33-1.41-.85-1.41-1.47,0-.84.69-1.52,1.84-1.52.54,0,1.01.15,1.31.32l-.24.68c-.21-.13-.59-.3-1.09-.3-.57,0-.89.32-.89.71,0,.43.32.62,1.02.88.92.35,1.4.8,1.4,1.57,0,.91-.73,1.57-1.99,1.57-.58,0-1.12-.15-1.5-.36l.24-.72Z"/>
  <path class="cls-4" d="m94.36,34.78v1.24h1.38v.72h-1.38v2.8c0,.64.18,1.01.73,1.01.26,0,.42-.02.56-.06l.04.7c-.18.08-.48.14-.86.14-.45,0-.82-.15-1.04-.41-.28-.28-.38-.74-.38-1.35v-2.83h-.82v-.72h.82v-.95l.95-.29Z"/>
  <path class="cls-4" d="m100.58,39.97c0,.45.02.89.09,1.24h-.88l-.08-.65h-.03c-.3.41-.87.77-1.63.77-1.08,0-1.63-.74-1.63-1.49,0-1.26,1.15-1.94,3.2-1.93v-.11c0-.43-.12-1.2-1.21-1.2-.49,0-1.01.15-1.39.38l-.22-.62c.44-.28,1.08-.46,1.75-.46,1.63,0,2.03,1.08,2.03,2.12v1.94Zm-.93-1.41c-1.06-.02-2.26.17-2.26,1.17,0,.61.42.9.91.9.7,0,1.13-.43,1.29-.87.03-.09.06-.2.06-.3v-.9Z"/>
  <path class="cls-4" d="m102.43,36.02l1.04,2.92c.18.47.32.9.43,1.33h.04c.12-.43.27-.86.45-1.33l1.03-2.92h1.01l-2.09,5.19h-.92l-2.02-5.19h1.03Z"/>
  <path class="cls-4" d="m107.78,38.79c.02,1.27.86,1.8,1.83,1.8.7,0,1.11-.12,1.47-.26l.17.67c-.34.15-.92.33-1.77.33-1.64,0-2.62-1.06-2.62-2.63s.95-2.79,2.5-2.79c1.74,0,2.2,1.49,2.2,2.44,0,.2-.02.34-.04.44h-3.74Zm2.84-.68c0-.6-.26-1.53-1.35-1.53-.98,0-1.41.88-1.49,1.53h2.84Z"/>
  <path class="cls-4" d="m112.76,37.43c0-.53-.01-.97-.04-1.41h.86l.05.86h.02c.26-.5.88-.98,1.76-.98.74,0,1.88.43,1.88,2.21v3.1h-.97v-2.99c0-.83-.32-1.53-1.23-1.53-.64,0-1.14.44-1.3.96-.04.12-.07.28-.07.44v3.12h-.97v-3.78Z"/>
  <path class="cls-4" d="m119.41,38.79c.02,1.27.86,1.8,1.83,1.8.69,0,1.11-.12,1.47-.26l.17.67c-.34.15-.93.33-1.78.33-1.64,0-2.62-1.06-2.62-2.63s.95-2.79,2.5-2.79c1.74,0,2.2,1.49,2.2,2.44,0,.2-.02.34-.03.44h-3.74Zm2.84-.68c0-.6-.25-1.53-1.35-1.53-.98,0-1.41.88-1.48,1.53h2.83Z"/>
  <line class="cls-2" x1="124.22" y1="38.31" x2="126.94" y2="38.31"/>
  <path class="cls-4" d="m127.94,40.25c.29.18.79.38,1.28.38.7,0,1.04-.35,1.04-.78s-.27-.69-.99-.95c-.96-.33-1.41-.85-1.41-1.47,0-.84.69-1.52,1.84-1.52.54,0,1.01.15,1.31.32l-.24.68c-.21-.13-.59-.3-1.09-.3-.57,0-.9.32-.9.71,0,.43.32.62,1.01.88.93.35,1.4.8,1.4,1.57,0,.91-.73,1.57-1.99,1.57-.59,0-1.12-.15-1.5-.36l.24-.72Z"/>
  <path class="cls-4" d="m133.39,38.4h.02c.14-.18.32-.4.47-.59l1.57-1.79h1.17l-2.06,2.14,2.35,3.05h-1.18l-1.84-2.48-.49.53v1.95h-.96v-7.61h.96v4.8Z"/>
  <path class="cls-4" d="m137.78,37.64c0-.61-.01-1.13-.04-1.62h.85l.03,1.02h.04c.25-.7.83-1.14,1.48-1.14.11,0,.19,0,.27.03v.89c-.1-.02-.2-.03-.33-.03-.68,0-1.16.5-1.3,1.21-.02.13-.04.28-.04.44v2.77h-.96v-3.57Z"/>
  <path class="cls-4" d="m142.51,34.57c.01.32-.23.58-.62.58-.34,0-.58-.26-.58-.58s.26-.59.61-.59.6.26.6.59m-1.08,1.46h.97v5.19h-.97v-5.19Z"/>
  <path class="cls-4" d="m144.01,37.43c0-.53-.01-.97-.04-1.41h.86l.05.86h.02c.27-.5.88-.98,1.76-.98.74,0,1.88.43,1.88,2.21v3.1h-.97v-2.99c0-.83-.32-1.53-1.23-1.53-.64,0-1.14.44-1.3.96-.04.12-.06.28-.06.44v3.12h-.97v-3.78Z"/>
  <path class="cls-4" d="m150.65,38.79c.02,1.27.86,1.8,1.83,1.8.69,0,1.11-.12,1.47-.26l.16.67c-.34.15-.92.33-1.77.33-1.64,0-2.62-1.06-2.62-2.63s.95-2.79,2.5-2.79c1.74,0,2.2,1.49,2.2,2.44,0,.2-.02.34-.03.44h-3.74Zm2.84-.68c0-.6-.26-1.53-1.34-1.53-.98,0-1.41.88-1.49,1.53h2.83Z"/>
  <path class="cls-4" d="m155.39,41.27c-.17,0-.3-.13-.3-.31s.12-.31.31-.31.3.13.3.31-.12.31-.31.31h0Z"/>
  <path class="cls-4" d="m158.01,41.13c-.12.06-.38.14-.71.14-.74,0-1.23-.49-1.23-1.23s.52-1.27,1.32-1.27c.26,0,.5.06.62.12l-.1.34c-.1-.06-.28-.11-.52-.11-.57,0-.87.41-.87.91,0,.55.37.9.86.9.25,0,.42-.07.55-.12l.08.33Z"/>
  <path class="cls-4" d="m158.25,40.96l1.11-1.41c.1-.13.21-.24.32-.37h0s-1.33,0-1.33,0v-.35h1.88v.27s-1.1,1.39-1.1,1.39c-.1.14-.2.25-.32.38h0s1.44,0,1.44,0v.35h-2v-.25Z"/>
  <rect class="cls-3" x="65.14" y="43.29" width="95.39" height="1.09"/>
  <rect class="cls-4" x="105.39" y="8.54" width="6.1" height="23.96"/>
  <path class="cls-4" d="m118.26,14.2c-1.89,0-3.07-1.28-3.07-2.86,0-1.68,1.21-2.9,3.1-2.9s3.06,1.21,3.1,2.9c0,1.58-1.21,2.86-3.1,2.86h-.04Zm-3.03,1.72h6.1v16.58h-6.1V15.92Z"/>
  <path class="cls-4" d="m125.07,21.58c0-2.22-.07-4.11-.14-5.66h5.26l.27,2.12h.1c.61-.88,2.22-2.49,4.99-2.49,3.87,0,6,2.63,6,7.18v9.77h-6.1v-9.03c0-1.92-.64-3.03-2.12-3.03-1.18,0-1.72.81-1.99,1.44-.14.3-.17.78-.17,1.22v9.4h-6.1v-10.92Z"/>
  <path class="cls-4" d="m150.2,26.33c.2,1.31,2.12,2.06,4.28,2.06,1.55,0,3.03-.17,4.51-.64l.78,4.04c-1.99.78-4.15,1.05-6.2,1.05-5.83,0-9.14-3.2-9.14-8.46,0-3.84,2.49-8.83,8.59-8.83,5.36,0,7.65,3.94,7.65,8.49,0,.97-.14,1.89-.24,2.29h-10.24Zm4.88-4.11c0-.95-.44-2.7-2.36-2.7-1.79,0-2.49,1.65-2.6,2.7h4.96Z"/>
  <path class="cls-4" d="m99.66,1h-11.07l-2.38,8.41c-.93,3.32-1.96,7.76-2.85,11.59h-.14c-.89-3.83-1.92-8.27-2.85-11.59l-2.38-8.41h-11.08l-1.59,31.5h8.18l.37-11.31c.14-3.55.19-7.76.19-12.67h.14c.98,4.16,2.29,8.88,3.32,12.34l3.13,10.98h5.28l3.13-10.98c1.03-3.46,2.34-8.18,3.32-12.34h.14c0,4.91.04,9.11.19,12.67l.37,11.31h8.18l-1.59-31.5Z"/>
  <path class="cls-1" d="m161.57,3.23c0,1.62-1.31,2.92-2.92,2.92s-2.92-1.31-2.92-2.92,1.31-2.92,2.92-2.92,2.92,1.31,2.92,2.92Z"/>
  <path class="cls-4" d="m157.89,1.1h.79c.43-.02.97.02,1.19.45.07.14.12.31.12.46,0,.69-.62,1.02-1.21,1.12l1.22,1.55.28.33.1.13c-.12,0-.23-.03-.35-.03-.11,0-.22.02-.33.03-.12-.17-.24-.33-.36-.5l-.7-.91-.47-.55h-.23v.73l.02,1.23c-.09,0-.18-.02-.27-.02-.1,0-.19.01-.29.02,0-.23.02-.46.03-.69l.03-2.07-.04-1.15v-.14h.46Zm.04,1.85c.09,0,.19.01.28.01.19,0,.31,0,.49-.04.43-.09.76-.38.76-.85,0-.2-.05-.38-.2-.53-.15-.16-.24-.18-.45-.22-.11-.02-.26-.02-.38-.02-.16,0-.32,0-.48.01l-.02,1.63Z"/>
</svg>