<?xml version="1.0" encoding="UTF-8"?>
<svg id="Vrstva_1" data-name="Vrstva 1" xmlns="http://www.w3.org/2000/svg" viewBox="0 0 119.01 52.79">
  <defs>
    <style>
      .cls-1, .cls-2, .cls-3 {
        stroke-width: 0px;
      }

      .cls-2 {
        fill: #f6f6f6;
      }

      .cls-3 {
        fill: #ee7227;
      }
    </style>
  </defs>
  <polygon class="cls-2" points="5.24 0 5.24 40.12 42.43 40.12 42.43 11.75 42.43 7.19 42.43 0 5.24 0"/>
  <rect class="cls-1" width="5.24" height="40.12"/>
  <polygon class="cls-3" points="38.45 9.06 38.45 12.88 32.15 12.88 32.11 31.05 27.56 31.05 27.56 12.88 23.78 12.88 13.82 12.88 13.82 18.17 23.78 18.17 23.78 21.7 13.82 21.7 13.82 27.23 23.78 27.23 23.78 31.05 9.23 31.05 9.23 9.06 38.45 9.06"/>
  <path class="cls-1" d="m53.53,13.33c-1.26,0-2.15-.85-2.15-2.15v-.93c0-1.26.85-2.15,2.15-2.15h2.03c1.26,0,2.15.85,2.15,2.15v.53h-1.91v-.45c0-.32-.24-.57-.57-.57h-1.38c-.32,0-.57.24-.57.57v.73c0,.32.24.57.57.57h1.75c1.26,0,2.15.85,2.15,2.15v1.02c0,1.26-.85,2.15-2.15,2.15h-2.2c-1.26,0-2.15-.85-2.15-2.15v-.57h1.91v.45c0,.33.24.57.57.57h1.59c.33,0,.57-.24.57-.57v-.77c0-.33-.24-.57-.57-.57h-1.79Z"/>
  <polygon class="cls-1" points="60.6 9.8 58.28 9.8 58.28 8.09 64.83 8.09 64.83 9.8 62.51 9.8 62.51 16.91 60.6 16.91 60.6 9.8"/>
  <path class="cls-1" d="m71.7,16.91h-2.07l-.57-1.87h-2.85l-.57,1.87h-1.95l3.05-8.82h1.91l3.05,8.82Zm-4.06-6.38h-.04l-.89,2.85h1.83l-.89-2.85Z"/>
  <polygon class="cls-1" points="70.68 8.09 72.75 8.09 74.58 13.98 74.62 13.98 76.45 8.09 78.4 8.09 75.35 16.91 73.73 16.91 70.68 8.09"/>
  <polygon class="cls-1" points="84.5 9.8 80.8 9.8 80.8 11.67 84.26 11.67 84.26 13.37 80.8 13.37 80.8 15.28 84.66 15.28 84.66 16.99 78.93 16.99 78.93 8.09 84.54 8.09 84.54 9.8 84.5 9.8"/>
  <path class="cls-1" d="m91.81,10.24v.45c0,.73-.28,1.34-.77,1.71v.04c.61.37.97,1.02.97,1.83v.49c0,1.26-.85,2.15-2.15,2.15h-4.35v-8.82h4.15c1.26,0,2.15.85,2.15,2.15m-4.43-.45v1.87h1.95c.32,0,.57-.24.57-.57v-.73c0-.33-.24-.57-.57-.57h-1.95Zm0,3.54v1.91h2.15c.32,0,.57-.24.57-.57v-.77c0-.33-.24-.57-.57-.57h-2.15Z"/>
  <polygon class="cls-1" points="92.99 16.91 92.99 8.09 94.9 8.09 97.83 13.29 97.87 13.29 97.87 8.09 99.78 8.09 99.78 16.91 97.87 16.91 94.94 11.71 94.9 11.71 94.9 16.91 92.99 16.91"/>
  <rect class="cls-1" x="101" y="8.09" width="1.91" height="8.82"/>
  <polygon class="cls-1" points="104.13 16.91 104.13 8.09 106.04 8.09 108.97 13.29 109.01 13.29 109.01 8.09 110.92 8.09 110.92 16.91 109.01 16.91 106.08 11.71 106.04 11.71 106.04 16.91 104.13 16.91"/>
  <polygon class="cls-1" points="115.19 11.38 117.06 8.09 119.01 8.09 116 13.17 116 16.91 114.09 16.91 114.09 13.17 111.24 8.09 113.36 8.09 115.1 11.38 115.19 11.38"/>
  <path class="cls-1" d="m53.53,28.45c-1.26,0-2.15-.85-2.15-2.15v-.93c0-1.26.85-2.15,2.15-2.15h2.03c1.26,0,2.15.85,2.15,2.15v.53h-1.91v-.45c0-.32-.24-.57-.57-.57h-1.38c-.32,0-.57.24-.57.57v.73c0,.32.24.57.57.57h1.75c1.26,0,2.15.85,2.15,2.15v.98c0,1.26-.85,2.15-2.15,2.15h-2.2c-1.26,0-2.15-.85-2.15-2.15v-.53h1.91v.45c0,.33.24.57.57.57h1.59c.33,0,.57-.24.57-.57v-.77c0-.33-.24-.57-.57-.57h-1.79Z"/>
  <polygon class="cls-1" points="64.26 32.03 58.89 32.03 58.89 23.21 60.8 23.21 60.8 30.32 64.26 30.32 64.26 32.03"/>
  <path class="cls-1" d="m69.87,23.21h1.91v6.67c0,1.26-.85,2.15-2.15,2.15h-2.44c-1.26,0-2.16-.85-2.16-2.15v-6.67h1.91v6.58c0,.33.24.57.57.57h1.83c.33,0,.57-.24.57-.57v-6.58h-.04Z"/>
  <path class="cls-1" d="m75.15,28.45c-1.26,0-2.15-.85-2.15-2.15v-.93c0-1.26.85-2.15,2.15-2.15h2.03c1.26,0,2.15.85,2.15,2.15v.53h-1.91v-.45c0-.33-.24-.57-.57-.57h-1.38c-.33,0-.57.24-.57.57v.73c0,.33.24.57.57.57h1.75c1.26,0,2.15.85,2.15,2.15v.98c0,1.26-.85,2.15-2.15,2.15h-2.19c-1.26,0-2.15-.85-2.15-2.15v-.53h1.91v.45c0,.33.24.57.57.57h1.59c.32,0,.57-.24.57-.57v-.77c0-.32-.24-.57-.57-.57h-1.79Zm-1.26-7.32h1.71l.53.69.53-.69h1.71l-1.18,1.67h-2.11l-1.18-1.67Z"/>
  <path class="cls-1" d="m82.63,32.03c-1.26,0-2.15-.85-2.15-2.15v-4.51c0-1.26.85-2.15,2.15-2.15h2.44c1.26,0,2.15.85,2.15,2.15v4.55c0,1.26-.85,2.15-2.15,2.15h-2.44v-.04Zm2.72-2.24v-4.35c0-.32-.24-.57-.57-.57h-1.83c-.32,0-.57.24-.57.57v4.31c0,.33.24.57.57.57h1.83c.33,0,.57-.2.57-.53"/>
  <polygon class="cls-1" points="87.51 23.21 89.58 23.21 91.41 29.1 91.45 29.1 93.28 23.21 95.23 23.21 92.18 32.03 90.55 32.03 87.51 23.21"/>
  <rect class="cls-1" x="95.68" y="23.21" width="1.91" height="8.82"/>
  <path class="cls-1" d="m105.35,29.35v.53c0,1.26-.85,2.15-2.15,2.15h-2.2c-1.26,0-2.15-.85-2.15-2.15v-4.51c0-1.26.85-2.15,2.15-2.15h2.2c1.26,0,2.15.85,2.15,2.15v.53h-1.91v-.45c0-.33-.24-.57-.57-.57h-1.59c-.33,0-.57.24-.57.57v4.31c0,.33.24.57.57.57h1.59c.32,0,.57-.24.57-.57v-.45h1.91v.04Z"/>
  <polygon class="cls-1" points="111.93 24.92 108.23 24.92 108.23 26.79 111.69 26.79 111.69 28.45 108.23 28.45 108.23 30.36 112.1 30.36 112.1 32.07 106.37 32.07 106.37 23.21 111.97 23.21 111.97 24.92 111.93 24.92"/>
  <polygon class="cls-1" points="1.35 51 0 46.34 1.03 46.34 1.97 49.78 2.9 46.34 3.9 46.34 4.82 49.78 5.77 46.34 6.73 46.34 5.37 51 4.25 51 3.36 47.84 2.48 51 1.35 51"/>
  <polygon class="cls-1" points="8.26 51 6.91 46.34 7.94 46.34 8.88 49.78 9.81 46.34 10.8 46.34 11.72 49.78 12.67 46.34 13.63 46.34 12.28 51 11.16 51 10.26 47.84 9.39 51 8.26 51"/>
  <polygon class="cls-1" points="15.16 51 13.81 46.34 14.84 46.34 15.78 49.78 16.71 46.34 17.71 46.34 18.63 49.78 19.58 46.34 20.54 46.34 19.18 51 18.07 51 17.17 47.84 16.29 51 15.16 51"/>
  <rect class="cls-1" x="20.85" y="49.71" width="1.13" height="1.29"/>
  <path class="cls-1" d="m26.98,49.59v.07c0,.8-.54,1.33-1.33,1.33h-1.26c-.8,0-1.33-.54-1.33-1.33v-.18h.99v.2c0,.29.17.46.47.46h1.01c.29,0,.46-.18.46-.47v-.16c0-.29-.17-.46-.46-.46h-1.1c-.79,0-1.33-.53-1.33-1.33v-.04c0-.8.54-1.33,1.33-1.33h1.17c.8,0,1.33.54,1.33,1.33v.18h-.99v-.2c0-.29-.17-.46-.46-.46h-.92c-.29,0-.47.17-.47.46v.14c0,.29.17.46.47.46h1.09c.79,0,1.33.54,1.33,1.33"/>
  <polygon class="cls-1" points="27.47 46.34 28.59 46.34 28.59 45 29.58 44.7 29.58 46.34 30.7 46.34 30.7 47.2 29.58 47.2 29.58 51 28.59 51 28.59 47.2 27.47 47.2 27.47 46.34"/>
  <path class="cls-1" d="m34.25,51l-.13-.39c-.23.25-.58.39-.99.39h-.71c-.81,0-1.33-.54-1.33-1.34v-.06c0-.8.53-1.33,1.33-1.33h.71c.35,0,.65.11.88.3v-.91c0-.29-.17-.46-.46-.46h-.81c-.3,0-.47.17-.47.46v.21h-.99v-.19c0-.8.54-1.33,1.33-1.33h1.06c.8,0,1.33.54,1.33,1.33v3.32h-.76Zm-.24-1.27v-.21c0-.3-.17-.47-.46-.47h-1.01c-.29,0-.46.17-.46.47v.16c0,.29.17.46.46.46h1.01c.27,0,.44-.15.46-.41"/>
  <polygon class="cls-1" points="37.37 51 35.68 46.34 36.75 46.34 37.99 49.88 39.23 46.34 40.23 46.34 38.55 51 37.37 51"/>
  <path class="cls-1" d="m44.56,49.47v.15c0,.82-.55,1.37-1.37,1.37h-1.19c-.81,0-1.36-.55-1.36-1.37v-1.92c0-.82.55-1.37,1.36-1.37h1.19c.82,0,1.37.55,1.37,1.37v1.32h-2.93v.62c0,.3.19.49.5.49h.94c.3,0,.49-.19.49-.49v-.17h.99Zm-2.93-1.25h1.93v-.54c0-.31-.19-.49-.49-.49h-.94c-.31,0-.5.18-.5.49v.54Z"/>
  <path class="cls-1" d="m45.63,44.37h.99v2.28c.23-.2.55-.31.92-.31h.64c.82,0,1.37.55,1.37,1.37v1.92c0,.82-.55,1.37-1.37,1.37h-.64c-.44,0-.8-.15-1.04-.42l-.12.42h-.76v-6.63Zm.99,3.28v2c0,.3.19.49.5.49h.94c.3,0,.49-.19.49-.49v-1.95c0-.31-.19-.49-.49-.49h-.94c-.3,0-.48.16-.5.45"/>
  <path class="cls-1" d="m53.56,51v-3.3c0-.31-.19-.49-.49-.49h-.94c-.3,0-.48.16-.5.45v3.35h-.99v-4.66h.76l.12.42c.24-.27.6-.42,1.04-.42h.64c.82,0,1.37.55,1.37,1.37v3.29h-.99Z"/>
  <path class="cls-1" d="m55.72,44.51h.99v1.16h-.99v-1.16Zm0,1.83h.99v4.66h-.99v-4.66Z"/>
  <path class="cls-1" d="m60.81,51v-3.3c0-.31-.19-.49-.49-.49h-.94c-.3,0-.48.16-.5.45v3.35h-.99v-4.66h.76l.12.42c.24-.27.6-.42,1.04-.42h.64c.82,0,1.37.55,1.37,1.37v3.29h-.99Z"/>
  <polygon class="cls-1" points="63.63 52.79 64.27 51 64.16 51 62.47 46.34 63.54 46.34 64.78 49.89 66.02 46.34 67.02 46.34 64.69 52.79 63.63 52.79"/>
  <rect class="cls-1" x="67.2" y="48.22" width="1.93" height=".86"/>
  <path class="cls-1" d="m73.82,49.59v.07c0,.8-.54,1.33-1.33,1.33h-1.26c-.8,0-1.33-.54-1.33-1.33v-.18h.99v.2c0,.29.17.46.47.46h1.01c.29,0,.46-.18.46-.47v-.16c0-.29-.17-.46-.46-.46h-1.1c-.79,0-1.33-.53-1.33-1.33v-.04c0-.8.54-1.33,1.33-1.33h1.17c.8,0,1.33.54,1.33,1.33v.18h-.99v-.2c0-.29-.17-.46-.46-.46h-.92c-.3,0-.47.17-.47.46v.14c0,.29.17.46.47.46h1.09c.79,0,1.33.54,1.33,1.33"/>
  <rect class="cls-1" x="74.9" y="44.37" width=".99" height="6.63"/>
  <path class="cls-1" d="m78.05,46.34v3.31c0,.3.19.49.5.49h.94c.29,0,.47-.17.49-.45v-3.35h.99v4.66h-.76l-.12-.42c-.24.27-.59.42-1.02.42h-.65c-.82,0-1.37-.55-1.37-1.37v-3.29h.99Z"/>
  <path class="cls-1" d="m85.97,49.59v.07c0,.8-.54,1.33-1.33,1.33h-1.26c-.8,0-1.33-.54-1.33-1.33v-.18h.99v.2c0,.29.17.46.47.46h1.01c.29,0,.46-.18.46-.47v-.16c0-.29-.17-.46-.46-.46h-1.1c-.79,0-1.33-.53-1.33-1.33v-.04c0-.8.54-1.33,1.33-1.33h1.17c.8,0,1.33.54,1.33,1.33v.18h-.99v-.2c0-.29-.17-.46-.46-.46h-.92c-.3,0-.47.17-.47.46v.14c0,.29.17.46.47.46h1.09c.79,0,1.33.54,1.33,1.33"/>
  <path class="cls-1" d="m89.51,51h-1.19c-.81,0-1.36-.56-1.36-1.37v-1.92c0-.82.56-1.37,1.36-1.37h1.19c.82,0,1.37.55,1.37,1.37v1.92c0,.82-.55,1.37-1.37,1.37m.38-3.31c0-.31-.19-.49-.49-.49h-.94c-.31,0-.5.18-.5.49v1.95c0,.3.19.49.5.49h.94c.3,0,.49-.19.49-.49v-1.95Z"/>
  <polygon class="cls-1" points="92.97 51 91.29 46.34 92.35 46.34 93.59 49.88 94.83 46.34 95.84 46.34 94.15 51 92.97 51"/>
  <path class="cls-1" d="m96.51,44.51h.99v1.16h-.99v-1.16Zm0,1.83h.99v4.66h-.99v-4.66Z"/>
  <path class="cls-1" d="m102.5,49.34v.29c0,.82-.55,1.37-1.37,1.37h-1.19c-.81,0-1.36-.55-1.36-1.37v-1.91c0-.82.56-1.37,1.36-1.37h1.19c.82,0,1.37.55,1.37,1.37v.29h-.99v-.3c0-.31-.19-.49-.49-.49h-.94c-.31,0-.5.18-.5.49v1.95c0,.3.19.49.5.49h.94c.3,0,.49-.19.49-.49v-.31h.99Z"/>
  <path class="cls-1" d="m107.32,49.47v.15c0,.82-.55,1.37-1.37,1.37h-1.19c-.81,0-1.36-.55-1.36-1.37v-1.92c0-.82.55-1.37,1.36-1.37h1.19c.82,0,1.37.55,1.37,1.37v1.32h-2.93v.62c0,.3.19.49.5.49h.94c.3,0,.49-.19.49-.49v-.17h.99Zm-2.93-1.25h1.93v-.54c0-.31-.19-.49-.49-.49h-.94c-.31,0-.5.18-.5.49v.54Z"/>
  <rect class="cls-1" x="108.39" y="49.71" width="1.13" height="1.29"/>
  <path class="cls-1" d="m114.52,49.34v.29c0,.82-.55,1.37-1.37,1.37h-1.19c-.81,0-1.36-.55-1.36-1.37v-1.91c0-.82.56-1.37,1.36-1.37h1.19c.82,0,1.37.55,1.37,1.37v.29h-.99v-.3c0-.31-.19-.49-.49-.49h-.94c-.31,0-.5.18-.5.49v1.95c0,.3.19.49.5.49h.94c.3,0,.49-.19.49-.49v-.31h.99Z"/>
  <polygon class="cls-1" points="117.77 47.2 115.28 47.2 115.28 46.34 119.01 46.34 119.01 47.2 116.52 50.14 119.01 50.14 119.01 51 115.28 51 115.28 50.14 117.77 47.2"/>
</svg>