<?xml version="1.0" encoding="UTF-8"?>
<svg id="Vrstva_1" data-name="Vrstva 1" xmlns="http://www.w3.org/2000/svg" viewBox="0 0 180.04 38.04">
  <defs>
    <style>
      .cls-1, .cls-2, .cls-3, .cls-4 {
        stroke-width: 0px;
      }

      .cls-2 {
        fill: #fff;
      }

      .cls-3 {
        fill: #e31013;
      }

      .cls-4 {
        fill: #13110c;
      }
    </style>
  </defs>
  <path class="cls-1" d="m40.1,31.6c0,1.19-.92,2.1-2.15,2.1h-1.53v2.33h-.89v-6.54h2.42c1.23,0,2.15.91,2.15,2.1m-.88,0c0-.75-.54-1.29-1.28-1.29h-1.53v2.58h1.53c.73,0,1.28-.55,1.28-1.29"/>
  <path class="cls-1" d="m43.28,31.29v.85c-.71-.03-1.49.33-1.49,1.43v2.48h-.83v-4.67h.83v.78c.3-.65.88-.87,1.49-.87"/>
  <path class="cls-1" d="m43.56,33.7c0-1.38,1.11-2.46,2.5-2.46s2.51,1.07,2.51,2.46-1.12,2.46-2.51,2.46-2.5-1.07-2.5-2.46m4.19,0c0-.94-.73-1.66-1.69-1.66s-1.68.72-1.68,1.66.73,1.66,1.68,1.66,1.69-.72,1.69-1.66"/>
  <path class="cls-1" d="m54.33,29.5v6.54h-.83v-.8c-.38.57-.99.92-1.8.92-1.32,0-2.41-1.07-2.41-2.46s1.08-2.46,2.41-2.46c.81,0,1.42.36,1.8.93v-2.67h.83Zm-.83,4.2c0-.95-.73-1.67-1.69-1.67s-1.69.72-1.69,1.67.73,1.67,1.69,1.67,1.69-.72,1.69-1.67"/>
  <path class="cls-1" d="m57.9,35.4c.66,0,1.13-.3,1.37-.68l.7.39c-.42.63-1.14,1.05-2.1,1.05-1.53,0-2.55-1.05-2.55-2.46s1.01-2.46,2.49-2.46,2.37,1.16,2.37,2.47c0,.12-.01.24-.03.36h-3.99c.16.84.84,1.32,1.72,1.32m-1.72-2.03h3.18c-.14-.92-.82-1.35-1.53-1.35-.89,0-1.51.54-1.65,1.35"/>
  <path class="cls-1" d="m61.31,31.37h.83v4.95c0,1.2-.64,1.79-1.84,1.71v-.78c.69.05,1.01-.2,1.01-.93v-4.95Zm-.14-1.39c0-.3.25-.55.56-.55s.55.25.55.55-.25.54-.55.54-.56-.24-.56-.54"/>
  <path class="cls-1" d="m70.54,31.37v4.67h-.83v-.8c-.38.57-.99.92-1.8.92-1.32,0-2.41-1.07-2.41-2.46s1.08-2.46,2.41-2.46c.81,0,1.42.36,1.8.93v-.8h.83Zm-.83,2.33c0-.95-.73-1.67-1.69-1.67s-1.69.72-1.69,1.67.73,1.67,1.69,1.67,1.69-.72,1.69-1.67"/>
  <path class="cls-1" d="m73.9,34.56l.76-.43c.24.72.81,1.19,1.78,1.19s1.41-.42,1.41-1.01c0-.67-.59-.9-1.57-1.2-1.07-.34-2.09-.66-2.09-1.88s.98-1.85,2.09-1.85,1.89.61,2.26,1.43l-.74.42c-.24-.56-.71-1.01-1.52-1.01-.71,0-1.21.37-1.21.97s.47.83,1.4,1.12c1.16.37,2.26.71,2.26,1.97,0,1.15-.94,1.88-2.3,1.88-1.27,0-2.17-.62-2.52-1.61"/>
  <path class="cls-1" d="m82.11,35.4c.66,0,1.13-.3,1.37-.68l.7.39c-.42.63-1.14,1.05-2.1,1.05-1.53,0-2.55-1.05-2.55-2.46s1.01-2.46,2.49-2.46,2.37,1.16,2.37,2.47c0,.12-.01.24-.03.36h-3.99c.16.84.84,1.32,1.72,1.32m-1.72-2.03h3.18c-.14-.92-.82-1.35-1.53-1.35-.89,0-1.51.54-1.65,1.35"/>
  <path class="cls-1" d="m87.67,31.29v.85c-.71-.03-1.49.33-1.49,1.43v2.48h-.83v-4.67h.83v.78c.3-.65.88-.87,1.49-.87"/>
  <polygon class="cls-1" points="92.71 31.37 90.8 36.04 89.83 36.04 87.93 31.37 88.82 31.37 90.32 35.17 91.81 31.37 92.71 31.37"/>
  <path class="cls-1" d="m93.27,29.98c0-.3.25-.55.56-.55s.55.25.55.55-.25.54-.55.54-.56-.24-.56-.54m.14,1.39h.83v4.67h-.83v-4.67Z"/>
  <path class="cls-1" d="m98.88,34.76c0,.87-.76,1.4-1.78,1.4-.95,0-1.62-.45-1.9-1.09l.71-.4c.15.45.59.73,1.18.73.51,0,.94-.18.94-.64,0-1-2.67-.43-2.67-2.12,0-.82.72-1.39,1.69-1.39.78,0,1.41.37,1.71.97l-.69.38c-.18-.42-.6-.6-1.02-.6s-.85.2-.85.63c0,1,2.67.41,2.67,2.13"/>
  <path class="cls-1" d="m102.45,31.37h.83v4.95c0,1.2-.64,1.79-1.84,1.71v-.78c.69.05,1.01-.2,1.01-.93v-4.95Zm-.14-1.39c0-.3.25-.55.56-.55s.55.25.55.55-.25.54-.55.54-.56-.24-.56-.54"/>
  <path class="cls-1" d="m104.54,31.37h.83v4.67h-.83v-4.67Zm.83-.61l.63-1.26h-.98l-.45,1.26h.8Z"/>
  <polygon class="cls-1" points="110.13 35.26 110.13 36.04 106.46 36.04 106.46 35.5 108.89 32.15 106.56 32.15 106.56 31.37 110.03 31.37 110.03 31.91 107.59 35.26 110.13 35.26"/>
  <path class="cls-1" d="m115.59,29.5v6.54h-.83v-.8c-.38.57-.99.92-1.8.92-1.32,0-2.41-1.07-2.41-2.46s1.09-2.46,2.41-2.46c.81,0,1.42.36,1.8.93v-2.67h.83Zm-.83,4.2c0-.95-.73-1.67-1.7-1.67s-1.68.72-1.68,1.67.73,1.67,1.68,1.67,1.7-.72,1.7-1.67"/>
  <path class="cls-1" d="m121.07,33.17v2.87h-.83v-2.82c0-.77-.45-1.2-1.18-1.2s-1.38.44-1.38,1.54v2.47h-.83v-4.67h.83v.67c.35-.55.88-.79,1.54-.79,1.11,0,1.85.73,1.85,1.92"/>
  <path class="cls-1" d="m122.22,31.37h.83v4.67h-.83v-4.67Zm.83-.61l.63-1.26h-.98l-.45,1.26h.8Z"/>
  <path class="cls-1" d="m124.05,33.7c0-1.38,1.07-2.46,2.5-2.46.94,0,1.74.49,2.1,1.22l-.69.39c-.24-.49-.77-.82-1.41-.82-.95,0-1.68.72-1.68,1.66s.72,1.65,1.68,1.65c.65,0,1.17-.33,1.44-.81l.71.4c-.4.73-1.21,1.21-2.14,1.21-1.44,0-2.5-1.07-2.5-2.46"/>
  <path class="cls-1" d="m133.74,33.17v2.87h-.83v-2.82c0-.77-.45-1.2-1.18-1.2s-1.38.44-1.38,1.54v2.47h-.83v-6.54h.83v2.54c.35-.55.88-.79,1.54-.79,1.11,0,1.85.73,1.85,1.92"/>
  <polygon class="cls-1" points="140.27 36.04 138.1 33.83 138.1 36.04 137.27 36.04 137.27 29.5 138.1 29.5 138.1 33.43 140.16 31.37 141.22 31.37 138.95 33.63 141.3 36.04 140.27 36.04"/>
  <path class="cls-1" d="m141.37,33.7c0-1.38,1.11-2.46,2.5-2.46s2.51,1.07,2.51,2.46-1.12,2.46-2.51,2.46-2.5-1.07-2.5-2.46m4.19,0c0-.94-.73-1.66-1.69-1.66s-1.68.72-1.68,1.66.73,1.66,1.68,1.66,1.69-.72,1.69-1.66"/>
  <rect class="cls-1" x="147.37" y="29.22" width=".83" height="6.82"/>
  <path class="cls-4" d="m20.47,2.06c.32.28.54.59.67.93s.19.71.19,1.12c0,.28-.03.56-.1.86-.04.28-.12.55-.22.83-.21.58-.49,1.14-.83,1.69-.34.55-.69,1.05-1.05,1.5-.19.21-.38.41-.58.61-.17.17-.34.32-.51.45l-3.61,2.72c.87.53,1.66,1.16,2.36,1.88.72.7,1.09,1.55,1.09,2.55,0,.21-.02.43-.06.64-.02.19-.07.4-.16.64-.49,1.51-1.52,2.49-3.1,2.94-1.58.45-3.26.69-5.05.73H.06v-1.44h10.22c.6-.02,1.2-.07,1.82-.16.91-.15,1.78-.4,2.59-.77.81-.36,1.34-.95,1.6-1.76.04-.15.07-.29.1-.41s.03-.26.03-.38c-.02-.72-.33-1.36-.93-1.92-.6-.55-1.26-1.04-1.98-1.47-.3-.17-.6-.33-.89-.48-.28-.17-.54-.33-.8-.48.43-.32.89-.65,1.41-.99.53-.36,1.05-.72,1.57-1.09,1.23-.87,2.37-1.84,3.42-2.91,1.04-1.06,1.59-2.28,1.63-3.64,0-.26-.03-.48-.09-.67-.04-.19-.12-.33-.22-.41-.11-.11-.23-.18-.38-.22-.13-.04-.28-.06-.45-.06-.41,0-.87.13-1.41.38-.51.26-1.03.59-1.56.99-.3.21-.6.44-.9.67-.28.23-.55.47-.83.7-.49.45-.94.88-1.34,1.31-.41.4-.72.73-.96.99-.02.11-.05.21-.09.32-.02.08-.04.18-.06.29-.02.04-.04.09-.06.13,0,.04-.01.09-.03.13-.47,1.64-.91,3.14-1.31,4.5-.38,1.34-.57,2.01-.57,2.01-.26.87-.65,1.64-1.18,2.3-.51.66-1.05,1.12-1.63,1.37-.13.04-.27.09-.41.13-.13.02-.26.03-.38.03h-.19c-.06-.02-.13-.04-.19-.06-.06-.02-.14-.04-.22-.06-.09-.04-.17-.11-.26-.19-.15-.11-.29-.28-.42-.51-.13-.24-.19-.54-.19-.93,0-.15.01-.3.03-.45.02-.17.05-.35.1-.54.34-1.34.99-2.78,1.95-4.31.98-1.53,2.26-3.16,3.83-4.89l1.69-5.88,1.41.38-.93,3.26c.19-.19.44-.41.73-.67.3-.26.63-.52.99-.8.41-.3.84-.58,1.31-.86.47-.3.94-.54,1.41-.73.3-.13.6-.22.89-.29.32-.09.63-.13.93-.13s.59.04.86.13c.3.08.56.23.8.45m-11.05,8.49c-.17.23-.41.56-.7.99-.3.4-.61.85-.93,1.34-.15.21-.3.44-.45.67-.13.23-.26.46-.38.67-.3.55-.55,1.1-.77,1.63-.21.53-.32.99-.32,1.37v.26c.02.06.04.13.06.19h.1c.49,0,.94-.37,1.34-1.12.4-.77.76-1.6,1.05-2.49.26-.77.47-1.49.64-2.17.17-.68.29-1.13.35-1.34"/>
  <path class="cls-4" d="m39.41,20.74l-.41,1.44h-9.48c-.66,0-1.11-.15-1.34-.45-.23-.32-.35-.71-.35-1.18,0-.17.01-.34.03-.51s.05-.35.1-.54c.04-.15.08-.3.13-.45.04-.17.1-.33.16-.48.06-.21.12-.4.16-.58.06-.19.12-.35.16-.48-.13.13-.26.26-.38.38-.13.13-.27.27-.42.42-.64.64-1.23,1.23-1.79,1.79-.53.53-.8.8-.8.8-.53.53-1.02.88-1.47,1.05-.43.15-.79.22-1.09.22-.15,0-.28-.01-.38-.03-.08-.02-.16-.04-.22-.06-.34-.11-.62-.31-.83-.61-.19-.32-.29-.66-.29-1.02v-.13c0-.06.01-.13.03-.19v-.13c.02-.06.04-.12.06-.16.02-.08.04-.16.06-.22.02-.09.04-.18.06-.29.08-.3.16-.63.22-.99.08-.38.18-.76.29-1.12.26-.92.63-1.76,1.12-2.52.49-.77,1.24-1.15,2.24-1.15h6.16l-1.82,6.32s-.01.04-.03.06v.19c0,.15.05.29.16.41.13.13.29.19.48.19h9.48Zm-10.12-5.75l-4.73.03c-.21,0-.4.04-.57.13-.17.09-.29.24-.35.48l-1.21,4.21s-.03.05-.03.1v.1c0,.15.04.29.13.42.09.13.19.21.32.26.04.02.07.03.1.03h.13c.06,0,.13-.01.19-.03l.19-.06c.11-.06.21-.14.32-.22.11-.08.2-.17.29-.26.04-.02.07-.04.1-.06.02-.02.04-.04.06-.06l5.08-5.05Z"/>
  <path class="cls-4" d="m50.85,20.74l-.42,1.44h-8.94c-.92,0-1.54-.22-1.89-.67-.34-.47-.51-1.03-.51-1.69,0-.23.02-.48.06-.73.04-.26.09-.51.13-.77.06-.28.13-.54.19-.8.09-.28.17-.54.26-.8.11-.32.2-.63.29-.93.11-.3.19-.55.26-.77h-2.62l.42-1.47h2.62l1.31-4.57h1.47l-1.31,4.57h2.65l-.42,1.47h-2.65l-1.12,3.9c-.02.08-.04.17-.06.26v.26c0,.36.12.67.35.93.26.26.58.38.99.38h8.94Z"/>
  <path class="cls-4" d="m72.54,20.74l-.42,1.44h-7.19c-1.04,0-1.76-.22-2.14-.67-.36-.47-.54-1.03-.54-1.69,0-.26.02-.52.06-.8.04-.28.1-.55.16-.83.06-.21.12-.41.16-.61.06-.21.13-.43.19-.64.09-.23.16-.46.22-.67.06-.23.13-.46.19-.67.02-.04.03-.07.03-.1v-.13c0-.13-.04-.24-.13-.35-.06-.13-.17-.2-.32-.22h-.13c-.15,0-.3.05-.45.16-.15.11-.27.23-.35.38-.02,0-.04.01-.06.03v.03l-4.76,6.77h-1.44l1.89-6.58v-.06s.03-.04.03-.06v-.13c0-.13-.03-.24-.1-.35-.04-.11-.13-.17-.26-.19h-.13c-.11.02-.21.07-.32.16-.11.06-.2.14-.29.22-.04.04-.08.08-.13.13-.04.04-.07.08-.1.13l-5.14,6.74h-1.02l2.49-8.62h1.44l-1.25,4.34,2.33-3.07c.13-.17.26-.32.38-.45.13-.13.26-.24.38-.35.3-.26.59-.43.86-.51.3-.11.58-.16.83-.16h.19c.06,0,.12.01.16.03.43.09.71.28.86.57.17.3.26.65.26,1.05,0,.17-.02.35-.06.54-.02.17-.05.34-.1.51-.04.19-.1.38-.16.58-.04.17-.08.34-.13.51-.09.26-.17.49-.26.7-.06.21-.12.39-.16.54l2.49-3.54c.17-.23.34-.44.51-.61.19-.17.37-.32.54-.45.26-.15.5-.26.73-.32.26-.08.49-.13.7-.13h.19c.06,0,.13.01.19.03.47.09.79.29.96.61.17.3.26.65.26,1.05,0,.17-.01.34-.03.51-.02.17-.05.34-.1.51-.04.19-.1.38-.16.58-.04.17-.1.34-.16.51-.06.23-.14.46-.22.67-.06.21-.12.39-.16.54-.06.23-.12.46-.16.67-.04.19-.06.37-.06.54,0,.36.13.65.38.86.26.19.68.29,1.28.29h7.19Z"/>
  <path class="cls-4" d="m90.5,20.74l-.41,1.44h-9.48c-.66,0-1.11-.15-1.34-.45-.23-.32-.35-.71-.35-1.18,0-.17.01-.34.03-.51s.05-.35.1-.54c.04-.15.08-.3.13-.45.04-.17.1-.33.16-.48.06-.21.12-.4.16-.58.06-.19.12-.35.16-.48-.13.13-.26.26-.38.38-.13.13-.27.27-.42.42-.64.64-1.23,1.23-1.79,1.79-.53.53-.8.8-.8.8-.53.53-1.02.88-1.47,1.05-.43.15-.79.22-1.09.22-.15,0-.28-.01-.38-.03-.08-.02-.16-.04-.22-.06-.34-.11-.62-.31-.83-.61-.19-.32-.29-.66-.29-1.02v-.13c0-.06.01-.13.03-.19v-.13c.02-.06.04-.12.06-.16.02-.08.04-.16.06-.22.02-.09.04-.18.06-.29.08-.3.16-.63.22-.99.08-.38.18-.76.29-1.12.26-.92.63-1.76,1.12-2.52.49-.77,1.24-1.15,2.24-1.15h6.16l-1.82,6.32s-.01.04-.03.06v.19c0,.15.05.29.16.41.13.13.29.19.48.19h9.48Zm-10.12-5.75l-4.73.03c-.21,0-.4.04-.57.13-.17.09-.29.24-.35.48l-1.21,4.21s-.03.05-.03.1v.1c0,.15.04.29.13.42.09.13.19.21.32.26.04.02.07.03.1.03h.13c.06,0,.13-.01.19-.03.06-.02.13-.04.19-.06.11-.06.21-.14.32-.22.11-.08.2-.17.29-.26.04-.02.07-.04.1-.06.02-.02.04-.04.06-.06l5.08-5.05Z"/>
  <path class="cls-4" d="m107.31,20.74l-.42,1.44h-8.66c-1.04,0-1.76-.2-2.14-.61-.38-.4-.57-.9-.57-1.5,0-.23.02-.48.06-.73.04-.28.1-.55.16-.83.04-.17.08-.33.13-.48.06-.17.13-.34.19-.51.13-.42.24-.82.35-1.18.11-.36.16-.67.16-.93,0-.17-.03-.3-.1-.38-.06-.11-.16-.17-.29-.19h-.06v-.03h-.1c-.13,0-.26.04-.38.13-.13.08-.24.18-.35.29-.02.04-.05.09-.1.13-.02.02-.04.05-.06.1l-5.11,6.74h-1.02l2.46-8.62h1.47l-1.25,4.34,2.33-3.07c.15-.19.29-.35.42-.48.15-.15.3-.28.45-.38.28-.23.55-.39.83-.48.3-.08.56-.13.8-.13h.22c.06,0,.13.01.19.03.45.11.76.3.93.57.17.26.25.57.25.93,0,.32-.05.66-.16,1.02-.09.34-.18.69-.29,1.05-.02.04-.04.08-.06.13v.13c-.15.4-.28.8-.38,1.18-.11.38-.16.73-.16,1.05,0,.38.12.69.35.93.23.23.65.35,1.24.35h8.66Z"/>
  <path class="cls-4" d="m131.87,2.06c.32.28.54.59.67.93s.19.71.19,1.12c0,.28-.03.56-.1.86-.04.28-.12.55-.22.83-.21.58-.49,1.14-.83,1.69-.34.55-.69,1.05-1.05,1.5-.19.21-.38.41-.58.61-.17.17-.34.32-.51.45l-3.61,2.72c.87.53,1.66,1.16,2.36,1.88.72.7,1.09,1.55,1.09,2.55,0,.21-.02.43-.06.64-.02.19-.07.4-.16.64-.49,1.51-1.52,2.49-3.1,2.94-1.58.45-3.26.69-5.05.73h-9.45v-1.44h10.22c.6-.02,1.2-.07,1.82-.16.91-.15,1.78-.4,2.59-.77.81-.36,1.34-.95,1.6-1.76.04-.15.07-.29.1-.41.02-.13.03-.26.03-.38-.02-.72-.33-1.36-.93-1.92-.6-.55-1.26-1.04-1.98-1.47-.3-.17-.6-.33-.89-.48-.28-.17-.54-.33-.8-.48.43-.32.9-.65,1.41-.99.53-.36,1.05-.72,1.56-1.09,1.23-.87,2.37-1.84,3.42-2.91,1.04-1.06,1.59-2.28,1.63-3.64,0-.26-.03-.48-.09-.67-.04-.19-.12-.33-.22-.41-.11-.11-.23-.18-.38-.22-.13-.04-.28-.06-.45-.06-.41,0-.87.13-1.41.38-.51.26-1.03.59-1.56.99-.3.21-.6.44-.9.67-.28.23-.55.47-.83.7-.49.45-.94.88-1.34,1.31-.41.4-.72.73-.96.99-.02.11-.05.21-.1.32-.02.08-.04.18-.06.29-.02.04-.04.09-.06.13,0,.04-.01.09-.03.13-.47,1.64-.91,3.14-1.31,4.5-.38,1.34-.57,2.01-.57,2.01-.26.87-.65,1.64-1.18,2.3-.51.66-1.05,1.12-1.63,1.37-.13.04-.27.09-.41.13-.13.02-.26.03-.38.03h-.19c-.06-.02-.13-.04-.19-.06-.06-.02-.14-.04-.22-.06-.09-.04-.17-.11-.26-.19-.15-.11-.29-.28-.42-.51-.13-.24-.19-.54-.19-.93,0-.15.01-.3.03-.45.02-.17.05-.35.1-.54.34-1.34.99-2.78,1.95-4.31.98-1.53,2.26-3.16,3.83-4.89l1.69-5.88,1.41.38-.93,3.26c.19-.19.44-.41.73-.67.3-.26.63-.52.99-.8.41-.3.84-.58,1.31-.86.47-.3.94-.54,1.41-.73.3-.13.6-.22.89-.29.32-.09.63-.13.93-.13s.59.04.86.13c.3.08.56.23.8.45m-11.05,8.49c-.17.23-.41.56-.7.99-.3.4-.61.85-.93,1.34-.15.21-.3.44-.45.67-.13.23-.26.46-.38.67-.3.55-.55,1.1-.77,1.63-.21.53-.32.99-.32,1.37v.26c.02.06.04.13.06.19h.1c.49,0,.94-.37,1.34-1.12.41-.77.76-1.6,1.05-2.49.26-.77.47-1.49.64-2.17.17-.68.29-1.13.35-1.34"/>
  <path class="cls-4" d="m142.74,20.74l-.42,1.44h-8.75c-.51,0-.92-.15-1.21-.45-.3-.32-.45-.71-.45-1.18v-.19c.02-.06.03-.13.03-.19.02-.02.03-.05.03-.1.02-.04.03-.08.03-.1l1.95-6.87h1.47l-1.98,6.87s-.01.04-.03.06v.16c0,.15.05.28.16.38.11.11.24.16.42.16h8.75Zm-6.23-9.87c0,.38-.14.71-.42.99-.28.28-.62.41-1.02.41s-.74-.14-1.02-.41c-.28-.28-.41-.61-.41-.99,0-.4.14-.74.41-1.02.28-.28.62-.41,1.02-.41s.74.14,1.02.41.42.62.42,1.02"/>
  <path class="cls-4" d="m148.15,7.1l-4.34,15.07h-1.47l4.38-15.07h1.44Zm15.55,13.64l-.42,1.44h-13.06c-.53,0-.89-.11-1.09-.32-.19-.23-.29-.52-.29-.86,0-.15.01-.3.03-.45.04-.17.09-.34.13-.51.02-.11.04-.21.06-.32.04-.11.08-.21.13-.32.08-.28.16-.53.22-.77.06-.23.1-.43.1-.58,0-.08-.02-.15-.06-.19-.02-.04-.07-.06-.16-.06h-.38c-.06.02-.14.03-.22.03h-.51c-.3-.02-.57-.08-.83-.16-.26-.08-.42-.23-.48-.45-.02-.04-.03-.08-.03-.1v-.1c0-.17.05-.35.16-.54.11-.19.27-.39.48-.61l3.16-3.29.96.83-2.81,2.91h.93c.51,0,.86.12,1.05.35.19.21.29.48.29.8,0,.17-.02.34-.06.51-.04.17-.08.34-.13.51-.02.11-.05.2-.09.29-.02.09-.04.17-.06.26-.08.28-.17.54-.26.8-.06.23-.1.43-.1.58,0,.09.02.16.06.22.06.06.14.1.22.1h13.06Z"/>
  <path class="cls-4" d="m180.04,20.74l-.42,1.44h-14.63c-.64,0-1.14-.19-1.5-.57-.36-.38-.53-.85-.51-1.41,0-.11.01-.21.03-.32.02-.13.04-.26.06-.38.11-.36.28-.7.51-1.02.23-.34.51-.63.83-.86-.13-.17-.23-.35-.32-.54-.06-.19-.1-.39-.1-.61v-.13s.01-.1.03-.16v-.13s.04-.09.06-.13c.19-.64.6-1.18,1.21-1.63.64-.47,1.31-.71,2.01-.73h5.72l-.42,1.44h-5.59c-.06,0-.14.01-.22.03-.08,0-.17.01-.26.03-.21.06-.42.17-.61.32-.19.15-.32.33-.38.54-.02.02-.03.05-.03.09v.1c0,.19.1.36.29.51.19.13.43.19.7.19h3.48l-.42,1.47h-3.48c-.34,0-.67.13-.99.38-.3.23-.5.51-.61.83-.02.06-.04.13-.06.19,0,.04.01.08.03.13,0,.28.09.5.26.67.17.17.39.25.67.25h14.63Z"/>
  <path class="cls-3" d="m20.41.73c.32.28.54.59.67.93s.19.71.19,1.12c0,.28-.03.56-.1.86-.04.28-.12.55-.22.83-.21.58-.49,1.14-.83,1.69-.34.55-.69,1.05-1.05,1.5-.19.21-.38.41-.58.61-.17.17-.34.32-.51.45l-3.61,2.72c.87.53,1.66,1.16,2.36,1.88.72.7,1.09,1.55,1.09,2.55,0,.21-.02.43-.06.64-.02.19-.07.4-.16.64-.49,1.51-1.52,2.49-3.1,2.94-1.58.45-3.26.69-5.05.73H0v-1.44h10.22c.6-.02,1.2-.07,1.82-.16.91-.15,1.78-.4,2.59-.77.81-.36,1.34-.95,1.6-1.76.04-.15.07-.29.1-.41s.03-.26.03-.38c-.02-.72-.33-1.36-.93-1.92-.6-.55-1.26-1.04-1.98-1.47-.3-.17-.6-.33-.89-.48-.28-.17-.54-.33-.8-.48.43-.32.89-.65,1.41-.99.53-.36,1.05-.72,1.57-1.09,1.23-.87,2.37-1.84,3.42-2.91,1.04-1.06,1.59-2.28,1.63-3.64,0-.26-.03-.48-.1-.67-.04-.19-.12-.33-.22-.41-.11-.11-.23-.18-.38-.22-.13-.04-.28-.06-.45-.06-.41,0-.87.13-1.41.38-.51.26-1.03.59-1.56.99-.3.21-.6.44-.9.67-.28.23-.55.47-.83.7-.49.45-.94.88-1.34,1.31-.41.4-.72.73-.96.99-.02.11-.05.21-.09.32-.02.08-.04.18-.06.29-.02.04-.04.09-.06.13,0,.04-.01.09-.03.13-.47,1.64-.91,3.14-1.31,4.5-.38,1.34-.57,2.01-.57,2.01-.26.87-.65,1.64-1.18,2.3-.51.66-1.05,1.12-1.63,1.37-.13.04-.27.09-.41.13-.13.02-.26.03-.38.03h-.19c-.06-.02-.13-.04-.19-.06-.06-.02-.14-.04-.22-.06-.09-.04-.17-.11-.26-.19-.15-.11-.29-.28-.42-.51-.13-.24-.19-.54-.19-.93,0-.15.01-.3.03-.45.02-.17.05-.35.1-.54.34-1.34.99-2.78,1.95-4.31.98-1.53,2.26-3.16,3.83-4.89l1.69-5.88,1.41.38-.93,3.26c.19-.19.44-.41.73-.67.3-.26.63-.52.99-.8.41-.3.84-.58,1.31-.86.47-.3.94-.54,1.41-.73.3-.13.6-.22.89-.29.32-.09.63-.13.93-.13s.59.04.86.13c.3.08.56.23.8.45m-11.05,8.49c-.17.23-.41.56-.7.99-.3.4-.61.85-.93,1.34-.15.21-.3.44-.45.67-.13.23-.26.46-.38.67-.3.55-.55,1.1-.77,1.63-.21.53-.32.99-.32,1.37v.26c.02.06.04.13.06.19h.1c.49,0,.94-.37,1.34-1.12.4-.77.76-1.6,1.05-2.49.26-.77.47-1.49.64-2.17.17-.68.29-1.13.35-1.34Z"/>
  <path class="cls-3" d="m39.35,19.42l-.41,1.44h-9.48c-.66,0-1.11-.15-1.34-.45-.23-.32-.35-.71-.35-1.18,0-.17.01-.34.03-.51s.05-.35.1-.54l.13-.45c.04-.17.1-.33.16-.48.06-.21.12-.4.16-.58.06-.19.12-.35.16-.48-.13.13-.26.26-.38.38-.13.13-.27.27-.42.42-.64.64-1.23,1.23-1.79,1.79-.53.53-.8.8-.8.8-.53.53-1.02.88-1.47,1.05-.43.15-.79.22-1.09.22-.15,0-.28-.01-.38-.03-.08-.02-.16-.04-.22-.06-.34-.11-.62-.31-.83-.61-.19-.32-.29-.66-.29-1.02v-.13c0-.06.01-.13.03-.19v-.13c.02-.06.04-.12.06-.16.02-.08.04-.16.06-.22.02-.09.04-.18.06-.29.08-.3.16-.63.22-.99.08-.38.18-.76.29-1.12.26-.92.63-1.76,1.12-2.52.49-.77,1.24-1.15,2.24-1.15h6.16l-1.82,6.32s-.01.04-.03.06v.19c0,.15.05.29.16.41.13.13.29.19.48.19h9.48Zm-10.12-5.75l-4.73.03c-.21,0-.4.04-.57.13-.17.09-.29.24-.35.48l-1.21,4.21s-.03.05-.03.1v.1c0,.15.04.29.13.42.09.13.19.21.32.26.04.02.07.03.1.03h.13c.06,0,.13-.01.19-.03.06-.02.13-.04.19-.06.11-.06.21-.14.32-.22.11-.08.2-.17.29-.26.04-.02.07-.04.1-.06.02-.02.04-.04.06-.06l5.08-5.05Z"/>
  <path class="cls-3" d="m50.79,19.42l-.42,1.44h-8.94c-.92,0-1.54-.22-1.88-.67-.34-.47-.51-1.03-.51-1.69,0-.23.02-.48.06-.73.04-.26.09-.51.13-.77.06-.28.13-.54.19-.8.09-.28.17-.54.26-.8.11-.32.2-.63.29-.93.11-.3.19-.55.26-.77h-2.62l.42-1.47h2.62l1.31-4.57h1.47l-1.31,4.57h2.65l-.42,1.47h-2.65l-1.12,3.9c-.02.08-.04.17-.06.26v.26c0,.36.12.67.35.93.26.26.58.38.99.38h8.94Z"/>
  <path class="cls-3" d="m72.48,19.42l-.42,1.44h-7.19c-1.04,0-1.76-.22-2.14-.67-.36-.47-.54-1.03-.54-1.69,0-.26.02-.52.06-.8.04-.28.1-.55.16-.83.06-.21.12-.41.16-.61.06-.21.13-.43.19-.64.09-.23.16-.46.22-.67.06-.23.13-.46.19-.67.02-.04.03-.07.03-.1v-.13c0-.13-.04-.24-.13-.35-.06-.13-.17-.2-.32-.22h-.13c-.15,0-.3.05-.45.16-.15.11-.27.23-.35.38-.02,0-.04.01-.06.03v.03l-4.76,6.77h-1.44l1.89-6.58v-.06s.03-.04.03-.06v-.13c0-.13-.03-.24-.1-.35-.04-.11-.13-.17-.26-.19h-.13c-.11.02-.21.07-.32.16-.11.06-.2.14-.29.22-.04.04-.08.08-.13.13-.04.04-.07.08-.1.13l-5.14,6.74h-1.02l2.49-8.62h1.44l-1.25,4.34,2.33-3.07c.13-.17.26-.32.38-.45.13-.13.26-.24.38-.35.3-.26.59-.43.86-.51.3-.11.58-.16.83-.16h.19c.06,0,.12.01.16.03.43.09.71.28.86.57.17.3.26.65.26,1.05,0,.17-.02.35-.06.54-.02.17-.05.34-.1.51-.04.19-.1.38-.16.58-.04.17-.08.34-.13.51-.09.26-.17.49-.26.7-.06.21-.12.39-.16.54l2.49-3.54c.17-.23.34-.44.51-.61.19-.17.37-.32.54-.45.26-.15.5-.26.73-.32.26-.08.49-.13.7-.13h.19c.06,0,.13.01.19.03.47.09.79.29.96.61.17.3.26.65.26,1.05,0,.17-.01.34-.03.51-.02.17-.05.34-.1.51-.04.19-.1.38-.16.58-.04.17-.1.34-.16.51-.06.23-.14.46-.22.67-.06.21-.12.39-.16.54-.06.23-.12.46-.16.67-.04.19-.06.37-.06.54,0,.36.13.65.38.86.26.19.68.29,1.28.29h7.19Z"/>
  <path class="cls-3" d="m90.44,19.42l-.41,1.44h-9.48c-.66,0-1.11-.15-1.34-.45-.23-.32-.35-.71-.35-1.18,0-.17.01-.34.03-.51s.05-.35.1-.54c.04-.15.08-.3.13-.45.04-.17.1-.33.16-.48.06-.21.12-.4.16-.58.06-.19.12-.35.16-.48-.13.13-.26.26-.38.38-.13.13-.27.27-.42.42-.64.64-1.23,1.23-1.79,1.79-.53.53-.8.8-.8.8-.53.53-1.02.88-1.47,1.05-.43.15-.79.22-1.09.22-.15,0-.28-.01-.38-.03-.08-.02-.16-.04-.22-.06-.34-.11-.62-.31-.83-.61-.19-.32-.29-.66-.29-1.02v-.13c0-.06.01-.13.03-.19v-.13c.02-.06.04-.12.06-.16.02-.08.04-.16.06-.22.02-.09.04-.18.06-.29.08-.3.16-.63.22-.99.08-.38.18-.76.29-1.12.26-.92.63-1.76,1.12-2.52.49-.77,1.24-1.15,2.24-1.15h6.16l-1.82,6.32s-.01.04-.03.06v.19c0,.15.05.29.16.41.13.13.29.19.48.19h9.48Zm-10.12-5.75l-4.73.03c-.21,0-.4.04-.57.13-.17.09-.29.24-.35.48l-1.21,4.21s-.03.05-.03.1v.1c0,.15.04.29.13.42.09.13.19.21.32.26.04.02.07.03.1.03h.13c.06,0,.13-.01.19-.03.06-.02.13-.04.19-.06.11-.06.21-.14.32-.22.11-.08.2-.17.29-.26.04-.02.07-.04.1-.06.02-.02.04-.04.06-.06l5.08-5.05Z"/>
  <path class="cls-3" d="m107.24,19.42l-.42,1.44h-8.66c-1.04,0-1.76-.2-2.14-.61-.38-.4-.57-.9-.57-1.5,0-.23.02-.48.06-.73.04-.28.1-.55.16-.83.04-.17.08-.33.13-.48.06-.17.13-.34.19-.51.13-.42.24-.82.35-1.18.11-.36.16-.67.16-.93,0-.17-.03-.3-.1-.38-.06-.11-.16-.17-.29-.19h-.06v-.03h-.1c-.13,0-.26.04-.38.13-.13.08-.24.18-.35.29-.02.04-.05.09-.1.13-.02.02-.04.05-.06.1l-5.11,6.74h-1.02l2.46-8.62h1.47l-1.25,4.34,2.33-3.07c.15-.19.29-.35.42-.48.15-.15.3-.28.45-.38.28-.23.55-.39.83-.48.3-.08.56-.13.8-.13h.22c.06,0,.13.01.19.03.45.11.76.3.93.57.17.26.25.57.25.93,0,.32-.05.66-.16,1.02-.09.34-.18.69-.29,1.05-.02.04-.04.08-.06.13v.13c-.15.4-.28.8-.38,1.18-.11.38-.16.73-.16,1.05,0,.38.12.69.35.93.23.23.65.35,1.24.35h8.66Z"/>
  <path class="cls-2" d="m131.81.73c.32.28.54.59.67.93s.19.71.19,1.12c0,.28-.03.56-.1.86-.04.28-.12.55-.22.83-.21.58-.49,1.14-.83,1.69-.34.55-.69,1.05-1.05,1.5-.19.21-.38.41-.58.61-.17.17-.34.32-.51.45l-3.61,2.72c.87.53,1.66,1.16,2.36,1.88.72.7,1.09,1.55,1.09,2.55,0,.21-.02.43-.06.64-.02.19-.07.4-.16.64-.49,1.51-1.52,2.49-3.1,2.94-1.58.45-3.26.69-5.05.73h-9.45v-1.44h10.22c.6-.02,1.2-.07,1.82-.16.91-.15,1.78-.4,2.59-.77.81-.36,1.34-.95,1.6-1.76.04-.15.07-.29.1-.41.02-.13.03-.26.03-.38-.02-.72-.33-1.36-.93-1.92-.6-.55-1.26-1.04-1.98-1.47-.3-.17-.6-.33-.89-.48-.28-.17-.54-.33-.8-.48.43-.32.9-.65,1.41-.99.53-.36,1.05-.72,1.56-1.09,1.23-.87,2.37-1.84,3.42-2.91,1.04-1.06,1.59-2.28,1.63-3.64,0-.26-.03-.48-.09-.67-.04-.19-.12-.33-.22-.41-.11-.11-.23-.18-.38-.22-.13-.04-.28-.06-.45-.06-.41,0-.87.13-1.41.38-.51.26-1.03.59-1.56.99-.3.21-.6.44-.9.67-.28.23-.55.47-.83.7-.49.45-.94.88-1.34,1.31-.41.4-.72.73-.96.99-.02.11-.05.21-.1.32-.02.08-.04.18-.06.29-.02.04-.04.09-.06.13,0,.04-.01.09-.03.13-.47,1.64-.91,3.14-1.31,4.5-.38,1.34-.57,2.01-.57,2.01-.26.87-.65,1.64-1.18,2.3-.51.66-1.05,1.12-1.63,1.37-.13.04-.27.09-.41.13-.13.02-.26.03-.38.03h-.19l-.19-.06c-.06-.02-.14-.04-.22-.06-.09-.04-.17-.11-.26-.19-.15-.11-.29-.28-.42-.51-.13-.24-.19-.54-.19-.93,0-.15.01-.3.03-.45.02-.17.05-.35.1-.54.34-1.34.99-2.78,1.95-4.31.98-1.53,2.26-3.16,3.83-4.89l1.69-5.88,1.41.38-.93,3.26c.19-.19.44-.41.73-.67.3-.26.63-.52.99-.8.41-.3.84-.58,1.31-.86.47-.3.94-.54,1.41-.73.3-.13.6-.22.89-.29.32-.09.63-.13.93-.13s.59.04.86.13c.3.08.56.23.8.45m-11.05,8.49c-.17.23-.41.56-.7.99-.3.4-.61.85-.93,1.34-.15.21-.3.44-.45.67-.13.23-.26.46-.38.67-.3.55-.55,1.1-.77,1.63-.21.53-.32.99-.32,1.37v.26c.02.06.04.13.06.19h.1c.49,0,.94-.37,1.34-1.12.41-.77.76-1.6,1.05-2.49.26-.77.47-1.49.64-2.17.17-.68.29-1.13.35-1.34"/>
  <path class="cls-2" d="m142.68,19.42l-.42,1.44h-8.75c-.51,0-.92-.15-1.21-.45-.3-.32-.45-.71-.45-1.18v-.19c.02-.06.03-.13.03-.19.02-.02.03-.05.03-.1.02-.04.03-.08.03-.1l1.95-6.87h1.47l-1.98,6.87s-.01.04-.03.06v.16c0,.15.05.28.16.38.11.11.24.16.42.16h8.75Zm-6.23-9.87c0,.38-.14.71-.42.99-.28.28-.62.41-1.02.41s-.74-.14-1.02-.41c-.28-.28-.41-.61-.41-.99,0-.4.14-.74.41-1.02.28-.28.62-.41,1.02-.41s.74.14,1.02.41.42.62.42,1.02"/>
  <path class="cls-2" d="m148.09,5.78l-4.34,15.07h-1.47l4.38-15.07h1.44Zm15.55,13.64l-.42,1.44h-13.06c-.53,0-.89-.11-1.09-.32-.19-.23-.29-.52-.29-.86,0-.15.01-.3.03-.45.04-.17.09-.34.13-.51.02-.11.04-.21.06-.32l.13-.32c.08-.28.16-.53.22-.77.06-.23.1-.43.1-.58,0-.08-.02-.15-.06-.19-.02-.04-.07-.06-.16-.06h-.38c-.06.02-.14.03-.22.03h-.51c-.3-.02-.57-.08-.83-.16-.26-.08-.42-.23-.48-.45-.02-.04-.03-.08-.03-.1v-.1c0-.17.05-.35.16-.54.11-.19.27-.39.48-.61l3.16-3.29.96.83-2.81,2.91h.93c.51,0,.86.12,1.05.35.19.21.29.48.29.8,0,.17-.02.34-.06.51-.04.17-.08.34-.13.51-.02.11-.05.2-.09.29-.02.09-.04.17-.06.26-.08.28-.17.54-.26.8-.06.23-.1.43-.1.58,0,.09.02.16.06.22.06.06.14.1.22.1h13.06Z"/>
  <path class="cls-2" d="m179.98,19.42l-.42,1.44h-14.63c-.64,0-1.14-.19-1.5-.57-.36-.38-.53-.85-.51-1.41,0-.11.01-.21.03-.32.02-.13.04-.26.06-.38.11-.36.28-.7.51-1.02.23-.34.51-.63.83-.86-.13-.17-.23-.35-.32-.54-.06-.19-.1-.39-.1-.61v-.13s.01-.1.03-.16v-.13s.04-.09.06-.13c.19-.64.6-1.18,1.21-1.63.64-.47,1.31-.71,2.01-.73h5.72l-.42,1.44h-5.59c-.06,0-.14.01-.22.03-.08,0-.17.01-.26.03-.21.06-.42.17-.61.32-.19.15-.32.33-.38.54-.02.02-.03.05-.03.09v.1c0,.19.1.36.29.51.19.13.43.19.7.19h3.48l-.42,1.47h-3.48c-.34,0-.67.13-.99.38-.3.23-.5.51-.61.83-.02.06-.04.13-.06.19,0,.04.01.08.03.13,0,.28.09.5.26.67.17.17.39.25.67.25h14.63Z"/>
</svg>