<?xml version="1.0" encoding="UTF-8"?>
<svg id="Vrstva_1" data-name="Vrstva 1" xmlns="http://www.w3.org/2000/svg" viewBox="0 0 145.75 35.04">
  <defs>
    <style>
      .cls-1, .cls-2, .cls-3, .cls-4 {
        stroke-width: 0px;
      }

      .cls-1, .cls-3, .cls-4 {
        fill-rule: evenodd;
      }

      .cls-3 {
        fill: #fff;
      }

      .cls-4 {
        fill: #e30613;
      }
    </style>
  </defs>
  <path class="cls-1" d="m101.13,14.11l-1.16,9.7h43.02l1.16-9.7h-43.02Zm.54-4.52l-.27,2.21h43.02l.27-2.21h-43.02Zm.54-4.52l-.27,2.21h43.02l.27-2.21h-43.02ZM145.75.73h-43.02l-.24,2.03h43.02l.24-2.03Z"/>
  <path class="cls-2" d="m64.87,34.89v-5.94h-2.04v-.8h4.9v.8h-2.05v5.94h-.82Zm-8.69-3.76h1.76c.37,0,.67-.04.88-.13.21-.08.37-.22.48-.4.11-.19.16-.39.16-.6,0-.32-.1-.58-.32-.79-.21-.21-.55-.31-1.01-.31h-1.96v2.23Zm-.82,3.76v-6.74h2.74c.55,0,.97.06,1.26.18.29.12.52.34.69.64.17.31.26.65.26,1.02,0,.48-.14.88-.43,1.21-.28.33-.72.54-1.32.63.22.11.38.22.49.34.24.24.47.54.68.89l1.08,1.83h-1.03l-.82-1.4c-.24-.4-.44-.71-.59-.93-.16-.21-.29-.37-.42-.45-.12-.09-.25-.15-.37-.18-.09-.02-.24-.03-.46-.03h-.95v2.99h-.82Zm-8-3.27c0,.81.2,1.45.6,1.92.4.47.9.7,1.51.7s1.12-.24,1.52-.71c.4-.47.6-1.14.6-2.01,0-.55-.09-1.03-.26-1.43-.17-.41-.42-.73-.75-.95-.33-.22-.7-.34-1.1-.34-.58,0-1.08.22-1.5.65-.42.43-.63,1.16-.63,2.17m-.84-.01c0-1.12.27-1.99.83-2.63s1.26-.95,2.14-.95c.57,0,1.09.15,1.54.45.46.3.81.71,1.05,1.24.24.53.36,1.13.36,1.81s-.12,1.3-.38,1.83c-.25.54-.61.95-1.08,1.22-.46.28-.96.42-1.5.42-.58,0-1.1-.15-1.56-.46-.46-.31-.81-.73-1.04-1.26-.24-.53-.35-1.09-.35-1.68m-6.56-.25h1.6c.53,0,.91-.11,1.13-.32.22-.21.33-.52.33-.9,0-.28-.07-.52-.2-.73s-.3-.33-.52-.4c-.14-.04-.39-.06-.76-.06h-1.58v2.41Zm-.82,3.53v-6.74h2.33c.41,0,.72.02.94.07.3.06.56.16.77.32.2.15.37.37.49.65.12.28.19.58.19.92,0,.57-.17,1.06-.5,1.46-.34.39-.94.59-1.82.59h-1.59v2.74h-.82Zm-7.91-2.16l.77-.07c.04.34.12.61.25.83.13.22.34.39.62.52.28.13.6.2.95.2.31,0,.59-.05.83-.15.24-.1.42-.24.53-.42.12-.18.18-.37.18-.58s-.06-.4-.17-.55c-.11-.16-.3-.29-.56-.4-.17-.07-.53-.18-1.1-.33-.57-.15-.97-.29-1.19-.42-.3-.17-.52-.38-.66-.63-.14-.25-.22-.53-.22-.84,0-.34.09-.66.27-.95.18-.3.44-.52.78-.67.34-.15.72-.23,1.14-.23.46,0,.86.08,1.21.24.35.16.62.4.81.71.19.31.29.67.3,1.06l-.78.07c-.04-.42-.19-.75-.43-.96-.24-.22-.6-.33-1.08-.33s-.86.1-1.08.3c-.23.2-.34.44-.34.71,0,.24.08.44.24.6.16.16.57.32,1.23.48.66.17,1.12.31,1.37.43.36.18.63.41.8.69.17.28.26.6.26.96s-.09.7-.28,1.01c-.19.32-.46.56-.81.74-.35.18-.75.26-1.19.26-.56,0-1.03-.09-1.41-.27-.38-.18-.67-.44-.89-.8-.21-.36-.33-.76-.34-1.21m-7.83,2.16v-6.74h.84l3.25,5.29v-5.29h.78v6.74h-.84l-3.25-5.29v5.29h-.78Zm-6.51-2.77h2.1l-.65-1.86c-.2-.57-.34-1.03-.44-1.4-.08.43-.19.86-.33,1.29l-.68,1.97Zm-1.78,2.77l2.38-6.74h.88l2.53,6.74h-.93l-.72-2.04h-2.59l-.68,2.04h-.87Zm-6.59-3.76h1.76c.37,0,.67-.04.88-.13.21-.08.37-.22.48-.4.11-.19.16-.39.16-.6,0-.32-.1-.58-.32-.79-.21-.21-.55-.31-1.01-.31h-1.96v2.23Zm-.82,3.76v-6.74h2.74c.55,0,.97.06,1.26.18.29.12.52.34.69.64.17.31.26.65.26,1.02,0,.48-.14.88-.43,1.21-.28.33-.72.54-1.32.63.22.11.38.22.49.34.24.24.47.54.68.89l1.07,1.83h-1.03l-.82-1.4c-.24-.4-.44-.71-.59-.93-.15-.21-.29-.37-.42-.45-.12-.09-.25-.15-.37-.18-.09-.02-.24-.03-.46-.03h-.95v2.99h-.82Zm-5.58,0v-5.94H.06v-.8h4.9v.8h-2.05v5.94h-.82Z"/>
  <path class="cls-2" d="m138.91,34.89v-6.74h.84l3.25,5.29v-5.29h.79v6.74h-.84l-3.25-5.29v5.29h-.79Zm-7.98-3.27c0,.81.2,1.45.6,1.92.4.47.9.7,1.51.7s1.12-.24,1.52-.71c.4-.47.6-1.14.6-2.01,0-.55-.09-1.03-.26-1.43s-.42-.73-.75-.95c-.33-.22-.7-.34-1.1-.34-.58,0-1.08.22-1.5.65-.42.43-.63,1.16-.63,2.17m-.84-.01c0-1.12.28-1.99.83-2.62.55-.63,1.26-.95,2.14-.95.57,0,1.09.15,1.54.45.46.3.81.71,1.05,1.24.24.53.36,1.13.36,1.81s-.12,1.29-.38,1.83c-.25.54-.61.95-1.07,1.23-.47.28-.96.42-1.5.42-.58,0-1.1-.15-1.56-.46-.46-.3-.81-.72-1.04-1.25-.24-.53-.36-1.09-.36-1.68m-3.88-3.46h.82v6.74h-.82v-6.74Zm-5.71,6.74v-5.94h-2.04v-.8h4.9v.8h-2.05v5.94h-.82Zm-5.7-6.74h.82v6.74h-.82v-6.74Zm-7.43,5.94h1.32c.41,0,.73-.04.96-.12.23-.08.42-.2.55-.35.19-.21.34-.5.45-.85.11-.36.16-.79.16-1.3,0-.7-.11-1.25-.32-1.62-.21-.38-.47-.63-.77-.76-.22-.09-.57-.14-1.06-.14h-1.3v5.15Zm-.82.79v-6.74h2.13c.48,0,.85.03,1.1.1.35.09.66.25.91.48.33.3.57.68.73,1.15.16.47.24,1,.24,1.6,0,.51-.05.97-.17,1.36-.11.39-.25.72-.42.98-.17.26-.36.46-.56.61-.2.15-.45.26-.74.34-.29.08-.62.11-.99.11h-2.23Zm-7.61,0v-6.74h4.47v.8h-3.65v2.06h3.42v.79h-3.42v2.29h3.8v.79h-4.62Zm-6.83-3.53h1.6c.53,0,.9-.11,1.13-.32s.33-.52.33-.9c0-.28-.07-.52-.2-.72-.13-.2-.3-.33-.52-.4-.14-.04-.39-.06-.76-.06h-1.58v2.41Zm-.82,3.53v-6.74h2.33c.41,0,.72.02.94.06.3.06.56.16.77.32.2.15.37.37.49.65.13.28.19.59.19.92,0,.57-.17,1.06-.5,1.46-.34.4-.94.6-1.82.6h-1.59v2.74h-.82Zm-7.9-2.16l.77-.07c.04.34.12.61.26.83.13.22.34.39.62.52.28.13.6.2.95.2.31,0,.59-.05.83-.15.24-.1.42-.24.53-.41.12-.18.18-.37.18-.58s-.06-.4-.17-.55-.3-.29-.56-.4c-.17-.07-.53-.18-1.1-.33-.57-.15-.97-.29-1.19-.42-.29-.17-.52-.38-.66-.63-.14-.25-.22-.53-.22-.84,0-.34.09-.66.27-.95.18-.3.44-.52.78-.67.34-.15.72-.23,1.14-.23.46,0,.86.08,1.21.24.35.16.62.4.81.71.19.31.29.67.3,1.06l-.79.06c-.04-.42-.19-.75-.43-.96-.24-.22-.6-.33-1.08-.33s-.86.1-1.08.3c-.23.2-.34.44-.34.71,0,.24.08.44.24.6.16.16.57.32,1.23.48.66.17,1.12.31,1.37.43.36.18.63.41.8.69.17.28.26.6.26.96s-.09.7-.28,1.01c-.19.32-.46.56-.81.74-.35.18-.75.26-1.19.26-.56,0-1.03-.09-1.41-.27-.38-.18-.68-.44-.89-.8-.21-.36-.33-.76-.34-1.21"/>
  <path class="cls-2" d="m74.33,33.44l-1.39-1.88c-.41.27-.69.51-.83.74-.14.23-.22.45-.22.68,0,.27.1.56.3.85.2.3.48.44.85.44.23,0,.46-.08.71-.23.24-.15.44-.36.58-.6m-1.07-2.86c.33-.21.54-.4.64-.56.1-.16.15-.33.15-.53,0-.23-.07-.42-.2-.56-.13-.15-.3-.22-.5-.22s-.38.07-.51.22c-.14.14-.2.32-.2.53,0,.1.02.21.07.33.05.11.12.23.22.36l.34.43Zm1.55,3.51c-.25.3-.52.53-.82.68-.3.15-.61.23-.96.23-.63,0-1.14-.23-1.51-.7-.3-.38-.45-.8-.45-1.27,0-.42.12-.79.37-1.13.25-.34.61-.63,1.1-.88-.28-.35-.46-.63-.56-.85-.09-.22-.14-.43-.14-.63,0-.4.14-.76.44-1.06.29-.3.66-.45,1.1-.45s.77.14,1.04.42c.27.28.4.62.4,1.02,0,.64-.39,1.19-1.17,1.64l1.11,1.54c.13-.27.23-.58.29-.94l.79.18c-.14.59-.32,1.07-.55,1.45.28.41.61.76.97,1.04l-.51.66c-.31-.21-.62-.53-.95-.95"/>
  <path class="cls-3" d="m118.9,23.06v-.17s2.86-5.88,2.86-5.88h-2.3l.1-1.19h3.98v.14s-2.84,5.89-2.84,5.89h2.51l-.1,1.22h-4.2Zm7.81,0l.84-7.67h1.04l-.84,7.67h-1.04Zm7.8-7.96l-1.81,1.72h-.69l1.12-1.72h1.38Zm-2.82,7.96l.57-5.28h1.13l-.57,5.28h-1.13Zm5.29,0l.64-5.28h1.16l-.11.83c.27-.35.54-.6.8-.76.26-.16.54-.24.83-.24.47,0,.83.14,1.09.42.26.28.38.67.38,1.17,0,.2-.03.52-.09.96,0,.05-.01.09-.02.12l-.34,2.8h-1.25l.36-2.95c.01-.1.02-.19.03-.27,0-.08,0-.14,0-.19,0-.25-.05-.44-.17-.58-.11-.14-.28-.2-.48-.2-.37,0-.65.13-.86.39-.21.26-.34.66-.41,1.21l-.31,2.59h-1.25Z"/>
  <path class="cls-4" d="m110.06,23.22h-11.65l2.63-21.9h5.42l-1.93,16.42h6.23l-.7,5.48Zm-17.94-11.33c.11-1.53-.38-2.88-1.46-4.04-1.09-1.16-2.45-1.74-4.07-1.74s-3.07.58-4.33,1.74c-1.26,1.16-1.95,2.51-2.06,4.04-.14,1.88.32,3.44,1.39,4.68,1.07,1.24,2.43,1.86,4.09,1.86s3.12-.62,4.37-1.86c1.25-1.24,1.94-2.8,2.08-4.68m5.72-.03c-.26,3.54-1.58,6.44-3.94,8.7-2.36,2.26-5.24,3.38-8.64,3.38s-6.11-1.13-8.14-3.38c-2.03-2.26-2.91-5.16-2.65-8.7.24-3.21,1.6-5.9,4.1-8.05,2.49-2.15,5.3-3.22,8.42-3.22s5.79,1.07,7.95,3.21c2.17,2.14,3.13,4.83,2.89,8.06m-23.96-6.12c.66,3.41-.41,5.63-2.04,6.98-1.85,1.52-4.84,1.89-6.01,1.89h-1.35l-1.07,8.61h-5.42l2.8-21.9h6.46c3.76,0,6.08,1.6,6.62,4.43m-5.09,1.92c.06-1.3-1.3-1.47-2.28-1.47h-.91l-.42,3.26h.9c.45,0,2.62.16,2.72-1.79m-13.71,15.56h-5.42l2.8-21.9h5.42l-2.8,21.9Zm-7.54,0h-5.08l-.13-9.77-4.91,9.77h-3.96l-2.7-10.09-2.62,10.09h-5.28L28.42,1.31h4.59l3.41,12.37,6.13-12.37h4.93l.04,21.9ZM14.82,13.88l-1-3.86-2.09,3.86h3.09Zm8.11,9.33h-5.78l-.95-4.29h-7.15l-2.16,4.29H.97L12.53,1.31h4.4l6,21.9Z"/>
  <path class="cls-2" d="m109.54,22.63l.55-4.31h-6.22l.08-.65,1.85-15.77h-4.24l-2.49,20.73h10.47Zm1.03,1.17h-12.83l.08-.66,2.63-21.9.06-.52h6.6l-.08.65-1.85,15.77h6.24l-.09.66-.7,5.48-.06.51Zm-17.87-11.88c-.07,1-.3,1.93-.68,2.78-.38.85-.9,1.61-1.58,2.28-.68.67-1.42,1.18-2.21,1.52-.8.34-1.66.51-2.57.51s-1.75-.17-2.51-.52c-.76-.35-1.44-.86-2.03-1.55-1.17-1.36-1.68-3.06-1.53-5.1.06-.84.28-1.64.66-2.38.38-.74.91-1.42,1.59-2.05,1.38-1.27,2.95-1.9,4.73-1.9.89,0,1.71.16,2.47.48.75.32,1.43.8,2.03,1.45.6.64,1.04,1.33,1.31,2.08.27.76.38,1.56.32,2.4m-1.17-.08c.05-.69-.03-1.33-.24-1.92-.22-.6-.57-1.16-1.06-1.68s-1.04-.91-1.64-1.17c-.6-.26-1.27-.39-2.01-.39-1.47,0-2.78.53-3.93,1.59-.58.53-1.02,1.11-1.34,1.72-.31.6-.49,1.24-.54,1.93-.13,1.72.29,3.14,1.25,4.26.48.55,1.02.97,1.62,1.24.6.27,1.28.41,2.03.41s1.46-.14,2.11-.42c.66-.28,1.27-.71,1.84-1.27.57-.57,1.02-1.21,1.34-1.92.32-.71.51-1.51.57-2.38m5.71-.03c.11-1.54-.06-2.94-.51-4.2-.45-1.26-1.19-2.4-2.2-3.4-2.05-2.03-4.57-3.04-7.54-3.04-1.49,0-2.9.26-4.23.77-1.34.51-2.61,1.28-3.8,2.31-1.19,1.02-2.1,2.17-2.75,3.45-.65,1.27-1.03,2.67-1.14,4.2-.13,1.7.02,3.24.44,4.62.42,1.37,1.1,2.58,2.05,3.65,1.91,2.13,4.48,3.19,7.7,3.19,1.63,0,3.12-.27,4.49-.81,1.37-.54,2.62-1.34,3.74-2.42,1.12-1.07,2-2.3,2.62-3.68.62-1.38,1-2.93,1.13-4.63m-23.95-5.97c-.25-1.26-.88-2.25-1.88-2.91-1.02-.68-2.42-1.04-4.17-1.04h-5.95l-2.65,20.73h4.23l1.01-8.09.06-.52h1.87c.66,0,1.93-.13,3.23-.54.86-.27,1.72-.66,2.4-1.22.79-.65,1.43-1.53,1.77-2.67.3-1.02.36-2.25.07-3.74m1.15-.22c.19,1,.25,1.9.18,2.73.15-.4.33-.8.52-1.19.72-1.41,1.73-2.67,3.03-3.8,1.3-1.12,2.68-1.96,4.15-2.52,1.47-.56,3.02-.85,4.65-.85,3.3,0,6.08,1.13,8.36,3.38,1.15,1.13,1.98,2.41,2.49,3.84.51,1.42.7,2.98.58,4.68-.14,1.84-.55,3.52-1.23,5.03-.69,1.52-1.65,2.87-2.89,4.05-1.24,1.18-2.61,2.07-4.12,2.66-1.51.59-3.15.89-4.92.89-3.57,0-6.43-1.19-8.57-3.58-1.07-1.19-1.84-2.56-2.31-4.09-.46-1.52-.63-3.2-.49-5.04.02-.32.06-.63.1-.93-.44.93-1.06,1.69-1.79,2.28-.81.67-1.81,1.13-2.8,1.44-1.43.45-2.85.59-3.58.59h-.83l-1.01,8.09-.07.52h-6.6l.09-.66,2.8-21.9.07-.51h6.98c1.99,0,3.61.43,4.83,1.24,1.26.84,2.07,2.08,2.38,3.66m-5.08,2.06c-.12,2.4-2.48,2.36-3.22,2.35-.04,0-.07,0-.09,0h-1.56l.09-.66.42-3.26.07-.51h1.43c.55,0,1.22.05,1.78.3.67.3,1.14.84,1.09,1.78m-1.18-.06c.02-.35-.16-.55-.4-.66-.36-.16-.86-.2-1.29-.2h-.4l-.27,2.08h.23s.07,0,.1,0c.47,0,1.96.03,2.02-1.23m-13.63,15l2.65-20.73h-4.24l-2.65,20.73h4.24Zm1.03,1.17h-6.6l.08-.66,2.8-21.9.07-.51h6.6l-.08.66-2.8,21.9-.06.51Zm-8.65-1.17l-.04-20.73h-3.98l-6.63,13.37-3.72-13.37h-3.69l-5.26,20.73h4.07l3.07-11.95,3.16,11.95h3.15l5.85-11.68.13,11.68h3.91ZM15.58,14.47h-4.83l.47-.86,2.84-5.33,1.53,6.2Zm-1.52-1.17l-.44-1.69-.91,1.69h1.35Zm8.1,9.33L16.48,1.9h-3.6L1.95,22.63h4.59l2-3.97.16-.32h7.98l.1.46.84,3.83h4.54Zm1.54,1.17h-7.02l-.1-.46-.84-3.83h-6.32l-2,3.97-.16.32H0l.45-.86L12.01,1.04l.17-.31h5.2l.12.43,5.38,19.62L27.85,1.17l.11-.45h5.49l.12.43,3,10.89,5.45-10.99.16-.33h5.88v.59s.04,21.9.04,21.9v.59s-6.24,0-6.24,0v-.58s-.1-7.36-.1-7.36l-3.83,7.62-.16.33h-4.77l-.12-.44-2.13-7.94-2.06,7.94-.11.44h-4.89Z"/>
</svg>