<?xml version="1.0" encoding="UTF-8"?>
<svg id="Vrstva_1" data-name="Vrstva 1" xmlns="http://www.w3.org/2000/svg" viewBox="0 0 106.19 40.36">
  <defs>
    <style>
      .cls-1 {
        stroke-width: 0px;
      }
    </style>
  </defs>
  <path class="cls-1" d="m18.05,3.67c-.3,1.34-.36,1.51-1.05,2.39l-8.71,11.2h5.28c1.31,0,1.67-.26,2.06-1.31h.92l-.92,3.96c-.43,1.74-.59,1.93-2,1.93H1.57c-1.08,0-1.57-.33-1.57-1.02,0-.13.03-.39.13-.68l.62-2.75L10.94,4.16h-5.7c-.85,0-1.31-.36-1.31-1.01,0-.26.03-.49.1-.75L4.58,0h14.28l-.82,3.67Z"/>
  <path class="cls-1" d="m20.04,21.85c-.89,0-1.18-.07-1.41-.26-.23-.2-.33-.46-.33-.72,0-.23.07-.62.2-1.11l3.8-16.54q.26-1.11.26-1.4c0-.49-.33-.79-1.02-.99L21.75,0h12.55c2.1,0,3.01.2,3.83.82.92.72,1.44,2.03,1.44,3.7,0,2.13-.52,5.01-1.6,9.11-.62,2.36-1.41,4.42-2.03,5.4-.72,1.18-1.7,2.03-2.75,2.46-.69.26-1.51.36-2.91.36h-10.22Zm6-4.59h1.6c1.6,0,2.09-.36,2.68-1.9.36-.98,1.05-3.38,1.44-5.15.49-2.22.69-3.37.69-4.16,0-1.11-.66-1.64-2.1-1.64h-1.38l-2.95,12.84Z"/>
  <path class="cls-1" d="m57.91,2.26c-.39,1.77-.59,1.9-2.65,1.9h-4.62l-.88,3.74h6.49l-.56,2.42c-.36,1.57-.75,1.93-2.19,1.93h-4.72l-1.18,5.01h5.24c1.67,0,2-.16,2.43-1.34h.95l-.95,4.12c-.36,1.58-.69,1.8-2.43,1.8h-11.36c-1.11,0-1.57-.33-1.57-1.11,0-.17.04-.42.17-.98l3.83-16.54c.23-1.15.23-1.11.23-1.4,0-.49-.33-.82-1.05-.99L43.27,0h15.16l-.52,2.26Z"/>
  <path class="cls-1" d="m66.69,21.85l-.65-12.84-3.18,9.96c-.29,1.01-.29,1.05-.29,1.28,0,.43.33.69.95.75l-.2.85h-5.6c-.72,0-1.08-.23-1.08-.69,0-.33.1-.63.36-1.41l6.19-16.74c.39-1.02.42-1.11.42-1.38,0-.42-.33-.65-.92-.72L62.89,0h6.42c1.51,0,1.74.23,1.84,1.77l.52,8.77,3.47-7.86c.2-.39.33-.85.33-1.05,0-.39-.3-.65-.88-.72L74.78,0h6.65c1.57,0,1.83.26,1.87,1.8l.2,16.93c0,1.31.03,1.41.2,1.71.23.33.56.49,1.21.55l-.2.85h-6.22c-.79,0-1.18-.26-1.31-.85q-.03-.17-.03-1.11l.1-10.87-5.08,12.84h-5.47Z"/>
  <path class="cls-1" d="m92.37,16.7l-1.02,2.29c-.33.72-.36.76-.36,1.11,0,.52.23.75.92.89l-.2.85h-5.9c-.69,0-1.05-.29-1.05-.88,0-.26.07-.4.39-1.08l8.78-17.09c.39-.72.43-.82.43-1.15,0-.49-.23-.69-.92-.78l.2-.85h8.55c1.54,0,1.74.2,1.8,1.87l.82,17.29c.07,1.28.33,1.64,1.38,1.83l-.2.85h-6.32c-1.21,0-1.51-.29-1.54-1.44l-.1-3.7h-5.66Zm5.34-11.73l-3.57,7.93h3.8l-.23-7.93Z"/>
  <path class="cls-1" d="m40.32,29.32c-.19.78-.49,1-1.34,1h-2.21c-.73,0-.82.03-1.02.12-.17.1-.29.34-.29.58,0,.32.12.42.8.73l2.31,1.07c1.14.54,1.58,1.1,1.58,2.12,0,.65-.22,1.72-.51,2.65-.66,1.92-1.75,2.6-4.21,2.6h-5.01c-.87,0-1.21-.22-1.21-.75,0-.15.02-.34.07-.54l.7-3.09h.56c.1.68.51.97,1.36.97h2.33c.95,0,1.26-.17,1.26-.7,0-.37-.22-.56-1.09-.97l-1.87-.85c-1.1-.51-1.49-1.1-1.49-2.16,0-1.27.46-2.92,1.02-3.7.68-.92,1.34-1.17,3.28-1.17h5.42l-.46,2.08Z"/>
  <path class="cls-1" d="m44.16,36.76c.75,0,.85.02,1.04.15.19.14.32.34.32.58,0,.1-.03.24-.08.44l-.51,2.26h-3.45c-.58,0-.9-.24-.9-.7,0-.1.03-.24.05-.39l.53-2.33h2.99Z"/>
  <path class="cls-1" d="m58.63,29.32c-.25,1-.54,1.27-1.46,1.27h-1.29c-1.38,0-1.75.29-2.06,1.75l-1.34,5.74q-.15.63-.15.8c0,.39.2.61.71.78l-.12.54h-4.18c-.83,0-1.17-.24-1.17-.81,0-.14.02-.38.1-.63l2.16-9.4c.14-.59.14-.63.14-.8,0-.39-.14-.56-.68-.78l.12-.53h4.42c.59,0,.93.26.93.73,0,.19,0,.25-.05.39l-.17.75.9-1.21c.43-.59.63-.66,1.58-.66h2.09l-.48,2.08Z"/>
  <path class="cls-1" d="m59.26,36.76c.75,0,.85.02,1.05.15.19.14.31.34.31.58,0,.1-.02.24-.07.44l-.51,2.26h-3.45c-.58,0-.9-.24-.9-.7,0-.1.02-.24.05-.39l.53-2.33h2.99Z"/>
  <path class="cls-1" d="m76.05,30.32c0,.88-.36,2.65-.95,4.82-1.19,4.25-2.45,5.23-6.81,5.23-1.9,0-3.23-.17-4.03-.49-.95-.39-1.51-1.34-1.51-2.53,0-1.8.93-5.57,1.85-7.49.97-2.04,2.58-2.8,6.08-2.8,4.06,0,5.37.8,5.37,3.25m-5.37,4.06c.51-2.04.36-1.51.44-1.77.15-.71.24-1.29.24-1.58,0-.65-.39-.99-1.17-.99-.71,0-1.17.27-1.46.88-.2.37-.37.98-.68,2.31-.41,1.7-.61,2.67-.61,3.04,0,.66.39,1,1.14,1,1.09,0,1.51-.47,1.92-2.19l.17-.69Z"/>
  <path class="cls-1" d="m79.56,36.76c.75,0,.85.02,1.04.15.19.14.31.34.31.58,0,.1-.03.24-.07.44l-.51,2.26h-3.45c-.58,0-.9-.24-.9-.7,0-.1.02-.24.05-.39l.54-2.33h2.99Z"/>
</svg>