<?xml version="1.0" encoding="UTF-8"?>
<svg id="Vrstva_1" data-name="Vrstva 1" xmlns="http://www.w3.org/2000/svg" viewBox="0 0 83.02 25.21">
  <defs>
    <style>
      .cls-1 {
        stroke-width: 0px;
      }
    </style>
  </defs>
  <path class="cls-1" d="m3.13,5.35H1.13v3.25H0V.1h3.4c1.46,0,2.65,1.18,2.65,2.64,0,1.12-.74,2.1-1.76,2.47l2,3.4h-1.25l-1.91-3.25Zm-2-1.02h2.27c.84,0,1.52-.72,1.52-1.59s-.68-1.58-1.52-1.58H1.13v3.17Z"/>
  <path class="cls-1" d="m7.13.72c0-.39.32-.72.72-.72s.7.33.7.72-.32.7-.7.7-.72-.32-.72-.7m.18,1.81h1.06v6.07h-1.06V2.53Z"/>
  <path class="cls-1" d="m9.64,5.56c0-1.8,1.36-3.19,3.19-3.19,1.2,0,2.22.63,2.68,1.59l-.89.51c-.3-.64-.98-1.07-1.8-1.07-1.21,0-2.14.93-2.14,2.16s.92,2.15,2.14,2.15c.83,0,1.49-.42,1.84-1.06l.9.52c-.51.95-1.54,1.58-2.73,1.58-1.83,0-3.19-1.4-3.19-3.19"/>
  <path class="cls-1" d="m22,4.87v3.73h-1.06v-3.67c0-1-.57-1.55-1.51-1.55s-1.76.57-1.76,2v3.22h-1.06V.1h1.06v3.3c.45-.72,1.12-1.03,1.97-1.03,1.42,0,2.36.95,2.36,2.5"/>
  <path class="cls-1" d="m29.56,2.53v6.07h-1.06v-1.04c-.49.74-1.26,1.2-2.3,1.2-1.69,0-3.07-1.4-3.07-3.19s1.39-3.19,3.07-3.19c1.03,0,1.81.46,2.3,1.2v-1.04h1.06Zm-1.06,3.04c0-1.24-.94-2.17-2.16-2.17s-2.15.94-2.15,2.17.94,2.17,2.15,2.17,2.16-.94,2.16-2.17"/>
  <path class="cls-1" d="m34.11,2.42v1.11c-.91-.04-1.9.43-1.9,1.86v3.22h-1.06V2.53h1.06v1.02c.39-.85,1.13-1.13,1.9-1.13"/>
  <path class="cls-1" d="m40.9.1v8.5h-1.06v-1.04c-.49.74-1.26,1.2-2.3,1.2-1.69,0-3.07-1.4-3.07-3.19s1.38-3.19,3.07-3.19c1.03,0,1.81.46,2.3,1.2V.1h1.06Zm-1.06,5.47c0-1.24-.94-2.17-2.16-2.17s-2.15.94-2.15,2.17.93,2.17,2.15,2.17,2.16-.94,2.16-2.17"/>
  <path class="cls-1" d="m46.33,10.3h-.91l.49-2.95h1.22l-.79,2.95Zm1.88,0h-.91l.49-2.95h1.22l-.79,2.95Z"/>
  <polygon class="cls-1" points="48.82 .1 50.04 .1 52.5 7.19 54.96 .1 56.18 .1 53.14 8.6 51.86 8.6 48.82 .1"/>
  <path class="cls-1" d="m59.54,2.42v1.11c-.91-.04-1.9.43-1.9,1.86v3.22h-1.06V2.53h1.06v1.02c.39-.85,1.13-1.13,1.9-1.13"/>
  <path class="cls-1" d="m64.65,6.94c0,1.13-.97,1.82-2.27,1.82-1.21,0-2.07-.58-2.42-1.42l.91-.52c.19.58.75.95,1.51.95.64,0,1.2-.23,1.2-.83,0-1.3-3.4-.56-3.4-2.76,0-1.07.92-1.81,2.15-1.81.99,0,1.8.47,2.18,1.26l-.89.5c-.23-.55-.76-.78-1.3-.78s-1.08.27-1.08.81c0,1.3,3.4.54,3.4,2.77M60.45.06h1.13l.74.98.74-.98h1.13l-1.29,1.64h-1.17l-1.29-1.64Z"/>
  <path class="cls-1" d="m71.82,2.53v6.07h-1.06v-1.04c-.48.74-1.26,1.2-2.3,1.2-1.69,0-3.07-1.4-3.07-3.19s1.39-3.19,3.07-3.19c1.03,0,1.81.46,2.3,1.2v-1.04h1.06Zm-1.06,3.04c0-1.24-.93-2.18-2.16-2.18s-2.15.94-2.15,2.18.93,2.17,2.15,2.17,2.16-.93,2.16-2.17m-1.82-3.86h-1.02l.97-1.6h1.28l-1.23,1.6Z"/>
  <polygon class="cls-1" points="77.25 8.6 74.48 5.72 74.48 8.6 73.42 8.6 73.42 .1 74.48 .1 74.48 5.21 77.1 2.53 78.46 2.53 75.56 5.47 78.56 8.6 77.25 8.6"/>
  <path class="cls-1" d="m80.23.1h.91l-.48,2.95h-1.22l.79-2.95Zm1.88,0h.91l-.48,2.95h-1.21l.79-2.95Z"/>
  <polygon class="cls-1" points="19.54 14.27 20.76 14.27 23.22 21.36 25.67 14.27 26.9 14.27 23.85 22.77 22.58 22.77 19.54 14.27"/>
  <path class="cls-1" d="m30.25,16.59v1.11c-.91-.04-1.9.43-1.9,1.86v3.22h-1.06v-6.07h1.06v1.02c.39-.85,1.13-1.13,1.9-1.13"/>
  <path class="cls-1" d="m35.37,21.11c0,1.13-.97,1.82-2.27,1.82-1.21,0-2.07-.58-2.42-1.42l.91-.52c.19.58.75.95,1.51.95.64,0,1.2-.23,1.2-.83,0-1.3-3.4-.56-3.4-2.76,0-1.07.92-1.81,2.15-1.81,1,0,1.8.47,2.19,1.26l-.89.5c-.23-.55-.77-.78-1.3-.78s-1.08.27-1.08.81c0,1.3,3.4.54,3.4,2.77m-4.2-6.88h1.13l.74.98.74-.98h1.13l-1.29,1.64h-1.17l-1.29-1.64Z"/>
  <path class="cls-1" d="m36.11,19.74c0-1.8,1.42-3.19,3.2-3.19s3.21,1.4,3.21,3.19-1.43,3.19-3.21,3.19-3.2-1.4-3.2-3.19m5.34,0c0-1.23-.94-2.16-2.15-2.16s-2.14.93-2.14,2.16.93,2.16,2.14,2.16,2.15-.93,2.15-2.16"/>
  <polygon class="cls-1" points="48.91 16.7 46.48 22.77 45.25 22.77 42.82 16.7 43.96 16.7 45.86 21.64 47.77 16.7 48.91 16.7"/>
  <path class="cls-1" d="m53.75,21.11c0,1.13-.97,1.82-2.27,1.82-1.21,0-2.07-.58-2.42-1.42l.91-.52c.19.58.75.95,1.51.95.64,0,1.2-.23,1.2-.83,0-1.3-3.4-.56-3.4-2.76,0-1.07.92-1.81,2.15-1.81,1,0,1.8.47,2.18,1.26l-.89.5c-.23-.55-.76-.78-1.3-.78s-1.08.27-1.08.81c0,1.3,3.4.54,3.4,2.77"/>
  <polygon class="cls-1" points="58.77 22.77 56 19.89 56 22.77 54.94 22.77 54.94 14.27 56 14.27 56 19.38 58.62 16.7 59.98 16.7 57.08 19.64 60.08 22.77 58.77 22.77"/>
  <path class="cls-1" d="m66.3,16.7l-2.48,6.45c-.51,1.36-1.46,2.14-2.7,2.05v-.98c.81.06,1.32-.44,1.64-1.24l.11-.23-2.65-6.05h1.13l2.07,4.76,1.75-4.76h1.13Zm-2.77-.83h-1.02l.97-1.6h1.28l-1.23,1.6Z"/>
</svg>