<?xml version="1.0" encoding="UTF-8"?>
<svg id="Vrstva_1" data-name="Vrstva 1" xmlns="http://www.w3.org/2000/svg" viewBox="0 0 127.83 33.46">
  <defs>
    <style>
      .cls-1 {
        fill: #e4003b;
      }

      .cls-1, .cls-2 {
        stroke-width: 0px;
      }

      .cls-2 {
        fill: #354960;
      }
    </style>
  </defs>
  <path class="cls-1" d="m45.72,1.87h7.29c.07.36.11.72.11,1.09,0,.39-.04.77-.11,1.12h-4.68v2.79h3.72c.07.38.11.75.11,1.11,0,.38-.04.76-.11,1.13h-3.72v3.39h4.81c.07.36.11.72.11,1.09,0,.39-.04.77-.11,1.13h-7.41V1.87Z"/>
  <path class="cls-1" d="m55.21,1.87c.44-.07.86-.11,1.27-.11s.85.04,1.3.11v10.59h4.45c.04.2.06.4.07.58.01.18.02.36.02.53,0,.19,0,.38-.02.56-.01.18-.04.38-.07.58h-7.02V1.87Z"/>
  <path class="cls-1" d="m64.02,1.87h7.29c.07.36.11.72.11,1.09,0,.39-.04.77-.11,1.12h-4.68v2.79h3.72c.07.38.11.75.11,1.11,0,.38-.04.76-.11,1.13h-3.72v3.39h4.81c.07.36.11.72.11,1.09,0,.39-.04.77-.11,1.13h-7.41V1.87Z"/>
  <path class="cls-1" d="m73.5,1.85c.23-.04.45-.06.66-.07.22-.01.44-.02.66-.02.2,0,.41,0,.63.02.21.01.43.04.66.07v12.88c-.23.04-.45.06-.66.07-.22.01-.43.02-.64.02s-.43,0-.64-.02c-.21-.01-.43-.04-.66-.07V1.85Zm2.98,6.4l3.48-6.38c.27-.05.53-.08.76-.09.23-.01.44-.02.63-.02.2,0,.43.01.68.04.25.02.51.05.79.07l-3.52,6.2,3.82,6.65c-.27.02-.54.05-.8.07-.26.02-.48.04-.69.04-.19,0-.4,0-.63-.02s-.49-.04-.78-.09l-3.75-6.47Z"/>
  <path class="cls-1" d="m87.06,4.08h-3.2c-.07-.36-.11-.73-.11-1.13,0-.37.04-.73.11-1.09h9.02c.07.36.11.72.11,1.09,0,.39-.03.77-.11,1.13h-3.2v10.63c-.21.02-.43.05-.64.06-.21.02-.42.03-.62.03s-.42,0-.65-.02c-.23-.01-.47-.04-.71-.07V4.08Z"/>
  <path class="cls-1" d="m94.82,1.87c.52-.06,1.01-.11,1.47-.15.46-.04.97-.06,1.53-.06.65,0,1.3.06,1.94.18.64.12,1.21.33,1.72.64.51.3.93.71,1.24,1.23.32.52.47,1.18.47,1.97,0,.48-.06.9-.18,1.26-.12.36-.27.68-.45.96-.18.27-.38.51-.6.71-.21.2-.42.35-.61.47l-.3.2,3.13,5.43c-.24.02-.49.05-.75.07-.26.02-.53.04-.8.04-.45,0-.9-.04-1.34-.11l-3.36-5.97.43-.21c.17-.08.37-.19.61-.32.24-.13.47-.29.69-.49.22-.2.41-.43.56-.71.15-.28.23-.61.23-.99,0-.75-.22-1.3-.64-1.65-.43-.35-.98-.53-1.66-.53-.26,0-.5.02-.72.05v10.85c-.21.02-.43.04-.64.06-.21.02-.42.03-.62.03s-.42,0-.64-.02c-.23-.01-.46-.04-.7-.07V1.87Z"/>
  <path class="cls-1" d="m110.66,14.93c-.97,0-1.8-.17-2.5-.5-.7-.33-1.28-.8-1.73-1.38-.45-.59-.79-1.29-1.01-2.09-.22-.8-.33-1.68-.33-2.64s.11-1.84.33-2.65c.22-.82.56-1.52,1.01-2.12.45-.6,1.03-1.06,1.73-1.39.7-.33,1.54-.5,2.5-.5s1.8.17,2.5.5c.7.33,1.28.8,1.73,1.39.45.6.79,1.3,1.01,2.12.22.82.33,1.7.33,2.65s-.11,1.83-.33,2.64c-.22.8-.56,1.5-1.01,2.09-.45.59-1.03,1.05-1.73,1.38-.7.33-1.54.5-2.5.5m0-2.18c1.85,0,2.77-1.48,2.77-4.43,0-1.48-.22-2.58-.67-3.32-.45-.74-1.14-1.11-2.08-1.11-1.87,0-2.8,1.48-2.8,4.43s.93,4.43,2.79,4.43"/>
  <path class="cls-1" d="m118.4,1.87c.37-.07.72-.11,1.05-.11.36,0,.73.04,1.11.11l4.97,8.18V1.87c.43-.07.84-.11,1.23-.11.37,0,.73.04,1.07.11v12.85c-.38.07-.73.11-1.04.11-.33,0-.7-.04-1.09-.11l-5-8.16v8.16c-.38.07-.77.11-1.16.11s-.77-.04-1.14-.11V1.87Z"/>
  <path class="cls-2" d="m45.15,33.28l5.4-10.45h-4.93c-.07-.36-.11-.72-.11-1.09,0-.39.04-.77.11-1.13h8.61l.14.21-5.34,10.42h5.07c.07.36.11.72.11,1.09,0,.39-.04.77-.11,1.13h-8.83l-.12-.18Z"/>
  <path class="cls-2" d="m56.08,20.61c.44-.07.86-.11,1.27-.11s.85.04,1.3.11v10.59h4.45c.04.2.06.4.07.58.01.18.02.36.02.53,0,.19,0,.38-.02.56-.01.18-.04.38-.07.58h-7.02v-12.85Z"/>
  <path class="cls-2" d="m66.52,17.54c.26-.04.55-.07.87-.09.32-.02.64-.04.96-.04s.61.01.89.04c.29.02.53.05.73.09l-2.63,1.86c-.22.05-.43.08-.64.09-.21.01-.42.02-.62.02-.44,0-.88-.04-1.3-.11l1.75-1.86Zm-1.63,2.97c.44-.07.88-.11,1.3-.11s.87.04,1.32.11v12.85c-.45.07-.89.11-1.3.11-.44,0-.88-.04-1.32-.11v-12.85Z"/>
  <path class="cls-2" d="m70.02,20.51c.37-.07.72-.11,1.05-.11.36,0,.73.04,1.11.11l4.97,8.18v-8.18c.43-.07.84-.11,1.23-.11.37,0,.73.04,1.07.11v12.85c-.38.07-.73.11-1.04.11-.33,0-.7-.04-1.09-.11l-5-8.16v8.16c-.38.07-.77.11-1.16.11s-.78-.04-1.14-.11v-12.85Z"/>
  <rect class="cls-2" x="33.04" y="12.61" width="2.97" height="4.17"/>
  <rect class="cls-2" x="28.24" y="12.61" width="2.97" height="4.17"/>
  <path class="cls-2" d="m30.27,25.71c-.18-.06-.35-.12-.52-.19.17.07.35.14.52.19"/>
  <path class="cls-2" d="m34.15,25.66s-.04.02-.06.02c.02,0,.04-.02.06-.02"/>
  <path class="cls-2" d="m30.38,25.25c.09.03.17.06.26.08v5.17H2.96V8.07l13.98-4.92,14.97,5.27.98-2.8L16.94,0,0,5.97v27.49h33.6v-8.13s.08-.02.12-.04c-.51.14-1.04.21-1.59.21-.61,0-1.2-.09-1.75-.26"/>
  <polyline class="cls-2" points="29.75 25.52 29.74 25.52 29.75 25.52"/>
  <path class="cls-2" d="m30.38,25.74s-.07-.02-.11-.03c.04.01.07.02.11.03"/>
  <path class="cls-2" d="m33.72,25.79c.12-.03.24-.07.36-.11-.12.04-.24.07-.36.11"/>
  <path class="cls-1" d="m38.27,19.65v-.6h-2.97v.83c0,1.75-1.42,3.18-3.18,3.18s-3.18-1.42-3.18-3.18v-.83h-2.97v.83c0,2.54,1.56,4.72,3.76,5.65,0,0,0,0,0,0,.17.07.35.13.52.19.04.01.07.02.11.03.56.17,1.14.26,1.75.26.55,0,1.08-.08,1.59-.21.12-.03.24-.07.36-.11.02,0,.04-.02.06-.02,2.4-.83,4.13-3.11,4.13-5.8,0-.07,0-.14-.01-.21"/>
</svg>