<?xml version="1.0" encoding="UTF-8"?>
<svg id="Vrstva_1" data-name="Vrstva 1" xmlns="http://www.w3.org/2000/svg" viewBox="0 0 64.23 64.23">
  <defs>
    <style>
      .cls-1 {
        fill: #4064ad;
      }

      .cls-1, .cls-2, .cls-3, .cls-4, .cls-5 {
        stroke-width: 0px;
      }

      .cls-1, .cls-2, .cls-4, .cls-5 {
        fill-rule: evenodd;
      }

      .cls-4 {
        fill: #fff;
      }

      .cls-5 {
        fill: #a1c858;
      }
    </style>
  </defs>
  <path class="cls-4" d="m32.12,0C14.38,0,0,14.38,0,32.12s14.38,32.11,32.12,32.11,32.11-14.38,32.11-32.11S49.85,0,32.12,0"/>
  <path class="cls-4" d="m59.8,32.1c0,15.22-12.34,27.56-27.56,27.56S4.69,47.32,4.69,32.1,17.02,4.54,32.24,4.54s27.56,12.34,27.56,27.56"/>
  <path class="cls-1" d="m27.16,35.72c-.04-.27.16.03,0,0,1.68.29.38,6.72-2.82,8.53-3.05,1.74-5.65-.32-5.03-3.64.27-1.47.84-3.28,1.96-4.3.99-.89,1.92-1.28,3.21-1.26,1.33.02-.09,1.31-.3,1.64-.35.54-1.19,1.89-1.23,2.51-.3,1.17.53,1.44,1.33.57.15-.16,2.57-6,2.88-4.05m19.18,2.54s0-.02,0-.03c0,.01,0,.02,0,.03"/>
  <path class="cls-1" d="m45.92,38.22h0s0,0,0,0c-.52,3.85-5.91,7.8-8.2,5.78-.83-1.12-.9-2.26-.92-2.57-.07-.84.21-3.84,1.67-5.24.12.68.98,1.68,1.5,1.99-.65,1.22-.69,2.45,1.15,1.64,1.05-.46,1.35-2.27-.06-2.14.23-1.22,1.58-4.09,3.22-3.59,1.34.41,1.81,2.88,1.64,4.13.02-.12.02-.19,0,0"/>
  <path class="cls-5" d="m26.07,32.74s-2.72-1.63-4.37-1.78c-1.66-.14-4.69-.21-5.15-.21-.45,0,1.14,1.79,2.74,2.29,1.6.5,3.64,1.04,4.49,1.03.85-.01,1.94-.94,2.21-1.05"/>
  <path class="cls-5" d="m32.24,1.1C15.12,1.1,1.24,14.98,1.24,32.1s13.88,31,31,31,31-13.88,31-31S49.36,1.1,32.24,1.1m-.15,52.54c-12.03,0-21.78-9.6-21.78-21.44s9.75-21.44,21.78-21.44,21.78,9.6,21.78,21.44-9.75,21.44-21.78,21.44"/>
  <path class="cls-3" d="m9.52,19.32l.62-1.23.24.11c.52.26.78.58.77.96-.01.33-.26.98-.75,1.94-.16.32-.36.7-.59,1.13-.29.54-.53.9-.73,1.08-.23.21-.5.29-.82.25s-.78-.21-1.39-.52c-.43-.22-.73-.42-.9-.62-.16-.2-.24-.44-.24-.74,0-.2.06-.46.18-.76.12-.31.34-.77.65-1.4.38-.74.66-1.25.84-1.53.19-.27.37-.45.55-.54.16-.07.33-.09.51-.07.18.03.41.11.68.25l-.61,1.21-.04-.02c-.17-.08-.3-.08-.41.02-.1.09-.27.37-.5.82-.29.57-.47.93-.53,1.08-.06.14-.1.28-.11.4-.01.14.03.25.13.35.1.1.32.23.67.4.38.19.65.26.81.2.16-.06.34-.29.55-.7l.26-.48.22-.44c.16-.31.25-.52.28-.64.03-.11,0-.21-.05-.31-.05-.08-.15-.15-.3-.23"/>
  <polygon class="cls-3" points="11.78 14.87 11.55 12.6 12.71 11.28 12.98 14.98 14.04 15.91 13.1 16.97 12.04 16.04 8.32 16.28 9.49 14.94 11.78 14.87"/>
  <polygon class="cls-3" points="14.78 9.79 15.63 11.05 16.23 10.65 16.96 8.33 18.57 7.25 17.49 10.39 21.07 10.45 19.35 11.6 16.78 11.47 16.18 11.87 17.04 13.15 15.87 13.94 13.61 10.57 14.78 9.79"/>
  <polygon class="cls-3" points="21.11 6.24 22.2 9.08 25.18 7.94 25.54 8.89 21.24 10.53 19.8 6.74 21.11 6.24"/>
  <path class="cls-3" d="m28.09,4.34l1.12-.14c.47-.06.82-.09,1.05-.08.23.01.43.06.6.16.22.12.37.29.47.51.1.22.18.59.25,1.09.07.49.1.82.09.99-.02.45-.21.79-.59,1.01-.33.2-1.2.39-2.61.57-.58.08-1.03.12-1.37.14-.43.02-.77-.03-1.02-.15-.25-.12-.43-.32-.55-.61-.07-.16-.13-.46-.19-.89-.09-.65-.11-1.1-.08-1.34.03-.25.14-.45.32-.62.25-.23.76-.4,1.53-.5l.98-.14Zm.76.9c-.98.13-1.55.22-1.72.27-.21.06-.34.16-.39.3-.06.14-.06.37-.02.69.06.44.13.72.21.85.08.13.23.2.45.21.17,0,.48-.02.92-.08.6-.08,1.01-.14,1.23-.19.22-.05.39-.1.51-.17.11-.06.17-.17.2-.31.02-.14.01-.39-.04-.73-.05-.4-.14-.66-.24-.77-.07-.07-.19-.11-.34-.12-.16-.01-.41,0-.75.05"/>
  <path class="cls-3" d="m32.29,6.72l1.38.17v.07c-.02.11-.02.19,0,.23.02.05.08.09.18.13.11.05.49.11,1.14.19.68.08,1.11.12,1.3.1.18-.01.28-.1.3-.27.02-.16-.02-.27-.12-.33-.1-.06-.33-.11-.7-.16-1.35-.17-2.16-.28-2.45-.35-.37-.09-.62-.23-.75-.42-.13-.19-.17-.47-.12-.86.04-.33.13-.57.26-.74.13-.16.33-.26.59-.31.16-.03.43-.03.83-.01.4.02.81.05,1.23.11.92.11,1.53.21,1.81.28.28.07.49.18.64.34.11.12.18.24.21.38.03.14.03.34,0,.61l-1.37-.17c.02-.18-.03-.29-.15-.35-.12-.06-.46-.12-1.01-.19-.18-.02-.41-.05-.7-.07l-.37-.03c-.18-.02-.32,0-.4.04-.08.04-.13.11-.15.22-.02.14.02.24.12.29.1.06.31.1.64.15l.93.13.92.12c.41.05.71.11.9.18.2.07.35.18.46.31.17.21.23.52.18.94-.08.61-.35.95-.82,1.04-.4.07-1.27.02-2.61-.15-.87-.11-1.46-.22-1.75-.34-.25-.1-.42-.23-.5-.41-.09-.17-.1-.4-.05-.68,0-.04.01-.06.01-.07v-.14Z"/>
  <path class="cls-3" d="m38.17,8.81l1.42-3.79,3.51,1.31c.49.18.82.34.99.48.22.18.35.39.39.63.04.24-.02.56-.16.93-.14.37-.29.64-.46.81-.16.17-.36.26-.59.28-.27.01-.72-.1-1.36-.34l-2.06-.77-.35.95-1.32-.49Zm2.02-1.38l1.91.72.11.04c.21.08.38.1.48.06.11-.04.2-.15.27-.34.07-.19.08-.34.02-.45-.05-.11-.19-.2-.4-.28l-.13-.05-1.89-.71-.38,1Z"/>
  <path class="cls-3" d="m48.47,9.24l.92.65c.39.27.66.49.83.65.16.17.28.34.34.52.08.23.08.47,0,.7-.08.23-.26.55-.55.97-.29.41-.49.67-.6.79-.32.32-.69.44-1.12.35-.38-.08-1.15-.53-2.31-1.34-.47-.33-.84-.61-1.11-.83-.33-.28-.55-.54-.65-.8-.1-.25-.1-.53,0-.82.06-.17.21-.43.46-.79.38-.54.66-.89.85-1.05.19-.16.41-.24.65-.24.34,0,.83.22,1.47.67l.82.56Zm-.05,1.17c-.81-.57-1.29-.89-1.45-.96-.19-.09-.36-.11-.49-.05-.13.06-.3.23-.48.5-.25.36-.39.61-.42.76-.03.15.04.3.19.46.12.12.36.31.73.56.49.35.84.58,1.03.69.19.12.36.19.49.22.12.03.24,0,.35-.09.11-.09.27-.28.47-.56.23-.33.35-.58.34-.73,0-.1-.06-.21-.17-.32-.11-.11-.3-.27-.59-.47"/>
  <path class="cls-3" d="m49.04,14.73l3.1-2.6,2.77,3.3c.36.43.55.8.55,1.1,0,.3-.18.6-.54.9-.31.26-.59.39-.83.38-.15,0-.34-.09-.58-.26-.04-.03-.09-.06-.16-.11.04.07.07.11.09.15.1.17.17.29.19.37.03.08.03.17.02.26-.02.16-.13.32-.32.48l-.1.08-.46.39-.92-1.09.3-.25c.14-.12.23-.2.27-.26.04-.05.06-.12.06-.18,0-.12-.08-.27-.22-.45l-1.51-1.8-.8.67-.9-1.08Zm2.46-.23l1.37,1.63.14.18.17.19c.12.11.22.17.31.17s.21-.06.34-.18c.18-.15.26-.28.25-.39-.01-.11-.13-.29-.35-.56l-1.44-1.71-.79.67Z"/>
  <polygon class="cls-3" points="57.11 21.1 54.39 22.44 53.77 21.18 56.49 19.84 55.58 17.99 56.49 17.54 58.93 22.5 58.02 22.95 57.11 21.1"/>
  <polygon class="cls-3" points="20.73 53.74 16.96 55.33 15.7 54.46 15.97 50.43 17.05 51.18 16.83 54.21 19.63 52.98 20.73 53.74"/>
  <rect class="cls-3" x="18.97" y="54.88" width="3.46" height="1.2" transform="translate(-38.2 49.38) rotate(-63.63)"/>
  <polygon class="cls-3" points="26.44 56.67 23 57.5 25.9 58.48 25.64 59.23 21.11 57.69 21.36 56.95 24.78 56.11 22.04 55.18 22.29 54.44 26.7 55.93 26.44 56.67"/>
  <path class="cls-3" d="m29.48,56.26l.95.11c.4.05.7.1.89.15.19.06.35.14.47.25.15.14.25.32.29.52.04.2.03.52-.01.96-.05.42-.09.7-.13.84-.11.37-.34.61-.69.72-.32.1-1.08.08-2.28-.06-.49-.05-.88-.11-1.16-.16-.36-.07-.64-.18-.82-.33-.18-.15-.29-.36-.33-.62-.02-.15-.02-.41.03-.78.06-.56.13-.94.2-1.13.07-.2.2-.35.39-.45.26-.14.71-.17,1.37-.1l.84.08Zm.44.9c-.84-.09-1.33-.13-1.48-.12-.18.01-.31.07-.39.17-.08.1-.13.29-.16.57-.04.37-.04.62,0,.74.04.12.15.21.33.26.14.04.4.08.77.12.51.06.86.09,1.06.1.19,0,.34,0,.45-.04.1-.03.18-.1.23-.22.05-.11.09-.32.12-.62.04-.35.02-.58-.05-.69-.04-.07-.13-.13-.26-.17-.13-.04-.34-.08-.63-.11"/>
  <polygon class="cls-3" points="37.8 55.96 36.02 59.65 34.5 59.82 32.04 56.63 33.34 56.47 35.18 58.89 36.48 56.11 37.8 55.96"/>
  <rect class="cls-3" x="38.31" y="55.55" width="1.2" height="3.46" transform="translate(-14.43 13.12) rotate(-16.19)"/>
  <path class="cls-3" d="m43.82,55.89l1.08-.47.1.2c.2.46.19.81-.02,1.05-.19.21-.7.5-1.55.87-.28.12-.61.26-1,.42-.48.19-.84.3-1.07.31-.26,0-.49-.08-.67-.28-.18-.19-.39-.56-.63-1.1-.16-.38-.25-.68-.25-.9,0-.22.08-.42.24-.61.11-.13.29-.27.53-.4.24-.14.64-.32,1.19-.56.65-.28,1.11-.46,1.38-.54s.49-.09.66-.05c.15.04.27.12.37.24.1.12.21.29.31.54l-1.06.46-.02-.04c-.06-.15-.16-.22-.27-.21-.12,0-.38.1-.77.27-.5.22-.81.36-.93.42-.12.06-.22.13-.29.2-.08.08-.12.18-.1.3.01.12.09.33.22.63.14.34.29.53.42.58.14.05.38,0,.74-.16l.43-.18.38-.17c.27-.12.45-.21.53-.27.08-.06.12-.14.13-.23,0-.08-.02-.18-.07-.31"/>
  <polygon class="cls-3" points="46.27 56.12 44.27 53.29 47.86 50.76 48.31 51.4 45.7 53.24 46.04 53.72 48.48 52 48.87 52.56 46.44 54.28 46.79 54.78 49.4 52.94 49.85 53.58 46.27 56.12"/>
  <path class="cls-2" d="m32.19,11.86c-7.55,0-14.14,4.05-17.68,10.07,3.54-5.63,9.88-9.38,17.1-9.38,11.1,0,20.1,8.86,20.1,19.79s-9,19.79-20.1,19.79c-2.61,0-5.1-.5-7.39-1.39,2.45,1.03,5.14,1.59,7.97,1.59,11.29,0,20.45-9.06,20.45-20.23s-9.16-20.24-20.45-20.24"/>
  <path class="cls-2" d="m25.85,32.79s-2.72-1.63-4.37-1.78c-1.65-.14-4.69-.21-5.15-.21-.45,0,1.14,1.79,2.74,2.29,1.6.5,3.64,1.04,4.49,1.03.85-.01,1.94-.94,2.21-1.05.02,0-.23-.06-.23-.06,0,0-1.44.88-2.21.76-1.62-.26-3.69-.86-4.29-1.15-1.32-.63-1.96-1.35-1.96-1.35,0,0,3.8-.21,4.69.03.89.23,1.96.61,2.56.89.59.28,1.51.61,1.51.61"/>
  <path class="cls-1" d="m39.6,35.13c.3-.29.59-.5,1.01-.71.07-.04.38-.15.51-.13.05,0,.09.08.13.1.07.01.14.03.21.05.11.05.22.19.33.25.04,0,.07,0,.1.01.05.04.06.1.11.14-.02.14-.16.21-.24.3-.07.08-.1.19-.16.27-.06.07-.14.14-.19.21-.05.07-.05.15-.11.2,0,.02,0,.04,0,.06-.13.05-.13.28-.19.4-.12.24-.26.55-.34.81-.09.28-.06.61-.2.84-.11.1-.29.12-.39.23-.55-.45-.69-1.34-.77-1.99-.02-.12-.15-.76-.15-.76.05-.14.22-.19.33-.29"/>
  <path class="cls-2" d="m21.48,24.64c.78-.05,1.56-.1,2.34-.16.38-.02.74-.04,1.05-.13.13-.04.26-.01.35-.08.01,0,.03-.1.03-.14-.05,0-.1-.02-.18,0-.18.14-.97.12-1.29.14-.81.05-1.61.11-2.42.16-.26.08-.57.14-.87.16,0,0,0,.01,0,.02,0,0-.01,0-.02,0,0,.07.01.12.03.16.34-.02.66-.04.97-.12"/>
  <path class="cls-2" d="m19.46,26.05c.17-.05.35-.03.49-.07.34-.1.74-.04,1.07-.13.23-.01.45-.03.68-.05.41-.03.92-.12,1.29-.07.19-.01.37-.02.56-.04.36.05,1.01-.01,1.35-.11.24-.02.7-.02.73-.15.02-.12-1.1.06-1.6-.01-.13,0-.27.02-.4.03-.15-.02-.37.04-.54.02-.4-.06-.94.04-1.37.07-.53.04-1.15.04-1.6.17-.1,0-.2.01-.3.02-.46.13-1.12.11-1.47.34,0,.07.01.12.03.16.38-.03.76-.08,1.09-.17"/>
  <path class="cls-2" d="m19,37.82c.15-.27.21-.56.36-.82.12-.22.32-.42.46-.63.06-.09.07-.18.12-.27.25-.4.58-.76.95-1.06.06-.05.1-.14.17-.19.23-.16.52-.24.75-.39-.01-.08-.02-.09-.05-.13-.11-.02-.23-.03-.38-.02-.07.14-.35.18-.48.27-.07.05-.12.16-.18.21-.07.06-.14.09-.21.15-.08.1-.16.19-.24.29-.11.1-.26.22-.34.34-.34.54-.66,1.07-.97,1.64-.17.31-.2.8-.41,1.06,0,.06.01.08.03.12.22-.03.19-.27.27-.42.03-.06.11-.11.15-.17"/>
  <path class="cls-2" d="m19.23,34.92c-.02-.07-.03-.06-.05-.12-.35-.04-.71.46-.87.68-.08.11-.22.2-.3.32-.28.43-.64,1.07-.81,1.57-.09.25-.07.49-.13.77-.03.16-.12.3-.11.51.21-.02.12-.16.18-.31.04-.12.14-.23.2-.33.04-.16.08-.32.13-.49.45-1.05.95-1.86,1.76-2.59"/>
  <path class="cls-2" d="m46.47,34.07s-.09,0-.14,0c-.02.02-.09.04-.12.05.02.2.13.17.22.28.08.1.14.3.19.43.26.71.25,1.82.14,2.44-.04.23.04.47-.06.64,0,.07.01.12.03.16.06,0,.08-.02.12-.03.06-.36.16-.75.23-1.05.14-.64-.01-1.96-.24-2.5-.08-.18-.26-.29-.37-.43"/>
  <path class="cls-2" d="m48.16,35.15c-.04-.09,0-.22-.06-.3,0-.12-.03-.18-.06-.26-.05,0-.09-.02-.14,0-.15.09-.03.68.02.86.13.44.1,1.25.03,1.61,0,.11,0,.23,0,.34-.06.27-.13.56-.1.88.2-.03.23-.55.29-.74.03-.07.06-.2.08-.28,0-.06,0-.12-.01-.18.11-.46.15-1.41-.05-1.95"/>
  <path class="cls-2" d="m38.05,33.45s-.04.02-.05.03c.01,0,.03-.02.05-.03"/>
  <polyline class="cls-2" points="38.05 33.45 38.05 33.45 38.05 33.45 38.05 33.45"/>
  <path class="cls-2" d="m45.1,34.73c.57.79-.13-.18,0,0"/>
  <path class="cls-2" d="m42.23,34.74c-1.04-.91-1.92-.75-3.01.28-.41-.49.93-2.95,1.56-2.99-.35,1.31,2.17.04,2.58-.44.76-.88.04-2.21-.82-2.72-.63-.38-2.5.46-2.31.6.32-.04.61-.13.9-.3.1,1.44-6.87.71-7.03-1.61,2.98.11,2.68-1.74,3.08-1.69.27.24,1.03.07,1.12-.18.09-.25-.35-.94-.4-1.69.77.17,1.02.39,1.77-.13.42-.4,1.27-3.8-3.38-4.57-3.92-.72-6.42,1.89-5.56,3.52.21.82.48.2,0,1.2-.31.97.1,1.01,1.02.95-.88,1.86.92,1.84.99,2.2-1.14-.62-3.22-.21-4.38.47-2.11.89-2.46,3.9-1.84,5.09-.15-.05-1.53-.97-1.36-.15.19.95.59,1.51,1.71,1.42-.56.79-.8,1-1.49,1.59-.42-1.43-2.65-.59-3.42-.07-1.21.81-1.77,1.8-2.35,3.07-.68,1.5-1.22,4.44.33,5.54,2.18,1.56,4.66.81,6.78-2.03.66-.89,1.17-2.38,1.37-3.48.23-1.25.09-3.58-1.43-3.52.2-.32.36-.65.49-1.01.57.57.83.61,1.57.56.31.14.6.81.9,1.02.65.45-.13.51-.6.86-.14.85,0,1.71-.13,2.58-.13.78-.18,1.8.4,2.43.18.19.93.86,1.16.29.22-.56-.11-3.15.58-3.19-.17,1.01-.54,1.83,1.29,1.71.18,2.1,6.61-1,1.04-.63.22-.56.75-.74.7-1.44.09-.62-.24-.67.29-1.04.87-.61,1.75-1.21,2.57-1.88.28-.23,1.01-1.23,1.39-1.25-.17.55-.04,1.18.02,1.73-.43.47-.77,1.03-1.04,1.6-.56,1.19-.88,2.5-.79,3.82.11,1.7.72,3.48,2.77,3.35,4.44-.29,8.78-5.75,5.83-9.88-.73-1.02-2.02-.96-2.87.01m-16-1.57c-.16-.04-.36-.13-.45-.25.21.05.35.04.49.17-.01.05-.02.05-.04.08m-.56,2.67c.06-.05.14-.06.19-.11h.02c-.19.34-.43.68-.67.98-.05.06-.61.88-.67,1.1-.14-.01-.39-.1-.52.01-.01,0-.03,0-.04,0,.07-.13.19-.34.27-.45.27-.41.48-.69.83-1.03.08-.08.48-.41.58-.5m-1.54,2.55s0,.04-.02.06c-.01.04,0,.02-.02.04,0-.03-.02-.07-.03-.1.02,0,.04,0,.06,0m2.99-2.49c1.56.67.21,6.22-2.91,7.85-2.98,1.56-5.44-.39-4.77-3.45.3-1.35.89-3.02,1.99-3.94.97-.81,1.88-1.16,3.13-1.11,1.28.04-.12,1.2-.33,1.51-.35.49-1.19,1.73-1.24,2.3-.31,1.08.65,1.22,1.27.56.62-.66,1.31-4.37,2.87-3.7m-3.33,3.35c0,.11-.07.29-.09.31-.27.07-.3-.14-.32-.14,0-.06.02-.17.03-.29q.15-.25.3-.37s0-.03,0-.04c0,0,.01,0,.02,0,0,.14-.01.44.05.53m15.8-4.1c.3-.27.46-.46.87-.64.07-.03.56-.12.67-.1.62.1.74.48.79.51-.02.13-.4.45-.59.72-.2.28-.56,1.12-.65,1.36-.09.25-.07.56-.21.77-.11.09-.29.1-.39.2-.52-.42-.63-1.25-.7-1.85-.01-.11-.12-.63-.11-.64.05-.13.21-.24.31-.33m1.18,3.67s-.07,0-.1,0c0-.07,0-.13,0-.2.12-.07.36-.22.42-.35.02,0,.04,0,.06,0,.02.39-.19.51-.33.76,0,0-.01,0-.02,0,0-.05,0-.11,0-.16-.03-.02-.02-.01-.04-.06m-.64.64s-.18.04-.22.02c-.17,0-.2-.07-.29-.14-.01-.33.19-.68.38-.84.06-.05.12-.08.17-.15.01,0,.03,0,.04,0,0,0,0,.01,0,.02,0,0-.01,0-.02,0-.05.13-.43.99-.07,1.1m-9.29-8.42c.14-1.45,3.76-.38,4.44-.39,1.87.35,3.99.31,5.87.17.05.86-5.04,1.11-5.87,1.37-.59.04-5.08.45-4.44-1.14-.05.12,0-.04,0,0m-.56,4.72c-.2-.08-.1-.27-.17-.45-.05-.12-.4-.65-.51-.68.05-.09.31-.08.39-.15.59-.04,1.18-.08,1.77-.12.17-.01.55-.09.68-.02.06.03.04.08.11.11-.04.25-.29.25-.45.39-.06.05-1.27.66-1.35.67-.08.04-.31.33-.46.25m.47,2.58h-.02c.09-.2.28-.32.41-.48.04-.05.07-.13.11-.17.05-.04.08-.02.12-.07.01,0,.03,0,.04,0,0,.01,0,.03,0,.04-.2.22-.48.45-.65.68m2.98.2c-.08.29-.03.09,0,0-.17.59-.82,1.23-1.31,1.32-1.14.6-1.31-.26-1.14-1.26.29-.02.24.47.52.34-.05-.56-.65-.43-.21-1.05.36-.5.48-.42.94-.81,1.14-.07.49.23.7.71.17,0,.31-.05.43-.17.09.3.11.6.06.91.01-.04.02-.06,0,0m4.33-5.12s0,0,0,0c0,0,0,0-.01,0-.28.14-1.93,1.35-2.18,1.64-.44.26-1.17.96-1.42,1.19-.66.61-.58.55-1.44.51-.81-.16-1.36.67-2.03.71-.02-.06,6.2-4.48,3.21-4.28,1.02-.77,3.46-.63,4.72-.71-.19.56-.36.68-.85.93m7.5,5.13s0-.02,0-.03c0,.01,0,.02,0,.03m.05-.32h0s0,0,0,0c-.59,3.56-5.88,7.12-8.05,5.22-.77-1.05-.69-1.94-.71-2.23-.05-.78.16-3.72,1.6-4.99.1.64.91,1.58,1.4,1.86-.66,1.12-.72,2.26,1.07,1.54,1.03-.41,1.35-2.08,0-1.99.25-1.13,1.62-3.75,3.19-3.26,1.29.4,1.68,2.69,1.49,3.85.02-.11.03-.17,0,0m-4.09.21s.02.03.02.08c-.02-.02-.02-.03-.02-.08"/>
</svg>