<?xml version="1.0" encoding="UTF-8"?>
<svg id="Vrstva_1" data-name="Vrstva 1" xmlns="http://www.w3.org/2000/svg" viewBox="0 0 113.37 60.08">
  <defs>
    <style>
      .cls-1 {
        fill: #532900;
      }

      .cls-1, .cls-2 {
        fill-rule: evenodd;
        stroke-width: 0px;
      }

      .cls-2 {
        fill: #fff;
      }
    </style>
  </defs>
  <path class="cls-2" d="m54.84.8h3.7c10.19.27,19.15,1.69,27.03,4.34,7.8,2.62,14.75,6.09,19.99,11.33,1.29,1.29,2.5,2.75,3.49,4.36,1,1.62,1.88,3.38,2.38,5.45.52,2.11.58,4.84.09,7.04-.48,2.15-1.28,3.99-2.25,5.57-1.97,3.21-4.57,5.82-7.61,8.06-6.05,4.47-13.36,7.5-21.73,9.59-8.23,2.06-18.09,3.14-28.49,2.6-9.96-.52-18.5-2.3-26.22-5.1-3.81-1.38-7.38-3.08-10.57-5.08-3.19-2.01-6.12-4.33-8.5-7.17-2.39-2.85-4.29-6.25-4.65-11v-1.49c.33-4.69,2.25-8.09,4.54-10.84,3.85-4.64,9.05-8.04,14.89-10.66C30.37,3.56,41.63,1.11,54.84.8"/>
  <path class="cls-1" d="m69.97,8.95c.29-1.14.04-2.92,1.33-3.02,1.21-.09,1.84.76,1.77,1.68-.07.89-.7,1.53-1.68,1.53-.51,0-.88-.14-1.42-.19"/>
  <path class="cls-1" d="m49.43,6.51s.02,0,.02.02c.42.75.73,1.52,1.12,2.3.13.25.31.5.32.82-.34.14-.79.13-1.21.17-.42.04-.85.12-1.23.06-.08-.31.06-.6.15-.88.09-.27.17-.55.26-.82.19-.55.41-1.11.58-1.66"/>
  <path class="cls-1" d="m83.12,10.45s.02,0,.02.02c.02,0,.02,0,.02.02.04.55.05,1.14.07,1.72.02.57.1,1.18-.02,1.7-.44-.05-.83-.22-1.21-.35-.38-.13-.78-.22-1.12-.43.03-.32.3-.52.49-.73.19-.21.37-.43.56-.63.4-.43.82-.85,1.2-1.31"/>
  <path class="cls-1" d="m50.48,18.24c.68-.02,1.26.36,1.77.69.44.29.86.58,1.21.89.74.68,1.43,1.42,1.9,2.3.73,1.36,1.42,2.82,2.11,4.21.17.35.27.76.47,1.1.06.1.18.2.23.3.04.11.02.25.05.34.09.22.39.34.52.54.09.14.13.33.2.48.25.5.71.91,1.06,1.32.93,1.08,1.81,2.11,2.54,3.42.14.25.32.5.41.76.4,1.1.22,2.49-.35,3.28-.72,1.01-2.23,1.51-3.73,1.76-.86.14-1.73.13-2.61.09-.81-.03-1.61-.25-2.35-.39-.79-.15-1.55-.29-2.26-.48-.72-.2-1.4-.44-2.07-.67-.67-.23-1.29-.55-1.94-.8-.66-.25-1.34-.46-2.03-.69,0,0-.03-.01-.04-.02-.3-.14-.59-.4-.92-.56-.34-.17-.69-.3-.97-.5-.57-.4-1.13-.84-1.47-1.44.51.17,1.18.31,1.54-.09.08-.09.1-.24.19-.26.17-.04.48.36.63.49.49.41,1.5,1.02,2.46.65.24-.09.4-.29.52-.56.06-.14.16-.45.28-.45.15,0,.2.39.22.5.45,2.16,2.01,3.26,3.86,4.01.33.13.68.28,1.04.39.36.11.77.15,1.17.24.39.09.79.18,1.21.22,1.3.13,2.77.1,3.97-.13,1.19-.23,2.07-.76,2.5-1.79.13-.31.3-.68.37-1.04.18-.96-.25-1.74-.64-2.31-.42-.63-.94-1.12-1.4-1.62-.47-.51-.97-1.04-1.44-1.58-.48-.56-.88-1.16-1.23-1.79-.73-1.31-1.38-2.61-2.01-4.03-.3-.67-.59-1.39-1.03-2-.28-.4-.66-.84-1.03-1.25-.12-.14-.34-.28-.32-.43.01-.12.13-.12.23-.18.08-.05.15-.11.19-.22.13-.38-.2-.74-.41-.97-.7-.77-1.58-1.36-2.65-1.72"/>
  <path class="cls-1" d="m52.51,20.44c-.19.12-.42.06-.62.02-.19-.05-.38-.13-.58-.17-.2-.04-.44-.05-.67-.08-.37-.04-.75-.11-1.12-.02-.31.08-.54.3-.82.35-.52.09-1.45-.21-1.44-.65,0-.28.48-.59.74-.73,1.35-.73,3.06-.09,3.96.64.22.18.52.35.54.63"/>
  <path class="cls-1" d="m43.71,22.68c-.93,1.54-2.76,2.46-3.99,3.84-.42.47-.77,1.05-.82,1.77-.07.94.28,1.53.43,2.29-.27-.57-.71-1.22-.73-2.07-.02-.85.36-1.67.75-2.22.4-.57,1.03-1.07,1.6-1.64,1.38-1.38,2.83-2.48,4.23-3.88.27-.27.6-.62.93-.71.05-.01.14,0,.17.06.13.24-.45.55-.6.67-.72.58-1.36,1.3-1.98,1.88"/>
  <path class="cls-1" d="m46.06,21.32c.21-.01.71.12.8.41.12.35-.1.78-.21,1.16-.21.76-.29,1.44-.33,2.44-.02.41.03,1.01-.13,1.25-.08.12-.28.16-.45.22-1.75.63-2.95,1.95-2.74,4.48.04.45.06.74.13,1.19.07.41.19.91-.13,1.01-.24.08-.53-.16-.69-.28-.46-.37-.59-.63-.93-1.08-.78-1.02-1.7-1.8-1.55-3.77.07-.94.56-1.6,1.08-2.11.82-.8,1.75-1.43,2.52-2.27.25-.28.46-.6.69-.9.21-.27.49-.57.73-.88.33-.42.63-.84,1.21-.88"/>
  <path class="cls-1" d="m48.52,21.45c-.1.26-.3.42-.43.63-.13.22-.24.44-.32.73-.16.56-.14,1.2-.28,1.83-.26,1.25.03,2.64-.02,3.93-.59-.09-.77-.74-1.47-.74-.41,0-.84.32-1.03.58-.16.23-.28.57-.39.9-.11.33-.27.62-.39.9-.07.17-.08.42-.28.48-.21-.4-.17-.9-.06-1.31.17-.63.51-.98.97-1.32.15-.11.3-.27.43-.32.25-.1.49-.09.69-.19.53-.24,1.1-.72,1.15-1.47.02-.27-.04-.53-.04-.78,0-.92.2-1.78.47-2.5.09-.24.21-.5.24-.74.04-.31-.04-.61.23-.69.18-.06.42-.02.52.09"/>
  <path class="cls-1" d="m77.8,24.31c.62-.47,1.06-1.07,1.51-1.74.14-.21.28-.47.45-.61.33-.28,1.04-.47,1.64-.35.53.1,1.1.49,1.27.86.25.54.14,1.39-.15,1.81-.12.18-.39.41-.67.45-.27.04-.63-.09-.88-.13-.1-.02-.3,0-.37-.05-.14-.09-.08-.34-.24-.43-.13-.07-.31-.05-.48-.04-.67.05-1.35.42-2.07.24"/>
  <path class="cls-1" d="m50.59,21.6c.21-.02.48.04.69.07.22.04.45.06.63.11.3.09.65.33.91.54.79.65,1.27,1.64,1.66,2.65.51,1.32.89,2.92,1.42,4.35.58,1.55,1.32,2.66,2.26,3.51.9.81,2.4,1.65,2.81,2.95.13.42.07.91-.08,1.23-.41.93-1.2,1.41-2.31,1.57-1.16.16-2.46.02-3.56-.17-.58-.1-1.09-.19-1.6-.33-.5-.14-.98-.3-1.47-.47-.96-.33-1.75-.87-2.31-1.57-.27-.34-.57-.74-.69-1.25-.12-.52-.13-1.14-.13-1.81,0-1.92-.33-3.51-.5-5.32-.05-.6-.03-1.22-.05-1.88-.06-1.3.01-2.51.56-3.28.38-.53,1.01-.82,1.77-.89"/>
  <path class="cls-1" d="m80.32,24.73c.15.11.17.24.28.32.26.17.61.18.9.3.45.2.87.6,1.16,1.01.25.37.46.72.41,1.42-.06.81-.47,1.09-.95,1.49-.15.13-.31.33-.54.37-.51.11-1.29-.06-1.64-.22-.19-.09-.36-.24-.56-.39-.14-.11-.43-.29-.41-.52.03-.32.81-.26,1.21-.24.32.01.68.07.78-.09.07-.11.02-.34.06-.52.04-.19.16-.19.15-.37-.02-.27-.41-.31-.69-.41-.37-.13-1.01-.4-1.03-.82-.01-.28.18-.38.38-.67.18-.28.17-.53.5-.64"/>
  <path class="cls-1" d="m89.7,39.77s.02-.03.02-.02c.93.68,1.71,1.38,2.61,2.16.12.1.32.23.32.35,0,.19-.38.32-.54.41-.48.26-.73.4-1.21.67-.14.07-.47.33-.63.29-.19-.04-.23-.55-.26-.84-.09-.7-.13-1.33-.19-2.01-.03-.36-.04-.74-.11-1.03"/>
  <path class="cls-1" d="m44.62,44c1.11-.1,1.91.47,2.35,1.14.82,1.23.83,3.4.35,5.13-.38,1.38-1.3,3.08-3.25,2.87-1.05-.11-1.65-.85-2.01-1.64-.81-1.73-.43-4.53.41-5.97.4-.69,1.08-1.43,2.14-1.53"/>
  <path class="cls-1" d="m67.88,45.96s.02,0,.02.02c.47.8.91,1.67,1.38,2.56.09.17.47.67.38.89-.07.16-.46.15-.64.17-.71.08-1.41.21-2.09.22-.11-.35.03-.7.11-1.01.25-.95.59-1.88.84-2.86"/>
  <path class="cls-1" d="m54.79,0h3.8c10.47.28,19.67,1.74,27.78,4.46,8.02,2.69,15.15,6.25,20.54,11.64,1.33,1.32,2.57,2.82,3.58,4.48,1.03,1.67,1.93,3.48,2.45,5.6.53,2.17.6,4.97.09,7.24-.49,2.21-1.31,4.1-2.31,5.72-2.02,3.3-4.7,5.98-7.82,8.28-6.21,4.6-13.73,7.7-22.33,9.85-8.46,2.11-18.58,3.22-29.27,2.67-10.24-.54-19-2.37-26.94-5.24-3.91-1.42-7.58-3.17-10.86-5.22-3.28-2.06-6.29-4.45-8.73-7.37-2.45-2.93-4.4-6.43-4.78-11.31v-1.53c.35-4.82,2.31-8.31,4.67-11.14,3.96-4.76,9.3-8.26,15.29-10.95C29.65,2.83,41.22.32,54.79,0m.41,3.73c-.04.41.3.56.54.67.27.12.59.27.71.5.13.25.09.57.07.93-.04.81-.07,1.66-.11,2.41-.05,1.03-.22,2.24,0,3.19.39,1.75,2.05,2.61,4.12,2.63,2.1.02,3.55-.92,4.09-2.65.27-.86.29-2.03.34-3.04.02-.47.06-1.02.09-1.59.03-.68.08-1.39.52-1.66.38-.23,1.13-.12,1.1-.77-.03-.74-1.54-.51-2.26-.56-.38-.02-.85-.13-1.25-.15-.47-.02-.82.19-.76.65.04.33.38.4.65.53.27.12.53.25.64.54.11.32.04.76.02,1.18-.06,1.2-.07,2.38-.17,3.5-.13,1.58-.8,2.56-2.33,2.56-.77,0-1.33-.21-1.77-.54-.93-.69-.69-2.22-.62-3.83.03-.61.04-1.17.07-1.83.03-.54.05-1.26.37-1.53.38-.31,1.3-.2,1.25-.9-.05-.67-1.44-.47-2.16-.5-.43-.02-.86-.03-1.25-.08-.43-.05-.96-.12-1.23-.11-.39.02-.64.14-.67.43m-5.95.13c-.23.03-.47.04-.73.06-.44.03-.99.23-.8.73.06.15.29.19.41.28.12.08.29.23.32.39.04.26-.12.67-.24.99-.36.95-.62,1.89-.9,2.84-.26.89-.61,1.92-.82,2.89-.07.34-.13.73-.28.97-.25.4-1.09.56-1.05,1.12.01.19.2.36.39.41.37.1.95-.08,1.49-.11.27-.02.53-.04.78-.06.25-.02.53-.02.73-.11.19-.09.45-.35.34-.69-.13-.37-1.02-.23-1.18-.6-.11-.25,0-.6.05-.9.06-.28.14-.62.32-.73.16-.09.54-.09.82-.11.64-.05,1.1-.1,1.72-.15.25-.02.66-.11.88-.04.27.09.34.44.43.65.12.29.28.56.22.86-.09.47-.89.4-.86,1.01.02.42.49.48.99.43.53-.06.92-.12,1.34-.15.85-.07,2.26.2,2.44-.51.18-.69-.6-.73-.93-.99-.27-.21-.47-.67-.65-1.01-1.2-2.18-2.23-4.42-3.41-6.55-.16-.29-.38-.85-.69-.99-.15-.07-.37-.04-.43-.04-.23.01-.44.06-.71.09m24.98,6.03c.47-.3.83-.61,1.06-1.12.26-.58.31-1.26.15-1.85-.16-.57-.45-.95-.9-1.31-.85-.67-2.06-.81-3.45-.93-1.01-.09-1.94-.21-2.84-.45-.55-.15-1.45-.37-1.45.33s1.03.63,1.16,1.23c.05.24-.04.61-.09.91-.24,1.48-.46,2.94-.69,4.42-.09.58-.15,1.3-.39,1.66-.29.43-1.44.34-1.47.91-.05.76,1.27.69,1.92.75.85.08,1.66.32,2.22.45.59.13,1.23,0,1.1-.6-.1-.47-.84-.56-1.04-.91-.26-.46-.06-1.26.04-1.83.08-.47.15-.92.24-1.34.81,0,1.05.49,1.3,1.08.17.38.29.82.43,1.18.29.74.56,1.7.97,2.24.44.57,1.47,1.09,2.48,1.06.42-.01.72-.18.69-.56-.03-.36-.65-.62-.82-.84-.17-.23-.28-.59-.41-.92-.12-.31-.27-.62-.41-.91-.43-.91-.68-1.86-1.51-2.2.79,0,1.26-.18,1.72-.47m-32.38-5.11c-1.22.29-2.72.55-4.1.73-.71.09-1.55.13-1.99.43-.48.32-.65.95-.78,1.68-.09.46-.28,1.38.26,1.45.39.06.65-.32.82-.54.45-.58.71-1.05,1.34-1.4.27-.15.69-.38,1.08-.26.43.13.48.98.58,1.51.25,1.29.43,2.22.67,3.51.14.76.51,1.83.07,2.42-.21.29-.92.49-.93.89-.02.54.69.53,1.18.41.95-.22,1.76-.5,2.91-.56.53-.03,1.12-.15,1.16-.6.05-.66-.81-.49-1.23-.71-.39-.2-.44-.69-.54-1.18-.34-1.71-.65-3.38-.97-5.07-.05-.29-.14-.67-.08-.91.16-.56,1.31-.8,1.79-.26.25.28.24,1.06.69,1.12.55.08.79-.65.93-1.12.1-.36.43-1.31.17-1.7-.17-.25-.61-.27-.97-.24-.74.06-1.41.24-2.05.39m-13.93,3.9c-.74.65-1.45,1.9-.75,3.13.85,1.49,3.4,1.76,5.32,2.26.59.15,1.41.44,1.45,1.08.02.32-.15.56-.3.73-.3.32-.82.59-1.51.65-.6.06-1.46,0-1.83-.28-.39-.3-.22-1.02-.82-1.14-.75-.14-.87,1-.93,1.66-.02.25-.07.6-.02.79.11.38.66.56,1.12.64,1.61.24,3.24-.26,4.14-.82.64-.4,1.26-.97,1.62-1.75.36-.79.36-1.92-.17-2.65-.65-.9-1.99-1.3-3.25-1.57-.65-.14-1.27-.26-1.98-.43-.52-.12-1.45-.4-1.44-.99.01-.54.74-.81,1.24-.88.57-.09,1.54,0,1.79.3.19.24.17.68.34.84.07.07.2.15.39.15.5,0,.65-.53.76-.91.12-.4.34-1,.21-1.4-.2-.6-1.29-.72-2.18-.65-1.32.11-2.41.55-3.21,1.25m54.43-.61c0,.29.4.43.37.84-.02.26-.37.61-.59.84-.73.75-1.42,1.54-2.05,2.29-.67.8-1.33,1.54-1.92,2.41-.22.32-.48.62-.73.73-.42.18-1.24.07-1.27.61-.03.6.98.7,1.49.88.29.1.57.21.86.32.21.08.65.26.97.15.19-.07.35-.25.33-.49-.03-.46-.78-.48-.82-.97-.02-.29.22-.57.37-.78.15-.21.34-.53.62-.56.27-.03.54.13.88.24.64.21,1.04.35,1.68.58.26.09.67.19.77.37.1.19.07.65.06.97-.02.34-.1.63-.3.73-.24.12-.5.06-.71.13-.25.09-.37.27-.36.5.02.39.51.52.88.63.78.25,1.57.46,2.22.8.25.13.79.4,1.18.26.19-.07.36-.29.35-.54-.01-.39-.5-.64-.63-.97-.24-.58-.2-1.56-.26-2.35-.06-.73-.09-1.71-.13-2.5-.05-1.16-.15-2.51-.24-3.68-.03-.43-.06-.88-.21-1.12-.17-.28-.75-.36-1.14-.47-.47-.13-.84-.39-1.23-.34-.25.03-.43.19-.43.47m-61.11,3.15c-.62.33-1.19.63-1.81.97-.58.32-1.15.64-1.86.91-.32.12-.69.24-1.01.39-.28.14-.71.35-.71.69,0,.18.13.38.24.45.33.2.87-.04,1.23.07.53.17.8.91,1.06,1.44.73,1.46,1.34,2.73,2.07,4.21.14.29.32.63.28.99-.04.28-.22.49-.39.69-.15.17-.4.39-.39.58,0,.22.22.48.45.5.29.03.64-.2.9-.35.8-.49,1.62-.87,2.5-1.25,1.26-.54,2.56-.91,3.38-1.64.52-.47.76-1.18.67-2.2-.05-.54-.18-1.22-.52-1.27-.42-.06-.64.48-.77.77-.17.38-.34.7-.52,1.01-.35.58-.85,1.3-1.4,1.68-.21.14-.48.3-.84.32-.81.04-1.07-.72-1.35-1.31-.13-.28-.21-.46-.37-.76-.11-.19-.4-.47-.34-.8.09-.53,1.32-.33,1.71-.22.34.09,1.15.53,1.31-.06.08-.32-.16-.66-.26-.91-.15-.36-.23-.52-.37-.84-.18-.39-.55-1.35-1.08-1.34-.66,0-.37.65-.52,1.17-.07.26-.34.47-.56.62-.16.11-.49.42-.82.32-.26-.08-.48-.75-.58-.95-.18-.36-.4-.78-.47-1.06-.05-.22-.07-.44-.02-.6.13-.42.75-.69,1.21-.88.46-.19,1.28-.48,1.66-.13.2.18.15.58.37.77.11.09.24.17.45.15.51-.05.63-.85.61-1.38-.03-.82-.24-1.62-1.14-1.53-.75.08-1.43.49-2.02.8m68.91,1.7c-.69.36-1.2.81-1.66,1.38-.8.99-1.53,2.86-.95,4.68.48,1.51,1.58,2.6,2.89,3.19.67.3,1.57.52,2.5.54.76.01,2.21-.15,2.17-.9-.03-.41-.43-.41-.84-.41-.75,0-1.33-.05-1.83-.23-1.33-.45-2.33-1.37-2.61-2.85-.16-.82-.04-1.63.26-2.33.51-1.19,1.47-2.33,3.12-2.31.88,0,1.5.32,2.03.71.52.38,1.51,1.36.74,2.11-.1.1-.27.2-.28.39-.02.89,1.22.45,1.68.23.45-.23.83-.49.93-.84.09-.31-.02-.71-.13-.95-.41-.92-1.24-1.62-2.16-2.16-.95-.56-2.18-.95-3.43-.89-.92.04-1.75.29-2.43.65m9.89,3.79c-.02.45.42.67.47,1.08.09.69-.54,1.27-.9,1.72-.82,1.05-1.49,1.94-2.27,2.95-.37.47-.73,1.17-1.29,1.34-.08.02-.18.05-.24.05-.42.02-.82-.29-1.16-.21-.2.05-.37.28-.35.56.03.42.67.71,1.01.93.4.26.78.52,1.14.8,1.13.9,1.97,1.86,3.15,2.67.38.26.88.52,1.44.5.79-.02,1.53-.52,1.98-.93.16-.15.42-.35.41-.58-.04-.62-1.41-.38-2.09-.43-1.25-.09-2.78-.38-2.98-1.4-.08-.38.13-.74.3-.99.28-.4.68-.88.97-1.31.12-.17.32-.56.6-.56.51,0,.81,1.07.88,1.47.09.51.02,1.14.56,1.14.3,0,.51-.35.67-.54.39-.46.76-.83,1.1-1.34.11-.16.41-.55.39-.84-.02-.22-.23-.44-.41-.47-.4-.06-.55.25-.91.3-.36.05-.64-.13-.89-.26-.23-.12-.57-.29-.58-.58,0-.23.26-.45.39-.62.16-.2.28-.38.43-.58.24-.3.61-.89,1.14-.89.5,0,1.05.54,1.31.77.26.23.85.78.78,1.3-.04.32-.49.43-.54.75-.06.32.09.54.3.63.45.21,1.08-.13,1.4-.32.42-.26.86-.51.93-.95.06-.39-.23-.81-.46-1.06-.27-.29-.57-.51-.84-.71-.67-.5-1.21-.88-1.81-1.29-.7-.47-1.2-.81-1.77-1.31-.25-.21-.49-.51-.78-.76-.3-.26-.68-.59-1.06-.5-.21.05-.36.22-.37.45m-48.26.19c-3.68,0-5.35,2.01-7.2,3.86-.9.9-2.02,1.6-3.02,2.5-.48.43-.96.88-1.44,1.32-.49.45-1,.88-1.4,1.38-.42.52-.79,1.14-.82,1.94-.05,1.23.32,2.53.8,3.34.86,1.47,1.89,2.76,3.06,3.86.48.45,1.02.83,1.55,1.21.52.38,1.18.66,1.81.95.64.3,1.3.56,1.94.84,1.29.58,2.6,1.15,4.05,1.47,1.47.34,2.99.7,4.7.84,1.81.15,3.56-.08,4.93-.48,1.4-.41,2.48-1.19,3.56-1.98,1.06-.77,2.07-1.62,3.09-2.42,2.09-1.64,4.14-3.19,6.27-4.81.77-.6,1.53-1.17,2.48-1.66.27-.14.78-.4,1.03-.37.22.02.39.28.5.43.15.19.29.37.41.5.6.65,1.45,1.03,2.54,1.12.62.06.98-.11,1.42-.37.37-.23.76-.49,1.01-.8.23-.29.48-.86.6-1.23.22-.69.11-1.74-.2-2.28-.11-.19-.26-.37-.28-.63-.01-.24.14-.47.24-.65.31-.54.61-1.24.35-2.03-.38-1.18-1.55-2.07-3.21-1.83-.45.07-.78.32-1.1.62-.59.53-1.07,1.29-1.77,1.64-.24.12-.64.18-1.01.24-1.17.19-2.4.06-3.06-.51-.31-.26-.51-.65-.78-.95-.57-.62-1.25-1.14-2.43-1.08-.53.02-1.09.1-1.64.07-1.09-.06-1.99-.3-2.83-.65-.84-.35-1.66-.7-2.48-1.03-1.68-.67-3.46-1.19-5.35-1.64-1.87-.45-3.98-.84-6.27-.73h-.04m-36.99,3.25c.1-1.03-.38-1.72-.88-2.17-.36-.32-.92-.65-1.62-.65-.86,0-1.51.36-2.09.74-.56.38-1.05.86-1.55,1.29-.48.42-1,.84-1.58,1.25-.25.18-.53.36-.84.58-.29.21-.66.48-.65.78,0,.26.2.42.37.47.47.13.87-.31,1.38-.17.22.06.46.4.64.63,1.14,1.48,2.17,2.84,3.34,4.29.19.23.43.55.45.84.05.62-.56.87-.48,1.4.02.16.17.31.35.36.49.11.9-.37,1.14-.62.56-.57,1.31-1.13,2.03-1.57.31-.19.89-.45.88-.93,0-.24-.2-.44-.37-.49-.41-.11-.7.24-1.17.2-.27-.02-.52-.27-.69-.45-.48-.52-.84-1.03-1.29-1.6-.06-.08-.24-.32-.24-.34,0-.07.24-.18.34-.24.47-.29,1.07-.09,1.56.11.35.14.7.3,1.03.43.69.29,1.44.69,2.13.78.82.12,1.45-.22,1.98-.58.29-.19.88-.58.84-1.05-.01-.14-.19-.37-.32-.41-.27-.09-.66.11-.99.1-.33-.01-.65-.17-.97-.3-.31-.12-.63-.23-.93-.34-.81-.27-1.87-.78-2.71-.39.01,0,.02,0,.02-.02,0-.01,0-.02.02-.02.49-.52.81-1.08.9-1.94m-3.58,14.85s0-.02-.02-.02c-.33.57-.66,1.13-.97,1.71,1.32.74,2.62,1.51,3.94,2.26.3-.59.64-1.14.97-1.72-1.32-.74-2.59-1.51-3.92-2.24m92.28.3c-1.27.82-2.58,1.6-3.86,2.41.34.55.69,1.1,1.03,1.66,1.3-.79,2.61-1.58,3.88-2.41-.36-.54-.69-1.12-1.05-1.66m-83.19.86c.04.29.27.4.43.55.18.18.36.35.43.56.11.37-.05.7-.19,1.03-.32.74-.65,1.48-.95,2.16-.43.98-.96,1.96-1.27,2.89-.18.55-.32,1.06-.26,1.81.05.6.31,1.11.58,1.51.55.83,1.4,1.45,2.29,1.87.92.43,2.24.8,3.43.58,1.19-.23,1.89-.86,2.48-1.68.86-1.19,1.41-2.77,2.03-4.2.21-.47.42-1,.71-1.38.14-.17.36-.42.64-.49.38-.09.9.12,1.23-.04.15-.07.32-.24.32-.5,0-.37-.42-.6-.77-.75-.77-.32-1.47-.55-2.13-.93-.3-.17-.63-.5-1.1-.43-.32.05-.51.3-.5.59,0,.34.28.47.49.69.17.19.4.45.43.77.03.37-.16.72-.28,1.01-.37.91-.84,1.83-1.21,2.69-.49,1.13-.96,2.62-2.13,3.08-.75.29-1.65.08-2.2-.19-.6-.29-1.15-.74-1.42-1.27-.34-.67-.16-1.59.07-2.2.49-1.29,1.09-2.49,1.64-3.73.22-.49.54-1.47,1.08-1.62.43-.12.88.09,1.25-.02.23-.07.43-.25.43-.56,0-.4-.51-.64-.93-.78-.91-.32-1.72-.67-2.48-1.07-.4-.2-.77-.46-1.18-.6-.18-.06-.42-.1-.54-.08-.29.05-.49.3-.43.71m68.98.41c-.45.12-.79.43-1.27.71-.39.23-1.04.44-1.06.91,0,.17.09.42.2.49.13.08.33.04.47.06.7.11.67.59.73,1.38.09,1.19.25,2.31.39,3.41.15,1.15.27,2.25.49,3.3.08.37.21.73.17,1.1-.07.52-.64.88-.61,1.34.01.24.13.47.39.52.41.08.77-.26,1.03-.41.58-.34,1.26-.65,1.86-1.01.28-.16.61-.47.49-.9-.21-.68-1,0-1.51-.24-.24-.11-.35-.48-.41-.77-.06-.29-.21-.72-.09-1.02.09-.25.54-.41.8-.56.65-.35,1.15-.63,1.75-.97.26-.14.65-.45.95-.43.3.02.57.38.74.56.21.21.55.43.54.79,0,.24-.17.39-.28.56-.22.35-.32.81.09.99.44.18.92-.18,1.27-.39.79-.48,1.43-.82,2.35-1.23.37-.17.89-.39.95-.84.05-.33-.1-.55-.28-.65-.27-.15-.75-.02-1.1-.09-.36-.08-.8-.46-1.18-.75-2.36-1.83-4.53-3.79-6.99-5.56-.21-.15-.5-.35-.82-.3-.02,0-.04,0-.06,0m-5.24,13.8c.35.23.9.53,1.29.54.55.02,1.03-.29,1.55-.45.23-.07.52-.13.79-.2.2-.05.59-.13.71-.3.15-.21.1-.61-.05-.76-.3-.3-.94-.08-1.36-.19-.28-.07-.78-.44-.91-.71-.12-.27-.17-.61-.26-.92-.47-1.55-.91-2.98-1.38-4.53-.16-.53-.52-1.36-.31-1.94.09-.26.32-.45.54-.62.2-.15.49-.32.5-.61.05-.83-.98-.58-1.46-.37-.7.3-1.42.52-2.26.73-.41.1-.83.28-.88.62-.12.91,1.22.48,1.73.84.32.23.45.88.6,1.34.47,1.51.9,3.01,1.36,4.48-.03,0-.04-.05-.05-.06-.88-.65-1.78-1.2-2.69-1.83-1.3-.9-2.64-1.91-4.03-2.76-.46-.27-.99-.6-1.57-.71-.68-.13-1.37.07-1.94.24-.54.16-1.34.33-1.36.92-.01.26.14.47.32.56.29.15.75,0,1.14.1.42.09.67.4.97.58.54,1.77,1.12,3.67,1.68,5.52.17.57.51,1.38.28,2.02-.2.55-1.1.51-1.02,1.23.08.76,1.07.41,1.53.23.71-.29,1.42-.49,2.24-.67.37-.08.81-.24.84-.61.02-.27-.17-.54-.37-.62-.34-.13-.81,0-1.12-.13-.43-.18-.62-.72-.79-1.23-.49-1.6-.95-3.11-1.42-4.66,2.36,1.58,4.79,3.36,7.18,4.96m-49.39-8.9c-.04.41.31.6.48.73.22.16.55.32.65.56.17.39.02,1.08-.07,1.53-.32,1.49-.63,2.81-.97,4.29-.34,1.46-.58,2.91-1.01,4.26-.22.68-.41,1.45-.97,1.68-.29.12-.91.05-.97-.33-.08-.53.55-.83.37-1.4-.08-.27-.38-.33-.63-.32-.31.01-.54.17-.71.26-.41.21-.94.47-1.08.86-.12.32-.01.75.11.99.63,1.17,2.42,1.61,4.05,1.08,1.46-.47,2.24-1.52,2.66-2.93.21-.69.37-1.52.54-2.26.36-1.57.67-2.99,1.02-4.57.18-.79.34-2.12.93-2.46.5-.29,1.49-.19,1.49-.84,0-.81-1.5-.75-2.29-.88-.46-.07-.93-.18-1.31-.28-.44-.11-.82-.28-1.21-.39-.17-.05-.49-.08-.61-.06-.28.05-.46.2-.48.49m5.63,3.06c-.86,1.02-1.47,2.6-1.44,4.46.04,1.88.79,3.16,1.81,4.08,1.03.93,2.49,1.61,4.37,1.53,1.79-.07,3.06-.89,3.95-1.92.92-1.07,1.5-2.5,1.47-4.42-.02-.91-.21-1.73-.52-2.43-.85-1.9-2.84-3.34-5.63-3.21-1.87.09-3.13.86-4.01,1.9m26.81-1.44c-.44.05-1.06.07-1.17.45-.16.52.28.6.5.75.15.1.33.26.36.45.05.35-.17.82-.26,1.1-.34,1.04-.63,2.17-.9,3.23-.28,1.13-.58,2.15-.8,3.32-.08.41-.12.83-.28,1.1-.13.23-.38.37-.58.51-.27.18-.58.34-.52.76.09.64.95.43,1.49.33.36-.06.76-.11,1.14-.15.26-.03.81-.04,1.12-.17.31-.13.57-.47.41-.82-.18-.4-1.14-.19-1.35-.64-.15-.32-.02-.61.04-.97.06-.32.11-.67.3-.82.18-.14.61-.15.97-.19.61-.07,1.31-.17,1.92-.24.29-.03.74-.13.99-.06.26.08.38.49.5.75.12.27.35.61.26.95-.12.5-.99.48-.93,1.16.04.42.58.52,1.18.43.52-.08,1.04-.17,1.46-.22.5-.06,1.06-.05,1.6-.08.52-.02,1.02-.17,1.14-.56.22-.77-.59-.77-1.01-1.05-.35-.22-.6-.7-.82-1.08-.69-1.19-1.4-2.47-2.05-3.69-.67-1.26-1.36-2.44-2.09-3.66-.22-.36-.45-.95-.84-1.08-.15-.05-.32-.02-.34-.02-.48.02-.9.15-1.43.2m-12.89,3.68c.02-.66.05-1.38.44-1.62.47-.29,1.17-.16,1.25-.8.1-.81-.85-.76-1.51-.69-.82.08-1.73.08-2.52.02-.69-.05-1.7-.31-1.92.28-.3.76.62.8,1.04,1.04.15.08.4.37.46.63.07.27,0,.63,0,.99,0,1.74-.07,3.36-.07,5.05,0,.69,0,1.39-.2,1.86-.2.43-.66.38-1.08.64-.2.12-.37.34-.35.54.05.76,1.45.51,2.33.51.47,0,.98.01,1.42.04.48.03.94.11,1.36.09.5-.02.94-.26.77-.8-.13-.4-.81-.38-1.16-.6-.49-.32-.36-1.24-.35-2.01,0-.62.02-1.16.02-1.77,1.53.04,3.1.02,4.59.1-.03.73.01,1.2-.02,1.85-.03.56.04,1.31-.2,1.68-.28.42-1.24.32-1.4.84-.23.75.62.8,1.4.76,1.17-.05,2.16-.02,3.32.04.55.03,1.17-.04,1.17-.53,0-.58-.67-.58-1.1-.84-.57-.35-.5-1.17-.48-2.11.02-1.31.02-2.68.07-3.96.05-1.09-.18-2.4.48-2.8.52-.3,1.19-.17,1.2-.88,0-.89-1.71-.49-2.4-.49-.54,0-1.02-.02-1.48-.06-.47-.04-.95-.17-1.4-.13-.45.04-.84.32-.71.82.14.53.93.45,1.27.78.34.33.34,1.01.34,1.68s-.01,1.3-.06,1.96c-1.51-.04-3.07-.03-4.55-.09.03-.75.02-1.37.04-2.03"/>
  <path class="cls-1" d="m48.04,34.31c-.17-.68.06-1.07.04-2.17-.02-1.1-.09-1.48-.18-2.09-.09-.61-.42-.95-.42-1.78,0-.45-.84-.69-1.87-.39-.65.19-.88.87-1,1.23l-.16.48-.33.05s-.08-.77-.2-.47c-.23.58-.33,1.55-.33,2.07,0,.42.17,1.49.23,1.85,0,0,.13.54,0,.86-.12.31.25.58.87,1.07.33.26,1.46.88,2.3.38.89-.53,1.21-.41,1.04-1.1m-.83-1.61c-.03.49-.24,1.34-.58,1.53-.4.22-1.18-.12-1.42-.3-.35-.26-.42-.58-.52-1.12-.11-.6-.26-1.19-.04-1.79.09-.25.25-.42.37-.65.12-.23.21-.52.34-.86.11-.28.21-.69.48-.76.46-.13.68.26.88.58.18.28.36.61.43.97.04.19.04.41.06.64.02.21.07.43.06.62,0,.14-.07.26-.08.41-.02.24.04.49.02.75"/>
  <path class="cls-1" d="m11.1,22.98c-.27-.35-.57-.71-.88-1.1-.31-.4-.85-.96-.61-1.62.16-.44.82-.95,1.42-.99.89-.05,1.58.7,1.66,1.46.15,1.32-.98,1.67-1.59,2.26"/>
</svg>