<?xml version="1.0" encoding="UTF-8"?>
<svg id="Vrstva_1" data-name="Vrstva 1" xmlns="http://www.w3.org/2000/svg" viewBox="0 0 84.51 53.3">
  <defs>
    <style>
      .cls-1 {
        fill: #e30613;
      }

      .cls-1, .cls-2 {
        stroke-width: 0px;
      }
    </style>
  </defs>
  <path class="cls-1" d="m11.11,0h-4.71v15.18c0,3.61-1.4,4.51-3.53,4.51-.92,0-1.75-.15-2.36-.33l-.51,3.64c.83.27,2.2.45,3.31.45,4.55,0,7.8-1.86,7.8-8.24V0Z"/>
  <path class="cls-2" d="m20.97,5.89c2.79,0,4.09,2.98,4.09,6.19,0,3.53-1.41,6.33-4.12,6.33s-4.14-2.82-4.14-6.26c0-3.21,1.31-6.26,4.17-6.26m.1-2.76c-4.96,0-8.09,3.85-8.09,9.09s2.84,8.95,7.84,8.95c4.71,0,8.07-3.12,8.07-9.22,0-4.67-2.57-8.81-7.82-8.81"/>
  <polygon class="cls-2" points="45.32 3.41 41.67 3.41 41.67 10.4 35.21 10.4 35.21 3.41 31.56 3.41 31.56 20.91 35.21 20.91 35.21 13.38 41.67 13.38 41.67 20.91 45.32 20.91 45.32 3.41"/>
  <path class="cls-2" d="m52.23,13.74l1.13-4.01c.27-1.02.59-2.46.84-3.55h.07c.25,1.07.57,2.48.86,3.57l1.13,3.98h-4.04Zm4.44-10.34h-4.59l-5.38,17.51h3.7l1.31-4.62h5.08l1.36,4.62h3.82l-5.3-17.51Z"/>
  <path class="cls-2" d="m77.8,3.39h-3.31v5.26c0,2.85.1,5.33.32,7.56h-.05c-.76-1.82-1.82-3.96-2.84-5.71l-3.99-7.1h-3.95v17.51h3.3v-5.37c0-3.12-.07-5.58-.22-7.74h.1c.79,1.91,1.9,4.08,2.91,5.87l4.07,7.24h3.65V3.39Z"/>
  <polygon class="cls-1" points="28.89 30.19 24.18 30.19 24.18 39.41 15.84 39.41 15.84 30.19 11.13 30.19 11.13 53.3 15.84 53.3 15.84 43.35 24.18 43.35 24.18 53.3 28.89 53.3 28.89 30.19"/>
  <path class="cls-2" d="m38.92,35.97c2.72,0,4,2.98,4,6.19,0,3.53-1.37,6.33-4.03,6.33s-4.05-2.82-4.05-6.26c0-3.21,1.28-6.26,4.08-6.26m.1-2.76c-4.85,0-7.91,3.85-7.91,9.09s2.77,8.95,7.67,8.95c4.6,0,7.88-3.12,7.88-9.22,0-4.67-2.51-8.81-7.64-8.81"/>
  <polygon class="cls-2" points="59.95 33.45 47.24 33.45 47.24 36.37 51.8 36.37 51.8 50.96 55.37 50.96 55.37 36.37 59.95 36.37 59.95 33.45"/>
  <polygon class="cls-2" points="71.98 48.17 65.18 48.17 65.18 43.3 71.23 43.3 71.23 40.55 65.18 40.55 65.18 36.31 71.59 36.31 71.59 33.49 61.61 33.49 61.61 51 71.98 51 71.98 48.17"/>
  <polygon class="cls-2" points="84.51 48.19 77.88 48.19 77.88 33.52 74.31 33.52 74.31 51.03 84.51 51.03 84.51 48.19"/>
  <rect class="cls-2" x="11.24" y="25.32" width="66.56" height="1.88"/>
</svg>