<?xml version="1.0" encoding="UTF-8"?>
<svg id="Vrstva_1" data-name="Vrstva 1" xmlns="http://www.w3.org/2000/svg" viewBox="0 0 55.91 75.98">
  <defs>
    <style>
      .cls-1 {
        fill: #e30613;
      }

      .cls-1, .cls-2, .cls-3, .cls-4 {
        stroke-width: 0px;
      }

      .cls-3, .cls-5 {
        fill: none;
      }

      .cls-4 {
        fill: #fff;
      }

      .cls-5 {
        stroke: #e30613;
        stroke-width: .84px;
      }
    </style>
  </defs>
  <path class="cls-2" d="m5.07,5.81h1.97v2.1c.77-.15,1.22-.71,1.22-1.51,0-1.1-.98-1.89-2.35-1.89-1.45,0-2.4.73-2.4,1.89,0,.48.13.78.61,1.27l-2.83,2.54c-.93-1.27-1.29-2.39-1.29-3.91C0,2.71,2.47,0,5.73,0s5.77,2.76,5.77,6.3-2.47,6.11-5.61,6.11c-.18,0-.45-.03-.81-.05v-6.55Z"/>
  <rect class="cls-2" x=".23" y="14.19" width="11.27" height="4.47"/>
  <path class="cls-2" d="m5.07,26.4h1.97v2.1c.77-.15,1.22-.71,1.22-1.52,0-1.1-.98-1.88-2.35-1.88-1.45,0-2.4.73-2.4,1.88,0,.49.13.78.61,1.27l-2.83,2.54c-.93-1.27-1.29-2.39-1.29-3.9,0-3.59,2.47-6.3,5.73-6.3s5.77,2.76,5.77,6.3-2.47,6.1-5.61,6.1c-.18,0-.45-.02-.81-.05v-6.55Z"/>
  <path class="cls-2" d="m.23,34.78h11.27v4.47H.23v-4.47Zm7.02,9.77L.23,47.14v-4.93l7.19-2.15,3.83,1.39v4.64l-4-1.54Z"/>
  <path class="cls-2" d="m10.71,51.92v2h-4.37v-2c-1.63-.07-1.93.54-1.93,2.08H.07v-.44c0-2.29,1.09-4.34,2.85-5.35.86-.51,1.97-.76,3.33-.76h5.25v4.47h-.79Z"/>
  <path class="cls-2" d="m6.92,62.64c.18-.34.25-.56.25-.83,0-.81-.59-1.22-1.72-1.22H.23v-4.47h6.02c3.17,0,5.23,2.03,5.23,5.18,0,.39-.02.71-.11,1.34h-4.44Z"/>
  <path class="cls-2" d="m4.16,70.29c.34.78.84,1.17,1.59,1.17.9,0,1.65-.78,1.65-1.73s-.72-1.76-1.65-1.76c-.75,0-1.27.39-1.59,1.17H.02c.32-3.28,2.76-5.69,5.75-5.69,3.19,0,5.7,2.78,5.7,6.3s-2.56,6.23-5.75,6.23c-2.96,0-5.41-2.44-5.7-5.69h4.14Z"/>
  <polygon class="cls-1" points="55.49 24.76 13.47 45.78 13.47 3.75 55.49 24.72 55.49 24.76"/>
  <polygon class="cls-5" points="55.49 24.76 13.47 45.78 13.47 3.75 55.49 24.72 55.49 24.76"/>
  <path class="cls-4" d="m20.24,22.64c.93-.02,1.38-.43,1.38-1.2,0-.39-.2-.74-.52-.93-.25-.11-.57-.16-1.13-.16h-.79v11.02h-4.48v-15.09h5.75c1.79,0,3.24.5,4.19,1.4.95.9,1.52,2.29,1.52,3.62,0,1.56-.66,2.8-1.99,3.87l2.58,6.2h-4.71l-1.79-3.98v-4.75Z"/>
  <path class="cls-4" d="m32.56,22.18c.7-.07,1.04-.41,1.04-1.02,0-.57-.41-.97-1.02-.97-.7,0-1.09.47-1.09,1.33v9.84h-4.48v-9.39c0-2.01.39-3.17,1.4-4.25,1.04-1.13,2.69-1.83,4.32-1.83,3.12,0,5.46,2.33,5.46,5.43,0,1.56-.66,3.03-1.74,3.87-.86.68-1.88.98-3.4.98h-.5v-3.98Z"/>
  <path class="cls-4" d="m44.7,22.64c.92-.02,1.38-.43,1.38-1.2,0-.39-.2-.74-.52-.93-.25-.11-.57-.16-1.13-.16h-.79v11.02h-4.48v-15.09h5.75c1.79,0,3.24.5,4.19,1.4.95.9,1.52,2.29,1.52,3.62,0,1.56-.65,2.8-1.99,3.87l2.58,6.2h-4.71l-1.79-3.98v-4.75Z"/>
  <polygon class="cls-3" points="13.47 45.78 55.49 24.76 55.49 24.72 13.47 3.75 13.47 45.78"/>
</svg>