<?xml version="1.0" encoding="UTF-8"?>
<svg id="Vrstva_1" data-name="Vrstva 1" xmlns="http://www.w3.org/2000/svg" viewBox="0 0 183.65 22.45">
  <defs>
    <style>
      .cls-1 {
        fill: #a400cc;
        stroke-width: 0px;
      }
    </style>
  </defs>
  <path class="cls-1" d="m0,.33h8.12v2.71H2.92v6.31h4.92v2.71H2.92v10.08H0V.33Z"/>
  <path class="cls-1" d="m13.05.33v21.81h-2.92V.33h2.92Z"/>
  <path class="cls-1" d="m19.06,12.21v9.94h-2.92V.33h4.3c3.3,0,5.11,1.36,5.11,5.16v.9c0,3.19-1.23,4.19-2.22,4.57,1.32.56,2.01,1.53,2.01,4.47,0,1.85-.03,5.37.21,6.71h-2.83c-.28-1.33-.23-4.95-.23-6.51,0-2.73-.37-3.42-2.41-3.42h-1.02Zm0-2.44h1.05c1.9,0,2.51-.89,2.51-3.25v-.84c0-1.82-.43-2.91-2.45-2.91h-1.1v7Z"/>
  <path class="cls-1" d="m35.88,11.93h-4.84v7.53h5.54l-.38,2.69h-8.08V.33h8.03v2.71h-5.11v6.19h4.84v2.69Z"/>
  <path class="cls-1" d="m40.58,22.14L37.57.33h3.11c.57,4.96,1.42,13.01,1.6,16.84h.06c.42-4.15,1.57-11.9,2.24-16.84h2.89c.69,5.05,1.83,12.27,2.2,16.71h.08c.25-4.04,1.11-11.6,1.69-16.71h2.97l-3.26,21.81h-3.05c-.66-4.98-1.72-11.98-2.15-16.1h-.05c-.48,4.31-1.59,11.25-2.29,16.1h-3.02Z"/>
  <path class="cls-1" d="m66.03,5.94v10.53c0,4.03-1.69,5.99-5.2,5.99s-4.92-2.08-4.92-5.94V5.92C55.92,1.95,57.84.02,61.02.02s5.01,2.03,5.01,5.92Zm-7.14-.24v11.12c0,2.08.75,2.99,2.07,2.99,1.41,0,2.09-.86,2.09-3.06V5.69c0-1.98-.64-3-2.1-3-1.36,0-2.06.94-2.06,3.01Z"/>
  <path class="cls-1" d="m71.59,12.21v9.94h-2.93V.33h4.3c3.3,0,5.11,1.36,5.11,5.16v.9c0,3.19-1.23,4.19-2.22,4.57,1.32.56,2.01,1.53,2.01,4.47,0,1.85-.03,5.37.21,6.71h-2.83c-.28-1.33-.23-4.95-.23-6.51,0-2.73-.37-3.42-2.41-3.42h-1.02Zm0-2.44h1.05c1.9,0,2.51-.89,2.51-3.25v-.84c0-1.82-.43-2.91-2.45-2.91h-1.1v7Z"/>
  <path class="cls-1" d="m80.68.33h2.88v10.13h.03c.87-2.11,2.94-7.04,4.23-10.13h3.24l-4.05,8.55,4.35,13.26h-3.18l-3.15-10.2-1.46,2.98v7.22h-2.88V.33Z"/>
  <path class="cls-1" d="m95.12,15.84v1.31c0,1.8.58,2.79,1.96,2.79s1.87-1.2,1.87-3.02c0-2.43-.53-3.27-2.85-5.09-2.34-1.84-3.57-2.99-3.57-6.21C92.54,2.79,93.4,0,97.12,0c3.7,0,4.42,2.58,4.42,5.12v1.1h-2.9v-1.02c0-1.64-.3-2.67-1.57-2.67s-1.59,1.1-1.59,2.66c0,1.75.34,2.51,2.29,3.96,3.17,2.36,4.15,3.71,4.15,7.35,0,3.08-1,5.96-4.9,5.96s-4.81-2.46-4.81-5.33v-1.28h2.92Z"/>
  <path class="cls-1" d="m121.13,8.98l-3.39,8.27c-1.42,3.44-2.92,5.13-5.49,5.13-3.16,0-4.49-2.42-4.49-5.91s1.32-4.74,4.1-7.02c2.02-1.65,2.57-2.46,2.57-4.65,0-1.42-.24-2.34-1.33-2.34-1.01,0-1.35,1.04-1.35,2.35,0,1.84.13,2.61,1.13,4.25l8.08,13.09h-3.27l-6.89-11.03c-1.38-2.2-1.77-3.39-1.77-6.02,0-3.18,1.43-5.02,4.04-5.02s3.99,1.66,3.99,4.74-.89,4.21-3.82,6.52c-2.12,1.69-2.62,2.46-2.62,4.91,0,2.22.71,3.27,2.01,3.27s1.84-.92,2.67-2.96l3.04-7.56h2.79Z"/>
  <path class="cls-1" d="m127.38.33h4.49c3.37,0,5.04,1.68,5.04,5.4v1.3c0,3.47-1.16,5.87-5.22,5.87h-1.39v9.24h-2.92V.33Zm2.92,10.15h1.08c2.26,0,2.62-1.35,2.62-3.54v-1.11c0-1.66-.33-3.07-2.36-3.07h-1.34v7.72Z"/>
  <path class="cls-1" d="m139.04.33h2.93v8.79h4.01V.33h2.93v21.81h-2.93v-10.33h-4.01v10.33h-2.93V.33Z"/>
  <path class="cls-1" d="m161.61,5.94v10.53c0,4.03-1.69,5.99-5.2,5.99s-4.92-2.08-4.92-5.94V5.92c0-3.98,1.93-5.9,5.11-5.9s5.01,2.03,5.01,5.92Zm-7.14-.24v11.12c0,2.08.75,2.99,2.07,2.99,1.41,0,2.09-.86,2.09-3.06V5.69c0-1.98-.64-3-2.1-3-1.36,0-2.06.94-2.06,3.01Z"/>
  <path class="cls-1" d="m166.06,3.04h-3.51V.33h9.96v2.71h-3.52v19.1h-2.93V3.04Z"/>
  <path class="cls-1" d="m183.65,5.94v10.53c0,4.03-1.69,5.99-5.2,5.99s-4.92-2.08-4.92-5.94V5.92c0-3.98,1.93-5.9,5.11-5.9s5.01,2.03,5.01,5.92Zm-7.14-.24v11.12c0,2.08.75,2.99,2.07,2.99,1.41,0,2.09-.86,2.09-3.06V5.69c0-1.98-.64-3-2.1-3-1.36,0-2.06.94-2.06,3.01Z"/>
</svg>