<?xml version="1.0" encoding="UTF-8"?>
<svg id="Vrstva_1" data-name="Vrstva 1" xmlns="http://www.w3.org/2000/svg" viewBox="0 0 74.91 57.61">
  <defs>
    <style>
      .cls-1 {
        fill: #010101;
      }

      .cls-1, .cls-2, .cls-3 {
        stroke-width: 0px;
      }

      .cls-2 {
        fill: #fff;
      }

      .cls-3 {
        fill: #ff0102;
      }
    </style>
  </defs>
  <path class="cls-1" d="m20.61,57.61c-.13-.04-.27-.05-.41-.06-.75-.05-1.35-.39-1.86-.91-.19-.2-.32-.43-.42-.68-.16-.37-.25-.76-.29-1.16-.03-.31-.05-.62-.05-.93,0-.71,0-1.42,0-2.13,0-.34.02-.68.1-1.01.04-.16.08-.31.13-.46.17-.47.46-.83.89-1.09.48-.29,1-.45,1.55-.49.2-.02.4-.02.6-.02,2.09,0,4.17,0,6.26,0,.31,0,.62-.04.92-.07.33-.04.52-.24.6-.54.07-.23.06-.47,0-.71-.04-.15-.12-.27-.26-.35-.17-.09-.35-.15-.54-.17-.23-.03-.46-.04-.69-.04-2.74,0-5.49,0-8.23,0-.42,0-.36.06-.36-.36,0-.58,0-1.16,0-1.74,0-.08,0-.16,0-.24,0-.05.03-.07.07-.07.05,0,.1,0,.15,0,4.15,0,8.3,0,12.46,0,.35,0,.7.04,1.04.1,1.22.2,2.01.94,2.52,2.02.25.52.34,1.08.34,1.66,0,1.9,0,3.79,0,5.69,0,1.2,0,2.39,0,3.59,0,.06-.02.12.02.18h-6.11s0-.08-.02-.11c-.14-.21-.2-.45-.24-.7-.02-.16-.04-.32-.06-.53-.07.15-.13.27-.19.38-.11.2-.25.39-.45.5-.28.17-.58.3-.91.35-.18.03-.36.03-.52.11h-6.05Zm7.97-4.97h0c0-.39,0-.78,0-1.17,0-.07,0-.14,0-.21,0-.07-.05-.1-.12-.1-.05,0-.1,0-.15,0-.89,0-1.77,0-2.66,0-.19,0-.38.02-.57.04-.15.02-.29.07-.43.13-.2.1-.33.26-.38.47-.02.06-.02.12-.03.18-.08.72-.05,1.43-.02,2.15,0,.03.01.06.01.09.04.41.28.64.66.75.21.06.43.07.65.07.46,0,.92,0,1.38,0,.21,0,.42,0,.63-.02.17,0,.33-.05.49-.11.21-.08.35-.22.41-.44.07-.23.11-.47.11-.71,0-.38,0-.76,0-1.14Z"/>
  <path class="cls-1" d="m59,57.61c-.23-.03-.45-.05-.68-.08-.47-.05-.87-.26-1.26-.52-.13-.09-.25-.2-.37-.3-.16-.14-.28-.31-.37-.5-.19-.42-.32-.86-.38-1.32-.05-.36-.06-.72-.06-1.07,0-.7,0-1.4,0-2.1,0-.44.05-.88.17-1.3.17-.57.51-1,1.04-1.3.45-.25.94-.39,1.45-.44.21-.02.42-.02.63-.02,2.09,0,4.17,0,6.26,0,.31,0,.62-.04.92-.07.27-.03.44-.18.54-.42.12-.29.11-.58.03-.88-.04-.13-.12-.22-.24-.29-.17-.09-.35-.15-.54-.17-.23-.03-.46-.04-.69-.04-2.75,0-5.49,0-8.24,0-.09,0-.18,0-.27,0-.07,0-.1-.04-.1-.12,0-.42,0-.84,0-1.26,0-.31,0-.62,0-.93,0-.07.03-.11.11-.11.08,0,.16,0,.24,0,3.92,0,7.85,0,11.77,0,.43,0,.86,0,1.29.05.41.05.8.15,1.19.3.22.08.41.21.58.36.92.77,1.41,1.75,1.42,2.95.01,3.12,0,6.25,0,9.37,0,.07,0,.14,0,.21h-6.05c-.1-.21-.21-.41-.27-.63-.06-.23-.07-.46-.16-.73-.08.18-.13.32-.19.45-.09.19-.21.37-.4.47-.27.15-.55.28-.86.33-.2.03-.39.07-.58.11h-5.93Zm6.26-6.45h0c-.45,0-.9,0-1.35,0-.26,0-.52.02-.77.1-.31.1-.51.3-.6.61-.04.12-.06.25-.07.38-.06.47-.04.94-.03,1.4,0,.22.03.44.09.65.09.34.31.55.64.65.19.06.39.08.59.08.62,0,1.24,0,1.86,0,.1,0,.2,0,.3-.02.2-.02.39-.07.57-.17.11-.06.18-.14.22-.27.13-.38.2-.77.2-1.17,0-.68,0-1.36,0-2.03,0-.05,0-.1,0-.15,0-.04-.03-.07-.08-.07-.07,0-.14,0-.21,0-.45,0-.9,0-1.35,0Z"/>
  <path class="cls-1" d="m36.84,57.61c0-.12,0-.24,0-.36,0-4.17,0-8.34,0-12.51,0-.42-.06-.36.37-.36,1.76,0,3.51,0,5.27,0h.34c.09.43.1.86.17,1.28.09.01.09-.05.11-.09.03-.04.05-.08.08-.13.33-.59.86-.9,1.51-1.01.18-.03.36-.05.54-.05,1.79,0,3.57,0,5.36,0,.55,0,1.09.09,1.6.33.91.44,1.53,1.13,1.87,2.08.11.29.12.61.15.91.04.44.06.88.05,1.32,0,2.82,0,5.65,0,8.47,0,.04,0,.08.01.12h-6.59s.02-.1.02-.15c0-2.94,0-5.88,0-8.82,0-.22,0-.44-.02-.66,0-.21-.05-.41-.11-.62-.07-.26-.23-.41-.48-.48-.25-.07-.51-.1-.77-.1-.59,0-1.18,0-1.77,0-.14,0-.28.02-.42.04-.31.05-.52.25-.63.53-.04.11-.07.23-.08.35-.02.19-.02.38-.02.57,0,3.07,0,6.14,0,9.21,0,.04.01.08.02.11h-6.59Z"/>
  <path class="cls-1" d="m0,47.73s.06.02.07-.01c.02-.06.03-.11.04-.17.08-.74.35-1.39.89-1.91.03-.03.06-.06.08-.09.37-.49.88-.77,1.46-.93.34-.09.68-.14,1.03-.17.59-.06,1.18-.06,1.76-.06,3.35,0,6.71,0,10.06,0,.07,0,.14,0,.21,0,.06,0,.09.03.1.09,0,.05,0,.1,0,.15,0,.65,0,1.3,0,1.95,0,.05,0,.1,0,.15,0,.04-.02.08-.07.08-.09,0-.18,0-.27,0-2.69,0-5.39,0-8.08,0-.25,0-.5.02-.75.05-.44.05-.67.48-.49.89.06.13.15.21.28.24.09.02.18.04.27.04.13,0,.26.01.39.01,1.71,0,3.41,0,5.12,0,.47,0,.94.04,1.39.16,1.13.32,1.78,1.07,2.03,2.2.08.36.12.73.12,1.1,0,.71,0,1.42,0,2.12,0,.55-.06,1.09-.22,1.62-.12.38-.3.74-.55,1.06-.42.56-.98.9-1.65,1.07-.37.1-.74.17-1.12.2-.1,0-.19.03-.29.05H0v-2.57c.13.05.27.01.41.02,2.79,0,5.59,0,8.38,0,.2,0,.4,0,.6-.02.26-.02.34-.11.39-.37.04-.27,0-.54-.05-.8-.02-.09-.07-.13-.16-.15-.19-.03-.38-.04-.57-.04-1.62,0-3.23,0-4.85,0-.38,0-.76,0-1.14,0-.22,0-.44-.02-.65-.07-.57-.13-1.07-.38-1.44-.84-.22-.27-.39-.56-.5-.88-.16-.43-.25-.88-.3-1.34-.01-.09,0-.18-.04-.26-.02-.03-.05-.03-.08-.03v-2.52Z"/>
  <path class="cls-1" d="m3.15,41.46c-.06.03-.13.03-.2.03-.82,0-1.64,0-2.46,0-.02,0-.04,0-.06,0-.04,0-.07-.05-.05-.08.04-.05.09-.11.14-.16,2.78-3.19,5.56-6.38,8.33-9.58,4.22-4.85,8.44-9.7,12.66-14.54,3.96-4.55,7.93-9.11,11.89-13.66.95-1.09,1.9-2.18,2.85-3.27.05-.06.11-.12.17-.19.1.07.16.16.23.23,2.36,2.65,4.72,5.31,7.09,7.96,4.29,4.82,8.57,9.63,12.86,14.45,4.11,4.62,8.23,9.24,12.34,13.86,1.4,1.57,2.8,3.15,4.2,4.72.05.05.09.1.14.16.02.02.03.05.02.08-.02.04-.05.02-.08.03-.03,0-.06,0-.09,0-.05,0-.1,0-.15,0-13.8,0-27.59,0-41.39,0-.13,0-.26.02-.38-.03-.06-.07-.11-.14-.17-.21-1.08-1.23-2.16-2.46-3.24-3.69-1.56-1.77-3.11-3.54-4.67-5.3-.96-1.09-1.91-2.17-2.87-3.26-.97-1.1-1.94-2.2-2.91-3.3-.05-.06-.09-.14-.17-.16-.09.03-.13.11-.19.18-1.21,1.38-2.43,2.76-3.64,4.14-1.41,1.6-2.82,3.2-4.24,4.81-1.74,1.98-3.48,3.96-5.22,5.93-.25.28-.49.58-.74.86Zm66.02-1.44c-.2-.28-32.48-36.59-32.66-36.74-.03.03-.06.05-.09.08-2.17,2.46-4.34,4.93-6.51,7.39,0,0,0,.02-.01.03,0,0,0,.02,0,.04.04.05.09.1.13.15,4.25,4.71,8.5,9.42,12.76,14.13,3.41,3.78,6.82,7.56,10.23,11.33,1.03,1.14,2.06,2.28,3.09,3.42.1.11.2.18.36.16.03,0,.06,0,.09,0,4.09,0,8.18,0,12.28,0h.34ZM28.9,12.01c-.09.1-.16.18-.23.25-1.58,1.8-3.16,3.6-4.73,5.41-.24.27-.24.2,0,.47,0,0,.01.01.02.02,1.69,1.89,3.38,3.78,5.06,5.67,4.75,5.31,9.49,10.63,14.23,15.94.15.17.3.24.53.24,3.26,0,6.53,0,9.79,0,.07,0,.14,0,.21,0,.05,0,.1.02.12-.06-8.33-9.3-16.66-18.61-25.01-27.94Zm12.5,28c-.04-.06-.05-.09-.07-.11-6.18-6.96-12.36-13.92-18.54-20.88,0,0-.02-.01-.03-.01,0,0-.02,0-.04,0-.06.07-.13.14-.2.22-1.25,1.42-2.51,2.85-3.76,4.27-.24.27-.24.2,0,.47,4.08,4.61,8.16,9.22,12.24,13.83.61.69,1.22,1.37,1.82,2.06.11.13.22.19.38.16.02,0,.04,0,.06,0,2.6,0,5.21,0,7.81,0h.31Z"/>
  <path class="cls-3" d="m3.15,41.46c.25-.29.49-.58.74-.86,1.74-1.98,3.48-3.96,5.22-5.93,1.41-1.6,2.82-3.2,4.24-4.81,1.21-1.38,2.43-2.76,3.64-4.14.06-.07.1-.15.19-.18.09.03.12.1.17.16.97,1.1,1.94,2.2,2.91,3.3.96,1.09,1.91,2.17,2.87,3.26,1.56,1.77,3.11,3.54,4.67,5.3,1.08,1.23,2.16,2.46,3.24,3.69.06.07.11.14.17.21-.1.04-.2.02-.3.02-9.15,0-18.31,0-27.46,0-.1,0-.2.02-.3-.02Z"/>
  <path class="cls-1" d="m74.91,32.09c.02.54-.11,1.05-.32,1.54-.04.1-.09.2-.16.29-.06.08-.12.16-.18.24-.8,1.01-1.87,1.35-3.1,1.23-.53-.05-1.03-.24-1.47-.54-.79-.54-1.21-1.3-1.33-2.24-.06-.47-.06-.94.06-1.4.23-.87.72-1.55,1.51-1.99.2-.11.4-.22.62-.3.83-.32,1.64-.26,2.43.14.16.08.32.17.47.26.3.17.53.41.76.67.37.42.55.92.67,1.45.05.21.03.44.05.66Zm-.55.05c.03-.77-.21-1.4-.72-1.93-.39-.4-.86-.68-1.4-.83-.32-.09-.65-.13-.98-.07-.58.11-1.09.38-1.55.75-.21.17-.38.38-.51.62-.13.24-.24.5-.32.77-.12.4-.12.8-.02,1.21.12.47.34.89.63,1.28.25.33.57.58.97.72.98.34,1.92.28,2.8-.3.27-.18.48-.41.66-.69.3-.48.45-1,.43-1.53Z"/>
  <path class="cls-2" d="m69.17,40.01h-.34c-4.09,0-8.18,0-12.28,0-.03,0-.06,0-.09,0-.15.03-.26-.04-.36-.16-1.03-1.14-2.06-2.28-3.09-3.42-3.41-3.78-6.82-7.56-10.23-11.33-4.25-4.71-8.5-9.42-12.76-14.13-.05-.05-.09-.1-.13-.15,0-.02,0-.03,0-.04,0,0,0-.02.01-.03,2.17-2.46,4.34-4.93,6.51-7.39.03-.03.06-.05.09-.08.18.15,32.46,36.46,32.66,36.74Z"/>
  <path class="cls-2" d="m28.9,12.01c8.35,9.33,16.68,18.63,25.01,27.94-.02.08-.07.06-.12.06-.07,0-.14,0-.21,0-3.26,0-6.53,0-9.79,0-.23,0-.38-.07-.53-.24-4.74-5.32-9.49-10.63-14.23-15.94-1.69-1.89-3.38-3.78-5.06-5.67,0,0-.01-.01-.02-.02-.24-.28-.24-.2,0-.47,1.58-1.8,3.15-3.6,4.73-5.41.07-.07.13-.15.23-.25Z"/>
  <path class="cls-2" d="m41.41,40.01h-.31c-2.6,0-5.21,0-7.81,0-.02,0-.04,0-.06,0-.16.02-.27-.04-.38-.16-.6-.69-1.21-1.38-1.82-2.06-4.08-4.61-8.16-9.22-12.24-13.83-.24-.27-.24-.2,0-.47,1.25-1.42,2.5-2.85,3.76-4.27.07-.07.13-.15.2-.22.02,0,.03,0,.04,0,0,0,.02,0,.03.01,6.18,6.96,12.36,13.92,18.54,20.88.02.02.03.05.07.11Z"/>
  <path class="cls-1" d="m71.96,32.35c.1.2.32.28.45.46.13.18.28.34.38.54.1.19.22.38.32.59-.11.04-.2.02-.28.02-.09,0-.18,0-.27,0-.06,0-.09-.04-.12-.08-.07-.11-.13-.23-.19-.34-.12-.2-.24-.39-.37-.58-.05-.07-.11-.14-.17-.21-.25-.31-.58-.39-.96-.34-.05,0-.07.04-.07.08,0,.28,0,.56,0,.84,0,.18,0,.36,0,.54,0,.06-.03.09-.09.09-.56,0-.48.1-.48-.43,0-.95,0-1.89,0-2.84,0-.08,0-.16,0-.24,0-.04.03-.07.07-.08.05,0,.1,0,.15,0,.38,0,.76,0,1.14,0,.27,0,.53.06.8.08.05,0,.09.03.13.06.2.14.35.33.44.55.1.24.06.49-.06.72-.14.28-.35.48-.68.52-.05,0-.1,0-.14.05Zm-.71-1.5h0c-.16,0-.32,0-.48,0-.06,0-.09.04-.09.09,0,.29,0,.58,0,.87,0,.05.02.11.08.11.36,0,.72.03,1.07-.05.11-.03.2-.08.29-.14.3-.23.24-.65-.11-.79-.11-.04-.22-.08-.35-.08-.14,0-.28,0-.42,0Z"/>
</svg>