<?xml version="1.0" encoding="UTF-8"?>
<svg id="Vrstva_1" data-name="Vrstva 1" xmlns="http://www.w3.org/2000/svg" viewBox="0 0 135.66 19.27">
  <defs>
    <style>
      .cls-1 {
        stroke-width: 0px;
      }
    </style>
  </defs>
  <path class="cls-1" d="m12.22,14.86H4.05l-1.48,4.07H0L6.77.78h2.72l6.77,18.16h-2.57l-1.48-4.07Zm-.83-2.26l-3.27-8.95-3.24,8.95h6.51Z"/>
  <path class="cls-1" d="m29.26,5.97v12.97h-2.26v-1.87c-.96,1.53-2.38,2.21-4.2,2.21-3.04,0-5.03-2.02-5.03-5.34v-7.96h2.25v7.83c0,2.13,1.22,3.32,3.22,3.32s3.76-1.22,3.76-4.28v-6.87h2.26Z"/>
  <path class="cls-1" d="m36.3,8.14v7.03c0,1.97,1.14,1.84,3.45,1.74v2.02c-3.89.52-5.71-.52-5.71-3.76v-7.03h-2.57v-2.18h2.57v-2.96l2.26-.67v3.63h3.45v2.18h-3.45Z"/>
  <path class="cls-1" d="m41.05,12.45c0-3.84,3.03-6.82,6.82-6.82s6.85,2.98,6.85,6.82-3.06,6.82-6.85,6.82-6.82-2.98-6.82-6.82m11.41,0c0-2.62-2-4.62-4.59-4.62s-4.57,2-4.57,4.62,2,4.62,4.57,4.62,4.59-2,4.59-4.62"/>
  <path class="cls-1" d="m70.38.78v18.16h-2.26v-2.23c-1.04,1.58-2.7,2.57-4.9,2.57-3.61,0-6.56-2.98-6.56-6.82s2.96-6.82,6.56-6.82c2.2,0,3.86.99,4.9,2.57V.78h2.26Zm-2.26,11.67c0-2.65-2-4.64-4.62-4.64s-4.59,2-4.59,4.64,2,4.64,4.59,4.64,4.62-2,4.62-4.64"/>
  <path class="cls-1" d="m73.09,12.45c0-3.84,3.03-6.82,6.82-6.82s6.85,2.98,6.85,6.82-3.06,6.82-6.85,6.82-6.82-2.98-6.82-6.82m11.41,0c0-2.62-2-4.62-4.59-4.62s-4.57,2-4.57,4.62,2,4.62,4.57,4.62,4.59-2,4.59-4.62"/>
  <rect class="cls-1" x="89.43" width="2.26" height="18.93"/>
  <path class="cls-1" d="m101.41,17.14c1.79,0,3.09-.83,3.74-1.89l1.92,1.09c-1.14,1.76-3.11,2.93-5.7,2.93-4.18,0-6.95-2.93-6.95-6.82s2.75-6.82,6.8-6.82,6.46,3.22,6.46,6.85c0,.34-.03.67-.08,1.01h-10.87c.44,2.33,2.28,3.66,4.69,3.66m-4.69-5.63h8.66c-.39-2.57-2.23-3.76-4.18-3.76-2.44,0-4.13,1.5-4.49,3.76"/>
  <polygon class="cls-1" points="121.26 5.97 116.07 18.93 113.43 18.93 108.24 5.97 110.68 5.97 114.75 16.52 118.82 5.97 121.26 5.97"/>
  <path class="cls-1" d="m135.66,5.97v12.97h-2.26v-2.23c-1.04,1.58-2.7,2.57-4.9,2.57-3.6,0-6.56-2.98-6.56-6.82s2.96-6.82,6.56-6.82c2.21,0,3.87.99,4.9,2.57v-2.23h2.26Zm-2.26,6.48c0-2.65-2-4.64-4.62-4.64s-4.59,2-4.59,4.64,2,4.64,4.59,4.64,4.62-2,4.62-4.64"/>
</svg>