<?xml version="1.0" encoding="UTF-8"?>
<svg id="Vrstva_1" data-name="Vrstva 1" xmlns="http://www.w3.org/2000/svg" viewBox="0 0 96.63 35.89">
  <defs>
    <style>
      .cls-1 {
        stroke-width: 0px;
      }
    </style>
  </defs>
  <path class="cls-1" d="m18.63,1.87h3.48c.35,0,.62-.09.82-.28.2-.19.3-.41.3-.65s-.1-.47-.3-.65c-.2-.19-.47-.28-.82-.28h-3.48c-.35,0-.62.09-.82.28-.2.19-.3.41-.3.65s.1.47.3.65c.2.19.47.28.82.28m3.42,2.39h1.42c.27,0,.5-.09.68-.28.18-.19.27-.4.27-.65s-.09-.47-.27-.65c-.18-.19-.41-.28-.68-.28h-1.42c-.27,0-.5.09-.68.28-.18.19-.27.4-.27.65s.09.47.27.65c.18.19.41.28.68.28m-4.78,0h1.42c.27,0,.5-.09.68-.28.18-.19.27-.4.27-.65s-.09-.47-.27-.65c-.18-.19-.41-.28-.68-.28h-1.42c-.27,0-.5.09-.68.28-.18.19-.27.4-.27.65s.09.47.27.65c.18.19.41.28.68.28m0,2.39h2.62c.27,0,.5-.09.68-.28.18-.19.27-.4.27-.65s-.09-.47-.27-.65-.41-.28-.68-.28h-2.62c-.27,0-.5.09-.68.28-.18.19-.27.41-.27.65s.09.47.27.65c.18.19.41.28.68.28m1.2,2.39h2.62c.27,0,.5-.09.68-.28.18-.19.27-.41.27-.65s-.09-.47-.27-.65c-.18-.19-.41-.28-.68-.28h-2.62c-.27,0-.5.09-.68.28-.18.19-.27.4-.27.65s.09.47.27.65c.18.19.41.28.68.28m2.39,2.39h2.62c.27,0,.5-.09.68-.28.18-.19.27-.4.27-.65s-.09-.47-.27-.65c-.18-.19-.41-.28-.68-.28h-2.62c-.27,0-.5.09-.68.28-.18.19-.27.4-.27.65s.09.47.27.65c.18.19.41.28.68.28m1.2,2.39h1.42c.27,0,.5-.09.68-.28.18-.19.27-.4.27-.65s-.09-.47-.27-.66c-.18-.19-.41-.28-.68-.28h-1.42c-.27,0-.5.09-.68.28-.18.19-.27.41-.27.66s.09.47.27.65c.18.19.41.28.68.28m-4.78,0h1.42c.27,0,.5-.09.68-.28.18-.19.27-.4.27-.65s-.09-.47-.27-.66c-.18-.19-.41-.28-.68-.28h-1.42c-.27,0-.5.09-.68.28-.18.19-.27.41-.27.66s.09.47.27.65c.18.19.41.28.68.28m1.36,2.39h3.48c.35,0,.62-.09.82-.28.2-.19.3-.41.3-.65s-.1-.47-.3-.65c-.2-.19-.47-.28-.82-.28h-3.48c-.35,0-.62.09-.82.28-.2.19-.3.4-.3.65s.1.47.3.65c.2.19.47.28.82.28"/>
  <path class="cls-1" d="m32.96,1.87h1.42c.27,0,.5-.09.68-.28.18-.19.27-.41.27-.65s-.09-.47-.27-.65c-.18-.19-.41-.28-.68-.28h-1.42c-.27,0-.5.09-.68.28-.18.19-.27.41-.27.65s.09.47.27.65c.18.19.41.28.68.28m-5.98,0h2.62c.27,0,.5-.09.68-.28.18-.19.27-.41.27-.65s-.09-.47-.27-.65c-.18-.19-.41-.28-.68-.28h-2.62c-.27,0-.5.09-.68.28-.18.19-.27.41-.27.65s.09.47.27.65c.18.19.41.28.68.28m5.98,2.39h1.42c.27,0,.5-.09.68-.28.18-.19.27-.4.27-.65s-.09-.47-.27-.65c-.18-.19-.41-.28-.68-.28h-1.42c-.27,0-.5.09-.68.28-.18.19-.27.4-.27.65s.09.47.27.65c.18.19.41.28.68.28m-4.78,0h1.42c.27,0,.5-.09.68-.28.18-.19.27-.4.27-.65s-.09-.47-.27-.65c-.18-.19-.41-.28-.68-.28h-1.42c-.27,0-.5.09-.68.28-.18.19-.27.4-.27.65s.09.47.27.65c.18.19.41.28.68.28m3.59,2.39h1.42c.27,0,.5-.09.68-.28.18-.19.27-.4.27-.65s-.09-.47-.27-.65c-.18-.19-.41-.28-.68-.28h-1.42c-.27,0-.5.09-.68.28-.18.19-.27.41-.27.65s.09.47.27.65c.18.19.41.28.68.28m-3.59,0h1.42c.27,0,.5-.09.68-.28.18-.19.27-.4.27-.65s-.09-.47-.27-.65c-.18-.19-.41-.28-.68-.28h-1.42c-.27,0-.5.09-.68.28-.18.19-.27.41-.27.65s.09.47.27.65c.18.19.41.28.68.28m.17,2.39h3.48c.35,0,.62-.09.82-.28.2-.19.3-.41.3-.65s-.1-.47-.3-.65-.47-.28-.82-.28h-3.48c-.35,0-.62.09-.82.28-.2.19-.3.4-.3.65s.1.47.3.65c.2.19.47.28.82.28m3.42,2.39h1.42c.27,0,.5-.09.68-.28.18-.19.27-.4.27-.65s-.09-.47-.27-.65c-.18-.19-.41-.28-.68-.28h-1.42c-.27,0-.5.09-.68.28-.18.19-.27.4-.27.65s.09.47.27.65c.18.19.41.28.68.28m-3.59,0h1.42c.27,0,.5-.09.68-.28.18-.19.27-.4.27-.65s-.09-.47-.27-.65c-.18-.19-.41-.28-.68-.28h-1.42c-.27,0-.5.09-.68.28-.18.19-.27.4-.27.65s.09.47.27.65c.18.19.41.28.68.28m4.78,2.39h1.42c.27,0,.5-.09.68-.28.18-.19.27-.4.27-.65s-.09-.47-.27-.66c-.18-.19-.41-.28-.68-.28h-1.42c-.27,0-.5.09-.68.28-.18.19-.27.41-.27.66s.09.47.27.65c.18.19.41.28.68.28m-4.78,0h1.42c.27,0,.5-.09.68-.28.18-.19.27-.4.27-.65s-.09-.47-.27-.66c-.18-.19-.41-.28-.68-.28h-1.42c-.27,0-.5.09-.68.28-.18.19-.27.41-.27.66s.09.47.27.65c.18.19.41.28.68.28m4.78,2.39h1.42c.27,0,.5-.09.68-.28.18-.19.27-.41.27-.65s-.09-.47-.27-.65c-.18-.19-.41-.28-.68-.28h-1.42c-.27,0-.5.09-.68.28-.18.19-.27.4-.27.65s.09.47.27.65c.18.19.41.28.68.28m-5.98,0h2.62c.27,0,.5-.09.68-.28.18-.19.27-.41.27-.65s-.09-.47-.27-.65c-.18-.19-.41-.28-.68-.28h-2.62c-.27,0-.5.09-.68.28-.18.19-.27.4-.27.65s.09.47.27.65c.18.19.41.28.68.28"/>
  <path class="cls-1" d="m40.93,1.87h7.07c.35,0,.62-.09.82-.28.2-.19.3-.41.3-.65s-.1-.47-.3-.65c-.2-.19-.47-.28-.82-.28h-7.07c-.35,0-.62.09-.82.28-.2.19-.3.41-.3.65s.1.47.3.65c.2.19.47.28.82.28m5.81,2.39h1.42c.27,0,.5-.09.68-.28.18-.19.27-.4.27-.65s-.09-.47-.27-.65c-.18-.19-.41-.28-.68-.28h-1.42c-.27,0-.5.09-.68.28-.18.19-.27.4-.27.65s.09.47.27.65c.18.19.41.28.68.28m-5.98,0h1.42c.27,0,.5-.09.68-.28.18-.19.27-.4.27-.65s-.09-.47-.27-.65c-.18-.19-.41-.28-.68-.28h-1.42c-.27,0-.5.09-.68.28-.18.19-.27.4-.27.65s.09.47.27.65c.18.19.41.28.68.28m4.79,2.39h1.42c.27,0,.5-.09.68-.28.18-.19.27-.4.27-.65s-.09-.47-.27-.65c-.18-.19-.41-.28-.68-.28h-1.42c-.27,0-.5.09-.68.28-.18.19-.27.41-.27.65s.09.47.27.65c.18.19.41.28.68.28m-4.99,0h.64c.21,0,.39-.09.53-.28.14-.19.21-.4.21-.65s-.07-.47-.21-.65c-.14-.19-.32-.28-.53-.28h-.64c-.21,0-.39.09-.53.28-.14.19-.21.41-.21.65s.07.47.21.65c.14.19.32.28.53.28m3.79,2.39h1.42c.27,0,.5-.09.68-.28.18-.19.27-.41.27-.65s-.09-.47-.27-.65c-.18-.19-.41-.28-.68-.28h-1.42c-.27,0-.5.09-.68.28-.18.19-.27.4-.27.65s.09.47.27.65c.18.19.41.28.68.28m3.38,2.39h.64c.21,0,.39-.09.53-.28.14-.19.22-.4.22-.65s-.07-.47-.22-.65c-.14-.19-.32-.28-.53-.28h-.64c-.21,0-.39.09-.53.28-.14.19-.21.4-.21.65s.07.47.21.65c.14.19.32.28.53.28m-4.58,0h1.42c.27,0,.5-.09.68-.28.18-.19.27-.4.27-.65s-.09-.47-.27-.65c-.18-.19-.41-.28-.68-.28h-1.42c-.27,0-.5.09-.68.28-.18.19-.27.4-.27.65s.09.47.27.65c.18.19.41.28.68.28m3.59,2.39h1.42c.27,0,.5-.09.68-.28.18-.19.27-.4.27-.65s-.09-.47-.27-.66c-.18-.19-.41-.28-.68-.28h-1.42c-.27,0-.5.09-.68.28-.18.19-.27.41-.27.66s.09.47.27.65c.18.19.41.28.68.28m-4.79,0h1.42c.27,0,.5-.09.68-.28.18-.19.27-.4.27-.65s-.09-.47-.27-.66c-.18-.19-.41-.28-.68-.28h-1.42c-.27,0-.5.09-.68.28-.18.19-.27.41-.27.66s.09.47.27.65c.18.19.41.28.68.28m-1.03,2.39h7.07c.35,0,.62-.09.82-.28.2-.19.3-.41.3-.65s-.1-.47-.3-.65c-.2-.19-.47-.28-.82-.28h-7.07c-.35,0-.62.09-.82.28-.2.19-.3.4-.3.65s.1.47.3.65c.2.19.47.28.82.28"/>
  <path class="cls-1" d="m51.84,1.87h3.48c.35,0,.62-.09.82-.28.2-.19.3-.41.3-.65s-.1-.47-.3-.65c-.2-.19-.47-.28-.82-.28h-3.48c-.35,0-.62.09-.82.28-.2.19-.3.41-.3.65s.1.47.3.65c.2.19.47.28.82.28m1.03,2.39h1.42c.27,0,.5-.09.68-.28.18-.19.27-.4.27-.65s-.09-.47-.27-.65c-.18-.19-.41-.28-.68-.28h-1.42c-.27,0-.5.09-.68.28-.18.19-.27.4-.27.65s.09.47.27.65c.18.19.41.28.68.28m0,2.39h1.42c.27,0,.5-.09.68-.28.18-.19.27-.4.27-.65s-.09-.47-.27-.65c-.18-.19-.41-.28-.68-.28h-1.42c-.27,0-.5.09-.68.28-.18.19-.27.41-.27.65s.09.47.27.65c.18.19.41.28.68.28m0,2.39h1.42c.27,0,.5-.09.68-.28.18-.19.27-.41.27-.65s-.09-.47-.27-.65c-.18-.19-.41-.28-.68-.28h-1.42c-.27,0-.5.09-.68.28-.18.19-.27.4-.27.65s.09.47.27.65c.18.19.41.28.68.28m5.78,2.39h.64c.21,0,.39-.09.53-.28.14-.19.22-.4.22-.65s-.07-.47-.22-.65c-.14-.19-.32-.28-.53-.28h-.64c-.21,0-.39.09-.53.28-.14.19-.21.4-.21.65s.07.47.21.65c.14.19.32.28.53.28m-5.78,0h1.42c.27,0,.5-.09.68-.28.18-.19.27-.4.27-.65s-.09-.47-.27-.65c-.18-.19-.41-.28-.68-.28h-1.42c-.27,0-.5.09-.68.28-.18.19-.27.4-.27.65s.09.47.27.65c.18.19.41.28.68.28m4.79,2.39h1.42c.27,0,.5-.09.68-.28.18-.19.27-.4.27-.65s-.09-.47-.27-.66c-.18-.19-.41-.28-.68-.28h-1.42c-.27,0-.5.09-.68.28-.18.19-.27.41-.27.66s.09.47.27.65c.18.19.41.28.68.28m-4.79,0h1.42c.27,0,.5-.09.68-.28.18-.19.27-.4.27-.65s-.09-.47-.27-.66c-.18-.19-.41-.28-.68-.28h-1.42c-.27,0-.5.09-.68.28-.18.19-.27.41-.27.66s.09.47.27.65c.18.19.41.28.68.28m-1.03,2.39h7.07c.35,0,.62-.09.82-.28.2-.19.3-.41.3-.65s-.1-.47-.3-.65c-.2-.19-.47-.28-.82-.28h-7.07c-.35,0-.62.09-.82.28-.2.19-.3.4-.3.65s.1.47.3.65c.2.19.47.28.82.28"/>
  <path class="cls-1" d="m62.42,1.87h5.87c.35,0,.62-.09.82-.28.2-.19.3-.41.3-.65s-.1-.47-.3-.65c-.2-.19-.47-.28-.82-.28h-5.87c-.35,0-.62.09-.82.28-.2.19-.3.41-.3.65s.1.47.3.65c.2.19.47.28.82.28m2.22,2.39h1.42c.27,0,.5-.09.68-.28.18-.19.27-.4.27-.65s-.09-.47-.27-.65c-.18-.19-.41-.28-.68-.28h-1.42c-.27,0-.5.09-.68.28-.18.19-.27.4-.27.65s.09.47.27.65c.18.19.41.28.68.28m0,2.39h1.42c.27,0,.5-.09.68-.28.18-.19.27-.4.27-.65s-.09-.47-.27-.65c-.18-.19-.41-.28-.68-.28h-1.42c-.27,0-.5.09-.68.28-.18.19-.27.41-.27.65s.09.47.27.65c.18.19.41.28.68.28m0,2.39h1.42c.27,0,.5-.09.68-.28.18-.19.27-.41.27-.65s-.09-.47-.27-.65c-.18-.19-.41-.28-.68-.28h-1.42c-.27,0-.5.09-.68.28-.18.19-.27.4-.27.65s.09.47.27.65c.18.19.41.28.68.28m0,2.39h1.42c.27,0,.5-.09.68-.28.18-.19.27-.4.27-.65s-.09-.47-.27-.65c-.18-.19-.41-.28-.68-.28h-1.42c-.27,0-.5.09-.68.28-.18.19-.27.4-.27.65s.09.47.27.65c.18.19.41.28.68.28m0,2.39h1.42c.27,0,.5-.09.68-.28.18-.19.27-.4.27-.65s-.09-.47-.27-.66c-.18-.19-.41-.28-.68-.28h-1.42c-.27,0-.5.09-.68.28-.18.19-.27.41-.27.66s.09.47.27.65c.18.19.41.28.68.28m-2.22,2.39h5.87c.35,0,.62-.09.82-.28.2-.19.3-.41.3-.65s-.1-.47-.3-.65c-.2-.19-.47-.28-.82-.28h-5.87c-.35,0-.62.09-.82.28-.2.19-.3.4-.3.65s.1.47.3.65c.2.19.47.28.82.28"/>
  <path class="cls-1" d="m77.94,1.87h1.42c.27,0,.5-.09.68-.28.18-.19.27-.41.27-.65s-.09-.47-.27-.65c-.18-.19-.41-.28-.68-.28h-1.42c-.27,0-.5.09-.68.28-.18.19-.27.41-.27.65s.09.47.27.65c.18.19.41.28.68.28m-5.98,0h1.42c.27,0,.5-.09.68-.28.18-.19.27-.41.27-.65s-.09-.47-.27-.65c-.18-.19-.41-.28-.68-.28h-1.42c-.27,0-.5.09-.68.28-.18.19-.27.41-.27.65s.09.47.27.65c.18.19.41.28.68.28m5.98,2.39h1.42c.27,0,.5-.09.68-.28.18-.19.27-.4.27-.65s-.09-.47-.27-.65c-.18-.19-.41-.28-.68-.28h-1.42c-.27,0-.5.09-.68.28-.18.19-.27.4-.27.65s.09.47.27.65c.18.19.41.28.68.28m-5.98,0h2.62c.27,0,.5-.09.68-.28.18-.19.27-.4.27-.65s-.09-.47-.27-.65c-.18-.19-.41-.28-.68-.28h-2.62c-.27,0-.5.09-.68.28-.18.19-.27.4-.27.65s.09.47.27.65c.18.19.41.28.68.28m5.98,2.39h1.42c.27,0,.5-.09.68-.28.18-.19.27-.4.27-.65s-.09-.47-.27-.65c-.18-.19-.41-.28-.68-.28h-1.42c-.27,0-.5.09-.68.28-.18.19-.27.41-.27.65s.09.47.27.65c.18.19.41.28.68.28m-5.81,0h3.48c.35,0,.62-.09.82-.28.2-.19.3-.4.3-.65s-.1-.47-.3-.65c-.2-.19-.47-.28-.82-.28h-3.48c-.35,0-.62.09-.82.28-.2.19-.3.41-.3.65s.1.47.3.65c.2.19.47.28.82.28m3.59,2.39h3.48c.35,0,.62-.09.82-.28.2-.19.3-.41.3-.65s-.1-.47-.3-.65c-.2-.19-.47-.28-.82-.28h-3.48c-.35,0-.62.09-.82.28s-.3.4-.3.65.1.47.3.65c.2.19.47.28.82.28m-3.76,0h1.42c.27,0,.5-.09.68-.28.18-.19.27-.41.27-.65s-.09-.47-.27-.65c-.18-.19-.41-.28-.68-.28h-1.42c-.27,0-.5.09-.68.28-.18.19-.27.4-.27.65s.09.47.27.65c.18.19.41.28.68.28m4.78,2.39h2.62c.27,0,.5-.09.68-.28.18-.19.27-.4.27-.65s-.09-.47-.27-.65c-.18-.19-.41-.28-.68-.28h-2.62c-.27,0-.5.09-.68.28-.18.19-.27.4-.27.65s.09.47.27.65c.18.19.41.28.68.28m-4.78,0h1.42c.27,0,.5-.09.68-.28.18-.19.27-.4.27-.65s-.09-.47-.27-.65c-.18-.19-.41-.28-.68-.28h-1.42c-.27,0-.5.09-.68.28-.18.19-.27.4-.27.65s.09.47.27.65c.18.19.41.28.68.28m5.98,2.39h1.42c.27,0,.5-.09.68-.28.18-.19.27-.4.27-.65s-.09-.47-.27-.66c-.18-.19-.41-.28-.68-.28h-1.42c-.27,0-.5.09-.68.28-.18.19-.27.41-.27.66s.09.47.27.65c.18.19.41.28.68.28m-5.98,0h1.42c.27,0,.5-.09.68-.28.18-.19.27-.4.27-.65s-.09-.47-.27-.66c-.18-.19-.41-.28-.68-.28h-1.42c-.27,0-.5.09-.68.28-.18.19-.27.41-.27.66s.09.47.27.65c.18.19.41.28.68.28m5.98,2.39h1.42c.27,0,.5-.09.68-.28.18-.19.27-.41.27-.65s-.09-.47-.27-.65c-.18-.19-.41-.28-.68-.28h-1.42c-.27,0-.5.09-.68.28-.18.19-.27.4-.27.65s.09.47.27.65c.18.19.41.28.68.28m-5.98,0h1.42c.27,0,.5-.09.68-.28.18-.19.27-.41.27-.65s-.09-.47-.27-.65c-.18-.19-.41-.28-.68-.28h-1.42c-.27,0-.5.09-.68.28-.18.19-.27.4-.27.65s.09.47.27.65c.18.19.41.28.68.28"/>
  <path class="cls-1" d="m8.13,21.54h1.42c.27,0,.5-.09.68-.28.18-.19.27-.41.27-.65s-.09-.47-.27-.65c-.18-.19-.41-.28-.68-.28h-1.42c-.27,0-.5.09-.68.28-.18.19-.27.4-.27.65s.09.47.27.65c.18.19.41.28.68.28m-7.18,0h1.42c.27,0,.5-.09.68-.28.18-.19.27-.41.27-.65s-.09-.47-.27-.65c-.18-.19-.41-.28-.68-.28H.95c-.27,0-.5.09-.68.28-.18.19-.27.4-.27.65s.09.47.27.65c.18.19.41.28.68.28m7.18,2.39h1.42c.27,0,.5-.09.68-.28.18-.19.27-.4.27-.65s-.09-.47-.27-.65c-.18-.19-.41-.28-.68-.28h-1.42c-.27,0-.5.09-.68.28-.18.19-.27.4-.27.65s.09.47.27.65c.18.19.41.28.68.28m-7.18,0h1.42c.27,0,.5-.09.68-.28.18-.19.27-.4.27-.65s-.09-.47-.27-.65c-.18-.19-.41-.28-.68-.28H.95c-.27,0-.5.09-.68.28-.18.19-.27.4-.27.65s.09.47.27.65c.18.19.41.28.68.28m5.98,2.39h1.42c.27,0,.5-.09.68-.28.18-.19.27-.4.27-.65s-.09-.47-.27-.65c-.18-.19-.41-.28-.68-.28h-1.42c-.27,0-.5.09-.68.28-.18.19-.27.41-.27.65s.09.47.27.65c.18.19.41.28.68.28m-4.79,0h1.42c.27,0,.5-.09.68-.28.18-.19.27-.4.27-.65s-.09-.47-.27-.65c-.18-.19-.41-.28-.68-.28h-1.42c-.27,0-.5.09-.68.28-.18.19-.27.41-.27.65s.09.47.27.65c.18.19.41.28.68.28m4.79,2.39h1.42c.27,0,.5-.09.68-.28.18-.19.27-.41.27-.65s-.09-.47-.27-.65c-.18-.19-.41-.28-.68-.28h-1.42c-.27,0-.5.09-.68.28-.18.19-.27.4-.27.65s.09.47.27.65c.18.19.41.28.68.28m-4.79,0h1.42c.27,0,.5-.09.68-.28.18-.19.27-.41.27-.65s-.09-.47-.27-.65c-.18-.19-.41-.28-.68-.28h-1.42c-.27,0-.5.09-.68.28-.18.19-.27.4-.27.65s.09.47.27.65c.18.19.41.28.68.28m1.37,2.39h3.48c.35,0,.62-.09.82-.28.2-.19.3-.4.3-.65s-.1-.47-.3-.66c-.2-.19-.47-.28-.82-.28h-3.48c-.35,0-.62.09-.82.28-.2.19-.3.41-.3.66s.1.47.3.65c.2.19.47.28.82.28m0,2.39h3.48c.35,0,.62-.09.82-.28.2-.19.3-.41.3-.65s-.1-.47-.3-.65c-.2-.19-.47-.28-.82-.28h-3.48c-.35,0-.62.09-.82.28-.2.19-.3.41-.3.65s.1.47.3.65c.2.19.47.28.82.28m1.03,2.39h1.42c.27,0,.5-.09.68-.28.18-.19.27-.41.27-.65s-.09-.47-.27-.65c-.18-.19-.41-.28-.68-.28h-1.42c-.27,0-.5.09-.68.28-.18.19-.27.4-.27.65s.09.47.27.65c.18.19.41.28.68.28"/>
  <path class="cls-1" d="m13.23,21.54h5.87c.35,0,.62-.09.82-.28.2-.19.3-.41.3-.65s-.1-.47-.3-.65c-.2-.19-.47-.28-.82-.28h-5.87c-.35,0-.62.09-.82.28-.2.19-.3.4-.3.65s.1.47.3.65c.2.19.47.28.82.28m2.22,2.39h1.42c.27,0,.5-.09.68-.28.18-.19.27-.4.27-.65s-.09-.47-.27-.65c-.18-.19-.41-.28-.68-.28h-1.42c-.27,0-.5.09-.68.28-.18.19-.27.4-.27.65s.09.47.27.65c.18.19.41.28.68.28m0,2.39h1.42c.27,0,.5-.09.68-.28.18-.19.27-.4.27-.65s-.09-.47-.27-.65c-.18-.19-.41-.28-.68-.28h-1.42c-.27,0-.5.09-.68.28-.18.19-.27.41-.27.65s.09.47.27.65c.18.19.41.28.68.28m0,2.39h1.42c.27,0,.5-.09.68-.28.18-.19.27-.41.27-.65s-.09-.47-.27-.65c-.18-.19-.41-.28-.68-.28h-1.42c-.27,0-.5.09-.68.28-.18.19-.27.4-.27.65s.09.47.27.65c.18.19.41.28.68.28m0,2.39h1.42c.27,0,.5-.09.68-.28.18-.19.27-.4.27-.65s-.09-.47-.27-.66c-.18-.19-.41-.28-.68-.28h-1.42c-.27,0-.5.09-.68.28-.18.19-.27.41-.27.66s.09.47.27.65c.18.19.41.28.68.28m0,2.39h1.42c.27,0,.5-.09.68-.28.18-.19.27-.41.27-.65s-.09-.47-.27-.65c-.18-.19-.41-.28-.68-.28h-1.42c-.27,0-.5.09-.68.28-.18.19-.27.41-.27.65s.09.47.27.65c.18.19.41.28.68.28m-2.22,2.39h5.87c.35,0,.62-.09.82-.28.2-.19.3-.41.3-.65s-.1-.47-.3-.65c-.2-.19-.47-.28-.82-.28h-5.87c-.35,0-.62.09-.82.28-.2.19-.3.4-.3.65s.1.47.3.65c.2.19.47.28.82.28"/>
  <path class="cls-1" d="m28.75,21.54h1.42c.27,0,.5-.09.68-.28.18-.19.27-.41.27-.65s-.09-.47-.27-.65c-.18-.19-.41-.28-.68-.28h-1.42c-.27,0-.5.09-.68.28-.18.19-.27.4-.27.65s.09.47.27.65c.18.19.41.28.68.28m-5.98,0h1.42c.27,0,.5-.09.68-.28.18-.19.27-.41.27-.65s-.09-.47-.27-.65c-.18-.19-.41-.28-.68-.28h-1.42c-.27,0-.5.09-.68.28-.18.19-.27.4-.27.65s.09.47.27.65c.18.19.41.28.68.28m5.98,2.39h1.42c.27,0,.5-.09.68-.28.18-.19.27-.4.27-.65s-.09-.47-.27-.65c-.18-.19-.41-.28-.68-.28h-1.42c-.27,0-.5.09-.68.28-.18.19-.27.4-.27.65s.09.47.27.65c.18.19.41.28.68.28m-5.98,0h2.62c.27,0,.5-.09.68-.28.18-.19.27-.4.27-.65s-.09-.47-.27-.65c-.18-.19-.41-.28-.68-.28h-2.62c-.27,0-.5.09-.68.28-.18.19-.27.4-.27.65s.09.47.27.65c.18.19.41.28.68.28m5.98,2.39h1.42c.27,0,.5-.09.68-.28.18-.19.27-.4.27-.65s-.09-.47-.27-.65c-.18-.19-.41-.28-.68-.28h-1.42c-.27,0-.5.09-.68.28-.18.19-.27.41-.27.65s.09.47.27.65c.18.19.41.28.68.28m-5.81,0h3.48c.35,0,.62-.09.82-.28.2-.19.3-.4.3-.65s-.1-.47-.3-.65c-.2-.19-.47-.28-.82-.28h-3.48c-.35,0-.62.09-.82.28-.2.19-.3.41-.3.65s.1.47.3.65c.2.19.47.28.82.28m3.59,2.39h3.48c.35,0,.62-.09.82-.28.2-.19.3-.41.3-.65s-.1-.47-.3-.65c-.2-.19-.47-.28-.82-.28h-3.48c-.35,0-.62.09-.82.28s-.3.4-.3.65.1.47.3.65c.2.19.47.28.82.28m-3.76,0h1.42c.27,0,.5-.09.68-.28.18-.19.27-.41.27-.65s-.09-.47-.27-.65c-.18-.19-.41-.28-.68-.28h-1.42c-.27,0-.5.09-.68.28-.18.19-.27.4-.27.65s.09.47.27.65c.18.19.41.28.68.28m4.78,2.39h2.62c.27,0,.5-.09.68-.28.18-.19.27-.4.27-.65s-.09-.47-.27-.66c-.18-.19-.41-.28-.68-.28h-2.62c-.27,0-.5.09-.68.28-.18.19-.27.41-.27.66s.09.47.27.65c.18.19.41.28.68.28m-4.78,0h1.42c.27,0,.5-.09.68-.28.18-.19.27-.4.27-.65s-.09-.47-.27-.66c-.18-.19-.41-.28-.68-.28h-1.42c-.27,0-.5.09-.68.28-.18.19-.27.41-.27.66s.09.47.27.65c.18.19.41.28.68.28m5.98,2.39h1.42c.27,0,.5-.09.68-.28.18-.19.27-.41.27-.65s-.09-.47-.27-.65c-.18-.19-.41-.28-.68-.28h-1.42c-.27,0-.5.09-.68.28-.18.19-.27.41-.27.65s.09.47.27.65c.18.19.41.28.68.28m-5.98,0h1.42c.27,0,.5-.09.68-.28.18-.19.27-.41.27-.65s-.09-.47-.27-.65c-.18-.19-.41-.28-.68-.28h-1.42c-.27,0-.5.09-.68.28-.18.19-.27.41-.27.65s.09.47.27.65c.18.19.41.28.68.28m5.98,2.39h1.42c.27,0,.5-.09.68-.28.18-.19.27-.41.27-.65s-.09-.47-.27-.65c-.18-.19-.41-.28-.68-.28h-1.42c-.27,0-.5.09-.68.28-.18.19-.27.4-.27.65s.09.47.27.65c.18.19.41.28.68.28m-5.98,0h1.42c.27,0,.5-.09.68-.28.18-.19.27-.41.27-.65s-.09-.47-.27-.65c-.18-.19-.41-.28-.68-.28h-1.42c-.27,0-.5.09-.68.28-.18.19-.27.4-.27.65s.09.47.27.65c.18.19.41.28.68.28"/>
  <path class="cls-1" d="m36.07,21.54h2.62c.27,0,.5-.09.68-.28.18-.19.27-.41.27-.65s-.09-.47-.27-.65c-.18-.19-.41-.28-.68-.28h-2.62c-.27,0-.5.09-.68.28-.18.19-.27.4-.27.65s.09.47.27.65c.18.19.41.28.68.28m2.39,2.39h1.42c.27,0,.5-.09.68-.28.18-.19.27-.4.27-.65s-.09-.47-.27-.65c-.18-.19-.41-.28-.68-.28h-1.42c-.27,0-.5.09-.68.28-.18.19-.27.4-.27.65s.09.47.27.65c.18.19.41.28.68.28m-3.59,0h1.42c.27,0,.5-.09.68-.28.18-.19.27-.4.27-.65s-.09-.47-.27-.65c-.18-.19-.41-.28-.68-.28h-1.42c-.27,0-.5.09-.68.28-.18.19-.27.4-.27.65s.09.47.27.65c.18.19.41.28.68.28m4.78,2.39h1.42c.27,0,.5-.09.68-.28.18-.19.27-.4.27-.65s-.09-.47-.27-.65c-.18-.19-.41-.28-.68-.28h-1.42c-.27,0-.5.09-.68.28-.18.19-.27.41-.27.65s.09.47.27.65c.18.19.41.28.68.28m-5.98,0h1.42c.27,0,.5-.09.68-.28.18-.19.27-.4.27-.65s-.09-.47-.27-.65c-.18-.19-.41-.28-.68-.28h-1.42c-.27,0-.5.09-.68.28-.18.19-.27.41-.27.65s.09.47.27.65c.18.19.41.28.68.28m5.98,2.39h1.42c.27,0,.5-.09.68-.28.18-.19.27-.41.27-.65s-.09-.47-.27-.65c-.18-.19-.41-.28-.68-.28h-1.42c-.27,0-.5.09-.68.28-.18.19-.27.4-.27.65s.09.47.27.65c.18.19.41.28.68.28m-5.98,0h1.42c.27,0,.5-.09.68-.28.18-.19.27-.41.27-.65s-.09-.47-.27-.65c-.18-.19-.41-.28-.68-.28h-1.42c-.27,0-.5.09-.68.28-.18.19-.27.4-.27.65s.09.47.27.65c.18.19.41.28.68.28m5.98,2.39h1.42c.27,0,.5-.09.68-.28.18-.19.27-.4.27-.65s-.09-.47-.27-.66c-.18-.19-.41-.28-.68-.28h-1.42c-.27,0-.5.09-.68.28-.18.19-.27.41-.27.66s.09.47.27.65c.18.19.41.28.68.28m-5.98,0h1.42c.27,0,.5-.09.68-.28.18-.19.27-.4.27-.65s-.09-.47-.27-.66c-.18-.19-.41-.28-.68-.28h-1.42c-.27,0-.5.09-.68.28-.18.19-.27.41-.27.66s.09.47.27.65c.18.19.41.28.68.28m4.79,2.39h1.42c.27,0,.5-.09.68-.28.18-.19.27-.41.27-.65s-.09-.47-.27-.65c-.18-.19-.41-.28-.68-.28h-1.42c-.27,0-.5.09-.68.28-.18.19-.27.41-.27.65s.09.47.27.65c.18.19.41.28.68.28m-3.59,0h1.42c.27,0,.5-.09.68-.28.18-.19.27-.41.27-.65s-.09-.47-.27-.65c-.18-.19-.41-.28-.68-.28h-1.42c-.27,0-.5.09-.68.28-.18.19-.27.41-.27.65s.09.47.27.65c.18.19.41.28.68.28m1.2,2.39h2.62c.27,0,.5-.09.68-.28.18-.19.27-.41.27-.65s-.09-.47-.27-.65c-.18-.19-.41-.28-.68-.28h-2.62c-.27,0-.5.09-.68.28-.18.19-.27.4-.27.65s.09.47.27.65c.18.19.41.28.68.28"/>
  <path class="cls-1" d="m49.42,21.54h1.42c.27,0,.5-.09.68-.28.18-.19.27-.41.27-.65s-.09-.47-.27-.65c-.18-.19-.41-.28-.68-.28h-1.42c-.27,0-.5.09-.68.28-.18.19-.27.4-.27.65s.09.47.27.65c.18.19.41.28.68.28m-4.78,0h1.42c.27,0,.5-.09.68-.28.18-.19.27-.41.27-.65s-.09-.47-.27-.65c-.18-.19-.41-.28-.68-.28h-1.42c-.27,0-.5.09-.68.28-.18.19-.27.4-.27.65s.09.47.27.65c.18.19.41.28.68.28m4.78,2.39h1.42c.27,0,.5-.09.68-.28.18-.19.27-.4.27-.65s-.09-.47-.27-.65c-.18-.19-.41-.28-.68-.28h-1.42c-.27,0-.5.09-.68.28-.18.19-.27.4-.27.65s.09.47.27.65c.18.19.41.28.68.28m-4.78,0h1.42c.27,0,.5-.09.68-.28.18-.19.27-.4.27-.65s-.09-.47-.27-.65c-.18-.19-.41-.28-.68-.28h-1.42c-.27,0-.5.09-.68.28-.18.19-.27.4-.27.65s.09.47.27.65c.18.19.41.28.68.28m4.78,2.39h1.42c.27,0,.5-.09.68-.28.18-.19.27-.4.27-.65s-.09-.47-.27-.65c-.18-.19-.41-.28-.68-.28h-1.42c-.27,0-.5.09-.68.28-.18.19-.27.41-.27.65s.09.47.27.65c.18.19.41.28.68.28m-4.78,0h1.42c.27,0,.5-.09.68-.28.18-.19.27-.4.27-.65s-.09-.47-.27-.65c-.18-.19-.41-.28-.68-.28h-1.42c-.27,0-.5.09-.68.28-.18.19-.27.41-.27.65s.09.47.27.65c.18.19.41.28.68.28m.17,2.39h5.87c.35,0,.62-.09.82-.28.2-.19.3-.41.3-.65s-.1-.47-.3-.65c-.2-.19-.47-.28-.82-.28h-5.87c-.35,0-.62.09-.82.28-.2.19-.3.4-.3.65s.1.47.3.65c.2.19.47.28.82.28m4.62,2.39h1.42c.27,0,.5-.09.68-.28.18-.19.27-.4.27-.65s-.09-.47-.27-.66c-.18-.19-.41-.28-.68-.28h-1.42c-.27,0-.5.09-.68.28-.18.19-.27.41-.27.66s.09.47.27.65c.18.19.41.28.68.28m-4.78,0h1.42c.27,0,.5-.09.68-.28.18-.19.27-.4.27-.65s-.09-.47-.27-.66c-.18-.19-.41-.28-.68-.28h-1.42c-.27,0-.5.09-.68.28-.18.19-.27.41-.27.66s.09.47.27.65c.18.19.41.28.68.28m4.78,2.39h1.42c.27,0,.5-.09.68-.28.18-.19.27-.41.27-.65s-.09-.47-.27-.65c-.18-.19-.41-.28-.68-.28h-1.42c-.27,0-.5.09-.68.28-.18.19-.27.41-.27.65s.09.47.27.65c.18.19.41.28.68.28m-4.78,0h1.42c.27,0,.5-.09.68-.28.18-.19.27-.41.27-.65s-.09-.47-.27-.65c-.18-.19-.41-.28-.68-.28h-1.42c-.27,0-.5.09-.68.28-.18.19-.27.41-.27.65s.09.47.27.65c.18.19.41.28.68.28m4.78,2.39h1.42c.27,0,.5-.09.68-.28.18-.19.27-.41.27-.65s-.09-.47-.27-.65c-.18-.19-.41-.28-.68-.28h-1.42c-.27,0-.5.09-.68.28-.18.19-.27.4-.27.65s.09.47.27.65c.18.19.41.28.68.28m-4.78,0h1.42c.27,0,.5-.09.68-.28.18-.19.27-.41.27-.65s-.09-.47-.27-.65c-.18-.19-.41-.28-.68-.28h-1.42c-.27,0-.5.09-.68.28-.18.19-.27.4-.27.65s.09.47.27.65c.18.19.41.28.68.28"/>
  <path class="cls-1" d="m54.52,21.54h5.87c.35,0,.62-.09.82-.28.2-.19.3-.41.3-.65s-.1-.47-.3-.65c-.2-.19-.47-.28-.82-.28h-5.87c-.35,0-.62.09-.82.28-.2.19-.3.4-.3.65s.1.47.3.65c.2.19.47.28.82.28m5.81,2.39h1.42c.27,0,.5-.09.68-.28.18-.19.27-.4.27-.65s-.09-.47-.27-.65c-.18-.19-.41-.28-.68-.28h-1.42c-.27,0-.5.09-.68.28-.18.19-.27.4-.27.65s.09.47.27.65c.18.19.41.28.68.28m-4.78,0h1.42c.27,0,.5-.09.68-.28.18-.19.27-.4.27-.65s-.09-.47-.27-.65c-.18-.19-.41-.28-.68-.28h-1.42c-.27,0-.5.09-.68.28-.18.19-.27.4-.27.65s.09.47.27.65c.18.19.41.28.68.28m4.78,2.39h1.42c.27,0,.5-.09.68-.28.18-.19.27-.4.27-.65s-.09-.47-.27-.65c-.18-.19-.41-.28-.68-.28h-1.42c-.27,0-.5.09-.68.28-.18.19-.27.41-.27.65s.09.47.27.65c.18.19.41.28.68.28m-4.78,0h1.42c.27,0,.5-.09.68-.28.18-.19.27-.4.27-.65s-.09-.47-.27-.65c-.18-.19-.41-.28-.68-.28h-1.42c-.27,0-.5.09-.68.28-.18.19-.27.41-.27.65s.09.47.27.65c.18.19.41.28.68.28m.17,2.39h4.67c.35,0,.62-.09.82-.28.2-.19.3-.41.3-.65s-.1-.47-.3-.65c-.2-.19-.47-.28-.82-.28h-4.67c-.35,0-.62.09-.82.28-.2.19-.3.4-.3.65s.1.47.3.65c.2.19.47.28.82.28m3.42,2.39h1.42c.27,0,.5-.09.68-.28.18-.19.27-.4.27-.65s-.09-.47-.27-.66c-.18-.19-.41-.28-.68-.28h-1.42c-.27,0-.5.09-.68.28-.18.19-.27.41-.27.66s.09.47.27.65c.18.19.41.28.68.28m-3.59,0h1.42c.27,0,.5-.09.68-.28.18-.19.27-.4.27-.65s-.09-.47-.27-.66c-.18-.19-.41-.28-.68-.28h-1.42c-.27,0-.5.09-.68.28-.18.19-.27.41-.27.66s.09.47.27.65c.18.19.41.28.68.28m4.78,2.39h1.42c.27,0,.5-.09.68-.28.18-.19.27-.41.27-.65s-.09-.47-.27-.65c-.18-.19-.41-.28-.68-.28h-1.42c-.27,0-.5.09-.68.28-.18.19-.27.41-.27.65s.09.47.27.65c.18.19.41.28.68.28m-4.78,0h1.42c.27,0,.5-.09.68-.28.18-.19.27-.41.27-.65s-.09-.47-.27-.65c-.18-.19-.41-.28-.68-.28h-1.42c-.27,0-.5.09-.68.28-.18.19-.27.41-.27.65s.09.47.27.65c.18.19.41.28.68.28m5.98,2.39h1.42c.27,0,.5-.09.68-.28.18-.19.27-.41.27-.65s-.09-.47-.27-.65c-.18-.19-.41-.28-.68-.28h-1.42c-.27,0-.5.09-.68.28-.18.19-.27.4-.27.65s.09.47.27.65c.18.19.41.28.68.28m-7.18,0h2.62c.27,0,.5-.09.68-.28.18-.19.27-.41.27-.65s-.09-.47-.27-.65c-.18-.19-.41-.28-.68-.28h-2.62c-.27,0-.5.09-.68.28-.18.19-.27.4-.27.65s.09.47.27.65c.18.19.41.28.68.28"/>
  <path class="cls-1" d="m68.85,21.54h1.42c.27,0,.5-.09.68-.28.18-.19.27-.41.27-.65s-.09-.47-.27-.65c-.18-.19-.41-.28-.68-.28h-1.42c-.27,0-.5.09-.68.28-.18.19-.27.4-.27.65s.09.47.27.65c.18.19.41.28.68.28m-1.03,2.39h3.48c.35,0,.62-.09.82-.28.2-.19.3-.4.3-.65s-.1-.47-.3-.65c-.2-.19-.47-.28-.82-.28h-3.48c-.35,0-.62.09-.82.28-.2.19-.3.4-.3.65s.1.47.3.65c.2.19.47.28.82.28m0,2.39h3.48c.35,0,.62-.09.82-.28.2-.19.3-.4.3-.65s-.1-.47-.3-.65c-.2-.19-.47-.28-.82-.28h-3.48c-.35,0-.62.09-.82.28-.2.19-.3.41-.3.65s.1.47.3.65c.2.19.47.28.82.28m3.42,2.39h1.42c.27,0,.5-.09.68-.28.18-.19.27-.41.27-.65s-.09-.47-.27-.65c-.18-.19-.41-.28-.68-.28h-1.42c-.27,0-.5.09-.68.28-.18.19-.27.4-.27.65s.09.47.27.65c.18.19.41.28.68.28m-4.78,0h1.42c.27,0,.5-.09.68-.28.18-.19.27-.41.27-.65s-.09-.47-.27-.65c-.18-.19-.41-.28-.68-.28h-1.42c-.27,0-.5.09-.68.28-.18.19-.27.4-.27.65s.09.47.27.65c.18.19.41.28.68.28m.17,2.39h5.87c.35,0,.62-.09.82-.28.2-.19.3-.4.3-.65s-.1-.47-.3-.66c-.2-.19-.47-.28-.82-.28h-5.87c-.35,0-.62.09-.82.28-.2.19-.3.41-.3.66s.1.47.3.65c.2.19.47.28.82.28m5.81,2.39h1.42c.27,0,.5-.09.68-.28.18-.19.27-.41.27-.65s-.09-.47-.27-.65c-.18-.19-.41-.28-.68-.28h-1.42c-.27,0-.5.09-.68.28-.18.19-.27.41-.27.65s.09.47.27.65c.18.19.41.28.68.28m-7.18,0h1.42c.27,0,.5-.09.68-.28.18-.19.27-.41.27-.65s-.09-.47-.27-.65c-.18-.19-.41-.28-.68-.28h-1.42c-.27,0-.5.09-.68.28-.18.19-.27.41-.27.65s.09.47.27.65c.18.19.41.28.68.28m7.18,2.39h1.42c.27,0,.5-.09.68-.28.18-.19.27-.41.27-.65s-.09-.47-.27-.65c-.18-.19-.41-.28-.68-.28h-1.42c-.27,0-.5.09-.68.28-.18.19-.27.4-.27.65s.09.47.27.65c.18.19.41.28.68.28m-7.18,0h1.42c.27,0,.5-.09.68-.28.18-.19.27-.41.27-.65s-.09-.47-.27-.65c-.18-.19-.41-.28-.68-.28h-1.42c-.27,0-.5.09-.68.28-.18.19-.27.4-.27.65s.09.47.27.65c.18.19.41.28.68.28"/>
  <path class="cls-1" d="m76.34,21.54h4.67c.35,0,.62-.09.82-.28.2-.19.3-.41.3-.65s-.1-.47-.3-.65c-.2-.19-.47-.28-.82-.28h-4.67c-.35,0-.62.09-.82.28-.2.19-.3.4-.3.65s.1.47.3.65c.2.19.47.28.82.28m4.62,2.39h1.42c.27,0,.5-.09.68-.28.18-.19.27-.4.27-.65s-.09-.47-.27-.65c-.18-.19-.41-.28-.68-.28h-1.42c-.27,0-.5.09-.68.28-.18.19-.27.4-.27.65s.09.47.27.65c.18.19.41.28.68.28m-3.59,0h1.42c.27,0,.5-.09.68-.28.18-.19.27-.4.27-.65s-.09-.47-.27-.65c-.18-.19-.41-.28-.68-.28h-1.42c-.27,0-.5.09-.68.28-.18.19-.27.4-.27.65s.09.47.27.65c.18.19.41.28.68.28m4.79,2.39h1.42c.27,0,.5-.09.68-.28.18-.19.27-.4.27-.65s-.09-.47-.27-.65c-.18-.19-.41-.28-.68-.28h-1.42c-.27,0-.5.09-.68.28-.18.19-.27.41-.27.65s.09.47.27.65c.18.19.41.28.68.28m-4.79,0h1.42c.27,0,.5-.09.68-.28.18-.19.27-.4.27-.65s-.09-.47-.27-.65c-.18-.19-.41-.28-.68-.28h-1.42c-.27,0-.5.09-.68.28-.18.19-.27.41-.27.65s.09.47.27.65c.18.19.41.28.68.28m4.79,2.39h1.42c.27,0,.5-.09.68-.28.18-.19.27-.41.27-.65s-.09-.47-.27-.65c-.18-.19-.41-.28-.68-.28h-1.42c-.27,0-.5.09-.68.28-.18.19-.27.4-.27.65s.09.47.27.65c.18.19.41.28.68.28m-4.79,0h1.42c.27,0,.5-.09.68-.28.18-.19.27-.41.27-.65s-.09-.47-.27-.65c-.18-.19-.41-.28-.68-.28h-1.42c-.27,0-.5.09-.68.28-.18.19-.27.4-.27.65s.09.47.27.65c.18.19.41.28.68.28m4.79,2.39h1.42c.27,0,.5-.09.68-.28.18-.19.27-.4.27-.65s-.09-.47-.27-.66c-.18-.19-.41-.28-.68-.28h-1.42c-.27,0-.5.09-.68.28-.18.19-.27.41-.27.66s.09.47.27.65c.18.19.41.28.68.28m-4.79,0h1.42c.27,0,.5-.09.68-.28.18-.19.27-.4.27-.65s-.09-.47-.27-.66c-.18-.19-.41-.28-.68-.28h-1.42c-.27,0-.5.09-.68.28-.18.19-.27.41-.27.66s.09.47.27.65c.18.19.41.28.68.28m3.59,2.39h1.42c.27,0,.5-.09.68-.28.18-.19.27-.41.27-.65s-.09-.47-.27-.65c-.18-.19-.41-.28-.68-.28h-1.42c-.27,0-.5.09-.68.28-.18.19-.27.41-.27.65s.09.47.27.65c.18.19.41.28.68.28m-3.59,0h1.42c.27,0,.5-.09.68-.28.18-.19.27-.41.27-.65s-.09-.47-.27-.65c-.18-.19-.41-.28-.68-.28h-1.42c-.27,0-.5.09-.68.28-.18.19-.27.41-.27.65s.09.47.27.65c.18.19.41.28.68.28m-1.03,2.39h4.67c.35,0,.62-.09.82-.28.2-.19.3-.41.3-.65s-.1-.47-.3-.65c-.2-.19-.47-.28-.82-.28h-4.67c-.35,0-.62.09-.82.28-.2.19-.3.4-.3.65s.1.47.3.65c.2.19.47.28.82.28"/>
  <path class="cls-1" d="m94.26,21.54h1.42c.28,0,.5-.09.68-.28.18-.19.27-.41.27-.65s-.09-.47-.27-.65c-.18-.19-.41-.28-.68-.28h-1.42c-.27,0-.5.09-.68.28-.18.19-.27.4-.27.65s.09.47.27.65c.18.19.41.28.68.28m-7.18,0h1.42c.27,0,.5-.09.68-.28.18-.19.27-.41.27-.65s-.09-.47-.27-.65c-.18-.19-.41-.28-.68-.28h-1.42c-.27,0-.5.09-.68.28-.18.19-.27.4-.27.65s.09.47.27.65c.18.19.41.28.68.28m7.18,2.39h1.42c.28,0,.5-.09.68-.28.18-.19.27-.4.27-.65s-.09-.47-.27-.65c-.18-.19-.41-.28-.68-.28h-1.42c-.27,0-.5.09-.68.28-.18.19-.27.4-.27.65s.09.47.27.65c.18.19.41.28.68.28m-7.18,0h1.42c.27,0,.5-.09.68-.28.18-.19.27-.4.27-.65s-.09-.47-.27-.65c-.18-.19-.41-.28-.68-.28h-1.42c-.27,0-.5.09-.68.28-.18.19-.27.4-.27.65s.09.47.27.65c.18.19.41.28.68.28m5.98,2.39h1.42c.27,0,.5-.09.68-.28.18-.19.27-.4.27-.65s-.09-.47-.27-.65c-.18-.19-.41-.28-.68-.28h-1.42c-.27,0-.5.09-.68.28-.18.19-.27.41-.27.65s.09.47.27.65c.18.19.41.28.68.28m-4.78,0h1.42c.27,0,.5-.09.68-.28.18-.19.27-.4.27-.65s-.09-.47-.27-.65c-.18-.19-.41-.28-.68-.28h-1.42c-.27,0-.5.09-.68.28-.18.19-.27.41-.27.65s.09.47.27.65c.18.19.41.28.68.28m1.36,2.39h3.48c.35,0,.62-.09.82-.28.2-.19.3-.41.3-.65s-.1-.47-.3-.65c-.2-.19-.47-.28-.82-.28h-3.48c-.35,0-.62.09-.82.28-.2.19-.3.4-.3.65s.1.47.3.65c.2.19.47.28.82.28m1.03,2.39h1.42c.27,0,.5-.09.68-.28.18-.19.27-.4.27-.65s-.09-.47-.27-.66c-.18-.19-.41-.28-.68-.28h-1.42c-.27,0-.5.09-.68.28-.18.19-.27.41-.27.66s.09.47.27.65c.18.19.41.28.68.28m0,2.39h1.42c.27,0,.5-.09.68-.28.18-.19.27-.41.27-.65s-.09-.47-.27-.65c-.18-.19-.41-.28-.68-.28h-1.42c-.27,0-.5.09-.68.28-.18.19-.27.41-.27.65s.09.47.27.65c.18.19.41.28.68.28m-1.03,2.39h3.48c.35,0,.62-.09.82-.28.2-.19.3-.41.3-.65s-.1-.47-.3-.65c-.2-.19-.47-.28-.82-.28h-3.48c-.35,0-.62.09-.82.28-.2.19-.3.4-.3.65s.1.47.3.65c.2.19.47.28.82.28"/>
</svg>