<?xml version="1.0" encoding="UTF-8"?>
<svg id="Vrstva_1" data-name="Vrstva 1" xmlns="http://www.w3.org/2000/svg" xmlns:xlink="http://www.w3.org/1999/xlink" viewBox="0 0 113.25 54.94">
  <defs>
    <style>
      .cls-1, .cls-2, .cls-3, .cls-4, .cls-5, .cls-6 {
        stroke-width: 0px;
      }

      .cls-1, .cls-4, .cls-6 {
        fill-rule: evenodd;
      }

      .cls-2 {
        fill: none;
      }

      .cls-3, .cls-4 {
        fill: #fff;
      }

      .cls-5 {
        fill: url(#Nepojmenovaný_přechod_3);
      }

      .cls-7 {
        clip-path: url(#clippath);
      }

      .cls-6 {
        fill: #84746c;
      }
    </style>
    <clipPath id="clippath">
      <path class="cls-2" d="m91.15,3.24c-1.43.15-2.86.5-4.29.89.68.22,1.5.46,2.48.71,1.67.54,2.84,1.15,3.56,1.84,2.51,1.14,3.24,2.55,2.5,4.21-.92.38-2.17,0-3.74-1.3-.79-.32-1.7-.96-2.74-1.96-.18-.2-.38-.39-.59-.58-2.01-.95-4.71-1.44-8-1.65-3.18.03-6.59.44-10.02,1.06,1.42.37,2.84.89,4.22,1.57,1.36.41,2.47,1.03,3.42,1.79,1.32.64,2.36,1.5,3.28,2.5,1.21,1.34.86,2.84-.57,4.81-.39.64-1.14.3-2.19-.94-.72.33-2.08-1.1-3.93-4.08-.44-.71-.98-1.33-1.61-1.86-2.38-1.12-5.62-1.51-9.77-1.29-4.47.23-8.44,1.01-12.17,2.6-2.38,1.06-4.52,2.15-6.33,3.26,2.47.23,4.86,1.21,7.11,2.82l.08.06c.62.34,1.23.72,1.82,1.15,3.49,2.49,4.12,4.83,2.45,6.75-.94,1.2-2.44.85-4.81-.92-1-.49-2.24-1.39-3.74-2.7-.8-.75-1.6-1.41-2.41-1.99-1.86-1.02-3.79-1.61-5.83-1.73-2.8-.68-5.99.16-9.28,2.5-3.06,2.19-6.08,4.17-8.48,5.94,1.01.19,2.35.4,4.02.6,2.11.23,3.62.85,4.57,1.82,2.83,1.1,3.69,3.46,2.86,6.83-.48,1.17-1.32.93-2.8-.46-.73-.04-1.82-1.02-3.42-2.77-.37-.51-.8-.96-1.28-1.36-2.22-1.04-5.12-1.37-8.61-.93-2.36.35-4.53,1.78-6.74,3.67-2.22,1.92-3.69,4.61-4.41,8.14-.64,1.52-1.32,4.01-2.05,7.53-.14,1.06.08,1.92.66,2.6,2.06.74,5.37.88,9.94.5,7.34-.32,16.79-1.28,28.14-3.42,11.34-1.87,20.42-5.42,26.76-10.63,6.34-5.5,13.36-9.14,21.05-10.98,7.65-1.83,13.7-6.57,18.32-13.69,1.73-2.95,2.42-5.44,1.47-7.04-.34-.94-.89-1.68-1.63-2.31-.21-.1-.43-.2-.65-.3-1.79-.63-4.09-1.26-6.44-1.4-2.33-.15-4.16-.25-5.45-.33-1.56.16-3.15.31-4.74.47"/>
    </clipPath>
    <linearGradient id="Nepojmenovaný_přechod_3" data-name="Nepojmenovaný přechod 3" x1="-1840.49" y1="683.26" x2="-1839.49" y2="683.26" gradientTransform="translate(-53802.38 -145014.02) rotate(-90) scale(78.83)" gradientUnits="userSpaceOnUse">
      <stop offset="0" stop-color="#cb6e33"/>
      <stop offset="1" stop-color="#ffed00"/>
    </linearGradient>
  </defs>
  <path class="cls-3" d="m1.99,41.44l.19.05c2.04-7.23,5.61-11.52,11.09-12.69l.06-.03c3-1.86,6.82-4.71,11.48-8.24,4.14-3.18,7.79-4.76,10.76-4.75.56,0,1.1.06,1.62.17l.14-.02c4.35-2.54,8.37-4.59,11.39-6.46l-.1-.17.09.17c3.08-1.54,7.11-2.52,12.28-2.52.18,0,.37,0,.56,0l.11-.03c3.24-2.1,6.4-2.92,8.99-3.26l-.03-.19v.19c2.66-.11,5.81-.41,8.96-.74l-.02-.19v.19c2.65-.1,5.31-.72,8.23-1.57,2.46-.71,4.7-1.07,6.88-1.07.4,0,.81.01,1.21.04,1.29.07,3.1.43,5.46.57v-.19s-.02.19-.02.19c2.3.4,4.6,1.04,6.34,1.89l.09-.18-.1.17c1.99,1.13,3.17,2.44,3.82,4.2.16.43.24.9.24,1.42,0,1.58-.75,3.61-2.26,6.19l.17.1-.17-.1c-4.65,7.59-10.87,12.25-17.97,13.87-7.45,1.61-14.5,5.29-21.37,11.01-6.59,5.43-15.66,9.2-26.71,11.1-11.31,1.88-21.04,3.09-28.65,3.64-1.49.11-2.85.17-4.1.17-3.21,0-5.61-.38-7.18-1.12-1.57-.74-2.3-1.79-2.31-3.21,0-.09,0-.18,0-.27.24-3.8.67-6.56,1.03-8.32l-.19-.04.19.05-.19-.05-.19-.04c-.36,1.78-.79,4.55-1.03,8.37,0,.1-.01.2-.01.3,0,1.58.88,2.8,2.54,3.56,1.66.78,4.1,1.15,7.34,1.15,1.26,0,2.63-.06,4.13-.17,7.62-.56,17.36-1.76,28.68-3.65,11.11-1.91,20.24-5.7,26.9-11.18,6.84-5.69,13.82-9.33,21.2-10.93,7.21-1.65,13.53-6.38,18.22-14.05h0c1.52-2.61,2.32-4.69,2.32-6.39,0-.56-.09-1.08-.26-1.55-.68-1.85-1.94-3.25-3.99-4.41h-.01c-1.8-.88-4.12-1.53-6.45-1.93h-.02c-2.34-.14-4.12-.5-5.46-.57-.41-.03-.82-.04-1.23-.04-2.22,0-4.5.36-6.99,1.08-2.91.84-5.53,1.45-8.12,1.55h-.01c-3.15.33-6.3.63-8.93.74h-.02c-2.63.35-5.85,1.19-9.15,3.33l.11.16v-.2c-.19,0-.38,0-.56,0-5.22,0-9.32.99-12.46,2.56h-.02c-2.99,1.86-7.02,3.92-11.38,6.46l.1.17.04-.19c-.54-.12-1.11-.18-1.7-.18-3.11,0-6.83,1.63-11,4.83-4.66,3.53-8.48,6.38-11.45,8.22l.1.17-.04-.19c-5.66,1.2-9.35,5.67-11.39,12.96h0s.19.05.19.05Z"/>
  <path class="cls-6" d="m1.99,41.44c2.04-7.26,5.67-11.65,11.24-12.82,2.98-1.85,6.8-4.7,11.46-8.23,4.94-3.8,9.22-5.34,12.54-4.62,4.35-2.54,8.38-4.59,11.38-6.45,3.22-1.61,7.47-2.61,12.93-2.53,3.27-2.12,6.46-2.95,9.07-3.29,2.64-.1,5.79-.41,8.94-.74,2.62-.1,5.26-.72,8.17-1.56,2.93-.85,5.57-1.2,8.15-1.04,1.31.07,3.11.43,5.46.57,2.32.4,4.62,1.05,6.39,1.91,2.02,1.14,3.24,2.5,3.91,4.3.68,1.84-.02,4.33-2.04,7.78-4.67,7.63-10.94,12.33-18.1,13.96-7.42,1.6-14.43,5.26-21.29,10.97-6.63,5.46-15.73,9.24-26.81,11.14-11.32,1.88-21.05,3.09-28.67,3.65-9.43.72-14.03-.85-13.79-4.64.24-3.81.67-6.57,1.03-8.35"/>
  <path class="cls-4" d="m3.87,41.03c-.64,1.52-1.32,4.01-2.05,7.53-.49,3.8,3.59,5.05,12.51,4.3,7.34-.32,16.79-1.28,28.14-3.42,11.34-1.87,20.43-5.42,26.76-10.63,6.34-5.5,13.36-9.14,21.05-10.99,7.65-1.83,13.7-6.57,18.32-13.69,1.73-2.96,2.42-5.44,1.47-7.04-.65-1.83-2.15-2.93-4.19-3.82-1.79-.63-4.09-1.26-6.44-1.4-2.33-.15-4.16-.25-5.45-.32-1.56.16-3.15.31-4.74.47s-3.16.58-4.75,1.01c-.52-.04.99.8,4.84,1.8,3.83,1.25,5.04,2.86,4.15,4.84-1.08.44-2.61-.15-4.57-2.05-1.95-2.15-5.56-3.13-10.5-3.43-3.66.03-7.61.58-11.56,1.35-.29.25.51.29,2.3.65,1.8.37,3.61.97,5.36,1.84,2.07.63,3.55,1.74,4.79,3.09,1.21,1.34.86,2.84-.57,4.81-.6.99-2.08-.38-4.21-3.81-2.14-3.45-6.48-4.72-13.29-4.36-4.47.23-8.44,1.01-12.17,2.6-3.49,1.56-6.46,3.18-8.65,4.82,3.98-1.03,7.83-.04,11.34,2.47,3.49,2.5,4.12,4.83,2.45,6.75-1.16,1.48-3.17.6-6.64-2.42-3.22-3-6.5-4.71-10.14-4.93-2.8-.68-5.99.15-9.28,2.5-3.29,2.35-6.53,4.46-9,6.34-.27.24,1.77.86,6.45,1.42,4.92.53,6.57,3.18,5.53,7.44-.62,1.52-1.86.66-4.31-2.02-2.16-2.94-6.25-4.2-11.79-3.51-2.36.36-4.53,1.78-6.74,3.67-2.22,1.91-3.69,4.61-4.41,8.14"/>
  <g class="cls-7">
    <rect class="cls-5" x="-1.38" y="-11.49" width="117.36" height="79" transform="translate(-5.61 17.49) rotate(-16.56)"/>
  </g>
  <path class="cls-3" d="m102.38,14.33c-.05-.13-.14-.26-.25-.32h-.15s-.04.07-.04.07c-.02.12,0,.28.06.41.06.14.17.3.3.39l.13.04.05-.08c.02-.15-.04-.35-.1-.5m-1.05-1.91c.55-.22,1.2-.3,1.78-.09.49.18.93.55,1.24,1.19h0s.03.08.03.08l.17-.15,1.27-.51c.18-.07.43.03.5.2l.52,1.23c.07.17-.03.42-.21.49l-1.26.51c-.18.07-.43-.03-.5-.2l-.29-.68c0,.27-.06.52-.16.75-.25.57-.76.99-1.33,1.22-.57.23-1.22.3-1.81.07-.49-.19-.92-.59-1.21-1.27-.27-.65-.23-1.2-.03-1.65.27-.6.82-1,1.29-1.18m-3.16,3.59l1.28-.51c.18-.07.43.03.5.2l.52,1.23c.07.17-.03.42-.21.49l-1.28.52c-.18.07-.43-.03-.5-.2l-.52-1.24c-.07-.17.03-.42.21-.49m-3.74-.32c-.07-.17.03-.42.21-.49l1.16-.46c.09-.03.19-.03.28,0,.18-.23.45-.39.83-.52.17-.06.41.05.48.21l.53,1.27c.08.18-.04.43-.23.49-.22.07-.41.14-.48.23-.05.06-.04.18.05.4l.5,1.18c.07.17-.03.42-.21.49l-1.3.52c-.18.07-.43-.03-.5-.2l-1.32-3.13Zm-2.07,2.33c.17.05.33.13.47.26.04-.1.11-.19.2-.22l1.28-.51c.18-.07.43.03.5.2l.52,1.24c.07.17-.03.42-.21.49l-1.28.52c-.18.07-.43-.03-.5-.2l-.1-.24c-.02.1-.05.2-.09.3-.14.33-.41.62-.83.88-.16.09-.34.18-.55.27-.45.18-.91.31-1.35.28-.49-.04-.92-.27-1.26-.83-.11-.18-.02-.46.18-.54l.11-.05c-.11-.04-.22-.1-.32-.18h.01c-.1-.06-.27-.25-.37-.5-.07-.17-.12-.37-.12-.59s.06-.47.21-.72c.2-.32.56-.64,1.17-.88,1.33-.53,2.14-.07,2.41.56l.03.08c.04.13-.01.29-.11.39m-9.64,2.94l.05.38.2-.08-.25-.3Zm-11.09.24l1.96-.79c.18-.07.43.03.5.2l.37.87.52-1.49.22-.22,2.29-.92c.3-.12.61.18.5.47l-1.06,2.83,3.38,2.31-.35-6.34c0-.13.12-.32.24-.36l2.04-.82c.12-.05.35,0,.43.1l4.57,5.05c.17.19.09.5-.14.59l-1.96.79c-.13.05-.36,0-.45-.12l-.33-.43-1.35.54.07.53c.02.14-.1.34-.23.39l-1.98.79-.18.02-.15.11-2.39.96-.38-.05-1.91-1.42.71,1.69c.07.17-.03.42-.21.49l-1.96.79c-.18.07-.43-.03-.5-.2l-2.48-5.89c-.07-.17.03-.42.21-.49m-12.45,5.52c-.17-.19-.09-.5.14-.59l2.11-.85c.14-.05.37,0,.46.12l1.66,2.22-.38-2.74c-.02-.14.1-.34.23-.39l1.93-.77c.14-.06.3-.02.41.08.04-.11.11-.2.21-.24l4.81-1.93c.18-.07.43.03.5.2l.59,1.41c.07.17-.03.42-.21.49l-2.45.98.03.08,2-.8c.18-.07.43.03.5.2l.6,1.41c.07.17-.03.42-.21.49l-1.99.8.06.15,2.56-1.03c.18-.07.43.03.5.2l.58,1.38c.07.17-.03.42-.21.49l-4.92,1.97c-.18.07-.43-.03-.5-.2l-2.3-5.47.49,6.33c.01.13-.11.32-.24.37l-1.93.77c-.12.05-.35,0-.43-.1l-4.59-5.05Zm-3.58,5.08l.05.4.21-.09-.26-.32Zm-2.76-2.81c0-.12.12-.32.24-.36l2.04-.82c.12-.05.35,0,.43.1l4.57,5.05c.17.19.09.5-.14.59l-1.96.79c-.13.05-.36,0-.45-.12l-.33-.43-1.35.54.07.53c.02.14-.1.34-.23.39l-1.98.79c-.24.1-.52-.08-.53-.33l-.37-6.74Zm-11.35,6.82l.15.35.78-.31c.09-.04.13-.1.13-.17l-.02-.09-.05-.07s-.14-.06-.26-.01l-.75.3Zm-5.16,4.13l.2-.08-.25-.31.05.39Zm-11.08-.16l1.96-.79c.18-.07.43.03.5.2l.37.87.52-1.49.22-.23,2.29-.92c.3-.12.61.18.5.47l-1.06,2.84,3.32,2.27-.36-6.27c0-.12.12-.32.24-.37l.07-.03c-.09-.08-.14-.21-.11-.34l.36-1.65.23-.27,1.76-.71c.31-.12.64.22.49.51l-.89,1.72.14-.05c.12-.05.35,0,.43.1l4.05,4.46-2.14-5.09c-.07-.17.03-.42.21-.49l3.03-1.21c1.37-.55,2.32-.4,2.94.04.28.2.48.46.62.74.14.28.21.58.23.87.02.35-.03.7-.16.98.75.22.97.74,1.3,1.53l.08.19c.06.14.11.26.15.32l.11.02-2.3-5.47c-.07-.17.03-.42.21-.49l1.78-.71.36.04,2.18,1.47-.76-1.82c-.07-.17.03-.42.21-.49l1.91-.76c.18-.07.43.03.5.2l2.48,5.89c.07.17-.03.42-.21.49l-1.83.73-.37-.04-2.18-1.5.78,1.84c.07.17-.03.42-.21.49l-1.85.74c-.11.04-.24.02-.35-.04-.03.12-.11.22-.22.27l-2.04.82c-.15.06-.39-.02-.47-.15-.23-.37-.37-.7-.5-.96-.16-.35-.26-.57-.36-.56h-.04c-.19,0-.45.11-.73.23l.68,1.62c.07.17-.03.42-.21.49l-1.96.79h-.25s-.19.18-.19.18l-1.98.79c-.13.05-.36,0-.45-.12l-.33-.43-1.37.55.07.53c.02.14-.1.34-.23.39l-1.94.78-.15.03-.13.08-2.39.96-.38-.05-1.91-1.42.71,1.69c.07.17-.03.42-.21.49l-1.96.79c-.18.07-.43-.03-.5-.2l-2.48-5.89c-.07-.17.03-.42.21-.49m-8.27,5.77l.22.53.58-.23c.1-.04.14-.12.14-.2l-.03-.13-.08-.11c-.07-.07-.19-.11-.33-.05l-.51.2Zm-3.24-1.16l2.99-1.2c1.18-.47,2.21-.29,2.93.21l-.32-.77c-.07-.17.03-.42.21-.49l4.81-1.93c.18-.07.43.03.5.2l.59,1.41c.07.17-.03.42-.21.49l-2.45.98.03.08,1.99-.8c.18-.07.43.03.5.2l.59,1.41c.07.17-.03.42-.21.49l-2,.8.06.15,2.56-1.03c.18-.07.43.03.5.2l.58,1.38c.07.17-.03.42-.21.49l-4.92,1.97c-.18.07-.43-.03-.5-.2l-1.07-2.54c-.15.81-.74,1.59-1.89,2.06l-.71.28.6,1.43c.07.17-.03.42-.21.49l-2,.8c-.18.07-.43-.03-.5-.2l-2.48-5.89c-.07-.17.03-.42.21-.49"/>
  <path class="cls-1" d="m104.69,13.8l1.27-.51.52,1.24-1.26.51-.52-1.24Zm-1.96.39c.14.34.27.9-.15,1.07-.4.16-.79-.29-.93-.63-.14-.34-.16-.84.19-.98.42-.17.75.2.89.54m-1.26-1.42c-.68.27-1.58,1.07-1.05,2.35s1.64,1.35,2.52,1c.88-.35,1.6-1.23,1.06-2.43-.57-1.2-1.67-1.26-2.53-.91m-3.16,3.59l1.28-.51.52,1.23-1.28.52-.52-1.24Zm-3.53-.8l1.32,3.13,1.3-.52-.5-1.18c-.31-.73.1-.94.66-1.12l-.53-1.27c-.66.22-.86.51-.83,1.13l-.26-.63-1.16.46Zm-1.61,2.86l1.28-.51.52,1.24-1.29.51-.52-1.24Zm-2.21-.2l1.14-.46c-.17-.5-.82-.87-1.93-.42-1.78.71-.98,1.94-.81,2.04.58.42,1.33.1,1.93.06.76.03-.09,1.02-.59.32l-1.21.49c.54.87,1.33.72,2.14.4,1.21-.49,1.5-1.23,1.05-1.95-.5-.78-2.15-.02-2.38-.3-.18-.18.46-.64.67-.19m-8.78,1.49l1.39,1.72-1.14.46-.25-2.18Zm-1.84-1.58l.37,6.74,1.98-.79-.11-.82,1.89-.76.51.65,1.96-.79-4.57-5.05-2.03.82Zm-8.57,3.43l1.96-.79.75,1.79.84-2.43,2.29-.92-1.16,3.1,3.91,2.68-2.39.96-2.34-1.74-.23.57.79,1.88-1.96.79-2.48-5.89Zm-5.69,2.36l2.45,5.82,4.92-1.97-.58-1.38-2.92,1.17-.35-.84,2.35-.94-.59-1.41-2.35.94-.32-.77,2.81-1.12-.6-1.41-4.81,1.93Zm-6.62,2.57l4.59,5.05,1.93-.77-.52-6.68-1.93.77.59,4.2-2.55-3.41-2.11.85Zm-4.39,4.08l1.41,1.72-1.16.46-.25-2.18Zm-1.85-1.58l.37,6.74,1.98-.79-.11-.82,1.89-.76.51.65,1.96-.79-4.57-5.06-2.04.82Zm-8.55,3.43l2.48,5.89,1.85-.74-.91-2.17-.48-.94,3.37,2.31,1.83-.74-2.48-5.89-1.91.76.89,2.11.49.96-3.36-2.27-1.78.71Zm-3.72,8.38l1.96-.79-.82-1.95c.44-.18.87-.43,1.24-.41.56-.04.6.7,1.21,1.71l2.04-.82-.07-.16c-.27.02-.35-.17-.51-.55-.41-.97-.55-1.52-1.72-1.59.98-.52.66-3.93-2.78-2.55l-3.03,1.21,2.48,5.89Zm.04-5.16l1.1-.44c.79-.32,1.19.74.47,1.02l-1.14.46-.44-1.04Zm-4.99,4.86l1.14-.46-1.39-1.72.25,2.18Zm-1.93-4.39l1.14-.46.98-1.9-1.76.71-.36,1.65Zm-.18.64l2.04-.82,4.59,5.05-1.98.79-.51-.65-1.91.76.11.82-1.94.78-.39-6.73Zm-8.49,3.4l1.96-.79.75,1.79.84-2.43,2.29-.92-1.16,3.1,3.91,2.68-2.39.96-2.34-1.74-.23.57.79,1.88-1.96.79-2.48-5.89Zm-5.69,2.36l2.45,5.82,4.92-1.97-.58-1.38-2.92,1.17-.35-.84,2.35-.94-.59-1.41-2.35.94-.32-.77,2.81-1.13-.59-1.41-4.81,1.93Zm-3.21,2.86l.51,1.22.94-.37c.77-.31.26-1.53-.59-1.19l-.86.34Zm-2.6-.61l2.99-1.2c3.19-1.28,5.05,2.79,1.8,4.09l-1.06.43.75,1.77-2,.8-2.48-5.89Z"/>
</svg>