<?xml version="1.0" encoding="UTF-8"?>
<svg id="Vrstva_1" data-name="Vrstva 1" xmlns="http://www.w3.org/2000/svg" viewBox="0 0 89.51 74.15">
  <defs>
    <style>
      .cls-1 {
        fill: #5d150d;
        stroke-width: 0px;
      }
    </style>
  </defs>
  <path class="cls-1" d="m76.39,14.67c.72.71,1.43,1.38,2.11,2.15,0-.1.01-.14,0-.17-.04-.14-.1-.27-.14-.4,0-.02-.02-.03-.02-.05-.04-.32-.12-.65-.04-.98.09-.37.29-.64.63-.81.25-.13.44-.06.56.2.06.14.1.28.1.44,0,.33-.03.65-.07.98-.06.46-.15.91-.25,1.37-.04.17,0,.3.12.44.24.27.46.56.69.84.16.2.31.4.47.6.04.04.08.08.15.15,0-.08,0-.12,0-.15-.09-.25-.1-.51-.13-.77-.04-.33.03-.66.17-.96.14-.29.36-.48.67-.57.07-.02.15-.04.22-.06.18-.05.35,0,.51.08.17.09.26.24.27.43,0,.11,0,.22-.03.32-.09.39-.26.75-.45,1.1-.22.41-.47.8-.73,1.18-.01.02-.02.05-.04.08.11.23.28.41.42.62.14.22.29.43.43.65.14.21.27.43.4.65.14.22.27.45.4.68.13.22.25.44.38.66.06-.02.04-.07.03-.1-.1-.38-.06-.77-.07-1.16-.01-.31.04-.62.18-.91.17-.37.49-.62,1.03-.53.13.02.25.05.36.11.24.13.37.33.39.61.01.2-.03.39-.09.57-.08.27-.21.51-.34.76-.24.43-.51.83-.82,1.22-.26.33-.23.3-.07.63.18.38.36.76.54,1.14.1.23.19.47.28.7.13.32.26.64.38.96.04.09.07.19.1.27.1,0,.11-.06.13-.11.12-.31.28-.6.47-.87.08-.12.18-.22.28-.33.05-.05.12-.1.18-.14.26-.15.52-.13.75.06.17.14.31.31.41.51.15.29.07.6-.16.8-.15.13-.32.22-.5.29-.36.14-.74.23-1.13.28-.07.01-.15,0-.22.09.08.28.17.57.26.86.09.29.17.58.24.88.08.29.15.58.22.87.07-.01.07-.06.07-.1.08-.49.21-.95.44-1.39.07-.14.17-.27.28-.39.1-.1.21-.17.34-.21.12-.04.24-.05.37,0,.24.08.45.19.59.41.13.19.14.39.06.6-.1.25-.27.45-.45.63-.31.31-.66.58-1.03.82-.16.11-.33.2-.47.31-.05.12-.02.22,0,.32.06.31.13.61.17.92.06.4.1.8.15,1.2,0,.06.02.11.03.16.07.02.1-.02.1-.06.05-.25.16-.48.26-.71.11-.25.26-.47.47-.65.23-.19.48-.26.77-.14.18.07.33.17.46.31.13.15.17.32.11.52-.03.12-.09.22-.16.31-.14.17-.29.33-.47.46-.37.27-.74.52-1.15.73-.1.05-.2.12-.31.19.06.77.06,1.53.07,2.29.06.03.09,0,.12-.03.24-.28.52-.51.79-.74.2-.17.43-.3.66-.42.2-.1.4-.11.62-.09.24.03.5.26.55.5.02.09,0,.17-.05.24-.11.21-.3.32-.5.42-.29.14-.6.23-.9.32-.36.1-.72.17-1.09.23-.06,0-.11.03-.18.04-.01.06-.04.11-.04.17,0,.13,0,.27-.01.4-.02.33-.05.66-.08.98,0,.04-.01.08-.01.13-.01.48-.06.96-.15,1.43,0,.02,0,.05.01.07.09-.02.12-.09.16-.15.17-.26.37-.5.59-.72.14-.14.3-.28.46-.4.11-.08.24-.13.36-.17.24-.08.47-.02.66.14.16.12.27.28.33.47.08.21.05.41-.09.6-.11.14-.25.25-.4.34-.3.17-.62.27-.94.35-.36.09-.72.16-1.09.2-.05,0-.1.03-.15.05-.1.2-.06.42-.12.62-.06.2-.09.41-.13.62-.04.2-.09.39-.12.59-.03.21-.13.4-.14.6.04.05.09.05.13.03.15-.06.29-.13.44-.2.19-.09.38-.13.59-.15.22-.01.42.04.58.2.04.04.07.08.09.12.08.14.05.29-.09.37-.12.07-.25.12-.38.12-.4.01-.81.03-1.21-.03-.08-.01-.17-.04-.26.02-.17.45-.27.94-.44,1.4-.16.46-.33.92-.49,1.38.04.04.08.01.11,0,.23-.2.52-.31.79-.45.22-.11.45-.18.7-.19.34,0,.57.16.73.45.03.06.05.12.07.19.07.21.02.38-.15.52-.12.1-.26.16-.41.17-.48.05-.96.02-1.43-.07-.15-.03-.3-.06-.45-.09-.06,0-.11,0-.17,0-.41.91-.79,1.81-1.27,2.67.06.06.1.02.13,0,.22-.12.44-.25.66-.37.17-.08.34-.14.52-.2.19-.06.39-.05.58-.02.08.01.16.06.23.11.25.18.38.43.42.72.04.33-.19.55-.4.63-.3.12-.61.12-.92.08-.2-.03-.4-.05-.6-.08-.22-.04-.44-.1-.66-.16-.09-.02-.18-.06-.28-.03-.07.05-.11.14-.16.22-.11.19-.23.38-.33.57-.3.54-.66,1.04-.99,1.56-.05.09-.12.16-.18.24-.02.03-.03.07-.07.13.06-.02.1-.01.12-.03.27-.19.58-.3.89-.41.28-.1.56-.18.86-.17.16,0,.32.04.47.11.05.02.1.06.15.1.3.26.28.47.07.74-.12.16-.29.26-.47.33-.3.12-.62.17-.94.18-.28.01-.56,0-.83-.07-.21-.05-.43-.08-.65-.12-.05,0-.1,0-.17,0-.37.47-.73.96-1.11,1.43-.38.46-.78.9-1.2,1.37.05,0,.09.02.11.01.29-.16.61-.25.92-.35.29-.09.58-.17.89-.15.14,0,.27.05.38.13.21.14.29.49,0,.69-.18.13-.39.19-.61.22-.39.05-.77.05-1.16.04-.24,0-.49-.03-.73-.04-.04,0-.08,0-.13,0-.12,0-.21.03-.29.12-.2.21-.41.42-.62.63-.37.36-.74.71-1.12,1.07-.06.06-.13.11-.2.16-.03.03-.07.05-.05.12.03,0,.06,0,.09,0,.34-.11.69-.08,1.03-.06.21.01.39.11.53.27.09.11.15.24.16.39.02.31-.07.6-.23.87-.15.25-.42.39-.76.16-.1-.07-.2-.15-.29-.24-.21-.22-.41-.45-.56-.72-.05-.1-.12-.19-.18-.27-.03-.04-.07-.07-.11-.12-.05.03-.1.04-.13.08-.24.21-.48.42-.73.62-.57.47-1.13.93-1.74,1.35-.03.02-.05.04-.07.06,0,.07.05.07.09.06.2-.06.4-.07.6-.08.25-.01.49.03.72.1.44.14.61.55.5.87-.05.13-.08.28-.16.4-.15.22-.38.32-.63.26-.22-.05-.43-.15-.62-.29-.31-.22-.61-.46-.87-.74-.05-.05-.11-.1-.17-.16-.05.03-.1.04-.14.07-.35.24-.69.48-1.05.71-.63.41-1.25.83-1.91,1.18-.03.01-.04.04-.08.07.04.02.06.04.08.04.05,0,.1,0,.15,0,.29-.06.59,0,.88,0,.16,0,.32.06.46.13.17.09.3.22.36.41.03.09.04.19.03.27-.06.3-.17.58-.38.82-.23.26-.53.33-.85.2-.16-.07-.32-.16-.45-.28-.28-.26-.54-.54-.75-.85-.07-.11-.15-.23-.25-.31-.03,0-.06,0-.08.02-.99.54-1.99,1.06-3.02,1.53,0,0,0,.01,0,.03.02.01.03.04.05.04.14.04.28.08.41.11.17.04.32.11.45.22.28.21.33.48.17.75-.09.15-.19.27-.35.36-.09.05-.17.05-.27.01-.2-.08-.36-.21-.49-.39-.15-.21-.31-.42-.42-.66-.03-.08-.07-.15-.18-.19-.2.09-.42.18-.63.28-.17.08-.33.16-.5.23-.2.08-.41.15-.62.23-.2.07-.4.14-.59.22-.08.03-.17.06-.25.16.1,0,.16,0,.23,0,.35,0,.69.03,1.02.14.21.07.4.17.56.34.25.26.35.73.16,1.08-.11.22-.32.34-.56.31-.12-.01-.23-.04-.34-.08-.25-.09-.47-.22-.7-.36-.43-.27-.83-.58-1.21-.91-.03-.03-.07-.05-.1-.08-.1-.09-.21-.1-.33-.05-.5.19-1.02.34-1.54.5-.49.16-.98.3-1.48.42-.03,0-.06.03-.11.05.05.03.07.05.1.06.37.11.73.27,1.06.47.18.11.34.25.47.41.12.16.21.34.16.54-.02.11-.07.23-.13.33-.12.22-.29.4-.5.52-.28.16-.49.19-.78-.07-.16-.13-.26-.31-.35-.49-.21-.44-.34-.9-.43-1.37-.02-.08-.01-.17-.09-.25-.04,0-.09,0-.14,0-.37.09-.74.17-1.11.26-.43.1-.85.2-1.28.27-.2.03-.39.09-.6.1-.02,0-.04.02-.08.05.06.03.1.06.14.07.33.06.62.21.93.33.23.1.45.23.63.42.07.08.14.17.18.27.13.28.03.61-.22.78-.11.08-.23.09-.36.04-.27-.1-.49-.27-.69-.46-.28-.27-.55-.55-.77-.87-.12-.17-.25-.34-.41-.49-1.28.21-2.56.42-3.85.52-.01.05.02.06.05.07.09.03.18.05.27.07.43.11.85.27,1.24.49.2.11.38.26.52.44.19.24.24.51.15.81-.02.06-.05.13-.09.18-.15.21-.33.28-.57.22-.15-.04-.31-.1-.44-.18-.31-.18-.59-.39-.85-.64-.27-.25-.56-.49-.8-.77-.12-.14-.25-.28-.38-.41-.06-.06-.12-.11-.19-.17-.68.04-1.34.11-2.01.12.09.08.19.12.29.15.21.08.39.2.53.37.15.17.2.37.12.59-.08.25-.22.46-.47.56-.08.03-.16.04-.25.01-.15-.05-.28-.11-.4-.22-.32-.28-.58-.61-.81-.96-.09-.15-.19-.3-.29-.45-.09,0-.17,0-.26,0-.38,0-.76,0-1.14,0-.18,0-.35-.02-.53-.03-.03,0-.06,0-.09,0-.04.09.02.12.06.15.22.13.4.31.59.47.22.2.43.4.61.64.14.19.25.4.32.63.08.27.01.5-.15.71-.17.22-.4.24-.6.08-.14-.11-.24-.23-.34-.37-.15-.23-.27-.46-.39-.71-.21-.45-.38-.92-.55-1.39,0-.02-.01-.03-.01-.05-.03-.12-.11-.18-.24-.18-.23,0-.45-.02-.68-.04-.42-.02-.84-.04-1.26-.07-.33-.02-.65-.06-.98-.09-.04,0-.08,0-.15,0,.03.05.05.09.07.11.1.08.22.16.32.25.29.23.56.49.77.8.11.17.18.34.18.54,0,.07,0,.15-.03.22-.06.19-.22.24-.38.13-.12-.08-.22-.18-.31-.29-.18-.21-.34-.44-.48-.68-.2-.34-.42-.67-.63-1.01-.04-.06-.1-.11-.13-.16-.92-.11-1.81-.21-2.69-.37-.05.07,0,.11.02.15.22.32.39.67.54,1.03.12.28.18.56.17.86,0,.31-.24.58-.53.66-.05.01-.1.02-.15.02-.31.03-.49-.09-.62-.38-.05-.12-.09-.24-.09-.37,0-.08-.02-.15-.02-.23,0-.06-.01-.12,0-.18.02-.23.04-.47.07-.7.01-.09.03-.18.05-.27.04-.19.08-.38.11-.57,0-.02,0-.05-.02-.09-.06-.02-.12-.04-.18-.06-.56-.11-1.12-.23-1.69-.33-.37-.07-.74-.16-1.11-.25-.04,0-.08,0-.15-.02.04.08.06.13.1.17.23.24.38.53.55.82.11.18.19.38.21.59.04.34-.26.67-.6.68-.14,0-.25-.04-.34-.14-.11-.13-.19-.28-.22-.45-.01-.07-.03-.15-.04-.22-.02-.34-.09-.67-.03-1.01.03-.16.05-.33,0-.51-.05-.02-.09-.05-.14-.06-.76-.2-1.53-.4-2.29-.63,0,.1.06.14.1.18.27.26.5.54.72.84.15.2.26.41.34.65.04.11.05.23.06.35.03.24-.07.45-.24.62-.24.24-.54.38-.87.41-.14.01-.28-.02-.41-.11-.19-.14-.32-.33-.39-.55-.07-.23-.14-.47-.13-.72,0-.22-.04-.44-.03-.66.01-.31.05-.62.07-.93,0-.1.04-.2-.02-.32-.59-.2-1.19-.41-1.79-.62-.05.05-.02.09,0,.13.17.31.28.65.38.99.04.14.03.28-.02.42-.07.16-.19.26-.35.3-.21.06-.42-.05-.53-.25-.11-.2-.11-.42-.1-.64.01-.3.08-.58.15-.87.02-.07.05-.14,0-.24-.03-.02-.07-.05-.11-.06-.48-.19-.96-.37-1.44-.56-.1-.04-.2-.09-.29-.13-.06.04-.05.08-.03.12.14.28.19.59.26.9.06.29.04.57-.04.85-.08.27-.28.46-.53.58-.07.03-.17.03-.25.03-.12,0-.21-.08-.24-.19-.04-.14-.07-.27-.05-.42.06-.6.23-1.17.42-1.74.03-.08.05-.16.06-.21-.04-.1-.1-.13-.16-.16-.63-.29-1.25-.58-1.88-.88-.12-.06-.24-.12-.36-.19-.06-.03-.12-.06-.18-.09-.06.06,0,.11.02.14.22.31.35.66.49,1,.09.22.17.46.16.71,0,.33-.21.57-.53.6-.23.02-.41-.09-.52-.29-.07-.13-.12-.28-.16-.43-.03-.12-.05-.25-.05-.38,0-.47,0-.94.07-1.41.01-.06,0-.13,0-.21-.28-.15-.56-.31-.84-.46-.27-.15-.54-.31-.81-.47-.28-.16-.55-.32-.82-.48-.06.07-.02.12,0,.17.1.22.18.43.21.67.06.43-.23.77-.66.76-.2,0-.38-.13-.45-.31-.08-.19-.07-.38-.02-.57.08-.29.14-.59.26-.87.03-.06.04-.13.05-.17-.02-.1-.09-.12-.14-.16-.41-.27-.81-.55-1.21-.82-.28-.19-.55-.4-.82-.59-.04-.03-.1-.05-.18-.1.02.09.03.14.05.18.19.47.31.96.42,1.46.07.29.13.59.06.9-.02.07-.04.15-.07.21-.1.16-.28.21-.47.13-.23-.09-.4-.25-.52-.46-.12-.21-.18-.44-.19-.67-.01-.25,0-.5.06-.75.06-.22.07-.45.14-.67.05-.14.1-.29.14-.43.02-.05.02-.11.02-.16-.03-.03-.04-.05-.06-.07-.55-.45-1.1-.89-1.65-1.34,0,0-.02,0-.03,0,0,.02-.03.04-.02.06.01.05.03.1.05.14.18.48.27.97.28,1.48,0,.17-.04.34-.11.49-.1.21-.26.35-.5.39-.2.04-.4.02-.59-.08-.18-.09-.28-.24-.31-.44-.03-.26.01-.52.1-.77.17-.5.42-.96.68-1.41.03-.04.05-.09.08-.14-.03-.04-.05-.09-.09-.12-.24-.22-.48-.43-.71-.65-.3-.28-.6-.57-.9-.86-.05-.05-.1-.09-.17-.15,0,.07-.01.11,0,.15.1.24.13.51.17.76.03.2,0,.4-.09.59-.13.25-.39.37-.66.3-.16-.04-.27-.14-.31-.3-.03-.12-.04-.25-.02-.37.06-.36.19-.7.34-1.03.07-.15.13-.29.2-.44-.03-.04-.05-.08-.08-.11-.28-.3-.57-.6-.85-.91-.26-.29-.51-.59-.76-.88-.07-.08-.14-.17-.21-.25-.02-.03-.06-.04-.13-.09.03.12.04.2.07.28.14.43.2.87.18,1.32,0,.07,0,.14-.02.2-.18.75-.92.79-1.31.54-.27-.18-.36-.44-.32-.75.04-.27.11-.54.21-.8.14-.35.31-.69.5-1.02.08-.13.14-.27.22-.41-.15-.24-.34-.43-.49-.65-.16-.22-.32-.44-.47-.66-.15-.21-.3-.43-.45-.64-.15-.22-.3-.45-.44-.67-.08.03-.06.09-.06.13.01.14.04.29.04.43,0,.27-.01.54-.05.81-.04.25-.12.49-.27.7-.19.25-.44.36-.75.33-.13-.01-.26-.05-.38-.12-.17-.09-.27-.22-.32-.4-.03-.09-.02-.18,0-.27.07-.27.2-.52.37-.74.26-.35.52-.7.85-1,.1-.09.18-.19.28-.3-.03-.07-.05-.12-.08-.17-.19-.34-.4-.67-.59-1.01-.16-.29-.31-.58-.46-.87-.13-.25-.26-.51-.39-.77-.02-.04-.05-.08-.09-.17-.01.08-.02.12-.02.16-.01.31-.01.62-.04.93-.02.23-.07.45-.21.64-.05.07-.11.12-.18.17-.09.06-.19.06-.29.02-.27-.09-.44-.27-.54-.53-.06-.18-.03-.35.03-.52.07-.22.16-.42.29-.61.14-.21.27-.43.45-.61.08-.08.14-.18.21-.27-.02-.07-.03-.12-.04-.16-.43-1.04-.84-2.08-1.18-3.15,0-.01-.02-.02-.04-.03-.05.02-.05.07-.05.11,0,.11,0,.22-.01.33-.01.36-.1.7-.21,1.04-.06.16-.14.31-.28.41-.3.24-.61.07-.7-.19-.04-.11-.05-.22-.02-.32.03-.15.07-.3.12-.44.15-.47.38-.9.62-1.33.06-.11.12-.23.19-.33.1-.14.11-.3.07-.46-.05-.19-.11-.37-.15-.56-.05-.18-.09-.36-.12-.54-.09-.45-.18-.91-.27-1.36,0-.02-.02-.04-.03-.06-.06,0-.08.04-.09.08-.09.21-.17.42-.28.62-.11.23-.25.44-.45.6-.08.07-.18.13-.28.17-.22.08-.47,0-.61-.18-.08-.1-.11-.21-.05-.33.06-.13.13-.26.22-.37.1-.13.21-.24.33-.35.27-.23.56-.44.83-.66.1-.08.23-.14.3-.25-.08-.73-.15-1.45-.23-2.17,0-.01-.02-.02-.03-.04-.07.01-.08.08-.11.13-.18.33-.39.65-.67.91-.15.14-.32.21-.51.26-.04,0-.09.01-.12,0-.33-.08-.59-.25-.74-.56-.08-.16-.07-.31.03-.46.08-.11.17-.2.29-.28.23-.15.48-.25.73-.34.26-.1.53-.16.8-.22,0,0,.02,0,.02,0,.28-.07.29-.09.28-.37-.01-.17,0-.34,0-.51,0-.3,0-.61,0-.91,0-.16.02-.32.02-.48,0-.07,0-.13,0-.19-.06-.03-.08,0-.09.03-.02.05-.04.11-.06.17-.07.23-.19.43-.32.63-.11.17-.25.32-.4.45-.37.31-.89.22-1.15-.06-.15-.16-.21-.34-.12-.55.07-.16.15-.32.26-.46.37-.48.84-.85,1.32-1.21.13-.1.26-.18.39-.28.1-.08.19-.16.29-.24.1-.89.24-1.76.39-2.63,0,0,0-.01-.02-.03-.02.01-.06.02-.07.04-.08.19-.21.34-.34.5-.1.12-.22.21-.35.29-.25.15-.5.16-.77.02-.18-.1-.33-.24-.41-.43-.06-.13-.06-.26,0-.39.08-.15.18-.28.32-.39.38-.3.81-.51,1.26-.69.22-.09.44-.17.67-.27.03-.07.06-.15.08-.23.16-.55.32-1.1.48-1.65.05-.15.1-.3.15-.46,0-.03,0-.06.01-.13-.07.05-.11.07-.14.1-.31.25-.63.48-.99.65-.29.14-.61.21-.92.24-.26.02-.52-.02-.75-.16-.15-.09-.24-.22-.29-.37-.04-.13-.02-.25.05-.37.13-.24.34-.4.58-.5.33-.14.67-.22,1.03-.23.37,0,.74,0,1.11.08.16.04.33.04.49.06.02-.01.02-.01.03-.02.01-.01.03-.02.03-.04.38-.98.82-1.94,1.24-2.9,0,0,0-.01,0-.02-.07-.02-.11.03-.15.07-.18.15-.38.25-.58.36-.17.09-.35.12-.53.17-.18.06-.37,0-.54-.09-.32-.19-.49-.49-.5-.86,0-.12.04-.24.14-.31.13-.1.27-.18.44-.19.4-.03.79-.01,1.18.07.27.06.54.12.8.17.11-.04.15-.13.19-.21.15-.26.29-.53.44-.8.36-.64.75-1.26,1.16-1.87.04-.06.07-.12.1-.17,0-.01,0-.03-.01-.06-.07.04-.13.08-.19.12-.13.08-.26.16-.39.23-.13.07-.25.13-.39.19-.19.07-.38.16-.57.2-.23.05-.46.06-.69-.06-.25-.13-.45-.58-.35-.88.05-.16.15-.28.3-.36.1-.06.21-.11.33-.13.21-.03.41-.06.63-.05.17.01.34.01.51.02.1,0,.2.01.3.03.26.05.51.1.77.16.11.02.2,0,.26-.09.04-.06.09-.12.14-.18.16-.23.32-.45.48-.68-.04-.06-.08-.02-.11,0-.08.03-.16.05-.24.08-.18.09-.38.09-.57.08-.19,0-.34-.09-.44-.26-.12-.2-.19-.42-.15-.65.03-.21.13-.38.35-.45.11-.03.22-.02.32,0,.29.08.57.21.83.37.14.08.27.17.4.24.11-.02.16-.1.21-.16.19-.22.38-.46.57-.68.36-.41.73-.82,1.09-1.23.04-.04.1-.07.08-.15-.02,0-.05,0-.07,0-.42.19-.85.3-1.32.33-.2.01-.39,0-.58-.04-.36-.08-.63-.28-.8-.6-.05-.09-.08-.21-.08-.31-.01-.15.07-.26.21-.31.17-.06.35-.1.54-.08.52.04,1.02.16,1.51.28.28.07.55.16.82.25.14.05.24.04.34-.07.06-.06.13-.11.18-.17.53-.56,1.1-1.07,1.67-1.59.05-.05.1-.11.19-.2-.1.02-.15.02-.19.04-.48.13-.98.18-1.48.17-.18,0-.35-.04-.51-.12-.23-.12-.34-.35-.3-.59.05-.25.26-.45.51-.46.3-.02.59,0,.88.09.41.13.81.28,1.2.46.09.04.19.07.29.11.3-.24.59-.48.88-.72.3-.24.59-.47.89-.7.3-.23.6-.45.9-.67,0-.02-.02-.03-.02-.05-.04,0-.08-.02-.11,0-.36.14-.75.13-1.12.15-.24,0-.48-.03-.71-.14-.43-.2-.59-.7-.46-1.04,0-.02.01-.03.01-.05.06-.3.36-.52.74-.44.24.05.47.13.69.24.44.22.84.5,1.23.8.08.06.16.13.26.16.26-.13.48-.31.72-.47.54-.37,1.1-.7,1.66-1.06-.07-.08-.14-.05-.2-.06-.32,0-.64.01-.96-.01-.36-.03-.72-.1-1.03-.32-.06-.04-.12-.09-.17-.15-.11-.12-.18-.26-.18-.43,0-.19,0-.37.1-.54.12-.2.29-.28.51-.27.17.01.33.05.49.12.46.21.86.49,1.25.8.22.18.44.37.67.56.1-.03.19-.09.29-.14.57-.31,1.13-.63,1.71-.94.41-.22.83-.41,1.25-.61.05-.02.09-.06.14-.09-.03-.08-.09-.05-.13-.05-.22-.02-.44-.02-.65-.05-.18-.02-.36-.08-.52-.19-.21-.15-.3-.34-.24-.59,0-.04.02-.08.03-.12.14-.35.46-.48.83-.32.15.06.29.14.42.22.3.19.58.41.84.65.04.04.09.08.14.12,1-.41,2-.81,3-1.21.02,0,.03-.04.06-.07-.03-.02-.06-.04-.08-.05-.57-.07-1.1-.28-1.56-.61-.3-.21-.55-.48-.68-.83-.07-.19-.09-.38.01-.56.12-.23.38-.35.64-.31.23.04.44.12.63.24.36.24.66.55.91.9.17.24.33.49.47.75.05.1.11.19.16.27.09.04.16.01.23-.01.31-.11.62-.23.93-.33.64-.2,1.29-.39,1.93-.59.02,0,.04-.02.07-.03,0-.06-.04-.07-.08-.07-.4-.05-.77-.17-1.14-.31-.23-.09-.45-.2-.63-.36-.22-.19-.33-.42-.29-.72.03-.21.13-.36.33-.44.07-.03.15-.04.22-.01.14.05.29.1.42.17.23.13.44.28.64.46.33.29.65.59.95.91.18.18.16.27.55.15.35-.11.72-.18,1.08-.27.11-.03.21-.06.32-.08.4-.09.81-.17,1.21-.25.03,0,.06-.02.09-.03-.01-.08-.07-.08-.12-.09-.17-.05-.34-.08-.51-.14-.17-.06-.34-.14-.51-.22-.15-.07-.26-.18-.36-.31-.12-.16-.17-.35-.09-.55.09-.24.28-.33.52-.27.25.07.45.23.65.38.39.29.71.65,1.05.98.02.02.05.04.08.07.98-.16,1.96-.31,2.93-.46,0-.06-.03-.07-.06-.07-.39-.09-.75-.25-1.11-.43-.21-.11-.41-.24-.57-.41-.4-.42-.4-.81-.05-1.27.09-.11.2-.21.33-.27.15-.07.31-.08.46,0,.17.08.32.19.45.32.29.31.53.65.73,1.03.14.28.28.56.41.84.01.02.02.05.03.07.04.08.11.13.2.12.23-.02.45-.05.68-.07.08,0,.15-.02.23-.02.36-.01.72-.05,1.08-.09.15-.02.3-.01.45-.02.04,0,.09-.03.15-.05-.17-.17-.33-.32-.48-.47-.3-.29-.55-.61-.76-.98-.14-.25-.23-.5-.24-.79,0-.15.01-.29.09-.41.15-.24.37-.31.64-.21.22.08.38.25.52.43.23.32.36.68.46,1.06.1.4.14.81.16,1.22,0,.03.02.06.03.11.05.01.11.04.16.04.29,0,.59-.03.88-.04.24,0,.49-.02.73-.02.24,0,.47,0,.71,0,.05,0,.09-.02.16-.03-.03-.05-.04-.1-.06-.12-.22-.22-.35-.5-.5-.76-.13-.23-.19-.49-.19-.75,0-.3.14-.56.38-.74.18-.13.35-.09.48.09.15.22.2.48.23.74.06.46.07.92.06,1.39,0,.04,0,.08.02.13.05.02.09.04.14.04.11,0,.22,0,.33,0,.62.02,1.25.04,1.87.06.08,0,.15.02.23.03.04,0,.08,0,.11-.01.04-.08-.01-.1-.05-.14-.26-.22-.47-.48-.64-.77-.07-.12-.1-.25-.1-.39-.01-.21.08-.36.25-.47.02-.01.04-.02.07-.04.2-.13.39-.1.57.12.16.2.22.43.28.67.03.12.05.25.07.37.02.12.03.23.04.35,0,.09,0,.19.04.28.11.06.24.06.37.08.48.05.96.07,1.43.14.42.06.84.08,1.26.13.17.02.33.06.5.08.05,0,.1.03.14-.05-.03-.02-.05-.06-.08-.07-.23-.12-.43-.29-.63-.47-.09-.08-.18-.15-.27-.23-.27-.25-.51-.53-.67-.88-.17-.37.03-.72.27-.89.05-.03.1-.06.16-.08.13-.07.26-.06.39,0,.21.1.38.25.51.44.2.28.35.6.49.91.18.38.29.77.42,1.16.01.04.02.08.04.12.03.1.09.16.19.18.14.03.28.06.42.08.53.06,1.05.18,1.57.28.15.03.29.06.47.07-.03-.07-.04-.11-.06-.15-.13-.22-.26-.43-.38-.66-.1-.19-.17-.4-.26-.6-.09-.21-.1-.42-.11-.64,0-.38.19-.62.51-.77.25-.11.51-.16.79-.06.16.06.28.15.36.3.08.15.13.31.13.48.02.35-.06.69-.14,1.02-.09.36-.21.71-.35,1.05-.01.03,0,.06-.01.09.04.09.11.1.17.11.34.08.69.16,1.03.24.31.08.62.16.93.24.22.06.44.11.66.17.09.02.18.06.27.08.06.02.13.03.18.04.04-.08-.01-.11-.04-.14-.26-.28-.48-.59-.63-.94-.05-.12-.09-.25-.13-.38-.12-.46.21-1.03.52-1.14.03-.01.06-.02.09-.03.24.06.35.24.42.44.11.32.19.65.22.99,0,.12.04.23.05.35.02.27.04.54.05.81,0,.07,0,.13.01.19.08.09.19.11.28.14.37.12.74.23,1.11.35.53.18,1.05.38,1.57.57.28.1.55.21.83.31.05-.04.02-.08,0-.11-.1-.16-.21-.3-.3-.47-.13-.24-.27-.49-.37-.75-.08-.21-.15-.43-.17-.66-.03-.37.11-.68.45-.86.19-.1.38-.17.6-.16.29.01.49.15.62.41.07.15.11.3.12.46.02.32-.01.64-.07.96-.07.41-.19.8-.3,1.2-.02.05-.02.11-.03.18.3.17.62.29.92.42.3.13.6.27.89.41.3.15.61.27.9.42.07-.06.05-.1.03-.14-.11-.37-.24-.74-.3-1.12-.04-.29-.05-.57.04-.85.04-.12.11-.23.19-.33.17-.2.38-.16.47.07.06.14.1.29.1.44,0,.33.02.66-.03.99-.01.08,0,.17-.01.25-.01.17-.03.34-.04.5,0,.13-.03.25,0,.39.41.26.87.46,1.3.7.42.24.85.48,1.27.72.05-.04.04-.08.01-.12-.15-.21-.23-.45-.33-.68-.11-.23-.18-.47-.23-.72-.06-.3-.01-.59.23-.81,0,0,.01-.01.02-.02.34-.29.7-.19.86.23.08.21.1.43.1.65,0,.25,0,.51-.02.76,0,.04,0,.08-.01.13-.04.27-.09.55-.13.81.05.12.14.16.22.22.41.27.82.53,1.23.8.36.24.71.49,1.06.73.04.03.08.04.15.07,0-.06,0-.09,0-.12-.04-.15-.1-.29-.12-.44-.07-.42-.19-.84-.14-1.28.01-.13.04-.25.09-.37.1-.28.29-.43.62-.43.29,0,.54.12.67.41.08.18.1.36.06.54-.05.25-.13.49-.22.73-.14.37-.33.72-.53,1.06-.02.04-.04.09-.05.12.01.1.08.13.13.17.4.31.8.62,1.2.93.28.23.56.46.84.7.22.19.44.39.67.58.04.03.08.05.16.1-.03-.11-.04-.17-.08-.23-.14-.24-.18-.52-.28-.78-.09-.24-.12-.49-.14-.74-.02-.25-.02-.51.14-.73.14-.19.33-.29.56-.29.21,0,.37.1.47.29.07.14.12.3.13.46.01.35-.02.71-.07,1.06-.05.37-.16.72-.24,1.09-.02.1-.03.2-.05.3Zm-35.25,56.35s.05-.09.06-.14c.15-.4.29-.81.45-1.21.22-.56.49-1.09.84-1.58.2-.28.45-.52.79-.65.29-.11.63,0,.8.21.09.11.13.24.11.38-.02.11-.05.21-.1.31-.17.41-.47.74-.77,1.06-.52.56-1.09,1.08-1.7,1.55-.04.03-.06.06-.03.11.21.04,2.27.11,2.6.09.09-.09.11-.22.14-.34.05-.23.15-.45.25-.66.1-.2.24-.37.41-.5.22-.17.47-.22.74-.16.23.05.32.24.22.44-.03.07-.07.14-.12.19-.11.12-.23.25-.36.36-.22.19-.46.37-.69.56-.03.02-.07.05-.04.11.75.05,1.51-.04,2.27-.05.05,0,.1-.02.14-.02.02-.03.04-.05.04-.07,0-.07,0-.13,0-.2,0-.57-.03-1.15.11-1.71.05-.22.12-.42.25-.6.12-.17.34-.26.5-.22.2.06.32.21.33.46,0,.05,0,.1,0,.15,0,.26-.1.5-.19.73-.18.46-.38.92-.64,1.34-.01.02-.01.06-.02.11.06,0,.1,0,.14,0,.3-.02.6-.05.91-.07.48-.04.96-.07,1.44-.11.29-.03.57-.07.85-.11.06,0,.13-.03.2-.05,0-.05,0-.1,0-.14-.03-.12-.05-.25-.09-.37-.12-.38-.18-.77-.2-1.17-.02-.3,0-.59.1-.87.19-.53.74-.67,1.18-.51.15.06.27.14.35.28.05.1.08.2.09.31.02.29-.06.55-.17.81-.21.52-.48,1-.8,1.46-.02.03-.03.07-.04.1.06.07.12.05.18.04.37-.06.73-.13,1.1-.17.7-.09,1.39-.25,2.09-.37.11-.02.24-.03.31-.13,0-.02.02-.04.02-.06-.01-.37,0-.74.04-1.11.03-.3.1-.58.25-.84.04-.07.08-.13.14-.18.12-.12.27-.2.45-.2.34,0,.56.22.54.55,0,.09-.02.18-.06.27-.19.49-.49.92-.81,1.33-.03.04-.08.07-.06.14.03,0,.06.02.09.02.19-.04.38-.08.57-.13.34-.09.69-.17,1.03-.26.33-.09.67-.17,1-.27.1-.03.2-.05.27-.15-.01-.06-.02-.12-.04-.19-.11-.39-.18-.79-.24-1.19-.05-.36-.04-.72.04-1.08.13-.58.65-.82,1.13-.67.04.01.08.03.12.04.27.05.48.19.66.39.15.18.21.38.16.61-.05.23-.13.44-.25.63-.27.44-.58.85-.96,1.2-.02.02-.04.05-.05.07.06.07.12.05.17.03.27-.08.53-.16.8-.25.41-.14.81-.28,1.22-.42.36-.13.71-.26,1.07-.39.25-.1.5-.2.75-.3.07-.03.14-.05.16-.16-.01-.03-.03-.06-.05-.1-.1-.18-.2-.35-.29-.53-.12-.23-.2-.48-.26-.74-.07-.33,0-.62.24-.86.19-.18.42-.27.69-.26.18,0,.3.08.39.23.13.24.12.49.08.74-.02.1-.06.2-.07.3-.04.32-.14.62-.25.93-.01.04-.02.08-.03.12.08.04.14.02.2-.01.3-.13.6-.26.9-.4.45-.21.9-.42,1.35-.63.06-.03.12-.06.15-.16-.01-.05-.02-.11-.04-.17-.14-.43-.26-.85-.33-1.3-.05-.32-.08-.64-.06-.96.01-.18.04-.35.11-.52.11-.26.29-.45.57-.54.17-.06.35-.07.52-.04.24.04.45.17.55.4.07.16.1.34.08.52-.05.49-.21.94-.41,1.38-.13.3-.26.6-.44.88-.03.04-.06.09.02.14.2-.1.4-.19.6-.3.51-.28,1.02-.56,1.52-.86.52-.31,1.04-.63,1.55-.95.22-.14.22-.16.09-.38-.19-.32-.38-.64-.5-.99-.07-.21-.14-.42-.13-.64.02-.3.16-.53.44-.66.2-.09.4-.13.62-.11.25.03.45.14.54.39.06.14.09.29.06.45-.09.48-.24.93-.48,1.35-.02.04-.07.08,0,.14.03-.01.07-.02.1-.05.61-.43,1.22-.87,1.83-1.31.16-.11.31-.24.45-.36.1-.09.11-.14.05-.27-.07-.15-.15-.3-.23-.45-.27-.58-.52-1.17-.59-1.82-.03-.23-.02-.45.01-.68.06-.38.42-.8.98-.84.21-.01.4.06.53.24.12.15.17.32.19.51.04.51-.01,1.01-.13,1.51-.1.43-.19.87-.37,1.29-.02.04-.02.08.04.12.06-.05.13-.09.19-.15.43-.37.86-.73,1.29-1.1.31-.27.61-.56.91-.84.06-.06.13-.11.14-.22-.02-.04-.05-.09-.08-.13-.22-.3-.4-.62-.56-.96-.11-.24-.18-.48-.18-.75,0-.24.1-.42.3-.55.22-.14.43-.09.57.13.08.13.14.27.16.42.03.21.04.42.07.63.04.29.05.57,0,.86,0,.03.01.06.03.11.23-.16.39-.34.56-.53.62-.68,1.28-1.32,1.82-2.04,0-.12-.08-.15-.14-.2-.18-.14-.36-.28-.52-.44-.22-.2-.41-.42-.54-.7-.14-.3-.1-.66.17-.9.22-.2.47-.33.76-.39.16-.03.3.01.43.11.14.11.22.26.26.43.09.41.1.82.04,1.23,0,.06-.02.12-.03.17,0,.04,0,.08.07.1.14-.17.28-.35.42-.53.15-.2.29-.41.44-.61.32-.42.62-.84.91-1.28.1-.15.1-.28.02-.42-.19-.33-.31-.69-.43-1.05-.08-.26-.09-.53-.05-.8.05-.33.41-.64.76-.61.13.01.22.06.29.17.09.13.13.28.12.43-.02.3,0,.61-.1.9-.04.14-.08.29-.12.44,0,.01,0,.03.02.07.06-.08.12-.15.16-.23.27-.48.54-.95.81-1.43.05-.08.09-.16.13-.25.02-.05.02-.11.04-.17-.08-.08-.16-.16-.24-.23-.29-.27-.55-.57-.75-.92-.26-.43-.42-.88-.4-1.39,0-.17.05-.32.13-.46.16-.31.49-.4.8-.23.2.11.33.28.44.48.21.39.3.8.33,1.24.01.25,0,.51,0,.76,0,.05-.02.1.06.13.02-.02.04-.05.05-.07.15-.32.31-.64.45-.96.28-.65.55-1.31.78-1.97.03-.08.03-.16.05-.25-.07-.07-.12-.13-.19-.18-.21-.16-.38-.36-.55-.56-.11-.14-.21-.29-.27-.45-.07-.18-.05-.36.09-.49.29-.27.58-.3.84.04.02.03.05.07.06.11.06.13.12.26.14.4.02.11.04.22.06.32,0,.03.03.05.04.08.03-.02.05-.02.05-.03.21-.64.38-1.29.54-1.95.02-.09.05-.18-.01-.28-.03-.01-.07-.03-.11-.04-.34-.06-.67-.16-1-.28-.19-.06-.36-.15-.52-.26-.16-.1-.29-.22-.38-.39-.11-.21-.09-.41.03-.6.09-.14.23-.2.39-.16.11.02.22.06.31.11.18.11.35.24.51.37.27.23.53.47.75.75.03.04.07.06.11.09.03-.03.06-.04.06-.06.16-.62.27-1.25.33-1.89,0-.08.02-.15-.04-.25-.08-.04-.18-.1-.28-.15-.38-.19-.74-.41-1.07-.67-.25-.2-.47-.43-.61-.73-.07-.15-.09-.29-.05-.44.07-.27.22-.49.47-.63.15-.08.31-.08.46,0,.11.07.23.15.31.25.14.18.29.38.39.59.15.31.33.61.41.95.01.06.04.12.13.16.01-.06.02-.11.03-.16.02-.37.04-.74.07-1.11.07-.68.04-1.37.05-2.05,0-.07,0-.14-.07-.2-.04,0-.1,0-.16,0-.23,0-.46.01-.68,0-.19-.02-.38-.06-.57-.11-.14-.04-.25-.13-.35-.24-.21-.25-.14-.64.14-.81.06-.03.13-.04.19-.05.11-.01.22.03.32.07.36.16.68.38.97.63.04.04.09.07.16.12.01-.07.03-.12.02-.16,0-.11-.02-.22-.03-.33-.03-.51-.05-1.03-.12-1.54-.04-.27-.07-.53-.1-.8,0-.08-.02-.15-.12-.21-.27.02-.55-.05-.82-.13-.22-.06-.4-.17-.55-.34-.17-.21-.22-.45-.13-.71.07-.19.22-.25.4-.19.04.01.08.03.12.05.15.08.29.17.41.29.14.14.28.27.42.41.03.02.07.03.13.06,0-.1,0-.18-.02-.25-.07-.38-.13-.76-.23-1.14-.04-.16-.06-.31-.1-.47-.06-.24-.12-.47-.18-.71-.03-.12-.06-.25-.15-.36-.04,0-.09,0-.14,0-.2.03-.4.02-.6,0-.36-.02-.7-.09-1.03-.23-.57-.24-.95-.65-1.11-1.26-.01-.06-.02-.12-.02-.17,0-.18.2-.34.36-.3.1.03.2.03.29.08.19.09.38.18.56.3.39.26.78.54,1.16.81.12.08.23.17.34.26.03.02.06.04.09,0-.07-.22-.12-.46-.2-.68-.2-.55-.37-1.12-.61-1.66-.07-.17-.15-.34-.21-.52-.06-.18-.17-.29-.37-.29,0,0-.02,0-.03,0-.39-.05-.76-.14-1.14-.25-.26-.08-.51-.17-.73-.34-.09-.07-.18-.16-.24-.26-.1-.16-.08-.39.03-.52.12-.14.29-.17.48-.11.28.09.54.23.78.4.21.15.42.31.63.46.03.02.07.03.11.05.04-.06.02-.11,0-.16-.18-.34-.33-.7-.51-1.04-.36-.7-.74-1.38-1.15-2.05-.05-.08-.09-.17-.17-.21-.25,0-.51-.01-.76-.02-.16,0-.32-.04-.47-.11-.1-.04-.17-.11-.23-.19-.12-.16-.1-.46.18-.55.11-.03.22-.02.32.02.15.06.3.12.42.22.05.04.1.09.2.06-.37-.63-.8-1.19-1.22-1.77-.66-.9-.85-1.13-1.04-1.27-.2.04-.41.07-.61.13-.35.09-.7.12-1.05.07-.26-.03-.49-.12-.7-.28-.1-.07-.19-.16-.15-.29.04-.12.16-.15.27-.15.28,0,.56-.01.83.04.32.05.65.09.98.13.04,0,.09,0,.1-.05-.11-.13-.22-.27-.33-.4-.06-.07-.12-.14-.18-.21-.3-.33-.61-.66-.91-.99-.06-.07-.12-.14-.23-.17-.04.01-.08.02-.13.04-.29.1-.57.22-.87.28-.12.03-.25.04-.37.08-.27.08-.55.08-.83.06-.12,0-.24-.04-.34-.09-.24-.11-.4-.3-.45-.57-.04-.21.05-.39.25-.48.09-.04.19-.07.29-.08.29-.02.57-.03.85.06.04.01.08.02.12.03.28.04.57.09.83.19.05.02.11.05.17-.02,0-.02-.01-.05-.03-.06-.85-.79-1.68-1.6-2.61-2.33-.1.07-.2.14-.3.21-.28.23-.59.39-.92.53-.16.07-.33.13-.5.16-.11.02-.24,0-.35-.02-.28-.06-.44-.26-.54-.52-.11-.29-.02-.54.26-.68.26-.13.54-.15.81-.13.31.02.63,0,.93.09.04.01.09.01.1-.04-.26-.26-1.83-1.41-2.06-1.51-.04.03-.09.06-.14.09-.44.34-.87.69-1.36.97-.26.15-.53.29-.84.33-.33.05-.58-.14-.63-.47-.05-.4.14-.73.42-.91.28-.17.59-.24.91-.28.36-.05.72-.07,1.08,0,.03,0,.09.02.1-.04-.19-.2-1.22-.85-2.62-1.66-.11-.06-.21-.14-.33-.15-.02.01-.04.02-.05.03-.05.06-.09.12-.14.18-.27.39-.57.76-.92,1.08-.21.19-.45.36-.72.46-.22.08-.42.07-.63-.03-.3-.15-.45-.42-.55-.73-.01-.04,0-.1,0-.15.03-.13.09-.25.19-.35.11-.11.23-.19.37-.26.28-.15.58-.23.88-.3.3-.07.59-.14.9-.16.05,0,.1-.02.1-.11-.88-.48-1.78-.94-2.68-1.34-.11.03-.16.1-.22.16-.28.27-.58.51-.91.72-.23.15-.46.27-.74.31-.24.03-.44-.03-.59-.21-.24-.27-.26-.55.08-.79.21-.14.44-.21.68-.25.34-.06.67-.16,1.02-.15.02,0,.05-.03.08-.05-.45-.25-2.76-1.16-3.15-1.24-.08.05-.13.13-.18.2-.23.34-.51.62-.81.9-.27.26-.58.46-.95.56-.31.09-.59.02-.84-.16-.26-.19-.26-.39-.04-.61.13-.13.28-.22.43-.31.36-.2.74-.32,1.12-.46.23-.08.47-.14.7-.21.03,0,.06-.03.09-.05-.02-.03-.03-.06-.05-.07-1.07-.38-2.16-.71-3.25-.99-.11.05-.14.13-.18.22-.18.45-.39.88-.64,1.29-.17.28-.36.55-.62.76-.08.07-.18.13-.28.17-.21.1-.47.05-.63-.12-.11-.12-.16-.25-.09-.42.08-.22.22-.4.37-.57.31-.35.67-.64,1.03-.93.17-.13.34-.25.51-.38.04-.03.11-.06.09-.13,0,0,0-.02-.02-.02-.3-.08-.6-.16-.91-.23-.44-.1-.87-.19-1.31-.29-.24-.05-.48-.1-.72-.15-.07-.01-.13-.03-.19.03,0,.02-.02.04-.01.07.05.34.04.67-.01,1.01-.03.2-.07.4-.13.59-.05.14-.13.26-.23.36-.07.07-.16.13-.26.15-.34.07-.64-.02-.86-.29-.1-.12-.14-.26-.11-.43.05-.25.17-.46.32-.65.2-.25.4-.51.65-.7.05-.04.09-.08.13-.12.03-.03.04-.07.07-.11-.08-.02-.13-.04-.19-.05-1.03-.19-2.06-.32-3.1-.46-.09.09-.13.19-.14.3-.05.3-.18.58-.29.86-.1.25-.24.46-.45.64-.12.1-.26.17-.42.15-.16-.02-.31-.1-.42-.22-.13-.14-.17-.31-.08-.49.05-.1.1-.19.17-.28.27-.31.59-.58.94-.81.06-.04.14-.06.17-.16-.04-.02-.09-.05-.13-.05-.26-.03-.52-.05-.78-.07-.25-.02-.5-.04-.76-.06-.48-.03-.96-.06-1.44-.09-.06,0-.11.01-.18.02-.01.06-.03.1-.03.15,0,.13,0,.27,0,.4,0,.23-.02.46-.07.68-.05.23-.12.46-.28.64-.15.17-.33.26-.56.21-.14-.03-.28-.09-.38-.19-.15-.15-.24-.32-.16-.55.09-.26.23-.49.42-.69.18-.2.38-.39.57-.58.03-.03.08-.07.05-.13-.22-.04-1.92-.07-2.6-.04-.04,0-.08.02-.13.03,0,.05.01.09.02.13.07.25.15.5.21.76.07.31.1.62.06.93-.05.43-.35.7-.77.67-.22-.01-.43-.08-.62-.2-.06-.04-.11-.08-.15-.13-.12-.12-.18-.26-.17-.43.01-.23.09-.43.2-.62.19-.34.43-.65.69-.93.04-.04.1-.07.08-.15-.02,0-.04-.02-.07-.02-.44.02-.88.04-1.31.07-.36.02-.72.04-1.08.07-.09,0-.19,0-.26.08.02.22.04.44.05.65,0,.16.02.32,0,.48-.02.29-.05.59-.08.88-.03.22-.11.42-.23.61-.03.05-.07.09-.12.13-.18.14-.52.16-.66-.15-.04-.08-.05-.16-.06-.24-.02-.3.07-.59.17-.86.17-.48.36-.95.59-1.4.02-.03.02-.07.03-.11-.09-.05-.16-.03-.24-.02-.08,0-.17.03-.25.04-.23.02-.47.04-.7.06-.51.06-1.02.13-1.53.2-.11.01-.22.02-.33.1-.02.05-.04.11-.06.18-.09.37-.17.74-.32,1.09-.12.3-.23.61-.41.89-.1.16-.22.3-.37.41-.17.14-.37.19-.59.09-.19-.09-.33-.22-.43-.41-.09-.17-.09-.34-.02-.51.13-.33.35-.59.6-.83.08-.08.18-.15.27-.23.18-.16.35-.31.56-.44.08-.05.15-.1.22-.18-.05,0-.07-.01-.1,0-.22.04-.43.07-.65.12-.42.08-.84.16-1.27.25-.36.07-.71.15-1.06.22-.05.01-.1.04-.16.07.03.2.04.38.08.56.09.41.1.82.09,1.23,0,.28-.04.55-.16.81-.16.35-.55.63-1.05.36-.19-.1-.31-.26-.34-.47-.02-.11-.02-.24,0-.35.06-.24.12-.49.24-.72.17-.33.33-.67.55-.97.06-.09.12-.18.18-.27.03-.04.03-.08-.02-.12-.08.02-.17.06-.26.08-.33.08-.66.15-.98.23-.19.05-.38.1-.56.15-.32.09-.63.19-.94.28-.28.09-.56.17-.85.26-.06.02-.11.04-.12.11.02.05.05.11.07.16.13.36.22.73.28,1.1.04.24.04.48-.02.73-.07.26-.22.43-.47.53-.19.07-.41,0-.5-.18-.07-.14-.11-.29-.1-.44.02-.24.06-.49.11-.72.08-.34.19-.66.28-1,.01-.04.02-.08.03-.14-.07.02-.12.02-.16.04-.43.15-.85.31-1.28.47-.4.15-.79.29-1.18.44-.04.02-.08.06-.11.08,0,.04,0,.06,0,.09.08.37.19.74.19,1.12,0,.02,0,.03,0,.05.07.42.05.84-.04,1.26-.04.18-.1.34-.19.49-.18.3-.45.48-.78.55-.05.01-.12,0-.17-.02-.21-.08-.28-.26-.3-.46-.01-.15,0-.3.03-.45.08-.41.19-.8.34-1.19.16-.4.33-.79.49-1.19.01-.03.03-.06,0-.1-1.19.45-2.32,1.03-3.46,1.58-.04.02-.08.06-.12.09,0,.05,0,.09,0,.13,0,.22,0,.44,0,.66,0,.46-.07.91-.22,1.34-.04.13-.1.25-.17.36-.13.2-.31.35-.56.4-.24.05-.51-.08-.6-.31-.05-.12-.04-.25,0-.37.07-.27.19-.53.33-.76.22-.37.43-.75.72-1.07.03-.03.08-.07.03-.14-.16.05-.28.15-.42.23-.44.24-.87.48-1.3.73-.44.26-.86.53-1.29.8-.06.04-.14.07-.15.15,0,.02,0,.04.02.05.22.35.42.71.59,1.09.16.34.27.69.32,1.06,0,.06.01.12,0,.18-.06.47-.29.69-.68.77-.02,0-.05,0-.07.02-.3.08-.69-.11-.81-.44-.1-.27-.09-.55-.06-.82.06-.53.21-1.04.39-1.54.02-.05.06-.11.01-.17-.02,0-.05,0-.07,0-.7.44-2.29,1.61-2.53,1.86,0,.03,0,.06.02.09.06.13.12.26.19.39.17.31.26.64.34.98.05.21.07.43,0,.65-.13.37-.41.58-.8.57-.26,0-.47-.16-.49-.41-.02-.24-.01-.49.02-.73.02-.2.09-.39.15-.59.05-.17.11-.34.16-.51,0-.03,0-.06,0-.09-.34.19-1.98,1.64-2.47,2.14,0,0,0,.03,0,.06.02.02.04.05.06.07.09.07.18.12.27.19.22.17.43.36.56.61.14.25.11.44-.09.64-.11.11-.24.18-.39.24-.3.12-.56.02-.69-.31-.06-.15-.1-.3-.09-.47,0-.16,0-.32,0-.48,0-.04,0-.09-.07-.1-.03.03-.07.05-.1.09-.4.41-.79.83-1.19,1.24-.07.07-.14.15-.21.22-.13.14-.13.17-.04.33.15.27.27.54.38.83.06.15.09.31.11.46.02.1,0,.2-.03.3-.08.27-.4.41-.66.29-.22-.1-.3-.29-.31-.51-.02-.34-.02-.67.08-1,0-.03,0-.06,0-.16-1.36,1.59-2.54,3.23-3.57,4.99.03.04.05.08.08.11.15.17.31.33.46.51.07.09.15.19.19.3.11.32.03.51-.25.66-.17.09-.35.04-.47-.11-.11-.14-.16-.3-.18-.47-.02-.14-.02-.29-.03-.43,0-.04,0-.09-.06-.1-.1.09-.12.22-.18.33-.44.79-.82,1.61-1.2,2.43-.02.04-.02.08-.03.13.07.05.13.11.2.15.24.16.47.33.68.52.14.13.25.27.34.44.07.12.13.26.11.41-.06.29-.22.51-.48.65-.16.08-.29.06-.42-.05-.09-.08-.17-.16-.22-.27-.17-.33-.26-.68-.33-1.03-.02-.09-.01-.18-.09-.26-.03.02-.05.04-.06.06-.38.94-.71,1.89-.98,2.86.03.11.11.17.18.22.33.26.6.57.84.91.17.23.32.48.36.77.05.31-.03.59-.25.81-.18.18-.38.18-.55,0-.08-.09-.16-.2-.21-.31-.07-.13-.12-.28-.17-.42-.11-.35-.21-.71-.28-1.08-.01-.06-.03-.11-.04-.17,0-.02-.03-.03-.05-.04-.02.02-.04.03-.04.04-.08.38-.15.76-.24,1.13-.13.54-.2,1.09-.31,1.64-.02.09-.04.18.01.3.06.03.14.09.22.12.26.12.5.28.73.45.21.15.4.33.53.57.09.18.07.34-.02.51-.04.06-.1.12-.15.17-.18.17-.47.2-.69.03-.18-.14-.3-.32-.4-.51-.09-.16-.16-.34-.24-.5-.02-.04-.03-.08-.09-.08-.06.1-.06.22-.07.33-.02.37-.04.74-.07,1.11-.05.55-.07,1.09-.07,1.64,0,.06.01.11.02.18.24.08.47.16.7.23.53.17,1.04.39,1.51.7.15.1.27.23.37.38.08.12.14.26.1.41-.05.23-.18.41-.39.54-.19.12-.39.13-.6.04-.29-.12-.52-.32-.72-.54-.32-.37-.63-.75-.86-1.19-.02-.03-.04-.06-.07-.1-.06.03-.06.07-.06.12.03.43.06.86.09,1.29.02.24.03.49.05.73,0,.07.01.13.09.19.02,0,.05.01.08.02.25.06.49.12.74.17.16.04.3.12.42.23.14.13.17.29.13.46-.05.19-.26.29-.44.22-.09-.04-.19-.09-.26-.15-.17-.15-.34-.3-.51-.45-.04-.03-.07-.06-.12-.1-.02.04-.04.06-.03.08.06.54.14,1.07.24,1.6.01.06.04.11.06.17.07,0,.13-.01.18-.02.28-.05.56-.13.84-.16.28-.03.56-.03.83.02.31.06.6.31.58.69-.01.26-.09.5-.23.71-.12.18-.3.28-.53.29-.26,0-.47-.11-.68-.24-.27-.17-.52-.37-.74-.61-.03-.04-.07-.06-.11-.1-.05.08-.03.15,0,.21.02.09.05.18.07.27.08.34.15.67.24,1.01.09.33.19.65.29.97.11.36.23.72.35,1.08.03.09.05.18.15.23.02,0,.05,0,.07,0,.37-.06.74-.08,1.11-.08.18,0,.35,0,.53.03.25.03.5.08.72.22.2.13.33.3.32.54,0,.2-.08.4-.23.55-.09.09-.2.16-.33.18-.18.04-.35,0-.52-.05-.2-.07-.39-.16-.57-.27-.3-.19-.61-.36-.87-.61-.03-.03-.07-.05-.11,0,.01.03.02.07.04.11.06.16.13.31.19.47.11.26.21.53.33.79.13.29.26.57.4.85.17.35.35.69.53,1.03.03.05.07.09.11.13.21-.03.41-.06.61-.09.5-.07.99-.09,1.48.03.15.04.29.08.43.15.29.16.45.41.45.74,0,.28-.09.51-.36.65-.16.08-.33.07-.49.02-.21-.06-.42-.14-.61-.24-.39-.21-.78-.4-1.11-.7-.02-.02-.04-.03-.06-.04-.03-.01-.06-.02-.11-.04.02.06.03.09.05.12.36.6.72,1.2,1.1,1.79.23.36.48.71.73,1.07.05.07.1.16.22.19.05-.02.11-.03.17-.06.3-.14.61-.23.93-.31.23-.06.46-.09.7-.03.23.06.39.19.47.42.06.18.02.31-.13.42-.05.04-.12.06-.18.08-.21.06-.42.06-.63.03-.33-.06-.66-.12-1-.17-.03,0-.06,0-.11.02.04.07.07.12.1.16.22.29.44.58.67.86.29.36.59.71.9,1.07.04.05.1.09.15.13.17-.08.29-.19.44-.28.35-.22.72-.42,1.13-.48.51-.08.9.16,1.08.6.09.2.02.38-.18.49-.14.07-.29.13-.46.12-.26,0-.52-.02-.78-.03-.28,0-.55-.07-.83-.12-.04,0-.07,0-.14,0,.15.19.29.34.43.49.14.16.29.31.44.46.15.16.31.31.47.46.15.14.28.31.47.43.12-.08.24-.16.35-.24.13-.09.26-.19.4-.27.29-.19.6-.33.95-.41.09-.02.18-.03.27-.01.25.04.42.19.51.41.12.27.15.55.06.84-.06.19-.18.32-.36.4-.14.06-.29.08-.45.07-.35-.02-.68-.1-1-.24-.05-.02-.1-.07-.16-.03-.02.05.01.08.05.1.39.35.78.7,1.17,1.04.22.19.44.37.67.54.04.04.1.06.15.09.05-.03.09-.06.14-.09.26-.16.51-.33.78-.48.29-.17.59-.32.92-.41.09-.02.18-.04.27-.04.27,0,.47.16.5.43.04.27-.09.54-.35.68-.24.13-.5.2-.77.21-.14,0-.29,0-.43,0-.2,0-.4,0-.6-.05-.03,0-.06,0-.1.01.08.13.19.19.29.27.5.37,1,.74,1.51,1.11.07.05.14.09.22.13.09-.05.18-.09.25-.14.29-.18.6-.31.92-.42.26-.09.52-.13.8-.11.31.02.58.13.78.37.17.2.12.41-.12.51-.02.01-.05.02-.07.03-.19.08-.39.1-.59.1-.38,0-.76-.02-1.14-.03-.1,0-.2-.03-.3.01.03.09.1.12.16.16.37.24.74.47,1.11.71.28.18.57.36.88.51.05-.04.09-.08.13-.12.17-.17.32-.34.5-.51.29-.27.59-.52.92-.75.3-.21.62-.38.97-.48.33-.1.65-.1.95.09.28.17.49.41.59.73.03.09.06.18.06.27-.02.22-.11.4-.29.54-.14.1-.3.18-.47.24-.51.18-1.04.21-1.57.24-.35.02-.71,0-1.06,0-.04,0-.1-.03-.13.05.03.06.09.09.15.12.45.24.91.49,1.36.73.2.11.4.21.61.31.06.03.12.04.19.06.04-.07.09-.12.12-.18.11-.21.24-.41.4-.58.1-.11.22-.21.34-.3.15-.1.32-.1.48,0,.25.15.38.38.44.65.02.07,0,.15-.04.22-.07.18-.22.27-.39.33-.18.06-.37.11-.57.11-.05,0-.11.02-.2.03.06.04.08.06.11.08.22.1.44.21.67.3.47.2.95.4,1.42.61.13.06.22.04.32-.06.14-.14.29-.28.45-.41.36-.3.73-.59,1.15-.82.19-.1.39-.16.59-.22.21-.06.53.07.66.28.1.15.09.33-.02.47-.12.15-.28.28-.46.35-.23.1-.46.21-.71.27-.13.03-.26.07-.39.11-.26.08-.52.15-.79.18-.05,0-.09.03-.17.05.08.05.12.09.17.11.22.09.44.18.66.26.8.27,1.61.54,2.42.81.23.08.47.15.7.22.19.06.39.1.56.15.11-.04.13-.11.16-.19.05-.14.09-.29.14-.43.18-.52.39-1.02.7-1.48.11-.17.24-.3.4-.42.26-.2.63-.22.91.02.23.19.3.41.19.73-.06.16-.14.31-.26.43-.18.2-.37.39-.58.57-.34.29-.7.56-1.08.79-.03.02-.04.06-.08.11.21.08.4.14.59.19.4.1.8.19,1.2.28.09.02.18.05.27,0,.12-.13.24-.26.36-.39.13-.13.28-.24.41-.37.15-.14.32-.25.51-.32.41-.15.66-.05.85.26.03.06.06.12.08.18.08.22.02.4-.15.55-.11.1-.25.18-.4.21-.11.03-.23.04-.35.07-.05.01-.11.04-.16.05.02.03.03.05.04.05.78.16,1.57.29,2.35.41.09-.05.13-.12.17-.2.05-.1.09-.2.14-.3.19-.4.42-.79.71-1.14.17-.21.38-.38.64-.48.19-.07.38-.08.56.01.29.14.5.36.63.66.07.16.06.31,0,.46-.1.21-.26.35-.44.47-.21.14-.45.24-.68.32-.17.06-.34.1-.51.16-.1.03-.21.04-.31.14.3.04.57.08.85.11.11.01.22.03.33.04.52.02,1.04.13,1.56.13.05,0,.1.02.15.02.15,0,.3.04.46,0Zm-20.83-6.27c.31.04.59.07.88.06.32-.01.64-.04.96-.04.3,0,.59-.06.87-.13.2-.05.4-.12.58-.24.22-.15.29-.32.23-.59-.13-.53-.68-.87-1.23-.73-.29.07-.56.19-.81.35-.53.34-1,.76-1.44,1.22-.02.02-.02.04-.04.1Zm38.5,4.19s.07,0,.08-.02c.43-.39.83-.82,1.13-1.32.09-.15.15-.32.21-.49.03-.08.03-.18.03-.27,0-.2-.1-.35-.27-.46-.27-.17-.56-.23-.87-.2-.2.02-.34.11-.44.3-.13.25-.13.52-.14.79,0,.21.02.42.04.63.04.35.13.69.23,1.04Zm-29.57.25s-.03.06-.03.09c-.03.39-.06.77-.08,1.16,0,.04,0,.08,0,.13.01.14.03.29.03.43,0,.22.08.43.14.64.02.07.06.14.1.2.1.15.23.23.42.24.26,0,.48-.08.67-.24.29-.23.33-.47.24-.79-.06-.22-.16-.43-.3-.61-.32-.45-.69-.85-1.11-1.2-.02-.01-.04-.02-.09-.03Zm54.31-45.29c.07-.05.11-.07.13-.09.4-.47.73-.99.99-1.55.07-.14.12-.28.16-.43.03-.14.05-.28.05-.42,0-.2-.1-.35-.27-.45-.14-.08-.3-.11-.46-.11-.32,0-.55.16-.66.46-.07.17-.12.35-.12.54-.02.51-.02,1.01.08,1.51.03.16.06.33.09.54Zm-9.7,37.19c.05-.07.07-.09.08-.12.06-.18.12-.35.17-.53.1-.35.18-.7.24-1.05.07-.35.07-.7.07-1.05,0-.14-.05-.26-.12-.38-.05-.1-.13-.15-.23-.18-.18-.05-.35,0-.51.07-.29.13-.42.38-.45.68-.03.29,0,.57.06.85.14.57.36,1.1.63,1.62.01.02.03.04.06.09Zm-7.24,4.75s.07-.07.09-.1c.2-.34.39-.69.54-1.05.12-.29.23-.58.3-.88.04-.2.05-.4.03-.6-.02-.2-.13-.34-.32-.41-.38-.15-.83.06-.98.43-.12.31-.12.63-.09.95.06.54.18,1.06.35,1.57.01.03.05.06.08.1Zm-25.1,4.9c.16-.07.24-.18.34-.25.28-.21.53-.44.78-.69.15-.16.31-.31.47-.46.22-.21.41-.45.59-.69.12-.16.22-.34.27-.54.06-.26-.07-.46-.33-.49-.08-.01-.17,0-.25.02-.16.05-.29.13-.41.24-.34.32-.58.72-.79,1.14-.26.5-.44,1.04-.64,1.56-.01.04,0,.08-.01.16ZM63.47,6.31s.06-.04.06-.05c.14-.4.25-.8.3-1.22.03-.25.07-.5.05-.75,0-.15-.04-.28-.1-.41-.09-.19-.25-.29-.46-.28-.18,0-.35.06-.5.15-.18.11-.28.28-.29.5,0,.27.04.52.15.76.18.44.42.84.71,1.22.02.03.06.06.09.09Zm-26.22,64.21c.1,0,.16.01.21,0,.26-.06.53-.11.78-.18.29-.08.58-.19.84-.34.12-.07.23-.15.33-.24.18-.17.21-.35.12-.57-.08-.19-.22-.34-.4-.44-.18-.11-.36-.11-.55-.03-.25.11-.43.29-.59.5-.16.21-.31.44-.44.68-.1.19-.19.39-.31.63ZM55.32,3.8s.06-.06.08-.09c.06-.14.11-.28.16-.42.12-.35.21-.71.26-1.08.03-.22.04-.43-.03-.65-.07-.22-.21-.34-.43-.36-.2-.02-.39.02-.56.11-.2.1-.32.27-.32.5,0,.21.01.42.09.62.16.47.41.91.69,1.32.01.02.04.03.07.05Zm-16.95-.79c-.07-.14-.12-.24-.17-.35-.18-.39-.39-.77-.65-1.11-.1-.13-.21-.26-.34-.38-.09-.08-.21-.14-.32-.2-.1-.05-.21-.04-.31.02-.27.15-.39.39-.43.68,0,.06.01.13.03.2.06.16.16.29.29.4.26.21.55.35.86.48.29.12.61.19.91.29.03,0,.06-.01.12-.03Zm42.72,16.79c.09-.14.16-.23.23-.33.29-.44.56-.9.74-1.4.06-.17.11-.34.14-.51.04-.2-.07-.37-.25-.41-.32-.08-.78.08-.97.35-.1.15-.16.31-.18.49-.02.22-.03.43,0,.65.03.34.12.66.2.99.01.05.04.09.09.17Zm-32.13,51.54s.06.08.08.11c.39.44.83.84,1.28,1.22.24.21.51.39.82.49.26.09.46-.01.52-.28.06-.26-.01-.49-.2-.67-.1-.09-.2-.19-.31-.25-.35-.2-.73-.35-1.12-.46-.28-.07-.56-.13-.84-.19-.06-.01-.13-.04-.22.02Zm2.31-.9c.06-.05.1-.06.12-.1.07-.1.14-.19.2-.29.27-.44.51-.89.65-1.39.04-.15.05-.3.04-.45,0-.15-.08-.25-.21-.32-.21-.12-.43-.12-.66-.03-.16.06-.26.18-.32.34-.06.16-.1.32-.1.49-.02.45.06.89.16,1.32.03.13.07.26.12.43ZM3.67,27.57c-.05-.03-.07-.04-.1-.05-.14-.02-.28-.03-.42-.06-.51-.09-1.02-.07-1.53.07-.16.04-.31.12-.46.2-.12.06-.21.17-.27.29-.08.16-.07.26.05.39.11.12.25.17.4.19.31.04.62,0,.92-.1.39-.13.73-.34,1.05-.59.13-.1.24-.21.36-.35Zm79.62,22.21s.04-.04.05-.06c.09-.61.08-1.21-.07-1.8-.06-.23-.15-.45-.3-.63-.08-.1-.17-.18-.29-.23-.17-.07-.32-.02-.42.12-.07.1-.11.21-.12.33-.03.33.03.64.14.94.2.5.53.91.92,1.28.02.02.06.04.09.06ZM27.23,5.6s-.01-.07-.03-.1c-.15-.26-.3-.53-.48-.77-.23-.3-.49-.58-.8-.8-.18-.12-.37-.2-.58-.22-.11-.01-.22,0-.31.07-.15.11-.21.29-.12.5.05.13.12.26.21.37.22.27.49.49.81.63.21.09.42.17.64.23.2.05.4.07.59.12.02,0,.05-.01.08-.02Zm40.87,3.51c-.07,0-.1-.02-.13-.02-.2.03-.4.06-.6.09-.42.07-.83.16-1.22.33-.13.06-.25.13-.37.22-.17.13-.21.3-.15.5.05.18.16.31.31.42.16.11.34.13.53.07.22-.08.41-.19.58-.35.21-.2.42-.42.61-.64.16-.17.29-.37.42-.61Zm-6.66,59.48c0,.1.07.13.11.17.38.35.8.64,1.24.9.23.14.47.26.75.28.2.02.33-.06.4-.23.03-.06.04-.13.05-.19.03-.32-.1-.57-.37-.75-.19-.13-.42-.18-.64-.21-.5-.07-1-.03-1.51.01,0,0-.01,0-.03.02Zm7.31-3.29c.02.06.03.09.05.12.17.22.33.45.51.66.18.2.39.37.63.49.28.13.51.05.68-.15.14-.17.23-.37.28-.59.05-.25-.03-.45-.26-.56-.14-.07-.28-.11-.44-.11-.28,0-.56,0-.83,0-.2,0-.4.05-.61.13Zm-11.18,4.59c0,.06-.01.11,0,.15.03.15.07.3.1.44.07.3.17.58.3.86.07.13.16.26.26.37.18.2.37.22.59.09.23-.14.4-.34.49-.59.04-.1.04-.2,0-.3-.04-.12-.1-.24-.2-.32-.11-.09-.22-.18-.34-.26-.34-.21-.72-.33-1.1-.45-.03,0-.06,0-.11,0ZM2.15,34.72c-.1.04-.17.13-.26.19-.34.22-.65.49-.94.76-.18.17-.35.37-.51.55-.08.1-.14.21-.17.34-.04.2.02.35.21.44.25.11.49.11.72-.05.13-.09.24-.21.33-.34.12-.18.22-.38.31-.58.15-.35.25-.71.34-1.08.02-.07.05-.15-.03-.22Zm84.44,6.67s.06.03.08.03c.42-.08.85-.12,1.26-.27.2-.07.4-.14.58-.25.1-.06.19-.14.27-.22.12-.12.15-.26.11-.42-.05-.2-.17-.35-.34-.45-.1-.06-.22-.09-.34-.07-.11.02-.21.05-.31.11-.19.12-.37.26-.53.43-.28.32-.52.66-.75,1.02-.02.03-.02.06-.04.09Zm-.32-10.23c.08-.02.12-.01.15-.03.07-.04.14-.09.22-.13.42-.27.81-.58,1.13-.96.08-.09.14-.19.19-.29.16-.32.04-.54-.18-.68-.36-.22-.62-.18-.86.09-.13.14-.22.3-.28.48-.09.25-.17.51-.23.77-.05.24-.07.48-.14.76ZM18.14,10.98c-.04.06-.08.1-.09.14-.14.42-.26.86-.33,1.3-.03.19-.03.39-.02.58,0,.11.06.23.11.33.05.12.15.18.28.2.15.02.3.02.45-.04.21-.08.34-.22.36-.45,0-.15,0-.3-.02-.45-.06-.38-.22-.72-.39-1.06-.09-.18-.18-.36-.34-.55Zm-9.26,44.77s-.08.06-.1.08c-.22.38-.42.77-.58,1.18-.07.19-.11.39-.14.59-.02.1,0,.2,0,.3,0,.1.05.2.13.27.29.25.84.2,1.01-.2.05-.11.07-.22.08-.34,0-.29-.03-.57-.08-.85-.07-.34-.18-.66-.31-1.02ZM52.12,3.27c.01-.07.03-.09.02-.11-.13-.42-.27-.83-.46-1.23-.11-.23-.22-.45-.36-.66-.11-.16-.24-.3-.43-.38-.05-.02-.12-.04-.17-.03-.35.08-.51.43-.41.69.08.19.18.36.31.52.22.26.48.47.75.68.23.18.48.34.75.53Zm-26.43,3.71s-.04,0-.05-.01c-.03.06-.07.11-.09.17-.19.45-.39.89-.54,1.36-.11.34-.19.68-.22,1.03,0,.09,0,.19.03.27.04.14.12.18.27.15.14-.03.27-.1.37-.2.13-.12.23-.27.29-.44.14-.4.15-.81.12-1.22-.01-.16-.03-.32-.04-.48-.02-.22-.1-.42-.13-.63Zm5.53,62.13s.04.01.04,0c.04-.02.08-.03.11-.05.42-.24.78-.55,1.15-.86.15-.13.28-.29.41-.45.07-.08.12-.19.15-.29.05-.12.06-.25-.01-.37-.18-.28-.48-.3-.68-.18-.11.06-.21.14-.29.24-.14.18-.27.37-.37.57-.21.41-.38.84-.52,1.29,0,.03,0,.07.01.1Zm48.29-13.34c.02-.1.04-.16.05-.23.06-.36.1-.72.08-1.08-.01-.16-.03-.32-.07-.47-.06-.25-.24-.36-.5-.31-.25.05-.46.17-.62.36-.15.17-.17.37-.09.57.05.12.12.24.2.35.22.31.51.54.81.75.03.02.07.03.14.06Zm7.28-21.11s.05.03.06.03c.03,0,.07-.01.1-.03.43-.21.83-.48,1.2-.78.13-.11.24-.24.34-.37.14-.19.13-.41,0-.56-.29-.32-.77-.32-1.04.02-.11.13-.19.28-.27.43-.19.39-.29.82-.39,1.26Zm-3.53,16.36s.03.05.04.05c.23.06.45.13.68.18.22.04.45.06.67.09.18.02.37.01.55-.02.35-.07.54-.25.39-.7,0-.02,0-.03-.02-.05-.11-.23-.28-.37-.55-.38-.25-.01-.48.07-.71.16-.36.15-.68.36-1,.58-.03.02-.05.06-.07.09Zm-76.69,1.68c-.1.11-.18.2-.27.28-.3.28-.52.61-.75.95-.06.08-.11.17-.14.27-.04.1-.07.21-.08.32-.02.21.08.36.28.42.1.03.2.04.3.05.23.01.41-.09.53-.29.04-.06.07-.12.09-.18.06-.19.13-.38.12-.59,0-.07.02-.15.02-.23,0-.09,0-.18,0-.28,0-.08-.01-.17-.02-.25,0-.12,0-.24-.02-.35,0-.04-.03-.07-.06-.12ZM16.62,11.12c-.04-.06-.06-.09-.08-.11-.37-.3-.77-.54-1.19-.76-.23-.12-.47-.19-.73-.16-.18.02-.28.1-.31.27-.02.12-.02.25-.02.38,0,.2.12.34.29.44.14.07.28.11.43.12.2,0,.4.01.6,0,.33-.01.64-.1,1-.18Zm16.2-6.44s-.07.08-.09.11c-.21.3-.39.63-.57.95-.13.24-.21.5-.27.76-.02.1-.03.22-.01.32.03.22.17.34.38.38.3.05.49-.05.61-.32.02-.05.04-.09.05-.14.07-.27.11-.54.08-.83,0-.09-.02-.19-.02-.28.01-.31-.07-.6-.12-.9,0-.01-.02-.03-.05-.06ZM6.19,50.77s.04.06.05.07c.39.33.82.59,1.27.82.19.1.41.17.62.22.34.08.5-.18.52-.41.01-.27-.07-.48-.32-.61-.07-.04-.15-.08-.23-.1-.38-.09-.76-.13-1.15-.1-.13.01-.25.02-.38.04-.12.02-.25.01-.38.07Zm80.02-10.43c-.05-.14-.09-.25-.12-.36-.07-.25-.17-.49-.28-.73-.05-.1-.09-.2-.14-.3-.1-.17-.19-.34-.31-.49-.08-.1-.18-.17-.29-.24-.09-.06-.19-.07-.29-.02-.24.13-.47.46-.31.82.06.12.12.24.22.34.19.2.4.39.64.53.26.16.53.3.79.45.02,0,.05,0,.1,0ZM2.67,37.64c.03.06.04.09.05.12.21.38.48.73.76,1.07.19.23.4.43.68.55.24.1.39.08.57-.1.18-.18.21-.44.04-.64-.08-.1-.18-.18-.28-.25-.21-.15-.45-.26-.68-.37-.33-.15-.67-.26-1.02-.37-.03,0-.06,0-.13,0ZM36.54,3.87c-.08.04-.11.05-.14.06-.13.09-.27.17-.39.27-.25.21-.51.41-.75.64-.19.19-.36.4-.44.67-.06.21.01.42.21.55.18.13.42.12.58-.03.09-.08.16-.17.23-.27.29-.45.45-.96.6-1.47.04-.13.06-.26.1-.43Zm-17.06,5.35c-.13-.12-.22-.2-.32-.28-.41-.33-.83-.64-1.31-.85-.12-.05-.24-.08-.37-.09-.23-.03-.36.1-.4.27-.08.37-.02.59.3.78.04.03.09.05.14.07.22.06.44.14.66.16.38.03.76,0,1.14,0,.04,0,.07-.03.15-.05Zm65.85,18.66s.04.03.06.03c.02,0,.05,0,.07,0,.41-.06.82-.12,1.19-.29.15-.07.29-.14.4-.26.12-.13.17-.28.11-.44-.07-.21-.19-.39-.38-.52-.22-.15-.43-.14-.62.04-.11.1-.21.22-.3.34-.2.27-.33.57-.45.87-.03.08-.06.15-.08.23ZM43.16,3.29s-.07.01-.08.02c-.32.3-.59.65-.8,1.04-.05.1-.09.22-.12.33-.06.26.03.45.27.56.18.09.38.13.59.1.15-.02.27-.09.34-.23.05-.09.07-.19.08-.29.03-.41-.05-.81-.16-1.2-.03-.11-.08-.22-.12-.34ZM3.11,42.58s.03.08.05.1c.19.19.38.39.58.57.18.16.39.3.62.38.27.1.52.03.65-.21.09-.16.15-.34.15-.53,0-.23-.12-.41-.35-.47-.15-.04-.3-.06-.45-.05-.39.02-.77.05-1.15.16-.04.01-.07.04-.11.06Zm9.49,16.52c.43.24.84.38,1.29.45.16.02.32.03.47-.02.19-.06.29-.19.32-.38.03-.2,0-.39-.06-.57-.06-.18-.2-.29-.4-.29-.18,0-.35.02-.52.09-.37.16-.7.36-1.01.61-.03.02-.05.06-.1.11Zm68.49-4.67c.06.03.1.06.14.07.29.05.58.09.87.13.36.05.71-.02,1.05-.11.08-.02.16-.06.23-.09.12-.06.23-.15.3-.26.12-.17.07-.32-.09-.44-.03-.02-.07-.04-.11-.05-.16-.05-.33-.1-.5-.07-.21.04-.42.07-.62.14-.43.13-.82.36-1.2.59-.03.02-.05.06-.09.1ZM41.53,2.7c.01-.07.03-.11.03-.15,0-.08-.03-.15-.03-.22,0-.26-.05-.52-.11-.77-.08-.3-.17-.6-.34-.86-.08-.13-.17-.25-.3-.34-.08-.06-.17-.11-.27-.13-.16-.04-.31.07-.34.22-.03.18-.03.35.02.53.1.3.25.57.44.82.23.3.51.56.78.83.02.02.05.04.12.08ZM7.4,20.31s-.06-.04-.08-.05c-.23-.04-.46-.1-.7-.12-.33-.02-.66-.01-.99-.02-.14,0-.26.04-.39.1-.23.1-.31.29-.27.48.01.07.03.13.06.19.07.17.2.27.38.28.15.01.3,0,.45-.04.24-.07.46-.17.68-.27.29-.13.54-.31.8-.48.02-.01.03-.04.06-.08Zm63.98-9.05c-.06-.02-.1-.04-.14-.04-.36-.02-.73-.04-1.09,0-.2.02-.4.05-.59.14-.12.06-.24.12-.34.21-.19.18-.25.42-.16.67.05.15.15.22.31.21.13,0,.25-.03.37-.08.59-.25,1.1-.62,1.59-1.03.02-.01.03-.04.06-.09Zm-.39,52.01c.24-.37.39-.74.5-1.12.05-.17.07-.34.07-.52,0-.27-.14-.41-.42-.44-.15-.01-.28.02-.42.06-.25.08-.36.23-.38.53,0,.05,0,.1.02.15.07.47.29.87.54,1.27.02.03.05.04.1.08ZM2.86,30.61c-.38.13-.72.26-1.04.43-.21.11-.42.22-.6.38-.09.08-.18.18-.24.29-.07.12-.06.22.01.33.08.12.19.21.32.27.16.07.31.08.46,0,.09-.05.19-.11.27-.19.11-.11.21-.22.29-.35.2-.3.35-.62.47-.95.02-.05.03-.11.05-.22Zm10.67,30.15c-.28.44-.48.88-.63,1.33-.07.19-.09.39-.07.6.01.14.08.24.2.3.21.12.42.11.62-.01.06-.04.12-.1.15-.16.06-.12.1-.25.11-.38.02-.4-.09-.78-.17-1.17-.03-.12-.08-.24-.12-.36-.02-.04-.05-.08-.09-.15ZM79.04,17.25c.04-.09.07-.14.08-.2.06-.34.17-.67.17-1.02,0-.04.01-.08.02-.12.06-.29.07-.58.07-.88,0-.14-.05-.26-.11-.39-.04-.09-.12-.12-.21-.07-.28.14-.47.34-.54.66-.07.33-.02.65.06.97.08.33.24.63.37.94.01.03.04.05.09.11Zm-68.18-1.19c-.06-.04-.09-.07-.12-.08-.3-.09-.6-.17-.9-.25-.18-.05-.36-.08-.54-.11-.27-.05-.55-.07-.83-.05-.28.02-.35.17-.21.41.15.26.36.42.66.47.27.05.54.04.81,0,.38-.06.75-.18,1.14-.38Zm71.9,11.78c0,.05,0,.09,0,.13.11.55.44.91.94,1.14.44.2.91.23,1.39.22.04,0,.08,0,.1-.07-.01-.02-.02-.04-.04-.06-.47-.37-.94-.73-1.45-1.05-.18-.11-.37-.21-.56-.3-.11-.05-.22-.08-.37-.02ZM4.46,46.91s.05.08.08.11c.29.27.63.48.97.67.13.07.27.14.42.18.14.03.28.03.42.03.04,0,.08-.02.12-.04.28-.18.37-.69-.03-.87-.05-.02-.1-.06-.16-.07-.18-.04-.36-.08-.54-.1-.4-.04-.8,0-1.21.04-.01,0-.03.02-.07.05ZM72.85,11.41s.06-.04.07-.06c.28-.48.5-.99.62-1.54.02-.11,0-.22-.01-.32-.05-.28-.27-.38-.51-.39-.2,0-.34.11-.41.3-.03.07-.05.14-.06.22-.03.23-.04.47.02.7.02.08.03.17.04.25.02.26.12.51.18.76,0,.02.03.04.06.08Zm3.41,2.76c.12-.39.18-.78.24-1.17.04-.25.04-.5.03-.76,0-.15-.05-.28-.12-.41-.07-.13-.18-.17-.32-.15-.22.04-.37.16-.42.38-.04.16-.04.32-.02.48.02.21.07.41.13.62.09.31.2.61.33.9.02.05.05.11.14.11Zm-40.34,56.73c-.03.05-.06.08-.06.12-.04.28-.11.56-.13.84-.02.28-.03.55-.02.83,0,.13.05.24.11.36.06.11.14.17.26.17.07,0,.14,0,.2,0,.19-.03.36-.2.38-.39.02-.17.02-.35-.03-.52-.1-.33-.24-.65-.4-.95-.08-.15-.17-.3-.31-.45Zm36.74-8.09c.03.12.03.12.08.18.25.28.55.49.86.69.14.09.3.16.47.17.21.02.36-.06.44-.26.05-.12.07-.24.07-.37,0-.23-.12-.4-.34-.47-.11-.03-.23-.06-.34-.07-.4-.03-.79.02-1.18.08-.02,0-.04.03-.06.04ZM5.27,23.98s-.04-.05-.05-.06c-.55-.16-1.12-.24-1.69-.2-.1,0-.18.04-.26.09-.11.06-.15.15-.14.27,0,.06.02.12.04.17.13.39.52.58.85.47.22-.07.43-.15.62-.26.23-.13.43-.29.63-.48Zm70.6,36.38c.19.38.43.69.7.98.07.07.15.13.24.18.18.11.34.07.46-.1.16-.24.23-.51.2-.79,0-.05-.02-.1-.05-.14-.1-.2-.28-.27-.48-.28-.23-.01-.46,0-.68.02-.13.01-.27.03-.39.13ZM2.04,38.46c-.35.08-.68.15-1,.28-.19.08-.39.16-.56.28-.08.05-.14.11-.2.19-.08.11-.08.21-.02.33.21.4.65.49,1,.21.04-.03.08-.07.11-.1.31-.32.53-.69.69-1.1,0-.01,0-.03-.02-.08Zm41.06,33.21s0,.09,0,.13c.1.26.19.52.3.77.14.33.28.67.48.97.08.12.17.23.28.32.11.09.2.08.29,0,.08-.08.14-.17.15-.28.01-.19,0-.37-.1-.54-.07-.11-.12-.22-.2-.32-.31-.41-.71-.73-1.13-1.03-.02-.01-.05,0-.09-.01Zm20.73-6.48c-.57-.08-.94.29-.84.83.07.43.26.82.5,1.17.01.02.04.02.08.04.03-.03.06-.06.07-.1.04-.1.07-.21.11-.31.13-.38.19-.77.23-1.16.02-.17,0-.34-.15-.48ZM53.78,4.13s-.06.02-.08.04c-.34.26-.61.58-.85.92-.08.11-.13.24-.16.37-.05.21,0,.33.19.45.02.01.04.03.07.04.31.13.6.07.74-.25.04-.1.08-.21.1-.31.03-.17.04-.35.07-.53.04-.23,0-.45-.02-.68,0-.01-.02-.02-.04-.04ZM15.72,62.56c-.09.04-.1.11-.12.17-.07.26-.11.53-.16.79-.07.32-.05.64.03.95.07.27.24.46.49.58.13.06.24,0,.27-.13.02-.06.03-.13.02-.2-.02-.22-.02-.44-.07-.65-.11-.48-.24-.95-.41-1.4-.01-.04-.04-.06-.06-.1ZM60.98,6.07c-.08.01-.11.02-.14.02-.39.12-.79.24-1.17.39-.25.1-.5.21-.73.35-.12.07-.24.16-.28.31.03.12.11.18.21.23.18.08.37.1.56.05.17-.05.33-.11.48-.22.39-.27.71-.62,1-.99.02-.03.03-.07.07-.15Zm-30.15-1.68s-.02-.06-.04-.08c-.31-.34-.66-.65-1.02-.94-.13-.1-.28-.19-.42-.27-.1-.06-.22-.09-.34-.09-.12,0-.21.07-.24.19-.04.21-.01.4.15.56.1.1.22.18.35.25.28.15.58.23.88.31.15.04.3.07.44.1.07.01.15.04.24-.02Zm54.08,43.32c.05.02.09.04.13.04.09.02.18.03.27.05.32.08.65.09.97.1.12,0,.25-.02.38-.04.07-.01.15-.04.21-.08.14-.08.18-.19.14-.34-.08-.34-.34-.53-.69-.47-.18.03-.36.09-.53.16-.14.06-.27.13-.4.21-.14.09-.28.18-.42.28-.02.02-.03.05-.06.09Zm2.1-10.19s.08.02.1,0c.27-.08.55-.08.81-.18.13-.05.27-.08.41-.11.22-.05.41-.14.61-.24.09-.05.18-.12.26-.2.11-.11.1-.22,0-.34-.1-.12-.21-.19-.37-.19-.14,0-.27,0-.39.07-.18.09-.36.18-.52.3-.32.24-.61.51-.88.8-.02.02-.02.04-.03.08Zm-9.88-21.56c-.09-.05-.13-.09-.17-.1-.19-.06-.39-.11-.58-.16-.21-.05-.43-.08-.64-.13-.22-.05-.45-.05-.68-.04-.08,0-.17.03-.24.06-.1.04-.15.14-.13.25.03.2.13.36.34.43.14.05.29.07.45.07.43,0,.85-.11,1.26-.22.12-.03.23-.09.4-.15Zm-55.55-7.06s-.07.05-.09.08c-.07.09-.14.19-.21.28-.26.36-.5.73-.68,1.15-.05.13-.09.27-.12.41-.03.16.06.28.23.3.19.03.37-.02.5-.18.09-.12.17-.25.22-.4.16-.51.22-1.03.2-1.57,0-.02-.02-.04-.04-.08Zm-6.4,4.1s-.07.06-.07.08c-.08.23-.16.46-.23.69-.05.15-.1.31-.11.46-.02.21-.02.42-.02.63,0,.13.1.23.22.24.17.03.33,0,.47-.12.19-.16.24-.38.22-.61-.02-.3-.11-.58-.21-.85-.07-.18-.15-.35-.27-.53Zm58.84.15s-.07-.05-.09-.05c-.31-.05-.63-.13-.95-.11-.04,0-.08,0-.13,0-.19-.04-.38.01-.58.03-.08,0-.16.05-.23.1-.11.07-.15.2-.12.33.09.34.35.52.7.45.15-.03.31-.08.45-.14.16-.07.32-.15.47-.24.16-.09.31-.2.46-.35Zm-28.45,58.29c.01.06.01.1.03.12.19.36.44.68.72.97.09.09.19.17.3.23.13.08.28.11.41.01.28-.21.4-.66,0-.91-.16-.1-.33-.17-.5-.23-.3-.09-.61-.13-.95-.2ZM57.15,5.04c-.07.04-.11.07-.15.1-.23.18-.47.36-.69.55-.23.2-.44.41-.66.63-.1.1-.17.23-.23.36-.1.22.11.4.3.37.12-.02.23-.06.32-.14.11-.09.21-.19.3-.3.35-.44.59-.94.81-1.45,0-.02,0-.05,0-.11Zm1.95-.3c.05-.15.02-.25.02-.34-.02-.24-.06-.48-.08-.73-.03-.33-.1-.65-.21-.96-.04-.11-.09-.21-.22-.26-.03.02-.07.03-.09.05-.24.22-.36.49-.3.81.02.14.07.28.12.41.13.33.36.61.6.87.04.05.09.09.17.15Zm-32.75,62.72c.07.06.15.03.22.02.23-.05.46-.12.69-.17.34-.07.66-.19.98-.34.13-.06.25-.15.35-.25.14-.14.1-.29-.07-.39-.11-.06-.23-.07-.34-.05-.19.02-.36.09-.52.18-.46.25-.86.59-1.26.93-.02.01-.02.04-.03.07ZM69.72,9.38c.08-.1.05-.21.07-.31.09-.38.08-.77.08-1.16,0-.17-.04-.33-.09-.5-.03-.08-.07-.15-.14-.21-.06-.05-.12-.06-.19-.04-.15.05-.28.13-.33.29-.05.14-.07.29-.04.45.1.49.3.94.55,1.37.02.03.05.06.09.1Zm-15.8,61.37c.03.07.05.11.08.15.18.26.41.49.62.73.14.16.3.29.47.42.08.06.17.1.27.14.19.07.35-.04.39-.24.03-.17,0-.32-.13-.44-.08-.08-.17-.17-.27-.23-.15-.09-.31-.17-.47-.24-.27-.1-.54-.19-.81-.27-.04-.01-.08,0-.15,0ZM3.57,29.95c0,.06-.01.09,0,.13.08.45.17.89.31,1.32.06.17.14.34.22.51.04.09.11.17.22.2.03-.01.07-.02.09-.04.16-.11.23-.26.24-.45.01-.23-.05-.45-.16-.65-.22-.38-.51-.69-.82-.98-.02-.02-.04-.02-.1-.04Zm18.02,36.19c-.02.06-.05.09-.05.13-.01.09-.02.18-.03.28-.03.39-.05.79.03,1.18.03.14.06.28.14.4.09.13.23.18.37.14.16-.04.25-.14.27-.3.01-.11,0-.22-.02-.32-.13-.5-.35-.96-.62-1.4-.02-.03-.05-.06-.1-.11Zm-10.97-9.24c.2.03.35.06.49.08.37.06.75.09,1.13.07.12,0,.23-.03.34-.09.06-.03.11-.07.13-.17-.03-.15-.12-.29-.26-.39-.19-.14-.4-.16-.63-.12-.41.06-.76.26-1.1.48-.03.02-.05.06-.11.13Zm2.72-43.3s-.05-.07-.08-.08c-.4-.17-.79-.32-1.21-.42-.19-.04-.39-.05-.58-.02-.16.02-.25.14-.29.28-.04.13.02.27.15.35.05.03.1.06.16.07.1.02.2.04.3.05.48.03.95-.06,1.42-.16.04,0,.07-.04.13-.07ZM4.7,49.05c-.1.12-.15.2-.21.26-.18.21-.31.44-.44.68-.1.19-.16.39-.15.6,0,.16.08.29.2.39.21.18.42.12.52-.13,0,0,0-.02,0-.02.04-.17.1-.34.1-.52,0-.11.01-.22.02-.33.03-.29,0-.58-.05-.94Zm50.72,20.69c.06-.04.1-.06.13-.09.21-.22.37-.48.52-.74.11-.19.2-.39.29-.59.03-.08.03-.18.03-.27,0-.09-.05-.15-.13-.2-.15-.08-.33-.06-.47.06-.11.09-.19.22-.23.36-.06.22-.14.45-.13.69,0,.07-.02.15-.02.22-.02.17-.03.33.01.55Zm26.4-17.33c.03-.09.05-.12.06-.16.06-.23.13-.47.18-.71.06-.27.07-.55.06-.83,0-.06-.01-.12-.03-.17-.04-.11-.11-.17-.23-.16-.07,0-.14.02-.19.05-.18.1-.3.25-.31.46-.01.23,0,.45.07.67.09.25.15.5.28.73.02.03.05.06.1.12ZM15.36,61.29s.07.03.09.03c.26.06.52.04.78.05.21,0,.42-.04.62-.09.09-.02.17-.07.25-.11.17-.09.23-.24.21-.42-.01-.19-.13-.29-.32-.26-.13.02-.27.05-.39.09-.43.15-.82.39-1.2.63-.02.01-.02.04-.04.08ZM64.74,7.49c-.11,0-.16-.02-.2-.02-.11,0-.22.02-.33.03-.23.03-.47.05-.7.1-.16.03-.31.08-.46.14-.08.03-.15.07-.22.12-.12.09-.14.23-.06.36.09.13.2.22.37.22.16,0,.31-.02.46-.1.34-.17.64-.4.93-.65.06-.05.11-.1.2-.2Zm-18.48-4.13c-.05.02-.08.02-.1.03-.25.2-.46.44-.66.69-.11.14-.2.29-.25.46-.02.07-.03.13,0,.2.12.29.55.36.75.12.08-.1.14-.21.17-.34.04-.16.07-.33.1-.49.03-.22.03-.43,0-.67Zm-12.58,66.52s.05.04.07.04c.42.03.84,0,1.25-.11.07-.02.14-.05.21-.09.16-.1.26-.27.14-.47-.02-.04-.04-.08-.06-.11-.08-.11-.18-.17-.32-.17-.22,0-.4.11-.57.23-.24.17-.45.38-.65.59-.02.02-.03.05-.06.09ZM5.4,28.01c.2-.04.33-.17.41-.35.08-.19.03-.37-.08-.53-.06-.09-.13-.18-.21-.25-.18-.15-.36-.3-.55-.44-.04-.03-.1-.05-.16-.09-.01.05-.03.08-.03.11,0,.07.04.15.04.22.02.31.12.59.22.88.03.09.07.17.12.25.05.09.12.16.24.21ZM23.62,7.13c-.1-.15-.21-.22-.32-.3-.23-.18-.47-.36-.74-.47-.12-.05-.24-.07-.37-.05-.05,0-.12.04-.15.07-.23.23-.16.55.13.68.15.07.3.11.46.11.08,0,.17.01.25.02.19,0,.39.01.58,0,.04,0,.09-.03.16-.06Zm.99,60.49c-.03.08-.05.11-.06.14-.1.37-.22.74-.3,1.12-.05.22-.04.45-.04.68,0,.13.1.19.23.14.2-.09.35-.24.41-.45.05-.17.07-.34.06-.52-.02-.31-.11-.61-.2-.91-.02-.05-.05-.1-.1-.19Zm53.85-9.88c.09.02.12.04.15.04.5.04,1.01.05,1.51-.01.14-.02.28-.06.41-.11.06-.02.12-.07.16-.11.08-.08.07-.19,0-.27-.06-.06-.13-.11-.22-.11-.14,0-.29-.02-.43.01-.25.05-.51.11-.75.21-.09.03-.18.06-.26.09-.17.07-.36.13-.57.25ZM8.67,18.7c-.13-.08-.22-.15-.32-.21-.25-.14-.51-.27-.79-.33-.19-.04-.31.03-.36.22-.06.21,0,.4.11.58.04.07.12.12.21.13.13,0,.28.02.4-.01.23-.06.46-.15.67-.29.03-.02.04-.05.08-.09Zm38.8,52s.05-.07.06-.09c.16-.35.33-.7.49-1.05.06-.14.1-.29.14-.43.04-.15.05-.3.03-.45-.03-.19-.2-.26-.36-.14-.05.03-.08.08-.12.13-.09.14-.14.29-.17.44-.1.48-.1.97-.13,1.46,0,.03.03.07.06.14ZM44.62,2.61c.02-.05.04-.08.04-.1.02-.44-.03-.88-.08-1.31-.02-.13-.06-.26-.1-.39-.03-.1-.08-.19-.19-.21-.2.07-.29.23-.33.42-.04.2-.03.4.04.6.12.34.31.63.53.92.02.03.05.04.1.08ZM2.8,33.6s-.02.02-.01.03c.08.34.22.65.38.96.08.15.17.29.32.38.15.1.28.09.42-.02.14-.12.19-.27.12-.42-.04-.09-.1-.18-.16-.25-.28-.29-.63-.5-.99-.68-.02,0-.05,0-.06,0ZM40,3.77s-.03-.01-.05-.02c-.03.04-.08.08-.1.13-.2.46-.41.92-.51,1.42-.03.14-.04.28-.03.43.01.18.18.25.33.16.06-.03.11-.08.14-.14.07-.14.13-.29.16-.45.06-.36.06-.72.06-1.08,0-.15,0-.3-.01-.45ZM3.17,45.07s-.03-.01-.05-.02c-.03.03-.06.05-.08.09-.16.32-.33.64-.48.97-.11.24-.18.51-.21.77,0,.04,0,.08,0,.12.03.14.17.24.33.15.1-.06.17-.14.21-.24.05-.13.1-.27.14-.4.08-.33.12-.66.12-1,0-.1.02-.2.02-.3,0-.05,0-.1,0-.14ZM49.95,3.62c-.06.03-.1.03-.13.06-.24.18-.48.35-.71.53-.14.12-.27.26-.35.43-.1.19-.02.37.18.44.16.05.3.02.42-.08.12-.1.2-.23.27-.36.14-.27.24-.56.32-.85.01-.04,0-.09,0-.16Zm35.66,39.32c-.05-.08-.07-.12-.1-.16-.21-.21-.41-.42-.63-.62-.13-.12-.28-.22-.42-.32-.07-.05-.15-.08-.23-.1-.15-.04-.24.02-.3.16-.03.07-.02.15,0,.22.05.14.14.25.27.33.13.09.27.17.42.23.19.08.38.14.57.19.12.03.24.07.42.06ZM17.7,63.11c.11.02.16.03.2.03.26.01.52.03.78.04.29,0,.57.03.86-.02.09-.02.18-.04.27-.07.1-.04.12-.12.05-.2-.1-.12-.23-.19-.38-.24-.17-.05-.35-.05-.53-.03-.39.04-.74.21-1.1.37-.04.02-.08.06-.16.13Zm14.77,7.21s-.04.01-.04.02c-.02.17-.03.33-.04.5,0,.12.01.24.03.35.02.16.03.32.06.48.02.09.06.17.11.25.07.12.2.15.33.11.19-.07.31-.26.28-.46,0-.05-.02-.1-.04-.15-.13-.4-.36-.74-.63-1.06-.02-.02-.04-.03-.06-.04ZM28.75,5.92c-.04.08-.07.12-.08.16-.07.23-.13.47-.19.7-.06.25-.08.5-.08.75,0,.06,0,.12.02.17.03.13.14.19.27.15.14-.04.25-.12.29-.26.04-.13.07-.26.08-.39,0-.41-.11-.8-.23-1.18,0-.03-.04-.05-.08-.11ZM2.29,41.49c-.06.03-.1.04-.13.06-.08.06-.16.12-.24.19-.26.21-.51.42-.73.66-.1.12-.18.24-.2.4.14.2.27.25.47.15.06-.03.11-.07.16-.11.13-.12.25-.25.33-.41.12-.24.22-.49.32-.74.02-.05,0-.11.01-.19ZM12.3,15.46c-.09.26-.11.72-.05.94.02.06.04.11.06.17.09.19.22.24.41.17.04-.01.08-.03.11-.05.34-.18.38-.43.13-.71-.1-.11-.21-.22-.32-.32-.09-.08-.19-.16-.34-.19ZM34.62,3.55c-.18-.17-.3-.29-.43-.41-.22-.21-.44-.42-.71-.56-.09-.05-.18-.09-.28-.11-.11-.03-.2.03-.23.14-.03.15-.02.28.09.4.08.1.19.17.3.22.32.17.68.24,1.03.32.05.01.11,0,.23,0Zm-11.48,62.71s.05.05.06.05c.32.04.64.01.95-.09.06-.02.11-.05.16-.08.11-.08.14-.19.1-.31-.04-.14-.11-.26-.23-.36-.13-.11-.25-.13-.39-.04-.04.03-.09.05-.12.09-.22.21-.39.46-.52.74Zm53.6-7.82s.02-.07.02-.11c0-.34,0-.67-.02-1.01-.01-.17-.07-.34-.12-.51-.02-.05-.06-.1-.1-.14-.04-.05-.1-.06-.16-.03-.13.05-.24.14-.25.29-.02.16-.02.32.03.47.11.35.3.66.48.97.02.04.05.09.13.08Zm7.07-32.82c-.01-.07-.05-.1-.09-.13-.25-.18-.5-.37-.75-.55-.14-.09-.29-.18-.44-.25-.1-.05-.21-.07-.31-.09-.15-.03-.26.09-.24.24.01.09.05.16.12.22.13.11.27.2.43.26.37.15.76.21,1.14.3.04.01.09,0,.15,0ZM18.48,64.24c-.04.06-.07.09-.09.13-.12.31-.2.62-.24.95-.01.08,0,.17.03.25.04.14.17.21.32.19.28-.03.4-.18.39-.46,0-.11-.02-.22-.06-.32-.08-.2-.17-.4-.26-.6-.02-.04-.04-.07-.09-.14Zm46.62,2.94s0,.07,0,.09c.13.29.29.55.52.77.06.06.13.1.2.15.08.05.16.03.24-.01.12-.07.18-.17.23-.29.05-.13.03-.25-.06-.35-.11-.12-.24-.18-.39-.22-.1-.03-.21-.06-.32-.08-.14-.03-.27-.06-.42-.04Zm21.17-30.97c-.05-.06-.08-.11-.13-.14-.22-.16-.44-.32-.66-.46-.1-.07-.23-.1-.35-.14-.15-.04-.27.04-.31.18-.05.15,0,.31.13.4.07.05.15.08.23.11.33.1.68.11,1.02.09.01,0,.03-.02.07-.04ZM47.8,2.78c.02-.08.04-.11.03-.14-.03-.24-.06-.48-.11-.72-.03-.16-.08-.33-.18-.47-.13-.21-.3-.23-.48-.06-.05.05-.08.11-.08.18,0,.13.01.25.08.36.18.32.44.56.74.84ZM11.33,58.68c-.04.05-.07.08-.08.12-.1.24-.2.48-.28.73-.04.13-.05.28-.06.42,0,.22.16.34.37.28.08-.02.15-.07.2-.15.05-.09.08-.19.08-.29.01-.32-.06-.63-.14-.94-.01-.05-.05-.1-.09-.17Zm-2.79-4.35s.03.04.04.04c.4.07.8.18,1.22.19.12,0,.23-.02.35-.04.12-.03.16-.15.11-.26-.04-.09-.1-.16-.19-.19-.13-.05-.27-.08-.42-.06-.3.04-.59.13-.88.22-.07.02-.13.06-.22.11Zm37.24,15.46c-.05-.09-.11-.1-.18-.1-.28-.01-.5.11-.67.33-.18.24-.27.52-.36.8,0,.03,0,.06.02.1.05-.02.08-.03.1-.04.26-.21.53-.42.78-.64.1-.09.18-.2.26-.31.03-.04.03-.11.05-.15Zm39.16-23.9s.04-.06.04-.07c0-.29-.05-.57-.13-.84-.03-.11-.1-.21-.16-.31-.08-.11-.19-.12-.32-.08-.17.06-.25.21-.2.38.04.15.12.28.22.39.14.16.29.3.44.45.03.03.07.04.11.07ZM10.26,17.7s-.04.02-.04.03c-.11.36-.14.72-.12,1.1,0,.11.04.2.12.27.12.11.34.07.41-.08.03-.06.05-.13.04-.19-.01-.13-.03-.27-.07-.4-.06-.18-.13-.35-.21-.51-.03-.07-.05-.16-.14-.21Zm16.69,50.85s-.05.07-.05.09c-.04.26-.09.51-.12.77-.01.15,0,.3.07.44.05.1.13.16.24.16.11,0,.19-.06.25-.15.05-.09.06-.19.04-.29-.06-.32-.19-.61-.32-.9-.02-.04-.05-.06-.1-.12Zm57.97-36.69c-.1.07-.11.16-.1.26,0,.11.04.21.11.3.1.12.23.21.37.25.2.06.41.1.61.13.03,0,.07-.02.11-.04-.02-.04-.02-.07-.04-.08-.2-.19-.39-.39-.6-.57-.1-.09-.22-.16-.33-.22-.04-.02-.09-.02-.13-.03Zm-44.41,41.15c.09-.05.1-.11.09-.17-.02-.16-.06-.32-.15-.45-.09-.12-.18-.24-.28-.35-.2-.23-.47-.38-.69-.58-.02-.02-.06-.02-.12-.05.03.07.04.11.06.14.19.29.36.58.56.86.12.18.27.34.42.5.03.04.08.06.12.09ZM66.58,5.49c-.11.06-.15.15-.19.25-.08.24-.08.48-.05.72.03.28.12.54.19.81,0,.04.04.07.06.11.08-.07.07-.15.08-.22.01-.2.04-.4.04-.6,0-.23.01-.46,0-.68,0-.13-.02-.27-.13-.39Zm19.52,38.85c.07.03.1.06.13.06.33,0,.66,0,.98,0,.06,0,.12-.01.17-.04.04-.02.08-.06.1-.1.02-.06-.02-.11-.07-.15-.12-.07-.25-.11-.38-.09-.31.04-.6.15-.92.32ZM6.45,23.05s-.04.05-.04.07c0,.17.01.35.04.52.01.1.04.2.08.29.06.12.18.15.29.07.13-.09.17-.24.08-.4-.11-.2-.27-.38-.45-.55Zm70.79-5.1s0,.03-.01.05c.04.03.08.08.13.1.19.07.37.15.58.14.25,0,.5.01.75-.06.03,0,.04-.04.07-.06-.04-.02-.06-.05-.08-.05-.43-.03-.84-.14-1.27-.14-.06,0-.11,0-.17.01ZM3.68,41c.08-.04.12-.09.11-.15,0-.06-.03-.12-.06-.16-.08-.1-.2-.16-.32-.19-.12-.04-.24-.07-.36-.1-.04-.01-.08-.01-.1.07.23.18.41.45.73.53Zm77.93-19.39c-.02-.05-.02-.07-.04-.08-.18-.1-.36-.21-.55-.31-.05-.03-.11-.03-.17-.03-.05,0-.1.03-.12.08-.03.06-.02.12.02.16.03.03.06.06.1.08.23.12.48.12.75.1Z"/>
  <path class="cls-1" d="m80.18,44.08c.07.06.07.12.06.19,0,.09-.05.14-.14.15-.05,0-.1,0-.15,0-23.66,0-47.33,0-70.99,0-.1,0-.2.02-.3-.02-.07-.09-.05-.19-.03-.3.05-.01.09-.03.14-.03.11,0,.22,0,.33,0,23.55,0,47.11,0,70.66,0,.14,0,.29-.03.42.01Z"/>
  <path class="cls-1" d="m30.13,38.38c.04.05.06.08.08.1.36.31.67.66.95,1.04.39.52.78,1.04,1.23,1.51.29.3.62.52,1.02.62.07.02.15.02.22.03.04,0,.08,0,.12.02.07.02.11.11.1.19-.01.06-.06.09-.13.1-.03,0-.05,0-.08,0-.51,0-1.03,0-1.54,0-.17,0-.29-.05-.4-.17-.2-.21-.39-.42-.57-.64-.4-.49-.75-1.02-1.13-1.53-.21-.28-.44-.55-.67-.83-.16-.2-.36-.33-.63-.31-.07,0-.13,0-.21-.01-.02.05-.03.1-.05.14,0,.02,0,.03,0,.05,0,.79,0,1.59.01,2.38,0,.11.01.22.07.32.09.14.2.24.38.27.2.03.4.06.6.04.14-.01.19.06.17.23-.06.06-.14.05-.21.05-.73,0-1.47,0-2.2,0-.26,0-.52,0-.78,0-.03,0-.07,0-.1,0-.07,0-.14,0-.17-.08-.03-.08,0-.15.05-.18.2-.02.39-.03.57-.05.29-.04.42-.17.47-.45.03-.16.05-.32.05-.48,0-1.59,0-3.19,0-4.78,0-.18-.03-.35-.06-.53-.04-.19-.15-.32-.35-.34-.16-.02-.32-.03-.48-.05-.04,0-.08,0-.12-.02-.06-.02-.1-.08-.09-.14,0-.06.04-.09.09-.11.02,0,.05,0,.07-.01.69-.06,1.38-.11,2.07-.1.23,0,.46,0,.68,0,.3,0,.59.02.88.08.18.04.37.04.55.09.23.08.46.17.67.3.34.21.59.5.73.88.11.31.11.63.03.94-.11.4-.34.73-.7.96-.27.17-.56.31-.88.37-.09.02-.18.04-.31.07Zm-1.65-.15c.07,0,.13.02.18.01.29-.02.57-.04.86-.06.18,0,.35-.05.52-.11.39-.14.63-.41.74-.8.12-.45.12-.9-.01-1.35-.1-.35-.3-.63-.65-.76-.2-.07-.4-.13-.61-.15-.29-.03-.59-.02-.88-.02-.05,0-.09.02-.15.03,0,.05-.02.09-.02.13-.02.72,0,2.83.02,3.06Z"/>
  <path class="cls-1" d="m55.94,38.37c-.18.15-.33.29-.48.42,0,.07-.01.13-.01.19,0,.59,0,1.18,0,1.77,0,.14.02.29.04.43.04.32.25.48.49.5.15,0,.3.03.47.04.06.05.08.13.03.24-.04,0-.09.03-.14.03-.96,0-1.92,0-2.88,0-.05,0-.1,0-.15-.02-.05-.01-.09-.06-.09-.11,0-.05.02-.1.08-.12.05-.02.1-.02.15-.02.15-.02.3-.03.45-.05.19-.03.33-.14.39-.32.04-.09.06-.19.07-.29.01-.07,0-.13,0-.2,0-1.69,0-3.37,0-5.06,0-.15-.02-.3-.08-.44-.07-.15-.17-.24-.34-.25-.15-.01-.3-.03-.45-.05-.14-.01-.17-.05-.15-.22.06-.07.14-.05.21-.05.56,0,1.11,0,1.67,0,.37,0,.74,0,1.11,0,.03,0,.07,0,.1,0,.07,0,.12.05.12.11,0,.07-.04.14-.11.15-.03,0-.07,0-.1.01-.17.02-.33.03-.5.05-.14.01-.23.09-.29.22-.03.07-.06.14-.07.22-.02.13-.04.27-.04.4,0,.76,0,1.52,0,2.28,0,.03,0,.07.01.09.05.03.09,0,.12-.03.56-.5,1.12-1,1.68-1.5.3-.28.63-.54.88-.87.07-.09.12-.18.18-.27.08-.13.05-.24-.04-.35-.08-.1-.17-.16-.3-.18-.09-.02-.18-.03-.27-.05-.04-.01-.08-.04-.1-.07-.06-.07-.02-.18.07-.2.05,0,.1,0,.15,0,.76,0,1.52,0,2.28,0,.04,0,.08,0,.13,0,.06,0,.09.03.11.09.01.06-.02.13-.07.15-.04.02-.08.03-.12.04-.15.04-.3.06-.44.11-.22.07-.42.19-.6.33-.19.15-.38.3-.56.47-.55.51-1.1,1.02-1.65,1.53-.05.05-.1.11-.17.17.04.05.06.09.09.13.11.12.22.23.33.35.82.83,1.64,1.65,2.46,2.48.23.23.48.45.71.68.23.22.5.34.81.38.06,0,.12,0,.17.02.04.02.09.05.11.09.05.07,0,.16-.08.18-.04,0-.08.01-.13.01-1.11,0-2.23,0-3.34,0-.05,0-.1,0-.15-.02-.06-.01-.1-.07-.1-.13,0-.06.05-.12.11-.13.04,0,.08-.01.12,0,.19.02.37-.03.55-.05.09,0,.16-.06.21-.13.06-.08.09-.17.04-.26-.07-.11-.14-.23-.23-.33-.21-.23-.42-.46-.64-.69-.54-.55-1.09-1.1-1.64-1.66-.07-.07-.14-.14-.24-.23Z"/>
  <path class="cls-1" d="m9.11,34.82c.05,0,.11-.02.17-.02.23,0,.46-.01.68-.01.47,0,.94-.06,1.41-.08.61-.03,1.21-.05,1.82.05.23.04.47.06.7.12.87.2,1.56.67,2.05,1.41.31.47.49.99.53,1.56.01.14.04.28.04.43.01.58-.05,1.15-.27,1.69-.22.55-.55,1.02-1.04,1.37-.5.35-1.05.53-1.64.6-.26.03-.52.05-.78.05-1.16,0-2.33,0-3.49,0-.03,0-.07,0-.1,0-.06,0-.12,0-.15-.06-.04-.08-.02-.15.05-.21.04,0,.09,0,.14,0,.2.02.39-.01.58-.06.22-.05.34-.22.38-.43.03-.16.04-.32.04-.48,0-1.52,0-3.04,0-4.56,0-.19-.02-.39-.04-.58,0-.07-.03-.15-.06-.22-.05-.14-.16-.22-.3-.24-.13-.02-.27-.03-.4-.04-.06,0-.12,0-.18,0-.07,0-.14,0-.18-.06-.05-.08-.03-.16.04-.24Zm2.22.2c-.05.11-.03.2-.03.29,0,1.43,0,2.87,0,4.3,0,.32,0,.64,0,.96,0,.21.03.42.05.63.04.26.17.39.42.44.1.02.2.04.3.04.52.02,1.04.01,1.55-.14.21-.06.41-.14.59-.28.34-.25.6-.57.77-.96.17-.39.27-.8.3-1.22.04-.51.03-1.01-.05-1.51-.08-.5-.21-.97-.49-1.4-.32-.49-.74-.85-1.3-1.03-.28-.09-.58-.14-.87-.14-.38,0-.76,0-1.14,0-.03,0-.07,0-.11.02Z"/>
  <path class="cls-1" d="m41.33,38.37c.05.36-.04.73-.13,1.1-.08.33-.2.66-.41.95-.15.2-.27.43-.45.61-.15.15-.32.28-.49.4-.36.26-.76.43-1.19.55-.22.07-.46.1-.7.12-.5.05-.99.03-1.48-.06-.73-.14-1.37-.46-1.91-.97-.33-.31-.59-.67-.76-1.09-.28-.68-.39-1.39-.29-2.13.06-.46.17-.91.41-1.32.27-.47.62-.88,1.08-1.18.35-.23.72-.41,1.12-.52.32-.09.64-.15.97-.17.52-.03,1.03.01,1.53.15.68.19,1.3.52,1.79,1.04.42.45.7.98.83,1.6.06.3.1.6.08.93Zm-1.26.18c-.01-.61,0-1.05-.12-1.47-.04-.13-.07-.26-.11-.39-.13-.38-.3-.74-.58-1.02-.16-.16-.34-.31-.54-.41-.39-.22-.82-.3-1.26-.3-.2,0-.4.03-.6.05-.39.05-.73.2-1.03.44-.38.29-.64.67-.8,1.12-.19.54-.25,1.1-.27,1.66,0,.29.02.57.04.86.02.25.06.5.12.75.03.1.06.19.09.29.12.4.32.76.63,1.05.15.13.31.26.49.35.24.12.49.23.77.23.03,0,.07.01.1.02.44.11.88.05,1.3-.07.55-.15.97-.5,1.27-.99.25-.4.39-.84.45-1.3.04-.34.05-.69.06-.87Z"/>
  <path class="cls-1" d="m65.24,42.12c-.3.01-.6-.02-.91-.05-.37-.05-.72-.16-1.07-.3-.3-.12-.57-.3-.81-.5-.53-.43-.9-.97-1.12-1.62-.02-.06-.03-.11-.04-.17-.11-.48-.19-.96-.14-1.45.07-.66.25-1.29.65-1.84.28-.38.62-.68,1.02-.93.5-.31,1.05-.48,1.63-.56.44-.06.88-.05,1.31.01.28.04.56.11.83.21.64.23,1.2.59,1.63,1.11.4.49.64,1.05.72,1.67.02.15.04.3.05.45.03.48-.03.95-.16,1.4-.09.31-.21.62-.41.89-.13.17-.23.35-.38.51-.3.33-.66.58-1.06.77-.28.13-.57.25-.88.3-.29.05-.58.1-.88.11Zm-2.82-3.76c-.02.56.04,1.1.19,1.63.08.28.2.54.35.78.22.37.55.64.95.81.19.08.37.16.58.17.07,0,.15.02.22.04.28.06.55.06.83,0,.07-.02.15-.03.22-.04.28-.03.52-.15.74-.3.49-.33.81-.8,1-1.36.15-.45.2-.92.23-1.39.04-.64-.03-1.28-.21-1.9-.12-.44-.33-.83-.65-1.15-.14-.14-.3-.27-.47-.38-.36-.22-.77-.29-1.18-.31-.25-.02-.5.01-.75.06-.13.02-.25.04-.37.09-.24.09-.46.21-.66.37-.24.19-.42.41-.56.68-.16.3-.27.62-.34.95-.1.42-.12.85-.11,1.28Z"/>
  <path class="cls-1" d="m25.43,38.43c.01.22-.04.49-.08.75-.04.3-.16.57-.26.84-.03.07-.06.14-.1.21-.23.4-.5.76-.87,1.04-.29.22-.58.43-.94.54-.13.04-.25.1-.38.14-.11.03-.23.04-.35.07-.32.09-.65.09-.98.1-.32,0-.64-.04-.95-.1-.31-.06-.61-.16-.88-.29-.45-.21-.84-.49-1.17-.86-.35-.39-.6-.84-.73-1.34-.09-.34-.17-.69-.17-1.04,0-.13,0-.27,0-.4,0-.07,0-.13.02-.2.03-.18.05-.37.1-.55.07-.24.15-.48.26-.71.28-.56.7-1,1.23-1.34.32-.2.66-.34,1.01-.46.13-.05.28-.06.42-.09.62-.12,1.24-.1,1.86.02.29.06.58.14.84.27.9.42,1.58,1.06,1.9,2.02.14.41.2.85.2,1.39Zm-1.25.01c.01-.37-.04-.73-.09-1.08-.07-.45-.2-.89-.44-1.28-.24-.4-.57-.7-1-.9-.23-.1-.46-.15-.7-.19-.62-.09-1.21-.02-1.77.26-.22.11-.41.26-.58.45-.23.26-.39.57-.51.9-.16.46-.23.95-.25,1.44-.02.42-.01.84.05,1.26.07.47.18.93.41,1.35.24.43.58.74,1.03.94.24.11.5.14.75.2.44.1.88.04,1.3-.08.54-.16.96-.51,1.26-.99.24-.39.36-.84.44-1.28.05-.32.06-.65.09-.98Z"/>
  <path class="cls-1" d="m8.74,32.67c-.04-.1-.04-.19,0-.29.04,0,.09-.03.14-.03.19,0,.37,0,.56,0,13.34,0,26.68,0,40.02,0,.12,0,.24,0,.35,0,.04,0,.08,0,.12.01.07.1.06.2.03.31-.05.02-.09.04-.14.04-.07,0-.13,0-.2,0-13.52,0-27.03,0-40.55,0-.11,0-.22.03-.34-.05Z"/>
  <path class="cls-1" d="m66.26,23.87s0-.03,0-.05c-.17-.31-.27-.65-.36-1-.12-.45-.19-.91-.18-1.37.02-.51.14-.99.47-1.38.14-.16.3-.29.46-.43.03-.02.08-.03.11-.04.09.06.13.14.17.22.26.49.49.98.67,1.5.14.43.25.86.28,1.31.03.37-.06.72-.26,1.04-.15.24-.37.41-.64.51-.12.04-.23.1-.36.11-.07,0-.14.05-.21.08-.11.06-.22.13-.33.18-.41.2-.83.21-1.26.1-.25-.07-.49-.18-.71-.32-.5-.3-.9-.7-1.29-1.13-.27-.29-.48-.63-.73-.94-.01-.02-.02-.05-.02-.07.05-.09.14-.11.23-.15.25-.09.5-.14.76-.15.32,0,.64.04.94.16.39.16.75.37,1.08.64.41.33.79.69,1.09,1.12.02.03.04.06.05.09.01-.01.03-.03.04-.04Z"/>
  <path class="cls-1" d="m22.06,19.63c.08-.04.13-.01.18.02.45.33.75.76.87,1.32.09.42.1.83,0,1.25-.07.29-.11.6-.21.88-.07.2-.15.39-.22.59-.03.08-.09.14-.08.26.04-.04.06-.07.08-.09.19-.22.38-.45.58-.67.07-.08.14-.14.22-.21.08-.07.16-.12.24-.19.24-.23.52-.41.81-.56.31-.16.63-.28.98-.31.22-.02.44-.01.65.02.23.03.46.08.66.25-.02.04-.02.09-.04.12-.25.33-.5.66-.76.98-.4.48-.88.86-1.42,1.17-.45.25-.93.35-1.44.25-.23-.04-.43-.16-.62-.27-.12-.07-.24-.11-.37-.14-.55-.14-.93-.47-1.08-1.02-.06-.23-.06-.48-.05-.73.03-.5.18-.97.35-1.44.16-.45.38-.87.59-1.29.03-.06.07-.11.09-.16Z"/>
  <path class="cls-1" d="m63.95,25.47c.04-.13.12-.15.19-.16.3-.06.6-.12.9-.09.28.03.56.09.83.22.39.19.74.43,1.05.74.23.23.46.47.66.73.11.15.21.31.31.46.02.03.04.07.07.1.06-.06.03-.1.01-.14-.2-.54-.26-1.1-.27-1.66,0-.54.1-1.07.4-1.54.15-.24.34-.44.58-.59.12-.08.25-.18.39-.23.03.03.06.05.08.07.03.04.05.09.06.14.26.65.47,1.32.56,2.02.05.4.06.81-.06,1.2-.08.28-.2.54-.42.74-.25.23-.55.37-.88.4-.16.01-.29.06-.43.13-.4.21-.83.24-1.25.17-.31-.05-.59-.2-.85-.37-.33-.22-.63-.48-.88-.79-.18-.21-.35-.44-.5-.67-.19-.28-.35-.57-.53-.85Z"/>
  <path class="cls-1" d="m24.92,25.44s0,.05-.01.06c-.4.73-.87,1.41-1.49,1.97-.21.19-.45.36-.7.49-.41.22-.85.27-1.3.2-.18-.03-.35-.11-.52-.18-.13-.06-.26-.1-.41-.11-.6-.08-1.03-.39-1.25-.96-.15-.39-.17-.81-.13-1.22,0-.08.02-.15.03-.22.03-.18.06-.36.1-.55.1-.49.27-.95.45-1.42.03-.07.04-.15.14-.17.02,0,.05,0,.07.02.57.29.96.73,1.16,1.34.06.18.1.38.12.57.05.44.02.87-.05,1.31-.05.3-.11.6-.22.88,0,.01,0,.03.01.07.03-.04.06-.06.08-.09.29-.52.67-.95,1.1-1.34.37-.34.79-.61,1.28-.75.35-.1.71-.14,1.07-.05.09.02.18.03.27.05.08.02.17.03.21.14Z"/>
  <path class="cls-1" d="m16.63,46.84s.09-.04.14-.04c.26,0,.52-.02.78,0,.2.02.39.1.58.16.27.09.52.23.75.41.28.22.54.46.77.73.19.23.37.46.52.71.09.16.18.32.26.49.02.04.03.08.09.1.02-.11-.02-.2-.03-.28-.06-.31-.08-.62-.05-.93.02-.17.03-.34.06-.5.06-.39.21-.74.43-1.07.2-.3.49-.51.81-.67.14-.07.3-.12.45-.17.06-.02.13-.03.2-.04.03.05.07.09.08.13.12.61.22,1.23.18,1.86-.03.39-.1.77-.29,1.12-.3.55-.76.87-1.38.94-.17.02-.33.06-.49.13-.22.09-.46.17-.7.18-.37.02-.7-.09-1.01-.26-.46-.25-.81-.63-1.13-1.04-.41-.53-.71-1.13-.98-1.74-.03-.06-.07-.12-.03-.22Z"/>
  <path class="cls-1" d="m65.4,49.08s.03,0,.04,0c.76.23,1.28.71,1.51,1.49.11.38.14.77.09,1.15-.05.37-.1.75-.26,1.1-.01.03-.01.06-.02.09.05.03.07-.01.08-.04.43-.69.97-1.27,1.63-1.74.35-.25.73-.43,1.15-.51.29-.06.6-.12.9-.05.1.02.2.02.3.03.04,0,.08.02.12.04.01,0,.02.02.03.04.02.07-.02.13-.05.19-.36.63-.78,1.23-1.28,1.76-.34.36-.73.65-1.17.87-.25.12-.51.18-.78.19-.22.01-.43-.05-.64-.12-.05-.02-.09-.04-.14-.06-.15-.05-.26-.18-.43-.21-.15-.03-.3-.06-.44-.12-.34-.13-.62-.34-.81-.65-.2-.34-.31-.71-.31-1.11,0-.17,0-.34,0-.51,0-.06,0-.12.02-.18.1-.53.23-1.05.42-1.56.01-.03.03-.06.05-.08Z"/>
  <path class="cls-1" d="m68.33,49.48c.04-.05.06-.07.07-.09.2-.47.49-.88.82-1.27.08-.09.14-.19.22-.27.48-.47,1.02-.85,1.69-1.01.09-.02.18-.04.27-.04.23,0,.45,0,.68,0,.07,0,.14,0,.2.07-.01.04-.02.09-.04.13-.22.49-.45.98-.74,1.43-.13.2-.29.39-.44.58-.15.19-.32.36-.51.52-.3.25-.63.44-1.02.52-.26.05-.52.05-.77-.02-.16-.05-.32-.1-.47-.17-.1-.05-.23-.06-.34-.08-.59-.07-1.04-.36-1.35-.87-.16-.26-.26-.55-.3-.85-.06-.38-.07-.77-.02-1.16.04-.38.13-.75.17-1.1.06-.07.12-.07.18-.06.35.1.69.23.97.47.4.34.65.76.77,1.27.1.44.12.88.09,1.33,0,.16-.06.31-.1.47,0,.04,0,.09-.01.17Z"/>
  <path class="cls-1" d="m17.92,50.65s.09-.04.14-.05c.17-.02.33-.04.5-.06.03,0,.07,0,.1,0,.6.02,1.16.2,1.66.53.58.37,1.05.87,1.47,1.41.07.09.13.2.19.3.03.04.06.08.11.16,0-.07,0-.1,0-.13-.2-.48-.24-.98-.25-1.49,0-.38.05-.75.21-1.11.24-.52.65-.85,1.16-1.07.07-.03.14-.05.2-.07.11.04.13.13.15.21.14.41.26.82.33,1.24.06.37.09.73.05,1.11-.06.61-.33,1.09-.85,1.42-.19.12-.4.19-.61.23-.13.02-.24.07-.35.13-.17.11-.36.17-.56.22-.42.11-.82,0-1.2-.17-.24-.11-.46-.25-.66-.42-.39-.33-.73-.69-1.04-1.1-.25-.34-.47-.7-.69-1.05-.04-.06-.1-.12-.07-.24Z"/>
  <path class="cls-1" d="m69.16,54.41s-.05.1-.08.15c-.34.47-.71.92-1.13,1.32-.36.34-.74.67-1.18.9-.34.18-.69.32-1.08.34-.39.02-.73-.11-1.04-.33-.11-.08-.22-.16-.35-.19-.04,0-.08-.03-.12-.05-.86-.32-1.12-1.09-1.08-1.81.01-.2.06-.4.09-.6.05-.3.15-.59.26-.87.11-.31.26-.6.39-.9.01-.03.04-.05.07-.08.04,0,.07,0,.1.02.33.17.63.39.86.69.21.27.3.58.35.91.05.3.02.6-.03.9-.05.32-.14.62-.25.92-.04.13-.11.25-.17.37-.02.05-.06.1-.06.2.06-.07.11-.11.14-.15.28-.36.61-.67.96-.96.24-.2.49-.38.76-.54.43-.25.89-.4,1.38-.46.23-.03.47-.02.7.03.09.02.18.04.27.05.07.01.15.02.22.13Z"/>
  <path class="cls-1" d="m19.71,54.4s.09-.07.13-.08c.27-.06.54-.14.82-.13.42,0,.82.1,1.2.27.59.26,1.11.64,1.58,1.08.24.23.48.47.68.75.05-.08,0-.13-.02-.18-.21-.39-.32-.82-.4-1.25-.05-.27-.09-.55-.05-.83.04-.34.13-.66.31-.95.15-.23.34-.42.57-.57.11-.07.21-.13.32-.2.07-.04.14-.02.17.05.04.08.08.17.12.25.19.37.34.75.45,1.15.07.25.13.5.15.77.02.25.02.5,0,.75-.05.35-.2.64-.44.89-.21.21-.46.34-.73.43-.12.04-.21.09-.31.16-.34.25-.71.38-1.14.35-.26-.02-.51-.1-.75-.21-.32-.15-.63-.33-.9-.56-.21-.18-.44-.35-.63-.55-.3-.33-.58-.68-.87-1.02-.07-.08-.13-.16-.19-.24-.03-.04-.04-.09-.07-.14Z"/>
  <path class="cls-1" d="m41.87,34.82s.08-.03.11-.03c2.26,0,4.52,0,6.78,0,.02,0,.05.02.08.03,0,.03.03.07.03.11.01.45.03.91.04,1.36,0,.02,0,.03,0,.05,0,.05-.02.1-.04.14,0,.02-.04.04-.06.04-.06,0-.11-.01-.17-.02-.02-.05-.04-.09-.05-.13-.02-.2-.09-.38-.15-.56-.07-.24-.21-.44-.41-.6-.08-.07-.17-.11-.27-.12-.23-.02-.47-.05-.7-.05-.3,0-.61,0-.91,0-.07,0-.15-.01-.24.04,0,.05-.02.12-.02.18,0,.66,0,1.32,0,1.97,0,.79,0,1.59,0,2.38,0,.4.01.81.03,1.21,0,.15.02.3.05.45.03.19.16.31.35.36.21.05.43.09.65.05.12-.02.18.04.19.14,0,.06-.03.12-.09.13-.05,0-.1,0-.15,0-1.04,0-2.07,0-3.11,0-.07,0-.14,0-.2-.01-.05,0-.09-.05-.09-.11,0-.06.04-.13.09-.14.06-.01.12-.02.18-.01.19.01.37-.02.55-.05.24-.03.38-.18.44-.4.02-.08.03-.17.03-.25,0-.32.01-.64.01-.96,0-1.56,0-3.12,0-4.68,0-.1.02-.2-.04-.31-.05,0-.1-.02-.14-.02-.36,0-.73,0-1.09,0-.21,0-.42.03-.63.06-.15.02-.27.11-.36.21-.12.13-.21.29-.26.46-.06.19-.11.39-.15.59-.02.09-.07.15-.16.17-.07.02-.14-.02-.15-.09,0-.04,0-.08,0-.13,0-.45,0-.89.02-1.34,0-.06.02-.11.03-.17Z"/>
  <path class="cls-1" d="m73.1,40.83c.05-.1.09-.18.12-.25.37-.88.74-1.76,1.1-2.63.2-.47.4-.95.59-1.42.08-.21.15-.43.21-.65.11-.38-.09-.69-.48-.77-.07-.02-.15-.03-.22-.05-.12-.03-.14-.06-.12-.23.03-.01.07-.04.11-.04.65,0,1.3,0,1.95,0,.03,0,.05,0,.07,0,.03.02.07.04.09.07.03.05,0,.13-.04.16-.05.03-.11.05-.16.06-.27.06-.46.22-.61.46-.12.19-.22.38-.3.58-.37.89-.75,1.77-1.12,2.66-.38.91-.76,1.82-1.14,2.73-.07.16-.14.33-.21.49-.03.08-.08.15-.17.17-.13.04-.23,0-.3-.12-.04-.07-.07-.15-.1-.23-.22-.5-.44-1-.65-1.51-.28-.64-.56-1.28-.83-1.93-.28-.66-.57-1.31-.86-1.97-.08-.19-.16-.39-.25-.58-.07-.14-.14-.29-.23-.42-.11-.16-.25-.27-.45-.3-.11-.02-.22-.04-.32-.06-.04,0-.08-.02-.11-.05-.02-.03-.04-.08-.03-.11,0-.03.04-.07.08-.09.04-.02.1-.02.15-.02.91,0,1.82,0,2.73,0,.03,0,.07,0,.1,0,.05,0,.09.04.11.09.01.06-.02.13-.07.15-.04.01-.08.02-.12.03-.16.02-.32.03-.48.05-.23.03-.33.18-.29.41.02.1.04.2.08.29.19.47.39.93.59,1.4.2.47.41.94.61,1.41.29.68.59,1.36.88,2.04.02.05.06.09.1.17Z"/>
  <path class="cls-1" d="m52.66,34.8c.07.09.06.16-.02.24-.04,0-.08.02-.12.02-.18,0-.35.03-.53.05-.2.02-.3.14-.34.32-.03.12-.04.25-.05.38-.01.24-.02.49-.02.73,0,1.37,0,2.73,0,4.1,0,.21.02.42.05.63.03.23.17.36.39.41.2.04.4.07.6.04.09.08.1.16.04.26-.06,0-.11.02-.17.02-.96,0-1.92,0-2.89,0-.05,0-.1,0-.15-.01-.05-.01-.09-.05-.1-.1,0-.07.04-.14.1-.16.03,0,.07-.01.1,0,.15.03.3-.01.45-.04.26-.05.41-.21.44-.48.02-.14.02-.29.02-.43,0-1.59,0-3.17,0-4.76,0-.14-.02-.29-.02-.43,0-.11-.05-.21-.11-.31-.06-.09-.14-.15-.25-.16-.18-.02-.35-.03-.53-.05-.04,0-.08,0-.12-.02-.06-.02-.09-.07-.09-.14,0-.06.04-.11.11-.11.04,0,.08,0,.13,0,.97,0,1.94,0,2.91,0,.05,0,.1,0,.14.01Z"/>
  <path class="cls-1" d="m53.78,32.71c-.07-.14-.07-.24,0-.35h26.39c.1.09.09.2.04.32-.05.01-.09.03-.14.03-.12,0-.24,0-.35,0-8.5,0-17,0-25.5,0-.14,0-.28,0-.43,0Z"/>
  <path class="cls-1" d="m80.06,34.8c.07.09.05.15,0,.22-.04,0-.08.03-.11.03-.19,0-.37.02-.55.05-.21.03-.32.15-.35.34-.03.16-.04.32-.06.48-.01.13-.01.27-.01.4,0,1.42,0,2.85,0,4.27,0,.21.02.42.05.63.03.22.14.41.44.45.19.02.38.04.59.06.06.06.08.13.02.23-.05,0-.1.03-.16.03-.74,0-1.48,0-2.23,0-.22,0-.44,0-.66,0-.06,0-.12,0-.18-.01-.05-.01-.09-.05-.1-.1,0-.06.03-.13.08-.14.04-.01.08-.02.12-.02.16.02.32-.02.48-.05.24-.04.35-.18.41-.42,0-.03,0-.07,0-.1.01-.41.04-.83.04-1.24,0-.99,0-1.99,0-2.98,0-.45-.02-.89-.04-1.34,0-.07-.02-.15-.05-.22-.06-.15-.16-.25-.34-.26-.17-.01-.33-.03-.5-.05-.05,0-.1-.01-.15-.03-.05-.02-.07-.07-.07-.12,0-.06.04-.09.09-.1.05,0,.1,0,.15,0,.97,0,1.94,0,2.91,0,.05,0,.1,0,.15.02Z"/>
  <path class="cls-1" d="m70.86,27.13c.1.04.12.11.13.17.07.29.14.57.2.86.03.13.04.27.06.4.05.33.05.67.03,1.01-.03.46-.13.9-.39,1.29-.08.12-.17.18-.31.18-.41,0-.83,0-1.24-.01-.03,0-.06-.02-.1-.04-.05-.15-.09-.31-.09-.47,0-.25-.01-.51,0-.76,0-.51.13-1,.35-1.46.17-.35.42-.63.73-.85.19-.14.41-.23.63-.32Z"/>
  <path class="cls-1" d="m17.98,27.14c.06.01.12.02.17.04.39.16.73.38.99.72.24.31.39.66.5,1.04.07.27.09.53.1.8.01.34-.02.67-.03,1.01,0,.07-.03.15-.05.2-.08.07-.17.08-.25.08-.36,0-.73,0-1.09,0-.13,0-.23-.04-.3-.16-.17-.28-.33-.57-.34-.91,0-.02,0-.03,0-.05-.1-.33-.06-.67-.05-1,0-.27.03-.54.08-.8.06-.31.15-.6.23-.91,0-.01.02-.03.05-.06Z"/>
  <path class="cls-1" d="m61.47,17.13c.09.02.14.02.19.05.4.23.82.43,1.2.7.43.31.84.65,1.18,1.06.35.41.62.87.76,1.39.08.32.14.64.11.98,0,.08-.03.17-.05.25,0,.03-.04.05-.07.08-.87-.47-1.59-1.11-2.17-1.9-.57-.77-.95-1.62-1.14-2.61Z"/>
  <path class="cls-1" d="m27.36,17.1c.02.08.05.13.04.17-.07.25-.13.51-.21.75-.18.55-.44,1.06-.78,1.53-.39.54-.82,1.05-1.36,1.45-.28.21-.58.4-.88.59-.02.01-.05.02-.09.03-.02-.04-.06-.08-.06-.12-.05-.63.03-1.24.33-1.81.23-.44.55-.81.9-1.15.48-.47,1.02-.85,1.62-1.16.16-.08.31-.17.5-.27Z"/>
  <path class="cls-1" d="m23.48,28.73c-.04.11-.07.19-.11.26-.13.27-.25.55-.4.81-.14.24-.3.47-.45.7-.1.14-.21.27-.31.4-.07.09-.17.14-.29.14-.04,0-.08,0-.13,0-.48,0-.96,0-1.44,0-.16,0-.32-.02-.48-.03-.03,0-.06-.02-.11-.03,0-.04,0-.09.03-.12.35-.63.76-1.21,1.33-1.66.31-.24.65-.43,1.03-.52.32-.07.65-.11.98-.03.06.02.13.01.2.02.04,0,.07.03.14.06Z"/>
  <path class="cls-1" d="m65.42,28.74s.05-.05.06-.05c.34-.06.68-.1,1.03-.04.49.08.91.29,1.29.59.37.29.67.64.92,1.03.12.18.23.37.35.56.02.04.03.09.04.15-.05.02-.09.03-.13.04-.29.01-.59.02-.88.03-.35,0-.69,0-1.04,0-.16,0-.29-.05-.4-.18-.32-.37-.6-.75-.82-1.18-.13-.26-.25-.51-.38-.77-.02-.05-.03-.11-.05-.17Z"/>
  <path class="cls-1" d="m44.08,50.9c0-.07-.02-.12-.02-.18-.02-1.75,0-2.99.03-3.17.04-.01.09-.04.13-.04.42,0,.84-.02,1.26.04.17.02.33.08.47.17.56.36.46,1.28-.12,1.53-.08.03-.16.06-.23.1-.03.01-.05.04-.09.07.08.13.15.25.22.37.2.32.39.63.59.94.03.05.04.1.06.16-.14.1-.27.05-.4.04-.09-.01-.13-.09-.18-.17-.23-.38-.46-.77-.69-1.15-.05-.08-.09-.16-.2-.21-.12.01-.25.02-.36.03-.07.09-.05.16-.05.24,0,.33,0,.66,0,.99,0,.08.02.17-.04.24q-.17.06-.39,0Zm.46-1.93s.03.03.04.03c.31.04.62.02.92-.06.22-.06.35-.25.35-.47,0-.25-.12-.42-.36-.48-.12-.03-.25-.05-.37-.06-.15,0-.3,0-.45,0-.05,0-.09.02-.14.03-.03.27-.03.84,0,1.01Z"/>
  <path class="cls-1" d="m42.93,50.88c-.16.09-.3.08-.43.03-.05-.02-.09-.09-.12-.15-.06-.13-.1-.27-.16-.4-.04-.08-.08-.16-.12-.25-.28-.03-.55,0-.82,0-.27,0-.54,0-.81,0-.03.06-.07.11-.09.16-.07.17-.14.34-.21.51-.05.12-.13.18-.25.17-.09,0-.19.03-.27-.06.01-.04.02-.09.03-.14.45-1.01.89-2.02,1.34-3.03.03-.07.07-.13.1-.19.12-.04.23-.03.33-.01.09.05.12.13.15.21.36.85.72,1.71,1.09,2.56.06.15.13.29.2.44.02.05.03.09.05.16Zm-1.65-2.75c-.12.29-.23.52-.33.77-.09.24-.22.47-.29.74.05.01.09.03.13.03.35,0,.69,0,1.04,0,.03,0,.06-.03.09-.04-.04-.08-.07-.15-.1-.22-.15-.37-.29-.74-.44-1.1-.02-.05-.06-.09-.11-.17Z"/>
  <path class="cls-1" d="m33.21,50.45c.09.07.18.05.26.05.42,0,.84,0,1.26,0,.07,0,.15-.02.23.05.05.11.04.23,0,.36-.05.01-.11.03-.16.03-.62,0-1.25,0-1.87,0-.05,0-.09-.02-.16-.04,0-.07-.02-.14-.02-.2,0-.99,0-1.99,0-2.98,0-.06.01-.11.02-.18.05-.01.08-.04.12-.04.63,0,1.26,0,1.9,0,.02,0,.03,0,.06.02.09.11.06.23.04.34-.06.07-.13.06-.2.06-.42,0-.84,0-1.26,0-.07,0-.13,0-.19.01-.06.2-.06.78,0,.97.16.05.33.02.5.02.17,0,.34,0,.51,0,.17,0,.34-.02.51.01.1.12.07.25.04.37-.06.06-.13.05-.2.05-.41,0-.83,0-1.24,0-.04,0-.08.01-.11.02-.04.18-.05.82-.01,1.07Z"/>
  <path class="cls-1" d="m36.74,49.22c0,.1-.02.15-.02.21,0,.42,0,.84,0,1.27,0,.07-.01.13-.02.18-.11.09-.22.08-.33.04-.04-.01-.08-.06-.09-.11-.02-.06-.01-.13-.01-.2,0-.93,0-1.86,0-2.78,0-.1-.02-.2.06-.3.11-.05.22-.04.33-.02.08.06.07.14.07.22,0,.34,0,.67,0,1.01,0,.05,0,.1.01.14.08.05.12,0,.16-.04.22-.21.44-.42.66-.63.21-.2.42-.39.62-.59.08-.08.18-.12.29-.12.08,0,.17,0,.25,0,.03,0,.06.02.08.03.02.08-.02.12-.07.16-.29.26-.57.52-.86.78-.21.19-.41.38-.61.58.03.05.05.1.08.13.28.3.57.6.86.9.22.23.43.45.65.68.03.03.05.08.08.12-.02.02-.02.05-.03.05-.15.05-.3.02-.45,0-.06,0-.12-.06-.16-.11-.17-.17-.33-.34-.49-.51-.31-.33-.62-.67-.93-1-.02-.02-.05-.04-.12-.09Z"/>
  <path class="cls-1" d="m49.66,47.84c-.08.07-.14.14-.21.2-.03.03-.07.05-.12.08-.05-.04-.11-.08-.16-.12-.09-.09-.2-.13-.32-.14-.16-.01-.32-.01-.48.03-.31.08-.46.42-.33.7.05.11.12.18.23.23.17.07.34.14.52.2.19.07.38.14.55.24.26.15.45.55.37.93-.07.33-.26.56-.57.69-.47.2-.94.18-1.38-.08-.11-.07-.23-.14-.27-.28.06-.13.2-.18.27-.27.12,0,.17.08.23.14.2.21.67.28.97.1.08-.05.15-.11.21-.18.16-.19.13-.57-.13-.7-.2-.11-.42-.17-.64-.25-.13-.05-.27-.1-.4-.16-.63-.33-.61-1.18-.06-1.55.19-.13.4-.21.64-.21.13,0,.27,0,.4,0,.24.02.5.17.68.4Z"/>
  <path class="cls-1" d="m29.69,49.41c-.07.07-.05.15-.05.22,0,.34,0,.67,0,1.01,0,.08.02.17-.04.25-.09.07-.2.05-.31.03-.07-.02-.11-.08-.1-.18,0-.35.02-.71.02-1.06,0-.51,0-1.01,0-1.52,0-.15-.01-.3-.01-.45,0-.06.01-.11.02-.17.06-.01.11-.03.16-.03.31,0,.62,0,.94,0,.19,0,.38.03.57.11.4.17.57.49.55.9-.02.46-.33.78-.79.85-.28.04-.57.06-.86.03-.03,0-.07,0-.09,0Zm-.03-.43c.06,0,.11.02.16.02.13,0,.25,0,.38,0,.15,0,.28-.02.42-.07.21-.07.36-.27.35-.47,0-.23-.15-.43-.36-.49-.11-.03-.23-.05-.35-.06-.15,0-.3,0-.45,0-.05,0-.09.02-.14.02-.04.19-.04.8,0,1.04Z"/>
  <path class="cls-1" d="m56.63,47.54c.15-.05.27-.04.36-.03.08.07.06.14.04.2-.14.35-.28.7-.42,1.06-.25.64-.5,1.27-.74,1.91-.1.25-.14.32-.48.24-.08-.06-.11-.17-.14-.26-.28-.73-.56-1.46-.84-2.2-.1-.27-.21-.53-.31-.8-.01-.04,0-.08-.01-.12.13-.06.26-.04.38-.02.06,0,.1.06.12.12.07.2.15.39.22.59.23.61.45,1.22.68,1.82.02.04.05.08.09.15.11-.19.16-.37.23-.55.07-.17.14-.34.2-.52.07-.18.14-.36.21-.54.07-.17.13-.35.2-.52.07-.18.14-.36.21-.54Z"/>
  <path class="cls-1" d="m51.76,47.91c-.17,0-.35,0-.52,0-.17,0-.34.03-.5-.03-.08-.12-.07-.24,0-.36.05,0,.1-.02.15-.02.88-.02,2.24,0,2.42.02q.08.16.02.37s-.11.02-.16.02c-.22,0-.44,0-.66,0-.07,0-.13,0-.19,0-.08.09-.05.19-.05.28,0,.8,0,1.6,0,2.4,0,.09,0,.18,0,.27-.13.1-.26.09-.41.04,0-.06-.02-.11-.02-.17,0-.86,0-1.72,0-2.58,0-.07,0-.15-.07-.25Z"/>
  <path class="cls-1" d="m38.1,52.44s-.04.07-.07.09c-.04.04-.09.08-.14.12-.05-.03-.1-.06-.15-.09-.23-.17-.46-.18-.71-.04-.24.14-.27.48-.03.63.15.09.32.14.49.21.12.05.25.1.37.17.43.27.41.84.05,1.14-.2.17-.44.22-.68.22-.26,0-.5-.07-.7-.24-.04-.04-.07-.09-.1-.13.06-.11.14-.16.24-.23.05.03.1.06.14.1.22.21.47.22.73.12.16-.06.26-.2.27-.37,0-.18-.09-.3-.26-.37-.05-.02-.09-.04-.14-.06-.12-.04-.24-.08-.36-.13-.08-.03-.16-.06-.23-.11-.49-.29-.44-.87-.09-1.15.36-.29.87-.31,1.27-.02.04.03.07.09.1.13Z"/>
  <path class="cls-1" d="m50,54.07c-.03.2.09.33.23.41.31.17.58.07.82-.15.11.01.16.07.21.16-.02.04-.03.09-.06.12-.16.14-.34.25-.56.24-.06,0-.12,0-.18,0-.26,0-.46-.1-.62-.29-.33-.38-.29-1.04.12-1.36.33-.25.87-.3,1.2.1.14.17.2.37.2.58,0,.13-.05.17-.19.17-.36,0-.72-.01-1.09-.02-.02,0-.05.02-.08.03Zm-.02-.35s.06.04.08.04c.29,0,.58,0,.88,0,.01,0,.03-.02.04-.04.03-.1-.04-.17-.09-.24-.07-.1-.17-.13-.28-.15-.23-.03-.54.03-.63.39Z"/>
  <path class="cls-1" d="m43.92,54.87c-.39,0-.67-.18-.85-.53-.18-.34-.07-.89.28-1.13.38-.27.9-.26,1.25.07.45.43.36,1.28-.35,1.54-.1.04-.22.03-.32.04Zm-.58-.95c0,.37.21.66.62.65.24,0,.43-.12.51-.36.08-.24.08-.49-.1-.69-.17-.2-.41-.22-.65-.15-.23.07-.33.25-.37.47,0,.04,0,.08,0,.09Z"/>
  <path class="cls-1" d="m58.56,50.89c-.1.07-.22.06-.32.04-.08-.06-.07-.14-.07-.21,0-.32,0-.64,0-.96,0-.7,0-1.4,0-2.1,0-.03,0-.07.01-.1.12-.09.24-.05.37-.04.02.05.04.09.05.14,0,.04,0,.08,0,.13,0,.95,0,1.91,0,2.86,0,.08.01.17-.04.25Z"/>
  <path class="cls-1" d="m39.5,53.1c.1-.09.19-.07.29,0,0,.05.02.12.02.18,0,.25,0,.5,0,.76,0,.07,0,.14,0,.2.03.24.22.36.46.32.2-.04.33-.17.39-.36.03-.09.04-.2.04-.3,0-.21,0-.42-.01-.63,0-.03,0-.07,0-.1.01-.09.08-.14.18-.14.08,0,.14.05.15.13,0,.03,0,.07,0,.1,0,.46,0,.93,0,1.39,0,.05-.01.1-.02.14q-.19.07-.35-.12s-.04,0-.05.02c-.16.16-.35.18-.56.17-.3-.02-.54-.24-.56-.54-.01-.21,0-.42,0-.63,0-.13,0-.27,0-.4,0-.07.01-.13.02-.18Z"/>
  <path class="cls-1" d="m41.35,54.57c.04-.14.11-.18.22-.22.04.03.09.06.13.1.15.12.32.14.5.08.09-.03.16-.09.17-.2,0-.09-.05-.17-.16-.2-.12-.04-.24-.07-.36-.11-.07-.02-.14-.05-.21-.08-.31-.16-.28-.54-.11-.71.25-.26.82-.33,1.11.07q-.07.14-.23.2s-.07-.06-.11-.09c-.15-.11-.32-.1-.48-.02-.11.06-.11.2,0,.27.1.06.21.1.33.12.11.02.21.05.31.1.37.18.32.65.1.82-.11.09-.24.16-.39.15-.1,0-.2,0-.3,0-.22,0-.37-.12-.51-.28Z"/>
  <path class="cls-1" d="m50.41,34.12s0-.04.01-.05c.28-.42.55-.84.83-1.26.07-.11.14-.21.22-.31.07-.09.17-.16.28-.21.14-.06.28-.02.39.09.09.1.12.24.04.37-.07.11-.15.21-.24.29-.41.35-.82.69-1.24,1.04-.04.04-.09.07-.15.1-.06.02-.12.01-.14-.06Z"/>
  <path class="cls-1" d="m49.17,54.38c.11.04.18.09.22.18-.2.35-.62.33-.93.27-.37-.08-.61-.46-.63-.88-.02-.41.28-.8.66-.91.17-.05.35-.06.52,0,.14.06.31.1.39.26-.05.1-.12.16-.24.19-.04-.02-.08-.05-.12-.07-.19-.14-.4-.12-.6-.03-.12.05-.18.17-.22.29-.06.17-.05.35,0,.52.1.3.47.47.79.28.05-.03.1-.07.15-.11Z"/>
  <path class="cls-1" d="m45.92,54.33c.05-.07.08-.1.1-.14.13-.33.25-.66.37-.99.03-.07.07-.12.14-.14.08-.03.15-.04.22.05.03.09-.02.17-.06.25-.17.42-.33.84-.5,1.27-.08.21-.11.23-.34.21-.02,0-.03-.01-.06-.02-.13-.16-.17-.37-.26-.56-.08-.18-.15-.37-.23-.56-.08-.19-.17-.38-.23-.57q.12-.1.33-.04c.2.38.32.81.52,1.25Z"/>
  <path class="cls-1" d="m38.9,54.82c-.12.04-.22.05-.32-.01,0-.04-.03-.09-.03-.14,0-.85,0-1.7,0-2.56,0-.03.01-.07.02-.1.1-.1.2-.06.32-.04.01.06.03.11.03.16,0,.78,0,1.57,0,2.35,0,.11.03.22,0,.34Z"/>
  <path class="cls-1" d="m47.4,53.11c0,.53,0,1.05,0,1.57,0,.04-.02.08-.03.13-.05.01-.1.03-.15.03-.09,0-.14-.05-.15-.14,0-.05,0-.1,0-.15,0-.41,0-.82,0-1.24,0-.04,0-.08,0-.13.01-.13.08-.17.21-.14.03,0,.06.03.12.06Z"/>
  <path class="cls-1" d="m44.37,46.61c.14-.04.25-.03.36-.01.15.11.21.29.36.4.18-.08.23-.29.39-.4.1-.02.21-.04.33,0,0,.03,0,.07-.02.09-.12.16-.23.31-.36.46-.17.22-.5.21-.67,0-.12-.15-.24-.3-.36-.46-.01-.02-.01-.05-.03-.09Z"/>
  <path class="cls-1" d="m58.08,47.3c0-.05,0-.1.02-.13.13-.18.26-.35.4-.52.01-.02.04-.03.07-.05.15-.01.3-.02.49,0-.04.07-.05.11-.08.14-.15.15-.3.29-.45.45-.12.12-.25.16-.44.12Z"/>
  <path class="cls-1" d="m42.05,52.45c.11-.07.16-.17.22-.24.06-.07.13-.11.22-.1.03,0,.06.02.1.04-.01.05-.02.09-.04.12-.09.11-.17.23-.27.34-.14.16-.34.15-.48,0-.09-.1-.17-.21-.25-.32-.02-.03-.03-.07-.05-.11.13-.08.21-.08.3,0,.05.05.08.1.13.16.03.04.07.07.11.12Z"/>
  <path class="cls-1" d="m47,52.41c.04-.14.1-.25.26-.24.12,0,.21.12.21.24,0,.11-.07.19-.17.22-.11.03-.19-.03-.3-.22Z"/>
</svg>