<?xml version="1.0" encoding="UTF-8"?>
<svg id="Vrstva_1" data-name="Vrstva 1" xmlns="http://www.w3.org/2000/svg" viewBox="0 0 125.4 36.15">
  <defs>
    <style>
      .cls-1 {
        fill: none;
        stroke: #008752;
        stroke-miterlimit: 10;
        stroke-width: .55px;
      }

      .cls-2 {
        fill: #008752;
        stroke-width: 0px;
      }
    </style>
  </defs>
  <path class="cls-2" d="m38.78,21.39l-.41-.08.05-1.44c1.03.14,1.79.21,2.26.21.32,0,.57-.03.75-.1.18-.07.28-.2.28-.38,0-.17-.09-.29-.26-.37-.18-.08-.47-.15-.88-.22-.15-.02-.26-.03-.32-.05-.43-.08-.78-.17-1.05-.29-.27-.12-.5-.3-.67-.55-.17-.25-.26-.6-.26-1.06,0-.73.22-1.26.67-1.61.44-.35,1.06-.53,1.83-.53.46,0,1.14.08,2.04.24l.42.08-.03,1.42c-1.03-.14-1.8-.2-2.29-.2-.29,0-.52.03-.69.09s-.25.17-.25.35c0,.18.09.31.26.38.17.07.45.14.83.21l.45.08c.68.14,1.17.34,1.46.61.29.27.44.7.44,1.3,0,.73-.21,1.28-.63,1.63-.42.35-1.06.53-1.93.53-.56,0-1.25-.08-2.06-.23"/>
  <path class="cls-2" d="m44.99,20.87c-.44-.5-.67-1.32-.67-2.45s.23-2.06.7-2.64c.47-.58,1.19-.87,2.17-.87.9,0,1.59.24,2.06.72.47.48.7,1.21.7,2.17l-.13,1.19h-3.77c.02.3.07.53.16.69.09.16.23.27.44.33.2.06.48.1.84.1.28,0,.62,0,1.01-.03.39-.02.68-.03.86-.05l.36-.04.03,1.27c-.97.24-1.83.36-2.59.36-1,0-1.72-.25-2.17-.76m3.27-3.18c0-.51-.08-.87-.24-1.07-.16-.2-.44-.3-.84-.3s-.7.1-.87.31c-.17.21-.26.56-.27,1.06h2.22Z"/>
  <path class="cls-2" d="m51.18,15.06h1.7v.68c.73-.43,1.42-.7,2.05-.83v1.73c-.64.13-1.24.28-1.78.45l-.26.09v4.29h-1.72v-6.41Z"/>
  <polygon class="cls-2" points="55.35 15.06 57.14 15.06 58.17 20.01 58.53 20.01 59.6 15.06 61.35 15.06 59.81 21.47 56.89 21.47 55.35 15.06"/>
  <path class="cls-2" d="m62.33,12.51h1.72v1.73h-1.72v-1.73Zm0,2.55h1.72v6.41h-1.72v-6.41Z"/>
  <path class="cls-2" d="m65.82,21.39l-.41-.08.05-1.44c1.03.14,1.79.21,2.26.21.32,0,.57-.03.75-.1.18-.07.28-.2.28-.38,0-.17-.09-.29-.26-.37-.18-.08-.47-.15-.88-.22-.15-.02-.26-.03-.32-.05-.43-.08-.78-.17-1.05-.29-.27-.12-.5-.3-.67-.55-.17-.25-.26-.6-.26-1.06,0-.73.22-1.26.67-1.61.44-.35,1.05-.53,1.83-.53.46,0,1.14.08,2.04.24l.42.08-.03,1.42c-1.03-.14-1.8-.2-2.29-.2-.29,0-.52.03-.69.09s-.25.17-.25.35c0,.18.09.31.26.38.17.07.45.14.83.21l.45.08c.68.14,1.17.34,1.46.61.29.27.44.7.44,1.3,0,.73-.21,1.28-.63,1.63-.42.35-1.06.53-1.93.53-.56,0-1.25-.08-2.06-.23"/>
  <path class="cls-2" d="m74.75,21.32l-.46-.09.18-1.37c1.14.15,2.02.23,2.63.23.91,0,1.36-.38,1.36-1.13,0-.31-.12-.53-.36-.68-.24-.14-.64-.3-1.2-.46-.68-.19-1.21-.4-1.6-.63-.39-.23-.67-.5-.85-.82-.18-.32-.26-.71-.26-1.18,0-.85.26-1.5.78-1.93.52-.44,1.25-.65,2.19-.65.37,0,.75.02,1.14.07.39.05.97.14,1.73.28l-.14,1.4c-1.17-.14-2.02-.21-2.55-.21-.93,0-1.4.31-1.4.92,0,.21.08.39.23.53.15.14.35.25.58.34.23.09.62.22,1.17.39.59.19,1.05.38,1.37.59.33.21.56.46.7.76.15.3.22.69.22,1.17,0,.9-.27,1.58-.81,2.06-.54.48-1.28.72-2.2.72-.67,0-1.48-.1-2.45-.31"/>
  <rect class="cls-2" x="81.56" y="12.5" width="1.72" height="8.97"/>
  <path class="cls-2" d="m85.73,21.29c-.31-.22-.53-.56-.66-1.02-.13-.46-.19-1.08-.19-1.85v-3.36h1.72v3.38c0,.46.02.81.06,1.03.04.23.13.38.26.47.13.09.33.13.61.13.2,0,.37-.02.53-.05.16-.03.38-.09.66-.18v-4.79h1.72v6.41h-1.7v-.36c-.36.2-.66.33-.92.4-.25.07-.52.11-.8.11-.55,0-.98-.11-1.29-.33"/>
  <path class="cls-2" d="m92.21,21.39l-.41-.08.05-1.44c1.03.14,1.79.21,2.26.21.32,0,.57-.03.75-.1.18-.07.28-.2.28-.38,0-.17-.09-.29-.26-.37-.18-.08-.47-.15-.88-.22-.15-.02-.26-.03-.32-.05-.43-.08-.78-.17-1.05-.29-.27-.12-.5-.3-.67-.55-.17-.25-.26-.6-.26-1.06,0-.73.22-1.26.67-1.61.44-.35,1.05-.53,1.83-.53.46,0,1.14.08,2.04.24l.42.08-.03,1.42c-1.03-.14-1.8-.2-2.29-.2-.29,0-.52.03-.69.09-.17.06-.25.18-.25.35,0,.18.09.31.26.38.17.07.45.14.83.21l.45.08c.68.14,1.17.34,1.46.61.29.27.44.7.44,1.3,0,.74-.21,1.28-.63,1.63-.42.35-1.06.53-1.93.53-.56,0-1.25-.08-2.06-.23m1.59-9.29l.59.86.59-.86h1.58l-1.64,1.93h-1.08l-1.61-1.93h1.58Z"/>
  <path class="cls-2" d="m98.49,20.75c-.5-.59-.75-1.42-.75-2.49s.25-1.89.75-2.47c.5-.58,1.23-.87,2.2-.87s1.7.29,2.2.87c.5.58.75,1.41.75,2.47s-.25,1.91-.75,2.49c-.5.58-1.23.88-2.2.88s-1.7-.29-2.2-.88m3.11-1.03c.2-.3.29-.79.29-1.46s-.1-1.16-.29-1.45c-.2-.29-.5-.44-.91-.44s-.71.15-.91.44c-.2.29-.29.77-.29,1.45s.1,1.16.29,1.46c.2.3.5.45.91.45s.71-.15.91-.45"/>
  <polygon class="cls-2" points="104.2 15.06 106 15.06 107.02 20.01 107.38 20.01 108.46 15.06 110.2 15.06 108.66 21.47 105.74 21.47 104.2 15.06"/>
  <path class="cls-2" d="m111.19,12.51h1.72v1.73h-1.72v-1.73Zm0,2.55h1.72v6.41h-1.72v-6.41Z"/>
  <path class="cls-2" d="m114.74,20.82c-.41-.53-.62-1.39-.62-2.56s.21-2.04.64-2.57c.43-.53,1.12-.79,2.09-.79.25,0,.52.02.82.06.3.04.7.11,1.2.22l-.05,1.36c-.73-.07-1.23-.1-1.51-.1-.39,0-.69.05-.9.16-.21.11-.35.29-.43.54-.08.26-.12.62-.12,1.1s.04.86.12,1.12c.08.26.23.44.44.55.21.11.51.17.92.17l1.49-.1.05,1.37c-.91.18-1.61.27-2.13.27-.92,0-1.59-.27-2.01-.8"/>
  <path class="cls-2" d="m120.44,20.87c-.44-.5-.67-1.32-.67-2.45s.23-2.06.7-2.64c.47-.58,1.19-.87,2.17-.87.91,0,1.59.24,2.06.72.47.48.7,1.21.7,2.17l-.13,1.19h-3.77c.02.3.07.53.16.69.09.16.24.27.44.33.2.06.48.1.84.1.28,0,.62,0,1.01-.03.39-.02.68-.03.86-.05l.36-.04.03,1.27c-.97.24-1.83.36-2.59.36-1,0-1.72-.25-2.17-.76m3.27-3.18c0-.51-.08-.87-.24-1.07-.16-.2-.44-.3-.84-.3s-.7.1-.87.31c-.17.21-.26.56-.27,1.06h2.22Z"/>
  <line class="cls-1" x1="38.26" y1="23.06" x2="125.4" y2="23.06"/>
  <path class="cls-2" d="m40.33,26.39h.31v.15c.11-.06.22-.11.32-.15.1-.03.21-.05.33-.05.26,0,.46.09.58.26.12.17.18.45.18.83,0,.27-.03.49-.09.65-.06.16-.16.28-.3.36-.14.07-.32.11-.55.11-.16,0-.31-.02-.46-.05v.95h-.32v-3.07Zm1.26,1.7c.09-.13.14-.34.14-.63s-.04-.5-.12-.63c-.08-.13-.2-.19-.37-.19-.08,0-.17.01-.27.04-.09.03-.18.06-.24.09l-.08.04v1.43c.21.03.37.05.47.05.22,0,.38-.07.47-.2"/>
  <path class="cls-2" d="m42.82,28.46c-.1-.07-.17-.17-.21-.33-.04-.15-.06-.36-.06-.63v-1.11h.32v1.1c0,.21.01.37.03.48.02.11.06.18.12.23.06.05.15.07.28.07.19,0,.39-.05.6-.16v-1.73h.32v2.13h-.32v-.15c-.12.07-.22.12-.32.15-.1.03-.21.05-.34.05-.18,0-.32-.03-.42-.1m.27-2.37c-.08-.09-.12-.19-.12-.32s.04-.22.12-.31c.08-.09.18-.13.31-.13s.22.04.31.13c.08.09.12.19.12.31s-.04.23-.12.32c-.08.09-.18.13-.31.13s-.22-.04-.31-.13m.47-.14s.07-.1.07-.17c0-.06-.02-.12-.07-.17-.05-.05-.1-.07-.17-.07s-.12.02-.17.07c-.05.05-.07.1-.07.17,0,.07.02.13.07.17.05.05.1.07.17.07s.12-.02.17-.07"/>
  <path class="cls-2" d="m44.32,29.22c.15-.09.27-.16.34-.23.07-.06.12-.13.14-.21.03-.08.04-.18.04-.32v-2.07h.31v2.07c0,.18-.02.32-.06.43-.04.11-.11.21-.21.29-.1.09-.25.18-.44.28l-.13-.25Zm.52-3.68h.31v.37h-.31v-.37Z"/>
  <path class="cls-2" d="m45.99,28.45c-.12-.08-.21-.19-.27-.35s-.08-.37-.08-.64c0-.34.06-.61.17-.81.11-.2.33-.3.66-.3.09,0,.17,0,.26.01s.21.03.37.06v.26c-.24-.03-.41-.04-.53-.04-.16,0-.29.02-.37.07-.09.05-.15.13-.18.25-.04.12-.05.29-.05.5,0,.21.02.37.05.48.03.11.1.2.18.25.09.05.22.08.39.08l.5-.04v.26c-.26.04-.46.06-.6.06-.21,0-.38-.04-.51-.11m.14-3.04l.32.37.31-.37h.32l-.53.6h-.22l-.52-.6h.32Z"/>
  <path class="cls-2" d="m47.84,28.45c-.13-.07-.23-.19-.29-.35s-.09-.37-.09-.63.03-.49.09-.65c.06-.16.16-.28.29-.36.13-.07.31-.11.53-.11s.4.04.53.11c.13.08.23.19.29.36.06.16.09.38.09.65s-.03.47-.09.63-.15.28-.28.35c-.13.07-.31.11-.54.11s-.41-.04-.54-.11m.9-.24c.08-.05.14-.14.17-.25.03-.11.05-.28.05-.49,0-.22-.02-.39-.05-.51-.03-.12-.09-.2-.17-.26-.08-.05-.2-.08-.35-.08s-.27.03-.35.08c-.08.05-.14.14-.18.26-.03.12-.05.29-.05.51,0,.21.02.37.05.48.03.12.09.2.17.25.08.05.21.08.36.08s.27-.03.36-.08"/>
  <polygon class="cls-2" points="49.57 26.39 49.91 26.39 50.41 28.24 50.57 28.24 51.08 26.39 51.41 26.39 50.81 28.52 50.17 28.52 49.57 26.39"/>
  <path class="cls-2" d="m51.82,26.39h.31v.15c.13-.07.24-.12.35-.15.11-.03.22-.04.33-.04.18,0,.32.03.42.1.1.07.17.18.21.33.04.15.06.35.06.62v1.12h-.31v-1.11c0-.2-.01-.36-.04-.46-.02-.11-.07-.19-.13-.23-.06-.05-.15-.07-.27-.07-.1,0-.19.01-.3.04-.1.02-.18.05-.24.08l-.08.04v1.73h-.32v-2.13Z"/>
  <path class="cls-2" d="m54.11,28.39c-.1-.11-.15-.27-.15-.48s.05-.36.15-.45c.1-.1.27-.16.5-.18l.67-.06v-.18c0-.27-.12-.4-.35-.4s-.51.02-.84.06v-.24c.29-.06.57-.09.82-.09s.42.05.53.16c.11.11.16.28.16.52v1.09c0,.1.09.17.25.19v.25c-.24,0-.41-.06-.52-.17-.25.11-.51.17-.77.17-.2,0-.34-.06-.45-.17m1.07-.2l.1-.03v-.7l-.63.06c-.13.01-.22.05-.28.11-.06.06-.09.15-.09.27,0,.26.11.39.32.39.19,0,.38-.03.57-.1"/>
  <rect class="cls-2" x="57.19" y="25.46" width=".32" height="3.05"/>
  <path class="cls-2" d="m58.23,28.31c-.13-.17-.2-.43-.2-.8,0-.39.07-.69.22-.88.14-.19.37-.28.68-.28.28,0,.5.08.64.24s.21.41.21.75l-.02.24h-1.4c0,.18.02.31.06.41.04.1.1.17.2.21.09.04.22.07.38.07.08,0,.18,0,.28,0,.11,0,.21-.01.29-.02h.12s0,.24,0,.24c-.31.05-.58.07-.78.07-.32,0-.55-.08-.69-.25m1.22-.98c0-.26-.04-.44-.12-.55-.08-.11-.22-.16-.4-.16s-.34.06-.43.17c-.09.11-.14.3-.14.54h1.1Z"/>
  <path class="cls-2" d="m60.31,28.5l-.13-.02.02-.28c.33.05.58.07.73.07.17,0,.3-.03.38-.08.08-.06.13-.14.13-.27,0-.09-.02-.15-.06-.2-.04-.05-.09-.08-.16-.1-.06-.02-.15-.04-.27-.06l-.11-.02c-.17-.03-.3-.06-.4-.1-.1-.04-.17-.1-.22-.17-.05-.07-.07-.17-.07-.3,0-.23.07-.39.21-.49.14-.1.34-.14.59-.14.2,0,.41.02.62.06l.12.02v.27c-.31-.05-.55-.07-.73-.07s-.29.03-.37.08c-.08.05-.12.13-.12.24,0,.08.02.14.06.18.04.04.09.07.16.09.06.02.15.04.27.06l.11.02c.18.03.31.07.41.11.1.04.17.1.21.18.05.08.07.18.07.32,0,.23-.07.4-.2.5-.13.11-.34.16-.62.16-.17,0-.38-.02-.63-.06m.37-3.1l.32.37.31-.37h.32l-.53.6h-.22l-.52-.6h.32Z"/>
  <path class="cls-2" d="m62.35,28.31c-.14-.17-.2-.43-.2-.8,0-.39.07-.69.22-.88.15-.19.37-.28.68-.28.28,0,.5.08.64.24s.21.41.21.75l-.02.24h-1.4c0,.18.02.31.06.41.04.1.1.17.2.21.09.04.22.07.38.07.08,0,.18,0,.29,0,.11,0,.21-.01.29-.02h.12s0,.24,0,.24c-.31.05-.58.07-.78.07-.32,0-.55-.08-.69-.25m1.22-.98c0-.26-.04-.44-.12-.55-.08-.11-.22-.16-.4-.16s-.34.06-.43.17c-.09.11-.14.3-.14.54h1.11Z"/>
  <path class="cls-2" d="m64.39,26.39h.31v.15c.13-.07.24-.12.35-.15.11-.03.22-.04.33-.04.18,0,.32.03.42.1.1.07.17.18.21.33.04.15.06.35.06.62v1.12h-.31v-1.11c0-.2-.01-.36-.04-.46-.02-.11-.07-.19-.13-.23-.06-.05-.15-.07-.27-.07-.1,0-.2.01-.3.04-.1.02-.18.05-.24.08l-.08.04v1.73h-.32v-2.13Z"/>
  <path class="cls-2" d="m66.53,25.79l.92-.42.11.27-.94.36-.09-.22Zm.14.6h.31v2.13h-.31v-2.13Z"/>
  <polygon class="cls-2" points="67.63 28.06 67.99 28.06 67.7 29.04 67.44 29.04 67.63 28.06"/>
  <path class="cls-2" d="m69.6,28.53h-.12v-3.06h.31v1.03c.22-.1.44-.15.65-.15.19,0,.33.04.44.11.11.07.19.19.24.35.05.16.07.37.07.64,0,.29-.03.52-.09.68-.06.16-.17.27-.31.34-.15.07-.35.1-.62.1-.19,0-.38-.01-.57-.03m1.02-.33c.1-.06.16-.14.2-.26.04-.12.06-.29.06-.5,0-.2-.02-.36-.05-.47-.03-.11-.08-.2-.15-.25s-.17-.08-.3-.08c-.16,0-.35.04-.57.12v1.5c.2.01.34.02.41.02.18,0,.32-.03.41-.08"/>
  <path class="cls-2" d="m71.83,28.31c-.13-.17-.2-.43-.2-.8,0-.39.07-.69.22-.88.14-.19.37-.28.68-.28.28,0,.5.08.64.24s.21.41.21.75l-.02.24h-1.4c0,.18.02.31.06.41.04.1.1.17.2.21.09.04.22.07.38.07.08,0,.18,0,.28,0,.11,0,.21-.01.29-.02h.12s0,.24,0,.24c-.31.05-.58.07-.78.07-.32,0-.55-.08-.69-.25m1.22-.98c0-.26-.04-.44-.12-.55-.08-.11-.22-.16-.4-.16s-.34.06-.43.17c-.09.11-.14.3-.14.54h1.1Z"/>
  <path class="cls-2" d="m73.95,28.3c-.12-.17-.17-.44-.17-.81,0-.41.07-.7.21-.88s.37-.27.69-.27c.16,0,.33.02.51.06v-.94h.31v3.05h-.31v-.14c-.22.13-.44.19-.66.19-.27,0-.46-.09-.58-.26m.91-.06c.1-.02.18-.05.25-.08l.09-.04v-1.44c-.18-.03-.34-.05-.48-.05-.22,0-.38.06-.47.19-.09.13-.13.35-.13.65,0,.27.04.48.11.61.07.13.2.2.38.2.08,0,.17-.01.27-.04"/>
  <path class="cls-2" d="m76.12,26.39h.31v.15c.13-.07.24-.12.35-.15.11-.03.22-.04.33-.04.18,0,.32.03.42.1.1.07.17.18.21.33.04.15.06.35.06.62v1.12h-.31v-1.11c0-.2-.01-.36-.04-.46-.02-.11-.07-.19-.13-.23-.06-.05-.15-.07-.27-.07-.1,0-.19.01-.3.04-.1.02-.18.05-.24.08l-.08.04v1.73h-.32v-2.13Z"/>
  <path class="cls-2" d="m78.51,28.31c-.14-.17-.2-.43-.2-.8,0-.39.07-.69.22-.88.15-.19.37-.28.68-.28.28,0,.5.08.64.24s.21.41.21.75l-.02.24h-1.4c0,.18.02.31.06.41.04.1.1.17.2.21.09.04.22.07.38.07.08,0,.18,0,.29,0,.11,0,.21-.01.29-.02h.12s0,.24,0,.24c-.31.05-.58.07-.78.07-.32,0-.55-.08-.69-.25m.35-2.9l.32.37.31-.37h.32l-.53.6h-.22l-.52-.6h.32Zm.88,1.93c0-.26-.04-.44-.12-.55-.08-.11-.22-.16-.4-.16s-.34.06-.43.17c-.09.11-.14.3-.14.54h1.11Z"/>
  <path class="cls-2" d="m80.55,26.39h.31v.15c.13-.07.24-.12.35-.15.11-.03.22-.04.33-.04.18,0,.32.03.42.1.1.07.17.18.21.33.04.15.06.35.06.62v1.12h-.31v-1.11c0-.2-.01-.36-.04-.46-.02-.11-.07-.19-.13-.23-.06-.05-.15-.07-.27-.07-.1,0-.2.01-.3.04-.1.02-.18.05-.24.08l-.08.04v1.73h-.32v-2.13Z"/>
  <path class="cls-2" d="m82.68,25.79l.92-.42.11.27-.94.36-.09-.22Zm.14.6h.31v2.13h-.31v-2.13Z"/>
  <path class="cls-2" d="m84.71,28.39c-.1-.11-.15-.27-.15-.48s.05-.36.15-.45c.1-.1.27-.16.5-.18l.67-.06v-.18c0-.27-.12-.4-.35-.4s-.51.02-.84.06v-.24c.29-.06.57-.09.82-.09s.42.05.53.16c.11.11.16.28.16.52v1.09c0,.1.09.17.25.19v.25c-.24,0-.41-.06-.52-.17-.25.11-.51.17-.77.17-.2,0-.34-.06-.45-.17m1.07-.2l.1-.03v-.7l-.63.06c-.13.01-.22.05-.28.11-.06.06-.09.15-.09.27,0,.26.11.39.32.39.19,0,.38-.03.57-.1"/>
  <path class="cls-2" d="m87.8,28.5l-.13-.02.02-.28c.33.05.58.07.73.07.17,0,.3-.03.38-.08.08-.06.13-.14.13-.27,0-.09-.02-.15-.06-.2-.04-.05-.09-.08-.16-.1-.06-.02-.15-.04-.27-.06l-.11-.02c-.17-.03-.3-.06-.4-.1-.1-.04-.17-.1-.22-.17-.05-.07-.07-.17-.07-.3,0-.23.07-.39.21-.49.14-.1.34-.14.59-.14.2,0,.41.02.62.06l.12.02v.27c-.31-.05-.55-.07-.73-.07s-.29.03-.37.08c-.08.05-.12.13-.12.24,0,.08.02.14.06.18.04.04.09.07.16.09.06.02.15.04.27.06l.11.02c.18.03.31.07.41.11.1.04.17.1.21.18.05.08.07.18.07.32,0,.23-.07.4-.2.5-.14.11-.34.16-.62.16-.17,0-.38-.02-.63-.06"/>
  <path class="cls-2" d="m90.07,28.49c-.08-.05-.14-.13-.17-.24-.04-.11-.05-.27-.05-.47v-1.12h-.3v-.28h.3v-.65h.31v.65h.68v.28h-.68v1.02c0,.16,0,.28.02.35.01.08.04.14.08.18.04.04.11.06.21.06l.38-.03.02.26c-.2.03-.35.05-.45.05-.14,0-.26-.02-.34-.07"/>
  <path class="cls-2" d="m91.22,26.39h.31v.29c.24-.17.5-.28.78-.34v.32c-.11.02-.23.06-.36.1-.13.05-.23.09-.31.13l-.11.06v1.56h-.32v-2.13Z"/>
  <path class="cls-2" d="m92.93,28.45c-.13-.07-.23-.19-.29-.35-.06-.16-.09-.37-.09-.63s.03-.49.09-.65c.06-.16.16-.28.29-.36.13-.07.31-.11.53-.11s.4.04.53.11c.13.08.23.19.29.36.06.16.09.38.09.65s-.03.47-.09.63-.15.28-.28.35c-.13.07-.31.11-.54.11s-.41-.04-.54-.11m.9-.24c.08-.05.14-.14.17-.25.03-.11.05-.28.05-.49,0-.22-.02-.39-.05-.51-.03-.12-.09-.2-.17-.26-.08-.05-.2-.08-.35-.08s-.27.03-.35.08c-.08.05-.14.14-.18.26-.04.12-.05.29-.05.51,0,.21.02.37.05.48.03.12.09.2.17.25.08.05.21.08.36.08s.27-.03.36-.08"/>
  <path class="cls-2" d="m94.38,29.22c.15-.09.27-.16.34-.23.07-.06.12-.13.14-.21.03-.08.04-.18.04-.32v-2.07h.31v2.07c0,.18-.02.32-.06.43-.04.11-.11.21-.21.29-.1.09-.24.18-.44.28l-.13-.25Zm.52-3.68h.31v.37h-.31v-.37Z"/>
  <path class="cls-2" d="m96.07,28.46c-.1-.07-.17-.17-.21-.33-.04-.15-.06-.36-.06-.63v-1.11h.32v1.1c0,.21.01.37.03.48.02.11.06.18.12.23.06.05.15.07.28.07.19,0,.39-.05.59-.16v-1.73h.32v2.13h-.32v-.15c-.12.07-.22.12-.32.15-.1.03-.21.05-.34.05-.18,0-.32-.03-.42-.1m.27-2.37c-.08-.09-.12-.19-.12-.32s.04-.22.12-.31c.08-.09.18-.13.31-.13s.22.04.31.13c.08.09.12.19.12.31s-.04.23-.12.32c-.08.09-.18.13-.31.13s-.22-.04-.31-.13m.47-.14s.07-.1.07-.17c0-.06-.02-.12-.07-.17-.05-.05-.1-.07-.17-.07s-.12.02-.17.07c-.05.05-.07.1-.07.17,0,.07.02.13.07.17.05.05.1.07.17.07s.12-.02.17-.07"/>
  <path class="cls-2" d="m24.99,18.9c-.48.04-.72.3-.72.77s.21.71.63.71c.32,0,.68-.05,1.06-.16l.19-.05v-1.37l-1.17.1Zm0,0c-.48.04-.72.3-.72.77s.21.71.63.71c.32,0,.68-.05,1.06-.16l.19-.05v-1.37l-1.17.1ZM0,36.15h36.15V0H0v36.15Zm20.96-14.41c-.19.03-.39.04-.58.04-.5,0-.88-.08-1.15-.23-.27-.15-.47-.41-.59-.76-.12-.35-.18-.83-.18-1.45v-2.67h-.76v-1.46h.76l.03-11.54-14.28,7.01,5.89,2.89-.79,1.6-5.75-2.82v11.64l6.15-3.02.79,1.6-5.97,2.94,13.96,6.86v-9.42h1.78v11.41h-1.78s-14.92-7.33-14.92-7.33v7.32h-1.78V1.66h1.78v7.34L18.49,1.68h0s1.78-.01,1.78-.01l-.1,13.55h1.58v1.46h-1.58v2.63c0,.33.03.57.09.72.06.15.21.22.45.21l.97-.03.08,1.37c-.34.08-.61.13-.8.15m-5.98-3.3c-.24-.15-.64-.3-1.21-.46-.67-.19-1.21-.4-1.59-.63-.39-.23-.67-.5-.85-.82-.17-.31-.26-.71-.26-1.18,0-.85.26-1.5.78-1.93.52-.44,1.25-.65,2.19-.65.37,0,.75.02,1.14.07.39.05.97.14,1.73.27l-.14,1.4c-1.17-.14-2.02-.2-2.55-.2-.93,0-1.4.31-1.4.92,0,.21.08.39.23.53.15.14.35.25.58.34.23.09.62.22,1.17.39.59.19,1.05.39,1.37.59.33.21.56.46.7.76.14.3.22.69.22,1.17,0,.9-.27,1.58-.81,2.06-.54.48-1.28.72-2.2.72-.67,0-1.48-.1-2.45-.31l-.46-.09.18-1.37c1.14.16,2.02.23,2.63.23.9,0,1.36-.38,1.36-1.13,0-.31-.12-.53-.36-.68m13.26,3.34c-.44,0-.8-.03-1.06-.09-.26-.06-.52-.18-.78-.36-.62.3-1.25.45-1.88.45-1.32,0-1.99-.7-1.99-2.1,0-.67.18-1.15.53-1.44.35-.29.93-.47,1.71-.52l1.37-.1v-.4c0-.26-.06-.44-.17-.54-.11-.1-.31-.15-.58-.15s-.67.01-1.17.03c-.5.02-.91.05-1.24.07l-.05-1.19c.92-.25,1.79-.37,2.61-.37s1.41.17,1.78.51c.36.34.54.89.54,1.64v2.67c.02.21.05.36.11.43.05.08.16.13.31.17l-.05,1.29Zm5.05-.15h-2.92l-1.54-6.41h1.79l1.03,4.95h.36l1.07-4.95h1.74l-1.54,6.41Zm-9.02-1.95c0,.47.21.71.63.71.32,0,.68-.05,1.06-.16l.19-.05v-1.37l-1.17.1c-.48.04-.72.3-.72.77m.72-.77c-.48.04-.72.3-.72.77s.21.71.63.71c.32,0,.68-.05,1.06-.16l.19-.05v-1.37l-1.17.1Zm0,0c-.48.04-.72.3-.72.77s.21.71.63.71c.32,0,.68-.05,1.06-.16l.19-.05v-1.37l-1.17.1Z"/>
  <path class="cls-2" d="m101.17,27.13c0-.46.09-.81.27-1.03.18-.23.44-.34.78-.34.22,0,.43.02.63.05l.11.02-.03.26c-.24-.03-.48-.05-.71-.05s-.41.08-.53.24c-.13.16-.19.39-.19.69l.1-.04c.08-.03.17-.06.29-.08.11-.02.21-.04.29-.04.6,0,.9.28.9.84,0,.29-.08.5-.25.66-.16.15-.4.23-.69.23-.64,0-.96-.46-.96-1.4m1.42.96c.11-.1.16-.25.16-.45s-.05-.33-.15-.42c-.1-.09-.25-.14-.44-.14-.08,0-.18.01-.29.04-.11.02-.2.05-.27.08l-.09.04c0,.32.06.57.16.74.1.18.26.27.46.27s.36-.05.47-.16"/>
  <path class="cls-2" d="m103.83,28.4c-.14-.09-.25-.24-.32-.44s-.11-.47-.11-.81.04-.61.11-.81.18-.35.32-.44.33-.14.55-.14c.33,0,.58.11.74.32.16.21.24.57.24,1.07,0,.34-.04.61-.11.81-.07.2-.18.35-.32.44-.14.09-.33.13-.55.13s-.41-.05-.55-.13m.92-.25c.1-.07.17-.18.21-.35.05-.16.07-.38.07-.66s-.02-.5-.07-.66c-.05-.16-.12-.28-.21-.35-.1-.07-.22-.1-.37-.1s-.28.03-.37.1c-.1.07-.17.18-.21.35-.05.16-.07.38-.07.66s.02.5.07.66c.05.16.12.28.21.35.09.07.22.1.37.1s.28-.03.37-.1"/>
  <polygon class="cls-2" points="106.18 28.44 107.19 26.19 107.19 26.09 105.84 26.09 105.84 25.8 107.51 25.8 107.51 26.21 106.47 28.53 106.18 28.44"/>
  <path class="cls-2" d="m109.29,28.4c-.14-.09-.25-.24-.32-.44s-.11-.47-.11-.81.04-.61.11-.81.18-.35.32-.44.33-.14.55-.14c.33,0,.58.11.74.32.16.21.24.57.24,1.07,0,.34-.04.61-.11.81-.07.2-.18.35-.32.44-.14.09-.33.13-.55.13s-.41-.05-.55-.13m.92-.25c.1-.07.17-.18.21-.35.05-.16.07-.38.07-.66s-.02-.5-.07-.66c-.05-.16-.12-.28-.21-.35-.1-.07-.22-.1-.37-.1s-.28.03-.37.1c-.1.07-.17.18-.21.35-.05.16-.07.38-.07.66s.02.5.07.66c.05.16.12.28.21.35.09.07.22.1.37.1s.28-.03.37-.1"/>
  <path class="cls-2" d="m111.26,28.23l.79-.83c.12-.13.22-.23.29-.31.07-.08.13-.17.18-.27.05-.1.07-.2.07-.3,0-.17-.05-.29-.14-.37-.09-.07-.24-.11-.45-.11-.17,0-.37.02-.59.07l-.11.02-.02-.26c.26-.07.52-.11.8-.11s.49.06.63.18c.14.12.21.3.21.55,0,.18-.04.35-.12.49-.08.14-.23.31-.44.52l-.72.73h1.35v.27h-1.72v-.26Z"/>
  <polygon class="cls-2" points="114.73 27.97 113.43 27.97 113.43 27.72 114.19 25.8 114.53 25.8 113.76 27.69 114.73 27.69 114.73 26.85 115.04 26.85 115.04 27.69 115.38 27.69 115.38 27.97 115.04 27.97 115.04 28.49 114.73 28.49 114.73 27.97"/>
  <path class="cls-2" d="m116.83,28.44l-.13-.03.04-.25c.31.06.57.09.79.09s.37-.05.48-.16c.11-.11.16-.26.16-.46s-.05-.33-.14-.42c-.1-.09-.24-.13-.43-.13-.09,0-.19.01-.3.04-.11.03-.19.05-.26.08l-.09.04-.22-.04.07-1.4h1.57v.29h-1.31l-.07.88c.21-.11.42-.17.63-.17.57,0,.86.27.86.8,0,.3-.08.53-.23.69-.16.16-.38.24-.67.24-.23,0-.49-.03-.76-.09"/>
  <polygon class="cls-2" points="119.37 28.44 120.39 26.19 120.39 26.09 119.03 26.09 119.03 25.8 120.7 25.8 120.7 26.21 119.67 28.53 119.37 28.44"/>
  <path class="cls-2" d="m121.38,28.47l-.11-.02.03-.25c.24.03.48.05.71.05.49,0,.74-.31.74-.94-.28.1-.51.15-.7.15-.59,0-.88-.27-.88-.82,0-.27.08-.49.25-.65.17-.16.39-.24.68-.24.65,0,.97.48.97,1.43,0,.46-.09.8-.26,1.02-.18.21-.44.32-.8.32-.2,0-.41-.02-.63-.06m1.27-1.39l.11-.04c0-.67-.22-1.01-.65-1.01-.19,0-.34.06-.45.17-.11.11-.16.26-.16.45,0,.36.19.54.58.54.17,0,.36-.04.57-.11"/>
  <path class="cls-2" d="m98.37,28.56h.2l-.16.56h-.15l.11-.56Zm-.02-.8h.2v.28h-.2v-.28Z"/>
</svg>