<?xml version="1.0" encoding="UTF-8"?>
<svg id="Vrstva_1" data-name="Vrstva 1" xmlns="http://www.w3.org/2000/svg" viewBox="0 0 61.7 33.48">
  <defs>
    <style>
      .cls-1 {
        stroke-width: 0px;
      }
    </style>
  </defs>
  <path class="cls-1" d="m5.5,2.67c0,1.46-1.11,2.58-2.59,2.58h-1.85v2.87H0V.09h2.91c1.48,0,2.59,1.11,2.59,2.58m-1.05,0c0-.92-.65-1.58-1.54-1.58h-1.85v3.16h1.85c.88,0,1.54-.68,1.54-1.58"/>
  <path class="cls-1" d="m5.9,5.25c0-1.69,1.34-3.01,3.01-3.01s3.02,1.32,3.02,3.01-1.35,3.02-3.02,3.02-3.01-1.32-3.01-3.02m5.04,0c0-1.16-.88-2.04-2.03-2.04s-2.02.88-2.02,2.04.88,2.04,2.02,2.04,2.03-.88,2.03-2.04"/>
  <path class="cls-1" d="m18.2,4.6v3.52h-1v-3.46c0-.94-.54-1.47-1.42-1.47s-1.66.54-1.66,1.89v3.04h-1V.09h1v3.12c.42-.68,1.05-.97,1.86-.97,1.34,0,2.22.89,2.22,2.36"/>
  <path class="cls-1" d="m19.26,5.25c0-1.69,1.34-3.01,3.01-3.01s3.02,1.32,3.02,3.01-1.35,3.02-3.02,3.02-3.01-1.32-3.01-3.02m5.04,0c0-1.16-.88-2.04-2.03-2.04s-2.02.88-2.02,2.04.88,2.04,2.02,2.04,2.03-.88,2.03-2.04"/>
  <path class="cls-1" d="m30.43,6.54c0,1.07-.92,1.72-2.14,1.72-1.15,0-1.95-.55-2.28-1.34l.86-.49c.18.55.71.89,1.42.89.61,0,1.13-.22,1.13-.78,0-1.23-3.21-.53-3.21-2.6,0-1.01.87-1.71,2.03-1.71.94,0,1.7.45,2.06,1.19l-.84.47c-.22-.52-.72-.73-1.23-.73s-1.02.25-1.02.77c0,1.23,3.21.5,3.21,2.61"/>
  <path class="cls-1" d="m32.97,3.35v3.11c0,.87.5.81,1.52.77v.89c-1.72.23-2.52-.23-2.52-1.66v-3.11h-1.14v-.96h1.14v-1.31l1-.3v1.6h1.52v.96h-1.52Z"/>
  <path class="cls-1" d="m35.5.68c0-.37.3-.68.68-.68s.66.31.66.68-.3.67-.66.67-.68-.3-.68-.67m.17,1.71h1v5.73h-1V2.38Z"/>
  <path class="cls-1" d="m43.27,4.6v3.52h-1v-3.46c0-.94-.54-1.47-1.42-1.47s-1.66.54-1.66,1.89v3.04h-1V2.38h1v.82c.42-.68,1.05-.97,1.86-.97,1.34,0,2.22.89,2.22,2.36"/>
  <path class="cls-1" d="m48.73,6.54c0,1.07-.92,1.72-2.14,1.72-1.15,0-1.95-.55-2.28-1.34l.86-.49c.18.55.71.89,1.42.89.61,0,1.13-.22,1.13-.78,0-1.23-3.21-.53-3.21-2.6,0-1.01.87-1.71,2.03-1.71.94,0,1.7.45,2.06,1.19l-.84.47c-.22-.52-.72-.73-1.23-.73s-1.02.25-1.02.77c0,1.23,3.21.5,3.21,2.61"/>
  <path class="cls-1" d="m51.27,3.35v3.11c0,.87.5.81,1.52.77v.89c-1.72.23-2.52-.23-2.52-1.66v-3.11h-1.14v-.96h1.14v-1.31l1-.3v1.6h1.52v.96h-1.52Z"/>
  <polygon class="cls-1" points="59.1 2.38 56.81 8.11 55.64 8.11 53.35 2.38 54.42 2.38 56.22 7.05 58.02 2.38 59.1 2.38"/>
  <path class="cls-1" d="m59.95,2.38h1v5.73h-1V2.38Zm1-.75l.76-1.55h-1.18l-.54,1.55h.96Z"/>
  <path class="cls-1" d="m7.32,17.75l.92-.53c.29.88.97,1.46,2.14,1.46s1.7-.52,1.7-1.24c0-.82-.71-1.1-1.89-1.47-1.28-.41-2.52-.81-2.52-2.3s1.18-2.27,2.52-2.27,2.27.75,2.72,1.75l-.89.52c-.29-.69-.85-1.24-1.82-1.24-.86,0-1.46.46-1.46,1.19s.56,1.02,1.68,1.38c1.4.46,2.72.87,2.72,2.42,0,1.41-1.14,2.3-2.77,2.3-1.52,0-2.61-.77-3.04-1.97"/>
  <path class="cls-1" d="m20.16,13.84v5.73h-1v-.99c-.46.7-1.19,1.14-2.17,1.14-1.59,0-2.9-1.32-2.9-3.02s1.31-3.01,2.9-3.01c.97,0,1.71.44,2.17,1.13v-.98h1Zm-1,2.86c0-1.17-.88-2.05-2.04-2.05s-2.03.88-2.03,2.05.88,2.05,2.03,2.05,2.04-.88,2.04-2.05"/>
  <polygon class="cls-1" points="25.88 18.62 25.88 19.57 21.47 19.57 21.47 18.91 24.39 14.79 21.58 14.79 21.58 13.84 25.77 13.84 25.77 14.51 22.83 18.62 25.88 18.62"/>
  <path class="cls-1" d="m26.4,16.71c0-1.69,1.34-3.01,3.01-3.01s3.02,1.32,3.02,3.01-1.35,3.02-3.02,3.02-3.01-1.32-3.01-3.02m5.04,0c0-1.16-.88-2.04-2.03-2.04s-2.02.88-2.02,2.04.88,2.04,2.02,2.04,2.03-.88,2.03-2.04"/>
  <polygon class="cls-1" points="38.48 13.84 36.18 19.57 35.02 19.57 32.72 13.84 33.8 13.84 35.6 18.51 37.4 13.84 38.48 13.84"/>
  <path class="cls-1" d="m39.15,12.14c0-.37.3-.68.68-.68s.66.31.66.68-.3.67-.66.67-.68-.3-.68-.67m.17,1.71h1v5.73h-1v-5.73Z"/>
  <path class="cls-1" d="m41.52,16.71c0-1.69,1.28-3.01,3.01-3.01,1.13,0,2.1.6,2.53,1.5l-.84.48c-.29-.61-.93-1.01-1.7-1.01-1.15,0-2.02.88-2.02,2.04s.87,2.03,2.02,2.03c.78,0,1.41-.4,1.73-1l.85.49c-.48.89-1.46,1.49-2.58,1.49-1.73,0-3.01-1.32-3.01-3.02"/>
  <path class="cls-1" d="m50.79,18.78c.79,0,1.36-.37,1.65-.84l.85.48c-.5.78-1.38,1.29-2.52,1.29-1.85,0-3.07-1.29-3.07-3.01s1.21-3.01,3-3.01,2.85,1.42,2.85,3.03c0,.15-.01.3-.03.45h-4.8c.19,1.03,1.01,1.62,2.07,1.62m-2.07-2.49h3.83c-.17-1.13-.99-1.66-1.85-1.66-1.08,0-1.82.67-1.98,1.66"/>
  <polygon class="cls-1" points="7.76 23.01 8.9 23.01 11.23 29.7 13.55 23.01 14.7 23.01 11.83 31.03 10.62 31.03 7.76 23.01"/>
  <path class="cls-1" d="m15.31,25.3h1v5.73h-1v-5.73Zm1-.75l.76-1.55h-1.18l-.54,1.55h.96Z"/>
  <path class="cls-1" d="m19.42,26.27v3.11c0,.87.5.81,1.52.77v.89c-1.72.23-2.52-.23-2.52-1.66v-3.11h-1.14v-.96h1.14v-1.31l1-.3v1.6h1.52v.96h-1.52Z"/>
  <polygon class="cls-1" points="31.18 23.01 31.18 31.03 30.32 31.03 26.2 25.04 26.2 31.03 25.13 31.03 25.13 23.01 25.99 23.01 30.12 28.99 30.12 23.01 31.18 23.01"/>
  <path class="cls-1" d="m35.57,30.24c.79,0,1.36-.37,1.65-.84l.85.48c-.5.78-1.38,1.29-2.52,1.29-1.85,0-3.07-1.29-3.07-3.01s1.21-3.01,3-3.01,2.85,1.42,2.85,3.03c0,.15-.01.3-.03.45h-4.8c.19,1.03,1.01,1.62,2.07,1.62m-2.07-2.49h3.83c-.17-1.13-.99-1.66-1.85-1.66-1.08,0-1.82.67-1.98,1.66"/>
  <path class="cls-1" d="m39.67,25.3h1v6.07c0,1.48-.77,2.2-2.21,2.1v-.96c.83.07,1.22-.24,1.22-1.14v-6.07Zm-.17-1.71c0-.37.3-.68.68-.68s.66.31.66.68-.3.67-.66.67-.68-.3-.68-.67"/>
  <path class="cls-1" d="m44.96,30.24c.79,0,1.36-.37,1.65-.84l.85.48c-.5.78-1.38,1.29-2.52,1.29-1.85,0-3.07-1.29-3.07-3.01s1.21-3.01,3-3.01,2.85,1.42,2.85,3.03c0,.15-.01.3-.03.45h-4.8c.19,1.03,1.01,1.62,2.07,1.62m-2.07-2.49h3.83c-.17-1.13-.99-1.66-1.85-1.66-1.08,0-1.82.67-1.98,1.66"/>
  <polygon class="cls-1" points="52.75 30.08 52.75 31.03 48.34 31.03 48.34 30.37 51.26 26.25 48.45 26.25 48.45 25.3 52.64 25.3 52.64 25.97 49.7 30.08 52.75 30.08"/>
</svg>