<?xml version="1.0" encoding="UTF-8"?>
<svg id="Vrstva_1" data-name="Vrstva 1" xmlns="http://www.w3.org/2000/svg" viewBox="0 0 115.38 65.92">
  <defs>
    <style>
      .cls-1 {
        stroke-width: 0px;
      }
    </style>
  </defs>
  <polygon class="cls-1" points="24.03 39.55 0 39.55 0 0 71.6 0 71.6 2.23 2.23 2.23 2.23 37.31 24.03 37.31 24.03 39.55"/>
  <polygon class="cls-1" points="115.38 65.92 29.2 65.92 29.2 63.68 113.15 63.68 113.15 28.6 93.12 28.6 93.12 26.37 115.38 26.37 115.38 65.92"/>
  <path class="cls-1" d="m77.02,37.82h-2.9v19.53h5.77v-21.9l-2.87,2.37Zm-37.52-2.66l-1.33,10.37-.82-5.65c-.24-1.81-.46-3.38-.68-4.72h-7.47v22.2h5.04v-14.64s2.12,14.64,2.12,14.64h3.58l2.01-14.99v14.99h5.05v-22.2h-7.51Zm18.42,0l-2.28,2.66h-3.88l-2.43-2.66h-.63v22.2h10.01v-4.44h-4.24v-4.88h3.61v-4.22h-3.61v-4.21h3.85v-4.44h-.41Zm48.38-.22c.08.31.14.62.14.96,0,.95-.34,1.77-1.02,2.44-.46.45-.98.74-1.56.89v12.06c0,1.11-.05,1.81-.16,2.1-.11.3-.34.45-.71.45-.32,0-.53-.14-.64-.41-.11-.27-.16-.89-.16-1.86v-12.31c-.63-.14-1.19-.44-1.68-.92-.67-.68-1.01-1.49-1.01-2.44,0-.34.06-.66.15-.96h-3.23v13.14c0,2.51.05,4.15.14,4.93.09.78.39,1.52.89,2.23.5.7,1.26,1.28,2.28,1.71,1.01.44,2.18.66,3.51.66,1.2,0,2.24-.19,3.12-.56.88-.37,1.59-.91,2.13-1.63.54-.72.86-1.42.97-2.1.11-.68.16-1.86.16-3.54v-14.84h-3.34Zm-43.93.42c-.97.44-1.67,1.06-2.1,1.85-.43.78-.65,2.03-.65,3.73,0,1.18.15,2.15.46,2.9.31.76.69,1.35,1.16,1.78.47.43,1.42,1.12,2.85,2.07,1.43.94,2.34,1.61,2.7,2.01.36.4.53,1.26.53,2.56,0,.59-.09,1.04-.28,1.34-.19.3-.47.45-.86.45s-.65-.12-.8-.36c-.15-.24-.23-.77-.23-1.6v-2.7h-5.36v1.45c0,1.66.17,2.95.51,3.85.34.9,1.05,1.65,2.15,2.23,1.09.59,2.41.88,3.96.88,1.41,0,2.64-.25,3.7-.76,1.06-.51,1.78-1.14,2.15-1.89.37-.75.56-1.92.56-3.5,0-2.18-.33-3.75-1-4.73-.67-.98-2.29-2.23-4.86-3.76-.9-.53-1.44-.98-1.63-1.36-.2-.38-.3-.93-.3-1.67,0-.58.09-1.01.27-1.29.18-.28.44-.42.79-.42.32,0,.55.1.68.32.14.21.21.7.21,1.47v1.65h5.36v-.88c0-1.76-.17-3.01-.51-3.75-.34-.73-1.04-1.35-2.1-1.83-1.06-.48-2.33-.73-3.83-.73-1.37,0-2.54.22-3.51.67m22.43-.03c-.97.43-1.72,1.01-2.26,1.75-.54.74-.87,1.51-.98,2.31-.11.8-.16,2-.16,3.6v6.49c0,2.18.18,3.8.54,4.89.36,1.09,1.08,1.93,2.18,2.55,1.1.61,2.49.92,4.18.92s3-.36,4.11-1.08c1.11-.72,1.83-1.56,2.15-2.53.32-.96.49-2.59.49-4.89v-.86h-5.77v2.79c0,1.22-.07,1.99-.2,2.32-.13.33-.41.49-.84.49s-.74-.16-.86-.49c-.13-.33-.19-1.03-.19-2.11v-10.31c0-1.12.06-1.86.19-2.19.13-.34.43-.51.9-.51.42,0,.69.14.82.42.12.28.18.98.18,2.1v3.86h5.77v-2.11c0-2.07-.17-3.6-.52-4.58-.35-.98-1.07-1.8-2.18-2.46-1.11-.66-2.51-.99-4.21-.99-1.25,0-2.36.21-3.33.64m-8.14-1.8l-2.41,3.72h2.7l4.51-3.72h-4.79Zm-21.42-.15l-1.51,1.78h-.03l-1.61-1.78h-3.7l3.52,3.86h3.54l3.31-3.86h-3.52Zm46.94,3.37c-.22-.22-.34-.48-.34-.79s.11-.59.34-.81c.22-.22.49-.33.79-.33s.58.11.8.33c.23.22.34.49.34.81s-.11.57-.34.79c-.22.22-.49.33-.8.33s-.57-.11-.79-.33m-1.23-2.89c-.57.57-.85,1.25-.85,2.04s.28,1.48.84,2.04c.56.56,1.24.84,2.05.84s1.46-.28,2.03-.84c.57-.56.85-1.24.85-2.04s-.29-1.51-.86-2.06c-.58-.55-1.25-.83-2.02-.83s-1.48.28-2.04.85M12.88,12.55c.63,0,1.06.07,1.29.2.23.13.38.34.44.62.06.28.1.93.1,1.93v8.63c0,1.48-.1,2.39-.29,2.72-.19.33-.7.5-1.54.5v-14.6Zm-5.77-3.8v22.2h7.28c1.38,0,2.41-.07,3.1-.22.69-.15,1.26-.42,1.73-.8.47-.38.79-.9.98-1.58.19-.67.28-2,.28-4v-7.78c0-2.1-.06-3.51-.19-4.23-.13-.72-.45-1.37-.96-1.95-.51-.58-1.26-1.01-2.24-1.26-.98-.26-2.87-.38-5.66-.38h-4.32Zm14.95,0v22.2h10.01v-4.44h-4.24v-4.88h3.6v-4.22h-3.6v-4.21h3.85v-4.44h-9.62Zm19.36,0l-.4,4.13c-.33,3.32-.65,7.12-.95,11.39-.3-4.23-.81-9.41-1.52-15.52h-6.09l3.33,22.2h8.77l2.94-22.2h-6.09Zm6.99,0v22.2h10.01v-4.44h-4.24v-4.88h3.61v-4.22h-3.61v-4.21h3.85v-4.44h-9.63Zm10.58,0v4.44h3.42v17.76h5.77V13.19h3.43v-4.44h-12.61Zm-4.05-4.57l-1.53,1.8-1.62-1.8h-3.84l3.52,3.87h3.88l3.3-3.87h-3.71Z"/>
</svg>