<?xml version="1.0" encoding="UTF-8"?>
<svg id="Vrstva_1" data-name="Vrstva 1" xmlns="http://www.w3.org/2000/svg" viewBox="0 0 88.97 27.49">
  <defs>
    <style>
      .cls-1 {
        stroke-width: 0px;
      }
    </style>
  </defs>
  <polygon class="cls-1" points="12.46 6.75 11.8 6.75 11.14 6.75 11.14 0 12.17 0 13.21 0 14.43 5.35 14.43 5.35 15.63 0 16.65 0 17.68 0 17.68 6.75 17.01 6.75 16.35 6.75 16.35 1.07 16.35 1.07 15.1 6.75 14.41 6.75 13.71 6.75 12.46 .95 12.46 6.75"/>
  <polygon class="cls-1" points="20.52 4.91 18.69 4.91 18.69 3.83 20.52 3.83 20.52 2 21.6 2 21.6 3.83 23.42 3.83 23.42 4.91 21.6 4.91 21.6 6.73 20.52 6.73 20.52 4.91"/>
  <path class="cls-1" d="m26.94,0h1.41v4.85c0,.69-.18,1.2-.55,1.55-.37.35-.91.53-1.63.53-.76,0-1.32-.19-1.68-.58-.35-.38-.52-.98-.49-1.78v-.4h1.34v.4c-.01.41.05.71.18.91.13.2.35.29.64.29s.48-.07.6-.21c.12-.15.18-.38.18-.71V0Z"/>
  <path class="cls-1" d="m32.36,0h2.83c.77,0,1.35.18,1.75.54.4.36.6.88.6,1.57,0,.73-.2,1.29-.6,1.66-.4.38-.98.57-1.75.57-.55,0-1.01,0-1.41.01v2.4h-1.42V0Zm1.42,3.18h1.17c.39,0,.69-.09.89-.26.2-.18.3-.44.3-.8,0-.32-.1-.57-.3-.73-.2-.16-.49-.24-.89-.24h-1.17v2.03Z"/>
  <polygon class="cls-1" points="38.51 0 39.21 0 39.92 0 39.92 6.75 39.22 6.75 38.51 6.75 38.51 0"/>
  <polygon class="cls-1" points="41.24 6.75 41.24 0 41.94 0 42.66 0 42.66 5.55 46.01 5.55 46.01 6.15 46.01 6.75 41.24 6.75"/>
  <path class="cls-1" d="m48.82,0h1.63l2.39,6.75h-1.49l-.46-1.38h-2.55l-.45,1.38h-1.45L48.82,0Zm-.1,4.21h1.79l-.9-2.71h0l-.89,2.71Z"/>
  <path class="cls-1" d="m59.08,3.24c0-.19-.08-.35-.24-.47-.16-.12-.37-.18-.63-.18s-.45.04-.59.13c-.14.09-.21.21-.21.37,0,.11.08.21.24.29.16.08.44.16.85.25.81.18,1.34.38,1.61.59.27.21.41.55.41,1.01,0,.49-.2.88-.6,1.18-.4.3-.92.45-1.57.45-.77,0-1.36-.15-1.78-.44-.42-.29-.64-.72-.66-1.28h1.35c0,.23.11.41.3.54.19.13.46.2.79.2.26,0,.47-.04.61-.14.15-.09.22-.22.22-.38,0-.11-.07-.21-.22-.29-.14-.08-.4-.16-.76-.23-.84-.19-1.41-.39-1.7-.6-.28-.21-.42-.53-.42-.97,0-.49.18-.89.55-1.2.37-.3.85-.46,1.46-.46.68,0,1.23.15,1.64.45.41.3.62.7.62,1.18h-1.31Z"/>
  <rect class="cls-1" x="61.48" y="5.38" width="1.41" height="1.37"/>
  <path class="cls-1" d="m64.09,1.75h1.26v.9c.05-.1.1-.19.16-.29.31-.5.71-.74,1.19-.74h.3v1.35c-.12-.01-.25-.02-.39-.02-.4,0-.7.1-.9.3-.2.2-.29.5-.29.9v2.6h-1.32V1.75Z"/>
  <rect class="cls-1" x="67.74" y="5.38" width="1.41" height="1.37"/>
  <path class="cls-1" d="m70.76,6.17c-.46-.47-.69-1.1-.69-1.9s.23-1.46.69-1.94c.46-.48,1.08-.72,1.86-.72s1.41.24,1.87.72c.46.48.69,1.13.69,1.94s-.23,1.43-.69,1.9c-.46.47-1.08.7-1.87.7s-1.4-.23-1.86-.7m2.75-.79c.21-.26.31-.63.31-1.12s-.1-.88-.31-1.15c-.21-.26-.5-.39-.89-.39s-.69.13-.89.39c-.2.26-.31.64-.31,1.15s.1.87.31,1.12c.2.26.5.39.89.39s.69-.13.89-.39"/>
  <rect class="cls-1" x="76.09" y="5.38" width="1.41" height="1.37"/>
  <polygon class="cls-1" points="24.22 16.14 23.77 16.14 23.33 16.14 23.33 9.39 23.99 9.39 24.65 9.39 26.57 15.14 26.56 15.14 28.47 9.39 29.12 9.39 29.78 9.39 29.78 16.14 29.34 16.14 28.89 16.14 28.89 10.43 28.89 10.43 27 16.14 26.56 16.14 26.12 16.14 24.22 10.45 24.22 16.14"/>
  <polygon class="cls-1" points="31.31 9.39 31.76 9.39 32.21 9.39 32.21 16.14 31.76 16.14 31.31 16.14 31.31 9.39"/>
  <polygon class="cls-1" points="33.79 9.39 34.25 9.39 34.7 9.39 34.7 12.67 37.99 9.39 38.62 9.39 39.25 9.39 36.39 12.15 39.31 16.14 38.71 16.14 38.12 16.14 35.72 12.8 34.7 13.79 34.7 16.14 34.25 16.14 33.79 16.14 33.79 9.39"/>
  <path class="cls-1" d="m42.02,9.39h1.05l2.42,6.75h-.98l-.69-1.95h-2.7l-.71,1.95h-.94l2.54-6.75Zm-.6,3.98h2.13l-1.04-2.99-1.08,2.99Z"/>
  <path class="cls-1" d="m51.32,9.39h.91v4.85c0,.66-.17,1.18-.5,1.54-.34.36-.81.54-1.43.54s-1.12-.17-1.46-.51-.5-.8-.47-1.39v-.47h.86v.47c0,.36.09.64.27.83.17.2.43.29.76.29s.59-.12.78-.35c.19-.23.29-.55.29-.95v-4.86Z"/>
  <path class="cls-1" d="m55.6,9.39h1.04l2.42,6.75h-.98l-.68-1.95h-2.7l-.71,1.95h-.94l2.55-6.75Zm-.6,3.98h2.13l-1.04-2.99-1.08,2.99Z"/>
  <polygon class="cls-1" points="60.78 16.14 60.34 16.14 59.9 16.14 59.9 9.39 60.44 9.39 60.99 9.39 64.37 14.88 64.37 9.39 64.81 9.39 65.25 9.39 65.25 16.14 64.75 16.14 64.25 16.14 60.78 10.63 60.78 16.14"/>
  <path class="cls-1" d="m0,20.62h.79v.72l.18-.24c.36-.42.8-.63,1.34-.63s.95.15,1.25.44c.29.29.44.71.44,1.26v3.38h-.83v-3.1c0-.43-.08-.75-.25-.94-.16-.19-.43-.29-.8-.29-.4,0-.71.15-.94.46-.23.3-.34.71-.34,1.23v2.64h-.83v-4.92Z"/>
  <path class="cls-1" d="m6.51,25.68c-.48,0-.86-.13-1.14-.39-.28-.26-.42-.6-.42-1.04s.13-.79.39-1.05c.27-.26.65-.42,1.16-.49l1.12-.14c.09,0,.18-.03.26-.04.11-.03.19-.08.25-.17.06-.08.09-.19.09-.32v-.04c0-.27-.1-.48-.3-.63-.2-.15-.48-.23-.83-.23-.34,0-.6.08-.79.24-.19.16-.3.39-.34.7h-.77c.04-.54.23-.94.57-1.21.34-.27.82-.4,1.46-.4.6,0,1.05.13,1.36.39.31.26.47.64.47,1.13v2.71c0,.08.03.15.07.2.05.05.12.08.21.08.02,0,.06,0,.11-.01.05,0,.1-.02.15-.03v.6c-.08.03-.16.05-.25.07-.09.02-.17.03-.23.03-.31,0-.54-.08-.68-.25-.09-.11-.16-.27-.2-.48-.06.08-.13.15-.21.22-.41.37-.92.56-1.51.56m1.71-2.08v-.54c-.15.07-.32.12-.51.15l-.76.11c-.4.06-.69.15-.87.28-.18.13-.28.31-.28.53,0,.27.08.49.23.64.15.15.36.22.64.22.43,0,.8-.12,1.1-.35.21-.17.34-.35.41-.56.01-.04.02-.1.03-.19,0-.09.02-.19.02-.3m-1.51-3.62l.83-1.32h1.01l-1.21,1.32h-.64Z"/>
  <polygon class="cls-1" points="10.46 18.79 10.88 18.79 11.29 18.79 11.29 22.68 13.36 20.62 13.88 20.62 14.41 20.62 12.55 22.45 14.54 25.54 14 25.54 13.46 25.54 11.94 23.04 11.29 23.67 11.29 25.54 10.88 25.54 10.46 25.54 10.46 18.79"/>
  <path class="cls-1" d="m15.99,23.8c0,.41.08.71.24.9.16.18.41.27.77.27.39,0,.71-.15.94-.46.23-.31.35-.73.35-1.25v-2.63h.83v4.92h-.79v-.75c-.05.09-.12.17-.18.25-.35.42-.79.63-1.32.63-.55,0-.97-.14-1.25-.42-.28-.28-.42-.7-.42-1.26v-3.38h.83v3.18Z"/>
  <path class="cls-1" d="m20.31,20.62h.79v.7l.04-.06c.35-.53.82-.79,1.4-.79.64,0,1.15.22,1.52.67.37.44.56,1.04.56,1.8,0,.86-.19,1.53-.57,2.01-.38.49-.9.73-1.57.73-.55,0-.99-.21-1.32-.64l-.03-.04v2.47h-.83v-6.86Zm2.13,4.34c.43,0,.76-.16.98-.49.22-.33.33-.8.33-1.43s-.11-1.07-.32-1.37c-.21-.29-.54-.45-.99-.45s-.78.17-.99.51c-.21.33-.31.86-.31,1.59,0,.52.11.93.34,1.21.23.29.55.43.96.43"/>
  <path class="cls-1" d="m29.49,25.68c-.48,0-.86-.13-1.14-.39-.28-.25-.42-.6-.42-1.04s.13-.79.4-1.05c.26-.26.65-.42,1.16-.49l1.12-.14c.09,0,.18-.03.26-.04.11-.03.19-.08.25-.17.06-.08.09-.19.09-.32v-.04c0-.27-.1-.48-.3-.63-.2-.15-.48-.23-.83-.23-.34,0-.6.08-.79.24-.19.16-.3.39-.34.7h-.77c.04-.54.23-.94.57-1.21.34-.27.83-.4,1.46-.4.6,0,1.05.13,1.37.39.31.26.47.64.47,1.13v2.71c0,.08.02.15.08.2.05.05.12.08.2.08.02,0,.06,0,.11-.01.05,0,.1-.02.15-.03v.6c-.08.03-.17.05-.25.07-.09.02-.16.03-.22.03-.31,0-.54-.08-.68-.25-.09-.11-.16-.27-.2-.48-.06.08-.13.15-.21.22-.41.37-.92.55-1.51.55m1.71-2.08v-.54c-.15.07-.32.12-.51.15l-.76.11c-.4.06-.69.15-.87.28-.18.13-.27.31-.27.53,0,.27.08.49.23.64.15.15.36.22.64.22.44,0,.8-.12,1.1-.36.2-.17.34-.35.41-.56.01-.04.02-.1.03-.19,0-.09.01-.19.01-.3"/>
  <path class="cls-1" d="m35.98,20.62h.79v.7l.04-.06c.35-.53.82-.79,1.39-.79.64,0,1.15.22,1.52.67.37.44.56,1.04.56,1.8,0,.86-.19,1.53-.57,2.01-.38.49-.9.73-1.57.73-.55,0-.99-.21-1.32-.64l-.02-.04v2.47h-.83v-6.86Zm2.13,4.34c.43,0,.75-.16.98-.49.22-.33.33-.8.33-1.43s-.11-1.07-.32-1.37c-.21-.29-.54-.45-.99-.45s-.78.17-.99.51c-.21.33-.31.86-.31,1.59,0,.52.11.93.34,1.21.22.29.55.43.96.43"/>
  <path class="cls-1" d="m41.37,20.62h.79v.84c.07-.13.15-.25.22-.36.31-.42.7-.63,1.15-.63.08,0,.16.01.23.04v.84h-.17c-.45,0-.79.13-1.04.4-.24.27-.36.65-.36,1.15v2.64h-.83v-4.92Z"/>
  <path class="cls-1" d="m44.73,24.96c-.42-.48-.63-1.11-.63-1.89s.21-1.41.63-1.89c.42-.48.97-.72,1.65-.72s1.24.24,1.66.72c.42.48.63,1.11.63,1.89s-.21,1.41-.63,1.89c-.42.48-.97.72-1.66.72s-1.23-.24-1.65-.72m2.69-.5c.26-.34.39-.8.39-1.38s-.13-1.04-.39-1.38c-.26-.34-.6-.51-1.04-.51s-.78.17-1.04.51c-.26.35-.38.81-.38,1.38s.13,1.04.38,1.38c.26.34.6.52,1.04.52s.78-.17,1.04-.52"/>
  <path class="cls-1" d="m51.47,25.68c-.65,0-1.17-.25-1.56-.74-.39-.49-.58-1.16-.58-2,0-.74.19-1.34.56-1.79.38-.45.86-.68,1.47-.68s1.08.26,1.43.77l.06.09v-2.53h.83v6.75h-.77v-.66l-.11.15c-.34.43-.78.65-1.33.65m.05-4.47c-.46,0-.8.15-1.01.45-.21.3-.32.77-.32,1.42,0,.61.11,1.08.35,1.41.23.33.56.49.98.49.4,0,.72-.15.96-.46.24-.3.36-.7.36-1.2,0-.67-.11-1.19-.34-1.56-.23-.37-.56-.55-.99-.55"/>
  <path class="cls-1" d="m56.83,25.68c-.69,0-1.24-.22-1.64-.66-.4-.44-.6-1.06-.6-1.83,0-.83.21-1.49.63-1.98.42-.49.99-.74,1.7-.74.64,0,1.16.24,1.55.72.4.48.59,1.11.59,1.89v.29h-3.6c.03.49.14.87.33,1.13.23.31.6.47,1.1.47.31,0,.59-.09.83-.27.24-.18.38-.41.43-.68h.82c-.12.54-.37.95-.73,1.23-.37.28-.84.42-1.42.42m1.39-2.97c-.03-.46-.14-.82-.34-1.08-.23-.29-.55-.43-.99-.43s-.78.17-1.05.49c-.2.26-.33.59-.37,1.01h2.75Z"/>
  <path class="cls-1" d="m60.09,20.62h.83v5.58c0,.46-.1.78-.3.99-.19.2-.51.3-.96.3-.12,0-.24,0-.35-.02v-.72h.16c.24,0,.4-.04.49-.11.08-.07.13-.22.13-.43v-5.58Zm-.02-1.83h.85v.94h-.85v-.94Z"/>
  <path class="cls-1" d="m65.81,19.97l-.93-1.32h.75l.62.88h0l.62-.88h.75l-.93,1.32h-.87Zm-.84.64h.79v.84c.07-.13.15-.25.22-.36.31-.42.7-.63,1.15-.63.08,0,.16.01.23.04v.84h-.17c-.45,0-.79.13-1.03.4-.24.27-.36.65-.36,1.15v2.64h-.83v-4.92Z"/>
  <path class="cls-1" d="m69.88,25.68c-.7,0-1.24-.22-1.64-.66-.4-.44-.6-1.06-.6-1.83,0-.83.21-1.49.63-1.98.42-.49.99-.74,1.7-.74.64,0,1.16.24,1.55.72.4.48.59,1.11.59,1.89v.29h-3.6c.03.49.14.87.34,1.13.23.31.6.47,1.1.47.32,0,.59-.09.83-.27.23-.18.38-.41.43-.68h.82c-.12.54-.37.95-.73,1.23-.37.28-.84.42-1.42.42m1.39-2.97c-.03-.46-.14-.82-.34-1.08-.22-.29-.55-.43-.99-.43s-.79.17-1.05.49c-.21.26-.33.59-.37,1.01h2.75Z"/>
  <polygon class="cls-1" points="72.8 24.89 75.75 21.31 73.01 21.31 73.01 20.97 73.01 20.62 76.86 20.62 76.86 20.94 76.86 21.27 73.9 24.85 76.92 24.85 76.92 25.19 76.92 25.54 72.8 25.54 72.8 25.22 72.8 24.89"/>
  <path class="cls-1" d="m77.82,18.79h.85v.94h-.85v-.94Zm.02,1.83h.83v4.92h-.83v-4.92Z"/>
  <polygon class="cls-1" points="79.37 20.62 79.85 20.62 80.33 20.62 81.65 24.65 81.64 24.65 83.01 20.62 83.46 20.62 83.91 20.62 82.09 25.54 81.64 25.54 81.2 25.54 79.37 20.62"/>
  <path class="cls-1" d="m85.89,25.68c-.48,0-.86-.13-1.14-.39-.28-.25-.42-.6-.42-1.04s.13-.79.4-1.05c.27-.26.65-.42,1.16-.49l1.12-.14c.09,0,.18-.03.26-.04.11-.03.19-.08.25-.17.06-.08.09-.19.09-.32v-.04c0-.27-.1-.48-.3-.63-.2-.15-.47-.23-.83-.23s-.6.08-.79.24c-.19.16-.3.39-.34.7h-.77c.04-.54.23-.94.57-1.21.34-.27.82-.4,1.46-.4.6,0,1.05.13,1.36.39s.47.64.47,1.13v2.71c0,.08.03.15.08.2.05.05.12.08.2.08.03,0,.06,0,.11-.01.05,0,.1-.02.15-.03v.6c-.08.03-.17.05-.25.07-.09.02-.16.03-.22.03-.31,0-.54-.08-.68-.25-.09-.11-.16-.27-.2-.48-.06.08-.13.15-.21.22-.41.37-.92.55-1.51.55m1.71-2.08v-.54c-.15.07-.32.12-.51.15l-.76.11c-.4.06-.69.15-.87.28-.18.13-.27.31-.27.53,0,.27.07.49.22.64.15.15.36.22.64.22.43,0,.8-.12,1.1-.36.2-.17.34-.35.41-.56.01-.04.02-.1.03-.19,0-.09.01-.19.01-.3"/>
</svg>