<?xml version="1.0" encoding="UTF-8"?>
<svg id="Vrstva_1" data-name="Vrstva 1" xmlns="http://www.w3.org/2000/svg" viewBox="0 0 51.86 64.42">
  <defs>
    <style>
      .cls-1 {
        fill: #009640;
      }

      .cls-1, .cls-2, .cls-3, .cls-4, .cls-5 {
        stroke-width: 0px;
      }

      .cls-3 {
        fill: #005ba8;
      }

      .cls-4 {
        fill: #ffed00;
      }

      .cls-5 {
        fill: #fff;
      }
    </style>
  </defs>
  <path class="cls-3" d="m.51,10.43s.65,15.04,1.44,29.3c.8,14.26,10.73,24.2,23.97,24.2s23.3-10.67,23.97-24.2c.63-12.69,1.45-29.3,1.45-29.3H.51Z"/>
  <path class="cls-2" d="m25.93,64.42c-13.59,0-23.65-10.14-24.46-24.66C.68,25.65.03,10.6.02,10.45l-.02-.51h51.86l-.03.51s-.81,16.61-1.45,29.3c-.7,14.06-11.22,24.67-24.46,24.67ZM1.02,10.92c.12,2.75.72,16.15,1.42,28.78.78,13.98,10.44,23.74,23.49,23.74s22.81-10.21,23.48-23.74c.57-11.38,1.28-25.9,1.42-28.79H1.02Z"/>
  <path class="cls-5" d="m11.37,20.8c.25,5.31.58,11.93.94,18.35.49,8.75,5.83,14.41,13.62,14.41s13.2-6.03,13.61-14.35c0,0,.5-10.08.91-18.41H11.37Z"/>
  <path class="cls-2" d="m25.93,53.92c-7.99,0-13.48-5.79-13.98-14.75-.3-5.41-.62-11.58-.94-18.35l-.02-.38h29.85l-.93,18.79c-.42,8.52-6.3,14.7-13.98,14.7ZM11.75,21.17c.32,6.62.63,12.66.92,17.96.48,8.54,5.68,14.06,13.25,14.06s12.84-5.89,13.25-14l.89-18.03H11.75Z"/>
  <polygon class="cls-4" points="45.03 13.79 45.8 11.64 46.56 13.79 48.62 12.81 47.64 14.87 49.79 15.63 47.64 16.4 48.62 18.46 46.56 17.48 45.8 19.63 45.03 17.48 42.97 18.46 43.95 16.4 41.8 15.64 43.95 14.87 42.97 12.81 45.03 13.79"/>
  <polygon class="cls-4" points="44.34 31.59 45.1 29.44 45.87 31.59 47.93 30.61 46.95 32.68 49.1 33.44 46.95 34.2 47.93 36.27 45.87 35.29 45.1 37.44 44.34 35.29 42.28 36.27 43.26 34.21 41.11 33.44 43.26 32.68 42.28 30.62 44.34 31.59"/>
  <polygon class="cls-4" points="6.11 31.59 6.87 29.44 7.64 31.59 9.7 30.61 8.72 32.68 10.87 33.44 8.72 34.2 9.7 36.27 7.64 35.29 6.88 37.44 6.11 35.29 4.05 36.27 5.03 34.21 2.88 33.44 5.03 32.68 4.05 30.62 6.11 31.59"/>
  <polygon class="cls-4" points="39.82 49.32 40.59 47.17 41.35 49.32 43.42 48.34 42.44 50.4 44.59 51.16 42.44 51.93 43.42 53.99 41.35 53.01 40.59 55.16 39.83 53.01 37.76 53.99 38.74 51.93 36.59 51.17 38.74 50.4 37.76 48.34 39.82 49.32"/>
  <polygon class="cls-4" points="10.06 49.32 10.83 47.17 11.59 49.32 13.66 48.34 12.68 50.4 14.83 51.16 12.68 51.93 13.66 53.99 11.59 53.01 10.83 55.16 10.07 53.01 8 53.99 8.98 51.93 6.83 51.17 8.98 50.4 8 48.34 10.06 49.32"/>
  <polygon class="cls-4" points="25.2 13.79 25.97 11.64 26.73 13.79 28.79 12.81 27.81 14.87 29.96 15.63 27.81 16.4 28.79 18.46 26.73 17.48 25.97 19.63 25.2 17.48 23.14 18.46 24.12 16.4 21.97 15.64 24.12 14.87 23.14 12.81 25.2 13.79"/>
  <polygon class="cls-4" points="25.2 56.89 25.97 54.74 26.73 56.89 28.79 55.91 27.81 57.97 29.96 58.74 27.81 59.5 28.79 61.56 26.73 60.59 25.97 62.74 25.2 60.59 23.14 61.57 24.12 59.5 21.97 58.74 24.12 57.98 23.14 55.91 25.2 56.89"/>
  <polygon class="cls-4" points="5.44 13.79 6.2 11.64 6.97 13.79 9.03 12.81 8.05 14.87 10.2 15.63 8.05 16.4 9.03 18.46 6.97 17.48 6.2 19.63 5.44 17.48 3.38 18.46 4.36 16.4 2.21 15.64 4.36 14.87 3.38 12.81 5.44 13.79"/>
  <path class="cls-5" d="m26.03,50.45s-1.34.07-2,0c-.67-.07.21-.3.67-1.41.46-1.11,1.02-2.9.74-4.45-.28-1.55-.07-3.86-.07-3.86,0,0,.67.08,1.11.08h1.26s.15,1.85-.22,2.82c-.37.97-.82,3.04-.59,4.08.22,1.04.15,1.34.89,1.78.74.44.3,1.04-.52,1.04s-1.26-.07-1.26-.07"/>
  <path class="cls-2" d="m27.3,50.65c-.75,0-1.19-.06-1.27-.07-.15,0-1.37.07-2.01,0-.15-.02-.3-.04-.34-.16-.05-.13.05-.23.21-.4.2-.21.49-.52.7-1.02.4-.96,1.02-2.81.73-4.38-.28-1.55-.08-3.8-.07-3.89v-.12s.13.01.13.01c0,0,.67.07,1.1.07h1.37v.11c.02.08.15,1.89-.22,2.87-.39,1.01-.8,3.03-.59,4.01.04.17.07.33.09.46.13.67.17.89.74,1.24.48.29.45.61.42.73-.09.32-.49.54-1,.54Zm-1.25-.32h.01s.45.08,1.24.08c.44,0,.72-.18.77-.36.04-.15-.07-.31-.31-.46-.67-.4-.73-.71-.86-1.4-.03-.13-.05-.29-.09-.46-.24-1.1.26-3.26.6-4.15.31-.79.25-2.24.22-2.65h-1.15c-.33,0-.79-.04-1-.06-.04.5-.16,2.39.08,3.7.3,1.64-.34,3.54-.75,4.52-.23.54-.55.89-.75,1.09-.04.05-.09.1-.12.13.02,0,.06.01.1.02.65.07,1.97,0,1.98,0h.01Z"/>
  <path class="cls-1" d="m26.6,41.49c.09.09.2.27.35.57.17.33.18.82.6.82.56,0,.65-.83.77-1.19.25-.73.45-2.4,1.2-2.73,1.13-.5.43,1.5.49,2.01.06.5-.31.44.38,1s0,.56,1.19.75c1.11.18,2.72.5,2.98-1.06.12-.72-.03-1.33.3-2.02.76-1.6-.87-1.64-1.41-3-.39-.99.73-1.29.49-2.11-.3-1-1.57-.7-1.56-1.88,0-.39.08-1.07.29-1.4.12-.18.56-.32.59-.51.16-.81-1.44-1.5-1.68-2.18-.19-.55.36-.8.12-1.28-.36-.74-1.54-.36-2.07-.66-1.06-.59-.28-1.94-1.11-2.57-.56-.42-1.33-.44-1.94-.75-.56-.28-1.16-.97-1.84-.55-.82.5-1.19.06-1.82,1.51-.47,1.08-.4,2.14-1.51,2.79-1.12.66-2.71,2.22-1.56,3.55.38.44,1.13.38.63.88-.67.67-1.2.9-2.05,1.28-.58.27-1.44.67-1.12,1.45.31.75,1.75,1.12.56,1.95-1.11.77-2.37.56-2.65,2.26-.23,1.41.64,1.89,1.87,2,.54.05,1.54-.06,1.95.39.74.81-.71,1.56-.32,2.4.61,1.32,3.24,1.24,4.1.37.45-.46.9-2.46,1.46-2.55.83-.13.57,1.29,1.53.8.45-.23.57-.58.81-.34"/>
  <path class="cls-2" d="m26.03,43.17h0c-.39-.02-.77-.24-.78-.24-.06-.03-.08-.11-.05-.17.03-.06.11-.08.17-.05,0,0,.35.19.68.21.07,0,.12.06.11.13,0,.06-.06.11-.12.11Z"/>
  <path class="cls-2" d="m26.42,44.5s-.08,0-.12,0c-.07,0-.12-.06-.12-.13,0-.07.06-.12.12-.12h0c.65.03.99-.14,1-.15.06-.03.13,0,.16.06.03.06,0,.13-.05.16-.01,0-.36.17-.99.17Z"/>
  <path class="cls-2" d="m25.96,46.28h0c-.42-.03-.54-.42-.54-.43-.02-.06.02-.13.08-.15.06-.02.13.02.15.08h0s.07.24.33.25c.07,0,.12.06.11.13,0,.06-.06.11-.12.11Z"/>
  <path class="cls-2" d="m25.74,48.02c-.07,0-.12-.05-.12-.12s.05-.12.12-.12c.43,0,.96-.2.96-.2.07-.02.13,0,.16.07s0,.13-.07.16c-.02,0-.58.21-1.05.21Z"/>
  <path class="cls-5" d="m24.75,49.02s.5.11.89.09"/>
  <path class="cls-2" d="m25.53,49.24c-.38,0-.79-.09-.81-.1-.07-.01-.11-.08-.09-.15.01-.07.08-.11.15-.09,0,0,.48.11.86.09.06,0,.12.05.13.12s-.05.12-.12.13c-.04,0-.08,0-.11,0Z"/>
  <path class="cls-5" d="m24.54,34.96c.12-.36.61-2.32,0-2.32s-1.46.37-1.59,1.46c-.12,1.1,1.1-.12-.24,1.95-1.34,2.07-2.32,2.68-1.34,2.56.98-.12,2.32-1.22,2.93-1.34.61-.12,1.46.49,1.59,0,.12-.49-1.34-2.32-1.34-2.32"/>
  <path class="cls-5" d="m27.11,30.57s1.34-.49,1.34.24-.12,1.71-.12,1.71l-.12.73s-.73-.73,1.1.24c1.83.98,2.93,1.22,2.32,1.46-.61.24-1.95-.37-1.95.61s.24,2.19-1.1,1.1c-1.34-1.1-1.34-.73-1.59-2.07-.24-1.34-.81-1.98-.81-1.98l.94-2.04Z"/>
  <path class="cls-2" d="m.69,1.76c.49-.08,1.46-.15,2.4-.15,1.13,0,1.83.09,2.43.38.57.25.98.71.98,1.32s-.43,1.13-1.34,1.42v.02c.94.2,1.63.78,1.63,1.65,0,.62-.34,1.1-.85,1.42-.6.39-1.6.61-3.23.61-.91,0-1.6-.05-2.01-.1V1.76Zm1.84,2.56h.61c.99,0,1.5-.33,1.5-.82s-.47-.78-1.32-.78c-.41,0-.65.02-.79.05v1.55Zm0,2.98c.18.03.4.03.72.03.84,0,1.58-.27,1.58-.97s-.74-.95-1.67-.95h-.63v1.89Z"/>
  <path class="cls-2" d="m2.71,8.51c-1.03,0-1.71-.06-2.02-.1-.04,0-.06-.04-.06-.07V1.76s.03-.07.06-.07c.46-.08,1.43-.15,2.41-.15,1.21,0,1.87.1,2.46.39.65.28,1.02.79,1.02,1.39s-.43,1.13-1.19,1.42c.92.26,1.49.89,1.49,1.67,0,.6-.31,1.11-.89,1.48-.64.42-1.71.62-3.27.62Zm-1.94-.24c.33.04.98.09,1.94.09,1.53,0,2.58-.19,3.19-.59.38-.24.82-.67.82-1.36,0-.77-.6-1.38-1.58-1.58-.03,0-.06-.04-.06-.07v-.02s.02-.06.05-.07c.82-.26,1.29-.75,1.29-1.35,0-.54-.34-1-.93-1.26-.56-.27-1.21-.37-2.4-.37-.93,0-1.86.07-2.33.14v6.45Zm2.49-.88c-.31,0-.54,0-.73-.03-.04,0-.06-.04-.06-.07v-1.89s.03-.07.07-.07h.63c1.11,0,1.74.37,1.74,1.02s-.62,1.05-1.66,1.05Zm-.65-.17c.16.02.36.02.65.02.46,0,1.51-.09,1.51-.9s-1.12-.87-1.6-.87h-.56v1.75Zm.54-2.84h-.61s-.07-.03-.07-.07v-1.55s.02-.06.06-.07c.16-.04.42-.05.81-.05,1.21,0,1.39.53,1.39.85,0,.57-.57.9-1.57.9Zm-.54-.15h.54c.91,0,1.43-.27,1.43-.75,0-.58-.68-.7-1.24-.7-.33,0-.56.01-.72.04v1.42Z"/>
  <path class="cls-2" d="m8.06,1.76c.6-.09,1.48-.15,2.48-.15,1.22,0,2.07.15,2.66.54.5.32.77.79.77,1.4,0,.85-.74,1.43-1.45,1.64v.03c.57.19.89.63,1.1,1.24.26.77.5,1.64.66,1.9h-1.9c-.12-.2-.33-.74-.56-1.56-.23-.85-.58-1.07-1.35-1.07h-.55v2.64h-1.84V1.76Zm2.06-.47L8.89.07h1.31l.61.62h.02l.61-.62h1.29l-1.22,1.22h-1.39Zm-.22,3.34h.73c.93,0,1.48-.38,1.48-.96s-.51-.93-1.37-.93c-.45,0-.71.02-.84.05v1.84Z"/>
  <path class="cls-2" d="m14.27,8.44h-1.9s-.05-.01-.06-.04c-.14-.23-.36-.82-.57-1.58-.21-.77-.51-1.01-1.28-1.02h-.47v2.56s-.03.07-.07.07h-1.84s-.07-.03-.07-.07V1.76s.03-.07.06-.07c.63-.1,1.54-.15,2.49-.15,1.29,0,2.12.17,2.7.55.53.34.8.83.8,1.46,0,.81-.65,1.4-1.35,1.66.46.2.78.6.99,1.23.08.23.15.48.23.71.16.52.32,1,.42,1.18.01.02.01.05,0,.07-.01.02-.04.04-.06.04Zm-1.86-.15h1.74c-.11-.23-.24-.64-.38-1.1-.07-.23-.15-.47-.23-.71-.22-.66-.55-1.03-1.05-1.2-.03,0-.05-.04-.05-.07v-.03s.02-.06.05-.07c.7-.21,1.4-.77,1.4-1.57,0-.58-.25-1.03-.73-1.34-.55-.36-1.36-.53-2.62-.53-.91,0-1.78.05-2.4.14v6.47h1.7v-2.56s.03-.07.07-.07h.55c.84,0,1.2.29,1.42,1.13.23.82.42,1.31.53,1.51Zm-1.77-3.58h-.73s-.07-.03-.07-.07v-1.84s.02-.06.06-.07c.16-.03.44-.05.86-.05.92,0,1.44.36,1.44,1s-.59,1.04-1.55,1.04Zm-.66-.15h.66c.87,0,1.4-.34,1.4-.89,0-.74-.81-.85-1.29-.85-.35,0-.61.01-.77.04v1.71Zm1.54-3.2h-1.39s-.04,0-.05-.02l-1.23-1.22s-.03-.05-.02-.08c.01-.03.04-.05.07-.05h1.31s.04,0,.05.02l.57.58L11.39.02s.03-.02.05-.02h1.29s.06.02.07.04,0,.06-.02.08l-1.22,1.22s-.03.02-.05.02Zm-1.36-.15h1.33l1.07-1.08h-1.09l-.59.59s-.03.02-.05.02h-.02s-.04,0-.05-.02l-.59-.59h-1.1l1.09,1.08Z"/>
  <polygon class="cls-2" points="20.18 5.54 17.16 5.54 17.16 7.13 20.53 7.13 20.53 8.37 15.3 8.37 15.3 1.67 20.36 1.67 20.36 2.91 17.16 2.91 17.16 4.3 20.18 4.3 20.18 5.54"/>
  <path class="cls-2" d="m20.53,8.44h-5.23s-.07-.03-.07-.07V1.67s.03-.07.07-.07h5.06s.07.03.07.07v1.24s-.03.07-.07.07h-3.13v1.25h2.95s.07.03.07.07v1.23s-.03.07-.07.07h-2.95v1.45h3.3s.07.03.07.07v1.24s-.03.07-.07.07Zm-5.16-.15h5.08v-1.1h-3.3s-.07-.03-.07-.07v-1.59s.03-.07.07-.07h2.95v-1.09h-2.95s-.07-.03-.07-.07v-1.39s.03-.07.07-.07h3.13v-1.1h-4.91v6.56Z"/>
  <polygon class="cls-2" points="21.29 7.56 25.2 2.95 25.2 2.92 21.64 2.92 21.64 1.66 27.6 1.66 27.6 2.54 23.78 7.08 23.78 7.12 27.67 7.12 27.67 8.37 21.29 8.37 21.29 7.56"/>
  <path class="cls-2" d="m27.67,8.44h-6.38s-.07-.03-.07-.07v-.81s0-.03.02-.05l3.84-4.52h-3.43s-.07-.03-.07-.07v-1.25s.03-.07.07-.07h5.96s.07.03.07.07v.88s0,.03-.02.05l-3.76,4.46h3.77s.07.03.07.07v1.25s-.03.07-.07.07Zm-6.3-.15h6.23v-1.11h-3.82s-.07-.03-.07-.07v-.04s0-.03.02-.05l3.81-4.52v-.78h-5.82v1.11h3.49s.07.03.07.07v.03s0,.03-.02.05l-3.9,4.59v.71Zm2.41-1.22h0,0Z"/>
  <path class="cls-2" d="m32.06,8.48c-2.43,0-3.86-1.5-3.86-3.41,0-2.01,1.58-3.51,4-3.51s3.9,1.54,3.9,3.39c0,2.21-1.62,3.53-4.02,3.53h-.01Zm.1-1.2c1.26,0,1.98-.96,1.98-2.28,0-1.2-.7-2.24-1.98-2.24s-2,1.01-2,2.27.74,2.25,1.99,2.25h.01Z"/>
  <path class="cls-2" d="m32.07,8.55h-.01c-2.36,0-3.94-1.4-3.94-3.49s1.67-3.58,4.07-3.58c2.75,0,3.97,1.74,3.97,3.47,0,2.19-1.61,3.61-4.1,3.61Zm.12-6.92c-2.31,0-3.93,1.41-3.93,3.44s1.52,3.34,3.79,3.34h.01c2.44,0,3.95-1.33,3.95-3.46,0-1.65-1.18-3.32-3.83-3.32Zm-.04,5.72h-.01c-1.21,0-2.06-.96-2.06-2.32s.83-2.34,2.07-2.34,2.05.95,2.05,2.31c0,1.43-.8,2.35-2.05,2.35Zm0-4.52c-1.33,0-1.93,1.1-1.93,2.2,0,1.3.77,2.17,1.91,2.17h.01c1.16,0,1.9-.87,1.9-2.21,0-1.08-.59-2.17-1.9-2.17Z"/>
  <path class="cls-2" d="m39.16,8.37l-2.63-6.71h2.04l1,2.84c.28.81.54,1.56.73,2.4h.04c.21-.81.46-1.6.74-2.37l1.05-2.86h1.97l-2.77,6.71h-2.17Z"/>
  <path class="cls-2" d="m41.34,8.44h-2.17s-.06-.02-.07-.05l-2.63-6.71s0-.05,0-.07c.01-.02.04-.03.06-.03h2.04s.06.02.07.05l1,2.84c.25.72.49,1.42.68,2.19.18-.69.42-1.41.69-2.17l1.05-2.87s.04-.05.07-.05h1.97s.05.01.06.03c.01.02.02.05,0,.07l-2.77,6.71s-.04.04-.07.04Zm-2.12-.15h2.07l2.71-6.56h-1.81l-1.03,2.82c-.3.83-.55,1.62-.74,2.36,0,.03-.04.05-.07.05h-.04s-.06-.02-.07-.06c-.2-.84-.46-1.61-.73-2.39l-.98-2.79h-1.88l2.58,6.56Z"/>
  <path class="cls-2" d="m46.22,6.65l-.57,1.72h-1.93l2.51-6.71h2.43l2.56,6.71h-2l-.63-1.72h-2.37Zm2.08-1.13l-.51-1.42c-.14-.4-.28-.9-.4-1.29h-.04c-.11.4-.24.91-.36,1.29l-.5,1.42h1.82ZM49.58.08l-1.49,1.22h-1.49l1.03-1.22h1.95Z"/>
  <path class="cls-2" d="m51.22,8.44h-2s-.06-.02-.07-.05l-.62-1.67h-2.26l-.56,1.67s-.04.05-.07.05h-1.93s-.05-.01-.06-.03c-.01-.02-.02-.04,0-.07l2.51-6.71s.04-.05.07-.05h2.43s.06.02.07.05l2.56,6.71s0,.05,0,.07c-.01.02-.04.03-.06.03Zm-1.95-.15h1.84l-2.5-6.56h-2.33l-2.46,6.56h1.77l.56-1.67s.04-.05.07-.05h2.37s.06.02.07.05l.62,1.67Zm-.97-2.71h-1.82s-.05-.01-.06-.03-.02-.04,0-.07l.5-1.42c.1-.33.21-.74.31-1.11l.05-.18s.04-.05.07-.05h.04s.06.02.07.05c.04.14.09.29.14.44.09.29.18.59.27.85l.51,1.42s0,.05,0,.07-.04.03-.06.03Zm-1.71-.15h1.61l-.48-1.33c-.09-.26-.18-.56-.27-.85-.03-.09-.05-.18-.08-.27h0c-.1.37-.21.79-.32,1.12l-.47,1.33Zm1.49-4.06h-1.49s-.05-.02-.07-.04c-.01-.03,0-.06.01-.08l1.03-1.22s.03-.03.06-.03h1.95s.06.02.07.05c.01.03,0,.06-.02.08l-1.49,1.22s-.03.02-.05.02Zm-1.33-.15h1.31l1.31-1.08h-1.71l-.9,1.08Z"/>
</svg>