<?xml version="1.0" encoding="UTF-8"?>
<svg id="Vrstva_1" data-name="Vrstva 1" xmlns="http://www.w3.org/2000/svg" viewBox="0 0 73.61 83.44">
  <defs>
    <style>
      .cls-1 {
        fill: #010101;
      }

      .cls-1, .cls-2 {
        stroke-width: 0px;
      }

      .cls-2 {
        fill: none;
      }
    </style>
  </defs>
  <path class="cls-1" d="m.09,49.76c0,.26.02.37.03.23.02-.13.02-.34,0-.47-.02-.13-.03-.02-.03.24"/>
  <path class="cls-1" d="m0,48.51c0,.19.02.26.03.15.02-.1.02-.26,0-.35-.02-.08-.04,0-.03.2"/>
  <g>
    <path class="cls-2" d="m40.4,38.78l.76.07.76.06.17-.24c.08-.14.48-.56.87-.94.39-.38,1.02-1.04,1.39-1.46.37-.42,1.12-1.15,1.66-1.63l.98-.85-.27-.28c-.15-.15-.67-.52-1.16-.81-.92-.55-2.16-1.43-2.37-1.68-.13-.15-.37-.18-.67-.06-.33.13-.71.85-.7,1.29,0,.33-.11.63-.77,1.94l-.78,1.55-.11,1.12c-.1,1.06-.1,1.15.07,1.52l.17.4Z"/>
    <path class="cls-2" d="m34.6,20.49c.13-.22.22-.4.19-.4s-.19.16-.37.36c-.19.21-.67.78-1.06,1.28-.4.5-.99,1.21-1.32,1.57-.46.52-.59.71-.54.85.08.25.26.32,1.07.39.4.03.81.09.92.13.1.04.52.12.91.17.39.05.79.11.87.14.14.04.15-.08.15-1.85v-1.9l-.28.08c-.67.2-.92-.17-.54-.81Z"/>
    <path class="cls-1" d="m73.53,43.41c-.72-9.08-4.59-17.43-11.06-23.85-6.23-6.17-14.67-10.07-23.27-10.75-.59-.05-1.49-.11-1.99-.15l-.92-.05-.05-1.69c-.13-3.85-.28-7.04-.33-6.92-.12.29-.41,10.79-.41,14.81v3.04l-.45.48c-.25.26-1.43,1.17-2.63,2.03-1.19.85-2.43,1.77-2.74,2.03-1.03.84-1.8,2.14-1.65,2.75.11.44.63.83,1.6,1.18,1.35.49,2.54.81,3.63.97.54.08,1.08.17,1.17.21.22.09.59.84.72,1.44.09.39.07.47-.18,1.02-.15.34-.3.85-.35,1.16-.07.54-.44,1.91-.95,3.49l-.24.78-1.49,1.48-1.49,1.48-2.42-.12c-1.34-.07-3.18-.14-4.1-.15l-1.67-.03-.02.32c-.02.24,0,.33.13.36.09.02,1.67.1,3.52.18,1.85.08,3.46.16,3.57.18.18.04.19.06.07.19-.07.08-.25.39-.4.68l-.27.54-1.45.02c-.79.02-1.39.03-2.6.03s-1.47.06-1.64.39c-.09.16-.19.17-2.76.17-1.48,0-2.67-.02-2.67.08s.19.36,1.29,1.19c1.1.83,2.63,1.45,4.6,1.88,1.04.23,1.11.25,1.54.64.56.51.76,1.37.46,2.01-.17.36-.49.54-1.12.63-.28.04-.51.15-.69.3l-.27.24-.04,2.23-.04,2.23-.32.54c-.42.72-.62,1-1.08,1.54-.46.54-1.11.89-2.74,1.44-.99.34-1.13.41-1.23.64-.26.54-.3.53,2.61.53h2.64l.08-.19c.07-.18.08-.17.09.08v.29h10.95v-9.3l-.19-.23c-.15-.16-.33-.24-.75-.31-.3-.04-.67-.15-.82-.23l-.27-.15.25-.02c.14-.02,1,.03,1.91.11,2.17.18,4.33.21,4.92.05l.44-.12.41.33c.22.18.4.37.4.42s.2.69.43,1.42c.45,1.35,1.01,2.56,1.72,3.71l.4.66v1.51c0,1.13.04,1.57.12,1.74l.12.24h2.07l-.04-.67c-.03-.57-.09-.78-.36-1.32-.18-.35-.47-.86-.66-1.15l-.34-.5v-1.41c0-1.85-.12-2.34-1.03-4.1-.38-.74-.66-1.37-.64-1.4.03-.03.15-.05.26-.05s.2-.03.2-.07c-.03-.83-1.07-4.3-1.78-5.92-.21-.48-.38-.89-.38-.92s.09-.07.3-.07.28.03.25.11c-.04.13.68.58,1.11.58s.85-.18.93-.41l.09-.22.84.05c.46.03,1.5.09,2.32.11l1.48.06.06-.24c.13-.53.1-.53-3.09-.69-1.09-.05-1.18-.07-1.1-.21.19-.36.95-1.1,1.47-1.43.63-.4,2.08-1.69,2.94-2.6.69-.73.89-1.25.65-1.7-.52-.96-2.46-2.73-4.41-4.02-.38-.25-.92-.7-1.21-.98-.59-.6-1.47-1.24-2.03-1.49-.69-.3-.7-.38-.1-.99.29-.3.6-.71.71-.92.15-.27.22-.34.27-.26.05.08.08.06.08-.09,0-.1.03-.19.09-.19s.09-.07.09-.16.03-.19.08-.22c.04-.03.05-.11.03-.19-.03-.1-.03-.12.04-.08s.1,0,.1-.15.04-.21.14-.16c.11.04.12.02.05-.11-.05-.09-.15-.35-.23-.57-.2-.56-.42-.82-.94-1.07-.34-.17-.56-.22-.98-.2h-.54l-.59.57c-.35.33-.57.6-.51.63.05.04,0,.23-.15.57-.18.39-.24.66-.25,1.16-.02.39-.09.84-.19,1.12-.21.55-.17.54-1.38.24l-.8-.2v-2.98c0-3.25-.02-3.15.49-3.3.1-.04.33-.25.5-.48.31-.42.34-.64.12-.91-.05-.07.72-1.76.91-2.01,0,0,.16.04.33.11l.31.13.45-.42.46-.42-.45-.35c-.83-.66-1.77-.96-2.57-.83l-.41.07.58.67c.31.37.57.57.57.71s-1.18,1.94-1.27,1.94-.11-.54-.11-2.6v-2.6l1.62.05c9.67.32,18.99,4.91,25.24,12.43,4.57,5.5,7.18,11.75,7.99,19.1.18,1.65.13,5.61-.09,7.38-.4,3.26-1.13,6.14-2.29,9.09-.41,1.02-1.62,3.49-2.21,4.5l-.45.76h-2.41c-2.26,0-2.42,0-2.38-.16.02-.08.17-.57.32-1.08.16-.52.26-.96.23-.98-.1-.1-.21.07-.32.46-.06.23-.23.72-.37,1.1l-.27.68-1.28-.04c-.91-.03-1.28-.02-1.25.05.04.12.88.21,1.72.17.39-.02.67-.12.67.05s-.93,1.98-1.33,2.57c-.43.64-.74.91-.98.86-.13-.03-.19-.15-.34-.66-.02-.09-.15-.02-.4.23-.41.4-.72.49-.61.16.17-.53.61-.87.86-.66.15.12.25.05.18-.14-.1-.23-.57-.16-.92.16-.25.22-.32.35-.34.65-.04.5.14.55.64.2l.38-.28.09.22c.12.32.4.44.63.28.6-.42,1.07-1.08,1.88-2.67.21-.4.39-.72.41-.71.02.02-.03.3-.11.62-.35,1.53-.69,5.34-.5,5.75.09.2.05.26-.61.85-5.71,5.1-12.07,8.01-19.76,9.01-1.73.23-6.65.23-8.32,0-3.51-.47-6-1.1-8.97-2.28-1.47-.58-3.37-1.49-4.66-2.23-6.17-3.54-11.3-9.02-14.39-15.35-1.84-3.75-2.85-7.14-3.45-11.43-.05-.4-.08-.47-.09-.24,0,.43.21,2.03.47,3.39,1.7,8.78,6.71,16.75,13.88,22.12,2.07,1.54-4.58-1.61,5.7,3.53,10.28,5.14,22.56,5.13,32.84,0,6.09-3.04,11.22-7.68,14.88-13.47,3.13-4.95,5.01-10.54,5.56-16.56.15-1.6.16-4.54.04-6.13Zm-38.11-20.29c0,1.77,0,1.9-.15,1.85-.09-.02-.48-.08-.87-.14-.4-.05-.81-.13-.91-.17-.11-.04-.53-.1-.92-.13-.81-.07-.99-.14-1.07-.39-.04-.14.09-.33.54-.85.33-.36.92-1.07,1.32-1.57.4-.5.87-1.07,1.06-1.28.18-.2.34-.36.37-.36s-.06.18-.19.4c-.38.64-.13,1.01.54.81l.28-.08v1.9Zm4.74,13.75l.11-1.12.78-1.55c.65-1.31.77-1.61.77-1.94-.02-.45.37-1.17.7-1.29.3-.12.54-.09.67.06.22.25,1.45,1.13,2.37,1.68.49.29,1.01.66,1.16.81l.27.28-.98.85c-.54.48-1.29,1.21-1.66,1.63-.37.42-1,1.08-1.39,1.46-.39.38-.79.8-.87.94l-.17.24-.76-.06-.76-.07-.17-.4c-.17-.37-.17-.46-.07-1.52Zm23.04,32.64c-1.08,1.29-2.38,2.63-2.5,2.55-.25-.16-.08-3.09.29-5.01.31-1.64.19-1.5,1.39-1.53,2.27-.06,3.65-.26,3.65-.02s-1.66,2.58-2.83,4Z"/>
    <path class="cls-1" d="m30.17,67.78c.2,0,.22-.13.03-.21-.3-.11-.53.04-.64.46-.15.53-1.03,1.05-1.52.87-.21-.08-.33-.27-.41-.7-.04-.2-.09-.22-.49-.24-.59-.02-1.11.3-1.04.64.06.32.32.34.81.09.23-.12.45-.22.47-.22s.09.12.16.26c.21.4.46.48.98.3.25-.08.56-.24.7-.36l.26-.22.52.47c.28.25.52.49.52.54s-.14.16-.31.26c-.17.09-.48.35-.69.59-.33.36-.38.48-.38.79s.04.4.24.52l.23.15-.19-.22c-.34-.36-.27-.74.22-1.22.34-.35.92-.74,1.1-.74.02,0,.13.18.22.4.28.62.09,1.28-.46,1.55-.15.08-.24.16-.22.17.08.08.55-.22.74-.45.34-.43.34-.84-.03-1.69-.05-.1,0-.18.18-.28.29-.15.22-.18-.09-.04-.2.09-.27.07-.68-.25-.54-.4-.72-.76-.53-1.04.08-.1.1-.18.3-.18Zm-3.38.77c-.25.15-.33.22-.45.1-.12-.12.14-.41.41-.47.47-.09.5.11.04.36Z"/>
    <path class="cls-1" d="m29.88,71.81c.06.02.14.02.17,0,.03-.03-.02-.05-.11-.04-.09,0-.12.03-.05.05Z"/>
    <path class="cls-1" d="m8.23,62.68c.3.03.41-.02.64-.23.15-.15.27-.27.28-.27s.53-.12,1.17-.26c1.12-.26,3.44-.64,3.5-.58.02.02-.1.57-.27,1.22-.9,3.58-1.42,7.12-1.42,9.68,0,1.55.16,1.14.21-.54.04-1.7.28-3.57.7-5.61.5-2.46,1.04-4.58,1.2-4.75.18-.21,4.64-.54,7.08-.54.97,0,1.6-.03,1.64-.09.03-.06-.72-.08-2.22-.07-2.58.02-2.66.02-4.77.21-1.46.12-1.55.12-1.66-.02-.1-.15-.12-.14-.3.03-.14.12-.37.2-.76.23-1.66.18-4.24.74-5.03,1.1-.52.24-.52.45,0,.48Z"/>
    <path class="cls-1" d="m23.53,68.45c.42-.09.75-.44.63-.65-.22-.34-.44-.22-1.22.56-.78.79-1.16,1.32-1.95,1.32s-.7-1.7.26-5.24c.2-.74.35-1.1.22-1.23-.13-.13-.23.05-.58,1.09-.18.52-.54,1.43-.81,2.03l-.49,1.08-.47.04c-.59.06-.75.15-1.16.64-.58.72-1.48,1.07-1.84.72-.08-.08-.17-.29-.19-.47l-.05-.33h-.55c-.49,0-.56.03-.75.25-.24.27-.24.46-.02.6.11.07.24.04.56-.12.23-.12.44-.22.48-.24.03-.02.12.09.2.24.2.38.49.47.99.3.22-.08.53-.23.7-.35l.29-.22.07.27c.04.17.14.28.29.31.49.12,1.08-.6,2.02-2.51.38-.76.69-1.33.69-1.28s-.08.42-.17.82c-.32,1.33-.46,2.59-.35,3.1.05.25.14.51.2.57.23.29.91.04,1.81-.65.32-.25.59-.45.61-.45s.06.12.09.26c.1.48.91.56,1.85.16.64-.27.52-.28-.21-.03-.74.26-1.07.3-1.34.03-.27-.27-.18-.53.19-.62Zm.25-.59c.21-.07.22.12,0,.29-.2.16-.43.18-.43.09s.26-.33.43-.38Zm-8.73.74c-.25.14-.3.2-.42.08s.03-.35.31-.47c.49-.2.58.11.11.39Zm3.42.14c-.49.27-.48-.34.02-.8.13-.11.29-.23.36-.26.24-.09.43-.12.43.05s-.57.88-.82,1.01Z"/>
    <path class="cls-1" d="m31.74,68.9c-.1.04-.22.12-.25.17-.05.09.43-.11.55-.23.06-.06-.11-.02-.3.05Z"/>
    <path class="cls-1" d="m41.57,67.75c0-.2-.16-.28-.23-.1-.03.07-.12.6-.21,1.16-.11.82-.13,1.06-.04,1.15.09.09.13.04.22-.19.05-.17.2-.49.45-.99s.42-.72.6-.82c.23-.1.23-.13.09-.15-.15-.04-.62.39-.88.81-.08.14-.09.09-.05-.27.03-.24.06-.51.06-.6Z"/>
    <path class="cls-1" d="m51.78,68.53c.08-.03,0-.04-.16-.04s-.23.02-.15.04c.08.02.22.02.3,0Z"/>
    <path class="cls-1" d="m54.22,62.55c0-.22-.18-.27-.34-.08-.06.07-.12.34-.14.59-.02.25-.07.57-.13.71-.1.28-.6,2.36-.82,3.49-.18.9-.23,1.01-.59,1.11-.15.04-.21.09-.12.09.1,0,.15.11.15.26s.04.28.09.32c.1.05.08.52-.07,1.56-.03.22-.02.37.03.37s.11-.24.15-.54c.03-.29.09-.68.11-.86l.05-.32h.66c.59,0,2.65-.32,2.57-.41-.03-.02-.54.05-1.16.16-.88.15-1.21.17-1.54.11-.4-.09-.42-.1-.41-.35,0-.15.04-.34.07-.44.05-.21,1.07-.94,1.56-1.11.18-.06.35-.17.36-.25.05-.27-.34-.11-1.21.47-.56.38-.59.4-.59.18s.91-3.77,1.11-4.36c.1-.29.18-.6.18-.72Zm-1.75,6.29c-.03.07-.05.04-.05-.05,0-.09.02-.15.04-.11.03.03.03.1,0,.17Z"/>
    <path class="cls-1" d="m43.65,67.87c-.31,0-.4.72-.12,1.07.24.31.5.28.99-.09.29-.22.42-.28.45-.21.03.07.07.15.25.33.18.18.27.21.59.16.46-.07,1.34-.36,1.46-.5.07-.08.04-.08-.09,0-.34.17-1.34.36-1.6.31-.18-.04-.29-.15-.38-.34-.06-.16-.15-.31-.2-.34-.04-.03-.26.1-.48.29-.22.19-.28.35-.51.35s-.34-.24-.28-.65c.05-.32.23-.39-.08-.39Z"/>
    <path class="cls-1" d="m33,68.39c-.12,0-.62.24-.51.25.04,0,.19-.06.35-.13.16-.07.28-.12.16-.12Z"/>
    <path class="cls-1" d="m48.52,67.48c0-.09-.16-.04-.24.06-.04.06-.15.24-.23.4-.08.16-.27.36-.42.46-.19.12-.21.16-.08.12.17-.04.19-.02.21.32.04.59.25.54,1.15-.22.44-.37.85-.66.95-.66s.29.12.43.26c.27.28.8.48.94.34.06-.06.02-.08-.16-.08s-.35-.11-.63-.39c-.21-.22-.45-.39-.54-.39s-.46.27-.79.59c-.72.67-.98.85-1.12.72-.14-.14,0-.63.27-1.09.15-.22.26-.42.26-.44Z"/>
    <path class="cls-1" d="m44.64,60.68c-1.07.08-2.77.22-3.21.26-.43.04-.5.09-.5-.1s-.19-.17-.32.03c-.08.12-.25.17-.72.22-1.48.15-4.31.76-5.07,1.09-.5.22-.47.46.04.49.3.03.41-.02.63-.23.22-.21.46-.3,1.22-.48.75-.17,3.41-.65,3.64-.65.1,0,.05.4-.11.99-.24.87-.65,2.74-.91,4.14-.37,2.07-.76,6.15-.61,6.59.13.42.22,1.62.22-.79s.47-5.54,1.35-8.94c.16-.64.35-1.32.39-1.51.05-.19.14-.4.19-.45.18-.21,4.64-.54,7.08-.54.97,0,1.6-.04,1.64-.09.05-.08-3.92-.1-4.96-.03Z"/>
    <path class="cls-1" d="m52.41,68.78c0,.09.03.12.05.05.02-.06.02-.14,0-.17-.03-.03-.05.02-.04.11Z"/>
  </g>
</svg>