<?xml version="1.0" encoding="UTF-8"?>
<svg id="Vrstva_1" data-name="Vrstva 1" xmlns="http://www.w3.org/2000/svg" viewBox="0 0 73.97 64.84">
  <defs>
    <style>
      .cls-1 {
        fill: #fefefe;
      }

      .cls-1, .cls-2, .cls-3, .cls-4 {
        stroke-width: 0px;
      }

      .cls-2 {
        fill: #1d3039;
      }

      .cls-3 {
        fill: #f29f17;
      }

      .cls-4 {
        fill: none;
      }
    </style>
  </defs>
  <g>
    <path class="cls-2" d="m45.85,38.78c-.74,0-1.48-.06-2.21.01-1.27.12-2.31.78-3.3,1.52-.44.33-.87.68-1.32,1-1.59,1.13-2.96,1.24-4.71.05-.74-.5-1.47-1.02-2.15-1.59-.95-.78-2.05-1.01-3.23-1.03-.95-.01-1.9.02-2.85,0-.41,0-.82-.05-1.24-.16-1.23-.32-1.89-1.15-2.28-2.27-.27-.76-.57-1.52-.75-2.31-.33-1.41-1.17-2.41-2.32-3.23-.68-.49-1.44-.85-2.1-1.36-.45-.34-.82-.74-1.13-1.2-.54-.81-.47-1.71-.24-2.58.24-.93.56-1.85.89-2.76.44-1.22.4-2.41-.02-3.62-.26-.74-.51-1.48-.75-2.23-.09-.27-.16-.55-.21-.83-.24-1.41.24-2.5,1.4-3.35.78-.57,1.64-1.01,2.41-1.59.91-.69,1.61-1.49,1.93-2.6.18-.63.38-1.25.59-1.87.16-.47.32-.94.52-1.39.52-1.25,1.53-1.79,2.82-1.91.62-.06,1.24-.12,1.88-.04.94.11,1.89.03,2.83-.11.63-.1,1.18-.41,1.7-.79.78-.58,1.56-1.16,2.35-1.72.38-.27.8-.48,1.25-.63,1.21-.42,2.27-.07,3.27.61.48.32.93.68,1.39,1.04.62.5,1.31.86,2.01,1.22.57.29,1.2.39,1.83.4.73.02,1.47.01,2.21-.05.67-.05,1.38,0,2.04.13.93.18,1.58.79,2.02,1.62.38.72.58,1.51.82,2.28.3.97.53,1.98,1.21,2.79.19.22.4.38.63.55,1.08.8,2.24,1.48,3.25,2.36,1.01.88,1.3,1.98,1.01,3.28-.22.95-.58,1.85-.9,2.76-.47,1.32-.44,2.6,0,3.91.3.89.67,1.76.89,2.68.34,1.39-.02,2.56-1.14,3.44-.97.76-1.97,1.5-3.01,2.15-.62.39-1,.91-1.29,1.52-.29.61-.47,1.27-.66,1.93-.21.73-.43,1.45-.76,2.14-.56,1.16-1.49,1.73-2.74,1.8-.6.03-1.21,0-1.82,0,0,.01,0,.02,0,.04Zm-9.1-18.06c1.35-1.37,2.55-2.86,3.65-4.45.18.08.34.17.51.24,1.22.52,2.47.87,3.81.75.78-.07,1.44-.39,2.11-.87-.63-1.06-1.37-1.96-2.23-2.78-2.01-1.92-4.47-2.84-7.18-3.17,0-.33,0-.59,0-.85.01-.74.04-1.47.03-2.21,0-.4-.25-.66-.59-.73-.39-.07-.71.11-.87.51-.08.2-.08.39-.06.61.09.88.1,1.77.06,2.65-4.2.44-7.48,2.19-9.4,6.06.5.51,1.09.67,1.68.75,1.69.22,3.27-.12,4.74-1.09,1.06,1.72,2.26,3.25,3.74,4.59Zm-.05,13.28c1.16-1.16,3-4.05,3.26-5.09-.33-.44-.66-.88-1-1.31-.33-.42-.41-.99-.82-1.42-.49.49-.88,1.02-1.46,1.42-.57-.44-.96-1.11-1.72-1.35-.37,1.01-.99,1.87-1.73,2.71.86,1.9,2.03,3.56,3.46,5.04Zm3.63-12.32c-.47-.74-.9-1.43-1.4-2.21-.73.92-1.5,1.65-2.3,2.42-.43-.44-.7-.92-1.19-1.21-.46-.27-.72-.81-1.23-1.12-.34.79-.85,1.43-1.25,2.13.8,1.99,2.29,3.41,3.77,4.86,1.37-1.49,2.7-2.97,3.6-4.87Zm-12.76,1.56c1.03.05,1.9-.17,2.7-.53,1.6-.71,2.55-2.04,3.27-3.57.11-.24.12-.45-.02-.67-.28-.43-.54-.88-.94-1.24-.64.37-1.31.58-1.99.74-.7.15-1.41.03-2.17.11-.89,1.6-1.15,3.3-.85,5.16Zm18.04,0c.5-1.87.07-3.54-.8-5.21-1.48.16-2.88-.23-4.25-.8-.25.36-.48.7-.72,1.04-.24.33-.2.64-.05,1.02.56,1.37,1.55,2.34,2.77,3.1.9.56,1.88.89,3.05.85Zm-6.76,2.15c.64,2.17,2.26,3.79,3.38,3.68,1.16-1.48,1.77-3.8,1.37-5.3-.94-.34-1.78-.93-2.7-1.45-.57,1.14-1.34,2.09-2.06,3.08Zm-9.26-1.58c-.22,1.3.06,2.45.59,3.55.3.62.49,1.32,1.13,1.81,1.73-.69,2.57-2.09,3.12-3.79-.78-.97-1.52-1.97-2.1-3.1-.84.7-1.69,1.23-2.74,1.53Zm-6.12-1.22c.62-.06,1.12-.32,1.36-.95.33-.85.31-1.75.23-2.63-.05-.51-.39-.7-.97-.67-.58.03-.85.24-.89.77-.03.41-.05.83.07,1.2.34.41.75.37,1.17.29.09.39-.06.69-.23.99-.29.17-.57.35-.84.51-.02.19-.05.35.1.5Zm27.74-.45c.03.06.04.08.06.1.3.32.66.44,1.07.28.41-.15.21-1.02.21-1.4,0-.15-.15-.11-.02-.23.26-.22.18.1.1-.15-.15-.49-.2-.85-.66-.88.02-.33-.06-.61.04-.87.36-.1.72.03,1.03-.17,0-.13,0-.26,0-.38,0-.02-.04-.03-.07-.07h-1.55v2.09c.26.1.52-.06.76.18.05.42.13.87-.08,1.25-.26.16-.38-.13-.57-.06-.12.06-.22.14-.31.3Zm-2.24-1.18c-.07.55-.35,1.02-.29,1.52.18.14.32.16.51.06.14-.52.28-1.07.41-1.58.14-.18.43-.03.46-.35.09-.24-.25-.18-.31-.32-.01-.66.39-1.25.28-1.95-.52.06-.99.24-1.48.05-.14-.05-.34.09-.48.26.06.13.12.27.21.46.37-.26.69-.1,1.04.08-.01.42-.14.81-.24,1.17-.2.11-.42-.02-.56.18v.21c.09.18.31.06.44.21Zm-27.06,1.56c-.05-1.39.04-2.74-.16-4.06-.18-.12-.32-.11-.5-.03-.21.33-.53.6-.84.85.04.17.11.27.21.32.21.07.33-.2.55-.09.05,1,.11,2.01.16,2.99.2.12.35.1.59.03Z"/>
    <path class="cls-2" d="m73.38,61.29c.27.17.4.41.58.65-.58,1.08-1.36,1.98-2.47,2.54-1.08.54-2.19.45-3.25-.06-.39-.19-.53-.61-.64-1.01-.29.1-.39.34-.57.49-.18.16-.34.34-.53.47-.76.54-1.14.54-2.12.03-.24-.4-.31-.86-.33-1.33-.03-.95-.05-1.89-.06-2.84,0-.66-.01-1.31-.15-1.96-.54-.39-.71-.32-1.78.69.1,1.77.2,3.6.3,5.48-.48.04-.93.21-1.46.17-.18-1.92-.19-3.85-.27-5.81-.68-.05-1.33.06-1.86-.34-.37.23-.51.57-.65.91-.64,1.54-.92,3.16-.98,4.82,0,.1,0,.21-.01.31,0,.02-.03.04-.08.11-.4.04-.83.02-1.25-.09-.26-.37-.04-.8-.24-1.18-.4.07-.56.44-.81.69-.49.48-1.02.8-1.74.76-.33-.02-.61-.1-.88-.31-.11-.25-.23-.51-.36-.81-.48.44-.82,1.05-1.6,1-.7-.04-1.21-.28-1.42-.98-.35-.01-.53.25-.76.41-.82.55-1.7.77-2.67.53-.73-.18-1.02-.57-1.09-1.33-.14-1.55-.11-3.1-.09-4.65.02-1.34.06-2.68.1-4.03.42-.24.9,0,1.37-.26.13.91.15,1.75.16,2.62.67.12,1.33,0,2,.08.15.33.04.66.1,1.02-.7.32-1.44.09-2.19.31,0,1.37-.01,2.74.01,4.1,0,.22.08.47.34.68.61.19,1.22.15,1.74-.39.24-.24.49-.47.72-.7.06-.98.13-1.93.17-2.87.02-.58.13-1.14.32-1.69.47-1.31,1.8-1.68,2.89-.81.06.05.13.09.2.13.17-.2.04-.47.21-.71.4-.11.85-.02,1.32-.01.18.57-.09,1.13-.05,1.7.04.58-.05,1.15-.12,1.73-.06.57-.04,1.16-.06,1.74-.02.57-.21,1.14-.08,1.71.22.26.45.24.69.04.49-.41.93-.86,1.32-1.36.24-.32.23-.69.22-1.06-.06-1.36-.01-2.73-.23-4.1.43-.29.88-.22,1.37-.26.17.98-.02,1.99.27,3.04.51-1.02.65-2.15,1.51-2.92.66.34,1.12,1.13,2.04.91.14-.32.01-.64.1-.98.36-.13.74-.08,1.11-.07.23.34-.01.76.29,1.11.49-.11.79-.55,1.23-.75.43-.19.9-.28,1.45-.17.54.26.66.84.77,1.4.15.83.15,1.67.16,2.51,0,.89.01,1.78.18,2.65.3.18.52.1.72-.12.55-.61,1.02-1.22,1.05-2.12.03-1.02.14-2.04.45-3.02.37-1.17.77-1.48,1.98-1.5.13,0,.26,0,.4,0,1.24.04,1.84.61,1.84,1.84,0,.65-.12,1.3-.55,1.85-.31.39-.69.64-1.17.72-.49.08-.97.2-1.52.17-.11.6-.13,1.17-.06,1.73.07.61.43.91,1.04.97.99.09,1.69-.47,2.35-1.08.38-.35.72-.76,1.12-1.18Zm-23.35,1.62c.33.27.66.13.94-.07.39-.27.8-.58.81-1.1.03-1.17.28-2.34.18-3.53-.08-.1-.16-.2-.25-.29-.63-.6-1.15-.48-1.49.33-.06.15-.1.29-.13.45-.17,1.14-.2,2.29-.17,3.44,0,.26-.04.53.12.77Zm19-3.33c.81,0,1.51.07,1.82-.76.22-.59.15-.85-.36-1.28h-.71c-.68.51-.63,1.25-.75,2.04Z"/>
    <path class="cls-2" d="m38.91,61.12c.67-.37,1.15-.27,1.49.32.07.87.03.93-.73,1.21.25.99.7,1.11,1.91.52.51-.92.41-1.45-.35-2.1-.42-.36-.82-.74-1.2-1.14-.2-.2-.36-.45-.5-.7-.13-.22-.2-.48-.34-.8-.75.31-1.51.55-2.37.54-.02.99-.07,1.93-.16,2.86-.05.52-.05,1.05-.18,1.56-.14.56-.42.95-1.04,1.13-.75.22-1.47.33-2.23.11-.67-.19-1.25-.43-1.33-1.34-.71.84-1.47,1.41-2.52,1.44-.44.01-.81-.17-1.14-.44-.17-.48-.21-.97-.21-1.47,0-2.11,0-4.21-.03-6.32,0-.36.08-.75-.3-1.01-.91.11-1.63.88-1.64,1.78-.01,1.16,0,2.32,0,3.47,0,1.21,0,2.41,0,3.67-.52.09-1,.07-1.47.03-.11-.3-.07-.57-.07-.82,0-2.37,0-4.74,0-7.11,0-.38.08-.81-.38-1.02-1.07.19-1.66.9-1.67,2.02-.02,1.97-.02,3.95-.03,5.92,0,.31,0,.62,0,.98-.47.11-.9.04-1.36.06-.1-.5-.15-.96-.14-1.43.03-1.23,0-2.47.06-3.7.05-1.02-.02-2.05-.07-3.07-.03-.74-.2-.9-.92-1.03-.31-.06-.62-.09-.97-.15-.14-.41-.05-.85-.07-1.29,1.42-.25,2.61-.36,3.38,1.17.13-.17.26-.32.38-.47.63-.79,1.49-.9,2.42-.79.39.05.59.33.74.64.08.16.09.36.27.46,1.28-1.15,1.34-1.18,2.47-1.07.63.42.89,1.06.91,1.79.04,1.29.02,2.58.04,3.87.02,1.18.06,2.36.1,3.55.2.09.36.16.49.22.8-.31,1.18-1,1.64-1.59.14-.18.14-.38.15-.6.05-1.1.12-2.2.15-3.31.03-1,.46-1.26,1.33-1.44.73-.15,1.46-.12,2.19.02.58.11.99.45,1.18,1.02.05.15,0,.32.19.48.7,0,1.39-.18,2.04-.53.12-.07.21-.15.28-.26.51-.87,1.26-1.02,2.16-.76.05.01.1.03.15.04.53.57.53.65.12,1.44-.38.26-.83.14-1.29.16.11.61.51.94.93,1.25.78.58,1.54,1.17,1.82,2.18.15.57.17,1.15.07,1.72-.08.44-.33.82-.71,1.1-.73.53-1.56.67-2.39.47-1.24-.3-1.95-1.82-1.47-3.02.07-.17.17-.32.24-.46Zm-5.39-3.4c-.26,1.81-.28,4.87-.04,5.55.47.3.93.3,1.45-.04.3-1.34.29-2.75.28-4.15-.3-.24-.64-.41-.78-.81v-.89c-.4-.08-.7.01-.91.34Z"/>
    <path class="cls-2" d="m0,54.95v-1.24c1.68-.35,2.39-.11,3.48,1.14.25-.1.38-.33.55-.52.71-.79,1.61-.92,2.58-.7.49.11.79.51.91,1,.11.46.16.93.16,1.41,0,2.13,0,4.26.02,6.4,0,.25-.07.53.15.81.9-.09,1.16-.95,1.75-1.49-.04-.89.13-1.8.15-2.72,0-.45.11-.89.23-1.31.42-1.41,1.81-1.89,3.04-1.07.06.04.14.07.22.11.25-.13.07-.45.31-.62.34-.06.72-.05,1.16.06-.14,2.3-.27,4.57-.4,6.77.33.38.59.19.81.01.47-.38.89-.82,1.26-1.3.09-.12.14-.28.35-.36.23.18.45.38.59.7-.46.83-1.05,1.56-1.74,2.21-.09.09-.2.17-.32.23-1.07.64-1.81.39-2.27-.76-.31.23-.61.47-.92.7-.51.36-1.37.34-1.84-.02-.29-.22-.34-.58-.57-.91-.95,1.09-2.04,1.66-3.46.95-.19-.38-.22-.76-.23-1.16,0-1.92,0-3.84-.03-5.76,0-.65.06-1.31-.24-1.94-.48-.26-.9-.2-1.28.19-.47.49-.77,1.01-.76,1.74.04,2.11,0,4.21,0,6.32,0,.2.06.42-.08.65-.42.09-.86.04-1.3.03-.24-.23-.14-.51-.14-.76,0-2.34,0-4.69.01-7.03,0-.16.02-.32,0-.47-.1-.87-.45-1.18-1.33-1.23-.26-.01-.52-.03-.85-.04Zm11.02,7.92c.14.07.23.13.32.17.07.02.16.02.23.02.64-.07,1.43-.78,1.45-1.42.05-1.12.26-2.23.18-3.35-.32-.53-.7-.87-1.35-.7-.38.2-.59.53-.67.93-.28,1.45-.2,2.91-.18,4.36Z"/>
    <path class="cls-2" d="m52.39,50.54c.96-1.53,1.39-3.12,2.02-4.65.49-.15,1.01-.02,1.58-.08.59,1.58,1.17,3.13,1.76,4.73-.47.11-.86.06-1.19.06-.28-.15-.24-.44-.39-.64h-1.88c-.2.14-.2.41-.4.66h-2.81c-.55-.54-.85-1.23-1.36-1.76-.68.43-.27,1.13-.47,1.71-.3.1-.64.03-.97.04-.14-.57-.18-3.5-.06-4.74h1.02c.22.54-.1,1.17.24,1.8.49-.64.93-1.22,1.37-1.8.45-.08.89-.03,1.45-.04-.35.43-.63.78-.92,1.13-.28.35-.56.69-.87,1.07.53.88,1.24,1.61,1.86,2.52Zm2.83-3.47c-.31.56-.49,1.12-.6,1.74.41.07.78.12,1.17-.04-.12-.59-.29-1.13-.57-1.69Z"/>
    <path class="cls-2" d="m24.11,50.71c-1.7.02-2.56-1.11-2.67-2.1-.16-1.52.57-2.65,2.25-2.9,1.51-.23,2.74.67,3.01,2.18.21,1.21-.53,2.28-1.5,2.62-.36.13-.74.29-1.09.2Zm-.07-1.07c.89,0,1.52-.59,1.51-1.45,0-.82-.62-1.42-1.45-1.43-.88,0-1.48.57-1.51,1.45-.02.78.63,1.42,1.45,1.43Z"/>
    <path class="cls-2" d="m42.68,45.84c.89,0,1.72-.04,2.56.01.58.04,1.1.31,1.49.77.13.15.22.35.44.42.05.14.12.28.16.43.51,1.71-.88,3-2.28,3.09-.78.05-1.56,0-2.38,0v-4.73Zm1.24,3.74c.77.08,1.54.11,2-.69.29-.51.22-1.21-.15-1.61-.55-.6-1.24-.53-1.96-.4,0,.86,0,1.67,0,2.48,0,.07.06.14.11.23Z"/>
    <path class="cls-2" d="m27.14,49.98c.16-.33.33-.62.61-.86.73.46,1.49.75,2.33.32.08-.14.08-.27-.02-.42-.45-.12-.93-.25-1.41-.36-.75-.17-1.32-.52-1.43-1.41.28-1.16.9-1.64,2.16-1.56.66.04,1.31.15,1.81.65-.11.34-.37.56-.56.87-.56-.29-1.15-.49-1.79-.44-.17.01-.27.14-.34.27.01.24.15.34.35.38.43.1.86.2,1.3.31.45.11.83.34,1.07.74.41.69.05,1.75-.75,2.02-1.17.39-2.31.31-3.35-.53Z"/>
    <path class="cls-2" d="m41.69,45.82c0,1.04,0,2.01,0,2.98,0,.82-.55,1.26-1.16,1.61-.96.55-2.42.37-3.06-.35-.27-.31-.47-.66-.49-1.04-.04-1.04-.01-2.09-.01-3.19h1.12c.16.09.1.26.1.41,0,.79.02,1.58,0,2.37-.02.67.52,1.22,1.41,1.01.45-.11.68-.46.69-1.02.01-.89,0-1.78,0-2.73.45-.04.87-.11,1.39-.05Z"/>
    <path class="cls-2" d="m20.64,50.58h-1.04c-.18-.6,0-1.23-.12-1.88h-2.25v1.81c-.4.15-.76.05-1.14.09v-4.74c.34-.08.67-.04,1.09-.04v1.74h2.29c.13-.55,0-1.1.08-1.64.14-.17.34-.1.52-.1.18,0,.37-.05.57.08v4.68Z"/>
    <path class="cls-2" d="m33.3,48.98v1.54c-.41.11-.77.06-1.18.05,0-1.58,0-3.15,0-4.71.87-.15,2.76-.06,3.31.15.58.22.87.67.88,1.33,0,.74-.23,1.04-.82,1.35-.47.24-.93.31-1.44.29-.23-.01-.46,0-.75,0Zm1.58-1.3c.06-.27.12-.54-.15-.72-.45-.31-.94-.18-1.42-.11-.03.37-.04.7.03,1.07.54-.09,1.08.16,1.54-.24Z"/>
    <path class="cls-2" d="m70.3,54.42c.56-.31.83-.82,1.31-1.15.22.26.41.49.65.77-.59.64-1.19,1.24-1.86,1.81-.81-.51-1.35-1.21-1.95-1.76,0-.27.14-.36.24-.47.11-.11.23-.21.38-.36.4.38.79.75,1.22,1.16Z"/>
    <path class="cls-2" d="m41.03,55.62c-.69-.48-1.25-1.1-1.87-1.72.17-.31.47-.49.75-.8.35.4.69.79.99,1.14.72-.14,1.01-.68,1.42-1.07.3.15.46.43.62.69-.44.7-1.25,1.46-1.91,1.78Z"/>
    <path class="cls-2" d="m51.9,55.26c-.31-.2-.63-.26-.86-.54.33-.63.66-1.27.99-1.93.47.2.89.39,1.3.56.01.53-.51.61-.71.95-.2.34-.42.66-.72.95Z"/>
    <path class="cls-2" d="m39.49,45.5c-.67-.04-.89-.18-.95-.6-.08-.47.05-.64.72-.93.44.07.68.34.8.75-.08.31-.22.58-.56.77Z"/>
    <path class="cls-1" d="m36.75,20.71c-1.48-1.34-2.69-2.87-3.74-4.59-1.47.97-3.05,1.31-4.74,1.09-.59-.08-1.18-.24-1.68-.75,1.93-3.87,5.2-5.62,9.4-6.06.03-.88.03-1.76-.06-2.65-.02-.22-.02-.41.06-.61.16-.39.48-.58.87-.51.34.06.59.33.59.73,0,.74-.02,1.47-.03,2.21,0,.26,0,.52,0,.85,2.72.32,5.18,1.24,7.18,3.17.86.82,1.6,1.73,2.23,2.78-.67.48-1.33.8-2.11.87-1.35.12-2.59-.24-3.81-.75-.17-.07-.33-.15-.51-.24-1.1,1.6-2.3,3.08-3.65,4.45Z"/>
    <path class="cls-3" d="m36.71,33.99c-1.44-1.48-2.61-3.14-3.46-5.04.73-.84,1.35-1.71,1.73-2.71.76.24,1.15.91,1.72,1.35.58-.4.97-.93,1.46-1.42.41.43.49,1,.82,1.42.34.43.66.87,1,1.31-.26,1.04-2.11,3.93-3.26,5.09Z"/>
    <path class="cls-3" d="m40.33,21.67c-.89,1.9-2.23,3.37-3.6,4.87-1.48-1.45-2.96-2.87-3.77-4.86.39-.7.91-1.33,1.25-2.13.51.31.77.85,1.23,1.12.49.29.77.77,1.19,1.21.8-.77,1.57-1.5,2.3-2.42.49.78.93,1.47,1.4,2.21Z"/>
    <path class="cls-3" d="m27.57,23.23c-.3-1.86-.04-3.56.85-5.16.75-.08,1.47.04,2.17-.11.69-.15,1.35-.37,1.99-.74.4.35.66.8.94,1.24.14.22.13.43.02.67-.72,1.53-1.67,2.86-3.27,3.57-.81.36-1.67.58-2.7.53Z"/>
    <path class="cls-3" d="m45.61,23.24c-1.17.05-2.16-.29-3.05-.85-1.22-.76-2.21-1.73-2.77-3.1-.16-.38-.19-.69.05-1.02.24-.34.48-.68.72-1.04,1.37.57,2.77.96,4.25.8.87,1.67,1.29,3.34.8,5.21Z"/>
    <path class="cls-3" d="m38.85,25.39c.72-.99,1.49-1.94,2.06-3.08.92.52,1.76,1.11,2.7,1.45.4,1.5-.21,3.82-1.37,5.3-1.13.11-2.74-1.51-3.38-3.68Z"/>
    <path class="cls-3" d="m29.59,23.81c1.05-.3,1.9-.83,2.74-1.53.58,1.13,1.32,2.13,2.1,3.1-.55,1.7-1.39,3.1-3.12,3.79-.64-.49-.84-1.18-1.13-1.81-.53-1.1-.8-2.26-.59-3.55Z"/>
    <path class="cls-1" d="m23.47,22.59c-.15-.16-.12-.31-.1-.5.27-.16.55-.33.84-.51.17-.3.32-.59.23-.99-.42.08-.83.12-1.17-.29-.13-.36-.1-.78-.07-1.2.04-.53.31-.74.89-.77.59-.03.93.16.97.67.08.88.1,1.78-.23,2.63-.24.63-.75.89-1.36.95Zm1.04-2.61c.12-.37.08-.71-.14-1.02-.2-.04-.37-.04-.56.08-.18.34-.18.67.05.98.21.06.39.09.65-.04Z"/>
    <path class="cls-1" d="m51.21,22.14c.09-.16.19-.24.31-.3.19-.07.31.22.57.06.2-.38.12-.84.08-1.25-.24-.23-.5-.08-.76-.18v-2.09h1.55s.07.05.07.07c0,.13,0,.26,0,.38-.31.21-.67.07-1.03.17-.1.26-.02.54-.04.87.47.02.75.19.91.68.08.25.19,1.67-.54,1.97-.4.16-.77.03-1.07-.28-.02-.02-.03-.04-.06-.1Z"/>
    <path class="cls-1" d="m48.96,20.96c-.13-.15-.35-.03-.44-.21v-.21c.14-.2.36-.07.56-.18.1-.36.23-.75.24-1.17-.35-.18-.67-.34-1.04-.08-.09-.19-.15-.33-.21-.46.13-.17.34-.32.48-.26.49.19.96.01,1.48-.05.11.7-.29,1.29-.28,1.95.06.14.39.08.31.32-.03.32-.32.17-.46.35-.13.5-.28,1.05-.41,1.58-.19.1-.34.08-.51-.06-.07-.5.22-.98.29-1.52Z"/>
    <path class="cls-1" d="m21.9,22.52c-.25.07-.4.09-.59-.03-.05-.98-.1-1.98-.16-2.99-.22-.11-.33.16-.55.09-.1-.04-.17-.15-.21-.32.31-.25.62-.52.84-.85.18-.08.33-.09.5.03.2,1.32.12,2.68.16,4.06Z"/>
    <path class="cls-2" d="m24.51,19.98c-.26.13-.44.1-.65.04-.23-.31-.22-.64-.05-.98.18-.12.36-.12.56-.08.23.31.26.65.14,1.02Z"/>
  </g>
  <rect class="cls-4" x="-13.63" y="-15.01" width="100.22" height="94.48"/>
</svg>