<?xml version="1.0" encoding="UTF-8"?>
<svg id="Vrstva_1" data-name="Vrstva 1" xmlns="http://www.w3.org/2000/svg" viewBox="0 0 64.95 59.9">
  <defs>
    <style>
      .cls-1 {
        fill: none;
        stroke: #1d1d1b;
        stroke-miterlimit: 10;
        stroke-width: .2px;
      }

      .cls-2, .cls-3 {
        stroke-width: 0px;
      }

      .cls-3 {
        fill: #fff;
      }
    </style>
  </defs>
  <path class="cls-2" d="m8.56,0h6.09v41.99c0,3.92-.4,6.82-1.2,8.69-.8,1.88-2.1,3.38-3.88,4.51-1.79,1.13-3.94,1.69-6.46,1.69-.39,0-1.05-.06-1.98-.18l-1.13-5.66h1.55c1.75,0,3.08-.21,4-.64.92-.43,1.65-1.18,2.19-2.25.54-1.08.81-3.36.81-6.85V0Z"/>
  <polygon class="cls-2" points="48.14 0 55.75 0 37.3 20.19 60.29 42.54 51.98 42.54 30.24 21.53 30.24 42.54 24.15 42.54 24.15 0 30.24 0 30.24 19.46 48.14 0"/>
  <polygon class="cls-2" points="29.49 46.41 30.59 46.41 30.59 54.1 29.49 54.1 29.49 50.75 25.18 50.75 25.18 54.1 24.08 54.1 24.08 46.41 25.18 46.41 25.18 49.74 29.49 49.74 29.49 46.41"/>
  <path class="cls-2" d="m34.74,46.37h.77l3.45,7.73h-1.13l-1.02-2.28h-3.28l-.96,2.28h-1.13l3.3-7.73Zm1.62,4.47l-1.24-2.78-1.15,2.78h2.39Z"/>
  <rect class="cls-2" x="39.81" y="46.41" width="1.1" height="7.68"/>
  <path class="cls-2" d="m42.65,54.1v-7.68h1.92c.78,0,1.39.19,1.85.58.46.39.69.91.69,1.56,0,.45-.11.83-.34,1.16-.22.33-.54.57-.96.73.25.16.49.38.72.66.23.28.56.76.99,1.46.27.44.48.76.64.98l.41.55h-1.31l-.34-.51s-.03-.05-.07-.09l-.21-.3-.34-.56-.37-.6c-.23-.32-.44-.57-.63-.75-.19-.19-.36-.32-.51-.4s-.41-.12-.77-.12h-.29v3.34h-1.1Zm1.43-6.75h-.33v2.43h.42c.56,0,.94-.05,1.15-.14.21-.1.37-.24.48-.43s.17-.41.17-.66-.06-.46-.19-.66c-.13-.2-.31-.34-.54-.42-.23-.08-.62-.12-1.16-.12"/>
  <path class="cls-1" d="m51.5,54.72c-.19.49-.73.74-1.21.56-.48-.19-.71-.74-.51-1.23.19-.49.74-.74,1.21-.56.47.18.71.74.51,1.23Z"/>
  <path class="cls-1" d="m53.5,59.16c-.2.52-.77.78-1.27.59-.5-.19-.73-.77-.53-1.29.2-.52.77-.78,1.26-.59.5.19.74.77.53,1.29Z"/>
  <path class="cls-3" d="m56.06,54.78c-.08.19-.29.29-.48.21-.19-.08-.29-.29-.21-.48s.29-.29.48-.21.29.29.21.48"/>
  <path class="cls-1" d="m56.06,54.78c-.08.19-.29.29-.48.21-.19-.08-.29-.29-.21-.48s.29-.29.48-.21.29.29.21.48Z"/>
  <polyline class="cls-2" points="55.73 54.19 63.33 49.15 56.08 54.64 55.88 54.19"/>
  <polygon class="cls-2" points="58.88 52.64 64.95 51.05 57.28 53.85 58.88 52.64"/>
  <polygon class="cls-2" points="55.27 54.74 53.28 58.01 53.45 58.08 55.76 55.06 55.27 54.74"/>
  <polygon class="cls-2" points="51.64 54.45 55.45 54.28 55.25 54.66 51.57 54.63 51.64 54.45"/>
  <path class="cls-2" d="m48.27,53.7s-.35.16.19.4c.53.24,1.08.42,1.08.42l.02-.22"/>
</svg>