<?xml version="1.0" encoding="UTF-8"?>
<svg id="Vrstva_1" data-name="Vrstva 1" xmlns="http://www.w3.org/2000/svg" viewBox="0 0 47.69 59.88">
  <defs>
    <style>
      .cls-1, .cls-2 {
        stroke-width: 0px;
      }

      .cls-2 {
        fill: #fff;
      }

      .cls-3 {
        fill: none;
        stroke: #fff;
        stroke-miterlimit: 10;
        stroke-width: .17px;
      }
    </style>
  </defs>
  <rect class="cls-1" width="47.69" height="59.88"/>
  <rect class="cls-1" x="1.88" y="2.04" width="43.94" height="55.86"/>
  <rect class="cls-3" x="1.88" y="2.04" width="43.94" height="55.86"/>
  <path class="cls-2" d="m23.8,36.61c.02.25.23.44.46.42.24-.02.41-.23.39-.48-.02-.25-.22-.44-.46-.42-.23.02-.41.24-.4.48M12.92,12.73c.02-.08.02-.21.08-.31.29-.57.59-1.15.9-1.71.16-.28.39-.34.68-.23.63.25,1.22.58,1.73,1.05.12.11.22.28.26.45.39,1.43.74,2.87,1.14,4.29.4,1.41.83,2.8,1.26,4.19.37,1.19.75,2.38,1.17,3.55,1.33,3.73,2.84,7.38,4.67,10.87.28.54.62,1.05.91,1.59.24.43.42.89.39,1.41-.03.54-.33.89-.76,1.12-.42.22-.83.15-1.15-.17-.36-.36-.69-.76-.96-1.19-.64-1.03-1.25-2.07-1.85-3.13-2.51-4.44-4.73-9.03-6.39-13.9-.86-2.52-1.56-5.08-2.05-7.7,0-.05-.02-.09-.04-.19"/>
  <path class="cls-2" d="m35.02,14.13c.32.7.3,1-.05,1.67-.65,1.23-1.3,2.46-1.95,3.69-1.38,2.6-2.74,5.21-3.82,7.98-.09.23-.09.41.04.63.04-.09.08-.18.11-.26.33-.79.62-1.6,1-2.36,1.24-2.49,2.5-4.96,3.76-7.44.39-.76.8-1.5,1.18-2.26.31-.63.22-1.13-.27-1.65m-9.18,21.88c-.29-.5-.57-.99-.84-1.48-.03-.06.02-.2.07-.27.88-1.25,1.78-2.49,2.66-3.75.2-.29.39-.59.54-.91.27-.57.2-1.1-.22-1.58-.15-.18-.3-.36-.45-.54-.3-.36-.37-.74-.15-1.18.54-1.11,1.07-2.23,1.59-3.35,1.09-2.32,2.18-4.65,3.27-6.97.31-.66.62-1.33,1.12-1.86.42-.45.92-.69,1.53-.54,1.13.27,1.57,1.29,1,2.37-.83,1.56-1.64,3.13-2.48,4.68-1.74,3.23-3.23,6.59-4.45,10.08-.4,1.15-.92,2.24-1.54,3.28-.45.75-.99,1.41-1.66,2.01"/>
  <path class="cls-2" d="m22.75,37.52c.21.33.4.63.57.89-.28.49-.57.94-.8,1.43-.27.58-.31,1.21-.13,1.85.03.12.09.25.07.36-.02.14-.08.37-.17.39-.13.03-.35-.03-.44-.14-.3-.39-.47-.86-.42-1.37.13-1.26.61-2.36,1.3-3.41"/>
  <path class="cls-2" d="m11.97,35.14c-.12.02-.17.04-.2.05-.08.02-.11.04-.13.04-.05.02-.06.03-.07.04-.02.02-.02.03-.02.04l-.63,2.97c-.01.06-.04.09-.06.1-.04.04-.08.06-.1.07-.06.03-.1.04-.12.05-.06.02-.09.02-.1.03l-.91-2.61-.79,2.36c-.02.06-.05.08-.07.1-.05.04-.09.06-.11.07-.06.03-.1.04-.13.05-.07.02-.1.02-.12.03l-.71-3.2c-.01-.07-.07-.1-.1-.11-.08-.04-.21-.07-.28-.08v-.15h1.23v.15c-.13.01-.18.03-.21.03-.07.02-.1.04-.11.04-.04.02-.04.04-.04.05,0,.03,0,.05,0,.06l.52,2.3.86-2.64h.19l.95,2.64.49-2.33s-.02-.05-.02-.06c-.03-.02-.07-.04-.09-.04-.06-.02-.11-.03-.14-.04-.08-.02-.14-.03-.17-.03v-.15h1.18v.15Z"/>
  <path class="cls-2" d="m12.47,38.45v-.15c.19-.04.25-.07.29-.08.1-.04.1-.07.1-.08v-2.82s-.06-.07-.1-.08c-.1-.05-.23-.07-.29-.09v-.14h1.3v.14c-.19.04-.25.07-.29.09-.1.05-.1.07-.1.08v1.19h1.59v-1.19s-.06-.07-.1-.08c-.1-.05-.23-.07-.29-.09v-.14h1.3v.14c-.19.04-.25.07-.29.09-.1.05-.1.07-.1.08v2.82s.07.06.1.08c.1.05.23.07.29.09v.15h-1.3v-.15c.19-.04.25-.07.29-.08.1-.04.1-.07.1-.08v-1.36h-1.59v1.36s.06.06.1.08c.1.05.23.07.3.09v.15h-1.3Z"/>
  <path class="cls-2" d="m17.31,38.45v-.15c.25-.05.31-.09.35-.1.1-.05.1-.08.1-.09v-1.12c-.1-.22-.19-.38-.23-.46-.13-.24-.21-.39-.26-.46-.13-.22-.22-.35-.26-.42-.13-.19-.19-.28-.22-.32-.02-.03-.05-.05-.05-.06-.03-.03-.06-.04-.08-.05-.05-.02-.1-.03-.12-.03-.07-.01-.15-.01-.19-.01v-.15c.07-.01.13-.02.16-.02.09-.01.15-.02.17-.02.09,0,.14-.01.16-.01.08,0,.12,0,.13,0,.07,0,.11.02.13.03.06.03.09.07.11.08.1.13.18.25.22.31.11.18.19.31.23.38.12.2.19.34.23.41.11.21.18.34.21.41l.7-1.26c.04-.07,0-.1-.03-.11-.07-.04-.21-.06-.28-.07v-.14h1.1v.14c-.19.04-.25.06-.28.07-.1.04-.12.08-.13.11l-.91,1.66v1.13s.02.03.02.04c.02.02.06.04.07.05.05.03.11.04.14.05.09.03.17.04.22.05v.15h-1.41Z"/>
  <path class="cls-2" d="m29.54,38.45v-.15c.2-.02.26-.06.3-.08.09-.05.09-.08.09-.09v-2.8c-.09-.08-.16-.11-.19-.13-.1-.05-.17-.06-.2-.06v-.14h.64s.06,0,.07,0c.03,0,.04.02.05.03.03.02.05.05.06.06.03.04.07.09.08.11l1.76,2.43v-2.33s-.01-.03-.02-.04c-.02-.02-.05-.04-.06-.05-.05-.02-.1-.04-.12-.04-.07-.02-.15-.03-.19-.04v-.14h1.14v.14c-.2.03-.26.06-.29.08-.1.05-.1.08-.1.09v3.22c-.18-.02-.25-.05-.28-.07-.1-.05-.14-.1-.15-.12l-1.84-2.55v2.34s.01.03.02.04c.02.02.05.04.07.05.05.02.1.04.12.04.07.02.15.03.18.04v.15h-1.14Z"/>
  <path class="cls-2" d="m36.53,36.68c0,.37-.08.6-.13.71-.13.33-.27.51-.34.59-.22.25-.41.36-.5.41-.28.15-.5.15-.6.15-.34,0-.51-.1-.6-.14-.26-.15-.38-.31-.45-.39-.18-.24-.24-.45-.28-.56-.1-.32-.1-.55-.1-.66,0-.37.08-.6.12-.71.12-.34.26-.51.33-.59.21-.25.4-.36.5-.41.29-.15.51-.15.62-.15.35,0,.52.1.61.15.27.15.38.31.44.4.18.25.24.46.27.56.09.32.09.54.09.65m-.51.05c0-.19-.02-.31-.03-.37-.03-.18-.07-.29-.1-.35-.06-.16-.12-.26-.15-.3-.09-.14-.16-.21-.2-.24-.11-.1-.2-.14-.24-.16-.13-.06-.23-.06-.28-.06-.23,0-.35.07-.41.1-.18.1-.26.23-.3.29-.12.19-.17.37-.19.45-.06.27-.06.49-.06.6,0,.31.05.49.08.58.08.27.17.41.22.48.14.2.26.28.32.32.18.12.32.12.39.12.21,0,.33-.06.39-.09.18-.09.26-.22.31-.28.13-.18.18-.36.2-.46.07-.28.07-.52.07-.64"/>
  <path class="cls-2" d="m37.88,38.45v-.15c.13-.02.18-.04.21-.05.08-.03.12-.04.14-.05.05-.03.06-.04.07-.05.02-.02.02-.04.02-.04v-2.83h-.78s-.06.01-.08.02c-.03.02-.06.06-.07.07-.04.06-.07.12-.08.16-.04.1-.08.21-.1.26l-.14-.06c0-.08.01-.14.02-.18.01-.1.02-.16.02-.19.01-.1.02-.16.03-.19.01-.09.02-.14.03-.16h2.82l.09.07c0,.07,0,.13-.01.16,0,.08-.02.14-.02.17-.01.09-.02.15-.03.19-.02.09-.03.15-.03.18h-.15c-.03-.13-.04-.19-.05-.22-.02-.09-.04-.13-.04-.16-.02-.06-.05-.08-.06-.09-.04-.03-.08-.03-.1-.03h-.74v2.83s.01.03.02.04c.02.02.06.04.07.05.05.03.11.04.14.05.08.03.17.04.21.05v.15h-1.41Z"/>
  <path class="cls-2" d="m13.04,48.21c-.15,0-.2-.04-.2-.18v-.64h.15c.26,0,.41.16.41.44,0,.25-.12.39-.36.39m-.2-.93v-.59c0-.09.02-.11.14-.11.24,0,.36.12.36.34s-.13.36-.37.36h-.14Zm-.63,1.04h.9c.47,0,.73-.15.73-.5,0-.28-.17-.45-.49-.5h0c.27-.06.41-.2.41-.43,0-.3-.26-.43-.68-.43h-.87v.09c.18,0,.2.02.2.16v1.35c0,.13-.02.16-.2.16v.09Z"/>
  <path class="cls-2" d="m15.01,47.56l.25-.69h0l.25.69h-.51Zm1.12.53l-.58-1.62h-.27l-.62,1.6c-.05.13-.09.15-.25.15v.09h.58v-.09h-.12c-.08,0-.09-.03-.07-.11l.16-.45h.58l.16.45c.02.07,0,.12-.07.12h-.13v.09h.84v-.09c-.15,0-.17-.02-.22-.14"/>
  <path class="cls-2" d="m17.6,47.35v-.67c0-.08.02-.1.13-.1.25,0,.36.13.36.38s-.12.39-.37.39h-.12Zm-.63.97h.83v-.09c-.17,0-.2-.02-.2-.16v-.61h.13c.15,0,.21.08.24.21l.08.39c.02.12.08.22.13.26h.52v-.09c-.17,0-.22-.1-.26-.3l-.02-.12c-.04-.25-.12-.37-.36-.42h0c.26-.05.46-.19.46-.47s-.21-.45-.68-.45h-.86v.09c.18,0,.2.02.2.16v1.35c0,.13-.01.16-.2.16v.09Z"/>
  <path class="cls-2" d="m20.13,48.21c-.15,0-.2-.04-.2-.18v-.64h.15c.26,0,.41.16.41.44,0,.25-.12.39-.36.39m-.2-.93v-.59c0-.09.02-.11.14-.11.24,0,.36.12.36.34s-.13.36-.37.36h-.14Zm-.63,1.04h.9c.47,0,.73-.15.73-.5,0-.28-.17-.45-.49-.5h0c.27-.06.41-.2.41-.43,0-.3-.26-.43-.68-.43h-.87v.09c.18,0,.2.02.2.16v1.35c0,.13-.02.16-.2.16v.09Z"/>
  <path class="cls-2" d="m21.6,48.32h1.49l.03-.5h-.1c-.07.31-.2.39-.49.39s-.31-.03-.31-.19v-.61h.31c.17,0,.2.05.23.25h.08v-.62h-.08c-.03.2-.06.25-.23.25h-.31v-.62c0-.07.02-.1.1-.1h.2c.27,0,.35.07.42.34h.1v-.45h-1.46v.09c.18,0,.2.02.2.16v1.35c0,.13-.02.16-.2.16v.09Z"/>
  <path class="cls-2" d="m24.42,47.35v-.67c0-.08.02-.1.13-.1.25,0,.36.13.36.38s-.12.39-.37.39h-.12Zm-.63.97h.83v-.09c-.17,0-.2-.02-.2-.16v-.61h.13c.15,0,.21.08.24.21l.08.39c.02.12.08.22.13.26h.52v-.09c-.17,0-.22-.1-.26-.3l-.02-.12c-.04-.25-.12-.37-.36-.42h0c.26-.05.46-.19.46-.47s-.21-.45-.68-.45h-.86v.09c.18,0,.2.02.2.16v1.35c0,.13-.01.16-.2.16v.09Z"/>
  <path class="cls-2" d="m27.25,48.32h.08s.04-.05.08-.05c.08,0,.2.08.43.08.39,0,.66-.23.66-.6,0-.29-.18-.45-.43-.55l-.18-.07c-.13-.05-.35-.13-.35-.33,0-.17.14-.28.33-.28.22,0,.39.16.45.42h.1l-.03-.49h-.08s-.02.05-.07.05c-.09,0-.17-.08-.38-.08-.38,0-.62.22-.62.56,0,.31.2.46.49.57l.14.05c.2.07.31.17.31.34,0,.22-.16.31-.35.31-.29,0-.47-.28-.52-.48h-.1l.04.54Z"/>
  <path class="cls-2" d="m29.17,48.32h.83v-.09c-.19,0-.2-.03-.2-.16v-.66h.74v.66c0,.13,0,.16-.2.16v.09h.83v-.09c-.19,0-.2-.03-.2-.16v-1.35c0-.13,0-.16.2-.16v-.09h-.83v.09c.19,0,.2.02.2.16v.57h-.74v-.57c0-.13,0-.16.2-.16v-.09h-.83v.09c.19,0,.2.02.2.16v1.35c0,.13,0,.16-.2.16v.09Z"/>
  <path class="cls-2" d="m32.73,48.25c-.34,0-.47-.29-.47-.86s.13-.86.47-.86.47.3.47.86-.13.86-.47.86m0,.1c.61,0,.93-.36.93-.96s-.31-.96-.93-.96-.93.36-.93.96.31.96.93.96"/>
  <path class="cls-2" d="m34.92,47.47v-.8c0-.08.02-.1.12-.1.25,0,.37.15.37.43,0,.31-.16.46-.38.46h-.12Zm-.63.85h.85v-.09c-.19,0-.22-.02-.22-.16v-.49h.11c.59,0,.82-.24.82-.58,0-.28-.19-.53-.72-.53h-.84v.09c.18,0,.2.02.2.16v1.35c0,.13-.01.16-.2.16v.09Z"/>
</svg>