<?xml version="1.0" encoding="UTF-8"?>
<svg id="Vrstva_1" data-name="Vrstva 1" xmlns="http://www.w3.org/2000/svg" viewBox="0 0 79.63 27.97">
  <defs>
    <style>
      .cls-1, .cls-2 {
        fill-rule: evenodd;
      }

      .cls-1, .cls-2, .cls-3 {
        stroke-width: 0px;
      }

      .cls-1, .cls-3 {
        fill: #950c37;
      }

      .cls-2 {
        fill: #fff3d8;
      }
    </style>
  </defs>
  <path class="cls-1" d="m14.45,16.39v-1.98h5.72v7.92h4.89v-7.92h5l2.94,2.69,2.98-2.69h5v11.96h-5.76v-5.09l-2.23,1.99-2.15-1.96-.03,5.07h-5.75v-2.05l-.83,2.05h-9.78v-7.9h-.24v7.9h-5.74v-3.24h-2.47c.21.63.61,1.21,1.05,1.69l.92.98-4.92,2.18c-.27-.27-.54-.53-.8-.81-1.14-1.28-1.99-2.82-2.21-4.54-.08-.75-.04-1.47.12-2.22l.1-.41c.29-.92.73-1.72,1.36-2.45.25-.28.51-.53.79-.77,1.19-.98,2.64-1.63,4.13-1.98.99-.22,2.01-.31,3.02-.36,1.36-.06,2.72-.03,4.07-.03l.82,1.98Zm38.6.81c.63-1.24,1.88-1.95,3.16-2.35,1.1-.32,2.22-.42,3.37-.43h3.69l1.15,2.85c.33-.79.9-1.4,1.61-1.86,1.53-.93,3.4-1.14,5.16-1.2.52-.01,1.04-.01,1.55,0,1.85.08,3.88.33,5.38,1.52.11.1.22.19.33.3.61.63.95,1.33,1.12,2.19.15.97.06,1.93-.19,2.87-.49,1.63-1.5,3.02-2.85,4.06-.17.12-.33.23-.5.34-.78.47-1.57.77-2.46.95-.78.15-1.54.18-2.33.14-.68-.05-1.31-.16-1.96-.36-.56-.18-1.07-.41-1.58-.7-.56-.35-1.05-.74-1.52-1.2-.46-.48-.88-1-1.2-1.58l-1.5,3.64c-.6,0-1.21,0-1.82-.01-1.12-.04-2.18-.2-3.25-.51l-.43-.14c-1.62-.59-3.11-1.55-4.18-2.92l-1.43,3.59h-11.09v-11.96h10.68l1.1,2.78m17.12,2.84c.14.69.44,1.33.9,1.86.33.34.63.51,1.1.33.51-.23.82-.78,1.05-1.26.25-.55.41-1.16.37-1.77-.05-.39-.23-.56-.58-.71-.49-.18-1.02-.18-1.54-.16-.4.03-1.07.09-1.27.5-.15.36-.09.82-.03,1.19m-5.43,2.27c-.56-1.16-.79-2.56-.65-3.83h-3.75c-.51.01-1.16.04-1.6.32-.32.24-.32.6-.29.97.06.39.2.67.44.98,1.09,1.27,2.84,1.58,4.43,1.59l1.42-.03m-11.27.03c-.49-.74-.81-1.65-.88-2.53l-.89,2.09h-4.71v.44h6.48m-.87-3.61c0-.08.02-.17.03-.24h-5.65v.24h5.61m-44.13-.02c-.39.09-.76.21-1.11.39h1.11v-.39Z"/>
  <path class="cls-2" d="m64.93,19.16c0-1.36.52-2.36,1.56-3.02,1.13-.72,2.93-1.07,5.39-1.07,2.24,0,3.93.31,5.05.92,1.22.67,1.83,1.72,1.83,3.15,0,1.58-.57,3.02-1.69,4.32-1.32,1.51-3.06,2.27-5.22,2.27-2.05,0-3.73-.68-5.05-2.02-1.24-1.27-1.86-2.78-1.86-4.54h0ZM3.24,26.93c-.63-.62-1.15-1.31-1.54-2.05-.55-1-.82-2.01-.82-3.02s.24-1.91.73-2.77c.62-1.1,1.59-1.97,2.89-2.62.87-.45,1.81-.76,2.81-.93,1-.17,2.26-.26,3.78-.26h1.98l.95,2.31h-3.13c-1.33,0-2.41.14-3.23.43-1.09.37-1.85,1.02-2.28,1.94h3.98v-2.07h3.99v7.6h-3.99v-3.24h-4.39c0,.54.16,1.13.47,1.75.27.54.63,1.04,1.06,1.5l-3.25,1.43m16.06-11.64v7.91h5.28l-.93,2.3h-8.32v-10.21h3.98m20.81,0v10.21h-4.01v-6.17l-3.1,2.76-3.02-2.76-.04,6.17h-4.01v-10.21h3.79l3.28,2.99,3.32-2.99h3.79m11.24,0l.91,2.31h-6.15v1.99h5.61l-.61,1.42h-5.01v2.19h6.56l-.91,2.3h-9.62v-10.21h9.21m2.09,3.99c0-1.37.6-2.4,1.79-3.08,1.05-.61,2.5-.91,4.34-.91h3.1l.93,2.31h-3.1c-.98,0-1.7.14-2.16.41-.52.31-.78.81-.78,1.51,0,.94.45,1.76,1.36,2.46,1.08.82,2.55,1.23,4.4,1.23h.51s-.95,2.29-.95,2.29h-.73c-2.55,0-4.66-.65-6.34-1.95-1.58-1.21-2.37-2.64-2.37-4.27m15.8.08c0,.91.26,1.77.78,2.59.52.82,1.12,1.23,1.79,1.23.78,0,1.44-.46,1.98-1.38.46-.79.69-1.6.69-2.43,0-.67-.26-1.17-.79-1.5-.44-.27-1.05-.41-1.81-.41-.89,0-1.55.15-1.99.44-.44.3-.66.79-.66,1.47h0Z"/>
  <path class="cls-1" d="m51.94,12.28h-14.26c-.23-.73-.36-1.52-.36-2.33,0-4.22,3.37-7.67,7.49-7.67s7.48,3.45,7.48,7.67c0,.81-.12,1.59-.36,2.33"/>
  <path class="cls-2" d="m49.95,11.65h-11.43c-.18-.65-.28-1.33-.28-2.05,0-3.71,2.69-6.74,6-6.74s6,3.03,6,6.74c0,.72-.1,1.4-.28,2.05"/>
  <path class="cls-1" d="m46.18,12.28h-17.52c-.29-.9-.44-1.86-.44-2.87,0-5.19,4.13-9.42,9.2-9.42s9.2,4.23,9.2,9.42c0,1-.15,1.96-.44,2.87"/>
  <path class="cls-2" d="m43.26,11.54h-13.59c-.22-.8-.34-1.64-.34-2.52,0-4.56,3.2-8.28,7.13-8.28s7.13,3.72,7.13,8.28c0,.88-.12,1.73-.34,2.52"/>
  <path class="cls-1" d="m39.3,12.27h-14.26c-.23-.73-.36-1.51-.36-2.33,0-4.22,3.37-7.66,7.49-7.66s7.48,3.44,7.48,7.66c0,.82-.12,1.6-.36,2.33"/>
  <path class="cls-2" d="m37.01,11.65h-11.54c-.19-.64-.29-1.31-.29-2.01,0-3.66,2.72-6.63,6.06-6.63s6.05,2.98,6.05,6.63c0,.7-.1,1.38-.28,2.01"/>
  <rect class="cls-3" x="25.02" y="12.86" width="26.92" height=".92"/>
</svg>