<?xml version="1.0" encoding="UTF-8"?>
<svg id="Vrstva_1" data-name="Vrstva 1" xmlns="http://www.w3.org/2000/svg" viewBox="0 0 93.78 28.67">
  <defs>
    <style>
      .cls-1 {
        stroke-width: 0px;
      }
    </style>
  </defs>
  <polygon class="cls-1" points="28.64 11.29 28.59 11.29 25.95 7.33 25.95 13.36 24.49 13.36 24.49 4.92 26.07 4.92 28.64 8.91 31.21 4.92 32.79 4.92 32.79 13.36 31.31 13.36 31.31 7.31 28.64 11.29"/>
  <path class="cls-1" d="m39.11,6.63l-1.45,3.38h2.91l-1.46-3.38Zm4.43,6.73h-1.57l-.86-2.04h-3.99l-.87,2.04h-1.52l3.71-8.5h1.38l3.71,8.5Z"/>
  <polygon class="cls-1" points="45.49 6.23 45.49 4.92 52.25 4.92 52.25 6.02 47.27 12.05 52.25 12.05 52.25 13.36 45.34 13.36 45.34 12.26 50.32 6.23 45.49 6.23"/>
  <path class="cls-1" d="m58.41,6.63l-1.45,3.38h2.91l-1.46-3.38Zm4.43,6.73h-1.57l-.86-2.04h-3.99l-.87,2.04h-1.52l3.71-8.5h1.37l3.72,8.5Z"/>
  <polygon class="cls-1" points="70.68 4.92 72.14 4.92 72.14 13.36 70.9 13.36 66.24 7.36 66.24 13.36 64.78 13.36 64.78 4.92 66.16 4.92 70.68 10.76 70.68 4.92"/>
  <path class="cls-1" d="m77.88,4.22l1.28-1.98,1.33.59-1.47,1.39h-1.13Zm.58,2.41l-1.45,3.38h2.91l-1.46-3.38Zm4.43,6.73h-1.57l-.86-2.04h-3.99l-.87,2.04h-1.52l3.72-8.5h1.37l3.72,8.5Z"/>
  <polygon class="cls-1" points="31.09 16.98 32.69 16.98 29.19 25.48 27.88 25.48 24.37 16.98 26.01 16.98 28.56 23.47 31.09 16.98"/>
  <rect class="cls-1" x="34.81" y="16.98" width="1.48" height="8.44"/>
  <polygon class="cls-1" points="45.53 16.98 46.99 16.98 46.99 25.42 45.74 25.42 41.09 19.42 41.09 25.42 39.63 25.42 39.63 16.98 41 16.98 45.53 22.82 45.53 16.98"/>
  <path class="cls-1" d="m53.91,18.2c-1.68,0-2.85,1.34-2.85,2.99s1.19,3.02,2.87,3.02,2.85-1.34,2.85-2.99-1.19-3.01-2.87-3.01m0,7.37c-2.59,0-4.4-1.97-4.4-4.36s1.83-4.38,4.43-4.38,4.4,1.97,4.4,4.35-1.83,4.38-4.43,4.38"/>
  <polygon class="cls-1" points="63.82 25.42 62.33 25.42 62.33 18.35 59.65 18.35 59.65 16.98 66.5 16.98 66.5 18.35 63.82 18.35 63.82 25.42"/>
  <path class="cls-1" d="m70.9,16.28l1.28-1.98,1.33.59-1.47,1.39h-1.13Zm4,2.03h-4.78v2.19h4.23v1.33h-4.23v2.27h4.84v1.33h-6.32v-8.44h6.26v1.33Z"/>
  <polygon class="cls-1" points="84.78 25.42 82.99 25.42 80.1 21.62 78.79 22.97 78.79 25.42 77.31 25.42 77.31 16.98 78.79 16.98 78.79 21.22 82.81 16.98 84.63 16.98 81.12 20.61 84.78 25.42"/>
  <path class="cls-1" d="m89.35,18.69l-1.45,3.38h2.91l-1.46-3.38Zm4.43,6.73h-1.57l-.86-2.04h-3.99l-.87,2.04h-1.52l3.71-8.5h1.38l3.71,8.5Z"/>
  <path class="cls-1" d="m3,3.68c-.07.37-.15.83.57,1.55l5.24,5.24h.37l5.24-5.24c.72-.72.63-1.18.56-1.54-.05-.25-.08-.41.16-.65l2.01-2.01-1.03-1.03-2.01,2.01c-.17.17-.29.19-.39.19-.08,0-.16-.02-.25-.03-.11-.02-.23-.04-.37-.04-.39,0-.77.19-1.18.61l-2.93,2.93-2.93-2.93c-.41-.41-.79-.61-1.17-.61-.14,0-.26.02-.37.04-.09.02-.17.03-.25.03-.1,0-.22-.02-.4-.2L1.87,0,.84,1.03l2.01,2.01c.23.23.2.39.16.64"/>
  <path class="cls-1" d="m3.54,9.84c0-1.02-.39-1.28-.69-1.49-.21-.15-.34-.23-.34-.58v-2.84h-1.46v2.84c0,.33-.13.42-.34.56-.31.21-.7.48-.7,1.5v7.67h3.54v-7.67Z"/>
  <path class="cls-1" d="m17.3,8.36c-.21-.14-.34-.23-.34-.57v-2.84h-1.46v2.84c0,.33-.13.42-.34.56-.31.21-.7.48-.7,1.5v7.68h3.54v-7.68c0-1.02-.39-1.28-.69-1.49"/>
  <path class="cls-1" d="m14.12,20.2c-.17.17-.29.19-.39.19-.08,0-.16-.02-.25-.03-.11-.02-.23-.04-.37-.04-.39,0-.77.19-1.18.61l-2.93,2.93-2.93-2.93c-.41-.41-.79-.61-1.17-.61-.14,0-.26.02-.37.04-.09.02-.17.03-.25.03-.1,0-.22-.02-.4-.2l-2.01-2.01-1.03,1.03,2.01,2.01c.23.23.2.39.16.64-.07.37-.15.83.57,1.55l5.24,5.24h.37l5.24-5.24c.72-.72.63-1.18.56-1.54-.05-.25-.08-.41.16-.65l2.01-2.01-1.03-1.03-2.01,2.01Z"/>
</svg>