<?xml version="1.0" encoding="UTF-8"?>
<svg id="Vrstva_1" data-name="Vrstva 1" xmlns="http://www.w3.org/2000/svg" viewBox="0 0 94.04 37.78">
  <defs>
    <style>
      .cls-1, .cls-2 {
        stroke-width: 0px;
      }

      .cls-2 {
        fill: #1d1d1b;
      }
    </style>
  </defs>
  <path class="cls-2" d="m47.02,37.78C21.09,37.78,0,29.31,0,18.89S21.09,0,47.02,0s47.02,8.47,47.02,18.89-21.09,18.89-47.02,18.89Zm0-36.83C21.62.95.95,9,.95,18.89s20.67,17.94,46.07,17.94,46.07-8.05,46.07-17.94S72.42.95,47.02.95Z"/>
  <path class="cls-1" d="m21.42,7.62c-.2-.41-.53-.54-1.01-.4-.55.17-.83.57-.7,1.01.11.37.38.49,1.11.48.82,0,1.16.02,1.44.13.27.1.49.36.58.67.23.76-.29,1.49-1.28,1.79-.6.18-1.14.14-1.49-.1-.21-.15-.34-.34-.48-.69l.65-.19c.13.31.22.41.41.5.21.1.48.1.78.01.6-.18.91-.6.76-1.07-.06-.19-.18-.33-.36-.39-.22-.08-.42-.09-.98-.08-.66,0-.95-.04-1.23-.18-.26-.13-.47-.38-.55-.66-.21-.72.28-1.42,1.19-1.7.53-.16,1.02-.14,1.34.06.19.13.31.29.46.6l-.65.19Z"/>
  <polygon class="cls-1" points="25.71 5.48 25.82 5.97 23.71 6.45 24.02 7.84 26 7.39 26.11 7.89 24.13 8.33 24.49 9.92 26.66 9.43 26.78 9.92 23.95 10.55 22.95 6.1 25.71 5.48"/>
  <path class="cls-1" d="m28.36,5.01c.58-.1.88-.09,1.18.03.33.12.57.43.63.8.05.33-.03.64-.24.86-.15.15-.28.24-.61.37.38.02.57.08.74.24.11.11.2.29.27.52l.04.16.05.16.05.16c.16.56.23.75.32.92l-.7.12c-.13-.34-.25-.67-.33-1.03-.13-.53-.2-.7-.35-.8-.14-.1-.41-.11-.78-.05l-.79.13.35,2.07-.65.11-.76-4.5,1.57-.26Zm.21,1.96c.35-.06.57-.14.73-.26.18-.14.26-.4.22-.66-.05-.28-.21-.47-.46-.54-.19-.05-.32-.05-.72.02l-.81.14.24,1.44.8-.14Z"/>
  <path class="cls-1" d="m33.57,8.88l-.74.09-2.27-4.32.72-.09,1.23,2.46c.21.42.14.28.22.43.15.32.07.16.24.52.09.19.09.2.18.37l.02-.09.02-.09.02-.09c.18-.92.12-.65.24-1.17l.62-2.68.67-.08-1.16,4.74Z"/>
  <rect class="cls-1" x="35.61" y="4.05" width=".66" height="4.57" transform="translate(-.43 3.33) rotate(-5.28)"/>
  <path class="cls-1" d="m39.69,4.84c-.1-.45-.39-.65-.89-.61-.57.04-.94.37-.91.83.02.38.26.56.97.72.79.17,1.12.28,1.37.45.24.16.39.45.42.78.05.79-.62,1.39-1.65,1.45-.63.04-1.15-.12-1.43-.43-.17-.19-.26-.41-.31-.77l.68-.05c.05.33.12.45.29.58.18.14.45.2.75.18.63-.04,1.02-.38.98-.87-.01-.2-.11-.36-.27-.46-.2-.12-.39-.19-.94-.3-.65-.14-.92-.25-1.16-.45-.22-.19-.36-.47-.39-.77-.05-.75.59-1.32,1.54-1.38.56-.04,1.02.09,1.29.36.16.17.24.35.32.69l-.68.05Z"/>
  <polygon class="cls-1" points="44.28 6.64 42.66 6.69 42.65 6.15 44.26 6.11 44.28 6.64"/>
  <path class="cls-1" d="m50.12,6.93c-.12.81-.78,1.3-1.74,1.29-1.22-.01-2.01-.92-2-2.3,0-.65.2-1.29.51-1.71.34-.46.92-.72,1.59-.72.54,0,1,.2,1.29.52.17.2.24.39.3.73h-.68c-.07-.48-.4-.76-.92-.76-.47,0-.87.22-1.09.61-.19.34-.3.81-.31,1.26-.01,1.14.52,1.88,1.34,1.89.55,0,.89-.27,1.03-.81h.69Z"/>
  <polygon class="cls-1" points="54.45 8.34 53.78 8.31 53.88 6.19 51.58 6.08 51.48 8.21 50.82 8.18 51.03 3.61 51.69 3.65 51.6 5.57 53.9 5.68 53.99 3.75 54.65 3.78 54.45 8.34"/>
  <polygon class="cls-1" points="56.18 7.97 58.38 8.15 58.34 8.65 55.48 8.42 55.85 3.87 56.51 3.92 56.18 7.97"/>
  <path class="cls-1" d="m62.91,9.19l-.71-.09-.31-1.2-2.19-.26-.57,1.09-.68-.08,2.41-4.31.71.09,1.34,4.76Zm-1.77-4.31l-1.19,2.28,1.81.22-.62-2.5Z"/>
  <polygon class="cls-1" points="67.27 5.3 67.19 5.8 64.02 8.86 66.73 9.32 66.64 9.82 63.19 9.24 63.27 8.74 66.42 5.67 64.01 5.26 64.09 4.76 67.27 5.3"/>
  <polygon class="cls-1" points="71.07 6.12 70.96 6.62 68.85 6.14 68.54 7.53 70.52 7.98 70.41 8.47 68.43 8.03 68.07 9.61 70.25 10.1 70.14 10.59 67.32 9.96 68.31 5.51 71.07 6.12"/>
  <polygon class="cls-1" points="74.44 11.86 73.55 11.59 72.56 7.27 71.44 10.94 70.88 10.77 72.23 6.4 73.07 6.66 74.07 11.11 75.23 7.33 75.78 7.5 74.44 11.86"/>
  <path class="cls-1" d="m75.95,12.5l-.61-.25,1.73-4.23.61.25-1.73,4.22Zm2.79-5.32l-1.11.63-.42-.17.96-.69.57.23Z"/>
  <polygon class="cls-1" points="27.97 30.12 27.89 30.55 26.63 30.29 25.92 33.75 25.36 33.64 26.07 30.18 24.81 29.92 24.9 29.49 27.97 30.12"/>
  <path class="cls-1" d="m29.79,33.56c-.17.59-.66.85-1.35.73-.81-.14-1.21-.77-1.06-1.65.15-.88.76-1.34,1.58-1.2.51.09.86.4.97.86.05.23.05.49-.02.87l-2.01-.35v.04c-.03.19-.02.4.04.58.08.27.29.44.59.49.39.07.65-.1.77-.47l.5.09Zm-.35-.83c.06-.54-.13-.86-.58-.93-.42-.07-.76.18-.89.68l1.48.25Z"/>
  <polygon class="cls-1" points="30.96 34.62 30.44 34.55 31.02 30.62 31.54 30.69 30.96 34.62"/>
  <rect class="cls-1" x="31.88" y="34.23" width=".53" height=".57" transform="translate(-6.3 61.85) rotate(-82.45)"/>
  <path class="cls-1" d="m33.79,34.99l-.57-.07.06-.53.57.07-.06.53Zm.27-2.22l-.57-.07.06-.52.57.07-.06.52Z"/>
  <path class="cls-1" d="m38.58,32.43c0-.45-.17-.65-.56-.68-.33-.03-.6.09-.78.34-.16.23-.32.74-.35,1.12,0,.06-.01.11-.01.2.26-.46.63-.67,1.12-.63.69.06,1.16.65,1.1,1.4-.06.8-.68,1.32-1.47,1.26-.94-.08-1.38-.77-1.27-2.04.05-.61.17-1.05.39-1.41.29-.47.71-.67,1.3-.62.43.04.77.22.94.51.1.16.13.34.14.62l-.55-.05Zm-1.64,1.61c-.05.56.25.94.74.98.46.04.81-.32.85-.87.05-.58-.22-.96-.69-1-.51-.04-.85.29-.9.89"/>
  <path class="cls-1" d="m42.98,33.69c-.02.52-.17,1.01-.4,1.36-.27.41-.75.64-1.27.62-.93-.05-1.49-.86-1.43-2.09.06-1.29.7-2.04,1.69-1.99.92.04,1.47.86,1.41,2.11m-2.52-.09c-.05,1.03.28,1.64.89,1.67.61.03,1-.56,1.05-1.57.02-.47-.02-.85-.12-1.12-.13-.35-.43-.58-.75-.6-.63-.03-1.01.55-1.06,1.62"/>
  <path class="cls-1" d="m43.71,35.7v-.48c.38-.31.56-.46.79-.68.4-.36.73-.71.92-.95.26-.33.36-.57.36-.82,0-.38-.29-.67-.71-.68-.43,0-.65.21-.72.76h-.6c.05-.43.11-.59.28-.78.24-.26.57-.38,1.02-.38.81.01,1.32.43,1.31,1.07,0,.49-.23.85-.92,1.53-.31.3-.62.58-1.12,1l2.14.03v.42s-2.74-.05-2.74-.05Z"/>
  <polygon class="cls-1" points="51.52 31.69 51.53 32.11 50.18 35.7 49.56 35.72 50.99 32.13 48.94 32.18 48.93 31.76 51.52 31.69"/>
  <path class="cls-1" d="m52.71,35.61l-.03-.48c.35-.34.51-.5.73-.73.36-.39.68-.76.84-1.02.23-.35.32-.6.3-.85-.03-.38-.34-.65-.76-.62-.43.03-.63.26-.66.81l-.6.04c.02-.42.07-.59.22-.79.22-.28.54-.43.99-.45.8-.05,1.34.33,1.38.97.03.49-.16.87-.81,1.59-.28.32-.58.62-1.04,1.08l2.13-.13.03.42-2.73.16Z"/>
  <path class="cls-1" d="m58.45,33.09c-.22.41-.54.62-.96.66-.67.06-1.23-.41-1.29-1.1-.07-.77.41-1.34,1.18-1.42.48-.05.93.15,1.19.52.22.31.36.76.41,1.33.06.69.01,1.16-.17,1.54-.18.39-.59.65-1.08.69-.73.07-1.23-.26-1.37-.93l.55-.05c.12.42.37.62.78.58.63-.06.88-.61.77-1.72v-.11Zm-1.68-.56c.05.54.38.85.86.81.46-.04.72-.41.68-.92-.05-.5-.41-.83-.86-.78-.46.04-.72.4-.67.9"/>
  <polygon class="cls-1" points="63.77 30.51 63.82 30.93 62.9 34.65 62.28 34.74 63.29 31.01 61.26 31.3 61.2 30.88 63.77 30.51"/>
  <path class="cls-1" d="m67.21,31.81c-.19.43-.47.67-.9.75-.66.12-1.26-.3-1.39-.98-.14-.76.29-1.37,1.05-1.52.47-.09.94.06,1.22.41.25.29.42.72.53,1.29.12.68.12,1.15-.03,1.54-.15.4-.53.7-1.02.79-.73.13-1.25-.15-1.44-.8l.54-.1c.16.41.42.58.83.51.62-.11.82-.68.61-1.78l-.02-.11Zm-1.73-.41c.1.53.46.82.93.73.45-.08.68-.47.58-.98-.09-.49-.48-.78-.92-.7-.45.08-.68.46-.59.95"/>
  <path class="cls-1" d="m69.13,33.55l-.11-.47c.29-.39.42-.58.59-.85.29-.44.54-.87.66-1.14.17-.39.21-.64.15-.89-.09-.37-.45-.58-.85-.49-.42.1-.58.37-.52.91l-.58.13c-.05-.42-.03-.59.09-.82.17-.31.46-.51.9-.61.78-.18,1.38.1,1.52.72.11.48-.01.88-.53,1.71-.23.36-.47.71-.85,1.24l2.08-.48.09.41-2.66.62Z"/>
  <path class="cls-1" d="m22.86,19.04v2.16c0,.8.07.92.53.94.21.01.26.04.26.12v.41c0,.06-.02.08-.09.08s-.19,0-.31-.01c-.48-.02-.96-.04-1.44-.04s-.97.01-1.48.04c-.12.01-.26.01-.32.01s-.09-.02-.09-.08v-.41c0-.09.01-.09.26-.12.49-.04.55-.13.55-.94v-4.7c0-.79-.07-.92-.55-.93-.21-.01-.26-.04-.26-.12v-.41c0-.06.02-.08.09-.08.04,0,.2,0,.32.01.56.02,1.07.04,1.44.04.47,0,.93-.01,1.49-.04.11-.01.27-.01.31-.01.07,0,.09.02.09.08v.41c0,.08-.04.11-.26.12-.47.01-.53.14-.53.93v1.98h2.41v-1.98c0-.79-.07-.92-.55-.93-.21-.01-.26-.04-.26-.12v-.41c0-.06.02-.08.09-.08.04,0,.2,0,.33.01.56.02,1.06.04,1.43.04.41,0,.89-.01,1.48-.04.12-.01.28-.01.32-.01.07,0,.09.02.09.08v.41c0,.08-.04.11-.26.12-.48.01-.55.14-.55.93v4.7c0,.86.03.91.67.95.1.01.13.04.13.1v.41c0,.06-.02.08-.09.08s-.2,0-.32-.01c-.5-.02-.99-.04-1.44-.04-.49,0-.97.01-1.48.04-.12.01-.26.01-.33.01s-.09-.02-.09-.08v-.41c0-.09.01-.09.26-.12.49-.04.55-.13.55-.94v-2.16h-2.41Z"/>
  <path class="cls-1" d="m30.79,19.68l-.51,1.64c-.12.36-.13.42-.13.54,0,.23.23.33.79.31.11,0,.13.01.13.12v.35c0,.08-.03.1-.14.1h-.11c-.07-.01-.13-.01-.2-.01-.59-.02-.96-.04-1.21-.04-.13,0-.41.01-.66.03-.14.01-.3.02-.34.02-.12,0-.16-.02-.16-.13v-.32c0-.08.03-.12.12-.12.68.01.86-.17,1.33-1.43l1.68-4.53c.11-.3.19-.52.22-.64.21-.66.21-.65.36-.65.03,0,.14,0,.28.01h.24c.2,0,.47-.01.53-.01.09-.01.17-.03.21-.03.08,0,.11.04.13.15.02.07.12.38.28.8l.24.7.12.34,1.54,4.04c.42,1.12.48,1.17,1.07,1.22.09.01.1.02.1.14v.35c0,.08-.03.1-.13.1-.07,0-.26-.01-.51-.01-.88-.02-1.61-.04-1.68-.04-.11,0-.49.01-.9.04-.21,0-.5.01-.6.01s-.15-.02-.15-.09v-.37q0-.12.27-.13c.41-.01.59-.1.59-.33,0-.09.01-.03-.14-.52l-.54-1.63h-2.11Zm1-3.17l-.8,2.57h1.69l-.88-2.57Z"/>
  <path class="cls-1" d="m38.36,21.23v.1s.01.14.01.26c0,.44.11.52.68.56.1,0,.13.04.13.1v.41c0,.06-.02.08-.09.08-.02,0-.16-.01-.31-.01-.08-.01-.21-.01-.4-.01h-.52c-.45,0-.52,0-.68.01-.14,0-.29.01-.32.01-.07,0-.09-.02-.09-.08v-.41c0-.08.05-.1.26-.12.51-.02.58-.13.58-.94v-4.7c0-.82-.07-.92-.58-.93-.21-.01-.26-.04-.26-.12v-.41c0-.06.02-.08.09-.08.04,0,.21,0,.32.01.48.01.8.02.98.02.15,0,.37-.01.56-.02.14-.01.29-.01.37-.01.14,0,.19.03.31.23.02.05.17.23.37.5l.17.22.18.22.17.23,3.26,3.98-.04-3.86c-.01-.87-.02-.9-.67-.94-.1-.01-.13-.03-.13-.11v-.41c0-.06.02-.08.09-.08.06,0,.21,0,.32.01h.49s.25.02.25.02c.04,0,.38-.01.83-.02.1-.01.25-.01.31-.01s.09.02.09.08v.41c0,.08-.06.11-.29.12-.46.01-.53.14-.53.93v3.99c.02,1.18,0,.74.02,1.44.01.36,0,.23.01.39v.24c0,.15-.03.17-.19.17-.02,0-.09,0-.15-.01-.16-.01-.25-.01-.33-.01h-.15c-.49.01-.5.01-.55.02-.08.01-.14.01-.16.01-.14-.01-.2-.07-.58-.55-.57-.72-.3-.37-.82-1.05l-3.07-3.97.07,4.04Z"/>
  <path class="cls-1" d="m47.58,19.68l-.51,1.64c-.12.36-.13.42-.13.55,0,.23.24.33.79.31.11,0,.13.01.13.12v.35c0,.08-.03.1-.14.1h-.11c-.07-.01-.13-.01-.2-.01-.59-.02-.96-.04-1.22-.04-.14,0-.41.01-.66.02-.13.01-.3.02-.34.02-.12,0-.16-.02-.16-.13v-.32c0-.08.03-.12.12-.12.68.01.86-.17,1.33-1.43l1.68-4.53c.11-.3.19-.52.22-.64.21-.66.21-.65.36-.65.04,0,.15,0,.28.01h.23c.2,0,.47-.01.54-.01.09-.01.16-.02.21-.02.08,0,.11.04.14.15.02.07.12.38.28.8l.25.7.12.34,1.54,4.04c.43,1.12.48,1.18,1.07,1.22.09.01.1.02.1.14v.35c0,.08-.03.1-.13.1-.07,0-.26-.01-.52-.01-.88-.02-1.61-.04-1.68-.04-.11,0-.49.01-.91.04-.21,0-.5.01-.6.01s-.15-.02-.15-.09v-.37q0-.12.27-.13c.41-.01.59-.11.59-.33,0-.09.01-.04-.15-.52l-.53-1.63h-2.11Zm1.01-3.17l-.8,2.57h1.68l-.88-2.57m.26-2.11c-.08,0-.12-.02-.12-.06,0-.02.01-.05.05-.09l1-1.39c.34-.46.59-.64.93-.64.4,0,.69.27.69.63,0,.19-.09.36-.26.51q-.08.06-.56.32l-1.06.58c-.2.12-.28.14-.37.14h-.3Z"/>
  <path class="cls-1" d="m59.83,17.12c-.15,0-.18-.02-.2-.21-.04-.36-.28-.92-.48-1.12-.27-.28-.67-.41-1.17-.41-1.34,0-1.93,1.05-1.93,3.41,0,2.57.53,3.53,1.98,3.53.67,0,1.22-.34,1.42-.89.05-.13.06-.16.22-.75.03-.15.04-.16.22-.16h.67c.06,0,.08.03.08.12-.02.35-.01.27-.02.51,0,.26-.01.58-.01.66,0,.1,0,.18.01.29.01.15.02.27.02.3.01.14-.02.16-.27.18-.03,0-.23.04-.52.09-.04.01-.24.04-.52.08l-.23.04c-.74.12-.86.13-1.39.13-1.55,0-2.53-.37-3.17-1.22-.51-.68-.78-1.65-.78-2.86,0-2.79,1.23-4.05,3.94-4.05.95,0,2.25.14,2.71.29.18.06.21.09.2.22-.02.49-.02.52-.02.88,0,.23,0,.37.01.48.01.13.01.26.01.3,0,.12-.05.16-.12.16h-.66Zm-1.1-4.68q.06-.06.13-.06h.58c.09,0,.12.03.12.06,0,.02-.01.05-.03.09l-1.17,1.76c-.04.08-.05.08-.15.08h-1.14c-.08,0-.09,0-.13-.07l-1.19-1.77s-.04-.08-.04-.09c0-.05.03-.06.12-.06h.59q.08,0,.14.05l1.11.95,1.05-.94Z"/>
  <path class="cls-1" d="m64.25,20.88c0,.63,0,.56.03,1.26.13.01.2.01.33.01h.46c.74,0,1.06-.14,1.26-.54.05-.12.11-.31.19-.69.04-.17.07-.3.08-.37.02-.2.07-.23.23-.23h.47c.19,0,.21.07.21.82v.52c0,.28,0,.49.01.63v.28c0,.14-.03.17-.2.17-.03,0-.23-.01-.39-.01-.6-.02-1.39-.04-2.34-.04h-1.42c-.47,0-.96.01-1.46.04-.12.01-.26.01-.32.01s-.09-.02-.09-.08v-.41c0-.08.05-.1.26-.12.48-.02.55-.14.55-.93v-4.71c0-.43-.03-.65-.1-.78-.09-.14-.07-.13-.57-.18-.1-.01-.13-.04-.13-.1v-.41s.02-.07.09-.07.18,0,.32.01c.72.01,1.26.02,1.46.02h1.91c.56-.01.96-.01.96-.01.62-.01,1.08-.01,1.25-.02.14-.01.15.01.15.14,0,.03,0,.16-.01.26,0,.14,0,.28,0,.37,0,.11,0,.27,0,.5.01.24.01.51.01.71,0,.13-.02.15-.15.15h-.5c-.21,0-.23-.02-.23-.24-.01-.08-.06-.36-.1-.6-.12-.56-.38-.74-1.09-.74h-.6c-.17,0-.28.01-.51.05v2.68h.08c.62,0,.8-.13,1.04-.77.1-.27.11-.28.21-.28h.41c.1,0,.12.04.12.18l-.02,1.34c0,.31,0,.45.01.57.02.24.04.44.04.5,0,.09-.03.13-.15.13h-.46c-.1,0-.12-.02-.14-.15-.03-.22-.15-.55-.23-.66-.18-.24-.28-.28-.84-.28h-.08v2.09Z"/>
  <path class="cls-1" d="m70.88,18.5c.55-.58,1.05-1.16,1.34-1.56,1.03-1.42.87-1.18.87-1.27s-.03-.09-.22-.13c-.03,0-.05-.03-.05-.09v-.41c0-.06.04-.09.11-.09.08,0,.31.01.59.02.05.01.19.01.49.01h.25c.27,0,.37,0,.44-.01.2-.01.36-.02.41-.02.07,0,.09.02.09.08v.42s-.03.07-.1.07c-.81.07-1.24.37-2.35,1.71l-.41.49,2.1,3.34c.79,1.13.72,1.07,1.34,1.11.08,0,.09.02.09.11v.39s-.03.07-.1.07c-.09,0-.27-.01-.44-.02-.31-.01-.64-.03-.95-.03-.24,0-.4,0-.57.01-.24.02-.47.04-.5.04-.12,0-.16-.02-.22-.15-.25-.44-.48-.84-.86-1.43l-.46-.72-.1-.17-.11-.19c-.14-.23-.07-.1-.25-.37-.33-.52-.28-.44-.46-.74h-.06v2.23c0,.8.07.92.55.94.2.01.24.03.24.11v.41c0,.06-.02.08-.08.08-.1,0-.2,0-.32-.01-.45-.02-.89-.04-1.44-.04-.47,0-.99.01-1.48.04-.12.01-.27.01-.33.01-.07,0-.09-.02-.09-.08v-.41c0-.08.04-.1.26-.11.48-.02.55-.14.55-.94v-4.69c0-.8-.07-.93-.55-.94-.21-.01-.26-.04-.26-.12v-.41c0-.06.02-.08.09-.08.04,0,.2,0,.33.01.56.02,1.09.04,1.51.04.5,0,.95-.01,1.41-.04.09-.01.21-.01.25-.01.07,0,.09.02.09.08v.41c0,.08-.01.09-.26.12-.4.02-.47.17-.47.94v2h.08Z"/>
  <polygon class="cls-1" points="89.06 16.88 89.03 16.63 87.57 16.81 86.03 15.92 87.57 15.03 89.03 15.21 89.06 14.96 87.92 14.83 89.31 14.03 89.19 13.82 87.8 14.62 88.25 13.56 88.03 13.47 87.45 14.82 85.91 15.71 85.91 13.93 86.79 12.75 86.6 12.61 85.91 13.52 85.91 11.92 85.67 11.92 85.67 13.52 84.99 12.61 84.79 12.75 85.67 13.93 85.67 15.7 84.13 14.82 83.55 13.46 83.33 13.56 83.78 14.61 82.39 13.81 82.27 14.02 83.66 14.82 82.52 14.96 82.55 15.2 84.01 15.03 85.54 15.91 84.01 16.8 82.54 16.63 82.52 16.87 83.66 17.01 82.27 17.81 82.39 18.02 83.78 17.22 83.32 18.27 83.55 18.36 84.13 17.01 85.66 16.13 85.66 17.9 84.78 19.08 84.98 19.23 85.66 18.31 85.66 19.91 85.91 19.91 85.91 18.31 86.59 19.23 86.79 19.08 85.91 17.9 85.91 16.13 87.44 17.02 88.03 18.37 88.25 18.27 87.79 17.22 89.19 18.02 89.31 17.81 87.92 17.01 89.06 16.88"/>
  <polygon class="cls-1" points="16.21 22.29 16.17 21.9 13.81 22.18 11.34 20.75 13.81 19.32 16.17 19.6 16.22 19.21 14.38 18.99 16.62 17.7 16.42 17.36 14.19 18.65 14.92 16.95 14.56 16.8 13.62 18.98 11.14 20.41 11.14 17.55 12.57 15.64 12.25 15.4 11.14 16.89 11.14 14.3 10.75 14.3 10.75 16.88 9.65 15.4 9.33 15.64 10.75 17.54 10.75 20.4 8.27 18.97 7.33 16.79 6.97 16.94 7.7 18.64 5.46 17.35 5.26 17.69 7.5 18.98 5.67 19.2 5.71 19.59 8.07 19.31 10.55 20.74 8.07 22.17 5.71 21.89 5.66 22.28 7.5 22.5 5.26 23.79 5.46 24.14 7.69 22.84 6.97 24.54 7.33 24.69 8.26 22.51 10.74 21.08 10.74 23.94 9.32 25.85 9.63 26.09 10.74 24.6 10.74 27.19 11.14 27.19 11.14 24.61 12.24 26.08 12.55 25.85 11.14 23.95 11.13 21.09 13.61 22.52 14.55 24.7 14.91 24.55 14.18 22.85 16.42 24.14 16.62 23.8 14.38 22.51 16.21 22.29"/>
  <polygon class="cls-1" points="80.34 28.27 80.32 28.1 79.27 28.22 78.17 27.59 79.27 26.95 80.32 27.08 80.34 26.9 79.53 26.81 80.52 26.23 80.44 26.08 79.44 26.65 79.76 25.9 79.6 25.83 79.19 26.8 78.09 27.44 78.09 26.17 78.72 25.32 78.58 25.21 78.09 25.87 78.09 24.73 77.91 24.73 77.91 25.87 77.42 25.21 77.28 25.32 77.91 26.16 77.91 27.43 76.81 26.8 76.39 25.83 76.23 25.9 76.56 26.65 75.56 26.08 75.48 26.23 76.47 26.8 75.66 26.9 75.68 27.08 76.72 26.95 77.82 27.59 76.72 28.22 75.67 28.1 75.65 28.27 76.47 28.37 75.48 28.94 75.56 29.09 76.55 28.52 76.23 29.27 76.39 29.34 76.81 28.37 77.91 27.74 77.91 29.01 77.28 29.85 77.42 29.96 77.91 29.3 77.91 30.45 78.08 30.45 78.08 29.3 78.57 29.96 78.71 29.85 78.08 29.01 78.08 27.74 79.18 28.38 79.6 29.34 79.76 29.28 79.44 28.52 80.43 29.09 80.52 28.94 79.53 28.37 80.34 28.27"/>
</svg>