<?xml version="1.0" encoding="UTF-8"?>
<svg id="Vrstva_1" data-name="Vrstva 1" xmlns="http://www.w3.org/2000/svg" viewBox="0 0 58.62 28.5">
  <defs>
    <style>
      .cls-1 {
        stroke-width: 0px;
      }
    </style>
  </defs>
  <polygon class="cls-1" points="6.4 1.76 3.78 1.76 3.78 10.87 2.61 10.87 2.61 1.76 0 1.76 0 .45 6.4 .45 6.4 1.76"/>
  <path class="cls-1" d="m9.67,3.29v1.35c-.95-.04-1.98.52-1.98,2.28v3.95h-1.1V3.43h1.1v1.25c.41-1.04,1.18-1.39,1.98-1.39"/>
  <path class="cls-1" d="m16.23,3.43v7.45h-1.1v-1.07c-.47.88-1.17,1.27-2.05,1.27-1.48,0-2.46-1.16-2.46-3.07V3.43h1.1v4.5c0,1.22.6,1.91,1.57,1.91s1.84-.7,1.84-2.46v-3.95h1.1Z"/>
  <path class="cls-1" d="m23.51,6.3v4.57h-1.1v-4.5c0-1.22-.6-1.91-1.57-1.91s-1.84.7-1.84,2.46v3.95h-1.1V.45h1.1v4.05c.47-.88,1.17-1.27,2.05-1.27,1.48,0,2.46,1.16,2.46,3.07"/>
  <rect class="cls-1" x="25.05" width="1.1" height="10.87"/>
  <path class="cls-1" d="m34.19,3.43v7.45h-1.1v-1.28c-.51.91-1.32,1.47-2.4,1.47-1.76,0-3.21-1.71-3.21-3.92s1.45-3.92,3.21-3.92c1.08,0,1.89.57,2.4,1.48v-1.28h1.1Zm-1.1,3.72c0-1.52-.98-2.67-2.26-2.67s-2.24,1.15-2.24,2.67.98,2.67,2.24,2.67,2.26-1.15,2.26-2.67m-1.9-4.74h-1.07l1.01-1.97h1.33l-1.28,1.97Z"/>
  <path class="cls-1" d="m35.42.45h1.18l.77,1.21.77-1.21h1.18l-1.35,2.01h-1.22l-1.34-2.01Zm3.52,2.84v1.35c-.95-.04-1.98.52-1.98,2.28v3.95h-1.1V3.43h1.1v1.25c.41-1.04,1.18-1.39,1.98-1.39"/>
  <path class="cls-1" d="m44.28,8.83c0,1.39-1.01,2.23-2.37,2.23-1.27,0-2.15-.71-2.52-1.74l.95-.64c.2.71.79,1.16,1.57,1.16.67,0,1.26-.28,1.26-1.01,0-1.59-3.55-.69-3.55-3.38,0-1.31.96-2.22,2.24-2.22,1.04,0,1.88.58,2.28,1.55l-.92.61c-.24-.67-.8-.95-1.36-.95s-1.13.33-1.13,1c0,1.59,3.55.66,3.55,3.4"/>
  <path class="cls-1" d="m47.09,4.68v4.04c0,1.13.56,1.06,1.69,1v1.16c-1.9.3-2.79-.3-2.79-2.16v-4.04h-1.25v-1.25h1.25v-1.7l1.1-.39v2.09h1.69v1.25h-1.69Z"/>
  <polygon class="cls-1" points="55.75 3.43 53.21 10.87 51.92 10.87 49.38 3.43 50.57 3.43 52.56 9.49 54.56 3.43 55.75 3.43"/>
  <path class="cls-1" d="m56.68,3.43h1.1v7.45h-1.1V3.43Zm1.1-.97l.84-2.01h-1.31l-.59,2.01h1.07Z"/>
  <polygon class="cls-1" points="9.95 25.52 6.11 20.51 6.11 25.52 4.94 25.52 4.94 15.09 6.11 15.09 6.11 19.8 9.82 15.09 11.26 15.09 7.34 20.16 11.39 25.52 9.95 25.52"/>
  <path class="cls-1" d="m11.4,21.79c0-2.2,1.48-3.92,3.33-3.92s3.35,1.71,3.35,3.92-1.5,3.92-3.35,3.92-3.33-1.71-3.33-3.92m5.58,0c0-1.5-.98-2.65-2.25-2.65s-2.23,1.15-2.23,2.65.98,2.65,2.23,2.65,2.25-1.15,2.25-2.65"/>
  <path class="cls-1" d="m26.09,21.79c0,2.21-1.45,3.92-3.21,3.92-1.08,0-1.89-.57-2.4-1.47v4.26h-1.1v-10.43h1.1v1.28c.51-.91,1.32-1.48,2.4-1.48,1.76,0,3.21,1.71,3.21,3.92m-1.1,0c0-1.52-.98-2.66-2.24-2.66s-2.26,1.15-2.26,2.66.98,2.67,2.26,2.67,2.24-1.15,2.24-2.67"/>
  <path class="cls-1" d="m30.48,24.49c.88,0,1.51-.48,1.83-1.09l.94.62c-.56,1.01-1.52,1.68-2.79,1.68-2.04,0-3.4-1.68-3.4-3.92s1.34-3.92,3.32-3.92,3.16,1.85,3.16,3.93c0,.19-.01.39-.04.58h-5.31c.22,1.34,1.12,2.1,2.29,2.1m-2.29-3.23h4.23c-.19-1.47-1.09-2.16-2.04-2.16-1.19,0-2.02.86-2.19,2.16"/>
  <path class="cls-1" d="m40.62,23.77c-.53,1.16-1.61,1.93-2.85,1.93-1.91,0-3.34-1.71-3.34-3.92s1.42-3.92,3.34-3.92c1.26,0,2.32.78,2.8,1.95l-.93.62c-.32-.79-1.03-1.31-1.88-1.31-1.27,0-2.23,1.15-2.23,2.65s.96,2.64,2.23,2.64c.86,0,1.56-.52,1.91-1.3l.94.64Zm-4.92-8.68h1.18l.77,1.21.77-1.21h1.18l-1.34,2.01h-1.22l-1.34-2.01Z"/>
  <path class="cls-1" d="m47.34,20.94v4.57h-1.1v-4.5c0-1.22-.6-1.91-1.57-1.91s-1.84.7-1.84,2.46v3.95h-1.1v-7.45h1.1v1.07c.47-.88,1.17-1.27,2.05-1.27,1.48,0,2.46,1.16,2.46,3.07"/>
  <path class="cls-1" d="m54.33,18.07l-2.59,7.91c-.53,1.67-1.52,2.62-2.82,2.52v-1.21c.85.07,1.38-.54,1.71-1.52l.11-.28-2.76-7.42h1.18l2.16,5.84,1.83-5.84h1.18Zm-2.89-1.01h-1.07l1.01-1.97h1.33l-1.28,1.97Z"/>
</svg>