<?xml version="1.0" encoding="UTF-8"?>
<svg id="Vrstva_1" data-name="Vrstva 1" xmlns="http://www.w3.org/2000/svg" viewBox="0 0 122.23 127.97">
  <defs>
    <style>
      .cls-1 {
        stroke-width: 0px;
      }
    </style>
  </defs>
  <path class="cls-1" d="m66.75,0c.09.19.28.16.43.17.79.08,1.58.13,2.36.23,1.03.14,2.06.29,3.09.48.95.17,1.89.38,2.83.61.89.22,1.77.49,2.66.75.61.17,1.22.35,1.83.53.47.15.94.31,1.4.48.69.25,1.38.5,2.06.78,1.1.46,2.2.93,3.29,1.41.76.34,1.51.7,2.26,1.07.74.37,1.47.75,2.18,1.15.89.5,1.78,1,2.63,1.57,1.39.92,2.77,1.86,4.1,2.86,1.23.92,2.41,1.9,3.58,2.9,1.93,1.65,3.72,3.45,5.41,5.34,1.41,1.58,2.75,3.23,3.99,4.94.75,1.04,1.47,2.1,2.15,3.19.82,1.33,1.61,2.69,2.35,4.07.62,1.16,1.18,2.35,1.73,3.54.33.72.61,1.45.9,2.19.33.83.65,1.65.95,2.49.21.59.39,1.19.58,1.78.16.51.33,1.02.48,1.54.13.44.23.89.35,1.33.08.29.16.57.23.86.19.78.37,1.56.55,2.34.09.4.18.79.24,1.19.19,1.2.37,2.41.53,3.62.07.55.1,1.11.15,1.67.02.17-.02.36.19.45v10.88c-.18.02-.18.16-.19.29-.2,1.68-.36,3.36-.6,5.03-.16,1.12-.42,2.22-.66,3.32-.2.92-.43,1.84-.67,2.75-.1.37-.25.73-.36,1.09-.09.29-.16.59-.26.88-.25.75-.51,1.49-.77,2.23-.16.44-.32.89-.49,1.32-.31.78-.62,1.57-.97,2.34-.51,1.14-1.05,2.27-1.6,3.39-.41.83-.86,1.65-1.33,2.46-.6,1.03-1.2,2.07-1.87,3.06-.96,1.43-1.97,2.83-2.98,4.22-.45.62-.97,1.19-1.46,1.78-1.66,2.05-3.52,3.92-5.45,5.72-.5.46-1,.93-1.52,1.36-1.66,1.38-3.36,2.72-5.16,3.92-1.26.84-2.52,1.68-3.81,2.46-.95.57-1.94,1.07-2.92,1.57-.95.49-1.9.96-2.86,1.41-.7.33-1.42.63-2.15.91-1.3.5-2.6,1-3.91,1.45-1.05.36-2.12.64-3.18.93-.6.17-1.21.29-1.82.43-.77.18-1.53.37-2.3.55-.43.1-.86.17-1.3.23-1.23.17-2.46.3-3.69.49-1.32.2-2.65.13-3.98.13-2.36.01-4.73,0-7.09,0-1.11,0-2.21-.16-3.31-.29-.71-.08-1.42-.13-2.13-.24-.99-.15-1.97-.32-2.95-.52-.72-.14-1.43-.34-2.14-.52-.68-.17-1.36-.33-2.04-.52-.53-.14-1.05-.31-1.57-.48-.76-.25-1.52-.5-2.27-.78-.86-.32-1.72-.67-2.57-1.01-.53-.21-1.06-.42-1.58-.66-.76-.35-1.51-.71-2.25-1.08-.72-.35-1.43-.71-2.14-1.08-1.52-.81-3-1.68-4.43-2.66-.79-.54-1.59-1.05-2.36-1.61-1.72-1.25-3.38-2.59-4.96-4.02-1.47-1.34-2.92-2.71-4.22-4.21-1.1-1.27-2.22-2.52-3.25-3.85-1.04-1.34-1.99-2.76-2.93-4.17-.69-1.04-1.34-2.11-1.96-3.2-.58-1.02-1.12-2.06-1.64-3.11-.49-.98-.94-1.98-1.37-2.99-.43-1.01-.83-2.03-1.21-3.06-.35-.93-.67-1.88-.98-2.83-.2-.62-.35-1.25-.52-1.87-.16-.59-.32-1.18-.48-1.78-.12-.46-.23-.92-.32-1.38-.13-.63-.26-1.27-.38-1.9-.09-.46-.17-.93-.23-1.4-.2-1.49-.49-2.97-.49-4.48,0-.17.01-.36-.19-.46,0-3.14,0-6.29,0-9.43.06-.15.17-.3.18-.46.15-1.31.27-2.62.41-3.93.08-.69.16-1.37.27-2.06.09-.52.23-1.03.34-1.54.07-.33.12-.67.2-1,.17-.76.32-1.52.54-2.27.36-1.24.76-2.47,1.15-3.7.24-.74.49-1.48.75-2.21.13-.37.3-.73.45-1.09.27-.63.52-1.28.8-1.9.4-.89.8-1.78,1.24-2.65.43-.88.87-1.75,1.36-2.59.59-1.04,1.21-2.06,1.86-3.07.68-1.05,1.37-2.1,2.11-3.1,1-1.33,2.02-2.66,3.11-3.92,1.16-1.34,2.39-2.63,3.65-3.89,1.68-1.68,3.48-3.21,5.37-4.65,1.59-1.21,3.21-2.38,4.92-3.42,1.1-.67,2.21-1.31,3.33-1.93,1.01-.55,2.04-1.07,3.08-1.57.82-.4,1.65-.78,2.49-1.12,1.12-.46,2.24-.9,3.37-1.3.98-.35,1.98-.63,2.98-.93.9-.27,1.81-.53,2.72-.77.49-.13.99-.18,1.49-.28.41-.08.81-.18,1.22-.27.52-.11,1.03-.22,1.55-.31.73-.12,1.45-.23,2.18-.31.63-.08,1.27-.11,1.9-.18.19-.02.4.02.53-.18h11.21Zm-5.61,121.52c1.96.03,3.91.05,5.86-.19.86-.11,1.72-.18,2.59-.28.07,0,.13-.02.2-.03,1.02-.19,2.05-.37,3.07-.56.48-.09.97-.19,1.45-.29.33-.07.67-.13.99-.22.68-.18,1.35-.36,2.03-.55.63-.18,1.26-.36,1.89-.56.5-.16,1-.33,1.5-.5.72-.25,1.45-.49,2.17-.77.77-.3,1.52-.62,2.27-.94.71-.3,1.41-.6,2.1-.93.79-.38,1.57-.79,2.34-1.2.85-.45,1.71-.9,2.54-1.4.91-.54,1.8-1.09,2.67-1.69,1.03-.71,2.04-1.44,3.03-2.21,1.2-.94,2.4-1.88,3.55-2.89.93-.81,1.78-1.73,2.68-2.58,1.35-1.28,2.56-2.69,3.74-4.12.77-.93,1.49-1.9,2.19-2.88.78-1.08,1.53-2.19,2.25-3.31.6-.93,1.15-1.89,1.69-2.86.49-.89.95-1.81,1.4-2.72.32-.64.62-1.28.92-1.93.15-.34.28-.68.42-1.03.34-.82.69-1.63,1.01-2.46.25-.65.46-1.32.68-1.98.27-.82.56-1.64.8-2.47.29-1.01.56-2.03.8-3.05.25-1.05.46-2.1.65-3.16.18-1,.31-2.02.44-3.03.09-.71.16-1.42.22-2.13.11-1.25.24-2.49.3-3.74.05-1.14.04-2.29,0-3.43-.04-1.07-.16-2.15-.24-3.22-.04-.47-.05-.94-.11-1.41-.1-.84-.16-1.68-.33-2.51-.24-1.15-.42-2.31-.63-3.46-.07-.37-.16-.73-.24-1.09-.11-.48-.21-.96-.33-1.44-.17-.69-.35-1.38-.55-2.07-.15-.54-.32-1.07-.5-1.6-.18-.55-.37-1.1-.56-1.64-.24-.68-.46-1.37-.73-2.04-.37-.92-.75-1.83-1.17-2.72-.59-1.26-1.19-2.51-1.82-3.75-.39-.77-.82-1.52-1.27-2.26-.65-1.07-1.29-2.14-2.01-3.16-1.01-1.42-2.07-2.81-3.14-4.19-.57-.73-1.19-1.43-1.82-2.12-.8-.88-1.62-1.76-2.46-2.61-.58-.59-1.18-1.15-1.8-1.69-.87-.77-1.75-1.54-2.64-2.28-.75-.62-1.54-1.19-2.31-1.79-1.21-.93-2.45-1.81-3.76-2.59-.92-.54-1.83-1.09-2.76-1.6-.86-.48-1.74-.93-2.62-1.37-.79-.39-1.59-.74-2.4-1.08-.81-.35-1.63-.69-2.46-1.02-.68-.27-1.38-.51-2.07-.75-.5-.17-1-.34-1.5-.5-.41-.13-.82-.24-1.23-.36-.84-.24-1.68-.5-2.53-.72-.56-.15-1.14-.25-1.7-.37-.68-.15-1.35-.31-2.03-.43-.97-.17-1.95-.33-2.93-.45-1.24-.14-2.49-.24-3.74-.35-.44-.04-.87-.1-1.31-.11-1.47-.02-2.94-.02-4.42-.02-.48,0-.97,0-1.45.04-1.24.11-2.47.22-3.7.36-.98.11-1.96.25-2.93.4-.66.1-1.32.2-1.98.34-.89.18-1.78.38-2.67.59-.64.15-1.28.31-1.91.49-.6.17-1.19.37-1.78.56-.55.17-1.11.33-1.66.52-.92.32-1.84.66-2.74,1.01-.77.3-1.54.63-2.3.97-.79.36-1.57.73-2.34,1.12-.9.46-1.8.92-2.68,1.42-1.1.63-2.19,1.29-3.27,1.97-.83.53-1.65,1.08-2.44,1.67-1.09.82-2.17,1.65-3.21,2.53-1.16.98-2.29,1.99-3.38,3.03-.97.93-1.91,1.91-2.81,2.92-1.08,1.22-2.12,2.46-3.11,3.75-.89,1.15-1.72,2.35-2.54,3.55-.56.83-1.07,1.69-1.57,2.55-.48.82-.93,1.67-1.37,2.51-.49.94-.97,1.89-1.42,2.85-.35.75-.66,1.53-.99,2.3-.17.39-.35.78-.49,1.18-.25.68-.49,1.36-.72,2.04-.27.81-.53,1.62-.78,2.44-.18.6-.35,1.2-.52,1.8-.12.41-.23.82-.33,1.24-.12.52-.23,1.05-.35,1.57-.09.44-.2.88-.27,1.32-.11.63-.22,1.25-.31,1.88-.12.88-.24,1.76-.34,2.64-.1.85-.18,1.7-.25,2.56-.08,1-.2,1.99-.22,2.99-.02,1.47.03,2.94.05,4.42,0,.09.01.18.02.26.13,1.26.25,2.51.38,3.77.07.63.15,1.26.24,1.89.09.61.18,1.22.3,1.82.15.76.33,1.52.5,2.28.14.62.27,1.24.41,1.86.07.3.16.59.25.89.18.65.36,1.31.56,1.95.16.53.34,1.06.52,1.59.17.5.33,1,.51,1.49.26.69.53,1.37.8,2.05.18.44.36.87.55,1.3.21.48.44.95.66,1.42.49,1.01.96,2.04,1.49,3.03.52.99,1.08,1.96,1.67,2.91.64,1.03,1.3,2.06,2,3.05.86,1.21,1.75,2.39,2.66,3.56.49.63,1.05,1.21,1.56,1.83,1.1,1.35,2.34,2.56,3.58,3.77,1.4,1.36,2.89,2.63,4.43,3.83.83.65,1.67,1.28,2.52,1.9.56.41,1.13.8,1.7,1.18.44.28.9.53,1.35.79.8.47,1.58.99,2.4,1.42,1.29.68,2.6,1.33,3.91,1.97.5.25,1.03.44,1.54.66.61.26,1.22.54,1.84.78.72.28,1.46.54,2.19.79.7.24,1.41.48,2.12.7.62.19,1.24.36,1.86.53.64.18,1.28.37,1.94.52.83.19,1.67.35,2.51.51.43.08.86.15,1.3.21.69.11,1.39.23,2.08.32.45.06.9.07,1.34.12,1,.11,2,.29,3.01.34,1.23.06,2.46.01,3.69.01Z"/>
  <path class="cls-1" d="m59.43,127.97c-.05-.06-.09-.14-.16-.19-.5-.38-.55-1.05-.14-1.43.25-.24.59-.33.94-.35.15,0,.3-.02.44-.03.06-.3-.01-.46-.25-.48-.21-.02-.43,0-.65.03-.13.01-.25.05-.37.08-.2-.26-.19-.47.05-.54.49-.15.99-.19,1.46.09.34.2.39.54.4.88,0,.27,0,.55,0,.82,0,.26,0,.53,0,.78-.07.12-.13.24-.2.35h-.2c-.07-.09-.15-.18-.25-.31-.17.13-.29.22-.41.31h-.66Zm1.13-1.42c-.25-.12-.77-.07-.94.09-.14.13-.24.3-.16.5.08.19.25.26.45.26.48,0,.68-.26.64-.84Z"/>
  <path class="cls-1" d="m29.36,118.05c.27-.25.54-.5.81-.75.13-.12.26-.23.39-.35.11-.1.22-.14.36-.07.17.09.18.24.15.4-.07.34-.16.68-.23,1.03-.04.17-.14.34-.03.57.48-.42.77-.98,1.32-1.33.11.1.2.19.31.29-.16.19-.29.36-.44.52-.4.43-.81.86-1.21,1.3-.18.2-.35.25-.51.15-.16-.1-.2-.29-.14-.53.12-.47.22-.94.33-1.41,0-.04-.01-.08-.03-.19-.52.46-1.01.88-1.48,1.3-.38-.12-.46-.29-.35-.66.08-.25.17-.5.25-.75.13-.4.24-.8.36-1.2.06-.21.07-.22.35-.31.21.09.23.27.17.46-.12.39-.25.77-.37,1.16-.03.11-.06.22-.09.33.03.01.06.03.08.04Z"/>
  <path class="cls-1" d="m26.55,114.08c.15.13.24.2.38.32-.21.2-.39.38-.59.55-.42.37-.86.72-1.27,1.1-.27.26-.53.23-.69-.18.18-.54.37-1.12.56-1.69l-.08-.05c-.29.11-.5.36-.75.52-.26.17-.51.34-.75.51-.37-.09-.46-.23-.34-.56.14-.38.32-.75.48-1.12.12-.28.24-.56.36-.85.1-.24.21-.32.38-.26.17.07.23.25.13.48-.17.39-.36.78-.54,1.16-.03.07-.05.15-.08.23.02.02.05.04.07.06.49-.35.98-.7,1.46-1.05.37.12.42.23.3.57-.16.47-.31.95-.47,1.42.03.02.05.04.08.06.45-.4.9-.8,1.37-1.22Z"/>
  <path class="cls-1" d="m19.99,111.13c.47-.34.94-.68,1.43-1.04.13.08.24.16.39.26-.13.13-.21.24-.32.32-.64.45-1.28.89-1.91,1.32-.41-.07-.51-.24-.35-.58.17-.38.34-.76.51-1.14.04-.1.07-.2.06-.37-.18.08-.36.16-.53.24-.32.17-.64.34-.96.51-.13.07-.27.12-.39-.01-.11-.12-.12-.25-.04-.39.39-.7.77-1.4,1.16-2.1.01-.03.05-.04.07-.06.38.03.48.22.28.54-.21.34-.43.69-.64,1.03-.05.08-.08.16-.12.24l.05.05c.16-.08.32-.15.48-.24.3-.16.58-.35.89-.49.12-.06.31-.06.42,0,.15.08.11.27.05.42-.17.4-.36.8-.53,1.2-.03.07-.05.15-.07.23l.07.06Z"/>
  <path class="cls-1" d="m44.31,121.51c.11.04.22.08.31.11.15.43-.16.76-.19,1.18.13,0,.23.01.33,0,.67-.08,1.13.31,1.16.98.02.51-.11.98-.4,1.4-.35.5-.94.64-1.49.38-.26-.12-.54-.23-.81-.34-.06-.28.83-3.36,1.09-3.7Zm-.49,3.26c.39.49.94.53,1.25.08.2-.3.32-.65.29-1.03-.02-.29-.18-.5-.41-.53-.24-.03-.48-.03-.73.13-.13.44-.27.89-.41,1.34Z"/>
  <path class="cls-1" d="m71.33,126.38c.15.22.15.39,0,.53-.49.5-1.67.45-2.13-.08-.4-.46-.53-1.47-.06-2.06.28-.36.88-.56,1.31-.44.39.11.77.59.83,1.03.03.26-.04.38-.29.43-.33.06-.67.08-1.01.14-.17.03-.34.1-.5.15.08.51.53.83.99.67.18-.06.36-.15.54-.23.11-.04.21-.09.33-.14Zm-.65-1.06c-.14-.45-.34-.58-.72-.51-.31.05-.55.35-.53.7.43.06.82-.1,1.25-.18Z"/>
  <path class="cls-1" d="m51.15,125.73c-.62-.11-1.19-.21-1.74-.3-.16.3-.13.53.08.74.3.31.68.32,1.07.26.11-.02.21-.05.31-.08.2.25.17.5-.08.55-.64.13-1.26.11-1.73-.42-.13-.15-.25-.35-.28-.54-.08-.57.03-1.1.42-1.57.47-.56,1.61-.51,1.94.15.19.39.16.77.01,1.22Zm-.46-.56c.1-.37-.06-.62-.44-.71-.34-.09-.68.11-.75.46.37.19.78.22,1.19.25Z"/>
  <path class="cls-1" d="m78.55,123.43c.28.02.51.04.73.05.15,0,.31-.02.46,0,.49.06.78.67.56,1.11-.32.65-1.12.75-1.62.66-.22-.04-.26-.17-.18-.5.23,0,.48,0,.73,0,.29,0,.47-.13.57-.38-.12-.33-.24-.37-.58-.35-.24.02-.51.03-.74-.04-.44-.13-.63-.71-.41-1.11.25-.44,1.02-.74,1.5-.58.23.08.26.22.11.51-.19-.01-.38-.06-.57-.03-.18.02-.35.12-.54.2,0,.14-.01.26-.02.46Z"/>
  <path class="cls-1" d="m40.63,122.1c-.13-.1-.26-.19-.37-.3-.17-.16-.36-.24-.6-.23-.15,0-.29.04-.33.21-.04.16,0,.28.15.37.19.13.38.26.56.4.3.23.4.53.3.84-.11.34-.4.55-.76.57-.49.03-.9-.14-1.26-.46-.22-.19-.22-.34.02-.63.11.09.24.17.34.26.21.19.43.35.73.34.11,0,.28-.07.32-.16.04-.08-.01-.27-.09-.34-.16-.16-.35-.29-.54-.43-.35-.26-.43-.53-.29-.95.1-.3.4-.49.77-.51.41-.01.75.13,1.06.39.22.18.21.33,0,.63Z"/>
  <path class="cls-1" d="m103.79,111.23c-.31-.11-.34-.32-.36-.53-.06-.61-.13-1.22-.19-1.83,0-.06-.04-.12-.08-.22-.3.27-.58.52-.9.8-.09-.13-.15-.23-.18-.27.42-.47.82-.91,1.18-1.32.31,0,.4.17.43.38.07.5.14,1,.21,1.5.03.18.05.36.09.59.48-.15.64-.64,1.08-.83.07.06.15.13.27.23-.46.59-1.01,1.05-1.55,1.5Z"/>
  <path class="cls-1" d="m100.96,112.82c.35.11.46.31.31.57-.57.98-1.63,1.09-2.28.28-.18-.22-.31-.48-.42-.74-.06-.13-.07-.3-.06-.45.03-.52.53-1.08,1.04-1.19.3-.07.43.04.44.41-.08.02-.18.04-.26.08-.15.07-.32.14-.44.25-.29.27-.3.46-.14.83.11.26.28.45.5.64.45.38,1.03.02,1.19-.37.05-.1.09-.21.13-.31Z"/>
  <path class="cls-1" d="m64.54,125.57c-.44-.29-.45-.37-.11-.72q.07-.66.43-.67c.23.16.15.44.23.7.12.01.24.03.37.04.09,0,.19-.03.26.01.08.05.17.16.17.24,0,.08-.12.19-.2.21-.16.05-.34.04-.5.06-.03.07-.07.11-.07.15.01.42,0,.84.05,1.25.05.41.16.47.57.44.1,0,.21.01.3.02.07.3.01.43-.22.47-.62.1-1.17.02-1.22-.87-.02-.44-.04-.88-.06-1.31Z"/>
  <path class="cls-1" d="m86.52,119.5c.13-.08.25-.15.38-.23.57.37.94.95,1.47,1.34l.08-.03c-.07-.64-.15-1.28-.22-1.95.15-.06.27-.11.43-.18.05.14.1.24.11.34.08.75.15,1.5.22,2.26.03.32-.02.38-.34.49-.22-.09-1.93-1.7-2.14-2.04Z"/>
  <path class="cls-1" d="m84.85,122.76c.05.17.08.28.11.37-.67.67-1.37.42-1.62-.3-.14-.4-.3-.8-.44-1.19-.5-.19-.53-.27-.27-.63-.06-.22-.12-.43-.18-.69.17-.05.3-.08.4-.11.27.15.11.56.49.6.22-.05.47-.34.73-.02.01.23-.11.32-.31.37-.34.09-.38.2-.26.53.13.34.25.68.39,1.01.1.26.33.35.59.24.11-.05.21-.1.38-.18Z"/>
  <path class="cls-1" d="m74.46,122.55c.29,1.2.57,2.41.88,3.67-.2.04-.34.08-.52.12-.06-.17-.12-.28-.15-.41-.08-.3-.14-.6-.21-.9-.15-.66-.3-1.32-.45-1.99-.01-.05-.02-.11-.03-.16-.04-.32.06-.41.47-.34Z"/>
  <path class="cls-1" d="m56,125.35c-.18.02-.37.02-.54.07-.17.05-.32.16-.48.24-.05.54-.09,1.03-.14,1.51-.03.35-.2.44-.53.27-.08-.35.14-2.31.31-2.69.08-.01.19-.02.29-.04.08.1.15.18.23.28.13-.04.26-.09.39-.13.39-.13.53,0,.46.49Z"/>
  <path class="cls-1" d="m92.8,119.27c-.13-.19-.28-.38-.41-.6-.28-.47-.56-.94-.83-1.42-.17-.29-.09-.45.29-.53.04.06.1.12.15.19.37.62.74,1.24,1.11,1.87.17.29.1.42-.3.49Z"/>
  <path class="cls-1" d="m95.97,116.56c.15-.24.29-.4.58-.33.12.17.36.3.25.6-.1.07-.22.15-.32.22-.35,0-.34-.32-.52-.49Z"/>
  <path class="cls-1" d="m35.04,121.39c-.04.42-.14.6-.35.62-.19.02-.31-.09-.38-.25-.07-.14.03-.43.18-.52.23-.15.38.02.55.15Z"/>
  <path class="cls-1" d="m91.61,116.31c-.17.17-.31.26-.48.18-.15-.08-.19-.23-.13-.44.12-.05.26-.1.45-.18.07.18.12.31.16.44Z"/>
  <path class="cls-1" d="m61.45,105.4c-.49,0-.99-.01-1.48,0-1.34.03-2.68-.03-4.01-.22-.72-.1-1.45-.13-2.16-.26-.89-.15-1.76-.36-2.64-.55-.32-.07-.64-.13-.96-.22-.96-.27-1.92-.55-2.87-.84-.52-.16-1.05-.32-1.56-.51-.73-.28-1.45-.56-2.16-.88-.86-.38-1.72-.78-2.56-1.21-.72-.36-1.42-.74-2.11-1.14-.99-.59-1.98-1.18-2.93-1.83-1.38-.94-2.7-1.96-3.95-3.07-1.39-1.22-2.71-2.5-3.95-3.88-1.06-1.18-2.05-2.41-2.97-3.69-1.02-1.43-2-2.89-2.81-4.45-.46-.88-.95-1.73-1.37-2.63-.42-.88-.78-1.79-1.14-2.7-.35-.9-.68-1.81-.99-2.72-.18-.52-.32-1.05-.46-1.58-.22-.85-.45-1.7-.63-2.55-.19-.93-.36-1.87-.49-2.82-.16-1.14-.29-2.29-.38-3.44-.14-1.69-.19-3.38-.06-5.07.14-1.69.31-3.37.49-5.05.06-.59.22-1.16.33-1.74.07-.36.14-.71.23-1.06.27-1.06.53-2.13.84-3.18.28-.93.58-1.86.93-2.77.35-.93.75-1.85,1.17-2.76.48-1.03.98-2.06,1.55-3.05.71-1.24,1.44-2.47,2.25-3.64.88-1.27,1.83-2.5,2.82-3.69.84-1.01,1.76-1.96,2.7-2.88,1.01-.98,2.08-1.89,3.15-2.8,1.15-.97,2.38-1.84,3.64-2.66,1.35-.87,2.72-1.69,4.16-2.39.99-.48,1.97-.97,2.98-1.39,1.05-.44,2.13-.81,3.21-1.17,1.08-.36,2.18-.67,3.28-.97.55-.15,1.12-.23,1.68-.34.58-.12,1.16-.25,1.74-.34,3.15-.52,6.32-.61,9.5-.5,1.7.06,3.4.26,5.08.53.83.13,1.66.33,2.48.52.93.22,1.86.44,2.77.71.95.28,1.88.59,2.81.95,1.15.44,2.29.91,3.4,1.42,1.65.75,3.23,1.63,4.76,2.6,1.36.86,2.67,1.77,3.92,2.78,1.33,1.08,2.62,2.21,3.83,3.43,1.37,1.37,2.64,2.82,3.83,4.35,1.14,1.47,2.17,3.01,3.11,4.61.84,1.42,1.6,2.88,2.25,4.4.54,1.27,1.06,2.56,1.51,3.86.38,1.11.65,2.25.96,3.39.19.73.39,1.46.53,2.21.2,1.11.36,2.23.5,3.35.11.91.2,1.84.24,2.76.05.98.06,1.96.04,2.93-.02,1.09-.05,2.18-.14,3.26-.1,1.19-.22,2.39-.41,3.57-.19,1.16-.45,2.3-.73,3.45-.22.92-.46,1.83-.76,2.73-.34,1.05-.73,2.09-1.13,3.13-.29.75-.61,1.48-.96,2.2-.53,1.07-1.08,2.13-1.65,3.18-.41.75-.85,1.49-1.32,2.2-.45.69-.93,1.36-1.41,2.03-.38.53-.77,1.07-1.19,1.58-.58.72-1.16,1.44-1.79,2.11-.86.92-1.73,1.84-2.67,2.69-1.06.97-2.17,1.88-3.3,2.77-.88.69-1.81,1.32-2.74,1.94-1.46.96-2.97,1.84-4.56,2.57-1.36.62-2.71,1.25-4.1,1.79-1.47.57-2.98,1.06-4.52,1.4-1.17.26-2.33.56-3.51.75-1.74.29-3.49.56-5.27.5-.63-.02-1.25,0-1.88,0Zm.31-.47h0c.36,0,.73,0,1.09,0,1.48.02,2.95-.07,4.4-.29,1.06-.16,2.12-.36,3.17-.59,1.09-.24,2.18-.51,3.25-.83,1.07-.32,2.13-.7,3.18-1.07,1.75-.63,3.42-1.43,5.06-2.31,1.68-.91,3.3-1.92,4.86-3.03,1.17-.83,2.3-1.72,3.38-2.67,1.5-1.31,2.91-2.71,4.2-4.23.73-.86,1.45-1.74,2.11-2.65.79-1.1,1.52-2.23,2.24-3.37.43-.68.81-1.38,1.19-2.09.36-.68.7-1.37,1.02-2.07.43-.96.85-1.93,1.24-2.91.28-.69.51-1.4.76-2.11.17-.5.34-1,.47-1.51.18-.68.35-1.36.5-2.05.2-.9.4-1.8.55-2.71.14-.87.22-1.74.31-2.62.1-.96.23-1.92.26-2.89.05-1.25.04-2.51,0-3.76-.02-.83-.09-1.67-.18-2.5-.09-.82-.21-1.63-.33-2.45-.11-.69-.21-1.39-.36-2.08-.21-.96-.45-1.93-.7-2.88-.23-.84-.46-1.67-.75-2.49-.35-.99-.77-1.96-1.15-2.94-.58-1.48-1.31-2.88-2.07-4.26-.75-1.35-1.55-2.68-2.48-3.92-.65-.86-1.29-1.72-1.96-2.56-1.1-1.37-2.31-2.65-3.6-3.84-1.1-1.02-2.25-2-3.42-2.94-.84-.68-1.73-1.31-2.65-1.9-1.17-.75-2.36-1.49-3.59-2.14-1.18-.63-2.41-1.16-3.64-1.7-.75-.33-1.52-.64-2.3-.9-.99-.33-1.98-.64-2.99-.91-1-.28-2.01-.55-3.03-.76-1.1-.22-2.21-.38-3.32-.5-1.21-.14-2.43-.25-3.64-.29-2.32-.08-4.64-.02-6.94.26-.76.1-1.53.17-2.28.32-1.22.24-2.43.5-3.63.79-.81.2-1.62.42-2.4.7-1.23.43-2.45.9-3.67,1.38-1.59.63-3.12,1.42-4.6,2.28-1.15.66-2.28,1.37-3.37,2.13-1.99,1.38-3.85,2.92-5.57,4.62-1.08,1.07-2.15,2.17-3.09,3.38-.87,1.11-1.69,2.24-2.51,3.38-.88,1.22-1.63,2.53-2.34,3.85-.48.9-.92,1.82-1.34,2.75-.42.93-.83,1.87-1.17,2.83-.42,1.2-.8,2.42-1.15,3.64-.3,1.07-.56,2.15-.77,3.23-.18.9-.29,1.82-.39,2.74-.14,1.28-.28,2.56-.35,3.84-.06,1.13-.06,2.26-.02,3.39.05,1.15.16,2.3.29,3.45.14,1.19.3,2.37.53,3.55.2,1.05.47,2.1.75,3.13.28,1.01.58,2.02.93,3.02.33.95.71,1.89,1.12,2.81.41.93.89,1.83,1.34,2.75.74,1.51,1.63,2.94,2.57,4.33.58.85,1.2,1.68,1.82,2.5.96,1.29,2.05,2.47,3.16,3.62,1.3,1.33,2.67,2.58,4.14,3.72.72.56,1.45,1.1,2.2,1.62.68.48,1.38.94,2.1,1.36,1.21.7,2.42,1.38,3.67,2.01,1.03.52,2.09.97,3.16,1.39,1.09.43,2.21.81,3.32,1.17.61.2,1.24.36,1.87.5,1.17.27,2.33.54,3.51.75.92.16,1.85.24,2.78.34.69.07,1.38.15,2.07.17,1.05.03,2.11,0,3.17,0Z"/>
  <path class="cls-1" d="m21.48,22.94c.26-.28.48-.53.72-.74.07-.07.22-.06.34-.06.13,0,.25.02.37.03.04-.07.07-.11.08-.15.06-.73.44-1.27,1-1.71.47-.38.97-.68,1.6-.7.24,0,.31-.17.36-.36.23-.85.79-1.43,1.54-1.84,1.1-.6,2.18-.22,2.84.65.77,1.02,1.52,2.05,2.27,3.07.18.24.36.49.57.77-.34.42-.8.66-1.23.99-.21-.26-.41-.48-.58-.71-.72-.93-1.43-1.87-2.14-2.8-.11-.14-.24-.27-.38-.35-.67-.39-1.45-.04-1.68.71-.11.36-.08.64.18.94.72.83,1.42,1.68,2.12,2.52.21.25.43.5.64.75.07.08.11.18.19.31-.38.32-.75.63-1.14.95-.17-.18-.32-.33-.47-.49-.84-.94-1.69-1.88-2.53-2.82-.64-.72-1.3-.6-1.82.13-.34.47-.28.97.13,1.39.91.94,1.83,1.87,2.74,2.8.44.44.44.44,0,.89-.18.19-.35.39-.55.61-.17-.12-.3-.19-.41-.29-1.39-1.31-2.77-2.63-4.16-3.95-.17-.16-.35-.33-.57-.53Z"/>
  <path class="cls-1" d="m27.17,97.23c.31.33.61.63.93.97,0,.05-.02.15-.03.26.04.02.08.07.13.08.9.14,1.48.73,1.94,1.44.54.84.51,1.73.11,2.61-.29.64-.69,1.22-1.19,1.72-1.03,1.04-2.58,1.16-3.79.34-.58-.39-1.07-.83-1.4-1.45-.01-.03-.05-.04-.12-.1-.31.32-.61.64-.91.96-.3.33-.6.65-.93,1.01-.46-.43-.91-.8-1.29-1.28,2.13-2.18,4.23-4.33,6.33-6.47.05-.05.16-.06.23-.08Zm.18,2.21c-.22,0-.36.1-.49.25-.62.68-1.25,1.36-1.88,2.03-.26.27-.27.48-.07.79.29.45.72.74,1.19.96.42.2.87.21,1.26-.05.67-.44,1.2-1.02,1.47-1.8.1-.31.08-.61-.03-.9-.21-.52-.59-.9-1.07-1.16-.11-.06-.25-.07-.37-.11Z"/>
  <path class="cls-1" d="m83.29,105.38c.41-.22.8-.44,1.17-.64.14.05.23.08.37.14.03-.04.06-.09.1-.15.64-1.14,1.68-1.51,2.9-1.49.53,0,1,.27,1.4.6.64.54,1.18,1.18,1.51,1.96.56,1.34.11,2.91-1.09,3.74-.22.16-.45.32-.7.43-.23.11-.49.17-.76.26-.1.12-.02.22.05.34.4.63.79,1.26,1.18,1.89-.12.28-1.1.85-1.46.83-1.54-2.54-3.08-5.09-4.62-7.64-.04-.06-.02-.15-.04-.28Zm4.01,3.65c.82.02,1.34-.38,1.76-.91.29-.37.35-.82.21-1.28-.18-.56-.46-1.07-.88-1.49-.37-.38-.79-.67-1.37-.53-.48.11-.92.32-1.26.68-.31.34-.35.55-.09.94.36.55.69,1.12,1.03,1.68.19.31.4.62.59.91Z"/>
  <path class="cls-1" d="m86.35,15.23c.06,1.68.11,3.29.17,4.98-.17-.05-.31-.07-.43-.13-.27-.14-.53-.3-.79-.46-.21-.12-.32-.29-.34-.56-.07-1-.16-1.99-.25-2.98,0-.08-.03-.16-.05-.27-.36-.02-.61.21-.9.3-.35.67-.7,1.33-1.07,2.02-.49-.18-.93-.36-1.33-.71,1.34-2.85,2.66-5.67,3.99-8.49.64-.07,1.18.25,1.82.32-.04.19-.05.36-.12.49-.22.45-.46.9-.7,1.34-.41.79-.82,1.58-1.22,2.37-.1.2-.2.4-.3.6.02.03.04.06.07.09.15-.04.31-.05.45-.11.74-.27,1.48-.54,2.21-.84.31-.13.56-.04.81.1.31.18.62.37.93.55.15.08.26.17.18.4-1.01.33-2.05.66-3.13,1.01Z"/>
  <path class="cls-1" d="m40.65,14.13c-.13.5-.44.86-.14,1.36.26.44.44.93.64,1.41.04.09.06.19.1.34-.42.2-.83.39-1.27.6-.12-.17-.24-.3-.31-.45-.34-.67-.67-1.35-1-2.03-.38-.78-.77-1.55-1.16-2.32-.39-.78-.79-1.57-1.18-2.35-.17-.33-.34-.66-.5-1-.14-.3-.11-.42.15-.62.31-.25.62-.49.94-.72.09-.06.21-.07.33-.11.72,1.61,1.43,3.19,2.14,4.76.03,0,.06,0,.09,0,.05-.07.13-.14.15-.23.24-.72.47-1.44.7-2.16.08-.25.18-.49.26-.7.62-.23,1.2-.45,1.85-.7-.01.16,0,.27-.03.37-.36.94-.73,1.88-1.09,2.82,0,.02,0,.04,0,.14,1.23.97,2.51,1.94,3.79,2.9.07.21-.06.29-.21.35-.36.14-.71.29-1.07.4-.12.04-.29,0-.39-.07-.68-.48-1.35-.98-2.02-1.47-.23-.16-.46-.32-.75-.51Z"/>
  <path class="cls-1" d="m22.01,32.4c-.4-.38-.61-.88-.89-1.38.29-.13.53-.23.76-.34.63-.3,1.03-.81,1.3-1.43.14-.32-.02-.78-.34-.99-.45-.31-.95-.4-1.47-.2-.77.29-1.53.62-2.3.9-.55.2-1.12.2-1.68,0-.85-.3-1.43-.88-1.7-1.74-.06-.18-.08-.39-.06-.58.11-.92.52-1.71,1.12-2.4.37-.42.78-.77,1.26-1.04.19-.11.42-.16.66-.26.26.47.49.9.75,1.37-.22.11-.4.2-.58.3-.59.31-1.11.69-1.41,1.32-.3.62.32,1.4.95,1.33.41-.05.82-.16,1.21-.29.52-.18,1.01-.42,1.53-.61.87-.32,1.68-.15,2.44.37.93.64,1.29,1.55,1.16,2.63-.08.67-.4,1.28-.85,1.79-.49.56-1.06,1.01-1.86,1.27Z"/>
  <path class="cls-1" d="m92.52,18.88c.29-.24.3-.51.22-.8-.11-.43-.41-.73-.77-.95-.39-.24-.81-.41-1.33-.66-.18-.37.24-.71.26-1.11.29-.14.54-.08.77.02.99.42,1.85.99,2.45,1.91.45.68.41,1.35.08,2.06-.32.69-.81,1.25-1.29,1.82-.25.3-.51.6-.77.9-.3.35-.47.76-.55,1.22-.02.11-.05.21-.08.32-.46.18-.77-.04-1.09-.3-.36-.3-.24-.72-.28-1.15-.2.06-.36.12-.54.17-.79-.28-1.49-.69-1.96-1.43-.38-.59-.32-1.52.09-2.12.13-.19.28-.36.44-.53.5-.56,1.16-.68,1.86-.62.88.08,1.59.52,2.26,1.06.07.05.13.11.23.19Zm-.82,1.07c-.05-.07-.08-.13-.13-.17-.34-.28-.72-.49-1.14-.64-.47-.16-.82.02-1.11.34-.33.36-.38.78-.12,1.07.27.3.61.5,1.01.56.23.03.43-.02.62-.16.35-.27.64-.59.87-1.01Z"/>
  <path class="cls-1" d="m44.46,10.13c-.21-.3-.41-.57-.58-.86-.1-.17-.04-.32.12-.43.46-.34.96-.59,1.51-.77.62-.2,1.24-.26,1.88-.2.61.06,1.1.35,1.42.89.51.85.73,1.8.94,2.76.11.5.27.99.43,1.48.05.15.19.26.29.39.09.12.18.24.26.35-.15.43-.45.59-.83.65-.4.05-.69-.15-.99-.42-.09.08-.17.14-.22.21-.68.87-1.59,1.16-2.63.97-.75-.13-1.19-.68-1.45-1.35-.21-.55-.33-1.13-.06-1.7.13-.26.27-.52.46-.74.58-.66,1.36-.98,2.19-1.18.09-.02.17-.04.26-.06.02,0,.04-.02.05-.04.07-.29-.17-.64-.52-.69-.45-.07-.9-.05-1.32.14-.29.13-.56.29-.84.44-.11.06-.23.1-.37.17Zm3.79,2.32c-.05-.25-.08-.5-.14-.74-.07-.28-.24-.37-.52-.29-.15.04-.3.08-.44.14-.34.17-.71.29-.94.63-.37.55-.1,1.44.52,1.54.19.03.41-.04.61-.08.49-.11.99-.52.92-1.2Z"/>
  <path class="cls-1" d="m69.85,8.21c-.16-.44-.13-.85-.12-1.29.13-.04.24-.1.35-.11.97-.09,1.91,0,2.81.39.56.25,1.07.59,1.27,1.17.14.4.16.86.15,1.29,0,.68-.23,1.34-.4,1.99-.13.5-.23,1-.31,1.51-.04.25,0,.52.05.78.06.35-.08.56-.44.61-.53.06-.92-.16-1.13-.65-.03-.08-.06-.16-.1-.25-.09.02-.17.02-.24.05-.8.4-1.6.34-2.38-.03-.68-.32-1.07-.88-1.11-1.66-.03-.58.08-1.1.38-1.6.24-.4.59-.64.98-.84.3-.15.61-.22.95-.22.63,0,1.28-.07,1.88.22.05.02.11.01.15.02.14-.23.13-.5-.05-.73-.19-.26-.46-.42-.75-.51-.53-.16-1.07-.26-1.62-.15-.09.02-.19,0-.32,0Zm2.5,2.8c-.44-.31-1.29-.43-1.74-.27-.68.24-.89.93-.69,1.39.05.12.15.25.26.31.37.21.78.3,1.2.17.18-.05.36-.16.49-.3.33-.37.41-.83.48-1.31Z"/>
  <path class="cls-1" d="m102.47,28.72c.41-.39.49-.91.22-1.35-.33-.55-.75-1.03-1.32-1.35-.05-.03-.09-.06-.17-.11.06-.13.11-.26.18-.38.1-.17.22-.33.32-.5.16-.24.31-.29.55-.13.65.42,1.22.94,1.62,1.61.21.35.38.74.53,1.12.24.65.05,1.24-.34,1.76-.43.56-.97,1-1.55,1.4-.58.4-1.13.87-1.68,1.32-.19.15-.33.34-.38.6-.05.24-.21.31-.45.25-.58-.14-.89-.72-.7-1.3.02-.05.03-.1.04-.16,0-.04-.01-.08-.03-.16-.12-.04-.24-.07-.36-.11-.87-.3-1.47-.9-1.72-1.77-.27-.97.09-1.64.83-2.26.51-.43,1.1-.65,1.77-.54.56.1,1.07.34,1.48.73.34.32.63.7.94,1.05.07.08.13.17.21.27Zm-1.11.79c-.3-.58-.71-1.07-1.36-1.28-.63-.21-1.34.4-1.25,1.03.06.41.55.92.96,1.04.44.12,1.18-.17,1.65-.79Z"/>
  <path class="cls-1" d="m17.87,92.26c-.7.55-.75,1.28-.46,1.96.29.69.8,1.2,1.5,1.49.05.02.1.05.15.07.02.01.03.03.09.1-.12.34-.26.71-.42,1.14-.15-.03-.3-.02-.43-.08-.55-.26-1.02-.63-1.42-1.1-.42-.49-.79-1-.99-1.61-.29-.85-.28-1.66.19-2.47.75-1.25,2.49-2.15,4.04-1.79.92.21,1.64.71,2.14,1.52.37.59.63,1.22.55,1.93-.12,1.12-.66,1.99-1.64,2.56-.19.11-.35.08-.49-.11-.83-1.08-1.65-2.17-2.47-3.25-.1-.13-.23-.25-.34-.37Zm1.07-.68c.64.86,1.25,1.67,1.85,2.49.39-.03.45-.36.53-.6.23-.72-.1-1.28-.62-1.74-.5-.44-1.07-.38-1.76-.15Z"/>
  <path class="cls-1" d="m10.3,46.3c-.04.2-.04.31-.08.4-.32.69-.54,1.41-.68,2.16-.12.65-.02,1.29.16,1.92.11.37.24.73.33,1.1.11.46.11.9-.1,1.35-.19.39-.3.83-.49,1.22-.19.39-.43.76-.67,1.13-.07.11-.2.2-.29.28-.78-.25-1.26-.78-1.65-1.42-.19-.32-.38-.64-.53-.98-.1-.24-.16-.51-.17-.76-.02-.71-.02-1.43.01-2.14.01-.31.11-.62.21-.92.12-.37.27-.74.45-1.09.13-.25.3-.48.49-.7.43-.5.89-.98,1.51-1.24.3-.13.62-.21.94-.29.15-.04.32,0,.55,0Z"/>
  <path class="cls-1" d="m8.48,59.31c.29-.12.55-.09.82-.04.86.17,1.47.72,2.08,1.31.64.62.8,1.47,1.18,2.22.08.17.08.39.09.58.03.64.05,1.27.06,1.91,0,.53-.09,1.05-.4,1.51-.26.39-.51.79-.78,1.18-.28.41-.71.6-1.21.77-.22-.31-.47-.59-.63-.92-.32-.66-.6-1.34-.88-2.02-.15-.36-.11-.73,0-1.1.14-.48.26-.97.4-1.46.22-.78.09-1.55-.15-2.3-.15-.47-.36-.92-.53-1.38-.03-.08-.03-.16-.05-.27Z"/>
  <path class="cls-1" d="m54.4,9.36c.02-1.01.26-1.79.86-2.43.45-.49,1.01-.82,1.67-.92.86-.14,1.7-.13,2.5.3.53.28.91.7,1.16,1.22.46.99.54,2.01.28,3.08-.18.71-.48,1.34-1.03,1.83-.36.32-.78.57-1.28.63-.2.02-.39.09-.58.11-1.24.08-2.22-.38-2.9-1.45-.48-.77-.64-1.62-.68-2.36Zm4.94.24c-.09-.44-.16-.88-.29-1.31-.22-.75-.86-1.01-1.47-.97-.55.04-1.01.31-1.22.83-.41.98-.27,1.95.18,2.89.36.76,1.16.84,1.77.6.21-.08.39-.28.53-.46.34-.46.43-1,.49-1.57Z"/>
  <path class="cls-1" d="m35.08,22.11c.23-.2.42-.35.6-.5.46-.39.53-.87.14-1.33-.24-.29-.52-.58-.83-.8-1.13-.81-2.29-1.59-3.44-2.38-.57-.39-1.13-.78-1.75-1.21.1-.12.16-.23.25-.3.29-.21.6-.41.9-.61.18-.13.35-.15.54-.01.85.63,1.7,1.25,2.54,1.87.29.21.58.44.87.65.08.06.19.09.28.13l.08-.05c-.15-.78-.3-1.56-.44-2.34-.14-.77-.28-1.55-.43-2.35.52-.29,1.01-.55,1.55-.85.06.2.11.33.13.46.12.71.24,1.43.36,2.14.1.64.19,1.28.3,1.92.11.69.24,1.38.34,2.08.11.7.23,1.41.31,2.12.08.73-.19,1.36-.69,1.89-.22.24-.46.45-.73.71-.45-.36-.66-.81-.89-1.25Z"/>
  <path class="cls-1" d="m8.11,59.46c.09.23.19.47.27.73.1.31.16.64.26.95.26.83.24,1.67.12,2.51-.03.22-.12.45-.22.65-.27.57-.26,1.16-.13,1.74.15.7.47,1.32.98,1.83.19.19.35.39.51.6.07.09.09.21.17.38-.31.03-.55.06-.79.08-1.04.1-1.82-.37-2.46-1.13-.04-.05-.09-.1-.13-.15-.87-.88-1.33-1.94-1.4-3.17-.02-.33-.08-.65-.1-.98-.07-1.1.17-2.12.84-3.01.29-.39.69-.68,1.16-.83.28-.09.52-.3.93-.21Z"/>
  <path class="cls-1" d="m8.87,55.85c.05-.11.08-.23.15-.32.21-.27.43-.52.65-.79.72-.88.97-1.88.75-2.99-.02-.08-.06-.16-.1-.24-.23-.49-.35-1.01-.36-1.56-.02-1.13.23-2.2.64-3.24.02-.06.06-.11.1-.19.11,0,.24-.03.34,0,.36.14.73.26,1.06.45.55.33.92.83,1.17,1.43.37.89.47,1.8.31,2.74-.04.22-.05.44-.05.66,0,.53-.17,1.01-.4,1.48-.08.17-.14.35-.23.51-.1.19-.2.4-.34.56-.35.39-.71.79-1.11,1.12-.72.58-1.53.78-2.44.48-.03,0-.05-.04-.13-.1Z"/>
  <path class="cls-1" d="m57.12,117c-.41.16-.75.34-1.1.41-1.06.21-2.03,0-2.8-.82-.22-.24-.35-.53-.37-.86-.04-.61.04-1.19.42-1.69.41-.54.97-.88,1.63-.96.62-.07,1.25-.03,1.87-.04.12,0,.23,0,.34,0,.14-.21.07-.37-.03-.52-.19-.28-.44-.48-.79-.54-.52-.09-1.04-.15-1.57-.02-.06.02-.13.02-.23.04-.26-.37-.23-.79-.26-1.23.13-.05.22-.11.33-.13.57-.12,1.15-.16,1.73-.04.34.07.69.13,1.02.24.89.32,1.29,1.01,1.42,1.93.14,1.03-.03,2.06,0,3.09.01.44.08.85.36,1.2.15.19.1.33-.12.46-.55.33-1.18.23-1.6-.27-.08-.1-.17-.2-.22-.26Zm-.02-2.61c-.55-.16-1.07-.18-1.59-.11-.29.04-.52.18-.72.37-.43.41-.29,1.2.23,1.44.38.17.78.17,1.16.09.19-.04.4-.16.53-.31.37-.41.42-.92.39-1.48Z"/>
  <path class="cls-1" d="m97.26,97.79c-.24-.34-.76-.43-1.15-.21-.5.29-.89.71-1.2,1.2-.09.14-.19.29-.29.45-.32-.2-.61-.37-.89-.56-.14-.1-.13-.25-.06-.39.57-1,1.31-1.83,2.4-2.24.59-.22,1.21-.13,1.73.24.58.41,1.14.85,1.7,1.3.31.25.6.51.9.78.33.3.71.47,1.14.54.05,0,.1.04.14.05.14.18.16.36.08.56-.22.53-.67.8-1.24.78-.1,0-.21.03-.33.05-.03.14-.06.26-.09.37-.29,1.17-1.05,1.93-2.18,2.3-.67.22-1.47-.12-1.96-.72-.75-.9-.6-1.97-.15-2.81.33-.62.78-1.14,1.34-1.56.04-.03.07-.08.1-.12Zm1.89,2.09s0-.1-.03-.18c-.14-.42-.45-.7-.78-.95-.06-.05-.24-.03-.32.03-.45.33-.8.75-1,1.27-.2.53.05,1.12.58,1.33.1.04.22.06.32.04.61-.11,1.24-.87,1.24-1.55Z"/>
  <path class="cls-1" d="m108.79,88.56c0,.32.04.62,0,.9-.17,1.07-.72,1.9-1.7,2.39-.52.26-1.07.17-1.55-.1-.73-.4-1.23-1-1.28-1.87-.04-.62.07-1.23.35-1.79.2-.4.43-.79.64-1.18-.25-.23-.68-.24-.99-.02-.4.27-.61.69-.81,1.1-.13.26-.2.55-.32.9-.38.17-.7-.25-1.06-.22-.19-.19-.15-.38-.1-.56.25-.77.59-1.48,1.13-2.1.77-.88,1.6-.99,2.62-.64.75.26,1.46.66,2.19.98.34.15.68.31,1.04.42.2.06.43.05.65.03.31-.03.43.05.47.36.07.55-.4,1.19-.97,1.32-.09.02-.19.04-.3.06Zm-2.43-1.03c-.35.49-.64,1-.74,1.6-.04.25.01.48.15.69.39.59,1.04.64,1.47.11.12-.15.22-.32.3-.5.41-.85-.2-1.83-1.19-1.89Z"/>
  <path class="cls-1" d="m78,110.15c-.16-.36-.41-.57-.76-.58-.35,0-.72.06-1.06.16-.32.1-.6.31-.9.46-.09.04-.18.07-.32.12-.21-.34-.41-.67-.62-1.02.14-.13.24-.23.35-.31.88-.55,1.8-.95,2.87-.89.5.03.91.22,1.25.57.47.49.75,1.1,1,1.72.26.65.52,1.3.78,1.95.15.37.42.63.8.88-.03.13-.03.3-.12.4-.35.4-.85.64-1.4.3-.07-.05-.15-.09-.23-.13-.03-.01-.06,0-.15,0-.02.03-.06.08-.09.13-.69,1.01-2.22,1.58-3.38,1.2-.72-.24-1.07-.81-1.2-1.53-.21-1.14.29-1.96,1.21-2.56.53-.34,1.09-.61,1.71-.76.04,0,.08-.03.12-.04.03-.01.05-.04.12-.09Zm.4,1.25c-.44.07-.86.25-1.27.47-.27.14-.49.33-.64.6-.2.38-.09.73.13,1.05.2.29.51.4.84.3.3-.09.59-.23.87-.37.13-.07.25-.19.33-.32.27-.45.14-1.3-.26-1.73Z"/>
  <path class="cls-1" d="m48.78,112.9c.38-.63.76-1.25,1.15-1.87.33-.54.67-1.08,1-1.62.3-.48.61-.97.9-1.45.17-.27.22-.31.53-.26.35.06.69.12,1.03.18.05,0,.09.05.17.1-.08.15-.14.3-.23.43-.87,1.38-1.74,2.77-2.61,4.15-.71,1.13-1.43,2.27-2.13,3.4-.2.32-.25.36-.61.29-.2-.04-.39-.11-.62-.18-.24-3.26-.48-6.49-.72-9.77.58,0,1.03.3,1.58.38.03.43.06.85.09,1.26.03.42.07.83.1,1.25.03.43.04.86.07,1.28.02.42.03.83.07,1.25.05.4,0,.81.13,1.2.03,0,.06,0,.09,0Z"/>
  <path class="cls-1" d="m41.23,108.55c-.09,1.34-.53,2.52-1.65,3.36-.67.5-1.44.61-2.22.45-.93-.19-1.76-.63-2.36-1.4-.52-.66-.71-1.41-.56-2.26.16-.94.62-1.7,1.27-2.36.61-.61,1.37-.94,2.21-.96.56-.02,1.1.17,1.6.44.53.3,1.01.65,1.31,1.21.25.47.43.96.4,1.52Zm-1.59-.13c.01-.8-.26-1.24-.9-1.5-.46-.19-.93-.18-1.35.12-.81.57-1.21,1.39-1.35,2.35-.11.79.49,1.34,1.02,1.5.69.21,1.26.03,1.72-.54.48-.6.74-1.28.84-1.92Z"/>
  <path class="cls-1" d="m114.04,52.86c-.02.15-.02.23-.04.31-.27.84-.38,1.69-.27,2.57.04.35.16.71.29,1.04.16.41.37.79.56,1.19.18.39.23.8.11,1.22-.19.68-.38,1.37-.59,2.05-.05.17-.16.34-.27.48-.13.15-.3.13-.48.07-.51-.19-.92-.49-1.25-.92-.19-.25-.45-.46-.62-.72-.16-.25-.31-.53-.37-.82-.14-.68-.23-1.36-.32-2.05-.03-.23-.01-.49.04-.72.14-.57.25-1.17.49-1.7.26-.58.67-1.09,1.19-1.48.31-.23.69-.38,1.05-.53.13-.05.31,0,.5,0Z"/>
  <path class="cls-1" d="m113.48,49.71c-.19-.16-.39-.3-.54-.47-.54-.61-.98-1.29-1.34-2.02-.14-.29-.19-.62-.15-.96.09-.79.24-1.58.09-2.39-.09-.53-.31-1-.55-1.47-.16-.32-.37-.62-.55-.93-.04-.06-.06-.14-.1-.21.2-.21.46-.16.69-.16,1.15.02,2.05.6,2.74,1.44.65.79,1.18,1.7,1.21,2.79,0,.23.08.45.13.68.15.61.08,1.2-.18,1.76-.13.29-.27.58-.4.87-.2.47-.59.75-1.06,1.08Z"/>
  <path class="cls-1" d="m114.19,66.02c-.19.32-.37.66-.57.98-.4.66-.58,1.39-.68,2.15-.02.15,0,.31.03.46.05.48.12.96.17,1.44.03.36-.05.69-.22,1.01-.39.72-.84,1.39-1.39,2-.34.37-.46.35-.85.06-.59-.44-.76-1.11-1.05-1.71-.3-.62-.28-1.24-.12-1.89.12-.49.18-.99.28-1.49.04-.18.1-.36.19-.52.53-.96,1.15-1.83,2.17-2.35.53-.27,1.08-.34,1.65-.36.17,0,.33.03.39.24Z"/>
  <path class="cls-1" d="m109.96,41.31c.19.31.38.57.51.85.21.47.39.95.55,1.44.23.7.32,1.41.15,2.14-.31,1.37.21,2.42,1.25,3.27.19.16.38.33.56.51.07.07.1.18.18.33-.31.09-.57.18-.83.25-.67.16-1.26-.06-1.81-.4-.9-.56-1.62-1.31-2.08-2.27-.12-.25-.2-.53-.28-.81-.09-.34-.15-.68-.23-1.02-.22-.93-.13-1.83.24-2.7.12-.28.33-.56.57-.75.37-.3.79-.53,1.24-.82Z"/>
  <path class="cls-1" d="m114.39,52.91c.17,0,.34-.04.51-.01.29.06.58.13.85.23.47.18.85.5,1.14.91.58.79.83,1.68.85,2.65.01.5.07,1.01.01,1.51-.09.85-.4,1.63-.94,2.31-.31.4-.6.8-1.05,1.07-.49.29-1.01.32-1.56.29-.04,0-.08-.04-.16-.08.04-.13.06-.27.12-.38.15-.27.33-.52.48-.78.47-.85.63-1.75.29-2.69-.04-.12-.11-.24-.18-.35-.58-.92-.74-1.94-.65-3,.04-.48.13-.96.19-1.43,0-.06.04-.12.07-.23Z"/>
  <path class="cls-1" d="m111.43,74.56c.1-.17.14-.3.22-.38.22-.22.43-.44.68-.61.55-.39.84-.96,1.05-1.55.13-.36.08-.8.1-1.2,0-.12-.04-.24-.07-.36-.21-.97-.03-1.9.36-2.79.16-.37.32-.75.49-1.11.08-.17.22-.32.34-.5.83.4,1.57.82,1.89,1.72.34.95.36,1.9.05,2.87-.11.34-.17.7-.26,1.05-.18.68-.58,1.25-1.05,1.72-.43.44-.96.8-1.5,1.11-.5.29-1.07.45-1.67.18-.18-.08-.38-.09-.66-.16Z"/>
  <path class="cls-1" d="m61.4,5.95c.34,0,.6,0,.86,0,.22,0,.44,0,.66,0,.24,0,.38.11.45.35.21.7.44,1.4.66,2.1.14.45.29.9.45,1.34.04.1.12.19.23.34.21-.39.38-.71.55-1.04.4-.75.86-1.48,1.2-2.27.22-.51.5-.59.98-.46.24.07.5.05.75.08.09,0,.19.03.34.05-.05.15-.06.28-.12.38-.56.98-1.13,1.96-1.7,2.93-.62,1.06-1.24,2.12-1.85,3.19-.11.19-.27.25-.47.23-.21-.02-.33-.14-.4-.34-.25-.67-.5-1.34-.76-2-.39-1.02-.79-2.04-1.19-3.06-.19-.48-.39-.95-.58-1.44-.04-.1-.04-.22-.07-.4Z"/>
  <path class="cls-1" d="m96.1,18.78c.4.34.81.65,1.18,1.01.08.08.09.29.05.43-.08.31-.2.6-.31.9-.32.84-.65,1.67-.97,2.51-.04.1-.05.21-.07.33.26.07.43-.08.61-.15.77-.32,1.54-.64,2.3-.97.3-.13.59-.28.9-.39.12-.04.31-.04.39.03.37.35.71.74,1.09,1.14-.1.09-.17.2-.27.24-.45.17-.91.32-1.36.49-.68.25-1.36.51-2.03.76-.85.32-1.71.63-2.56.95-.26.09-.51.19-.77.28-.18.06-.34.04-.47-.13-.12-.15-.13-.3-.07-.49.19-.53.35-1.06.52-1.59.18-.54.36-1.08.53-1.62.18-.55.35-1.11.53-1.66.22-.66.43-1.31.65-1.96,0-.03.05-.04.12-.11Z"/>
  <path class="cls-1" d="m64.2,111.16c-.03.16-.05.31-.09.45-.03.14-.09.27-.12.41-.08.3-.19.36-.47.24-.4-.16-.82-.24-1.26-.17-.21.03-.41.09-.52.3-.15.28-.06.61.27.78.33.18.68.3,1.02.46.38.17.77.32,1.12.54.97.62,1.11,2.28.06,3.03-.45.32-.99.47-1.54.52-.86.08-1.69,0-2.47-.41-.05-.03-.09-.06-.13-.08-.04-.34.35-1.1.63-1.23.51.27,1.04.49,1.65.42.11-.01.22-.02.32-.05.25-.06.47-.17.49-.46.02-.28-.01-.56-.3-.71-.45-.23-.9-.45-1.36-.66-.44-.21-.83-.47-1.14-.86-.71-.9-.22-2.25.68-2.63.85-.36,1.69-.29,2.55-.15.19.03.36.15.61.25Z"/>
  <path class="cls-1" d="m74.16,114.46c.07.09.15.15.18.23.09.28.15.57.23.86.04.16,0,.29-.16.36-.75.33-1.51.64-2.35.54-.75-.08-1.29-.48-1.52-1.22-.13-.43-.22-.87-.31-1.31-.12-.62-.22-1.25-.33-1.88-.04-.21-.02-.45-.26-.6-.07.01-.15.02-.23.04-.26.05-.38,0-.44-.26-.07-.29-.1-.58-.16-.91.22-.06.41-.12.6-.17.24-.45-.16-.86-.06-1.36.36-.23.73-.55,1.2-.78.34.59.22,1.26.55,1.81.53-.13,1.05-.25,1.62-.39.11.41.22.79.32,1.16-.5.4-1.16.25-1.69.59.05.26.08.52.14.77.15.7.3,1.4.47,2.09.07.26.21.5.34.73.09.16.26.21.45.21.44.02.82-.12,1.17-.37.05-.04.11-.07.22-.14Z"/>
  <path class="cls-1" d="m9.55,88.79c.3-.36.75-.42,1.12-.72.15.2.27.36.39.52.23.29.43.61.68.88.32.35.68.39,1.1.15.71-.41,1.43-.82,2.14-1.23.82-.48,1.64-.97,2.46-1.47.12-.23-.11-.37-.17-.56-.06-.19-.26-.34-.14-.58.26-.14.52-.28.78-.42.16-.09.31-.04.4.11.38.66.75,1.32,1.12,1.98,0,.02,0,.04,0,.06l.08.08c-.08.04-.16.07-.24.12-1.8,1.05-3.6,2.1-5.4,3.15-.36.21-.74.38-1.16.43-.83.11-1.49-.21-2.01-.83-.4-.48-.74-1-1.11-1.51-.02-.03-.03-.08-.05-.16Z"/>
  <path class="cls-1" d="m97.23,94.4c.36-.42.65-.77.97-1.1.07-.07.27-.08.39-.05,1.09.32,2.18.67,3.27,1,.12.04.25.05.46.09-.09-.2-.13-.33-.2-.44-.51-.87-1.02-1.74-1.54-2.61-.09-.16-.2-.32-.28-.48-.07-.15-.05-.29.06-.43.18-.23.34-.49.52-.72.07-.09.18-.14.29-.22.2.32.37.59.53.88.73,1.31,1.46,2.63,2.2,3.94.26.46.52.92.78,1.38.11.2.07.38-.08.54-.14.16-.29.18-.5.11-.57-.17-1.14-.32-1.71-.47-.67-.18-1.34-.35-2.01-.52-.9-.24-1.8-.47-2.71-.71-.13-.03-.25-.1-.46-.19Z"/>
  <path class="cls-1" d="m54.14,12.86c-.16.78-1.1,1.04-1.67.77-.19-.09-.37-.33-.45-.54-.16-.45-.28-.92-.38-1.39-.13-.6-.21-1.21-.32-1.81-.11-.63-.24-1.25-.36-1.87-.2-1.07-.41-2.13-.61-3.2-.08-.4-.04-.45.35-.6.24-.09.46-.2.7-.29.17-.07.35-.11.55-.17.05.13.1.21.12.3.15.93.29,1.86.44,2.79.18,1.09.37,2.19.55,3.28.08.48.18.95.24,1.43.07.52.26.95.74,1.21.04.02.06.07.09.11Z"/>
  <path class="cls-1" d="m91.01,100.96c.19-.83.64-1.41,1.32-1.81.35-.2.35-.19.64-.17.12.43.24.87.36,1.34-.14.06-.22.1-.31.13-.59.18-.91.59-.95,1.2-.03.47.11.89.4,1.26.69.88,1.39,1.76,2.08,2.64.08.1.14.21.24.35-.23.18-.43.34-.64.5-.16.12-.31.25-.47.36-.21.15-.36.12-.5-.08-.96-1.32-1.92-2.65-2.88-3.97-.22-.3-.44-.6-.66-.9-.1-.14-.12-.3.02-.41.27-.22.56-.43.84-.64.05-.04.12-.04.19-.05.09.07.17.13.32.25Z"/>
  <path class="cls-1" d="m32.56,101.92c.51.08.82.51,1.26.75-.06.15-.1.27-.16.42.08.02.15.06.21.06.88-.08,1.54.33,2.12.92.13.13.15.29,0,.4-.3.22-.62.41-.94.6-.04.02-.11,0-.17,0-.12-.14-.23-.28-.37-.41-.55-.5-1.1-.47-1.69-.09-.23.15-.45.36-.61.59-.55.79-1.08,1.6-1.61,2.41-.13.2-.26.4-.41.62-.11-.02-.21,0-.29-.05-.38-.2-1.06-.76-1.17-.98,1.26-1.73,2.52-3.47,3.81-5.25Z"/>
  <path class="cls-1" d="m31.7,13.53c-.21-.09-.23-.23-.23-.37,0-.58,0-1.16,0-1.71.17-.25,1.27-.91,1.57-.94.01.1.05.2.03.29-.11.59-.24,1.18-.34,1.77-.04.25-.14.42-.38.53-.23.11-.44.28-.65.42Z"/>
  <path class="cls-1" d="m96.3,15.33c-.33.08-.59.17-.85.21-.47.09-.95.15-1.43.23-.21.04-.38,0-.54-.15-.23-.2-.48-.38-.76-.59.1-.07.18-.15.27-.18.36-.13.73-.24,1.09-.36.14-.05.29-.09.43-.16.22-.1.43-.1.62.04.33.23.66.47.98.72.05.04.08.1.19.23Z"/>
  <path class="cls-1" d="m19.59,85.97c0-.51.41-.91.89-.9.5.01.93.43.93.92,0,.51-.42.95-.9.94-.53-.01-.93-.42-.92-.96Z"/>
  <path class="cls-1" d="m58.02,108.21c-.19.24-.35.44-.52.64-.24.29-.48.57-.72.85-.06.07-.16.16-.24.16-.32,0-.64-.03-1.01-.04.04-.16.04-.26.08-.33.29-.43.58-.85.89-1.26.07-.09.21-.17.32-.17.34,0,.68.05,1.01.08.04,0,.08.03.18.09Z"/>
  <path class="cls-1" d="m100.46,85.23c.28-.36.36-.82.76-1.14.08.16.14.29.19.41.21.45.43.89.63,1.34.04.08.08.21.04.28-.13.27-.29.53-.46.83-.34-.22-.45-.55-.63-.82-.18-.28-.35-.58-.54-.9Z"/>
  <path class="cls-1" d="m61.41,59.54c.34-.22.68-.62.96-1.07.17-.27.41-.31.68-.3.08,0,.16.08.23.11-.05.65-.6.92-1,1.4.24.03.39.06.54.07.81,0,1.62-.02,2.43.02.95.05,1.91.05,2.85.3.35.09.72.09,1.07.15.73.12,1.43.34,2.1.66.43.2.89.32,1.32.5.96.4,1.92.83,2.72,1.51.34.29.61.66.91.99.08.09.15.18.24.3.1-.06.19-.11.26-.16.36-.25.74-.47,1.19-.53.66-.09,1.32-.22,2-.11.62.1,1.12.4,1.49.88.27.34.29.78.29,1.2,0,.45-.04.9-.06,1.35-.03.56-.05,1.12-.11,1.68-.09.93-.33,1.81-.9,2.58-.04.06-.05.14-.08.22.29.11.57.2.83.33.38.18.78.36,1.12.6.79.54,1.04,1.39,1.13,2.28.03.33-.05.67-.1,1.01-.03.26-.1.52-.13.78-.07.52-.28.95-.62,1.35-.48.55-.99,1.06-1.61,1.45-.05.03-.09.09-.16.17.16.39-.14.58-.41.78-.29.21-.57.44-.98.51-.07-.12-.15-.23-.22-.35-.25-.02-.25.21-.34.36-.06.02-.13.06-.2.07-.81.03-1.54.34-2.27.64-1.23.49-2.46,1-3.69,1.49-.77.31-1.54.65-2.33.9-.64.2-1.31.28-1.97.41-.66.13-1.31.26-1.98.36-.72.11-1.44.2-2.16.26-1.13.09-2.26.19-3.39.21-1.09.03-2.17,0-3.26-.07-.71-.04-1.42-.17-2.12-.25-.17-.02-.36-.04-.53,0-.63.11-1.25,0-1.87-.04-.4-.03-.78-.2-1.17-.3-.81-.21-1.58-.52-2.35-.83-.75-.3-1.53-.53-2.3-.79-1.09-.37-2.2-.7-3.26-1.12-.76-.3-1.47-.74-2.2-1.12-.2-.11-.4-.23-.62-.31-.57-.22-.99-.63-1.42-1.05-.38-.37-.69-.79-.96-1.24-.44-.75-.53-1.55-.43-2.38.02-.14.08-.27.14-.4.65-1.33,1.59-2.39,2.92-3.06.42-.21.88-.32,1.33-.46.3-.1.6-.19.94-.29-.02-.16-.03-.3-.06-.43-.15-.53-.33-1.05-.46-1.58-.18-.76-.33-1.52-.49-2.28-.02-.07,0-.16-.03-.23-.18-.49-.07-.94.13-1.4.29-.66.72-1.2,1.28-1.65.64-.52,1.28-1.04,2.01-1.42.39-.2.8-.36,1.21-.51.75-.28,1.5-.55,2.27-.8.43-.14.87-.23,1.31-.3,1.03-.17,2.06-.35,3.09-.46.6-.07.87-.41.98-.94.15-.69.33-1.37.42-2.06.07-.52,0-1.05,0-1.57,0-.04-.02-.09-.02-.13,0-.16,0-.32.2-.36.18-.03.25.1.33.25.44.78.29,1.56.09,2.36-.1.43-.18.86-.27,1.29-.05.21-.11.42-.16.64-.02.09-.04.18-.07.34.32-.01.59,0,.85-.05.94-.2,1.9-.16,2.85-.23.62-.04,1.24-.05,1.99-.08Zm10.3,13.32c-.22-.64.09-1.2.12-1.8.32-.2.63-.4,1-.64-.41-.06-.59.27-.94.33-.08-.19-.16-.39-.24-.6-.05,0-.1-.03-.14-.02-.61.12-1.23.22-1.84.36-.57.13-1.12.31-1.69.44-.83.19-1.67.37-2.51.51-.79.13-1.6.16-2.39.29-1.15.19-2.3.2-3.45.21-1.79.02-3.58-.01-5.37-.03-.37,0-.75-.03-1.12-.08-.88-.11-1.77-.22-2.64-.38-.64-.12-1.29-.27-1.91-.49-1.04-.36-2.01-.88-2.91-1.52-.13-.09-.3-.14-.45-.21-.02.02-.05.04-.07.06.06.49.07.98.18,1.46.24,1.01.81,1.85,1.46,2.63.88,1.04,1.88,1.97,2.95,2.82.51.41,1.02.85,1.6,1.14.95.47,1.95.84,2.98,1.12.17.05.34.11.51.11,1.17-.01,2.3.38,3.47.35.05,0,.11,0,.16.02,1.02.23,2.06.18,3.09.16.68-.02,1.35-.13,2.03-.18,1.16-.08,2.31-.27,3.43-.6.19-.05.37-.13.55-.21.47-.23.93-.51,1.41-.71.43-.18.77-.45,1.05-.81.55-.73.83-1.59,1.15-2.43.07-.18.19-.37.19-.55,0-.31.11-.55.31-.72Zm1.37,5.17c-.19.43-.6.51-.94.66-.53.23-1.11.29-1.71.24-.53-.04-1.07-.03-1.6-.02-.17,0-.34.07-.51.13-.29.1-.57.23-.85.34-1.08.41-2.23.49-3.36.63-.42.05-.85.02-1.28.05-.38.03-.76.13-1.14.13-1.42-.01-2.83-.03-4.25-.09-1.04-.04-2.08-.15-3.12-.23-.45-.04-.9-.05-1.31-.28-.16-.09-.33-.17-.5-.25-.59-.29-1.21-.54-1.77-.87-.61-.36-1.2-.77-1.76-1.21-1-.78-2.12-1.42-2.91-2.46-.15-.19-.32-.23-.55-.13-.64.27-1.18.68-1.68,1.14-.28.26-.37.62-.17,1,.02.05.04.1.06.15.15.65.55,1.09,1.18,1.31.61.22,1.22.41,1.83.61.23.07.46.15.69.2.18.04.34.08.31.3-.02.2-.18.26-.36.27-.05,0-.11-.01-.16-.02-.57-.05-1.13-.15-1.68-.3-.38-.1-.77-.18-1.13-.33-.82-.34-1.38-.99-1.84-1.73-.21-.34-.23-.74-.21-1.12.02-.35.12-.73.44-.96.4-.28.81-.55,1.22-.82.36-.24.74-.46,1.1-.69-.24-.45-.45-.86-.67-1.26-.07,0-.12-.02-.17-.01-.61.12-1.23.24-1.84.39-.43.11-.83.32-1.12.66-.33.39-.65.81-.9,1.25-.41.74-.51,1.53-.23,2.35.35,1.04,1.07,1.75,2.02,2.24.63.32,1.28.59,1.93.84.6.23,1.22.44,1.84.61.6.17,1.22.29,1.83.42.38.08.75.16,1.13.2,1.16.12,2.32.23,3.48.33.45.04.9.05,1.34.05.49,0,.98,0,1.48-.01.1,0,.19.01.28.02.03-.05.04-.08.05-.11.12-.36.25-.42.62-.32.11.03.24.06.35.06,1.44.02,2.87.16,4.31.08,1.07-.06,2.15-.07,3.22-.23,1.3-.19,2.61-.33,3.92-.51.52-.07,1.03-.22,1.54-.32.14-.03.3-.02.47-.03.05.13.08.23.13.37-.44.26-.86.51-1.29.76.07.05.11.06.15.05.77-.12,1.55-.21,2.31-.36,1-.2,2-.43,2.98-.7,1.06-.3,2.12-.66,3.16-1.03.78-.28,1.57-.58,2.31-.95.84-.42,1.52-1.06,2.12-1.79.13-.16.19-.33.2-.54,0-.16.04-.32.1-.47.19-.54.38-1.07.13-1.66-.22-.51-.57-.87-1.08-1.09-.25-.11-.5-.21-.75-.33-.23-.11-.43-.18-.68-.04-.1.05-.29.06-.37,0-.33-.24-.63-.07-.94.03-.07.02-.12.1-.21.18.12.04.19.08.26.09.87.15,1.9,1.17,1.72,2.28-.02.12,0,.24-.02.36-.06.53-.31.97-.7,1.34-.49.47-1.11.74-1.73.99-.23.09-.47.16-.71.21-.16.03-.31-.03-.36-.21-.05-.18-.03-.36.14-.46.16-.1.33-.18.5-.25.53-.22,1.05-.44,1.5-.81.13-.11.3-.19.31-.46-.13.04-.24.07-.34.11-.67.32-1.32.71-2.02.94-.52.17-1.01.39-1.47.64-.51.28-1.04.4-1.6.43-.23.01-.46,0-.7,0Zm-13.75-14.52c.17-.02.25-.02.33-.04.66-.2,1.34-.24,2.02-.22.26.01.53-.01.79,0,.64.01,1.27.01,1.91.06.77.06,1.53.14,2.29.24.62.08,1.25.15,1.85.29.58.14,1.14.37,1.72.54,1.08.32,2.02.9,2.89,1.59.28.22.53.5.78.75.29.3.51.28.75-.04.65-.87.46-2.21-.24-2.84-.88-.79-1.9-1.33-3.07-1.57-.36-.07-.72-.19-1.08-.28-.71-.18-1.43-.36-2.14-.51-.69-.15-1.38-.26-2.07-.39-.19-.03-.39-.05-.59-.06-.45-.03-.91,0-1.35-.08-.94-.18-1.88-.12-2.83-.18-.12,0-.29.06-.38.15-.74.7-1.14,1.62-1.6,2.6Zm-3.95-2.43c-.12.41-.2.76-.15,1.15.03.2.01.41.01.62,0,.26-.02.53.01.79.04.33.14.66.2.99.11.58.21,1.16.3,1.75.05.34.08.68.14,1.01.02.11.07.22.1.33h1.73c.03-.06.06-.1.06-.14,0-.43,0-.85-.01-1.28,0-.08-.03-.16-.01-.23.12-.46.22-.91.37-1.36.13-.39.32-.77.46-1.15.33-.86.69-1.7,1.25-2.45.06-.08.09-.18.16-.33-1.58.11-3.08.21-4.62.31Zm-7.45,1.93s.03.07.04.11c.12-.05.24-.08.36-.14.21-.1.33-.05.39.17.04.17.08.34.12.53-.22.32,0,.56.23.84.12-.02.25-.05.38-.08.12-.02.24-.08.35-.06.46.11.89-.07,1.32-.14.57-.1,1.1-.37,1.7-.31.09,0,.19-.04.29-.06.16-.04.31-.09.47-.12.23-.04.47-.06.76-.1v-2.19c-.07-.01-.16-.05-.25-.05-1.95-.06-3.79.39-5.59,1.16-.07.1-.14.2-.21.3-.13.05-.24.1-.36.14Zm28.12,9.18c.1.01.15.04.2.03.46-.08.93-.17,1.39-.26,1.05-.2,1.72-.91,2.28-1.75.1-.14.19-.3.24-.46.11-.37.18-.74.28-1.11.22-.8.27-1.62.23-2.45-.02-.43-.12-.87-.21-1.29-.08-.4-.39-.59-.76-.62-.51-.03-1.03-.02-1.54.03-.21.02-.42.17-.6.31-.23.18-.42.4-.65.62v.42c.24-.12.43-.2.61-.31.42-.26.87-.41,1.37-.36.26.03.48.1.65.33.48.63.59,1.33.4,2.09-.12.5-.25,1-.39,1.5-.24.91-.76,1.57-1.71,1.82-.29.08-.58.13-.87.18-.3.05-.51.15-.58.48-.04.18-.15.34-.22.51-.04.1-.07.19-.12.32Zm.75-2.03c.56-.04,1.04-.11,1.45-.42.37-.28.53-.68.64-1.12.1-.43.2-.85.32-1.27.13-.48.17-.94-.08-1.4-.14-.25-.19-.31-.48-.27-.62.07-1.08.44-1.57.77-.1.06-.15.24-.15.37-.01.26.03.52.04.79.02.38.05.77.03,1.15-.02.35-.11.69-.16,1.04-.02.1-.01.21-.02.37Zm-24.41,13.03s0,.08-.01.12c.19.02.38.05.57.07.19.02.39.04.58.07.27.04.54.09.81.12.17.02.35,0,.53.01,1.08.1,2.16.19,3.25.12.92-.05,1.85-.05,2.77.01,1.35.09,2.68-.08,4.01-.2,1.13-.1,2.25-.23,3.37-.39.85-.12,1.69-.28,2.53-.45.27-.05.52-.18.78-.27,0-.02,0-.04-.01-.06-.23,0-.47-.02-.7,0-.41.04-.83.11-1.24.16-.89.11-1.79.2-2.68.32-.58.08-1.14.24-1.72.3-.64.07-1.29.07-1.94.09-.32.01-.65-.04-.95.03-.57.15-1.13.08-1.7.06-.78-.02-1.56-.03-2.34,0-.36,0-.72.11-1.08.13-.21.01-.42-.06-.64-.1-.17-.03-.34-.11-.5-.12-.98-.05-1.95-.08-2.93-.11-.25,0-.5.04-.75.06Zm24-9.86c-.1-.02-.18-.05-.25-.04-.23.04-.45.1-.67.14-.27.05-.41.22-.5.46.27.03,1.24-.33,1.42-.55Zm-29.76-9.63s.02.04.03.06c.35-.18.69-.37,1.04-.55-.01-.02-.03-.05-.04-.07-.41.06-.73.29-1.03.56Z"/>
  <path class="cls-1" d="m68.78,42.46c-.05.29-.12.6-.17.91-.03.15-.05.3-.08.45-.05.22-.08.45-.16.67-.06.19-.25.27-.42.22-.16-.05-.27-.22-.24-.42.02-.13.06-.26.09-.38.16-.73.14-1.47,0-2.19-.17-.96-.6-1.78-1.47-2.32-.43-.27-.84-.56-1.34-.67-.28-.06-.56-.14-.84-.12-.7.03-1.4.09-2.09.19-.55.08-1.02.33-1.46.7-.7.61-1.32,1.28-1.84,2.04-.25.37-.45.77-.43,1.22,0,.21.08.42.13.63.03.1.12.21.11.3-.01.13-.06.28-.15.37-.12.11-.29.11-.42,0-.28-.27-.61-.51-.82-.82-.25-.37-.31-.84-.11-1.27.3-.65.57-1.33,1.04-1.9.3-.36.57-.75.86-1.12.65-.8,1.5-1.32,2.47-1.61,1.04-.31,2.11-.41,3.19-.21,1.28.23,2.33.85,3.09,1.89.42.57.73,1.19.81,1.92.06.5.16,1,.24,1.53Z"/>
  <path class="cls-1" d="m69.37,49.53c.12-.04.22-.09.32-.11.58-.13,1.14-.3,1.67-.59.49-.27.86-.68,1.22-1.09.6-.69,1.05-1.46,1.24-2.37.05-.24.14-.46.19-.7.26-1.23-.01-2.39-.49-3.53-.38-.91-.96-1.67-1.59-2.41-.19-.22-.45-.38-.71-.52-.42-.23-.86-.44-1.31-.63-.21-.09-.44-.1-.67-.12-.14-.02-.29.01-.43,0-.3-.03-.59-.06-.88.06-.08.03-.19,0-.27,0-.15-.33-.1-.5.19-.59.32-.1.66-.16,1-.21.26-.04.53-.03.79-.05.51-.06.95.1,1.38.35.55.32,1.1.63,1.64.98.82.54,1.36,1.33,1.78,2.2.24.5.46,1.02.62,1.55.1.36.12.76.1,1.14-.06,1-.3,1.97-.63,2.92-.07.19-.14.37-.17.57-.08.55-.56.82-.83,1.24-.37.57-.87,1.05-1.38,1.49-.26.23-.53.42-.9.42-.14,0-.29.04-.41.1-.36.16-.75.15-1.13.16-.19,0-.2-.01-.33-.28Z"/>
  <path class="cls-1" d="m58.44,51.22c0,.1.04.23,0,.31-.32.6-.8,1.05-1.42,1.32-.12.05-.29.06-.42.01-.36-.13-.72-.28-1.06-.45-.59-.29-.98-.81-1.34-1.34-.74-1.09-.81-2.28-.56-3.54.2-1.03.64-1.94,1.3-2.74.5-.61,1.15-.92,1.98-.86.05.11.09.22.16.37-.22.15-.42.28-.63.42-.33.56-.69,1.11-1,1.69-.13.24-.21.51-.27.77-.25,1.04-.22,2.08.1,3.09.18.58.54,1.05,1,1.45.17.15.37.21.61.15.33-.08.68-.09.96-.3.16-.12.32-.26.47-.39.04.01.08.02.12.03Z"/>
  <path class="cls-1" d="m64.47,57.22c.29-.14.5-.24.72-.34.88-.39,1.64-.96,2.39-1.55.53-.42,1.1-.8,1.63-1.22.61-.49,1.17-1.02,1.58-1.69.11-.19.28-.34.38-.53.23-.42.43-.86.65-1.29.19-.37.37-.75.56-1.11.09-.16.22-.3.42-.23.22.08.22.27.2.47-.11,1.24-.68,2.27-1.46,3.21-.44.52-.92.99-1.49,1.38-.55.37-1.04.84-1.58,1.23-1.02.75-1.98,1.6-3.18,2.07-.18.07-.35.18-.52.27-.19.11-.36.1-.5-.07-.14-.18-.04-.33.09-.46.05-.05.1-.12.12-.13Z"/>
  <path class="cls-1" d="m69.26,50.73c.06.08.13.16.17.25.09.17.15.36.25.53.15.24.14.48.06.73-.18.6-.52,1.12-.96,1.55-.5.49-1.04.95-1.6,1.37-.5.37-1.05.67-1.56,1.02-.24.17-.45.39-.67.58-.03.03-.05.07-.09.1-.21.2-.47.24-.62.1-.14-.13-.11-.36.11-.58.64-.62,1.28-1.22,1.93-1.84.23-.22.47-.43.7-.65.41-.39.83-.78,1.23-1.18.47-.46.76-1.01.83-1.67.01-.1.07-.19.1-.29l.11-.02Z"/>
  <path class="cls-1" d="m32.09,42.21c.03-.15.06-.32.09-.47.16-.7.81-1.07,1.48-.84.62.22,1.11.6,1.47,1.15.38.59.3,1.19-.22,1.7-.08.07-.19.11-.28.17.02.04.04.08.05.12.09.07.18.13.27.2.18.13.37.24.54.37.15.12.17.34.06.47-.13.15-.26.11-.41.01-1.09-.71-2.18-1.42-3.27-2.13-.3-.2-.29-.42,0-.61.06-.04.13-.08.21-.13Zm.43.26c.06.09.14.24.26.33.38.28.78.53,1.18.78.09.06.28.08.36.02.48-.35.68-.82.29-1.38-.3-.44-.77-.59-1.22-.79-.08-.04-.21,0-.31.04-.45.15-.47.55-.55,1Z"/>
  <path class="cls-1" d="m95.15,65.9c.68.04,1.32.18,1.94.41.56.21.9.94.74,1.52-.21.77-.72,1.11-1.5,1.1-.79-.01-1.56-.14-2.26-.49-.81-.41-1.12-1.12-.58-1.92.11-.17.33-.3.52-.36.37-.12.76-.17,1.15-.24Zm-.4.58c-.15.02-.32.03-.48.06-.33.06-.48.29-.53.59-.05.28.08.49.3.65.12.09.27.16.41.2.6.2,1.21.3,1.84.34.2.01.41-.05.61-.09.3-.07.43-.29.46-.58.03-.28-.07-.51-.34-.66-.71-.38-1.48-.44-2.27-.53Z"/>
  <path class="cls-1" d="m57.28,93.87c.32,0,.61-.01.9,0,.18.01.36.08.55.11.73.1,1.02.84,1,1.42-.03.66-.48,1.14-1.16,1.23-.24.03-.48,0-.72.01-.13,0-.26,0-.41,0-.03.16-.05.27-.06.39-.04.32-.07.63-.12.95-.01.09-.07.17-.12.28-.19-.03-.36-.05-.54-.07-.15-.31-.04-.6.01-.89.12-.62.25-1.25.37-1.87.1-.5.19-1.01.29-1.56Zm.25,2.23c.37.1.73.14,1.08,0,.42-.15.59-.46.56-.94-.03-.41-.22-.61-.68-.73-.13-.03-.26-.06-.39-.08-.36-.06-.48.04-.51.4-.03.32-.06.63-.08.95,0,.12,0,.24.02.38Z"/>
  <path class="cls-1" d="m78.18,31.03c-.11.2-.31.24-.49.29-.31.09-.62.16-.92.24-.26.07-.36.2-.32.49.06.49.15.97.23,1.46.02.16.03.31.05.48-.41-.04-.6-.19-.66-.52-.06-.41-.11-.83-.15-1.24-.02-.16-.02-.31-.26-.35-.35.32-.43.83-.74,1.24-.13-.05-.24-.09-.39-.15.05-.17.06-.31.12-.43.48-1.03.97-2.06,1.46-3.09.11-.23.21-.47.31-.7.3-.02.46.1.55.31-.34.74-.67,1.46-.99,2.19,0,0,.03.03.06.08.4-.14.83-.23,1.21-.43.38-.2.64-.08.94.15Z"/>
  <path class="cls-1" d="m65.33,27.43c0-.19-.02-.34-.03-.53.72-.08,1.38-.12,1.96.31.35.26.4.64.32,1.04-.13.68-.27,1.35-.41,2.03,0,.04-.03.08-.05.12-.27.17-.46.04-.63-.18-.1.02-.19.04-.28.07-.41.13-.82.12-1.13-.21-.35-.37-.39-.83-.21-1.29.16-.41.54-.57.95-.6.35-.03.7,0,1.06,0,.2-.25.16-.52-.13-.65-.34-.16-.69-.2-1.06-.14-.1.02-.21.03-.37.05Zm.05,2.09c.3.45.71.42,1.2.15.24-.13.32-.62.17-1-.35-.07-.71-.08-1.04.06-.14.06-.25.26-.32.42-.05.11,0,.26,0,.37Z"/>
  <path class="cls-1" d="m81.98,34.9c.27-.32.26-.61-.04-.86-.21-.17-.46-.28-.7-.42-.12-.07-.24-.12-.41-.2.13-.15.22-.26.29-.34.28-.04.48.07.66.22.28.24.59.46.82.75.27.34.24.67-.03,1.02-.43.57-.86,1.13-1.3,1.69-.23.29-.42.24-.59-.1-.01-.03-.02-.06-.04-.09-.02-.03-.04-.05-.01-.02-.31-.12-.58-.19-.81-.33-.43-.26-.55-.74-.36-1.24.19-.48.62-.73,1.1-.69.39.03.68.23.99.41.14.08.28.14.42.21Zm-.3.38c-.32-.17-.59-.32-.88-.44-.11-.05-.26-.03-.39,0-.26.05-.36.27-.43.5-.06.19.04.35.19.46.49.36.88.43,1.26-.11.07-.11.14-.22.25-.4Z"/>
  <path class="cls-1" d="m31.13,76.36c.18-.24.36-.17.55-.14.26.4.56.79.67,1.27.1.43-.06.83-.43,1.04-.64.37-1.29.73-1.94,1.09-.05.03-.1.04-.18.07-.1-.12-.2-.24-.3-.37.07-.12.12-.21.18-.33-.37-.14-.61-.39-.79-.72-.23-.43-.14-1.01.2-1.29.44-.35,1.02-.38,1.41-.01.23.21.4.49.6.73.12.15.24.3.36.44.35-.19.46-.38.36-.68-.09-.25-.24-.48-.38-.72-.08-.14-.2-.25-.3-.39Zm-.16,2.04c-.2-.48-.45-.88-.91-1.1-.33-.15-.75.12-.75.46,0,.44.25.74.61.95.3.18.54,0,.79-.14.08-.04.14-.1.26-.17Z"/>
  <path class="cls-1" d="m91.42,83.35c-.21.16-.37.28-.55.41-.11.27-.2.59-.37.87-.32.56-.83.62-1.3.44-.41-.15-.8-.71-.64-1.17.11-.32.28-.61.43-.92.09-.18.18-.36.27-.53-.38-.28-.66-.26-.9.05-.17.21-.29.46-.43.7-.05.09-.1.19-.16.32-.14-.12-.24-.21-.33-.28,0-.07-.02-.1,0-.13.22-.55.53-1.03,1.06-1.34.39-.22.74-.04,1.05.16.53.35,1.04.73,1.56,1.11.09.07.17.16.33.3Zm-1.72-.64c-.33.41-.55.77-.61,1.22-.04.3.11.51.4.58.26.07.56-.06.73-.33.17-.3.35-.62.11-.95-.15-.2-.39-.33-.63-.53Z"/>
  <path class="cls-1" d="m41.37,33.91c-.2-.3-.38-.38-.64-.3-.35.11-.58.38-.81.65-.08.1-.16.19-.29.34-.14-.13-.24-.23-.39-.38.27-.28.47-.52.71-.72.19-.16.41-.3.63-.41.42-.2.87-.1,1.14.27.44.6.85,1.22,1.27,1.84.04.06.05.14.07.19-.11.26-.3.25-.52.18-.07.14-.14.28-.21.41-.3.54-.91.74-1.43.45-.55-.31-.78-1.02-.46-1.53.15-.23.36-.41.55-.6.13-.13.25-.26.39-.4Zm.34.45c-.09.04-.16.05-.2.09-.17.16-.36.3-.48.49-.1.17-.19.4-.16.58.08.5.59.65.96.31.22-.21.42-.45.35-.77-.06-.28-.27-.49-.47-.69Z"/>
  <path class="cls-1" d="m46.81,92.27c.09-.15.14-.26.2-.36.43-.04.78.16,1.13.34.15.08.29.19.43.3.34.27.38.65.24,1.02-.26.71-.56,1.41-.85,2.11-.02.04-.06.07-.08.09-.32.07-.44-.13-.56-.39-.14,0-.28,0-.41,0-.7.05-1.31-.52-1.28-1.19.03-.52.49-1,1.01-.97.38.02.75.15,1.12.23.07.02.14.06.22.07.24.04.38-.11.33-.35-.07-.33-.3-.5-.6-.6-.2-.07-.4-.11-.6-.18-.09-.03-.18-.07-.31-.13Zm1.08,1.66c-.29-.08-.56-.17-.83-.23-.39-.09-.74.13-.81.48-.07.36.16.67.57.74.13.02.26.02.39.01.5-.01.82-.47.68-1Z"/>
  <path class="cls-1" d="m76.45,95.38c-.21.26-.41.21-.63.09-.09.08-.2.16-.28.25-.33.41-.76.58-1.28.5-.36-.05-.71-.45-.77-.85-.08-.47.13-.81.48-1.07.24-.18.5-.31.75-.47.12-.08.24-.17.35-.26-.18-.34-.43-.5-.73-.39-.31.11-.59.28-.88.43-.07.03-.13.08-.18.12-.2-.2-.26-.36-.11-.48.46-.38.97-.64,1.58-.6.35.02.59.24.74.54.21.43.4.88.6,1.32.13.29.25.58.37.87Zm-1.23-1.29c-.41.21-.82.34-1.08.72-.15.23-.16.43-.01.64.13.2.39.32.63.25.37-.11.67-.35.77-.7.09-.32-.08-.61-.31-.91Z"/>
  <path class="cls-1" d="m28.03,68.45c.4-.06.58-.21.58-.52,0-.24-.06-.48-.12-.71-.05-.19-.14-.37-.2-.54.27-.19.44-.17.55.07.24.54.35,1.11.17,1.69-.09.28-.35.42-.62.5-.38.11-.77.18-1.15.27-.29.06-.58.11-.87.19-.17.04-.33.09-.45-.08-.12-.17-.04-.31.08-.44.02-.02.03-.06.05-.11-.09-.14-.19-.28-.28-.42-.2-.3-.25-.63-.18-.98.07-.38.38-.71.71-.78.5-.1.95.03,1.16.41.2.36.33.76.48,1.15.04.1.06.2.1.31Zm-.57.18c.02-.1.07-.18.05-.24-.1-.36-.12-.76-.42-1.05-.18-.18-.51-.26-.72-.14-.24.13-.37.41-.3.67.05.17.1.34.2.48.11.17.23.37.47.36.23,0,.45-.05.71-.08Z"/>
  <path class="cls-1" d="m41.72,90.72c-.28-.04-.39.12-.51.28-.19.27-.37.54-.55.8-.47-.15-.52-.36-.25-.72.56-.74,1.1-1.51,1.65-2.26.26-.35.52-.69.77-1.02.39.13.42.27.21.56-.42.57-.82,1.16-1.28,1.82.19,0,.31.02.42,0,.37-.08.75-.17,1.12-.26.27-.07.49-.02.71.24-.55.31-1.18.23-1.74.54.1.73.2,1.48.29,2.22-.35.1-.65-.1-.69-.46-.05-.5-.08-1.01-.12-1.51,0-.07-.03-.15-.05-.24Z"/>
  <path class="cls-1" d="m25.2,61.78c.01-.2.03-.42.05-.61.58-.25,4.19-1.37,4.4-1.3.14.3.08.5-.21.59-.64.19-1.28.37-1.93.56-.37.11-.74.22-1.1.33-.09.03-.17.09-.33.17.18.07.28.12.38.16,1,.34,2,.67,2.99,1.01.23.08.26.22.13.5-.22.03-3.18-.92-4.39-1.41Z"/>
  <path class="cls-1" d="m82.36,86.28c.14-.12.23-.19.36-.3.62.58,1.14,1.24,1.73,1.93.06-.14.12-.22.12-.3.01-.36.01-.72.02-1.08,0-.31.04-.59.42-.76.03.13.08.23.08.34,0,.27-.03.55-.03.82,0,.2.03.41.05.63.77.15,1.53.11,2.25.32-.05.32-.3.51-.61.48-.46-.06-.91-.13-1.37-.19-.14-.02-.27,0-.49,0,.05.15.06.27.12.35.17.23.36.44.55.66.07.08.13.17.24.31-.13.12-.25.22-.4.37-1.07-1.16-2-2.38-3.04-3.55Z"/>
  <path class="cls-1" d="m94.47,62.43h-.53c-.28-.61-.42-1.22-.11-1.85.14-.3.52-.54.85-.53.37.02.69.13.89.46.03.05.08.1.15.19.08-.12.15-.2.21-.3.22-.42.6-.57,1.04-.55.77.03,1.33.64,1.33,1.4,0,.47-.01.94-.32,1.38h-.49c.05-.16.07-.29.12-.4.19-.41.22-.83.08-1.25-.11-.33-.31-.48-.66-.5-.03,0-.07,0-.1,0-.5-.06-.85.12-.9.85-.02.23-.01.23-.26.37-.21-.03-.25-.18-.25-.36,0-.28-.14-.49-.37-.62-.21-.12-.45-.19-.68-.02-.25.19-.36.45-.31.75.03.21.12.42.19.63.03.09.06.18.12.35Z"/>
  <path class="cls-1" d="m64.38,98.54c-.67.07-1.36-.51-1.46-1.24-.08-.55-.07-1.09.23-1.59.14-.24.33-.42.57-.53.83-.35,1.67-.1,2.04.79.16.38.18.77.17,1.16-.02.78-.65,1.46-1.54,1.41Zm-.95-1.78c.05.23.08.49.15.74.08.29.47.57.77.58.4.01.79-.18.88-.51.16-.56.17-1.14-.12-1.66-.27-.49-.95-.55-1.36-.16-.29.27-.27.63-.33,1.01Z"/>
  <path class="cls-1" d="m59.58,27.38c0,.37-.01.71,0,1.05.02.38.06.77.08,1.15.02.28-.11.36-.46.32-.17-.26-.34-2.96-.2-3.27.23-.14.41-.03.59.14.18-.09.35-.18.54-.25.4-.14.8-.15,1.14.16.23.2.33.48.33.76.02.69.01,1.39,0,2.08,0,.31-.14.38-.54.29-.01-.11-.04-.24-.04-.36,0-.57-.02-1.14,0-1.71.04-.76-.51-.88-1.09-.62-.13.06-.23.16-.36.25Z"/>
  <path class="cls-1" d="m89.44,41.33c.43.22.47.37.22.71-.34.45-.68.91-1.02,1.37-.06.09-.08.21-.16.39.34-.06.61-.09.87-.15.39-.08.77-.18,1.15-.27.39-.09.51,0,.61.44-.07.03-.15.07-.23.09-.69.14-1.37.28-2.06.42-.72.14-1.44.29-2.16.43-.3.06-.37,0-.48-.35.1-.05.19-.12.3-.15.24-.06.49-.11.74-.15.19-.03.34-.1.46-.27.41-.59.84-1.18,1.25-1.77.08-.12.14-.25.22-.37.09-.13.2-.26.29-.38Z"/>
  <path class="cls-1" d="m82.27,92.27c-.19.07-.32.11-.48.17-.25-.38-.49-.74-.74-1.1-.17-.24-.33-.49-.51-.72-.31-.4-.72-.4-1.05,0-.35.42-.35.6-.07,1.06.29.47.57.94.83,1.42.06.1.08.26.03.36-.07.15-.23.19-.42.11-.52-.89-1.04-1.8-1.55-2.69.14-.36.45-.17.67-.27.07-.1.14-.22.22-.34.44-.62,1.1-.7,1.62-.15.34.37.61.8.91,1.21.12.17.24.34.35.52.07.12.12.25.2.43Z"/>
  <path class="cls-1" d="m33.35,84.62c-.98-.47-1.55-1.25-1.44-1.98.11-.05.24-.11.42-.19.03.16.05.26.06.36.03.44.25.79.58,1.07.16.14.36.15.55.04.18-.11.24-.29.16-.52-.08-.23-.18-.45-.28-.67-.23-.51-.12-1.01.36-1.28.4-.23.76-.2,1.15.13.32.27.5.64.66,1.01.09.21-.05.39-.35.45-.06-.14-.11-.3-.18-.44-.11-.2-.22-.41-.36-.59-.14-.19-.36-.2-.57-.13-.22.08-.25.29-.2.47.08.32.19.63.32.93.23.54.07.97-.48,1.19-.13.05-.27.1-.4.15Z"/>
  <path class="cls-1" d="m35.99,86.99c.06.12.11.22.16.33.15.33.29.68.62.87.13.08.31.13.46.12.26-.02.38-.21.32-.47-.03-.14-.1-.26-.17-.39-.12-.22-.27-.43-.37-.66-.18-.42-.11-.74.2-1.02.29-.26.8-.37,1.1-.15.32.23.62.52.87.84.23.29.1.53-.23.58-.13-.22-.26-.45-.4-.66-.08-.11-.2-.2-.32-.28-.19-.13-.43-.11-.58.03-.17.16-.17.36-.08.55.12.23.26.46.4.68.29.47.26.87-.09,1.22-.31.31-.87.33-1.28.07-.43-.27-.71-.65-.93-1.08-.12-.22-.04-.38.3-.57Z"/>
  <path class="cls-1" d="m46.17,32.96c.55-.03.94-.53,1.48-.5.15.19.12.34-.03.42-.58.31-1.16.6-1.73.9-.28-.13-.31-.33-.28-.56.09-.74.19-1.48.27-2.22.01-.11,0-.23,0-.39-.54.11-.95.45-1.45.63-.07-.15-.12-.25-.18-.39.69-.4,1.38-.75,2.16-1.06.04.18.1.31.09.42-.02.33-.05.66-.1.98-.08.53-.18,1.06-.27,1.59,0,.06.02.12.04.2Z"/>
  <path class="cls-1" d="m61.43,48.47c-.01-.4-.02-.82-.04-1.25-.04,0-.08,0-.12,0-.02.1-.05.21-.05.31.03.58-.2,1.09-.43,1.6-.09.2-.36.28-.54.19-.17-.09-.2-.29-.1-.52.13-.3.26-.6.35-.92.1-.33,0-.65-.13-.96-.03-.07-.06-.14-.1-.21-.07-.15-.09-.33.07-.41.12-.06.29-.04.43,0,.1.03.19.14.28.21.08-.06.14-.11.21-.15.22-.13.47-.06.58.18.24.51.34,1.04.23,1.6-.07.34-.24.45-.65.33Z"/>
  <path class="cls-1" d="m87.56,38.97c-1.06.4-2.12.81-3.14,1.2-.34-.21-.37-.3-.24-.59.32-.69.66-1.38.98-2.08.07-.15.13-.3.21-.45.06-.12.14-.23.21-.35.38.19.46.43.29.76-.28.52-.57,1.04-.84,1.56-.05.1-.08.21-.12.32.02.02.04.04.06.06.24-.1.47-.19.71-.29.44-.18.87-.37,1.31-.54.12-.05.26-.07.38-.05.18.04.27.17.21.44Z"/>
  <path class="cls-1" d="m95.42,75.03c.07-.31.13-.56.2-.85-.92-.34-1.8-.66-2.71-.99-.09.14-.15.25-.22.36-.07.11-.14.21-.2.3-.22-.03-.27-.13-.23-.29.07-.29.04-.54-.2-.74-.13-.11-.15-.26.03-.45,1.23.38,2.47.83,3.77,1.26.07-.18.13-.32.18-.47.09-.28.2-.31.48-.08-.21.63-.43,1.28-.67,1.98-.14,0-.28-.02-.42-.03Z"/>
  <path class="cls-1" d="m58.52,54.43c-.16-.33-.12-.44.16-.66.49-.37.96-.78,1.25-1.33.1-.19.15-.4.22-.61.05-.15.09-.31.14-.47.07-.2.21-.28.42-.22.17.05.29.25.25.45-.16.85-.53,1.59-1.19,2.17-.21.18-.42.35-.63.53-.18.16-.38.19-.62.13Z"/>
  <path class="cls-1" d="m36.17,37.36c.18-.3.12-.77.61-.95.11.1.21.21.34.33-.09.12-.16.19-.21.27-.09.15-.19.29-.27.45-.14.27-.07.5.16.7.4.36.78.73,1.16,1.11.23.23.26.37.13.5-.13.13-.3.09-.51-.11-.61-.57-1.22-1.14-1.82-1.7-.13-.12-.29-.23-.18-.44.11-.22.29-.2.48-.14.03,0,.06,0,.11,0Z"/>
  <path class="cls-1" d="m69.23,93.04c.36,1.49.71,2.91,1.07,4.39-.13.07-.27.14-.48.25-.09-.26-.18-.46-.23-.66-.21-.9-.42-1.79-.62-2.69-.08-.37-.14-.75-.22-1.17.16-.04.29-.08.47-.12Z"/>
  <path class="cls-1" d="m55.6,27.02c.02.16.05.31.07.49-.15.04-.25.06-.36.08-.54.12-.78.49-.67,1.03.11.55.2,1.1.3,1.64,0,.05,0,.11,0,.2-.12.02-.23.05-.4.08-.32-1.05-.46-2.11-.76-3.19.16-.06.31-.11.46-.17.11.15.18.25.27.36.33-.22.56-.59,1.1-.52Z"/>
  <path class="cls-1" d="m27.15,73.72c-.07-.15-.12-.26-.17-.37.2-.28.5-.28.74-.37,1.09-.37,2.18-.71,3.28-1.06.07-.02.16-.06.22-.04.09.03.22.09.25.16.02.07-.04.22-.11.27-.15.1-.33.17-.51.23-1.02.34-2.03.68-3.05,1.02-.2.06-.4.1-.65.17Z"/>
  <path class="cls-1" d="m51.15,31.49c-.4.04-.46,0-.56-.28-.2-.57-.41-1.13-.61-1.7-.11-.33-.21-.66-.32-1.02.13-.07.24-.14.41-.24.09.13.2.22.24.34.29.84.56,1.68.83,2.52.04.11,0,.24,0,.37Z"/>
  <path class="cls-1" d="m45.34,29.6c-.12.08-.24.17-.38.24-.08.04-.21.09-.28.06-.35-.17-.68-.36-1.02-.55.19-.28.33-.32.58-.22.19.08.38.15.55.22.25-.16.21-.39.25-.59.03-.18.07-.35.3-.35.2.18.2.52,0,1.2Z"/>
  <path class="cls-1" d="m35.77,81.8q-.42-.46-.17-.98c.08-.18.17-.35.26-.53.01-.02.05-.03.11-.06.28.35,0,.68-.07,1.04.13.02.24.05.35.06.12,0,.25-.02.36,0,.08.02.14.11.21.16,0,.03-.02.07-.03.1-.35.07-.69.14-1.03.2Z"/>
  <path class="cls-1" d="m82.23,32.91c.29-.15.57-.32.86-.45.24-.1.54.1.67.44-.36.1-.72.2-1.14.32-.1-.05-.25-.13-.4-.21v-.11Z"/>
  <path class="cls-1" d="m49.44,27.84c0-.11-.02-.22-.02-.34.01-.16.04-.32.06-.49.04-.34.29-.51.7-.42-.02.11-.04.22-.07.32-.08.25-.16.5-.26.74-.06.16-.17.28-.41.19Z"/>
  <path class="cls-1" d="m48.11,91.63c.05-.32.62-.82.9-.78.11.01.2.09.31.13-.24.43-.85.75-1.2.65Z"/>
</svg>