<?xml version="1.0" encoding="UTF-8"?>
<svg id="Vrstva_1" data-name="Vrstva 1" xmlns="http://www.w3.org/2000/svg" viewBox="0 0 101.64 27.99">
  <defs>
    <style>
      .cls-1 {
        fill: #2b2e37;
      }

      .cls-1, .cls-2 {
        stroke-width: 0px;
      }

      .cls-2 {
        fill: #232958;
      }
    </style>
  </defs>
  <g>
    <path class="cls-2" d="m8.43,4.51c0,.46-.08.9-.24,1.34-.16.44-.39.8-.68,1.1-.41.4-.86.71-1.36.91-.5.21-1.12.31-1.87.31h-1.64v3.33H0V1.28h4.33c.65,0,1.2.05,1.64.17.45.11.84.28,1.18.5.41.27.73.61.94,1.04.22.42.33.93.33,1.52m-2.72.06c0-.29-.08-.53-.23-.74-.16-.21-.34-.35-.54-.43-.28-.11-.54-.17-.8-.18-.26-.01-.61-.02-1.04-.02h-.45v3.05h.76c.45,0,.82-.03,1.11-.08.29-.06.53-.16.73-.33.17-.15.29-.32.37-.52.07-.2.11-.45.11-.74"/>
    <path class="cls-2" d="m14.91,10.68c-.13.1-.3.22-.49.36-.2.14-.38.25-.56.34-.24.11-.49.19-.76.24-.26.05-.55.08-.86.08-.73,0-1.35-.23-1.84-.68-.49-.45-.74-1.03-.74-1.73,0-.56.13-1.02.38-1.38.25-.36.61-.64,1.07-.84.46-.21,1.02-.35,1.7-.44.68-.09,1.38-.15,2.11-.19v-.04c0-.43-.17-.72-.52-.88-.35-.16-.86-.24-1.54-.24-.41,0-.84.07-1.3.22-.46.14-.79.26-.99.33h-.23v-1.86c.26-.07.68-.15,1.27-.25.59-.09,1.18-.14,1.77-.14,1.4,0,2.42.22,3.04.65.62.43.94,1.11.94,2.03v5.24h-2.45v-.82Zm0-1.2v-1.6c-.33.03-.7.07-1.08.11-.39.05-.68.1-.89.17-.25.08-.43.19-.56.34-.13.15-.2.34-.2.58,0,.16.01.29.04.39.03.1.1.2.21.29.1.09.23.16.38.2.15.04.38.07.69.07.25,0,.5-.05.75-.15.25-.1.48-.23.67-.4"/>
    <polygon class="cls-2" points="27.47 3.79 24.5 11.5 21.7 11.5 18.75 3.79 21.36 3.79 23.14 9.1 24.91 3.79 27.47 3.79"/>
    <path class="cls-2" d="m36.49,8.1h-5.65c.04.6.27,1.07.69,1.38.42.32,1.05.48,1.87.48.52,0,1.03-.09,1.52-.28.49-.19.88-.39,1.16-.6h.27v1.98c-.56.22-1.08.39-1.58.49-.49.1-1.04.15-1.64.15-1.55,0-2.73-.35-3.55-1.04-.82-.69-1.23-1.68-1.23-2.97s.39-2.28,1.17-3.02c.78-.74,1.85-1.12,3.21-1.12,1.25,0,2.19.32,2.82.95s.95,1.54.95,2.73v.86Zm-2.45-1.45c-.01-.52-.14-.9-.38-1.17-.24-.26-.62-.39-1.13-.39-.47,0-.87.12-1.17.37-.31.25-.48.64-.51,1.19h3.2Z"/>
    <rect class="cls-2" x="38.3" y=".82" width="2.48" height="10.67"/>
    <path class="cls-2" d="m58.2,6.39c0,1.63-.47,2.92-1.4,3.88-.93.96-2.22,1.44-3.87,1.44s-2.93-.48-3.86-1.44c-.93-.96-1.4-2.25-1.4-3.88s.47-2.94,1.4-3.89c.93-.95,2.22-1.43,3.86-1.43s2.92.48,3.86,1.43c.94.95,1.41,2.25,1.41,3.89m-3.49,2.59c.26-.31.44-.68.57-1.1.12-.42.18-.92.18-1.49,0-.61-.07-1.13-.21-1.56-.14-.43-.33-.78-.56-1.04-.23-.28-.5-.47-.81-.6-.3-.12-.62-.18-.95-.18s-.65.06-.94.18c-.3.12-.57.32-.81.59-.23.26-.42.61-.56,1.06-.14.45-.22.97-.22,1.57s.07,1.13.21,1.55c.14.43.32.77.55,1.05.23.27.5.47.8.6.31.13.63.19.97.19s.66-.06.97-.2c.31-.13.57-.33.8-.61"/>
    <path class="cls-2" d="m66.86,9.05c0,.8-.36,1.44-1.07,1.92-.71.49-1.69.73-2.93.73-.69,0-1.31-.06-1.87-.19-.56-.13-1.01-.27-1.34-.43v-2.03h.23c.12.09.27.18.43.28.16.1.39.21.69.33.26.11.55.2.87.27.32.08.67.11,1.04.11.48,0,.84-.05,1.08-.16.23-.11.35-.27.35-.48,0-.19-.07-.32-.21-.41-.14-.08-.4-.17-.78-.24-.18-.04-.43-.08-.74-.13-.31-.05-.6-.11-.85-.17-.7-.18-1.22-.47-1.56-.86-.34-.38-.51-.87-.51-1.44,0-.74.35-1.36,1.05-1.85.7-.49,1.66-.74,2.88-.74.58,0,1.13.06,1.66.18.53.12.94.24,1.24.37v1.95h-.21c-.36-.25-.78-.46-1.25-.61-.47-.16-.94-.24-1.42-.24-.4,0-.73.05-1,.17-.27.11-.41.26-.41.46,0,.18.06.32.18.42.12.1.41.19.87.29.25.05.52.1.81.15.29.05.58.11.87.18.65.17,1.13.43,1.44.8.31.36.47.82.47,1.36m-.47-9.05l-2.2,2.7h-1.72l-2.2-2.7h1.81l1.27,1.56,1.26-1.56h1.78Z"/>
    <polygon class="cls-2" points="76.75 11.5 73.88 11.5 71.72 8.15 71.05 8.97 71.05 11.5 68.57 11.5 68.57 .82 71.05 .82 71.05 7.19 73.7 3.79 76.55 3.79 73.78 7.11 76.75 11.5"/>
    <path class="cls-2" d="m85.67,8.1h-5.65c.04.6.27,1.07.69,1.38.42.32,1.05.48,1.87.48.52,0,1.03-.09,1.52-.28.49-.19.88-.39,1.16-.6h.27v1.98c-.56.22-1.08.39-1.58.49-.49.1-1.04.15-1.64.15-1.55,0-2.73-.35-3.55-1.04-.82-.69-1.23-1.68-1.23-2.97s.39-2.28,1.17-3.02c.78-.74,1.85-1.12,3.21-1.12,1.25,0,2.19.32,2.82.95s.95,1.54.95,2.73v.86Zm-2.45-1.45c-.01-.52-.14-.9-.38-1.17-.24-.26-.62-.39-1.13-.39-.47,0-.87.12-1.17.37-.31.25-.48.64-.51,1.19h3.2Z"/>
    <path class="cls-2" d="m93.06,6.15h-.22c-.1-.04-.27-.06-.51-.08-.23-.02-.43-.03-.58-.03-.35,0-.66.02-.93.07-.27.05-.56.12-.87.23v5.16h-2.48V3.79h2.48v1.13c.54-.47,1.02-.78,1.42-.93.4-.15.77-.23,1.11-.23.09,0,.18,0,.29,0,.11,0,.21.01.29.02v2.35Z"/>
    <path class="cls-2" d="m99.19,10.68c-.13.1-.3.22-.49.36-.2.14-.38.25-.56.34-.24.11-.49.19-.76.24-.26.05-.55.08-.86.08-.73,0-1.35-.23-1.84-.68-.49-.45-.74-1.03-.74-1.73,0-.56.13-1.02.38-1.38.25-.36.61-.64,1.07-.84.46-.21,1.02-.35,1.7-.44.68-.09,1.38-.15,2.11-.19v-.04c0-.43-.17-.72-.52-.88-.35-.16-.86-.24-1.54-.24-.41,0-.84.07-1.3.22-.46.14-.79.26-.99.33h-.23v-1.86c.26-.07.68-.15,1.27-.25.59-.09,1.18-.14,1.77-.14,1.4,0,2.42.22,3.04.65.62.43.94,1.11.94,2.03v5.24h-2.45v-.82Zm0-1.2v-1.6c-.33.03-.7.07-1.08.11-.39.05-.68.1-.89.17-.25.08-.43.19-.56.34-.13.15-.2.34-.2.58,0,.16.01.29.04.39.03.1.1.2.21.29.1.09.23.16.38.2.15.04.38.07.69.07.25,0,.5-.05.75-.15.25-.1.48-.23.67-.4"/>
  </g>
  <g>
    <path class="cls-1" d="m6.35,18.66c0,.2-.04.37-.11.52-.07.15-.17.27-.3.37-.13.1-.27.18-.44.23-.17.05-.35.08-.54.08-.13,0-.25,0-.36-.03-.11-.02-.21-.05-.3-.08-.08-.03-.16-.06-.21-.1-.06-.03-.1-.06-.12-.09-.03-.02-.04-.06-.05-.11-.01-.05-.02-.11-.02-.2,0-.06,0-.11,0-.15,0-.04.01-.07.02-.1,0-.03.02-.04.03-.05.02-.01.03-.02.05-.02.03,0,.07.02.12.05.05.03.11.07.19.11s.17.07.28.11c.11.03.23.05.37.05.09,0,.18-.01.25-.03.07-.02.14-.05.19-.09.05-.04.09-.09.12-.15.03-.06.04-.13.04-.2,0-.09-.02-.16-.07-.22-.05-.06-.11-.12-.18-.16-.07-.05-.16-.09-.25-.13-.1-.04-.19-.09-.29-.13-.1-.05-.2-.1-.29-.16-.1-.06-.18-.13-.26-.21-.07-.08-.13-.18-.18-.29-.05-.11-.07-.25-.07-.4,0-.18.03-.34.1-.47.07-.14.16-.25.27-.34.11-.09.25-.16.4-.2.15-.04.32-.07.49-.07.09,0,.18,0,.27.02s.17.03.25.05c.08.02.15.05.21.08.06.03.1.05.12.07.02.02.03.04.04.05s.01.03.02.05c0,.02,0,.05,0,.09,0,.03,0,.08,0,.13,0,.06,0,.1,0,.14,0,.04,0,.07-.01.1,0,.02-.02.04-.03.06-.01.01-.03.02-.05.02s-.06-.01-.1-.04c-.05-.03-.1-.06-.17-.09-.07-.03-.15-.06-.23-.09-.09-.03-.19-.04-.29-.04-.08,0-.16,0-.22.03-.06.02-.11.05-.16.08-.04.04-.07.08-.09.13-.02.05-.03.1-.03.16,0,.08.02.15.07.22.05.06.11.11.18.16.08.05.16.09.26.13.1.04.2.08.3.13.1.05.2.1.3.16.1.06.18.13.26.21.08.08.14.18.18.29.05.11.07.24.07.39"/>
    <path class="cls-1" d="m9.29,18.31c0,.09-.02.15-.06.2-.04.04-.09.06-.16.06h-1.58c0,.11.01.21.04.3.03.09.07.17.12.23.06.06.13.11.22.15.09.03.2.05.32.05s.24,0,.34-.03c.1-.02.18-.04.25-.06.07-.02.13-.04.18-.06.05-.02.08-.03.11-.03.02,0,.03,0,.04,0,.01,0,.02.02.03.04,0,.02.01.04.02.07,0,.03,0,.07,0,.12,0,.04,0,.08,0,.11,0,.03,0,.06,0,.08,0,.02-.01.04-.02.05,0,.01-.02.03-.03.04-.01.01-.05.03-.1.06-.06.02-.13.05-.21.07-.09.02-.19.04-.3.06-.11.02-.23.02-.36.02-.23,0-.43-.03-.61-.09-.17-.06-.32-.15-.43-.26-.12-.12-.2-.27-.26-.45-.06-.18-.09-.39-.09-.63,0-.23.03-.44.09-.62.06-.18.15-.34.26-.47.11-.13.25-.23.42-.29.16-.07.35-.1.55-.1.22,0,.4.03.56.1.15.06.28.15.38.27.1.11.17.25.22.4s.07.32.07.51v.12Zm-.71-.21c0-.2-.04-.37-.12-.48-.09-.12-.22-.18-.41-.18-.09,0-.17.02-.24.05-.07.03-.13.08-.17.14-.05.06-.08.13-.1.21-.02.08-.04.17-.04.26h1.09Z"/>
    <path class="cls-1" d="m11.56,17.33c0,.07,0,.13,0,.17,0,.04-.01.08-.02.1,0,.03-.02.04-.03.05-.01.01-.03.02-.05.02-.02,0-.03,0-.05-.01-.02,0-.04-.01-.07-.02-.02,0-.05-.01-.08-.02-.03,0-.06,0-.1,0-.04,0-.08,0-.12.02-.04.02-.08.04-.13.08-.04.03-.09.08-.14.14-.05.06-.1.13-.15.21v1.62s0,.04-.02.05c-.01.02-.03.03-.06.04-.03,0-.07.02-.11.02-.05,0-.11,0-.18,0s-.13,0-.18,0c-.05,0-.08-.01-.11-.02-.03-.01-.05-.02-.06-.04-.01-.01-.02-.03-.02-.05v-2.59s0-.04.02-.05c0-.01.03-.03.05-.04.03-.01.06-.02.1-.02.04,0,.09,0,.15,0,.06,0,.11,0,.16,0,.04,0,.07.01.09.02.02,0,.04.02.05.04.01.02.02.03.02.05v.32c.07-.1.13-.18.19-.24.06-.06.12-.11.17-.15.06-.04.11-.06.16-.08.05-.01.11-.02.16-.02.03,0,.05,0,.08,0,.03,0,.06,0,.09.01.03,0,.06.01.08.02.02,0,.04.02.05.03.01,0,.02.02.02.03,0,.01,0,.03.01.05s0,.05,0,.09c0,.04,0,.1,0,.17"/>
    <path class="cls-1" d="m14.43,17.09s0,.02,0,.04c0,.01,0,.03,0,.05s0,.04-.01.06c0,.02-.01.04-.02.07l-.78,2.35s-.02.06-.04.08c-.02.02-.04.04-.08.05-.04.01-.09.02-.16.02-.06,0-.15,0-.25,0s-.19,0-.25,0c-.07,0-.12-.01-.15-.02-.04-.01-.06-.03-.08-.05-.02-.02-.03-.05-.04-.08l-.78-2.35s-.02-.07-.03-.11c0-.03-.01-.05-.01-.07,0-.01,0-.03,0-.04,0-.02,0-.04.02-.05.01-.01.03-.03.06-.04.03-.01.06-.02.11-.02.05,0,.11,0,.18,0,.08,0,.14,0,.19,0,.05,0,.09.01.11.02.03,0,.05.02.06.04.01.02.02.04.03.06l.59,1.9.02.07.02-.07.58-1.9s.02-.04.03-.06c.01-.02.03-.03.06-.04.03,0,.06-.02.11-.02.05,0,.1,0,.18,0s.13,0,.18,0c.05,0,.08.01.11.02.02,0,.04.02.05.04.01.02.02.03.02.05"/>
    <path class="cls-1" d="m15.64,16.22c0,.15-.03.25-.09.31-.06.06-.17.08-.33.08s-.28-.03-.33-.08c-.06-.05-.09-.15-.09-.29s.03-.25.09-.31c.06-.06.17-.08.34-.08s.27.03.33.08c.06.06.09.15.09.3m-.05,3.47s0,.04-.02.05c-.01.01-.03.03-.06.04-.03.01-.07.02-.11.02-.05,0-.11,0-.18,0s-.13,0-.18,0c-.05,0-.08-.01-.11-.02-.03,0-.05-.02-.06-.04-.01-.02-.02-.03-.02-.05v-2.59s0-.04.02-.05c.01-.01.03-.03.06-.04.03-.01.06-.02.11-.02.05,0,.11,0,.18,0s.13,0,.18,0c.05,0,.08.01.11.02.03.01.05.02.06.04.01.02.02.03.02.05v2.59Z"/>
    <path class="cls-1" d="m18.14,18.95c0,.15-.03.28-.08.39-.06.11-.13.21-.23.28-.1.08-.22.13-.36.17-.14.04-.29.06-.45.06-.1,0-.19,0-.28-.02-.09-.01-.17-.03-.24-.05-.07-.02-.13-.05-.17-.07-.05-.02-.08-.05-.1-.07-.02-.02-.04-.05-.05-.1-.01-.04-.02-.11-.02-.19,0-.06,0-.1,0-.14,0-.03.01-.06.02-.08,0-.02.02-.04.03-.04.01,0,.03-.01.04-.01.02,0,.05.01.09.04.04.02.09.05.16.08.06.03.14.06.22.08.08.03.18.04.28.04.07,0,.12,0,.18-.02.05-.01.1-.03.13-.06.04-.03.07-.06.09-.1.02-.04.03-.08.03-.13,0-.06-.02-.11-.05-.15-.03-.04-.08-.08-.14-.11-.06-.03-.13-.06-.2-.09-.08-.03-.15-.06-.23-.09-.08-.03-.15-.07-.23-.11-.08-.04-.14-.1-.2-.16-.06-.06-.11-.14-.14-.22-.04-.09-.05-.19-.05-.32s.03-.24.07-.34c.05-.1.12-.19.21-.27.09-.07.2-.13.33-.17.13-.04.28-.06.44-.06.08,0,.16,0,.24.02.08.01.15.03.21.04.06.02.11.04.16.06.04.02.07.04.09.05s.03.03.04.04c0,.01.01.03.02.05,0,.02,0,.04.01.07,0,.03,0,.07,0,.11,0,.05,0,.09,0,.13,0,.03,0,.06-.02.08,0,.02-.02.03-.03.04-.01,0-.03.01-.04.01-.02,0-.04-.01-.08-.03-.04-.02-.08-.04-.14-.07-.06-.02-.12-.04-.19-.07-.07-.02-.16-.03-.25-.03-.07,0-.12,0-.17.02-.05.01-.09.03-.12.06-.03.03-.05.05-.07.09-.02.03-.02.07-.02.11,0,.06.02.11.05.15.04.04.09.08.15.11.06.03.13.06.2.09.08.03.15.06.23.09.08.03.16.07.23.11.08.04.15.1.2.16.06.06.11.14.15.22.04.09.06.19.06.31"/>
    <path class="cls-1" d="m22.46,17.09s0,.02,0,.04c0,.01,0,.03,0,.05s0,.04-.01.06c0,.02-.01.04-.02.07l-.78,2.35s-.02.06-.04.08c-.02.02-.04.04-.08.05-.04.01-.09.02-.16.02-.06,0-.15,0-.25,0s-.19,0-.25,0c-.07,0-.12-.01-.15-.02-.04-.01-.06-.03-.08-.05-.02-.02-.03-.05-.04-.08l-.78-2.35s-.02-.07-.03-.11c0-.03-.01-.05-.01-.07,0-.01,0-.03,0-.04,0-.02,0-.04.02-.05.01-.01.03-.03.06-.04.03-.01.06-.02.11-.02.05,0,.11,0,.18,0,.08,0,.14,0,.19,0,.05,0,.09.01.11.02.03,0,.05.02.06.04.01.02.02.04.03.06l.59,1.9.02.07.02-.07.58-1.9s.02-.04.03-.06c.01-.02.03-.03.06-.04.03,0,.06-.02.11-.02.05,0,.1,0,.18,0s.13,0,.18,0c.05,0,.08.01.11.02.02,0,.04.02.05.04.01.02.02.03.02.05"/>
    <path class="cls-1" d="m24.68,18.95c0,.15-.03.28-.08.39-.06.11-.13.21-.23.28-.1.08-.22.13-.36.17-.14.04-.29.06-.45.06-.1,0-.19,0-.28-.02-.09-.01-.17-.03-.24-.05-.07-.02-.13-.05-.17-.07-.05-.02-.08-.05-.1-.07-.02-.02-.04-.05-.05-.1-.01-.04-.02-.11-.02-.19,0-.06,0-.1,0-.14,0-.03.01-.06.02-.08,0-.02.02-.04.03-.04.01,0,.03-.01.04-.01.02,0,.05.01.09.04.04.02.09.05.16.08.06.03.14.06.22.08.08.03.18.04.28.04.07,0,.12,0,.18-.02.05-.01.1-.03.13-.06.04-.03.07-.06.09-.1.02-.04.03-.08.03-.13,0-.06-.02-.11-.05-.15-.03-.04-.08-.08-.14-.11-.06-.03-.13-.06-.2-.09-.08-.03-.15-.06-.23-.09-.08-.03-.15-.07-.23-.11-.08-.04-.14-.1-.2-.16-.06-.06-.11-.14-.14-.22-.04-.09-.05-.19-.05-.32s.03-.24.07-.34c.05-.1.12-.19.21-.27.09-.07.2-.13.33-.17.13-.04.28-.06.44-.06.08,0,.16,0,.24.02.08.01.15.03.21.04.06.02.11.04.16.06.04.02.07.04.09.05s.03.03.04.04c0,.01.01.03.02.05,0,.02,0,.04.01.07,0,.03,0,.07,0,.11,0,.05,0,.09,0,.13,0,.03,0,.06-.02.08,0,.02-.02.03-.03.04-.01,0-.03.01-.04.01-.02,0-.04-.01-.08-.03-.04-.02-.08-.04-.14-.07-.06-.02-.12-.04-.19-.07-.07-.02-.16-.03-.25-.03-.07,0-.12,0-.17.02-.05.01-.09.03-.12.06-.03.03-.05.05-.07.09-.02.03-.02.07-.02.11,0,.06.02.11.05.15.04.04.09.08.15.11.06.03.13.06.2.09.08.03.15.06.23.09.08.03.16.07.23.11.08.04.15.1.2.16.06.06.11.14.15.22.04.09.06.19.06.31"/>
    <path class="cls-1" d="m26.7,19.43c0,.09,0,.15-.02.2-.01.05-.02.08-.04.1-.02.02-.04.04-.08.05-.03.01-.07.03-.12.04-.05.01-.1.02-.15.02-.05,0-.11,0-.16,0-.15,0-.27-.02-.38-.06-.11-.04-.2-.09-.27-.17-.07-.08-.12-.17-.15-.29-.03-.12-.05-.25-.05-.41v-1.33h-.31s-.06-.02-.08-.07c-.02-.05-.03-.12-.03-.23,0-.05,0-.1,0-.14,0-.04.01-.07.02-.09.01-.02.02-.04.04-.05.02-.01.03-.02.05-.02h.31v-.58s0-.04.02-.05c.01-.02.03-.03.06-.04.03-.01.07-.02.11-.02.05,0,.11,0,.18,0s.13,0,.18,0c.05,0,.08.01.11.02.03,0,.05.02.06.04.01.01.02.03.02.05v.58h.56s.04,0,.05.02c.01.01.03.02.04.05,0,.02.02.05.02.09,0,.04,0,.09,0,.14,0,.11-.01.18-.03.23-.02.04-.05.07-.08.07h-.57v1.22c0,.14.02.25.07.32.04.07.12.11.24.11.04,0,.07,0,.1-.01.03,0,.06-.01.08-.02.02,0,.04-.02.06-.02s.03-.01.05-.01c.01,0,.02,0,.03.01s.02.02.03.04c0,.02.01.05.02.08,0,.03,0,.08,0,.13"/>
    <path class="cls-1" d="m28.31,15.8s.03-.04.04-.05c.01-.01.03-.02.06-.03.02,0,.05-.01.09-.01.04,0,.08,0,.14,0,.08,0,.14,0,.18,0,.04,0,.07.02.08.03.01.02.01.04,0,.06-.01.02-.03.06-.06.09l-.46.65s-.03.03-.05.04c-.02.01-.04.02-.07.03-.03,0-.07.01-.11.01-.04,0-.09,0-.15,0s-.11,0-.15,0c-.04,0-.08-.01-.11-.02-.03,0-.05-.02-.07-.03-.02-.01-.03-.02-.04-.04l-.46-.65s-.04-.07-.05-.09c0-.02,0-.04,0-.06.01-.01.04-.02.08-.03.04,0,.1,0,.18,0,.06,0,.11,0,.15,0,.04,0,.06,0,.09.02.02,0,.04.02.05.03.01.01.02.03.04.05l.3.44.31-.44Zm.58,1.53c0,.07,0,.13,0,.17,0,.04-.01.08-.02.1,0,.03-.02.04-.03.05-.01.01-.03.02-.05.02-.02,0-.03,0-.05-.01-.02,0-.04-.01-.07-.02-.02,0-.05-.01-.08-.02-.03,0-.06,0-.1,0-.04,0-.08,0-.12.02-.04.02-.08.04-.13.08-.04.03-.09.08-.14.14-.05.06-.1.13-.15.21v1.62s0,.04-.02.05c-.01.02-.03.03-.06.04-.03,0-.07.02-.11.02-.05,0-.11,0-.18,0s-.13,0-.18,0c-.05,0-.08-.01-.11-.02-.03-.01-.05-.02-.06-.04-.01-.01-.02-.03-.02-.05v-2.59s0-.04.02-.05c0-.01.03-.03.05-.04.03-.01.06-.02.1-.02.04,0,.09,0,.15,0,.06,0,.11,0,.16,0,.04,0,.07.01.09.02.02,0,.04.02.05.04.01.02.02.03.02.05v.32c.07-.1.13-.18.19-.24.06-.06.12-.11.17-.15.06-.04.11-.06.16-.08.05-.01.11-.02.16-.02.03,0,.05,0,.08,0,.03,0,.06,0,.09.01.03,0,.06.01.08.02.02,0,.04.02.05.03.01,0,.02.02.02.03,0,.01,0,.03.01.05s0,.05,0,.09c0,.04,0,.1,0,.17"/>
    <path class="cls-1" d="m30.13,16.22c0,.15-.03.25-.09.31-.06.06-.17.08-.33.08s-.28-.03-.33-.08c-.06-.05-.09-.15-.09-.29s.03-.25.09-.31c.06-.06.17-.08.34-.08s.27.03.33.08c.06.06.09.15.09.3m-.05,3.47s0,.04-.02.05c-.01.01-.03.03-.06.04-.03.01-.07.02-.11.02-.05,0-.11,0-.18,0s-.13,0-.18,0c-.05,0-.08-.01-.11-.02-.03,0-.05-.02-.06-.04-.01-.02-.02-.03-.02-.05v-2.59s0-.04.02-.05c.01-.01.03-.03.06-.04.03-.01.06-.02.11-.02.05,0,.11,0,.18,0s.13,0,.18,0c.05,0,.08.01.11.02.03.01.05.02.06.04.01.02.02.03.02.05v2.59Z"/>
    <path class="cls-1" d="m33.21,19.69s0,.04-.02.05c0,.01-.03.03-.06.04-.03,0-.07.01-.11.02-.05,0-.11,0-.19,0s-.14,0-.19,0c-.05,0-.09-.01-.12-.02-.03,0-.06-.02-.08-.04-.02-.01-.03-.03-.05-.06l-.86-1.37v1.37s0,.04-.02.05c-.01.01-.03.03-.06.04s-.07.02-.11.02c-.05,0-.11,0-.18,0s-.13,0-.18,0c-.05,0-.08-.01-.11-.02-.03-.01-.05-.02-.06-.04-.01-.01-.02-.03-.02-.05v-3.82s0-.04.02-.05c.01-.02.03-.03.06-.04.03-.01.06-.02.11-.02.05,0,.11,0,.18,0s.13,0,.18,0c.05,0,.08.01.11.02.03.01.05.02.06.04.01.02.02.03.02.05v2.27l.77-1.03s.03-.04.05-.06c.02-.02.04-.03.08-.04.03,0,.07-.02.12-.02.05,0,.11,0,.18,0s.13,0,.18,0c.05,0,.09.01.12.02.03,0,.05.02.06.04.01.02.02.03.02.05,0,.03,0,.06-.02.09-.01.03-.04.07-.07.1l-.76.86.88,1.36s.04.07.05.1c.01.03.02.05.02.08"/>
    <path class="cls-1" d="m36.11,18.36c0,.22-.03.42-.09.6-.06.18-.15.34-.27.47-.12.13-.27.23-.44.3-.18.07-.39.11-.62.11s-.43-.03-.6-.1c-.17-.06-.31-.16-.42-.28-.11-.12-.2-.27-.25-.45-.05-.18-.08-.38-.08-.61s.03-.42.09-.61c.06-.18.15-.34.27-.47.12-.13.27-.23.44-.3.18-.07.39-.11.62-.11s.43.03.6.1c.17.06.31.15.42.28.11.12.19.27.25.45.06.18.08.38.08.61m-.75.03c0-.13-.01-.25-.03-.35-.02-.11-.06-.2-.1-.28-.05-.08-.11-.14-.19-.18-.08-.05-.18-.07-.3-.07-.11,0-.2.02-.28.06-.08.04-.15.1-.2.18-.05.08-.09.17-.12.28-.03.11-.04.23-.04.37,0,.13.01.24.03.35.02.11.06.2.1.28.05.08.11.14.19.18.08.04.18.07.3.07.11,0,.21-.02.29-.06.08-.04.15-.1.2-.17.05-.08.09-.17.12-.28.03-.11.04-.23.04-.37"/>
    <path class="cls-1" d="m39.05,17.09s0,.02,0,.04c0,.01,0,.03,0,.05s0,.04-.01.06c0,.02-.01.04-.02.07l-.78,2.35s-.02.06-.04.08c-.02.02-.04.04-.08.05-.04.01-.09.02-.16.02-.06,0-.15,0-.25,0s-.19,0-.25,0c-.07,0-.12-.01-.15-.02-.04-.01-.06-.03-.08-.05-.02-.02-.03-.05-.04-.08l-.78-2.35s-.02-.07-.03-.11c0-.03-.01-.05-.01-.07,0-.01,0-.03,0-.04,0-.02,0-.04.02-.05.01-.01.03-.03.06-.04.03-.01.06-.02.11-.02.05,0,.11,0,.18,0,.08,0,.14,0,.19,0,.05,0,.09.01.11.02.03,0,.05.02.06.04.01.02.02.04.03.06l.59,1.9.02.07.02-.07.58-1.9s.02-.04.03-.06c.01-.02.03-.03.06-.04.03,0,.06-.02.11-.02.05,0,.1,0,.18,0s.13,0,.18,0c.05,0,.08.01.11.02.02,0,.04.02.05.04.01.02.02.03.02.05"/>
    <path class="cls-1" d="m41.6,19.69s-.01.05-.03.06c-.02.02-.05.03-.09.03-.04,0-.1.01-.18.01-.09,0-.15,0-.19-.01-.04,0-.07-.02-.08-.03-.02-.02-.03-.04-.03-.06v-.21c-.11.11-.23.2-.36.27-.14.06-.29.1-.45.1-.14,0-.26-.02-.38-.05-.11-.04-.21-.09-.3-.16-.08-.07-.15-.16-.2-.26-.05-.1-.07-.23-.07-.36,0-.15.03-.28.09-.39.06-.11.15-.2.26-.28.12-.07.26-.13.44-.16.17-.04.38-.05.61-.05h.25v-.16c0-.08,0-.15-.02-.21-.02-.06-.04-.11-.08-.15-.04-.04-.09-.07-.15-.09-.06-.02-.14-.03-.23-.03-.12,0-.23.01-.33.04-.1.03-.18.06-.26.09-.07.03-.14.06-.19.09-.05.03-.09.04-.12.04-.02,0-.04,0-.06-.02-.02-.01-.03-.03-.04-.06-.01-.02-.02-.06-.02-.09s0-.08,0-.12c0-.06,0-.11.02-.14.01-.04.03-.07.05-.1.03-.03.08-.06.14-.09.07-.03.15-.07.24-.09.09-.03.19-.05.3-.07.11-.02.22-.03.33-.03.2,0,.38.02.52.06.14.04.26.1.35.18.09.08.16.19.2.32.04.13.06.28.06.46v1.74Zm-.72-1.11h-.28c-.12,0-.22,0-.3.03-.08.02-.15.04-.2.08-.05.04-.09.08-.11.13s-.04.11-.04.17c0,.11.04.19.1.26.07.06.16.09.29.09.1,0,.2-.03.28-.08.09-.05.17-.13.26-.23v-.44Z"/>
    <path class="cls-1" d="m44.29,19.27c0,.05,0,.09,0,.13,0,.03,0,.06-.01.09,0,.02,0,.04-.02.06,0,.01-.02.03-.04.05-.02.02-.06.05-.12.08-.06.03-.12.06-.19.09-.07.03-.15.05-.23.06-.08.02-.17.02-.26.02-.2,0-.38-.03-.53-.09-.15-.06-.28-.15-.39-.27s-.18-.27-.24-.44c-.05-.17-.08-.37-.08-.6,0-.26.03-.48.1-.67.07-.19.16-.35.27-.47.12-.12.25-.21.41-.27.16-.06.33-.09.52-.09.08,0,.15,0,.23.02.07.01.14.03.21.05.06.02.12.05.17.08.05.03.09.05.11.08.02.02.04.04.04.05,0,.02.02.04.02.06,0,.02,0,.05.01.09,0,.03,0,.08,0,.12,0,.11,0,.19-.03.24-.02.05-.04.07-.08.07-.03,0-.07-.01-.1-.04s-.08-.06-.13-.09c-.05-.03-.11-.06-.18-.09-.07-.03-.15-.04-.25-.04-.19,0-.34.07-.44.22-.1.15-.15.36-.15.64,0,.14.01.26.04.37.03.11.06.2.11.27.05.07.11.12.19.16.08.04.16.05.26.05s.19-.02.26-.04c.07-.03.14-.06.19-.1.05-.04.1-.07.14-.1s.07-.04.09-.04c.02,0,.03,0,.04.01.01,0,.02.03.03.05,0,.03.01.06.02.1,0,.04,0,.09,0,.16"/>
    <path class="cls-1" d="m45.55,19.69s0,.04-.02.05c-.01.02-.03.03-.06.04-.03.01-.06.02-.11.02-.05,0-.11,0-.18,0s-.13,0-.18,0c-.05,0-.08-.01-.11-.02-.03-.01-.05-.02-.06-.04-.01-.01-.02-.03-.02-.05v-2.59s0-.04.02-.05c.01-.02.03-.03.06-.04.03,0,.07-.02.11-.02.05,0,.11,0,.18,0s.13,0,.18,0c.05,0,.08.01.11.02.03,0,.05.02.06.04.01.01.02.03.02.05v2.59Zm-.28-3.86s.03-.04.05-.06c.02-.01.04-.03.07-.04.03,0,.06-.01.11-.02s.1,0,.16,0c.09,0,.16,0,.21.01.05,0,.09.02.11.03.02.01.03.03.03.05,0,.02-.01.04-.03.06l-.56.68s-.03.03-.05.05c-.02.01-.04.02-.06.03-.03,0-.06.01-.09.02-.04,0-.08,0-.14,0-.07,0-.12,0-.16,0-.04,0-.07-.01-.08-.03-.02-.01-.02-.03-.02-.05,0-.02.01-.04.03-.07l.42-.67Z"/>
    <path class="cls-1" d="m48.24,19.27c0,.05,0,.09,0,.13,0,.03,0,.06-.01.09,0,.02,0,.04-.02.06,0,.01-.02.03-.04.05-.02.02-.06.05-.12.08-.06.03-.12.06-.19.09-.07.03-.15.05-.23.06-.08.02-.17.02-.26.02-.2,0-.38-.03-.53-.09-.15-.06-.28-.15-.39-.27s-.18-.27-.24-.44c-.05-.17-.08-.37-.08-.6,0-.26.03-.48.1-.67.07-.19.16-.35.27-.47.12-.12.25-.21.41-.27.16-.06.33-.09.52-.09.08,0,.15,0,.23.02.07.01.14.03.21.05.06.02.12.05.17.08.05.03.09.05.11.08.02.02.04.04.04.05,0,.02.02.04.02.06,0,.02,0,.05.01.09,0,.03,0,.08,0,.12,0,.11,0,.19-.03.24-.02.05-.04.07-.08.07-.03,0-.07-.01-.1-.04s-.08-.06-.13-.09c-.05-.03-.11-.06-.18-.09-.07-.03-.15-.04-.25-.04-.19,0-.34.07-.44.22-.1.15-.15.36-.15.64,0,.14.01.26.04.37.03.11.06.2.11.27.05.07.11.12.19.16.08.04.16.05.26.05s.19-.02.26-.04c.07-.03.14-.06.19-.1.05-.04.1-.07.14-.1s.07-.04.09-.04c.02,0,.03,0,.04.01.01,0,.02.03.03.05,0,.03.01.06.02.1,0,.04,0,.09,0,.16"/>
    <path class="cls-1" d="m51.25,19.69s0,.04-.02.05c-.01.01-.03.03-.06.04-.03.01-.07.02-.11.02-.05,0-.11,0-.18,0-.07,0-.13,0-.18,0-.05,0-.08-.01-.11-.02-.03,0-.05-.02-.06-.04-.01-.02-.02-.03-.02-.05v-1.48c0-.12,0-.23-.03-.3-.02-.07-.04-.13-.08-.18-.04-.05-.08-.09-.14-.12-.06-.03-.12-.04-.19-.04-.09,0-.19.03-.28.1-.1.07-.19.17-.3.3v1.72s0,.04-.02.05c-.01.01-.03.03-.06.04-.03.01-.07.02-.11.02-.05,0-.1,0-.18,0s-.13,0-.18,0c-.05,0-.08-.01-.11-.02-.03,0-.05-.02-.06-.04-.01-.02-.02-.03-.02-.05v-3.82s0-.04.02-.05c.01-.02.03-.03.06-.04.03-.01.07-.02.11-.03.05,0,.11,0,.18,0s.13,0,.18,0c.05,0,.08.02.11.03.03.01.05.02.06.04.01.02.02.03.02.05v1.43c.13-.12.25-.21.39-.28.13-.06.27-.09.41-.09.18,0,.33.03.45.09.12.06.22.14.29.24.07.1.13.22.16.35s.05.3.05.49v1.59Z"/>
    <path class="cls-1" d="m54.15,19.69s0,.04-.02.05c-.01.01-.03.03-.06.04-.03.01-.07.02-.11.02-.05,0-.11,0-.18,0s-.13,0-.18,0c-.05,0-.08-.01-.11-.02-.03,0-.05-.02-.06-.04-.01-.02-.02-.03-.02-.05v-3.82s0-.04.02-.05c.01-.02.03-.03.06-.04.03-.01.06-.02.11-.03.05,0,.11,0,.18,0s.13,0,.18,0c.05,0,.08.02.11.03.03.01.05.02.06.04.01.02.02.03.02.05v3.82Z"/>
    <path class="cls-1" d="m55.66,16.22c0,.15-.03.25-.09.31-.06.06-.17.08-.33.08s-.28-.03-.33-.08c-.06-.05-.09-.15-.09-.29s.03-.25.09-.31c.06-.06.17-.08.34-.08s.27.03.33.08c.06.06.09.15.09.3m-.05,3.47s0,.04-.02.05c-.01.01-.03.03-.06.04-.03.01-.07.02-.11.02-.05,0-.11,0-.18,0s-.13,0-.18,0c-.05,0-.08-.01-.11-.02-.03,0-.05-.02-.06-.04-.01-.02-.02-.03-.02-.05v-2.59s0-.04.02-.05c.01-.01.03-.03.06-.04.03-.01.06-.02.11-.02.05,0,.11,0,.18,0s.13,0,.18,0c.05,0,.08.01.11.02.03.01.05.02.06.04.01.02.02.03.02.05v2.59Z"/>
    <path class="cls-1" d="m58.16,18.95c0,.15-.03.28-.08.39-.06.11-.13.21-.23.28-.1.08-.22.13-.36.17-.14.04-.29.06-.45.06-.1,0-.19,0-.28-.02-.09-.01-.17-.03-.24-.05-.07-.02-.13-.05-.17-.07-.05-.02-.08-.05-.1-.07-.02-.02-.04-.05-.05-.1-.01-.04-.02-.11-.02-.19,0-.06,0-.1,0-.14,0-.03.01-.06.02-.08,0-.02.02-.04.03-.04.01,0,.03-.01.04-.01.02,0,.05.01.09.04.04.02.09.05.16.08.06.03.14.06.22.08.08.03.18.04.28.04.07,0,.12,0,.18-.02.05-.01.1-.03.13-.06.04-.03.07-.06.09-.1.02-.04.03-.08.03-.13,0-.06-.02-.11-.05-.15-.03-.04-.08-.08-.14-.11-.06-.03-.13-.06-.2-.09-.08-.03-.15-.06-.23-.09-.08-.03-.15-.07-.23-.11-.08-.04-.14-.1-.2-.16-.06-.06-.11-.14-.14-.22-.04-.09-.05-.19-.05-.32s.03-.24.07-.34c.05-.1.12-.19.21-.27.09-.07.2-.13.33-.17.13-.04.28-.06.44-.06.08,0,.16,0,.24.02.08.01.15.03.21.04.06.02.11.04.16.06.04.02.07.04.09.05s.03.03.04.04c0,.01.01.03.02.05,0,.02,0,.04.01.07,0,.03,0,.07,0,.11,0,.05,0,.09,0,.13,0,.03,0,.06-.02.08,0,.02-.02.03-.03.04-.01,0-.03.01-.04.01-.02,0-.04-.01-.08-.03-.04-.02-.08-.04-.14-.07-.06-.02-.12-.04-.19-.07-.07-.02-.16-.03-.25-.03-.07,0-.12,0-.17.02-.05.01-.09.03-.12.06-.03.03-.05.05-.07.09-.02.03-.02.07-.02.11,0,.06.02.11.05.15.04.04.09.08.15.11.06.03.13.06.2.09.08.03.15.06.23.09.08.03.16.07.23.11.08.04.15.1.2.16.06.06.11.14.15.22.04.09.06.19.06.31"/>
    <path class="cls-1" d="m61.17,19.69s0,.04-.01.05c-.01.01-.03.03-.05.04-.02.01-.06.02-.1.02-.04,0-.09,0-.15,0-.06,0-.12,0-.16,0s-.07-.01-.09-.02c-.02,0-.04-.02-.05-.04-.01-.01-.02-.03-.02-.05v-.3c-.14.15-.29.27-.44.35-.15.08-.3.12-.46.12-.18,0-.33-.03-.45-.09-.12-.06-.22-.14-.29-.24-.07-.1-.13-.22-.16-.35-.03-.13-.05-.3-.05-.5v-1.59s0-.04.02-.05c.01-.01.03-.03.06-.04.03-.01.07-.02.11-.02.05,0,.11,0,.18,0s.13,0,.18,0c.05,0,.08.01.11.02.03,0,.05.02.06.04.01.01.02.03.02.05v1.46c0,.14,0,.24.03.31.02.07.04.13.08.18.04.05.08.09.14.12.06.03.12.04.19.04.09,0,.19-.03.28-.1s.19-.17.3-.3v-1.72s0-.04.02-.05c.01-.01.03-.03.06-.04.03-.01.07-.02.11-.02.05,0,.11,0,.18,0s.13,0,.18,0c.05,0,.08.01.11.02.03,0,.05.02.06.04.01.01.02.03.02.05v2.59Zm-.55-3.58c0,.09-.02.17-.05.24-.03.07-.08.13-.14.18-.06.05-.13.09-.22.11-.09.03-.18.04-.29.04s-.21-.01-.29-.04c-.08-.02-.15-.06-.21-.11-.05-.05-.1-.11-.12-.17-.03-.07-.04-.15-.04-.24s.02-.17.04-.24c.03-.07.08-.13.13-.18.06-.05.13-.09.22-.11.08-.03.18-.04.29-.04.22,0,.38.05.5.14.11.1.17.23.17.41m-.44.01c0-.07-.02-.14-.06-.18-.04-.05-.1-.07-.19-.07-.08,0-.14.02-.18.06-.04.04-.06.1-.06.18,0,.08.02.14.06.19.04.04.1.07.19.07.08,0,.14-.02.18-.07.04-.04.06-.1.06-.18"/>
    <path class="cls-1" d="m62.75,19.25c0,.08,0,.15-.01.21,0,.06-.02.12-.04.18-.02.06-.04.11-.07.16-.03.05-.06.11-.1.16l-.39.56s-.03.04-.05.05c-.02.01-.04.03-.06.03-.02,0-.05.01-.09.02-.03,0-.07,0-.12,0-.06,0-.1,0-.14,0-.03,0-.06-.01-.08-.02-.02,0-.02-.02-.02-.04,0-.01,0-.03.01-.05l.36-.8v-.46c0-.07,0-.12.02-.16.02-.04.04-.07.07-.09.03-.02.07-.04.12-.04s.11-.01.18-.01c.07,0,.13,0,.17.01.05,0,.09.02.12.04.03.02.05.05.07.09.01.04.02.09.02.16"/>
    <path class="cls-1" d="m68.91,19.69s0,.04-.02.05c-.01.01-.03.03-.06.04-.03.01-.06.02-.11.02-.05,0-.11,0-.18,0s-.13,0-.18,0c-.05,0-.08-.01-.11-.02-.03,0-.05-.02-.06-.04-.01-.02-.01-.03-.01-.05v-1.54c0-.09,0-.17-.03-.24-.02-.07-.04-.13-.08-.18-.03-.05-.08-.09-.13-.12-.05-.03-.11-.04-.19-.04-.09,0-.17.03-.26.1-.09.07-.19.17-.29.3v1.72s0,.04-.02.05c-.01.01-.03.03-.06.04-.03.01-.07.02-.11.02-.05,0-.1,0-.17,0s-.13,0-.18,0c-.05,0-.08-.01-.11-.02-.03,0-.05-.02-.06-.04-.01-.02-.02-.03-.02-.05v-1.54c0-.09,0-.17-.02-.24-.02-.07-.04-.13-.07-.18-.03-.05-.08-.09-.13-.12-.05-.03-.11-.04-.18-.04-.09,0-.18.03-.27.1-.09.07-.18.17-.29.3v1.72s0,.04-.02.05c-.01.01-.03.03-.06.04-.03.01-.07.02-.11.02-.05,0-.11,0-.18,0s-.13,0-.18,0c-.05,0-.08-.01-.11-.02-.03,0-.05-.02-.06-.04-.01-.02-.02-.03-.02-.05v-2.59s0-.04.02-.05c0-.01.03-.03.05-.04.03,0,.06-.02.1-.02.04,0,.09,0,.15,0,.06,0,.11,0,.16,0s.07.01.09.02c.02.01.04.02.05.04.01.01.02.03.02.05v.3c.14-.15.29-.27.43-.35.14-.08.29-.12.45-.12.11,0,.2.01.29.03.08.02.16.05.23.1.07.04.12.09.17.15.05.06.09.12.12.19.08-.08.15-.15.23-.21.07-.06.15-.11.22-.15.07-.04.14-.07.22-.08.07-.02.15-.03.22-.03.17,0,.32.03.44.09.12.06.21.14.29.24.07.1.12.22.15.35.03.13.05.27.05.42v1.66Z"/>
    <path class="cls-1" d="m71.84,19.69s-.01.05-.03.06c-.02.02-.05.03-.09.03-.04,0-.1.01-.18.01-.09,0-.15,0-.19-.01-.04,0-.07-.02-.08-.03-.02-.02-.03-.04-.03-.06v-.21c-.11.11-.23.2-.36.27-.14.06-.29.1-.45.1-.14,0-.26-.02-.38-.05-.11-.04-.21-.09-.3-.16-.08-.07-.15-.16-.2-.26-.05-.1-.07-.23-.07-.36,0-.15.03-.28.09-.39.06-.11.15-.2.26-.28.12-.07.26-.13.44-.16.17-.04.38-.05.61-.05h.25v-.16c0-.08,0-.15-.02-.21-.02-.06-.04-.11-.08-.15-.04-.04-.09-.07-.15-.09-.06-.02-.14-.03-.23-.03-.12,0-.23.01-.33.04-.1.03-.18.06-.26.09-.07.03-.14.06-.19.09-.05.03-.09.04-.12.04-.02,0-.04,0-.06-.02-.02-.01-.03-.03-.04-.06-.01-.02-.02-.06-.02-.09s0-.08,0-.12c0-.06,0-.11.02-.14.01-.04.03-.07.05-.1.03-.03.08-.06.14-.09.07-.03.15-.07.24-.09.09-.03.19-.05.3-.07.11-.02.22-.03.33-.03.2,0,.38.02.52.06.14.04.26.1.35.18.09.08.16.19.2.32.04.13.06.28.06.46v1.74Zm-.72-1.11h-.28c-.12,0-.22,0-.3.03-.08.02-.15.04-.2.08-.05.04-.09.08-.11.13s-.04.11-.04.17c0,.11.04.19.1.26.07.06.16.09.29.09.1,0,.2-.03.28-.08.09-.05.17-.13.26-.23v-.44Z"/>
    <path class="cls-1" d="m75.05,19.69s0,.04-.02.05c-.01.01-.03.03-.06.04-.03.01-.07.02-.11.02-.05,0-.11,0-.18,0-.07,0-.13,0-.18,0-.05,0-.08-.01-.11-.02-.03,0-.05-.02-.06-.04-.01-.02-.02-.03-.02-.05v-1.48c0-.12,0-.23-.03-.3-.02-.07-.04-.13-.08-.18-.04-.05-.08-.09-.14-.12-.06-.03-.12-.04-.19-.04-.09,0-.19.03-.28.1-.1.07-.19.17-.3.3v1.72s0,.04-.02.05c-.01.01-.03.03-.06.04-.03.01-.07.02-.11.02-.05,0-.1,0-.18,0s-.13,0-.18,0c-.05,0-.08-.01-.11-.02-.03,0-.05-.02-.06-.04-.01-.02-.02-.03-.02-.05v-2.59s0-.04.02-.05c.01-.01.03-.03.05-.04.03,0,.06-.02.1-.02.04,0,.09,0,.15,0s.11,0,.15,0,.07.01.09.02c.02.01.04.02.05.04.01.01.01.03.01.05v.3c.14-.15.29-.27.44-.35.15-.08.3-.12.46-.12.18,0,.33.03.45.09.12.06.22.14.29.24.07.1.13.22.16.35.03.13.05.29.05.48v1.6Z"/>
    <path class="cls-1" d="m76.55,16.22c0,.15-.03.25-.09.31-.06.06-.17.08-.33.08s-.28-.03-.33-.08c-.06-.05-.09-.15-.09-.29s.03-.25.09-.31c.06-.06.17-.08.34-.08s.27.03.33.08c.06.06.09.15.09.3m-.05,3.47s0,.04-.02.05c-.01.01-.03.03-.06.04-.03.01-.07.02-.11.02-.05,0-.11,0-.18,0s-.13,0-.18,0c-.05,0-.08-.01-.11-.02-.03,0-.05-.02-.06-.04-.01-.02-.02-.03-.02-.05v-2.59s0-.04.02-.05c.01-.01.03-.03.06-.04.03-.01.06-.02.11-.02.05,0,.11,0,.18,0s.13,0,.18,0c.05,0,.08.01.11.02.03.01.05.02.06.04.01.02.02.03.02.05v2.59Z"/>
    <path class="cls-1" d="m79.84,18.35c0,.23-.03.44-.08.62-.05.19-.12.34-.22.47-.09.13-.21.23-.35.3-.14.07-.3.1-.48.1-.08,0-.15,0-.21-.02-.06-.02-.12-.04-.18-.07-.06-.03-.12-.07-.18-.11-.06-.04-.12-.1-.18-.16v1.22s0,.04-.02.05c-.01.01-.03.03-.06.04-.03.01-.07.02-.11.03-.05,0-.1,0-.18,0s-.13,0-.18,0c-.05,0-.08-.01-.11-.03-.03,0-.05-.02-.06-.04-.01-.02-.02-.03-.02-.05v-3.62s0-.04.02-.05c0-.01.03-.03.05-.04.02-.01.06-.02.1-.02.04,0,.09,0,.15,0s.11,0,.15,0c.04,0,.07.01.1.02.02,0,.04.02.05.04.01.01.01.03.01.05v.3c.08-.08.15-.14.22-.2.07-.06.15-.11.22-.15.07-.04.15-.07.23-.09.08-.02.17-.03.26-.03.19,0,.35.04.48.11.13.07.24.18.33.31.08.13.15.28.18.45.04.17.06.36.06.55m-.76.05c0-.11,0-.22-.02-.32-.02-.1-.05-.19-.08-.27-.04-.08-.09-.14-.16-.19-.06-.05-.14-.07-.24-.07-.05,0-.09,0-.14.02-.05.02-.1.04-.15.07-.05.03-.1.08-.15.13-.05.05-.11.12-.17.2v.85c.1.13.2.23.29.3.09.07.19.11.29.11.09,0,.18-.02.24-.07.07-.05.12-.11.16-.19.04-.08.07-.17.09-.27.02-.1.03-.2.03-.3"/>
    <path class="cls-1" d="m82.88,19.69s0,.04-.02.05c0,.01-.03.03-.05.04-.03.01-.06.02-.1.02-.04,0-.09,0-.15,0-.06,0-.12,0-.16,0-.04,0-.07-.01-.09-.02-.02,0-.04-.02-.05-.04-.01-.02-.01-.03-.01-.05v-.3c-.14.15-.29.27-.44.35-.15.08-.3.12-.46.12-.18,0-.33-.03-.45-.09-.12-.06-.22-.14-.29-.24-.08-.1-.13-.22-.16-.35s-.05-.3-.05-.5v-1.59s0-.04.02-.05c.01-.01.03-.03.06-.04.03,0,.07-.02.11-.02.05,0,.1,0,.18,0s.13,0,.18,0c.05,0,.08.01.11.02.03.01.05.02.06.04.01.01.02.03.02.05v1.46c0,.14,0,.24.03.31.02.07.04.13.08.18.04.05.08.09.14.12.06.03.12.04.19.04.09,0,.19-.03.28-.1.09-.07.19-.17.3-.3v-1.72s0-.04.02-.05c.01-.01.03-.03.06-.04.03,0,.07-.02.11-.02.05,0,.11,0,.18,0s.13,0,.18,0c.05,0,.08.01.11.02.03.01.05.02.06.04.01.01.02.03.02.05v2.59Z"/>
    <path class="cls-1" d="m84.34,19.69s0,.04-.02.05c-.01.01-.03.03-.06.04-.03.01-.07.02-.11.02-.05,0-.11,0-.18,0s-.13,0-.18,0c-.05,0-.08-.01-.11-.02-.03,0-.05-.02-.06-.04-.01-.02-.02-.03-.02-.05v-3.82s0-.04.02-.05c.01-.02.03-.03.06-.04.03-.01.06-.02.11-.03.05,0,.11,0,.18,0s.13,0,.18,0c.05,0,.08.02.11.03.03.01.05.02.06.04.01.02.02.03.02.05v3.82Z"/>
    <path class="cls-1" d="m87.27,19.69s-.01.05-.03.06c-.02.02-.05.03-.09.03-.04,0-.1.01-.18.01-.09,0-.15,0-.19-.01-.04,0-.07-.02-.08-.03-.02-.02-.03-.04-.03-.06v-.21c-.11.11-.23.2-.36.27-.14.06-.29.1-.45.1-.14,0-.26-.02-.38-.05s-.21-.09-.3-.16c-.08-.07-.15-.16-.2-.26-.05-.1-.07-.23-.07-.36,0-.15.03-.28.09-.39.06-.11.15-.2.27-.28.12-.07.26-.13.44-.16.17-.04.38-.05.61-.05h.25v-.16c0-.08,0-.15-.03-.21-.02-.06-.04-.11-.08-.15-.04-.04-.09-.07-.15-.09-.06-.02-.14-.03-.23-.03-.12,0-.23.01-.33.04-.1.03-.18.06-.25.09-.07.03-.14.06-.19.09-.05.03-.09.04-.12.04-.02,0-.04,0-.06-.02-.02-.01-.03-.03-.04-.06,0-.03-.02-.06-.02-.09s0-.08,0-.12c0-.06,0-.11.02-.14,0-.04.03-.07.05-.09.03-.03.08-.06.14-.09.07-.03.15-.07.24-.09.09-.03.19-.05.3-.07.11-.02.22-.03.33-.03.2,0,.38.02.52.06.14.04.26.1.35.18.09.08.16.19.2.32.04.13.06.28.06.46v1.74Zm-.72-1.11h-.28c-.12,0-.22,0-.3.03-.08.02-.15.04-.2.08-.05.04-.09.08-.12.13-.02.05-.04.11-.04.17,0,.11.03.19.1.26.07.06.16.09.29.09.1,0,.2-.03.28-.08.09-.05.17-.13.26-.23v-.44Zm-.26-2.76s.03-.04.05-.06c.02-.01.04-.03.07-.04.03,0,.07-.01.11-.02.05,0,.1,0,.16,0,.09,0,.16,0,.21.01.05,0,.09.02.11.03.02.01.03.03.03.05,0,.02-.01.04-.03.06l-.56.68s-.03.03-.05.05c-.01.01-.04.02-.06.03-.02,0-.06.01-.09.02-.04,0-.08,0-.14,0-.07,0-.12,0-.16,0-.04,0-.07-.01-.08-.03-.02-.01-.02-.03-.02-.05,0-.02.01-.04.03-.07l.42-.67Z"/>
    <path class="cls-1" d="m89.48,19.43c0,.09,0,.15-.02.2-.01.05-.02.08-.04.1-.02.02-.04.04-.08.05-.03.01-.07.03-.12.04-.05.01-.1.02-.15.02-.05,0-.11,0-.16,0-.15,0-.27-.02-.38-.06-.11-.04-.2-.09-.27-.17-.07-.08-.12-.17-.15-.29-.03-.12-.05-.25-.05-.41v-1.33h-.31s-.06-.02-.08-.07c-.02-.05-.03-.12-.03-.23,0-.05,0-.1,0-.14,0-.04.01-.07.02-.09.01-.02.02-.04.04-.05.02-.01.03-.02.05-.02h.31v-.58s0-.04.02-.05c.01-.02.03-.03.06-.04.03-.01.07-.02.11-.02.05,0,.11,0,.18,0s.13,0,.18,0c.05,0,.08.01.11.02.03,0,.05.02.06.04.01.01.02.03.02.05v.58h.56s.04,0,.05.02c.01.01.03.02.04.05,0,.02.02.05.02.09,0,.04,0,.09,0,.14,0,.11-.01.18-.03.23-.02.04-.05.07-.08.07h-.57v1.22c0,.14.02.25.07.32.04.07.12.11.24.11.04,0,.07,0,.1-.01.03,0,.06-.01.08-.02.02,0,.04-.02.06-.02s.03-.01.05-.01c.01,0,.02,0,.03.01s.02.02.03.04c0,.02.01.05.02.08,0,.03,0,.08,0,.13"/>
    <path class="cls-1" d="m92.59,18.36c0,.22-.03.42-.09.6-.06.18-.15.34-.27.47-.12.13-.27.23-.44.3-.18.07-.39.11-.62.11s-.43-.03-.6-.1c-.17-.06-.31-.16-.42-.28-.11-.12-.2-.27-.25-.45-.05-.18-.08-.38-.08-.61s.03-.42.09-.61c.06-.18.15-.34.27-.47.12-.13.27-.23.44-.3.18-.07.39-.11.62-.11s.43.03.6.1c.17.06.31.15.42.28.11.12.19.27.25.45.06.18.08.38.08.61m-.75.03c0-.13-.01-.25-.03-.35-.02-.11-.06-.2-.1-.28-.05-.08-.11-.14-.19-.18-.08-.05-.18-.07-.3-.07-.11,0-.2.02-.28.06-.08.04-.15.1-.2.18-.05.08-.09.17-.12.28-.03.11-.04.23-.04.37,0,.13.01.24.03.35.02.11.06.2.1.28.05.08.11.14.19.18.08.04.18.07.3.07.11,0,.21-.02.29-.06.08-.04.15-.1.2-.17.05-.08.09-.17.12-.28.03-.11.04-.23.04-.37"/>
    <path class="cls-1" d="m94.84,17.33c0,.07,0,.13,0,.17,0,.04-.01.08-.02.1,0,.03-.02.04-.03.05-.01.01-.03.02-.05.02-.02,0-.03,0-.05-.01-.02,0-.04-.01-.07-.02-.02,0-.05-.01-.08-.02-.03,0-.06,0-.1,0-.04,0-.08,0-.12.02-.04.02-.08.04-.13.08-.04.03-.09.08-.14.14-.05.06-.1.13-.15.21v1.62s0,.04-.02.05c-.01.02-.03.03-.06.04-.03,0-.07.02-.11.02-.05,0-.11,0-.18,0s-.13,0-.18,0c-.05,0-.08-.01-.11-.02-.03-.01-.05-.02-.06-.04-.01-.01-.02-.03-.02-.05v-2.59s0-.04.02-.05c0-.01.03-.03.05-.04.03-.01.06-.02.1-.02.04,0,.09,0,.15,0,.06,0,.11,0,.16,0,.04,0,.07.01.09.02.02,0,.04.02.05.04.01.02.02.03.02.05v.32c.07-.1.13-.18.19-.24.06-.06.12-.11.17-.15.06-.04.11-.06.16-.08.05-.01.11-.02.16-.02.03,0,.05,0,.08,0,.03,0,.06,0,.09.01.03,0,.06.01.08.02.02,0,.04.02.05.03.01,0,.02.02.02.03,0,.01,0,.03.01.05s0,.05,0,.09c0,.04,0,.1,0,.17"/>
    <path class="cls-1" d="m97.74,19.69s0,.04-.01.05c-.01.01-.03.03-.05.04-.02.01-.06.02-.1.02-.04,0-.09,0-.15,0-.06,0-.12,0-.16,0s-.07-.01-.09-.02c-.02,0-.04-.02-.05-.04-.01-.01-.02-.03-.02-.05v-.3c-.14.15-.29.27-.44.35-.15.08-.3.12-.46.12-.18,0-.33-.03-.45-.09-.12-.06-.22-.14-.29-.24-.07-.1-.13-.22-.16-.35-.03-.13-.05-.3-.05-.5v-1.59s0-.04.02-.05c.01-.01.03-.03.06-.04.03-.01.07-.02.11-.02.05,0,.11,0,.18,0s.13,0,.18,0c.05,0,.08.01.11.02.03,0,.05.02.06.04.01.01.02.03.02.05v1.46c0,.14,0,.24.03.31.02.07.04.13.08.18.04.05.08.09.14.12.06.03.12.04.19.04.09,0,.19-.03.28-.1s.19-.17.3-.3v-1.72s0-.04.02-.05c.01-.01.03-.03.06-.04.03-.01.07-.02.11-.02.05,0,.11,0,.18,0s.13,0,.18,0c.05,0,.08.01.11.02.03,0,.05.02.06.04.01.01.02.03.02.05v2.59Zm-.55-3.58c0,.09-.02.17-.05.24-.03.07-.08.13-.14.18-.06.05-.13.09-.22.11-.09.03-.18.04-.29.04s-.21-.01-.29-.04c-.08-.02-.15-.06-.21-.11-.05-.05-.1-.11-.12-.17-.03-.07-.04-.15-.04-.24s.02-.17.04-.24c.03-.07.08-.13.13-.18.06-.05.13-.09.22-.11.08-.03.18-.04.29-.04.22,0,.38.05.5.14.11.1.17.23.17.41m-.44.01c0-.07-.02-.14-.06-.18-.04-.05-.1-.07-.19-.07-.08,0-.14.02-.18.06-.04.04-.06.1-.06.18,0,.08.02.14.06.19.04.04.1.07.19.07.08,0,.14-.02.18-.07.04-.04.06-.1.06-.18"/>
  </g>
  <g>
    <path class="cls-1" d="m13.58,26.87s-.01.05-.03.06c-.02.02-.05.03-.09.03-.04,0-.1.01-.18.01-.09,0-.15,0-.19-.01-.04,0-.07-.02-.08-.03-.02-.02-.03-.04-.03-.06v-.21c-.11.11-.23.2-.36.27-.14.06-.29.1-.45.1-.14,0-.26-.02-.38-.05-.11-.04-.21-.09-.3-.16-.08-.07-.15-.16-.2-.26-.05-.1-.07-.23-.07-.36,0-.15.03-.28.09-.39.06-.11.15-.2.26-.28.12-.07.26-.13.44-.16.17-.04.38-.05.61-.05h.25v-.16c0-.08,0-.15-.02-.21-.02-.06-.04-.11-.08-.15-.04-.04-.09-.07-.15-.09-.06-.02-.14-.03-.23-.03-.12,0-.23.01-.33.04-.1.03-.18.06-.26.09-.07.03-.14.06-.19.09-.05.03-.09.04-.12.04-.02,0-.04,0-.06-.02-.02-.01-.03-.03-.04-.06-.01-.02-.02-.06-.02-.09s0-.08,0-.12c0-.06,0-.11.02-.14.01-.04.03-.07.05-.1.03-.03.08-.06.14-.09.07-.03.15-.07.24-.09.09-.03.19-.05.3-.07.11-.02.22-.03.33-.03.2,0,.38.02.52.06.14.04.26.1.35.18.09.08.16.19.2.32.04.13.06.28.06.46v1.74Zm-.72-1.11h-.28c-.12,0-.22,0-.3.03-.08.02-.15.04-.2.08-.05.04-.09.08-.11.13s-.04.11-.04.17c0,.11.04.19.1.26.07.06.16.09.29.09.1,0,.2-.03.28-.08.09-.05.17-.13.26-.23v-.44Z"/>
    <path class="cls-1" d="m20.04,25.5c0,.23-.03.44-.08.62-.05.19-.12.34-.22.47-.09.13-.21.23-.35.3-.14.07-.3.1-.48.1-.08,0-.15,0-.21-.02-.06-.02-.12-.04-.18-.07-.06-.03-.12-.07-.18-.11-.06-.04-.12-.1-.18-.16v1.22s0,.04-.02.05c-.01.01-.03.03-.06.04-.03.01-.07.02-.11.03-.05,0-.1,0-.18,0s-.13,0-.18,0c-.05,0-.08-.01-.11-.03-.03,0-.05-.02-.06-.04-.01-.02-.02-.03-.02-.05v-3.62s0-.04.02-.05c0-.01.03-.03.05-.04.02-.01.06-.02.1-.02.04,0,.09,0,.15,0s.11,0,.15,0c.04,0,.07.01.1.02.02,0,.04.02.05.04.01.01.01.03.01.05v.3c.08-.08.15-.14.22-.2.07-.06.15-.11.22-.15.07-.04.15-.07.23-.09.08-.02.17-.03.26-.03.19,0,.35.04.48.11.13.07.24.18.33.31.08.13.15.28.18.45.04.17.06.36.06.55m-.76.05c0-.11,0-.22-.02-.32-.02-.1-.05-.19-.08-.27-.04-.08-.09-.14-.16-.19-.06-.05-.14-.07-.24-.07-.05,0-.09,0-.14.02-.05.02-.1.04-.15.07-.05.03-.1.08-.15.13-.05.05-.11.12-.17.2v.85c.1.13.2.23.29.3.09.07.19.11.29.11.09,0,.18-.02.24-.07.07-.05.12-.11.16-.19.04-.08.07-.17.09-.27.02-.1.03-.2.03-.3"/>
    <path class="cls-1" d="m23.01,25.47c0,.09-.02.15-.06.2-.04.04-.09.06-.16.06h-1.58c0,.11.01.21.04.3.03.09.07.17.12.23.06.06.13.11.22.15.09.03.2.05.32.05s.24,0,.34-.03c.1-.02.18-.04.25-.06.07-.02.13-.04.18-.06.05-.02.08-.03.11-.03.02,0,.03,0,.04,0,.01,0,.02.02.03.04,0,.02.01.04.02.07,0,.03,0,.07,0,.12,0,.04,0,.08,0,.11,0,.03,0,.06,0,.08,0,.02-.01.04-.02.05,0,.01-.02.03-.03.04-.01.01-.05.03-.1.06-.06.02-.13.05-.21.07-.09.02-.19.04-.3.06-.11.02-.23.02-.36.02-.23,0-.43-.03-.61-.09-.17-.06-.32-.15-.43-.26-.12-.12-.2-.27-.26-.45-.06-.18-.09-.39-.09-.63,0-.23.03-.44.09-.62.06-.18.15-.34.26-.47.11-.13.25-.23.42-.29.16-.07.35-.1.55-.1.22,0,.4.03.56.1.15.06.28.15.38.27.1.11.17.25.22.4s.07.32.07.51v.12Zm-.71-.21c0-.2-.04-.37-.12-.48-.09-.12-.22-.18-.41-.18-.09,0-.17.02-.24.05-.07.03-.13.08-.17.14-.05.06-.08.13-.1.21-.02.08-.04.17-.04.26h1.09Z"/>
    <path class="cls-1" d="m25.28,24.49c0,.07,0,.13,0,.17,0,.04-.01.08-.02.1,0,.03-.02.04-.03.05-.01.01-.03.02-.05.02-.02,0-.03,0-.05-.01-.02,0-.04-.01-.07-.02-.02,0-.05-.01-.08-.02-.03,0-.06,0-.1,0-.04,0-.08,0-.12.02-.04.02-.08.04-.13.08-.04.03-.09.08-.14.14-.05.06-.1.13-.15.21v1.62s0,.04-.02.05c-.01.02-.03.03-.06.04-.03,0-.07.02-.11.02-.05,0-.11,0-.18,0s-.13,0-.18,0c-.05,0-.08-.01-.11-.02-.03-.01-.05-.02-.06-.04-.01-.01-.02-.03-.02-.05v-2.59s0-.04.02-.05c0-.01.03-.03.05-.04.03-.01.06-.02.1-.02.04,0,.09,0,.15,0,.06,0,.11,0,.16,0,.04,0,.07.01.09.02.02,0,.04.02.05.04.01.02.02.03.02.05v.32c.07-.1.13-.18.19-.24.06-.06.12-.11.17-.15.06-.04.11-.06.16-.08.05-.01.11-.02.16-.02.03,0,.05,0,.08,0,.03,0,.06,0,.09.01.03,0,.06.01.08.02.02,0,.04.02.05.03.01,0,.02.02.02.03,0,.01,0,.03.01.05s0,.05,0,.09c0,.04,0,.1,0,.17"/>
    <path class="cls-1" d="m26.52,23.37c0,.15-.03.25-.09.31-.06.06-.17.08-.33.08s-.28-.03-.33-.08c-.06-.05-.09-.15-.09-.29s.03-.25.09-.31c.06-.06.17-.08.34-.08s.27.03.33.08c.06.06.09.15.09.3m-.05,3.47s0,.04-.02.05c-.01.01-.03.03-.06.04-.03.01-.07.02-.11.02-.05,0-.11,0-.18,0s-.13,0-.18,0c-.05,0-.08-.01-.11-.02-.03,0-.05-.02-.06-.04-.01-.02-.02-.03-.02-.05v-2.59s0-.04.02-.05c.01-.01.03-.03.06-.04.03-.01.06-.02.11-.02.05,0,.11,0,.18,0s.13,0,.18,0c.05,0,.08.01.11.02.03.01.05.02.06.04.01.02.02.03.02.05v2.59Z"/>
    <path class="cls-1" d="m28.76,23.26c0,.06,0,.1,0,.14,0,.03-.01.06-.02.08,0,.02-.02.03-.03.04s-.02.01-.03.01c-.01,0-.03,0-.05-.01s-.04-.01-.06-.02c-.03,0-.05-.01-.09-.02-.03,0-.07,0-.12,0-.05,0-.1,0-.13.02-.04.02-.07.04-.09.08-.03.04-.04.08-.06.14-.01.06-.02.13-.02.21v.24h.47s.03,0,.05.01c.02,0,.03.03.04.05.01.02.02.05.02.09,0,.04,0,.09,0,.14,0,.11-.01.18-.03.23-.02.05-.05.07-.09.07h-.47v2.1s0,.04-.02.05c-.01.02-.03.03-.06.04-.03,0-.06.02-.11.02-.05,0-.11,0-.18,0s-.13,0-.17,0c-.05,0-.09-.01-.11-.02-.03-.01-.05-.02-.06-.04-.01-.01-.02-.03-.02-.05v-2.1h-.33s-.06-.02-.08-.07c-.02-.05-.03-.12-.03-.23,0-.06,0-.1,0-.14,0-.04.01-.07.02-.09,0-.02.02-.04.03-.05.02,0,.03-.01.05-.01h.32v-.22c0-.18.02-.33.05-.46.03-.13.09-.24.16-.33.08-.09.17-.15.29-.2.11-.04.25-.07.41-.07.08,0,.15,0,.21.02.07.01.12.03.16.04.04.01.07.03.08.04.01.01.03.03.03.06,0,.02.02.05.02.09,0,.04,0,.08,0,.14"/>
    <path class="cls-1" d="m31.37,25.47c0,.09-.02.15-.06.2-.04.04-.09.06-.16.06h-1.58c0,.11.01.21.04.3.03.09.07.17.12.23.06.06.13.11.22.15.09.03.2.05.32.05s.24,0,.34-.03c.1-.02.18-.04.25-.06.07-.02.13-.04.18-.06.05-.02.08-.03.11-.03.02,0,.03,0,.04,0,.01,0,.02.02.03.04,0,.02.01.04.02.07,0,.03,0,.07,0,.12,0,.04,0,.08,0,.11,0,.03,0,.06,0,.08,0,.02-.01.04-.02.05,0,.01-.02.03-.03.04-.01.01-.05.03-.1.06-.06.02-.13.05-.21.07-.09.02-.19.04-.3.06-.11.02-.23.02-.36.02-.23,0-.43-.03-.61-.09-.17-.06-.32-.15-.43-.26-.12-.12-.2-.27-.26-.45-.06-.18-.09-.39-.09-.63,0-.23.03-.44.09-.62.06-.18.15-.34.26-.47.11-.13.25-.23.42-.29.16-.07.35-.1.55-.1.22,0,.4.03.56.1.15.06.28.15.38.27.1.11.17.25.22.4s.07.32.07.51v.12Zm-.71-.21c0-.2-.04-.37-.12-.48-.09-.12-.22-.18-.41-.18-.09,0-.17.02-.24.05-.07.03-.13.08-.17.14-.05.06-.08.13-.1.21-.02.08-.04.17-.04.26h1.09Z"/>
    <path class="cls-1" d="m33.64,24.49c0,.07,0,.13,0,.17,0,.04-.01.08-.02.1,0,.03-.02.04-.03.05-.01.01-.03.02-.05.02-.02,0-.03,0-.05-.01-.02,0-.04-.01-.07-.02-.02,0-.05-.01-.08-.02-.03,0-.06,0-.1,0-.04,0-.08,0-.12.02-.04.02-.08.04-.13.08-.04.03-.09.08-.14.14-.05.06-.1.13-.15.21v1.62s0,.04-.02.05c-.01.02-.03.03-.06.04-.03,0-.07.02-.11.02-.05,0-.11,0-.18,0s-.13,0-.18,0c-.05,0-.08-.01-.11-.02-.03-.01-.05-.02-.06-.04-.01-.01-.02-.03-.02-.05v-2.59s0-.04.02-.05c0-.01.03-.03.05-.04.03-.01.06-.02.1-.02.04,0,.09,0,.15,0,.06,0,.11,0,.16,0,.04,0,.07.01.09.02.02,0,.04.02.05.04.01.02.02.03.02.05v.32c.07-.1.13-.18.19-.24.06-.06.12-.11.17-.15.06-.04.11-.06.16-.08.05-.01.11-.02.16-.02.03,0,.05,0,.08,0,.03,0,.06,0,.09.01.03,0,.06.01.08.02.02,0,.04.02.05.03.01,0,.02.02.02.03,0,.01,0,.03.01.05s0,.05,0,.09c0,.04,0,.1,0,.17"/>
    <path class="cls-1" d="m34.87,23.37c0,.15-.03.25-.09.31-.06.06-.17.08-.33.08s-.28-.03-.33-.08c-.06-.05-.09-.15-.09-.29s.03-.25.09-.31c.06-.06.17-.08.34-.08s.27.03.33.08c.06.06.09.15.09.3m-.05,3.47s0,.04-.02.05c-.01.01-.03.03-.06.04-.03.01-.07.02-.11.02-.05,0-.11,0-.18,0s-.13,0-.18,0c-.05,0-.08-.01-.11-.02-.03,0-.05-.02-.06-.04-.01-.02-.02-.03-.02-.05v-2.59s0-.04.02-.05c.01-.01.03-.03.06-.04.03-.01.06-.02.11-.02.05,0,.11,0,.18,0s.13,0,.18,0c.05,0,.08.01.11.02.03.01.05.02.06.04.01.02.02.03.02.05v2.59Z"/>
    <path class="cls-1" d="m36.28,26.84s0,.04-.02.05c-.01.02-.03.03-.06.04-.03.01-.06.02-.11.02-.05,0-.11,0-.18,0s-.13,0-.18,0c-.05,0-.08-.01-.11-.02-.03-.01-.05-.02-.06-.04-.01-.01-.02-.03-.02-.05v-2.59s0-.04.02-.05c.01-.02.03-.03.06-.04.03,0,.07-.02.11-.02.05,0,.11,0,.18,0s.13,0,.18,0c.05,0,.08.01.11.02.03,0,.05.02.06.04.01.01.02.03.02.05v2.59Zm-.28-3.86s.03-.04.05-.06c.02-.01.04-.03.07-.04.03,0,.06-.01.11-.02s.1,0,.16,0c.09,0,.16,0,.21.01.05,0,.09.02.11.03.02.01.03.03.03.05,0,.02-.01.04-.03.06l-.56.68s-.03.03-.05.05c-.02.01-.04.02-.06.03-.03,0-.06.01-.09.02-.04,0-.08,0-.14,0-.07,0-.12,0-.16,0-.04,0-.07-.01-.08-.03-.02-.01-.02-.03-.02-.05,0-.02.01-.04.03-.07l.42-.67Z"/>
    <path class="cls-1" d="m41.02,25.5c0,.23-.03.44-.08.62-.05.19-.12.34-.22.47-.09.13-.21.23-.35.3-.14.07-.3.1-.48.1-.08,0-.15,0-.21-.02-.06-.02-.12-.04-.18-.07-.06-.03-.12-.07-.18-.11-.06-.04-.12-.1-.18-.16v1.22s0,.04-.02.05c-.01.01-.03.03-.06.04-.03.01-.07.02-.11.03-.05,0-.1,0-.18,0s-.13,0-.18,0c-.05,0-.08-.01-.11-.03-.03,0-.05-.02-.06-.04-.01-.02-.02-.03-.02-.05v-3.62s0-.04.02-.05c0-.01.03-.03.05-.04.02-.01.06-.02.1-.02.04,0,.09,0,.15,0s.11,0,.15,0c.04,0,.07.01.1.02.02,0,.04.02.05.04.01.01.01.03.01.05v.3c.08-.08.15-.14.22-.2.07-.06.15-.11.22-.15.07-.04.15-.07.23-.09.08-.02.17-.03.26-.03.19,0,.35.04.48.11.13.07.24.18.33.31.08.13.15.28.18.45.04.17.06.36.06.55m-.76.05c0-.11,0-.22-.02-.32-.02-.1-.05-.19-.08-.27-.04-.08-.09-.14-.16-.19-.06-.05-.14-.07-.24-.07-.05,0-.09,0-.14.02-.05.02-.1.04-.15.07-.05.03-.1.08-.15.13-.05.05-.11.12-.17.2v.85c.1.13.2.23.29.3.09.07.19.11.29.11.09,0,.18-.02.24-.07.07-.05.12-.11.16-.19.04-.08.07-.17.09-.27.02-.1.03-.2.03-.3"/>
    <path class="cls-1" d="m43.27,24.49c0,.07,0,.13,0,.17,0,.04-.01.08-.02.1,0,.03-.02.04-.03.05-.01.01-.03.02-.05.02-.02,0-.03,0-.05-.01-.02,0-.04-.01-.07-.02-.02,0-.05-.01-.08-.02-.03,0-.06,0-.1,0-.04,0-.08,0-.12.02-.04.02-.08.04-.13.08-.04.03-.09.08-.14.14-.05.06-.1.13-.15.21v1.62s0,.04-.02.05c-.01.02-.03.03-.06.04-.03,0-.07.02-.11.02-.05,0-.11,0-.18,0s-.13,0-.18,0c-.05,0-.08-.01-.11-.02-.03-.01-.05-.02-.06-.04-.01-.01-.02-.03-.02-.05v-2.59s0-.04.02-.05c0-.01.03-.03.05-.04.03-.01.06-.02.1-.02.04,0,.09,0,.15,0,.06,0,.11,0,.16,0,.04,0,.07.01.09.02.02,0,.04.02.05.04.01.02.02.03.02.05v.32c.07-.1.13-.18.19-.24.06-.06.12-.11.17-.15.06-.04.11-.06.16-.08.05-.01.11-.02.16-.02.03,0,.05,0,.08,0,.03,0,.06,0,.09.01.03,0,.06.01.08.02.02,0,.04.02.05.03.01,0,.02.02.02.03,0,.01,0,.03.01.05s0,.05,0,.09c0,.04,0,.1,0,.17"/>
    <path class="cls-1" d="m46.27,25.52c0,.22-.03.42-.09.6-.06.18-.15.34-.27.47-.12.13-.27.23-.44.3-.18.07-.39.11-.62.11s-.43-.03-.6-.1c-.17-.06-.31-.16-.42-.28-.11-.12-.2-.27-.25-.45-.05-.18-.08-.38-.08-.61s.03-.42.09-.61c.06-.18.15-.34.27-.47.12-.13.27-.23.44-.3.18-.07.39-.11.62-.11s.43.03.6.1c.17.06.31.15.42.28.11.12.19.27.25.45.06.18.08.38.08.61m-.75.03c0-.13-.01-.25-.03-.35-.02-.11-.06-.2-.1-.28-.05-.08-.11-.14-.19-.18-.08-.05-.18-.07-.3-.07-.11,0-.2.02-.28.06-.08.04-.15.1-.2.18-.05.08-.09.17-.12.28-.03.11-.04.23-.04.37,0,.13.01.24.03.35.02.11.06.2.1.28.05.08.11.14.19.18.08.04.18.07.3.07.11,0,.21-.02.29-.06.08-.04.15-.1.2-.17.05-.08.09-.17.12-.28.03-.11.04-.23.04-.37"/>
    <path class="cls-1" d="m50.02,26.64c0,.06,0,.1,0,.14,0,.04-.01.07-.02.09-.01.02-.02.04-.04.05-.02,0-.03.01-.05.01h-1.69c-.05,0-.09-.02-.12-.05-.03-.03-.04-.09-.04-.17v-.13s0-.07,0-.09c0-.03,0-.05.02-.08,0-.03.02-.05.03-.08.02-.03.03-.06.06-.09l.97-1.5h-.92s-.07-.02-.09-.07c-.02-.05-.03-.12-.03-.22,0-.06,0-.1,0-.14s.01-.07.02-.09c0-.02.02-.04.04-.05.02,0,.03-.01.06-.01h1.58s.05,0,.07,0c.02,0,.04.02.05.03.01.01.02.04.03.06,0,.03.01.06.01.1v.14s0,.07,0,.1c0,.03-.01.06-.02.09,0,.03-.02.05-.03.08-.02.03-.03.06-.05.09l-.96,1.5h1.02s.03,0,.05.01c.02,0,.03.02.04.04.01.02.02.05.02.09,0,.04,0,.09,0,.14"/>
    <path class="cls-1" d="m53.18,25.5c0,.23-.03.44-.08.62-.05.19-.12.34-.22.47-.09.13-.21.23-.35.3-.14.07-.3.1-.48.1-.08,0-.15,0-.21-.02-.06-.02-.12-.04-.18-.07-.06-.03-.12-.07-.18-.11-.06-.04-.12-.1-.18-.16v1.22s0,.04-.02.05c-.01.01-.03.03-.06.04-.03.01-.07.02-.11.03-.05,0-.1,0-.18,0s-.13,0-.18,0c-.05,0-.08-.01-.11-.03-.03,0-.05-.02-.06-.04-.01-.02-.02-.03-.02-.05v-3.62s0-.04.02-.05c0-.01.03-.03.05-.04.02-.01.06-.02.1-.02.04,0,.09,0,.15,0s.11,0,.15,0c.04,0,.07.01.1.02.02,0,.04.02.05.04.01.01.01.03.01.05v.3c.08-.08.15-.14.22-.2.07-.06.15-.11.22-.15.07-.04.15-.07.23-.09.08-.02.17-.03.26-.03.19,0,.35.04.48.11.13.07.24.18.33.31.08.13.15.28.18.45.04.17.06.36.06.55m-.76.05c0-.11,0-.22-.02-.32-.02-.1-.05-.19-.08-.27-.04-.08-.09-.14-.16-.19-.06-.05-.14-.07-.24-.07-.05,0-.09,0-.14.02-.05.02-.1.04-.15.07-.05.03-.1.08-.15.13-.05.05-.11.12-.17.2v.85c.1.13.2.23.29.3.09.07.19.11.29.11.09,0,.18-.02.24-.07.07-.05.12-.11.16-.19.04-.08.07-.17.09-.27.02-.1.03-.2.03-.3"/>
    <path class="cls-1" d="m55.43,24.49c0,.07,0,.13,0,.17,0,.04-.01.08-.02.1,0,.03-.02.04-.03.05-.01.01-.03.02-.05.02-.02,0-.03,0-.05-.01-.02,0-.04-.01-.07-.02-.02,0-.05-.01-.08-.02-.03,0-.06,0-.1,0-.04,0-.08,0-.12.02-.04.02-.08.04-.13.08-.04.03-.09.08-.14.14-.05.06-.1.13-.15.21v1.62s0,.04-.02.05c-.01.02-.03.03-.06.04-.03,0-.07.02-.11.02-.05,0-.11,0-.18,0s-.13,0-.18,0c-.05,0-.08-.01-.11-.02-.03-.01-.05-.02-.06-.04-.01-.01-.02-.03-.02-.05v-2.59s0-.04.02-.05c0-.01.03-.03.05-.04.03-.01.06-.02.1-.02.04,0,.09,0,.15,0,.06,0,.11,0,.16,0,.04,0,.07.01.09.02.02,0,.04.02.05.04.01.02.02.03.02.05v.32c.07-.1.13-.18.19-.24.06-.06.12-.11.17-.15.06-.04.11-.06.16-.08.05-.01.11-.02.16-.02.03,0,.05,0,.08,0,.03,0,.06,0,.09.01.03,0,.06.01.08.02.02,0,.04.02.05.03.01,0,.02.02.02.03,0,.01,0,.03.01.05s0,.05,0,.09c0,.04,0,.1,0,.17"/>
    <path class="cls-1" d="m57.98,26.85s-.01.05-.03.06c-.02.02-.05.03-.09.03-.04,0-.1.01-.18.01-.09,0-.15,0-.19-.01-.04,0-.07-.02-.08-.03-.02-.02-.03-.04-.03-.06v-.21c-.11.11-.23.2-.36.27-.14.06-.29.1-.45.1-.14,0-.26-.02-.38-.05-.11-.04-.21-.09-.3-.16-.08-.07-.15-.16-.2-.26-.05-.1-.07-.23-.07-.36,0-.15.03-.28.09-.39.06-.11.15-.2.26-.28.12-.07.26-.13.44-.16.17-.04.38-.05.61-.05h.25v-.16c0-.08,0-.15-.02-.21-.02-.06-.04-.11-.08-.15-.04-.04-.09-.07-.15-.09-.06-.02-.14-.03-.23-.03-.12,0-.23.01-.33.04-.1.03-.18.06-.26.09-.07.03-.14.06-.19.09-.05.03-.09.04-.12.04-.02,0-.04,0-.06-.02-.02-.01-.03-.03-.04-.06-.01-.02-.02-.06-.02-.09s0-.08,0-.12c0-.06,0-.11.02-.14.01-.04.03-.07.05-.1.03-.03.08-.06.14-.09.07-.03.15-.07.24-.09.09-.03.19-.05.3-.07.11-.02.22-.03.33-.03.2,0,.38.02.52.06.14.04.26.1.35.18.09.08.16.19.2.32.04.13.06.28.06.46v1.74Zm-.72-1.11h-.28c-.12,0-.22,0-.3.03-.08.02-.15.04-.2.08-.05.04-.09.08-.11.13s-.04.11-.04.17c0,.11.04.19.1.26.07.06.16.09.29.09.1,0,.2-.03.28-.08.09-.05.17-.13.26-.23v-.44Z"/>
    <path class="cls-1" d="m60.67,26.42c0,.05,0,.09,0,.13,0,.03,0,.06-.01.09,0,.02,0,.04-.02.06,0,.01-.02.03-.04.05-.02.02-.06.05-.12.08-.06.03-.12.06-.19.09-.07.03-.15.05-.23.06-.08.02-.17.02-.26.02-.2,0-.38-.03-.53-.09-.15-.06-.28-.15-.39-.27s-.18-.27-.24-.44c-.05-.17-.08-.37-.08-.6,0-.26.03-.48.1-.67.07-.19.16-.35.27-.47.12-.12.25-.21.41-.27.16-.06.33-.09.52-.09.08,0,.15,0,.23.02.07.01.14.03.21.05.06.02.12.05.17.08.05.03.09.05.11.08.02.02.04.04.04.05,0,.02.02.04.02.06,0,.02,0,.05.01.09,0,.03,0,.08,0,.12,0,.11,0,.19-.03.24-.02.05-.04.07-.08.07-.03,0-.07-.01-.1-.04s-.08-.06-.13-.09c-.05-.03-.11-.06-.18-.09-.07-.03-.15-.04-.25-.04-.19,0-.34.07-.44.22-.1.15-.15.36-.15.64,0,.14.01.26.04.37.03.11.06.2.11.27.05.07.11.12.19.16.08.04.16.05.26.05s.19-.02.26-.04c.07-.03.14-.06.19-.1.05-.04.1-.07.14-.1s.07-.04.09-.04c.02,0,.03,0,.04.01.01,0,.02.03.03.05,0,.03.01.06.02.1,0,.04,0,.09,0,.16"/>
    <path class="cls-1" d="m63.82,25.52c0,.22-.03.42-.09.6-.06.18-.15.34-.27.47-.12.13-.27.23-.44.3-.18.07-.39.11-.62.11s-.43-.03-.6-.1c-.17-.06-.31-.16-.42-.28-.11-.12-.2-.27-.25-.45-.05-.18-.08-.38-.08-.61s.03-.42.09-.61c.06-.18.15-.34.27-.47.12-.13.27-.23.44-.3.18-.07.39-.11.62-.11s.43.03.6.1c.17.06.31.15.42.28.11.12.19.27.25.45.06.18.08.38.08.61m-.75.03c0-.13-.01-.25-.03-.35-.02-.11-.06-.2-.1-.28-.05-.08-.11-.14-.19-.18-.08-.05-.18-.07-.3-.07-.11,0-.2.02-.28.06-.08.04-.15.1-.2.18-.05.08-.09.17-.12.28-.03.11-.04.23-.04.37,0,.13.01.24.03.35.02.11.06.2.1.28.05.08.11.14.19.18.08.04.18.07.3.07.11,0,.21-.02.29-.06.08-.04.15-.1.2-.17.05-.08.09-.17.12-.28.03-.11.04-.23.04-.37"/>
    <path class="cls-1" d="m66.74,24.24s0,.02,0,.04c0,.01,0,.03,0,.05s0,.04-.01.06c0,.02-.01.04-.02.07l-.78,2.35s-.02.06-.04.08c-.02.02-.04.04-.08.05-.04.01-.09.02-.16.02-.06,0-.15,0-.25,0s-.19,0-.25,0c-.07,0-.12-.01-.15-.02-.04-.01-.06-.03-.08-.05-.02-.02-.03-.05-.04-.08l-.78-2.35s-.02-.07-.03-.11c0-.03-.01-.05-.01-.07,0-.01,0-.03,0-.04,0-.02,0-.04.02-.05.01-.01.03-.03.06-.04.03-.01.06-.02.11-.02.05,0,.11,0,.18,0,.08,0,.14,0,.19,0,.05,0,.09.01.11.02.03,0,.05.02.06.04.01.02.02.04.03.06l.59,1.9.02.07.02-.07.58-1.9s.02-.04.03-.06c.01-.02.03-.03.06-.04.03,0,.06-.02.11-.02.05,0,.1,0,.18,0s.13,0,.18,0c.05,0,.08.01.11.02.02,0,.04.02.05.04.01.02.02.03.02.05"/>
    <path class="cls-1" d="m69.3,26.85s-.01.05-.03.06c-.02.02-.05.03-.09.03-.04,0-.1.01-.18.01-.09,0-.15,0-.19-.01-.04,0-.07-.02-.08-.03-.02-.02-.03-.04-.03-.06v-.21c-.11.11-.23.2-.36.27-.14.06-.29.1-.45.1-.14,0-.26-.02-.38-.05s-.21-.09-.3-.16c-.08-.07-.15-.16-.2-.26-.05-.1-.07-.23-.07-.36,0-.15.03-.28.09-.39.06-.11.15-.2.27-.28.12-.07.26-.13.44-.16.17-.04.38-.05.61-.05h.25v-.16c0-.08,0-.15-.03-.21-.02-.06-.04-.11-.08-.15-.04-.04-.09-.07-.15-.09-.06-.02-.14-.03-.23-.03-.12,0-.23.01-.33.04-.1.03-.18.06-.25.09-.07.03-.14.06-.19.09-.05.03-.09.04-.12.04-.02,0-.04,0-.06-.02-.02-.01-.03-.03-.04-.06,0-.03-.02-.06-.02-.09s0-.08,0-.12c0-.06,0-.11.02-.14,0-.04.03-.07.05-.09.03-.03.08-.06.14-.09.07-.03.15-.07.24-.09.09-.03.19-.05.3-.07.11-.02.22-.03.33-.03.2,0,.38.02.52.06.14.04.26.1.35.18.09.08.16.19.2.32.04.13.06.28.06.46v1.74Zm-.72-1.11h-.28c-.12,0-.22,0-.3.03-.08.02-.15.04-.2.08-.05.04-.09.08-.12.13-.02.05-.04.11-.04.17,0,.11.03.19.1.26.07.06.16.09.29.09.1,0,.2-.03.28-.08.09-.05.17-.13.26-.23v-.44Zm-.26-2.76s.03-.04.05-.06c.02-.01.04-.03.07-.04.03,0,.07-.01.11-.02.05,0,.1,0,.16,0,.09,0,.16,0,.21.01.05,0,.09.02.11.03.02.01.03.03.03.05,0,.02-.01.04-.03.06l-.56.68s-.03.03-.05.05c-.01.01-.04.02-.06.03-.02,0-.06.01-.09.02-.04,0-.08,0-.14,0-.07,0-.12,0-.16,0-.04,0-.07-.01-.08-.03-.02-.01-.02-.03-.02-.05,0-.02.01-.04.03-.07l.42-.67Z"/>
    <path class="cls-1" d="m72.5,26.84s0,.04-.02.05c-.01.01-.03.03-.06.04-.03.01-.07.02-.11.02-.05,0-.11,0-.18,0-.07,0-.13,0-.18,0-.05,0-.08-.01-.11-.02-.03,0-.05-.02-.06-.04-.01-.02-.02-.03-.02-.05v-1.48c0-.12,0-.23-.03-.3-.02-.07-.04-.13-.08-.18-.04-.05-.08-.09-.14-.12-.06-.03-.12-.04-.19-.04-.09,0-.19.03-.28.1-.1.07-.19.17-.3.3v1.72s0,.04-.02.05c-.01.01-.03.03-.06.04-.03.01-.07.02-.11.02-.05,0-.1,0-.18,0s-.13,0-.18,0c-.05,0-.08-.01-.11-.02-.03,0-.05-.02-.06-.04-.01-.02-.02-.03-.02-.05v-2.59s0-.04.02-.05c.01-.01.03-.03.05-.04.03,0,.06-.02.1-.02.04,0,.09,0,.15,0s.11,0,.15,0,.07.01.09.02c.02.01.04.02.05.04.01.01.01.03.01.05v.3c.14-.15.29-.27.44-.35.15-.08.3-.12.46-.12.18,0,.33.03.45.09.12.06.22.14.29.24.07.1.13.22.16.35.03.13.05.29.05.48v1.6Z"/>
    <path class="cls-1" d="m73.95,26.84s0,.04-.02.05c-.01.02-.03.03-.06.04-.03.01-.06.02-.11.02-.05,0-.11,0-.18,0s-.13,0-.18,0c-.05,0-.08-.01-.11-.02-.03-.01-.05-.02-.06-.04-.01-.01-.02-.03-.02-.05v-2.59s0-.04.02-.05c.01-.02.03-.03.06-.04.03,0,.07-.02.11-.02.05,0,.11,0,.18,0s.13,0,.18,0c.05,0,.08.01.11.02.03,0,.05.02.06.04.01.01.02.03.02.05v2.59Zm-.28-3.86s.03-.04.05-.06c.02-.01.04-.03.07-.04.03,0,.06-.01.11-.02s.1,0,.16,0c.09,0,.16,0,.21.01.05,0,.09.02.11.03.02.01.03.03.03.05,0,.02-.01.04-.03.06l-.56.68s-.03.03-.05.05c-.02.01-.04.02-.06.03-.03,0-.06.01-.09.02-.04,0-.08,0-.14,0-.07,0-.12,0-.16,0-.04,0-.07-.01-.08-.03-.02-.01-.02-.03-.02-.05,0-.02.01-.04.03-.07l.42-.67Z"/>
    <path class="cls-1" d="m78.64,25.5c0,.23-.03.44-.08.62-.05.19-.12.34-.22.47-.09.13-.21.23-.35.3-.14.07-.3.1-.48.1-.08,0-.15,0-.21-.02-.06-.02-.12-.04-.18-.07-.06-.03-.12-.07-.18-.11-.06-.04-.12-.1-.18-.16v1.22s0,.04-.02.05c-.01.01-.03.03-.06.04-.03.01-.07.02-.11.03-.05,0-.1,0-.18,0s-.13,0-.18,0c-.05,0-.08-.01-.11-.03-.03,0-.05-.02-.06-.04-.01-.02-.02-.03-.02-.05v-3.62s0-.04.02-.05c0-.01.03-.03.05-.04.02-.01.06-.02.1-.02.04,0,.09,0,.15,0s.11,0,.15,0c.04,0,.07.01.1.02.02,0,.04.02.05.04.01.01.01.03.01.05v.3c.08-.08.15-.14.22-.2.07-.06.15-.11.22-.15.07-.04.15-.07.23-.09.08-.02.17-.03.26-.03.19,0,.35.04.48.11.13.07.24.18.33.31.08.13.15.28.18.45.04.17.06.36.06.55m-.76.05c0-.11,0-.22-.02-.32-.02-.1-.05-.19-.08-.27-.04-.08-.09-.14-.16-.19-.06-.05-.14-.07-.24-.07-.05,0-.09,0-.14.02-.05.02-.1.04-.15.07-.05.03-.1.08-.15.13-.05.05-.11.12-.17.2v.85c.1.13.2.23.29.3.09.07.19.11.29.11.09,0,.18-.02.24-.07.07-.05.12-.11.16-.19.04-.08.07-.17.09-.27.02-.1.03-.2.03-.3"/>
    <path class="cls-1" d="m79.96,26.84s0,.04-.02.05c-.01.01-.03.03-.06.04-.03.01-.07.02-.11.02-.05,0-.11,0-.18,0s-.13,0-.18,0c-.05,0-.08-.01-.11-.02-.03,0-.05-.02-.06-.04-.01-.02-.02-.03-.02-.05v-3.82s0-.04.02-.05c.01-.02.03-.03.06-.04.03-.01.06-.02.11-.03.05,0,.11,0,.18,0s.13,0,.18,0c.05,0,.08.02.11.03.03.01.05.02.06.04.01.02.02.03.02.05v3.82Z"/>
    <path class="cls-1" d="m82.89,26.85s-.01.05-.03.06c-.02.02-.05.03-.09.03-.04,0-.1.01-.18.01-.09,0-.15,0-.19-.01-.04,0-.07-.02-.08-.03-.02-.02-.03-.04-.03-.06v-.21c-.11.11-.23.2-.36.27-.14.06-.29.1-.45.1-.14,0-.26-.02-.38-.05-.11-.04-.21-.09-.3-.16-.08-.07-.15-.16-.2-.26-.05-.1-.07-.23-.07-.36,0-.15.03-.28.09-.39.06-.11.15-.2.26-.28.12-.07.26-.13.44-.16.17-.04.38-.05.61-.05h.25v-.16c0-.08,0-.15-.02-.21-.02-.06-.04-.11-.08-.15-.04-.04-.09-.07-.15-.09-.06-.02-.14-.03-.23-.03-.12,0-.23.01-.33.04-.1.03-.18.06-.26.09-.07.03-.14.06-.19.09-.05.03-.09.04-.12.04-.02,0-.04,0-.06-.02-.02-.01-.03-.03-.04-.06-.01-.02-.02-.06-.02-.09s0-.08,0-.12c0-.06,0-.11.02-.14.01-.04.03-.07.05-.1.03-.03.08-.06.14-.09.07-.03.15-.07.24-.09.09-.03.19-.05.3-.07.11-.02.22-.03.33-.03.2,0,.38.02.52.06.14.04.26.1.35.18.09.08.16.19.2.32.04.13.06.28.06.46v1.74Zm-.72-1.11h-.28c-.12,0-.22,0-.3.03-.08.02-.15.04-.2.08-.05.04-.09.08-.11.13s-.04.11-.04.17c0,.11.04.19.1.26.07.06.16.09.29.09.1,0,.2-.03.28-.08.09-.05.17-.13.26-.23v-.44Z"/>
    <path class="cls-1" d="m85.45,26.1c0,.15-.03.28-.08.39-.06.11-.13.21-.23.28-.1.08-.22.13-.36.17-.14.04-.29.06-.45.06-.1,0-.19,0-.28-.02-.09-.01-.17-.03-.24-.05-.07-.02-.13-.05-.17-.07-.05-.02-.08-.05-.1-.07-.02-.02-.04-.05-.05-.1-.01-.04-.02-.11-.02-.19,0-.06,0-.1,0-.14,0-.03.01-.06.02-.08,0-.02.02-.04.03-.04.01,0,.03-.01.04-.01.02,0,.05.01.09.04.04.02.09.05.16.08.06.03.14.06.22.08.08.03.18.04.28.04.07,0,.12,0,.18-.02.05-.01.1-.03.13-.06.04-.03.07-.06.09-.1.02-.04.03-.08.03-.13,0-.06-.02-.11-.05-.15-.03-.04-.08-.08-.14-.11-.06-.03-.13-.06-.2-.09-.08-.03-.15-.06-.23-.09-.08-.03-.15-.07-.23-.11-.08-.04-.14-.1-.2-.16-.06-.06-.11-.14-.14-.22-.04-.09-.05-.19-.05-.32s.03-.24.07-.34c.05-.1.12-.19.21-.27.09-.07.2-.13.33-.17.13-.04.28-.06.44-.06.08,0,.16,0,.24.02.08.01.15.03.21.04.06.02.11.04.16.06.04.02.07.04.09.05s.03.03.04.04c0,.01.01.03.02.05,0,.02,0,.04.01.07,0,.03,0,.07,0,.11,0,.05,0,.09,0,.13,0,.03,0,.06-.02.08,0,.02-.02.03-.03.04-.01,0-.03.01-.04.01-.02,0-.04-.01-.08-.03-.04-.02-.08-.04-.14-.07-.06-.02-.12-.04-.19-.07-.07-.02-.16-.03-.25-.03-.07,0-.12,0-.17.02-.05.01-.09.03-.12.06-.03.03-.05.05-.07.09-.02.03-.02.07-.02.11,0,.06.02.11.05.15.04.04.09.08.15.11.06.03.13.06.2.09.08.03.15.06.23.09.08.03.16.07.23.11.08.04.15.1.2.16.06.06.11.14.15.22.04.09.06.19.06.31"/>
    <path class="cls-1" d="m87.45,26.58c0,.09,0,.15-.02.2-.01.05-.02.08-.04.1-.02.02-.04.04-.08.05-.03.01-.07.03-.12.04-.05.01-.1.02-.15.02-.05,0-.11,0-.16,0-.15,0-.27-.02-.38-.06-.11-.04-.2-.09-.27-.17-.07-.08-.12-.17-.15-.29-.03-.12-.05-.25-.05-.41v-1.33h-.31s-.06-.02-.08-.07c-.02-.05-.03-.12-.03-.23,0-.05,0-.1,0-.14,0-.04.01-.07.02-.09.01-.02.02-.04.04-.05.02-.01.03-.02.05-.02h.31v-.58s0-.04.02-.05c.01-.02.03-.03.06-.04.03-.01.07-.02.11-.02.05,0,.11,0,.18,0s.13,0,.18,0c.05,0,.08.01.11.02.03,0,.05.02.06.04.01.01.02.03.02.05v.58h.56s.04,0,.05.02c.01.01.03.02.04.05,0,.02.02.05.02.09,0,.04,0,.09,0,.14,0,.11-.01.18-.03.23-.02.04-.05.07-.08.07h-.57v1.22c0,.14.02.25.07.32.04.07.12.11.24.11.04,0,.07,0,.1-.01.03,0,.06-.01.08-.02.02,0,.04-.02.06-.02s.03-.01.05-.01c.01,0,.02,0,.03.01s.02.02.03.04c0,.02.01.05.02.08,0,.03,0,.08,0,.13"/>
    <path class="cls-1" d="m90.43,26.84s0,.04-.01.05c-.01.01-.03.03-.05.04-.02.01-.06.02-.1.02-.04,0-.09,0-.15,0-.06,0-.12,0-.16,0s-.07-.01-.09-.02c-.02,0-.04-.02-.05-.04-.01-.01-.02-.03-.02-.05v-.3c-.14.15-.29.27-.44.35-.15.08-.3.12-.46.12-.18,0-.33-.03-.45-.09-.12-.06-.22-.14-.29-.24-.07-.1-.13-.22-.16-.35-.03-.13-.05-.3-.05-.5v-1.59s0-.04.02-.05c.01-.01.03-.03.06-.04.03-.01.07-.02.11-.02.05,0,.11,0,.18,0s.13,0,.18,0c.05,0,.08.01.11.02.03,0,.05.02.06.04.01.01.02.03.02.05v1.46c0,.14,0,.24.03.31.02.07.04.13.08.18.04.05.08.09.14.12.06.03.12.04.19.04.09,0,.19-.03.28-.1s.19-.17.3-.3v-1.72s0-.04.02-.05c.01-.01.03-.03.06-.04.03-.01.07-.02.11-.02.05,0,.11,0,.18,0s.13,0,.18,0c.05,0,.08.01.11.02.03,0,.05.02.06.04.01.01.02.03.02.05v2.59Zm-.55-3.58c0,.09-.02.17-.05.24-.03.07-.08.13-.14.18-.06.05-.13.09-.22.11-.09.03-.18.04-.29.04s-.21-.01-.29-.04c-.08-.02-.15-.06-.21-.11-.05-.05-.1-.11-.12-.17-.03-.07-.04-.15-.04-.24s.02-.17.04-.24c.03-.07.08-.13.13-.18.06-.05.13-.09.22-.11.08-.03.18-.04.29-.04.22,0,.38.05.5.14.11.1.17.23.17.41m-.44.01c0-.07-.02-.14-.06-.18-.04-.05-.1-.07-.19-.07-.08,0-.14.02-.18.06-.04.04-.06.1-.06.18,0,.08.02.14.06.19.04.04.1.07.19.07.08,0,.14-.02.18-.07.04-.04.06-.1.06-.18"/>
  </g>
</svg>