<?xml version="1.0" encoding="UTF-8"?>
<svg id="Vrstva_1" data-name="Vrstva 1" xmlns="http://www.w3.org/2000/svg" xmlns:xlink="http://www.w3.org/1999/xlink" viewBox="0 0 78.98 50.08">
  <defs>
    <style>
      .cls-1, .cls-2, .cls-3, .cls-4, .cls-5, .cls-6, .cls-7, .cls-8, .cls-9, .cls-10, .cls-11, .cls-12 {
        stroke-width: 0px;
      }

      .cls-1, .cls-12 {
        fill: #ce132d;
      }

      .cls-13 {
        clip-path: url(#clippath-2);
      }

      .cls-2, .cls-4, .cls-7, .cls-10, .cls-12 {
        fill-rule: evenodd;
      }

      .cls-14 {
        isolation: isolate;
      }

      .cls-15 {
        clip-path: url(#clippath-6);
      }

      .cls-4, .cls-6 {
        fill: #004f70;
      }

      .cls-16 {
        stroke: #8c734b;
        stroke-width: .08px;
      }

      .cls-16, .cls-5 {
        fill: none;
      }

      .cls-17 {
        clip-path: url(#clippath-7);
      }

      .cls-18 {
        clip-path: url(#clippath-1);
      }

      .cls-19 {
        clip-path: url(#clippath-4);
      }

      .cls-7, .cls-11 {
        fill: #8c734b;
      }

      .cls-8, .cls-10 {
        fill: #fff;
      }

      .cls-9 {
        fill: #124634;
      }

      .cls-20 {
        clip-path: url(#clippath);
      }

      .cls-21 {
        clip-path: url(#clippath-3);
      }

      .cls-22 {
        clip-path: url(#clippath-5);
      }
    </style>
    <clipPath id="clippath">
      <rect class="cls-5" x="52.16" y="42.94" width="2.03" height="4.02"/>
    </clipPath>
    <clipPath id="clippath-1">
      <rect class="cls-5" x="50" y="42.72" width="1.05" height="3.9"/>
    </clipPath>
    <clipPath id="clippath-2">
      <rect class="cls-5" x="39.84" y="42.04" width="2" height="3.9"/>
    </clipPath>
    <clipPath id="clippath-3">
      <rect class="cls-5" x="34.24" y="42.13" width="1.83" height="3.93"/>
    </clipPath>
    <clipPath id="clippath-4">
      <rect class="cls-5" x="31.39" y="42.27" width="1.89" height="3.94"/>
    </clipPath>
    <clipPath id="clippath-5">
      <rect class="cls-5" x="28.66" y="42.49" width="2.11" height="3.97"/>
    </clipPath>
    <clipPath id="clippath-6">
      <rect class="cls-5" x="25.56" y="42.84" width="2.68" height="4.13"/>
    </clipPath>
    <clipPath id="clippath-7">
      <rect class="cls-5" x="22.8" y="43.51" width="2.21" height="3.9"/>
    </clipPath>
  </defs>
  <polygon class="cls-9" points="50.81 13.25 47.93 10.45 31.02 10.45 28.19 13.25 0 13.25 0 45.56 78.98 45.56 78.98 13.25 50.81 13.25"/>
  <rect class="cls-11" x="0" y="42.46" width="78.98" height=".4"/>
  <rect class="cls-8" y="43.47" width="78.98" height=".79"/>
  <rect class="cls-11" x="0" y="16" width="31.1" height=".4"/>
  <rect class="cls-8" x="0" y="14.59" width="31.1" height=".79"/>
  <rect class="cls-11" x="47.99" y="16" width="30.99" height=".4"/>
  <rect class="cls-8" x="47.99" y="14.59" width="30.99" height=".79"/>
  <path class="cls-8" d="m71.42,35.4c-.63-.25-.84-.91-.84-2.11v-13.52h-2.68c-.08,0-.13.02-.13.07,0,.05.07.09.15.12.63.25.84.91.84,2.13v3.98c-.29-.96-.87-1.45-1.7-1.45-.76,0-1.4.45-1.89,1.3-.58,1-.89,2.6-.89,4.24,0,1.94.33,3.26.92,4.32.49.87,1.12,1.32,1.85,1.32.91,0,1.52-.6,1.7-1.63l.25,1.41h2.43c.09,0,.13-.02.13-.07,0-.05-.07-.09-.15-.12m-3.96-.7c-1.21,0-1.23-1.96-1.23-4.67,0-2.5.05-4.28,1.18-4.28s1.36,2,1.36,4.48-.24,4.47-1.3,4.47m-3.91,1.21c0,.06-.05.08-.14.08h-.01c-1.19,0-2.53-.88-2.53-2.01v-.63h0v-6.45c0-.62-.51-1.12-1.12-1.12s-1.14.51-1.14,1.12v6.38c0,1.22.21,1.89.84,2.14.08.03.15.08.15.12,0,.05-.04.07-.13.07h-2.68v-8.6h0c0-1.22-.21-1.89-.84-2.13-.09-.03-.15-.08-.15-.13,0-.05.04-.07.13-.07h2.43l.25,1.16c.44-.78,1.05-1.16,1.9-1.16,1.2,0,2.18,1.01,2.18,2.27v6.39c0,.41,0,.75.02,1.03.09.95.71,1.33.77,1.4.07.07.09.12.09.16m-7.84-1.48c-.05,0-.08.04-.13.09-.21.26-.5.37-.77.37-.24,0-.35-.26-.35-.55v-7.13c0-2.26-1.66-2.74-2.61-2.74-1.48,0-2.99,1.53-2.99,1.8,0,.07.03.11.08.11.08,0,.16-.02.21-.07.48-.39,1.59-.9,2.36-.9.85,0,1.12.29,1.12,1.26l.03,1.56c-1.5.29-2.27.6-2.99,1.18-.83.67-1.27,2.26-1.27,3.44,0,1.56.64,3.04,2.03,3.05.82,0,1.4-.49,2.23-1.63.18,1.21.94,1.55,1.76,1.55.66,0,1.27-.66,1.38-1.29,0-.07-.03-.11-.08-.11m-4.46.06c-.46,0-.91-.35-.91-1.58,0-1.6.45-3.23,2.32-4.14v2.8c0,2.12-.47,2.93-1.42,2.93m-3.44,1.41c0,.06-.05.08-.14.08h-.01c-1.19,0-2.53-.88-2.53-2.01v-.63s0-6.45,0-6.45c0-.62-.51-1.12-1.12-1.12s-1.14.51-1.14,1.12v6.4c0,1.2.21,1.86.84,2.11.09.03.15.08.15.12,0,.05-.04.07-.13.07h-2.68v-8.6c0-1.22-.21-1.89-.84-2.13-.08-.03-.15-.08-.15-.13,0-.05.04-.07.13-.07h2.43l.25,1.16c.44-.78,1.05-1.16,1.9-1.16,1.2,0,2.17,1.01,2.17,2.27v6.39c0,.41,0,.75.02,1.03.09.95.71,1.33.77,1.4.07.07.1.12.1.16m-8.52-.5c-.63-.25-.84-.91-.84-2.13v-8.6h-2.68c-.08,0-.13.02-.13.07,0,.05.07.09.15.12.63.25.84.91.84,2.11v8.63h2.68c.08,0,.13-.02.13-.07,0-.05-.07-.09-.15-.12m-1.94-12.11c.58,0,1.05-.51,1.05-1.15s-.47-1.15-1.03-1.15c-.6,0-1.07.52-1.07,1.15s.47,1.15,1.05,1.15m-9.79,3.55c0,.13-.03.23-.14.23s-.17-.1-.22-.23c-.3-.69-.85-.97-1.43-.97-.79,0-1.28,1.02-1.3,2.29v5.12c0,1.21.21,1.87.84,2.12.09.03.15.08.15.12,0,.05-.04.07-.13.07h-3.55c-.08,0-.13-.02-.13-.07,0-.05.07-.09.15-.12.63-.25.84-.91.84-2.12v-6.28h0c0-1.22-.21-1.89-.84-2.13-.09-.03-.15-.08-.15-.13,0-.05.04-.07.13-.07h2.43l.25,1.16c.53-.79.97-1.16,1.6-1.16.91,0,1.49,1.36,1.49,2.17m-6.87,6.49c-.08,0-.14.05-.19.12-.58.71-1.02,1.08-1.92,1.08-1.61,0-1.87-2.13-1.87-4.2h4.3c-.02-.87-.04-2.5-.13-2.94-.36-1.79-1.43-2.81-2.94-2.81-1.18,0-2.05.62-2.63,1.9-.36.85-.58,2.45-.58,3.54,0,2.9,1.24,5.49,3.52,5.49,1.35,0,2.2-.94,2.53-2.04.03-.09,0-.14-.08-.14m-3.88-6.94c.16-.62.51-.91,1.07-.91s.89.29,1.05.91c.09.36.11,2.14.11,3.01h-2.34c0-.87.02-2.65.11-3.01m-2.34-5.8v4.65c0,.06-.05.12-.13.12s-.13-.06-.15-.13c0,0-.91-4.15-2.57-4.09-.83.03-1.08.22-1.14.28v5.89c1.33-.08,2.08-.41,2.39-1.19.05-.12.11-.22.18-.22.08,0,.1.06.1.18v3.26c0,.12-.03.18-.1.18-.07,0-.13-.09-.18-.22-.31-.79-1.07-1.12-2.39-1.2v5.07h0c0,1.27.22,1.96.88,2.21.09.04.15.08.16.13,0,.06-.04.08-.13.08h-3.83c-.09,0-.13-.02-.13-.08,0-.05.07-.1.16-.13.66-.26.87-.95.88-2.21h0s0-10.35,0-10.35h0c0-1.26-.22-1.95-.88-2.21-.09-.04-.16-.08-.16-.13,0-.06.04-.08.13-.08h6.75c.11,0,.17.08.17.17m20.55,14.81c-.63-.25-.84-.91-.84-2.11v-13.52h-2.68c-.08,0-.13.02-.13.07,0,.05.07.09.15.13.63.25.84.91.84,2.13v3.97c-.29-.96-.87-1.45-1.7-1.45-.76,0-1.4.45-1.89,1.31-.58,1-.89,2.6-.89,4.24,0,1.94.33,3.26.92,4.32.49.87,1.12,1.32,1.85,1.32.91,0,1.52-.6,1.7-1.63l.25,1.41h2.43c.08,0,.13-.02.13-.07,0-.05-.07-.09-.15-.12m-3.96-.7c-1.21,0-1.23-1.96-1.23-4.66,0-2.5.05-4.28,1.18-4.28s1.36,2,1.36,4.48-.24,4.47-1.3,4.47"/>
  <path class="cls-11" d="m70.69,33.29v-13.38h.36v13.71c0,.78.09,1.29.3,1.62-.47-.25-.65-.81-.66-1.95m-3.99-3c0-1.23.01-2.31.16-3.06.16-.77.43-1.11.9-1.11.08,0,.15.01.22.04-.16-.18-.35-.29-.58-.29-.47,0-.75.34-.9,1.11-.15.75-.16,1.83-.16,3.06,0,1.45.01,2.53.16,3.32.13.7.36,1.08.71,1.19-.16-.2-.27-.51-.36-.94-.15-.79-.16-1.88-.16-3.32m5.12,5.34s-.1-.04-.14-.07c0,.04-.03.07-.04.09-.05.05-.13.06-.19.06h-2.22c.03.19.05.33.05.33h2.53c.06,0,.14,0,.19-.06.02-.02.05-.06.05-.13,0-.09-.08-.17-.22-.23m-4.76.3c-.31,0-.61-.08-.89-.24.37.33.79.49,1.25.49.63,0,1.13-.27,1.45-.76-.04-.21-.09-.49-.13-.72-.29.78-.88,1.22-1.68,1.22m-8.05-10.83c-.03-.17-.06-.29-.06-.29h-.46c.05.22.11.53.15.72.11-.17.24-.31.37-.43m.72.78c-.56,0-1.03.46-1.03,1.01v6.38c0,1.15.19,1.73.66,1.98-.21-.33-.3-.85-.3-1.64v-6.46c0-.55.47-1.01,1.03-1.01.14,0,.27.03.39.08-.18-.2-.45-.33-.75-.33m4.11,9.99c-.15-.12-.61-.49-.69-1.28-.01-.23-.01-.51-.01-.83v-.19s0-6.39,0-6.39c0-.89-.48-1.68-1.18-2.08.5.44.82,1.09.82,1.83v6.58c0,.32,0,.6.02.83.08.79.54,1.16.69,1.28l.06.05c.09.09.13.16.13.24s-.03.19-.26.19h0-.01s0,0,0,0c-.52,0-1.08-.17-1.55-.45.04.03.08.07.12.1.51.38,1.17.6,1.78.6h.02s0,0,0,0c.22,0,.26-.12.26-.19s-.04-.15-.13-.24l-.06-.05Zm-4.39-.16h-2.43s0,.33,0,.33h2.79c.06,0,.14,0,.19-.06.02-.02.05-.06.05-.13,0-.09-.07-.17-.22-.23-.05-.02-.1-.04-.14-.07,0,.04-.03.07-.04.09-.05.05-.13.06-.19.06m-9.03.31c-.31,0-.59-.07-.84-.21.33.3.74.46,1.2.47.78,0,1.35-.44,1.99-1.23-.07-.15-.13-.31-.18-.49-.71.94-1.32,1.48-2.17,1.47m1.09-10.5c-.76,0-1.84.51-2.28.87-.03.02-.07.05-.11.06,0,.02-.01.04-.01.06,0,.15.1.22.19.22.11,0,.21-.03.28-.09.44-.36,1.52-.87,2.28-.87.2,0,.36.02.49.05-.14-.23-.41-.31-.85-.31m-.24,5.35c.28-.59.72-1.08,1.29-1.45v-.47c-.75.4-1.3.96-1.65,1.67-.3.63-.45,1.37-.45,2.28,0,.61.11,1.32.62,1.45-.21-.29-.26-.77-.26-1.2,0-.91.15-1.65.45-2.28m3.32-3.67v7.13c0,.2.05.44.22.44.05,0,.1,0,.14-.01-.01-.05-.02-.11-.02-.17v-7.13c0-1.03-.33-1.81-.99-2.31-.08-.06-.16-.11-.24-.16.58.5.88,1.24.88,2.21m1.48,7.36c-.08,0-.14.05-.17.08l-.02.02c-.16.62-.77,1.27-1.46,1.27-.38,0-.7-.07-.97-.2.32.31.76.46,1.33.46.74,0,1.38-.73,1.49-1.39h0v-.02c0-.15-.1-.22-.19-.22m-7.97,1.3c-.15-.12-.61-.49-.69-1.28-.01-.25-.01-.56-.01-.93v-6.48c0-.89-.48-1.68-1.18-2.08.5.44.82,1.09.82,1.83v6.48c0,.36,0,.68.01.93.08.79.54,1.16.69,1.28l.06.05c.09.09.13.16.13.24s-.03.19-.26.19h0-.01s0,0,0,0c-.52,0-1.08-.17-1.55-.45.04.03.08.07.12.1.51.38,1.17.6,1.78.6h.02s0,0,0,0c.22,0,.26-.12.26-.19s-.04-.15-.13-.24c0,0-.06-.05-.06-.05m-4.83-10.78c-.03-.17-.06-.29-.06-.29h-.46c.05.22.11.53.15.72.11-.17.24-.31.37-.43m.44,10.62h-2.43s0,.33,0,.33h2.79c.06,0,.14,0,.19-.06.02-.02.05-.06.05-.13,0-.1-.08-.17-.22-.23-.05-.02-.1-.04-.14-.07,0,.04-.03.07-.04.09-.05.05-.13.06-.19.06m.28-9.83c-.56,0-1.03.46-1.03,1.01v6.4c0,1.14.19,1.7.66,1.95-.21-.32-.3-.84-.3-1.62v-6.48c0-.55.47-1.01,1.03-1.01.14,0,.27.03.39.08-.18-.2-.45-.33-.75-.33m-4.3,9.75s-.1-.04-.14-.07c0,.04-.03.07-.05.09-.05.05-.13.06-.19.06h-2.43v.33h2.79c.06,0,.14,0,.19-.06.02-.02.05-.06.05-.12,0-.09-.08-.17-.22-.23m-.47-.39c-.21-.33-.3-.85-.3-1.64v-8.79h-.36v8.46c0,1.16.19,1.73.66,1.98m-1.87-11.84c-.16,0-.31-.03-.45-.1.21.22.49.35.81.35.64,0,1.16-.57,1.16-1.26,0-.53-.3-.98-.72-1.17.22.23.36.55.36.91,0,.7-.52,1.26-1.16,1.26m-12.46,1.7c-.04-.17-.06-.29-.06-.29h-.46c.05.23.12.55.16.74.12-.17.24-.32.37-.45m2.89,2.33c.09,0,.25-.04.25-.34,0-.76-.44-1.84-1.15-2.18.49.47.79,1.3.79,1.92,0,.25-.11.32-.2.34.05.11.13.26.31.26m-3.2.72v5.12c0,1.15.19,1.72.66,1.96-.21-.33-.3-.84-.3-1.63v-5.2c.01-1.28.5-2.18,1.18-2.18.23,0,.44.05.63.14-.26-.26-.6-.39-.99-.39-.68,0-1.17.9-1.18,2.18m.76,7.55h-3.35c-.05.04-.08.09-.08.15,0,.06.03.1.05.12.05.05.13.06.19.06h3.55c.06,0,.14,0,.19-.06.02-.02.05-.06.05-.12,0-.09-.08-.17-.22-.23-.05-.02-.1-.04-.14-.07,0,.04-.03.07-.04.09-.05.05-.13.06-.19.06m-5.37-.72c-.47.42-1.07.64-1.72.64-.54,0-1.03-.14-1.48-.41.53.44,1.15.66,1.84.66s1.25-.22,1.72-.64c.42-.37.73-.88.91-1.49.03-.09.02-.16-.02-.21-.02-.03-.08-.07-.17-.07-.07,0-.13.02-.18.06-.18.59-.49,1.09-.91,1.46m-2.69-8.32c.15-.57.45-.82.96-.82.13,0,.24.02.34.05-.17-.21-.4-.31-.7-.31-.51,0-.81.25-.96.82-.08.3-.1,1.71-.1,2.87h.36c0-1.1.03-2.34.1-2.62m4.18,3.53c-.02-.93-.04-2.2-.12-2.58-.24-1.19-.79-2.05-1.57-2.51.59.49,1.01,1.26,1.21,2.26.08.39.11,1.66.12,2.58v.49s-4.29,0-4.29,0c0,1.22.11,2.09.33,2.73.19.58.48.95.86,1.13-.2-.2-.37-.49-.5-.87-.22-.64-.32-1.38-.33-2.6h4.3v-.62Zm-10.09,5.51h-3.64s-.07.09-.07.15c0,.06.03.11.05.13.05.05.13.06.2.06h3.83c.06,0,.14,0,.19-.06.02-.02.05-.06.05-.13h0c0-.1-.08-.18-.23-.23-.05-.02-.09-.04-.14-.06,0,.04-.03.07-.05.09-.05.05-.13.06-.19.06m-.79-2.53c0,1.19.2,1.79.68,2.05-.22-.34-.32-.88-.32-1.72,0,0,0-4.79,0-5.03.64.05,1.12.16,1.48.35-.36-.35-.95-.54-1.84-.6v4.95m1.03-11.94c-.68.02-.95.16-1.03.22v5.72c.13,0,.24-.02.36-.04v-5.43c.09-.06.35-.2,1.03-.22.15,0,.3.03.45.1-.24-.23-.51-.37-.8-.36m1.64,8.1c0,.08,0,.18-.07.24-.01.01-.03.03-.06.04.07.18.17.27.28.27.07,0,.12-.03.15-.05.06-.06.07-.16.07-.24v-3.26c0-.08,0-.18-.07-.24-.03-.03-.07-.06-.15-.06-.05,0-.1.02-.14.06v3.25Zm1.68-3.86v-4.65c0-.16-.12-.28-.29-.28h-.07s0,.02,0,.03v4.65c0,.09-.06.19-.16.22,0,.03.01.05.01.05h0s0,0,0,0c.04.13.14.21.26.21.15,0,.24-.12.24-.24m20.01,9.75c-.21-.32-.3-.84-.3-1.62v-13.71h-.36v13.37c0,1.14.19,1.71.66,1.95m-4.65-4.96c0-1.23.01-2.31.16-3.06.15-.77.43-1.11.9-1.11.08,0,.15.01.22.04-.16-.18-.35-.29-.58-.29-.47,0-.75.34-.9,1.11-.15.74-.16,1.83-.16,3.06,0,1.45.01,2.53.16,3.33.13.7.36,1.08.71,1.19-.16-.2-.27-.51-.36-.94-.15-.79-.16-1.88-.16-3.33m5.12,5.34s-.1-.04-.14-.07c0,.04-.03.07-.04.09-.05.05-.13.06-.19.06h-2.22c.03.19.05.33.05.33h2.53c.06,0,.14,0,.19-.06.02-.02.05-.06.05-.13,0-.09-.08-.17-.22-.23m-4.76.3c-.31,0-.61-.08-.89-.24.37.32.8.49,1.25.49.63,0,1.13-.27,1.45-.76-.04-.21-.09-.49-.13-.72-.29.78-.88,1.22-1.68,1.22"/>
  <path class="cls-3" d="m25.5,40.69h0s0,0,0,0c-.05.01-5.27,1.14-6.78-.06l-.25-.2.02.32s.29,4.12.48,7.76c.02.43.2.78.52,1.04.78.62,2.38.7,4.91.25h0c.07-.02,7.12-1.57,15.09-1.57s15.02,1.56,15.09,1.57h0s0,0,0,0c2.53.45,4.13.37,4.91-.25.32-.26.5-.61.52-1.04.19-3.64.48-7.72.48-7.76l.02-.32-.25.2c-1.51,1.2-6.73.07-6.78.06h0c-4.83-.84-9.41-1.25-13.99-1.26-4.57,0-9.15.41-13.99,1.25"/>
  <path class="cls-8" d="m39.53,39.72c4.57,0,9.12.41,13.94,1.25.24.05,4.93,1.06,6.77.05-.07.99-.3,4.39-.46,7.48-.02.35-.15.63-.42.83-.7.55-2.27.62-4.68.19-.17-.04-7.2-1.58-15.15-1.58s-14.98,1.54-15.15,1.58c-2.41.43-3.98.36-4.68-.19-.26-.21-.4-.48-.42-.83-.03-.49-.05-.98-.08-1.47-.02-.42-.05-.85-.07-1.26-.13-2.15-.26-4.05-.31-4.75,1.83,1.02,6.52,0,6.77-.05,4.83-.84,9.38-1.25,13.94-1.25"/>
  <path class="cls-3" d="m25.71,41.79h0c-.24.05-1.49.31-2.95.44-1.18.11-2.18.09-2.97-.04h-.07s0,.06,0,.06c.1,1.4.24,3.79.36,6.06,0,.14.09.31.18.37.52.36,1.91.36,3.92,0,.19-.04,1.93-.42,4.58-.8,2.56-.36,6.5-.8,10.73-.8s8.17.43,10.73.8c2.65.38,4.39.75,4.58.8,2.91.51,3.76.15,4-.03.09-.07.1-.18.1-.29.12-2.21.26-4.67.36-6.12v-.07s-.07.01-.07.01c-.79.13-1.79.14-2.97.04-1.34-.12-2.62-.37-2.96-.44h0c-4.76-.83-9.27-1.23-13.78-1.23-4.5,0-9.01.4-13.78,1.23"/>
  <path class="cls-11" d="m39.49,40.67c4.51,0,9.02.41,13.78,1.24h0c.38.08,1.63.32,2.95.44,1.17.1,2.13.1,2.93-.03-.1,1.46-.24,3.88-.36,6.06,0,.12-.02.18-.06.21-.17.13-.96.52-3.91,0-.19-.04-1.93-.42-4.58-.8-2.56-.36-6.51-.8-10.74-.8s-8.18.43-10.74.8c-2.66.38-4.4.76-4.59.8-2.67.47-3.55.21-3.84.02-.05-.04-.13-.18-.13-.29-.12-2.24-.26-4.58-.35-6,.8.12,1.76.13,2.93.03,1.46-.13,2.73-.39,2.97-.44,4.76-.83,9.26-1.23,13.76-1.23"/>
  <path class="cls-3" d="m27.64,42.98l-.17-.14-.54.09-.4,1.43-.19-1.1-.24-.19-.55.09.64,3.8.2.17.58-.09-.22-1.28.13-.4.76,1.36.2.16.7-.11-1.38-2.34.45-1.45Zm5.82-.53l-.21-.17-1.85.14.04.51.23.19s.28-.02.43-.03l.23,3.13.23.19.54-.04s-.24-3.21-.25-3.33c.1,0,.65-.05.65-.05l-.04-.53Zm-2.78.23l-.23-.18-.55.06.32,2.93c.02.23-.1.4-.3.42-.03,0-.05,0-.08,0-.05-.04-.08-.1-.09-.22l-.31-2.88-.22-.18-.55.06.32,2.93c.02.2.07.34.16.47,0,.01.02.02.03.04.02.05.05.09.08.14.2.28.55.44.89.4.34-.04.62-.24.77-.56.08-.18.1-.32.08-.55l-.31-2.88Zm-5.52,3.38c-.08-.44-.31-.7-.8-.83-.12-.05-.26-.08-.41-.11-.07-.01-.13-.03-.18-.04-.09-.05-.11-.12-.14-.25l-.03-.17c-.02-.11,0-.21.05-.28.04-.06.11-.1.2-.12.09-.02.18,0,.24.05.01.03.02.07.03.11l.03.17.22.16.55-.09-.04-.22c-.08-.43-.38-.74-.76-.83-.16-.07-.35-.1-.54-.07-.51.09-.84.58-.75,1.11l.03.17c.04.23.09.34.2.48.15.26.3.43.66.51.2.05.59.13.66.16.01.03.02.07.02.12l.05.26c.03.15.02.21,0,.28-.05.12-.17.21-.31.24-.04,0-.07,0-.11,0-.02-.01-.04-.03-.06-.05-.04-.05-.06-.08-.08-.21l-.03-.15-.22-.1-.55.1.02.14c.04.21.12.38.24.52.2.36.58.52,1.03.43.27-.05.53-.21.66-.42.11-.19.23-.44.17-.74l-.05-.31Zm19.17-4l.61-.74-.15-.12-.53-.03-.48.71.2.17.35.02Zm-6.53-.1h.42s.59-.8.59-.8l-.19-.09h0s0,0,0,0h-.52s-.18.31-.18.31l-.14-.22-.22-.06h-.51s.57.71.57.71l.19.15Zm19,2.23c-.13-.24-.36-.42-.63-.48-.06-.03-.13-.05-.2-.06-.53-.1-.99.24-1.09.79l-.35,1.93c-.04.21-.04.33,0,.48.02.07.05.14.09.2.12.32.41.57.75.63.23.04.48,0,.69-.13.27-.16.41-.38.47-.73l.35-1.93c.05-.28.02-.49-.09-.7m-.63.48l-.35,1.93c-.02.12-.04.17-.09.22-.08.1-.22.15-.33.14-.03-.02-.06-.05-.09-.08-.06-.08-.08-.14-.05-.3l.35-1.93c.02-.11.04-.14.08-.2.07-.08.2-.13.3-.11.07.01.14.06.18.12.01.05.01.11,0,.2m-20.11.77l-.89.04c-.01-.23-.04-.85-.05-.94.11,0,.96-.05.96-.05l-.02-.53-.21-.17-.76.04c-.01-.23-.04-.85-.04-.94.11,0,1.09-.05,1.09-.05l-.02-.52-.21-.17-1.65.08.19,3.85.23.19,1.63-.08-.03-.57-.21-.17Zm2.2-.61v.13c0,.2,0,.22-.03.29-.06.1-.18.17-.3.17-.01,0-.03,0-.04,0,0,0,0,0-.01,0-.07-.07-.08-.07-.08-.3l-.05-1.99c0-.1.03-.19.08-.25.05-.05.11-.08.19-.08.08,0,.14.02.18.06.01.04.02.08.02.12v.2s.24.19.24.19h.53s0-.28,0-.28c-.01-.46-.29-.82-.68-.94-.13-.07-.28-.11-.45-.11-.21,0-.43.09-.58.24-.21.19-.3.41-.29.72l.05,1.99c0,.27.04.4.14.56,0,.01.02.02.03.04h0s.04.08.07.13c.18.27.4.39.81.39.38,0,.71-.29.81-.49.09-.17.13-.32.13-.54v-.09l-.2-.17h-.55Zm15.93-1.52l-.57-.1-.71,1.98.03-1.97-.2-.17h0,0s-.57-.1-.57-.1l.1,3.94h0l.24.2.4.07,1.45-3.71-.15-.12h0Zm-5.4-.74s0,0,0,0c-.08-.04-.17-.06-.26-.07l-.9-.09-.38,3.84h0l.22.18.51.05s.14-1.4.15-1.51c.08,0,.22.02.22.02.33.03.54-.03.76-.21.21-.17.31-.38.34-.7l.05-.56c.02-.18-.08-.46-.22-.63-.12-.15-.31-.27-.51-.32m.02.84l-.05.5c-.02.19-.04.23-.14.31-.09.07-.17.09-.33.08h-.09c.02-.21.1-1.05.11-1.15.08,0,.27.03.27.03.1,0,.18.05.23.11,0,.04.01.08,0,.13m2.23-.62l-.54-.07-.5,3.83.22.18.5.07.51-3.85-.19-.16h0Zm-9.21-.72h-.54s-.03,1.74-.03,1.74l-.53-1.53-.29-.24h-.52s-.08,3.85-.08,3.85h0,0s.26.21.26.21l.5.02s.03-1.4.04-1.99l.62,1.79h0l.25.21h.47s.07-3.89.07-3.89l-.2-.16h0Zm1.36.05l-.19,3.85.23.21,1.61.08.03-.59-.2-.18-.89-.04.05-.93.96.05.03-.55-.2-.18-.76-.04c.01-.2.05-.94.05-.94l1.09.05.03-.54-.19-.18-1.65-.08Z"/>
  <path class="cls-8" d="m54.88,44.43c.1-.55.56-.89,1.09-.79.27.05.52.22.65.47.11.2.13.39.09.66l-.35,1.94c-.06.33-.19.53-.44.68-.19.12-.43.16-.65.12-.35-.06-.64-.33-.73-.66-.04-.15-.05-.27,0-.48l.35-1.93Zm1.29.23c.02-.14.02-.2-.02-.28-.06-.11-.16-.19-.27-.21-.13-.02-.28.03-.36.13-.05.06-.07.11-.09.22l-.35,1.94c-.03.17-.02.25.07.35.06.08.14.13.23.14.12.02.27-.03.36-.14.04-.05.07-.1.09-.22l.35-1.94Z"/>
  <g class="cls-14">
    <g class="cls-20">
      <polygon class="cls-8" points="52.72 46.96 52.25 46.88 52.16 42.94 52.73 43.04 52.7 45.76 53.62 43.2 54.19 43.31 52.72 46.96"/>
    </g>
  </g>
  <g class="cls-14">
    <g class="cls-18">
      <rect class="cls-8" x="48.6" y="44.4" width="3.86" height=".55" transform="translate(-.38 88.91) rotate(-82.48)"/>
    </g>
  </g>
  <path class="cls-8" d="m47.81,46.31l-.55-.05.38-3.84.9.09c.22.02.45.14.59.32.13.16.22.42.2.58l-.05.56c-.03.31-.12.5-.32.66-.21.17-.41.23-.72.2l-.28-.03-.15,1.51Zm.49-2c.16.02.24,0,.33-.08.1-.08.12-.12.14-.31l.05-.5c.02-.22-.12-.38-.35-.41l-.33-.03-.13,1.3.29.03Z"/>
  <path class="cls-8" d="m43.59,45.45l1.09.05-.03.55-1.65-.08.19-3.85,1.65.08-.02.51-1.09-.05-.06,1.14.96.05-.02.52-.96-.05-.05,1.13Zm.6-3.56l-.42-.02.48-.71.53.03-.58.7Z"/>
  <g class="cls-14">
    <g class="cls-13">
      <polygon class="cls-8" points="41.77 45.93 41.25 45.92 40.44 43.56 40.39 45.91 39.84 45.9 39.92 42.04 40.44 42.05 41.25 44.4 41.29 42.07 41.84 42.08 41.77 45.93"/>
    </g>
  </g>
  <path class="cls-8" d="m38.8,44.81v.13c.01.28-.02.4-.1.56-.15.27-.45.45-.76.46-.3,0-.62-.16-.78-.41-.1-.16-.14-.3-.14-.56l-.05-1.99c0-.31.08-.53.29-.72.16-.15.37-.24.58-.24.5-.01.9.38.91.92v.2s-.54.01-.54.01v-.2c-.01-.24-.14-.38-.36-.37-.2,0-.34.16-.33.39l.05,1.99c0,.23.01.26.1.35.07.06.16.1.24.1.12,0,.24-.08.3-.18.03-.07.04-.09.03-.29v-.13s.55-.01.55-.01Zm-1.77-3.71h.51s.28.39.28.39l.26-.42h.52s-.54.71-.54.71h-.46s-.57-.69-.57-.69Z"/>
  <g class="cls-14">
    <g class="cls-21">
      <polygon class="cls-8" points="34.96 45.49 36.05 45.43 36.08 45.99 34.43 46.07 34.24 42.21 35.89 42.13 35.92 42.64 34.82 42.69 34.88 43.83 35.84 43.79 35.86 44.31 34.91 44.35 34.96 45.49"/>
    </g>
  </g>
  <g class="cls-14">
    <g class="cls-19">
      <polygon class="cls-8" points="32.88 46.17 32.32 46.21 32.07 42.87 31.43 42.92 31.39 42.41 33.24 42.27 33.28 42.78 32.63 42.83 32.88 46.17"/>
    </g>
  </g>
  <g class="cls-14">
    <g class="cls-22">
      <path class="cls-8" d="m30.76,45.43c.02.22,0,.35-.07.51-.14.29-.41.49-.72.52-.32.03-.65-.11-.83-.38-.09-.13-.14-.27-.16-.47l-.32-2.93.55-.06.32,2.93c.02.15.05.22.15.29.07.05.16.07.24.06.21-.02.33-.19.3-.42l-.32-2.93.55-.06.32,2.93Z"/>
    </g>
  </g>
  <g class="cls-14">
    <g class="cls-15">
      <polygon class="cls-8" points="28.24 46.62 27.67 46.72 26.77 45.12 26.56 45.74 26.75 46.87 26.21 46.96 25.56 43.16 26.11 43.07 26.41 44.82 26.93 42.93 27.47 42.84 26.98 44.48 28.24 46.62"/>
    </g>
  </g>
  <g class="cls-14">
    <g class="cls-17">
      <path class="cls-8" d="m23.64,46.35l.02.14c.02.14.04.18.09.24.09.11.23.15.38.13.14-.02.26-.12.3-.24.03-.07.03-.13,0-.28l-.05-.26c-.05-.3-.11-.34-.61-.44-.37-.07-.54-.15-.71-.33-.13-.15-.19-.26-.23-.51l-.03-.17c-.09-.54.24-1.02.75-1.11s.99.26,1.08.79l.03.17-.54.1-.03-.17c-.04-.25-.22-.38-.44-.35s-.34.23-.3.48l.03.17c.05.27.11.32.54.4.62.11.91.35.99.84l.05.31c.05.3.04.43-.07.65-.14.27-.38.44-.68.5-.56.1-1.02-.24-1.12-.81l-.02-.14.55-.1Z"/>
    </g>
  </g>
  <path class="cls-8" d="m41.93,8.33v5.75h4.01c.6-.02,1.18,0,1.72.03l.16,2.3v.02s.03.53.03.53l.03.04c.68.75,2.46,1.14,5.76,1.29,2.32.1,8.59.07,11.87-.28l.3-.03-.22-.21c-.07-.06-1.65-1.53-5.1-2.88,3.72-1.63,4.93-2.97,4.98-3.03l.23-.26-.34.03c-4.12.33-10.57.6-12.41.44-.51-.04-.94-.1-1.3-.17l-.12-2.4-.07-.04c-1.26-.7-3.22-1.1-5.53-1.11h-3.87s-.14,0-.14,0Z"/>
  <path class="cls-3" d="m41.93,8.33v5.75h4.01c.6-.02,1.18,0,1.72.03l.16,2.3v.02s.03.53.03.53l.03.04c.68.75,2.46,1.14,5.76,1.29,2.32.1,8.59.07,11.87-.27l.3-.03-.22-.21c-.07-.06-1.65-1.53-5.1-2.88,3.72-1.63,4.93-2.97,4.98-3.03l.23-.26-.34.03c-4.11.33-10.57.6-12.41.44-.51-.04-.94-.1-1.3-.17l-.12-2.4-.07-.04c-1.26-.7-3.22-1.1-5.53-1.11h-3.87s-.14,0-.14,0Zm9.82,6.9l.06-.04v-.07s0,0,0,0l-.12-2.49c.35.06.74.11,1.2.15,1.7.15,6.71-.05,10.65-.31-.99.65-2.21,1.29-3.63,1.89l-1.32.56,1.35.51c1.86.7,3.19,1.46,4.01,1.99-3.35.22-8.2.24-10.25.15-1.43-.06-2.53-.17-3.38-.33-1.01-.19-1.5-.42-1.73-.6.34-.19.76-.33,1.19-.47.66-.22,1.4-.47,2-.93m-3.56,1.66c.09-.08.19-.15.29-.21.33.26.94.47,1.8.63.85.16,1.96.27,3.39.33,2.08.09,7.03.08,10.39-.15h.12s-.1-.08-.1-.08c-.81-.54-2.18-1.33-4.13-2.07,0,0-.98-.37-1.15-.43.16-.07,1.13-.48,1.13-.48,1.49-.63,2.76-1.3,3.78-1.98l.13-.09h-.16c-3.95.27-9.08.48-10.8.33-.46-.04-.86-.09-1.21-.15l-.02-.36c.36.07.77.12,1.26.16,1.98.17,8.29-.12,12.07-.41-.55.49-2,1.59-4.92,2.83l-.32.14.33.12c2.84,1.07,4.49,2.26,5.08,2.74-3.34.32-9.26.34-11.5.24-1.93-.08-4.56-.29-5.47-1.1m-.25-2.77c.09,0,.17.01.25.02l.14,2.01.06-.03c.37-.2.8-.36,1.19-.5l.4-.14c.43-.15.88-.3,1.26-.55h0c.08.05.16.1.22.16-.54.38-1.18.59-1.79.8-.59.2-1.15.38-1.56.7-.02-.23-.09-1.33-.17-2.48m2.01,1.29l-.4.14c-.37.13-.78.28-1.14.47,0-.05-.06-.91-.13-1.87,1.25.12,2.27.38,2.88.74-.37.24-.8.38-1.21.52m-7.73-6.8c.69,0,3.73,0,3.73,0,2.22.01,4.1.38,5.32,1.04,0,.15.22,4.56.25,5.14-.42-.3-1.07-.55-1.91-.73-1.03-.21-2.29-.31-3.66-.27h-3.73v-5.18Zm3.73.36h-3.33s-.04,0-.04,0v4.47h3.38c2.15-.06,3.97.19,5.12.7l.06.03-.21-4.29h-.02c-1.17-.58-2.93-.9-4.96-.91m0,.08c2,.01,3.74.33,4.9.88,0,.05.19,3.97.2,4.1-1.17-.49-2.97-.74-5.09-.68h-3.29v-4.3c.08,0,3.21,0,3.21,0h.08Z"/>
  <path class="cls-3" d="m63.22,12.48c-3.89.25-8.7.43-10.34.29-.4-.04-.77-.08-1.1-.13l-.1-.02.12,2.49h0s0,.03,0,.03v.05s-.05.04-.05.04c-.61.47-1.35.72-2,.93-.37.12-.74.25-1.06.41l-.13.07.12.08c.35.21.89.38,1.62.52.85.16,1.95.27,3.38.33,1.89.08,6.55.08,10.01-.13l.25-.02-.21-.13c-.77-.48-2.05-1.19-3.8-1.86l-1.35-.51,1.32-.56c1.28-.55,2.42-1.12,3.37-1.72l.27-.17-.31.02Z"/>
  <path class="cls-3" d="m49.94,15.41l-.4.14c-.37.13-.78.28-1.14.47,0-.05-.06-.91-.13-1.87,1.25.12,2.27.38,2.88.74-.37.24-.8.38-1.21.52"/>
  <path class="cls-3" d="m45.94,9.06c2,.01,3.74.33,4.9.88,0,.05.19,3.97.2,4.1-1.17-.49-2.97-.74-5.09-.68h-3.29v-4.3c.08,0,3.21,0,3.21,0h.08Z"/>
  <path class="cls-8" d="m48.72,16.64c.26.15.73.35,1.59.51.84.16,1.95.27,3.37.33,1.98.09,6.67.08,10-.13-.81-.51-2.07-1.2-3.79-1.85l-1.35-.51s-.05-.04-.05-.07h0s.02-.06.05-.07l1.33-.56c1.29-.55,2.41-1.12,3.36-1.72-3.86.25-8.7.43-10.35.29-.41-.04-.78-.08-1.11-.13l-.08-.02.12,2.41h0s0,.03,0,.03v.04s-.05.04-.05.04c-.61.47-1.35.71-2,.93-.37.12-.74.25-1.06.41l-.05.02.08.05Z"/>
  <path class="cls-8" d="m48.48,15.89c.34-.17.73-.31,1.04-.42,0,0,.4-.14.4-.14.37-.12.82-.29,1.15-.48-.59-.32-1.57-.58-2.71-.69.01.16.1,1.53.12,1.73"/>
  <path class="cls-8" d="m42.73,13.28h3.21c2.06-.05,3.83.18,5.01.64,0-.02-.19-3.83-.19-3.93-1.15-.54-2.86-.85-4.82-.86,0,0-2.71,0-3.21,0v4.14Z"/>
  <path class="cls-8" d="m36.91,8.33h-3.87c-2.31.01-4.27.41-5.53,1.11l-.07.04-.12,2.4c-.36.07-.78.13-1.29.17-1.84.16-8.3-.11-12.41-.44l-.34-.03.23.26c.05.06,1.26,1.41,4.98,3.03-3.45,1.35-5.03,2.82-5.1,2.88l-.22.21.3.03c3.27.35,9.54.38,11.87.28,3.31-.14,5.09-.54,5.76-1.29l.03-.04.04-.53v-.02s.15-2.3.15-2.3c.54-.03,1.12-.04,1.72-.03h4.01v-5.75h-.14Z"/>
  <path class="cls-3" d="m36.91,8.33h-3.87c-2.31.01-4.27.41-5.53,1.11l-.07.04-.12,2.4c-.36.07-.78.13-1.3.17-1.84.16-8.3-.11-12.41-.44l-.34-.03.23.26c.05.06,1.26,1.4,4.98,3.03-3.45,1.35-5.03,2.82-5.1,2.88l-.22.21.3.03c3.28.35,9.55.38,11.87.27,3.31-.14,5.09-.54,5.77-1.29l.03-.04.04-.53v-.02s.15-2.3.15-2.3c.54-.03,1.12-.04,1.72-.03h4.01v-5.75h-.14Zm-7.68,7.83c.43.14.85.28,1.19.47-.23.17-.72.41-1.73.6-.85.16-1.95.27-3.38.33-2.05.09-6.9.08-10.25-.15.82-.53,2.15-1.29,4.01-1.99l1.35-.51-1.32-.56c-1.42-.6-2.64-1.24-3.63-1.89,3.93.26,8.95.45,10.65.31.46-.04.85-.09,1.2-.15l-.12,2.49h0s0,.07,0,.07l.06.04c.61.47,1.35.71,2,.93m-3.91,1.83c-2.24.1-8.16.08-11.5-.24.59-.47,2.24-1.67,5.08-2.74l.33-.12-.32-.14c-2.91-1.24-4.36-2.34-4.92-2.83,3.78.29,10.09.58,12.07.41.49-.04.9-.1,1.26-.16l-.02.36c-.35.06-.75.11-1.21.15-1.72.15-6.84-.05-10.8-.32h-.16s.13.08.13.08c1.02.68,2.29,1.35,3.78,1.98,0,0,.97.41,1.13.48-.17.06-1.15.43-1.15.43-1.95.74-3.32,1.53-4.13,2.07l-.1.07h.12c3.35.24,8.31.25,10.39.16,1.43-.06,2.54-.17,3.39-.33.86-.16,1.46-.37,1.8-.63.11.06.21.13.29.21-.91.81-3.54,1.02-5.47,1.1m5.56-1.39c-.41-.32-.97-.51-1.56-.7-.61-.21-1.25-.42-1.79-.8.06-.06.14-.11.22-.16h0c.38.26.83.4,1.26.55l.4.14c.38.14.82.3,1.19.5l.06.03.14-2.01c.08,0,.17-.01.25-.02-.08,1.15-.16,2.26-.17,2.48m-3.05-1.71c.61-.36,1.62-.62,2.88-.74-.07.96-.12,1.82-.13,1.87-.36-.19-.78-.34-1.14-.47l-.4-.14c-.42-.14-.85-.29-1.21-.52m8.94-1.1h-3.73c-1.37-.04-2.63.06-3.66.27-.84.18-1.49.42-1.91.73.03-.58.24-4.99.25-5.14,1.22-.66,3.1-1.03,5.32-1.04,0,0,3.04,0,3.73,0v5.18Zm-8.68-3.92h-.02s-.21,4.3-.21,4.3l.06-.03c1.16-.51,2.98-.76,5.12-.7h3.37v-4.47h-3.37c-2.03.01-3.79.33-4.96.9m5.04-.82s3.12,0,3.21,0v4.3h-3.29c-2.12-.05-3.93.19-5.1.68,0-.13.2-4.05.2-4.1,1.16-.56,2.9-.87,4.9-.88h.08Z"/>
  <path class="cls-3" d="m29.24,16.16c.43.15.85.28,1.19.47-.23.17-.72.41-1.73.6-.85.16-1.95.27-3.38.33-2.05.09-6.9.08-10.25-.15.82-.53,2.15-1.29,4.01-1.99l1.35-.51-1.32-.56c-1.42-.6-2.64-1.24-3.63-1.89,3.93.26,8.95.45,10.65.31h0c.46-.04.85-.09,1.2-.15l-.12,2.49h0s0,.07,0,.07l.06.04c.61.47,1.35.72,2,.93"/>
  <path class="cls-3" d="m29.05,15.41l.4.14c.37.13.78.28,1.14.47,0-.05.06-.91.13-1.87-1.25.12-2.27.38-2.88.74.37.24.8.38,1.21.52"/>
  <path class="cls-3" d="m33.13,9.05s3.12,0,3.21,0v4.3h-3.29c-2.12-.05-3.93.19-5.1.68,0-.13.2-4.05.2-4.1,1.16-.56,2.9-.87,4.9-.88h.08Z"/>
  <path class="cls-8" d="m30.27,16.64c-.26.15-.73.35-1.59.51-.84.16-1.95.27-3.37.33-1.98.09-6.67.08-10-.13.81-.51,2.07-1.2,3.79-1.85l1.35-.51s.05-.04.05-.07h0s-.02-.06-.05-.07l-1.33-.56c-1.29-.55-2.41-1.12-3.36-1.72,3.86.25,8.7.43,10.35.29.41-.04.78-.08,1.11-.13l.08-.02-.12,2.41h0s0,.03,0,.03v.04s.05.04.05.04c.61.47,1.35.71,2,.93.37.12.74.25,1.06.41l.05.02-.08.05Z"/>
  <path class="cls-8" d="m30.51,15.89c-.35-.17-.73-.31-1.04-.42,0,0-.4-.14-.4-.14-.37-.12-.82-.29-1.15-.48.59-.32,1.57-.58,2.71-.69-.01.16-.1,1.53-.11,1.73"/>
  <path class="cls-8" d="m36.25,13.27h-3.21c-2.06-.05-3.83.18-5.01.64,0-.02.19-3.83.19-3.93,1.15-.54,2.86-.85,4.82-.86,0,0,2.71,0,3.21,0v4.14Z"/>
  <path class="cls-3" d="m57.74,13.4c-.38.02-.71.03-1.02.03s-.64,0-1.01-.03h-.01s-.08,0-.08,0v.07c.01.33.01.75,0,1.02v.05s.23,0,.23,0l.02-.2.02-.12s0-.06,0-.06c.02-.22.02-.24.23-.25h1.15c-.05.11-.17.36-.25.54-.09.17-.25.45-.25.45,0,0-.64,1.16-.64,1.16-.09.16-.41.82-.41.82h.03c.16.03.39.03.52.03h.02s.01-.04.01-.04c.31-.9.79-1.91,1.26-2.83l.23-.44h0v-.21h-.05Z"/>
  <path class="cls-3" d="m52.93,14.6c0,.63.34,1.04.88,1.04.31,0,.47-.15.66-.33,0,0,.01-.01.02-.02-.09.75-.6,1.32-1.34,1.5l-.09.02.08.08.16.12h.02c.57-.17,1.01-.46,1.3-.87.27-.38.41-.84.41-1.37,0-.84-.41-1.38-1.04-1.38s-1.06.5-1.06,1.2m1.04-.94c.41,0,.55.48.55.89,0,.34-.19.69-.55.69-.39,0-.56-.4-.56-.8,0-.35.1-.78.56-.79"/>
  <path class="cls-3" d="m23.51,14.29c0,.35.19.57.48.78-.36.18-.59.53-.59.91,0,.56.39.95.96.95.61,0,1.13-.53,1.13-1.17,0-.49-.3-.7-.65-.88.26-.2.52-.43.52-.79,0-.57-.46-.77-.86-.77-.58,0-.99.4-.99.96m.85.36h0c-.15-.08-.41-.26-.41-.54,0-.33.19-.53.51-.53s.5.22.5.57c0,.25-.12.45-.37.62-.04-.02-.23-.12-.23-.12m-.53,1.33c0-.35.13-.59.43-.78.11.04.24.11.34.17.26.15.44.29.44.61,0,.34-.23.69-.59.69-.39,0-.62-.26-.62-.69"/>
  <path class="cls-3" d="m22.52,13.38h-.1l-.59.23s-.45.18-.45.18c0,0-.04.02-.04.02h-.03s.05.35.05.35l.08-.03s.55-.27.6-.29h0s0,.04,0,.05v.05s0,2.31,0,2.31v.07c0,.09,0,.17-.03.25-.02.06-.18.07-.36.08h-.05v.25h.05c.23-.02.43-.03.62-.03s.4,0,.63.02h.05s0-.24,0-.24h-.05c-.18-.02-.34-.03-.36-.09-.03-.08-.03-.18-.03-.28v-.03c0-2.21.03-2.6.05-2.81v-.05s-.05,0-.05,0Z"/>
  <path class="cls-8" d="m32.13,14.35c.2-.41,1.1-1.11,1.85-1.46.03.29.27,2.57.28,2.74-.18-.25-1.55-.69-2.14-1.28m11.48,3.77h-.04l-.02.02c-.5.77-1.6,1.36-2.48,1.19h-.03s-.02,0-.02,0c-.48.42-.83.56-1.52.7-.69-.14-1.03-.29-1.52-.7h-.02s-.03,0-.03,0c-.88.16-1.99-.42-2.49-1.19l-.02-.02h-.03c-.85-.02-1.38-.26-1.79-.88.03-.05.19-.28.19-.28.19-.3.44-.62.56-1,0,0,.03-.15.02-.33,0-.1-.24-2.27-.29-2.78.24-.16.38-.36.4-.59,0-.05,0-.14-.03-.25-.05-.25-.29-1.38-.29-1.38.53.04.85-.17,1.2-.38l-.63-1.64c.07,0,.15-.03.23-.06,1.6.59,3.18.34,4.54-.83,1.36,1.17,2.93,1.42,4.54.83.08.03.16.05.23.06l-.63,1.64c.35.21.67.42,1.2.38,0,0-.24,1.13-.29,1.38-.02.12-.04.2-.03.25.03.23.17.43.41.59-.05.51-.28,2.68-.29,2.78-.01.18.02.32.02.33.12.38.36.69.56,1,0,0,.16.23.19.28-.4.62-.93.86-1.79.88m1.13-2.48c.02-.17.26-2.46.28-2.74.76.34,1.66,1.04,1.85,1.46-.59.6-1.96,1.04-2.14,1.28"/>
  <path class="cls-11" d="m33.84,12.8c-.65.3-1.49.89-1.83,1.45-.22-.15-.11-.81-.01-1.35.1-.11.22-.22.35-.33.1-.08.21-.16.32-.24.14-.1.28-.19.43-.28.11-.06.22-.12.33-.18.16-.08.31-.15.47-.21.33.3.74.77-.06,1.14m-1.93-1.56s.25-.3.25-.56c0,0,0-.02,0-.03h0s-.01-.13-.09-.24c-.02-.03-.04-.05-.07-.08.02-.04.04-.07.05-.1.09-.18.15-.34.15-.49,0-.04,0-.08-.02-.12,0-.03-.02-.07-.03-.1,0-.03-.02-.06-.03-.08-.03-.09-.06-.18-.06-.25,0,0,0,0,0,0,0-.04.01-.07.02-.1.04-.08.12-.12.25-.19.1-.05.21-.1.31-.19.01,0,.02-.02.03-.03.02-.01.03-.03.05-.05.08-.08.11-.19.15-.29,0-.02.01-.04.02-.06.04-.11.09-.21.18-.28,0,0,.01,0,.02-.01.05-.03.12-.08.23-.13.02,0,.05-.02.07-.03.08-.04.18-.07.3-.1.02,0,.04-.01.06-.01.07-.01.13-.03.21-.04.02,0,.04,0,.07,0,0,0,.01,0,.02,0,.09-.01.2-.02.3-.02h.07c.1,0,.34.02.52.04-.01-.02-.03-.04-.05-.06,0,0,0,0,0,0-.07-.07-.16-.13-.24-.17h-.02c-.06-.04-.12-.06-.16-.08h-.02s-.01,0-.02,0c-.06,0-.11,0-.16,0-.22,0-.41.03-.57.07-.01,0-.03,0-.04.01-.11.03-.21.06-.29.09-.02,0-.03.01-.05.02-.17.07-.29.14-.36.19-.21.14-.28.34-.33.49-.03.08-.05.15-.09.19-.09.09-.2.15-.31.2-.08.04-.15.08-.22.13-.03.02-.06.05-.09.08-.07.07-.11.17-.12.31,0,.05,0,.1.01.16.01.06.03.12.05.18,0,0,0,.02,0,.03.03.09.05.17.06.24,0,.09-.06.23-.13.37-.02.04-.04.08-.06.11-.04,0-.09,0-.12.02-.37.08-.49.48-.58.88-.04.17-.11.29-.21.39.07.01.14.01.21,0,.04,0,.07-.02.11-.03.02,0,.04-.02.07-.03l.11-.05.04-.02.04.09.03.06s.04.07.07.11c.02.02.03.04.05.06.05.05.1.1.17.14,0-.02,0-.04,0-.06,0-.22.06-.4.19-.55m2.19,4.4c-.13-.1-.5-.27-.69-.36l-.03.72c-.02.4-.03.8.14,1.15.23-.36.51-.71.66-1.06.1-.22.03-.37-.08-.45m.61-6.04c-.05.03-.12.05-.18.07-.1.03-.2.04-.31.03-.06,0-.12-.01-.18-.03,0,0,0,0,0,0-.11-.04-.23-.06-.34-.08-.07,0-.14-.01-.21-.02-.13,0-.25.02-.32.06l.02.73v.08s.06-.03.09-.04c.21-.07.54.02.84.06.48.07.83-.16,1.04-.27,0,0-.11-.32-.25-.73-.05.04-.12.08-.21.13m-.66.98c-.19-.04-.63-.12-.76-.06h0s-.09.08-.12.14c-.01.04-.02.09-.02.14,0,.01,0,.03,0,.04.02.11.1.2.19.28.04.04.09.07.13.1.07.04.25.15.43.3.16.13.32.28.42.46l-.28-1.32-.02-.08Zm-2.34-2.26c-.12.26-.1.57,0,.79.02-.19.1-.32.21-.41,0-.09.02-.18.06-.27.05-.12.11-.21.18-.29-.08-.02-.19-.06-.28-.1-.06.08-.11.17-.16.28m12.29-.54s0,.05,0,.06c0,0,0,.03.01.05.01.04.04.08.07.11.05.04.12.1.37.12l.06-.14.08-.21v-.03h-.02c-.11,0-.39.02-.57.04m.14-.4c-.06-.01-.1-.01-.15-.04,0,0-.03-.01-.04-.01-.01,0-.03-.01-.04-.02-.01,0-.02,0-.03-.01,0,0,0,0-.01.01,0,0,0,0,0,0-.01.01-.03.02-.04.04,0,0,0,0-.01.01-.08.09-.14.18-.17.28-.01.03-.02.06-.02.1,0,.02,0,.05,0,.07,0,.01,0,.03,0,.04,0,.09.05.27.19.41.01,0,.02.02.03.03.06.05.12.09.19.12.02,0,.04.02.06.02,0,0,.02,0,.02,0,.01,0,.03,0,.04.01.03,0,.06.01.1.02.02,0,.03,0,.05,0,.02,0,.03,0,.05,0,.01,0,.03,0,.04,0,.06,0,.12,0,.19.01.02,0,.04,0,.06,0,.03,0,.07,0,.1,0,.11,0,.2,0,.29.02.04,0,.07,0,.11.01.12.01.22.03.31.06.03,0,.06.02.09.03.01,0,.03,0,.04.01h0c.19.07.33.16.42.27l.05.06c.1.13.23.3.39.42.01,0,.02.01.03.02.07.05.15.08.23.1,0,0,.02,0,.03,0,.01-.04.02-.08.04-.12.02-.06.04-.12.05-.17-.03,0-.06,0-.08,0-.11-.01-.25-.16-.36-.29-.01-.01-.02-.03-.04-.04-.03-.03-.05-.06-.07-.09l-.05-.06c-.12-.15-.31-.28-.55-.36-.01,0-.03,0-.04-.01,0,0-.01,0-.02,0-.04-.01-.07-.02-.11-.03-.09-.02-.19-.04-.31-.06-.02,0-.03,0-.05,0-.01,0-.03,0-.04,0-.09,0-.18-.02-.29-.02-.02,0-.05,0-.07,0-.05,0-.1,0-.15,0-.04,0-.08,0-.11,0-.01,0-.02,0-.04,0,0,0,0,0,0,0-.01,0-.02,0-.03,0-.24-.03-.33-.08-.4-.14-.01,0-.02-.02-.03-.03-.05-.06-.08-.14-.09-.18,0,0,0-.02,0-.02,0-.02,0-.03,0-.05,0-.03.01-.07.03-.1,0,0,.01-.02.02-.03.02-.03.05-.07.08-.11,0,0,0,0,.01-.01.05-.05.11-.1.17-.14-.03,0-.05,0-.07-.02m-5.19-.23c-.06-.07-.11-.13-.17-.2-.16.12-.34.23-.51.32-.63.33-1.31.49-1.89.53-.01,0-.02,0-.04,0h-.02c-.06,0-.11,0-.17,0-.21,0-.41-.01-.58-.04-.03,0-.07-.01-.1-.02,0,.01,0,.02,0,.04,0,.02,0,.04,0,.07,0,.01,0,.02,0,.03,0,0,0,0,0,0,0,0,0,.01,0,.02,0,0,0,0,0,.01,0,0,0,.01,0,.02,0,0,0,0,0,.01,0,0,0,.01,0,.02,0,0,0,0,0,.01,0,0,0,.01,0,.02,0,0,0,.01,0,.02,0,0,0,.01,0,.02,0,0,0,.01,0,.02,0,0,0,.01,0,.02,0,0,0,.01,0,.02,0,0,0,.01,0,.02,0,0,0,.01,0,.02,0,0,0,.01,0,.02,0,0,0,.01,0,.02,0,0,0,.01,0,.01,0,0,0,.01-.01.02,0,0,0,.01,0,.01,0,0,0,.01-.01.02,0,0,0,0-.01.01,0,0,0,.01-.01.02,0,0,0,0-.01.01,0,0,0,.01-.01.02,0,0,0,0,0,0-.01.02-.03.03-.04.05h0s-.03.03-.03.03c-.01,0-.02.02-.03.02-.01.01-.03.02-.04.03,0,0,0,0-.01,0-.02.01-.03.02-.04.03,0,0,0,0,0,0,1.22.43,2.29.29,3.11-.07.44-.19.85-.46,1.22-.77-.17-.15-.33-.3-.47-.46m-4.4.97h0s.03,0,.05,0h0s.08-.01.11-.02h0s.05-.01.08-.02c0,0,.02,0,.03-.01h0s.04-.02.05-.03h0s.03-.02.04-.03h0s.01-.01.02-.02c.04-.03.06-.08.07-.11,0-.02.01-.04.01-.05,0-.01,0-.03,0-.06-.17-.02-.46-.04-.57-.04h-.03v.03s.09.21.09.21l.06.14Zm.2.36s.07-.01.1-.02c.01,0,.03,0,.04-.01,0,0,.02,0,.02,0,0,0,0,0,0,0,.02,0,.04-.01.06-.02.08-.03.14-.07.19-.12.01,0,.02-.02.03-.03,0,0,0,0,0,0,0,0,.02-.02.03-.03,0,0,0,0,0,0,0-.01.02-.02.03-.03,0,0,0,0,0,0,0,0,.01-.01.02-.02,0,0,0,0,0,0,0,0,0-.01.01-.02,0,0,0,0,0-.01,0,0,0-.01.01-.02,0,0,0,0,0-.01,0,0,0-.01,0-.02,0,0,0,0,0-.01,0,0,0-.01,0-.02,0,0,0,0,0-.01,0,0,0-.01,0-.02,0,0,0,0,0-.01,0,0,0-.01,0-.02,0,0,0,0,0-.01,0,0,0-.01,0-.01,0,0,0,0,0-.01,0,0,0,0,0-.01,0,0,0,0,0-.01,0,0,0,0,0-.01,0,0,0,0,0-.01,0,0,0,0,0-.01,0,0,0,0,0-.01,0,0,0,0,0,0,0,0,0-.01,0-.02,0-.01,0-.03,0-.04,0-.03,0-.05,0-.08,0-.03-.01-.06-.02-.1-.03-.1-.09-.19-.17-.28,0,0,0,0-.01-.01-.01-.01-.03-.03-.04-.04,0,0,0,0,0,0t-.02-.02l-.04.02s-.03.01-.04.02c-.05.02-.12.04-.18.05-.02,0-.05.01-.07.02.06.04.12.08.17.14,0,0,0,0,.01.01.04.04.07.08.08.11,0,0,.01.02.02.03.02.04.03.07.03.1,0,.02,0,.04,0,.05,0,0,0,.01,0,.02,0,.05-.03.12-.09.18-.01.01-.02.02-.03.03-.07.06-.16.12-.4.14-.01,0-.02,0-.03,0h0s-.02,0-.04,0c-.04,0-.07,0-.11,0-.05,0-.1,0-.15,0-.03,0-.05,0-.07,0-.11,0-.2.01-.29.02-.03,0-.06,0-.09,0-.11.01-.22.03-.31.06-.04,0-.08.02-.11.03,0,0-.01,0-.02,0-.01,0-.03,0-.04.01-.24.09-.43.21-.55.36l-.05.06s-.04.06-.07.09c-.01.01-.02.03-.04.04-.11.13-.25.28-.36.29-.02,0-.05,0-.08,0,0,.05.03.11.05.17.01.04.03.08.04.12.01,0,.02,0,.03,0,.08-.01.16-.05.23-.1.01,0,.02-.02.03-.02.16-.12.29-.29.39-.42l.05-.06c.09-.11.23-.2.42-.27h0s0,0,0,0c.01,0,.03,0,.04-.01.03,0,.06-.02.09-.03.08-.02.17-.04.27-.05.01,0,.03,0,.04,0,.03,0,.07,0,.11-.01h0s.09,0,.14-.01c.05,0,.1,0,.15,0,.03,0,.07,0,.1,0,.02,0,.04,0,.06,0,.07,0,.13,0,.19-.01.01,0,.03,0,.04,0h0s.04,0,.05,0c.02,0,.04,0,.06,0m1.28-1.37c.12-.03.24-.07.31-.1.02-.04.04-.09.06-.13.05-.1.11-.22.11-.36,0-.28-.18-.45-.46-.45-.13,0-.26.01-.38.04,0,.11,0,.18,0,.29.12-.03.24-.05.37-.05s.18.04.18.17c0,.07-.03.14-.08.23-.05.09-.11.21-.13.36m9.06,4.42c.18-.15.36-.26.43-.3.05-.03.09-.06.13-.1.09-.08.17-.17.19-.28,0-.01,0-.02,0-.04,0-.05,0-.1-.02-.14-.02-.06-.07-.11-.12-.14h0c-.13-.07-.57.01-.76.05l-.02.08-.28,1.32c.1-.17.26-.33.42-.46m.51,3.75c-.18.08-.56.25-.69.36-.11.09-.18.23-.08.45.15.35.42.7.66,1.06.17-.35.16-.76.14-1.15l-.03-.72Zm-.72-4.81c.3-.04.63-.13.84-.06.03,0,.06.02.09.04v-.08s.03-.73.03-.73c-.08-.04-.19-.06-.32-.06-.07,0-.14,0-.21.01-.11.02-.23.04-.34.08,0,0,0,0,0,0-.06.02-.12.03-.18.03-.11,0-.21,0-.31-.04-.07-.02-.13-.04-.18-.07-.09-.04-.16-.09-.21-.13-.14.41-.25.73-.25.73.22.12.56.34,1.04.27m3.09.65c-.09-.4-.2-.79-.58-.88-.04,0-.08-.01-.12-.02-.02-.04-.04-.07-.06-.11-.07-.14-.13-.28-.13-.37,0-.07.03-.15.06-.24,0,0,0-.02,0-.03.02-.06.04-.12.05-.18.01-.05.02-.11.01-.16,0-.14-.05-.24-.12-.31-.03-.03-.06-.06-.09-.08-.07-.05-.15-.09-.22-.13-.11-.05-.22-.11-.31-.2-.04-.04-.06-.11-.09-.19-.05-.16-.12-.35-.33-.49-.07-.05-.19-.12-.36-.19-.02,0-.03-.01-.05-.02-.09-.03-.18-.06-.29-.09-.01,0-.03,0-.04-.01-.16-.04-.36-.07-.57-.07-.05,0-.11,0-.16,0,0,0-.01,0-.02,0s-.01,0-.02,0c-.04.01-.1.04-.16.07,0,0-.01,0-.02,0-.08.04-.17.1-.24.17,0,0,0,0,0,0-.02.02-.03.04-.05.06.18-.02.42-.03.52-.04.02,0,.04,0,.06,0h0c.11,0,.21,0,.3.02,0,0,.01,0,.02,0,.02,0,.04,0,.07,0,.07.01.14.02.21.04.02,0,.04,0,.06.01.11.03.21.06.29.1.03.01.05.02.07.03.1.05.18.1.23.13,0,0,.01,0,.02.01.1.08.15.18.18.28,0,.02.01.04.02.06.04.1.07.21.15.29.02.02.03.03.05.05.01,0,.02.02.03.03.1.08.21.14.31.19.13.07.21.11.25.19.01.03.02.06.03.1h0c0,.08-.03.17-.06.26,0,.03-.02.06-.03.08-.01.03-.02.07-.03.1,0,.04-.02.08-.02.12,0,.14.05.3.15.48.02.03.03.07.05.1-.03.02-.05.05-.07.08-.07.11-.09.24-.09.24h0v.03c0,.25.21.51.25.56.13.15.19.32.19.55,0,.02,0,.04,0,.06.06-.05.12-.09.17-.14.02-.02.04-.04.05-.06.03-.04.05-.08.07-.11l.03-.06.04-.09.04.02.11.05s.05.02.07.03c.04.01.08.02.11.03.07.01.14.01.21,0-.09-.1-.17-.22-.21-.39m-5.01-5.05c-.29,0-.45.16-.46.45,0,.15.06.26.11.36.02.04.05.09.06.13.07.03.19.07.31.1-.02-.15-.08-.27-.13-.36-.05-.09-.08-.15-.08-.23,0-.13.05-.17.18-.17s.25.02.37.05c0-.11,0-.18,0-.29-.12-.03-.25-.04-.38-.04m3.7,6.49c-.1-.08-.21-.16-.32-.24-.14-.1-.28-.19-.43-.28-.11-.06-.22-.12-.33-.18-.16-.08-.31-.15-.47-.21-.33.3-.74.77.06,1.14.65.3,1.49.89,1.83,1.45.22-.15.11-.81.01-1.35-.1-.11-.22-.22-.35-.33m.21-4.41c.07.08.13.17.18.29.04.08.05.18.06.27.1.09.19.22.21.41.09-.23.11-.53,0-.79-.05-.11-.1-.2-.16-.28-.02-.02-.04-.05-.06-.07-.1.04-.2.08-.29.1.02.02.05.05.07.07m-7.37-1.4c-.23,0-.47,0-.71.01.02.02.03.04.05.06.02.02.03.04.05.07.07.08.13.16.21.24.13.15.27.29.42.42,0,0,0,0,.01.01.02.02.04.04.06.05.36.31.77.58,1.22.77.82.36,1.89.5,3.11.07-.05-.03-.09-.06-.13-.09-.01,0-.02-.02-.03-.03-.14-.14-.22-.34-.22-.48,0-.02,0-.04,0-.07,0-.01,0-.02,0-.04-.03,0-.06.01-.1.02-.17.03-.37.04-.58.04-.05,0-.11,0-.17,0,0,0-.01,0-.02,0-.01,0-.02,0-.04,0-.58-.04-1.26-.19-1.89-.53-.17-.09-.34-.2-.51-.32-.03-.02-.05-.04-.08-.06,0,0,0,0,0,0-.05-.04-.1-.08-.16-.13,0,0,0,0,0,0-.16,0-.32,0-.48,0"/>
  <path class="cls-1" d="m36.99,6.88c.33-.03.97-.07,1.65-.1.02.02.03.04.03.04.02.03.04.05.07.08-.24.18-.5.33-.77.44-.52.23-1.05.34-1.52.38-.01,0-.02,0-.04,0-.06,0-.12,0-.17,0-.05,0-.1,0-.15,0-.07,0-.14,0-.21,0-.13,0-.25-.02-.36-.04-.02,0-.03,0-.05-.01-.03-.13-.09-.25-.2-.36.21-.01.43-.05.63-.09.02,0,.03,0,.04,0,.02,0,.05-.01.07-.02.1-.02.18-.05.26-.07.01,0,.02,0,.03-.01.03-.01.07-.02.1-.04,0,0,.02,0,.03-.01.21-.08.42-.17.48-.19.01,0,.03,0,.07,0m-3.29,2.72c.11.01.23.04.34.08,0,0,0,0,0,0,.06.02.12.03.18.03.11,0,.21,0,.31-.03.07-.02.13-.04.18-.07.09-.04.16-.09.21-.13-.09-.27-.2-.58-.29-.87,0,0,0,0,0,0-.01,0-.03,0-.04,0,0,0,0,0-.01,0-.01,0-.03,0-.04,0h-.02s-.02,0-.04,0c0,0-.01,0-.02,0-.02,0-.03,0-.05,0-.01,0-.02,0-.03,0-.04,0-.07,0-.11,0-.05,0-.1,0-.15,0h0s-.04,0-.07,0h0s-.05,0-.07,0c-.02,0-.03,0-.05,0,0,0,0,0,0,0-.02,0-.04,0-.05,0-.01,0-.02,0-.03,0,0,0-.01,0-.02,0,0,0-.02,0-.03,0,0,0-.01,0-.02,0,0,0-.02,0-.03,0,0,0,0,0-.01,0-.02,0-.04,0-.06.01,0,0,0,0-.01,0,0,0-.02,0-.03,0,0,0,0,0-.01,0,0,0-.02,0-.03,0,0,0,0,0-.01,0,0,0-.02,0-.03,0-.03,0-.05.01-.07.02-.02,0-.04.01-.06.02-.11.04-.21.1-.28.15l.02.74c.08-.04.19-.06.32-.06.07,0,.14,0,.21.02m-1.86-1.66h0s.03.02.05.03c0,0,0,0,0,0,.01,0,.02.01.03.02.1.04.2.08.29.1.02,0,.04,0,.06.01.02,0,.04,0,.06,0,.02,0,.04,0,.06,0,0,0,0,0,0,0,.02,0,.03,0,.05,0,0,0,.01,0,.02,0,.01,0,.02,0,.04,0,.02,0,.04,0,.06,0,.05-.15.14-.33.34-.46.08-.05.21-.14.41-.21.02,0,.03-.01.04-.02.09-.03.18-.06.29-.09.01,0,.03,0,.04,0,.09-.02.18-.04.28-.05h0s.02,0,.02,0c.02,0,.03,0,.04,0h0s.07,0,.1,0c.16,0,.27,0,.36,0,.04,0,.07,0,.1,0,.01,0,.03,0,.04,0h0s.1.01.16,0c.04,0,.08,0,.11-.02.04,0,.08-.02.12-.04.01,0,.02-.01.03-.02h0s.03-.02.04-.02c0,0,.01,0,.02,0,.03-.02.06-.04.08-.05.02-.01.03-.02.04-.03,0,0,0,0,.01-.01,0,0,.02-.01.03-.02,0,0,0,0,.01-.01,0,0,.02-.01.02-.02l.02-.02s.01-.01.02-.02c0,0,.01-.01.02-.02,0,0,.01-.01.02-.02,0,0,.01-.01.02-.02,0,0,0-.01.01-.02,0,0,0-.01.01-.02,0,0,0-.01.01-.02,0,0,0-.01.01-.02,0,0,0,0,0-.01,0,0,0-.02.01-.02h0s0-.03.01-.04c0,0,0,0,0,0,.03-.07.06-.15.07-.23,0-.02,0-.04,0-.06,0-.02,0-.04,0-.07,0-.1,0-.2,0-.29,0,0,0-.02,0-.03,0-.02,0-.07,0-.09,0-.04,0-.07-.01-.11-.16-.21-.72-.35-1.09-.24-.11.03-.21.09-.27.17-.07-.06-.15-.11-.22-.15-.31-.16-.62-.18-.62-.18,0,0-.3.1-.49.27-.03.02-.05.05-.07.07-.11-.01-.23-.02-.33,0-.31.03-.59.17-.77.42-.01.26.02.42.08.54.02.05.05.09.08.13-.06.04-.11.08-.15.12-.13.13-.2.25-.22.37.03.14.15.35.34.49m.52,4.64c.1-.08.21-.16.32-.24.14-.1.28-.19.43-.28.11-.06.22-.12.33-.18.16-.08.31-.15.47-.21-.04-.04-.09-.08-.14-.11-.11-.08-.25-.16-.39-.26-.08-.06-.16-.12-.22-.2-.07-.09-.11-.19-.11-.32h0s.1-1.87.1-1.87c-.03.02-.05.05-.07.07l-.05.06c-.12.16-.29.38-.5.49,0,.02,0,.05-.01.07-.02.35-.52,3.29-.52,3.29.1-.11.22-.22.35-.33m1.74-4.81s-.02,0-.03,0c-.1.01-.19.03-.28.05-.02,0-.04.01-.06.02-.11.03-.21.06-.29.1-.03.01-.05.02-.08.04-.08.04-.14.08-.18.1-.07.05-.11.12-.15.19-.01.03-.03.07-.04.11,0,.03-.02.06-.03.09.1-.06.21-.12.34-.17h.04s.03-.02.05-.03c.02,0,.03-.01.05-.01h0s.03-.01.05-.01c.02,0,.04,0,.07-.01,0,0,0,0,.01,0,.02,0,.04,0,.06-.01,0,0,0,0,.01,0,.05,0,.1-.02.16-.02h0s.06,0,.09,0c.02,0,.04,0,.07,0h0s.04,0,.07,0h0s.05,0,.07,0h0s.05,0,.07,0c0,0,0,0,.01,0,.02,0,.04,0,.05,0,.06,0,.11,0,.18,0,.01,0,.03,0,.04,0h0s.03,0,.04,0c-.02-.05-.03-.1-.04-.14-.03-.11-.05-.2-.06-.25-.1,0-.2,0-.29.01m11.8,4.3c.15.09.29.18.43.28.11.08.22.16.32.24.13.11.25.22.35.33,0,0-.49-2.94-.52-3.29,0-.02-.01-.05-.02-.07-.21-.12-.37-.34-.49-.49l-.05-.06s-.04-.05-.07-.07l.1,1.87h0c0,.12-.04.23-.11.31-.06.08-.14.14-.22.2-.13.1-.28.18-.39.26-.05.04-.1.07-.14.11.15.06.31.13.46.21.11.06.22.12.33.18m-3.9-5.18c-.37-.04-1.14-.08-1.89-.1.29.24.61.43.93.57.52.23,1.05.35,1.52.38.01,0,.02,0,.04,0,.06,0,.12,0,.17,0,.05,0,.1,0,.15,0,.07,0,.14,0,.21,0,.13,0,.25-.02.36-.04.02,0,.03,0,.05-.01.03-.13.09-.24.2-.36-.21-.01-.43-.05-.63-.09-.02,0-.03,0-.04,0-.01,0-.03,0-.04,0,0,0-.02,0-.03,0-.1-.02-.18-.05-.26-.07-.01,0-.02,0-.03-.01-.02,0-.04-.01-.06-.02-.01,0-.03,0-.04-.01,0,0-.02,0-.03-.01-.25-.09-.5-.2-.5-.2h0s-.03.01-.08,0m2.48,2.79c.09.03.2.04.31.03.06,0,.12-.01.18-.03,0,0,0,0,0,0,.11-.04.23-.06.34-.08.07-.01.14-.02.21-.02.13,0,.25.02.32.06l.02-.74c-.07-.06-.16-.11-.28-.15-.02,0-.04-.02-.06-.02-.02,0-.05-.02-.07-.02-.09-.02-.19-.04-.31-.06-.03,0-.07,0-.11-.01-.09,0-.19-.01-.29-.02-.04,0-.07,0-.11,0-.01,0-.02,0-.03,0-.08,0-.15,0-.22-.01-.09.29-.2.6-.29.87.05.04.12.09.21.13.05.03.12.05.18.07m-1.06-3.17s0,.04,0,.06c.04.21.14.41.37.57.02.02.05.03.08.05,0,0,0,0,.01,0,.02.01.05.03.08.04,0,0,0,0,0,0,.04.01.08.03.09.03.04,0,.09.02.13.02.06,0,.11,0,.16,0h0s0,0,0,0c.01,0,.03,0,.04,0,.03,0,.06,0,.1,0,.08,0,.19,0,.36,0,.03,0,.07,0,.1,0,0,0,0,0,0,0,.01,0,.03,0,.04,0,0,0,.02,0,.03,0,.1.01.19.03.28.05.01,0,.03,0,.04,0,.11.03.21.06.29.09.02,0,.03.01.04.02.2.08.33.16.41.21.2.14.29.32.34.46.07,0,.15-.01.23-.02.02,0,.04,0,.05-.01.02,0,.04,0,.06-.01.09-.02.19-.06.29-.1.01,0,.02-.01.03-.02,0,0,0,0,0,0,.02-.01.03-.02.05-.03,0,0,0,0,0,0,.19-.14.31-.35.35-.49-.02-.12-.08-.25-.22-.37-.04-.04-.09-.08-.15-.12.03-.04.06-.08.08-.13.06-.12.09-.28.08-.54-.18-.25-.46-.39-.76-.42-.11-.01-.22,0-.33,0-.02-.02-.04-.05-.07-.07-.19-.17-.5-.27-.5-.27,0,0-.3.02-.6.17-.08.04-.17.1-.25.16-.06-.08-.15-.14-.27-.17-.37-.1-.93.04-1.09.24,0,.04-.01.07-.01.11,0,0,0,.01,0,.02,0,.02,0,.04,0,.07,0,0,0,.02,0,.03,0,.1-.01.2,0,.3,0,.02,0,.04,0,.07m2.64,1.95s-.02-.06-.03-.09c-.01-.04-.03-.08-.04-.11-.03-.08-.07-.14-.14-.19-.04-.03-.1-.06-.18-.1-.02-.01-.05-.02-.08-.04-.08-.04-.18-.07-.29-.1-.02,0-.04,0-.06-.01-.08-.02-.18-.04-.28-.05-.01,0-.02,0-.03,0-.09,0-.18-.01-.29-.01-.01.05-.03.14-.06.25-.01.04-.03.09-.04.14.03,0,.05,0,.08,0,.06,0,.11,0,.16,0h.01s.04,0,.07,0c.02,0,.03,0,.05,0,.09,0,.17.01.24.02.03,0,.06,0,.09.01.11.01.21.03.31.05.03,0,.07.02.1.03.02,0,.03,0,.05.01h.04s0,.01,0,.01c.13.05.24.1.34.17"/>
  <path class="cls-8" d="m45.32,7.35s.03,0,.04,0l.12-.7-.16.69Zm-12,.11s.03-.01.05-.02l-.1-.62.05.64Zm12.34-.02s.03.01.05.02l.05-.64-.1.62Zm-12-.09s.03,0,.04,0l-.16-.7.12.7Zm12.47,1.98l.21,3c.11.08.22.16.32.24l-.53-3.24Zm-.6-1.1s.07.02.1.03v-.07s.03-.23.03-.23c-.03-.01-.05-.02-.08-.04l-.04.25v.06Zm-11.47,1.44c.06.02.12.03.18.03l-.24-1.07s-.03,0-.05,0h0s-.04,0-.05,0l.17,1.02s0,0,0,0m11.08-1.5s.06,0,.09,0v-.06s.06-.3.06-.3c-.02,0-.04-.01-.06-.02l-.07.3-.02.07Zm-11.27-.07l-.07-.3s-.04.01-.06.01l.05.3v.06s.07,0,.09-.01v-.06Zm-.16,1.49l-.14-.89s-.05.02-.07.02c-.02,0-.04.01-.06.02l.07.83c.07,0,.14,0,.21.01m11.08-1.45s.04,0,.07,0l.02-.1.07-.29s-.02,0-.03,0l-.09.29-.03.1Zm-10.07,1.46l-.33-.98s-.07,0-.11,0l.25,1.05c.07-.02.13-.04.18-.07m10.24.07s0,0,0,0l.17-1.02s-.07,0-.11-.01l-.24,1.07c.06,0,.12-.01.18-.03m.55-.09l.07-.83s-.04-.02-.06-.02c-.02,0-.05-.02-.07-.02l-.14.89c.07-.01.14-.02.21-.02m-12.07,2.29l-.06-.58c-.08-.06-.16-.12-.22-.2l-.05.96c.11-.06.22-.12.33-.18m12.46.18l-.05-.96c-.06.08-.14.14-.22.2l-.06.58c.11.06.22.12.33.18m-1.42-2.38l.25-1.05s-.07,0-.11,0l-.33.98c.05.03.12.05.18.07m-10.28-1.63l-.1-.29s-.02,0-.03,0l.07.29.02.1h.01s.04,0,.05,0l-.03-.1Zm-1.84,4.53c.1-.08.21-.16.32-.24l.21-3-.53,3.24Zm1.12-4.4l-.04-.25s-.05.02-.08.04l.02.23v.07s.04-.01.06-.02h0s.03,0,.05-.01v-.06Z"/>
  <path class="cls-11" d="m34.1,6.8s.23-.38.22-.58c0-.16-.04-.27-.13-.36-.05-.05-.13-.11-.21-.16l-.03-.02c.07-.17.32-.16.41-.11.05.03.08.06.12.1.28.32-.03.88-.38,1.12m-1.83.37c-.17-.04-.24-.09-.33-.17-.06-.05-.12-.13-.16-.19-.12.02-.13.18-.07.26.28.37.86.2,1.02.03,0,0-.27.1-.46.06m.4-.77c-.04-.24.05-.44.21-.61h0s-.22-.16-.37.02c-.01.02-.02.03-.04.05-.27.41.29.98.45,1.01,0,0-.22-.24-.25-.47m14.57.41h0c-.03.05-.09.13-.15.19-.09.08-.16.13-.33.17-.19.04-.46-.06-.46-.06.16.17.74.33,1.02-.03h0c.06-.08.05-.23-.07-.26m-2.19-1.13s0,0,.01,0c-.07-.17-.32-.16-.41-.1-.05.03-.08.06-.12.1-.28.32.03.88.38,1.12,0,0-.23-.38-.23-.58,0-.16.04-.27.13-.36.05-.06.15-.13.23-.17m1.5.17s-.02-.03-.04-.05c-.15-.18-.34-.04-.37-.02.16.17.24.37.21.61-.03.22-.26.47-.26.47.16-.03.72-.6.45-1.01"/>
  <path class="cls-3" d="m42.57,7.08s.02,0,.03,0c.01,0,.03.01.04.01.02,0,.04.02.06.02,0,0,.02,0,.03,0,.08.03.16.05.26.08,0,0,.02,0,.03,0,.01,0,.03,0,.04,0,.01,0,.03,0,.04,0v-.02c0-.22-.08-.38-.15-.5-.04-.08-.07-.13-.07-.17h0s0-.05,0-.06c0,0,.03,0,.06,0,.16,0,.31.03.47.09,0-.02,0-.04,0-.06,0-.02,0-.04,0-.07,0-.1,0-.2,0-.29,0-.01,0-.02,0-.03,0-.02,0-.04,0-.07,0,0,0-.01,0-.02-.15-.04-.31-.06-.47-.06-.35,0-.56.21-.57.55,0,.18.07.31.12.42.02.05.05.09.06.13m.39-.99c.13,0,.26.01.38.04,0,.11-.01.18,0,.29-.12-.03-.25-.05-.37-.05s-.18.04-.18.17c0,.07.03.14.08.23.05.09.11.21.13.36-.12-.03-.24-.07-.31-.1-.02-.04-.04-.09-.06-.13-.05-.1-.11-.22-.11-.36,0-.28.18-.45.46-.45m5.12,5.03c-.07-.35-.2-.93-.76-.98-.07-.14-.14-.29-.14-.36,0-.05.03-.13.05-.21.02-.07.04-.13.06-.2.18-.24.26-.69.1-1.06-.05-.11-.1-.2-.16-.28h0s-.02-.03-.03-.04c0,0,0,0,0,0,0,0-.01-.02-.02-.02,0,0,0,0,0-.01h0s-.03.02-.05.03c0,0,0,0,0,0-.01,0-.02,0-.03.02-.1.04-.2.08-.29.1h0s-.04,0-.06.01c-.02,0-.04,0-.05,0,.11.1.2.22.28.38.02.05.03.1.04.15-.06-.04-.12-.07-.17-.09-.11-.05-.2-.1-.28-.18-.02-.02-.04-.09-.07-.15,0-.02-.02-.05-.03-.07-.06-.15-.14-.33-.34-.46-.08-.05-.22-.14-.41-.21-.01,0-.03-.01-.04-.02-.09-.03-.18-.06-.29-.09-.01,0-.02,0-.04,0-.09-.02-.18-.04-.28-.05h0s-.02,0-.03,0c-.01,0-.03,0-.04,0,0,0,0,0,0,0-.03,0-.07,0-.1,0-.16,0-.27,0-.36,0-.04,0-.07,0-.1,0-.01,0-.03,0-.04,0h0s-.11.01-.16.01c-.04,0-.09,0-.13-.02,0,0-.05-.02-.09-.03,0,0,0,0,0,0-.03-.01-.06-.03-.08-.04,0,0-.01,0-.02,0-.04.03-.08.07-.12.11,0,0-.02.02-.02.02-.1.11-.17.23-.2.36-.02,0-.03,0-.05,0-.11.02-.22.04-.36.05-.07,0-.14,0-.21,0-.05,0-.1,0-.15,0-.06,0-.11,0-.17,0-.01,0-.02,0-.04,0-.47-.04-1-.15-1.52-.38-.32-.14-.64-.33-.93-.57-.04,0-.09,0-.14,0,0,0,0,0,0,0,.05.05.1.09.16.13,0,0,0,0,0,0,.03.02.05.04.08.06.17.12.34.23.51.32.63.34,1.31.49,1.89.53.01,0,.02,0,.03,0,0,0,.01,0,.02,0,.06,0,.11,0,.17,0,.21,0,.41-.01.58-.04.03,0,.07-.01.1-.02,0,.01,0,.02,0,.03,0,.02,0,.05,0,.07,0,.14.08.34.22.48.01,0,.02.02.03.03.04.03.08.07.13.09-1.23.43-2.29.29-3.11-.07-.45-.19-.85-.46-1.22-.77-.02-.02-.04-.04-.06-.05,0,0,0,0-.01,0-.15-.13-.29-.27-.42-.42-.07-.08-.14-.16-.2-.24-.02-.02-.03-.04-.05-.07-.02-.02-.03-.04-.05-.06-.05,0-.1,0-.14,0,.02.02.03.04.03.04.02.03.04.05.07.08-.24.18-.5.33-.77.44-.52.23-1.05.34-1.52.38-.01,0-.02,0-.04,0-.06,0-.12,0-.17,0-.05,0-.1,0-.15,0-.07,0-.14,0-.21,0-.13,0-.25-.02-.36-.05-.02,0-.03,0-.05-.01-.03-.13-.1-.24-.2-.36,0,0-.02-.02-.02-.02-.04-.04-.08-.08-.12-.11,0,0-.01,0-.02,0-.01,0-.03.01-.04.02,0,0,0,0,0,0-.01,0-.02.01-.03.02h0s-.08.03-.12.04c-.04,0-.08.01-.11.02-.05,0-.11,0-.16,0h0s0,0,0,0c-.01,0-.03,0-.04,0-.03,0-.06,0-.1,0-.09,0-.19,0-.36,0-.03,0-.07,0-.1,0h0s-.03,0-.04,0c0,0-.02,0-.02,0h0c-.1.01-.19.03-.28.05-.01,0-.03,0-.04,0-.11.03-.21.06-.29.09-.02,0-.03.01-.04.02-.2.08-.33.16-.41.21-.2.14-.29.32-.34.46,0,.03-.02.05-.03.07-.02.06-.05.13-.07.15-.08.08-.18.13-.28.18-.05.03-.11.06-.17.09,0-.05.02-.1.04-.15.07-.16.17-.28.28-.38-.02,0-.04,0-.06-.01-.02,0-.04,0-.06-.01-.09-.02-.19-.05-.29-.1-.01,0-.02,0-.04-.02,0,0,0,0,0,0-.02,0-.03-.02-.05-.03h0s0,0,0,0c-.08.1-.15.21-.21.35-.17.37-.08.82.1,1.06.01.07.04.13.06.2.02.08.05.16.05.21,0,.08-.07.23-.14.36-.56.05-.68.63-.76.98-.05.22-.18.35-.34.46.27.09.42.1.67-.01l.05-.02.02.05c.07.15.28.35.53.47-.01-.06-.02-.12-.02-.17-.02-.25.03-.42.16-.57.03-.04.11-.13.17-.25-.23,1.07-.49,2.41-.49,2.82h0c0,.19.06.31.1.39.11.18.38.41.81.68.19.12.37.21.49.28,0,0,.1.05.13.07,0,.03,0,.1,0,.1-.02.24-.03.51-.03.78,0,.41.04.81.2,1.06.32.52.8,1.06,1.96,1.07.46.71,1.61,1.36,2.58,1.23.43.37.96.61,1.59.7h0c.63-.09,1.16-.33,1.59-.7.98.14,2.12-.52,2.58-1.23,1.16-.02,1.64-.55,1.96-1.07.15-.25.2-.65.2-1.06,0-.27-.02-.54-.03-.78,0,0,0-.08,0-.1.02-.01.13-.07.13-.07.13-.07.31-.16.49-.28.43-.27.7-.5.81-.68.04-.07.1-.2.1-.38h0c0-.41-.26-1.75-.49-2.82.06.12.14.21.17.25.13.15.18.32.16.57,0,.05-.01.11-.02.17.25-.11.46-.32.53-.47l.02-.05.05.02c.25.11.4.1.67.01-.15-.11-.29-.24-.33-.46m-1.22-2.94c.08-.02.19-.06.28-.1.06.08.11.17.16.28.12.26.1.57,0,.79-.02-.19-.1-.32-.21-.41,0-.09-.02-.18-.06-.27-.05-.11-.11-.21-.18-.29m-3.02.14s-.02-.02-.03-.03c-.14-.13-.18-.32-.19-.41v-.05s0-.05,0-.07c0-.03.01-.06.02-.1.03-.1.09-.19.17-.28,0,0,0,0,.01-.01.01-.01.03-.02.04-.04,0,0,0,0,0,0,0,0,0,0,.01-.01.01,0,.02.01.03.02.01,0,.02.01.04.02,0,0,.03.01.04.01.05.02.1.02.15.04.02,0,.05.01.07.01-.06.04-.12.08-.17.14,0,0,0,0-.01.01-.04.04-.07.08-.08.11,0,.01-.01.02-.02.03-.02.04-.03.07-.03.1,0,.02,0,.04,0,.05,0,0,0,.01,0,.02,0,.05.03.12.09.18,0,.01.02.02.03.03.07.06.16.12.4.14,0,0,.02,0,.03,0h0s.02,0,.04,0c.03,0,.07,0,.11,0,.05,0,.1,0,.15,0,.03,0,.05,0,.07,0,.11,0,.2.01.29.02.01,0,.03,0,.04,0,.02,0,.04,0,.05,0,.11.01.22.03.31.05.04,0,.08.02.11.03,0,0,.02,0,.02,0,.01,0,.03,0,.04.01.24.09.43.21.55.36l.05.06s.04.06.07.09c.01.01.02.03.04.04.11.13.25.28.36.29.02,0,.05,0,.08,0,0,.05-.03.11-.05.17-.01.04-.03.08-.04.12,0,0-.02,0-.03,0-.08-.01-.16-.05-.23-.1-.01,0-.02-.02-.03-.02-.16-.11-.29-.29-.39-.42l-.05-.06c-.09-.11-.23-.2-.42-.27h0s-.03-.01-.04-.02c-.03,0-.06-.02-.09-.03-.09-.02-.19-.04-.31-.06-.03,0-.07,0-.11-.01-.09,0-.18-.02-.29-.02-.03,0-.07,0-.1,0-.02,0-.04,0-.06,0-.07,0-.13,0-.19-.01-.01,0-.03,0-.04,0-.02,0-.03,0-.05,0-.02,0-.04,0-.05,0-.04,0-.07-.01-.1-.02-.02,0-.03,0-.04-.01,0,0-.02,0-.03,0-.02,0-.04-.01-.06-.02-.08-.03-.14-.07-.19-.12m.75-.53l-.08.21-.06.14c-.25-.02-.32-.08-.37-.12-.04-.03-.06-.08-.07-.12,0-.02-.01-.04-.01-.05,0-.01,0-.03,0-.06.18-.02.46-.04.57-.04h.03v.03Zm.03-.03c.1,0,.2,0,.29.01,0,0,.02,0,.03,0,.1.01.19.03.28.05.02,0,.04.01.06.02.11.03.21.06.29.1.03.01.05.02.08.04.08.04.14.08.18.11.07.05.11.11.14.19.01.03.03.07.04.11.01.03.02.06.03.09-.1-.07-.21-.12-.34-.17-.01,0-.03,0-.04-.01-.02,0-.03-.01-.05-.02-.03,0-.07-.02-.1-.03-.09-.02-.19-.04-.31-.05-.03,0-.06,0-.08,0-.07,0-.15-.01-.24-.02-.02,0-.03,0-.05,0-.02,0-.04,0-.07,0h-.01c-.05,0-.11,0-.16,0-.03,0-.06,0-.08,0,.02-.05.03-.1.04-.14.03-.11.05-.2.06-.25m1.87,1.16s.08.04.12.06c.15.07.2.11.21.16-.03.01-.05.01-.06,0-.07,0-.18-.12-.27-.23m-.65.73l-.02.73v.08s-.06-.03-.09-.04c-.21-.06-.54.02-.84.06-.48.07-.82-.16-1.04-.27,0,0,.11-.32.25-.73.09-.27.2-.58.29-.87.07,0,.14.01.22.01.01,0,.02,0,.03,0,.04,0,.07,0,.11,0,.11,0,.21,0,.3.02.04,0,.08,0,.11.01.12.01.22.03.31.06.03,0,.05.01.07.02.02,0,.04.02.06.02.11.04.21.1.28.15l-.02.74Zm0,1.17s0,.03,0,.04c-.02.11-.1.2-.19.28-.04.04-.09.07-.13.1-.07.04-.25.15-.43.3-.16.13-.32.28-.42.46l.28-1.32.02-.08c.19-.04.63-.12.76-.06h0s.09.07.12.14c.01.04.02.09.02.14m-10.45-2.64s0-.01,0-.02c0,0,0,0,0-.01,0,0,0-.01,0-.02,0,0,0-.01,0-.02,0,0,0-.01,0-.02,0,0,0-.01,0-.02,0,0,0-.01,0-.02,0,0,0-.01,0-.02s0-.01,0-.02c0,0,0-.01,0-.02,0,0,0,0,0-.01,0,0,0-.01,0-.02,0,0,0-.01,0-.01,0,0,0-.01,0-.02,0,0,0,0,0-.01,0,0,0-.01,0-.02,0,0,0,0,0-.01,0-.01,0-.02,0-.03,0-.02,0-.05,0-.07,0-.01,0-.02,0-.03.03,0,.07.01.1.02.17.03.37.04.58.04.06,0,.11,0,.17,0,0,0,.01,0,.02,0,.01,0,.02,0,.04,0,.58-.04,1.26-.19,1.89-.53.17-.09.34-.2.51-.32.05.06.11.13.17.19.15.16.3.32.47.46-.36.32-.77.58-1.22.77-.82.36-1.89.5-3.11.07,0,0,0,0,0,0,.02,0,.03-.02.05-.03,0,0,0,0,.01,0,.01-.01.03-.02.04-.03.01,0,.02-.02.03-.02.01,0,.02-.02.03-.03.02-.02.03-.03.04-.05,0,0,0,0,0,0,0,0,.01-.01.01-.02,0,0,0,0,.01-.01,0,0,0-.01.01-.02,0,0,0,0,.01-.01,0,0,0-.01.01-.02,0,0,0,0,0-.01,0,0,0-.01.01-.02s0-.01,0-.02m-.54-.78c.06-.02.13-.03.18-.06.01,0,.03-.01.04-.02.01,0,.02-.01.04-.02,0,0,0,0,.02.02,0,0,0,0,0,0,.01.01.03.02.04.04,0,0,0,0,.01.01.08.09.14.18.17.28,0,.03.02.06.02.1,0,.02,0,.05,0,.07v.04s0,.01,0,.02c0,0,0,0,0,0,0,0,0,0,0,.01,0,0,0,0,0,0s0,0,0,.01c0,0,0,0,0,.01,0,0,0,0,0,.01,0,0,0,0,0,.01,0,0,0,0,0,.01,0,0,0,.01,0,.01,0,0,0,0,0,.01,0,0,0,0,0,.01,0,0,0,0,0,.01,0,0,0,.01,0,.02,0,0,0,0,0,.01,0,0,0,.01,0,.02,0,0,0,0,0,.01,0,0,0,.01,0,.02,0,0,0,0,0,.01,0,0,0,.01-.01.02,0,0,0,0,0,.01,0,0,0,.01-.01.02,0,0,0,0,0,0,0,0-.01.01-.01.02,0,0,0,0,0,0,0,.01-.02.02-.03.04,0,0,0,0,0,0,0,0-.02.02-.03.03,0,0,0,0,0,0-.01.01-.02.02-.03.03-.06.05-.12.09-.19.12-.02,0-.04.01-.06.02,0,0-.02,0-.03,0-.01,0-.03,0-.04.01-.03,0-.06.02-.1.02-.02,0-.04,0-.05,0-.02,0-.03,0-.05,0-.01,0-.03,0-.04,0-.06,0-.12,0-.19.01-.02,0-.04,0-.06,0-.03,0-.07,0-.1,0-.05,0-.1,0-.15,0-.05,0-.09,0-.14.01h0s-.07,0-.11.01c-.02,0-.03,0-.04,0-.1.01-.19.03-.27.05-.03,0-.06.02-.09.03-.01,0-.03,0-.04.01h0c-.19.07-.33.16-.42.27l-.05.06c-.1.13-.23.3-.39.42-.01,0-.02.02-.03.02-.07.05-.15.08-.23.1-.01,0-.02,0-.03,0-.01-.04-.02-.08-.04-.12-.02-.06-.04-.12-.05-.17.03,0,.06,0,.08,0,.11-.01.25-.16.36-.29.01-.02.02-.03.04-.05.03-.03.05-.06.07-.09l.05-.06c.12-.15.31-.28.55-.36.01,0,.03-.01.04-.01,0,0,.02,0,.02,0,.04-.01.07-.02.11-.03.09-.02.19-.04.31-.05.03,0,.06,0,.09-.01.09,0,.18-.01.29-.02.02,0,.05,0,.07,0,.05,0,.1,0,.15,0,.04,0,.08,0,.11,0,.01,0,.02,0,.04,0h0s.02,0,.03,0c.24-.02.33-.08.4-.14.01-.01.02-.02.03-.03.05-.06.08-.14.09-.18,0,0,0-.02,0-.02,0-.02,0-.03,0-.05,0-.03-.01-.06-.03-.1,0,0,0-.02-.02-.03-.02-.03-.05-.07-.08-.11,0,0,0,0-.01-.01-.05-.05-.11-.1-.17-.14.02,0,.05,0,.07-.01m-1.58,3.02s-.06.02-.09.04v-.08s-.03-.73-.03-.73l-.02-.74c.07-.06.16-.11.28-.15.02,0,.04-.01.06-.02.02,0,.05-.02.07-.02,0,0,.02,0,.03,0,0,0,0,0,.01,0,0,0,.02,0,.03,0,0,0,0,0,.01,0,0,0,.02,0,.03,0,0,0,0,0,.01,0,.02,0,.04,0,.06-.01,0,0,0,0,.01,0,0,0,.02,0,.03,0,0,0,.01,0,.02,0,.01,0,.02,0,.03,0,0,0,.01,0,.02,0,.01,0,.02,0,.03,0,.02,0,.04,0,.05,0,0,0,0,0,0,0,.02,0,.03,0,.05,0,.02,0,.04,0,.07,0,0,0,0,0,0,0,.02,0,.04,0,.07,0h0s.1,0,.15,0c.03,0,.07,0,.11,0,.01,0,.02,0,.03,0,.02,0,.04,0,.05,0,0,0,.01,0,.02,0,.01,0,.02,0,.04,0,0,0,.01,0,.02,0,.01,0,.03,0,.04,0h.01s.03,0,.04,0c0,0,0,0,0,0,.09.29.2.6.29.87.14.41.25.73.25.73-.22.12-.56.34-1.04.27-.3-.04-.63-.13-.84-.06m1.06,1.57c-.1-.17-.27-.33-.42-.46-.18-.15-.36-.26-.43-.3-.05-.03-.09-.06-.13-.1-.09-.08-.17-.17-.19-.28,0-.01,0-.03,0-.04,0-.05,0-.1.02-.14.02-.07.07-.11.12-.14h0c.13-.07.57.01.76.05l.02.08.28,1.32Zm-2.16-2.86c.02-.05.07-.08.22-.16.04-.02.08-.04.12-.06-.09.11-.2.22-.27.23-.01,0-.03,0-.06,0m2.26-1.13s.03.09.04.14c-.01,0-.03,0-.04,0h0s-.03,0-.04,0c-.06,0-.12,0-.18,0-.02,0-.04,0-.05,0,0,0,0,0,0,0-.03,0-.05,0-.07,0h0s-.05,0-.07,0c0,0,0,0,0,0-.02,0-.05,0-.07,0h0s-.04,0-.07,0c-.03,0-.06,0-.08.01h0c-.05,0-.11.01-.15.02,0,0,0,0-.01,0-.02,0-.04,0-.06.01,0,0,0,0-.01,0-.02,0-.05.01-.07.02-.02,0-.04,0-.05.01h0s-.03,0-.05.01-.03,0-.05.01c-.01,0-.03,0-.04.01-.13.05-.24.1-.34.17.01-.03.02-.06.03-.09.01-.04.03-.08.04-.11.03-.08.07-.14.15-.19.04-.03.1-.07.18-.11.03-.01.05-.02.08-.04.08-.04.18-.07.29-.1.02,0,.04-.01.06-.01.08-.02.18-.04.28-.05.01,0,.02,0,.03,0,.09,0,.18-.01.29-.01.01.06.03.14.06.25m-.04-.25s.02,0,.03,0c.11,0,.39.02.57.04,0,.03,0,.05,0,.06,0,.01,0,.03-.01.05-.01.04-.04.09-.07.12,0,0-.01,0-.02.02-.01,0-.02.02-.04.02h0s-.03.02-.05.03h0s-.02,0-.03,0c-.02,0-.05.01-.08.02-.03,0-.07.01-.11.02h0s-.03,0-.05,0l-.06-.14-.08-.21v-.03Zm-2.7,1.38c-.09-.23-.11-.53,0-.79.05-.11.1-.2.16-.28.09.04.2.08.28.1-.07.08-.13.17-.18.29-.04.08-.05.18-.06.27-.1.09-.19.22-.21.41m.21,2.11c-.13.15-.19.32-.19.55,0,.02,0,.04,0,.06-.06-.04-.12-.09-.17-.14-.02-.02-.04-.04-.05-.06-.03-.04-.06-.08-.07-.11l-.03-.06-.04-.09-.04.02-.11.05s-.05.02-.07.03c-.04.01-.08.02-.11.03-.07.01-.14.01-.21,0,.1-.1.17-.22.21-.39.08-.4.2-.79.57-.88.04,0,.08-.01.12-.02.02-.04.04-.07.06-.11.07-.14.13-.28.13-.37,0-.07-.03-.15-.06-.24,0,0,0-.02-.01-.03-.02-.06-.04-.12-.05-.18-.01-.05-.02-.1-.01-.16,0-.14.05-.24.12-.31.03-.03.06-.06.09-.08.07-.05.15-.09.22-.13.11-.05.22-.11.31-.2.04-.04.06-.11.09-.19.05-.16.12-.35.33-.49.07-.05.19-.12.36-.19.02,0,.03-.01.05-.02.09-.03.18-.06.29-.09.01,0,.03,0,.04-.01.17-.04.36-.06.57-.07.05,0,.11,0,.16,0h.02s.01,0,.02,0c.04.01.1.04.16.07,0,0,.01,0,.02,0,.08.04.17.1.24.17,0,0,0,0,0,0,.02.02.03.04.05.06-.18-.02-.42-.03-.52-.04h-.07c-.11,0-.21,0-.3.01,0,0-.01,0-.02,0-.02,0-.04,0-.07,0-.07.01-.14.02-.21.04-.02,0-.04,0-.06.01-.11.03-.21.06-.29.1-.03.01-.05.02-.07.03-.11.05-.18.1-.23.13,0,0-.01.01-.02.02-.1.07-.15.17-.18.28,0,.02-.01.04-.02.06-.04.1-.07.21-.15.29-.02.02-.03.03-.05.05-.01,0-.02.02-.03.03-.1.08-.21.14-.31.19-.14.07-.22.11-.25.19-.01.03-.02.06-.02.1h0c0,.08.03.17.06.26,0,.03.02.06.03.08,0,.03.02.07.03.1,0,.04.02.08.02.12,0,.14-.05.31-.15.49-.02.03-.03.07-.05.1.03.02.05.05.07.08.08.11.09.24.09.24h0s0,.02,0,.03c0,.26-.21.51-.25.56m.22-.93c.11-.2.18-.39.17-.56,0-.04,0-.08-.02-.12,0,0,.01,0,.02,0,.07,0,.13-.03.2-.06,0,.02,0,.04,0,.04h0c-.01.06-.1.46-.22,1.01-.02-.08-.05-.2-.14-.29m-.13,2.6s.49-2.94.52-3.29c0-.02.01-.05.01-.07.21-.12.37-.34.49-.49l.05-.06s.04-.05.07-.07l-.1,1.87h0c0,.12.04.23.11.31.06.08.14.14.22.2.13.1.28.18.39.26.05.04.1.08.14.11.33.3.74.77-.06,1.14-.65.3-1.49.89-1.83,1.45-.22-.15-.11-.81-.01-1.35m.12,1.45c.2-.41,1.1-1.12,1.85-1.46.03.29.27,2.57.28,2.74-.18-.25-1.55-.69-2.14-1.28m1.26,1.65l.03-.72c.18.08.56.26.69.36.11.09.18.23.08.46-.15.35-.42.7-.66,1.06-.17-.35-.16-.76-.14-1.15m10.22,2.11h-.04l-.02.02c-.5.77-1.6,1.36-2.49,1.19h-.03s-.02,0-.02,0c-.48.42-.83.56-1.52.71-.69-.14-1.03-.29-1.52-.71h-.02s-.03,0-.03,0c-.88.17-1.99-.42-2.49-1.19l-.02-.02h-.03c-.85-.02-1.38-.26-1.79-.88.03-.05.19-.28.19-.28.19-.3.44-.62.56-1,0,0,.03-.15.02-.33,0-.1-.24-2.27-.29-2.78.24-.16.38-.36.41-.59,0-.05,0-.13-.03-.25-.05-.25-.29-1.38-.29-1.38.53.04.85-.17,1.2-.38l-.63-1.64c.07-.01.14-.03.23-.06,1.61.59,3.18.34,4.54-.83,1.36,1.17,2.93,1.42,4.54.83.08.03.16.05.23.06l-.63,1.64h0c.35.21.67.42,1.2.38,0,0-.24,1.13-.29,1.38-.02.12-.04.2-.03.25.03.23.16.43.4.59-.05.51-.28,2.68-.29,2.78-.01.18.02.32.02.33.12.38.36.69.56,1,0,0,.16.23.19.28-.4.62-.93.86-1.79.88m1.87-.96c-.23-.36-.51-.71-.66-1.06-.1-.23-.03-.37.08-.46.13-.1.5-.27.69-.36l.03.72c.02.4.03.8-.14,1.15m-.74-1.52c.02-.17.26-2.46.28-2.74.76.34,1.66,1.04,1.85,1.46-.59.6-1.96,1.04-2.14,1.28m2.26-2.73c.1.54.21,1.2-.01,1.35-.34-.56-1.18-1.15-1.83-1.45-.8-.37-.39-.84-.06-1.14.05-.04.09-.07.14-.11.1-.08.25-.16.38-.26.08-.06.16-.12.22-.2.07-.09.11-.19.11-.32h0s-.1-1.87-.1-1.87c.03.02.05.05.07.07l.05.06c.12.16.29.38.49.49,0,.02,0,.05.01.07.02.35.52,3.29.52,3.29m-.27-2.3c-.12-.55-.21-.95-.22-1h0s0-.01,0-.01c0,0,0-.02,0-.04.06.03.13.05.2.06,0,0,.01,0,.02,0,0,.04-.01.08-.02.12,0,.17.06.36.17.56-.08.1-.12.21-.14.29m1.23.92s-.07-.02-.11-.03c-.02,0-.05-.02-.07-.03l-.11-.05h-.03s-.04.08-.04.08l-.03.06s-.04.07-.07.11c-.02.02-.03.04-.05.06-.05.05-.1.1-.17.14,0-.02,0-.04,0-.06,0-.23-.06-.4-.19-.55-.04-.05-.25-.3-.25-.56,0,0,0-.02,0-.03h0s.02-.13.09-.24c.02-.03.04-.06.07-.08-.02-.04-.04-.07-.05-.1-.09-.18-.15-.34-.15-.49,0-.04,0-.08.02-.12,0-.03.02-.07.03-.1,0-.03.02-.06.03-.08.03-.09.06-.18.06-.25h0s-.01-.08-.03-.11c-.04-.08-.12-.12-.25-.19-.1-.05-.21-.1-.31-.19-.01,0-.02-.02-.03-.03-.02-.01-.03-.03-.05-.05-.08-.08-.11-.19-.15-.29,0-.02-.01-.04-.02-.06-.04-.11-.09-.21-.18-.28,0,0-.01-.01-.02-.01-.05-.03-.12-.08-.23-.13-.02-.01-.05-.02-.07-.03-.08-.04-.18-.07-.29-.1-.02,0-.04,0-.06-.01-.06-.02-.13-.03-.21-.04-.02,0-.04,0-.07,0,0,0-.01,0-.02,0-.09-.01-.19-.02-.3-.02h0s-.04,0-.06,0c-.1,0-.34.02-.52.04.01-.02.03-.04.05-.06,0,0,0,0,0,0,.07-.07.16-.13.24-.17,0,0,0,0,0,0,0,0,.01,0,.02,0,.06-.03.12-.05.16-.07h.02s.01,0,.02,0c.06,0,.11,0,.16,0,.22,0,.41.03.57.07.01,0,.03,0,.04.01.11.03.21.06.29.09.02,0,.03.01.05.02.17.07.29.14.36.19.21.14.28.34.33.49.03.08.05.15.09.19.09.09.2.15.31.2.07.04.15.08.22.13.03.02.06.05.09.08.07.08.11.17.12.31,0,.05,0,.11-.01.16-.01.06-.03.12-.05.18,0,.01,0,.02,0,.03-.03.09-.06.17-.06.24,0,.09.06.23.13.37.02.04.04.07.06.11.04,0,.09,0,.12.01.37.08.49.48.57.88.04.17.12.29.21.39-.07.01-.14.01-.21,0m-12.38-5.01s0,.04,0,.06c.16-.06.31-.09.47-.09.03,0,.05,0,.06,0,0,0,0,.02,0,.06h0s-.02.09-.07.17c-.07.12-.15.28-.15.5,0,0,0,.01,0,.02.02,0,.03,0,.04,0,.02,0,.05-.01.07-.02.1-.02.18-.05.26-.07.01,0,.02,0,.03-.01.03-.01.07-.02.1-.04,0,0,.02,0,.03,0,.02-.04.04-.08.06-.13.06-.11.13-.24.12-.42-.01-.35-.22-.55-.57-.55-.13,0-.26.01-.39.04-.03,0-.05.01-.08.02,0,0,0,0,0,0,0,.02,0,.06,0,.09,0,.01,0,.02,0,.03,0,.1,0,.2,0,.29,0,.02,0,.04,0,.07m.46-.42c.28,0,.45.16.46.45,0,.15-.06.26-.11.37-.02.04-.04.09-.06.13-.07.03-.19.07-.31.1.02-.15.08-.26.13-.36.04-.08.08-.15.08-.23,0-.13-.05-.17-.18-.17s-.25.02-.37.05c0-.11,0-.18,0-.29.12-.03.25-.04.38-.04"/>
  <path class="cls-3" d="m47.14,10.75l.37.92s-.03.04-.05.06l-.32-.98Zm.72.76s.08.02.11.03l-.39-.93.28.9Zm-16.83.03s.07-.02.11-.03l.28-.89-.39.92Zm.84-.79l-.32.98s-.04-.04-.05-.06l.37-.92Zm-.15-.24l-.32,1.01-.04-.09-.04.02.4-.93Zm15.97.94l-.04-.02-.04.09-.32-1.01.4.94Z"/>
  <path class="cls-2" d="m43.89,12.71c-.31-1.15-1.06-2.11-2.13-2.7-2.17-1.21-4.95-.49-6.21,1.6-.4.67-.61,1.42-.61,2.18,0,.37.05.74.15,1.1.3,1.14,1.05,2.1,2.1,2.69,0,0,.05.03.05.03,2.17,1.18,4.94.46,6.18-1.62.6-1,.76-2.16.46-3.29"/>
  <path class="cls-11" d="m44.69,13.8c0-.37-.38-.66-.9-.71-.02-.11-.04-.22-.07-.33-.04-.14-.08-.27-.13-.4.24-.15.41-.36.47-.58.05-.17.02-.34-.06-.48-.21-.34-.69-.42-1.15-.19-.17-.19-.35-.37-.55-.53.13-.24.17-.5.11-.71-.05-.18-.15-.31-.31-.4-.36-.2-.82-.03-1.1.39-.25-.09-.5-.15-.75-.19-.02-.5-.34-.87-.75-.87s-.73.37-.75.87c-.25.04-.51.11-.75.19-.28-.42-.74-.6-1.1-.4-.15.08-.26.22-.31.4-.06.22-.02.47.11.71-.2.16-.38.33-.55.53-.46-.23-.95-.15-1.15.19-.09.14-.11.31-.06.48.06.22.23.43.47.58-.09.24-.16.48-.2.73-.52.05-.9.34-.9.71s.38.66.9.71c.02.11.05.23.08.34.04.13.08.26.13.39-.24.15-.41.36-.47.58-.05.17-.02.34.06.48.2.34.69.42,1.15.19.17.19.35.37.55.53-.12.24-.16.49-.11.71.05.18.15.31.31.4.35.2.81.03,1.09-.39.25.09.5.15.76.19.03.5.34.86.75.86s.72-.37.75-.87c.26-.04.51-.11.75-.19.28.42.74.59,1.1.39.15-.09.26-.22.31-.4.06-.22.02-.47-.11-.71.2-.16.38-.34.55-.53.46.23.95.15,1.15-.19.09-.15.11-.31.06-.48-.06-.22-.23-.43-.46-.57.09-.24.16-.48.2-.73.52-.05.9-.34.9-.71"/>
  <path class="cls-8" d="m35.59,15.4h0c-.22.12-.37.3-.42.48-.03.11-.02.22.04.32.15.24.52.27.88.08.21-.12.37-.29.41-.47.03-.11.02-.22-.04-.32-.15-.24-.53-.27-.88-.08m2.16,1.31c-.25-.14-.6.02-.8.36h0c-.09.15-.14.31-.14.45,0,.05,0,.11.02.15.03.12.1.21.2.26.25.14.59-.02.8-.36.12-.2.17-.42.12-.6-.03-.12-.1-.21-.2-.26m-1.66-5.38c-.36-.2-.73-.17-.88.08-.04.06-.05.13-.05.2,0,.04,0,.08.02.12.05.18.2.35.41.47.36.2.74.17.88-.08.06-.09.07-.2.04-.32-.05-.18-.2-.35-.42-.47m.07,2.47c0-.29-.34-.5-.79-.5s-.79.21-.79.5.34.5.79.5.79-.21.79-.5m7.24-1.6c.22-.12.37-.29.41-.47.01-.04.02-.08.02-.12,0-.07-.02-.14-.05-.2-.15-.24-.52-.27-.88-.08-.21.12-.37.29-.41.47-.01.04-.02.08-.02.12,0,.07.02.14.05.2.14.24.52.27.88.08m-6.38-2.54h0c-.1.05-.17.15-.2.26-.05.18,0,.4.12.61.21.35.55.5.8.36.1-.06.17-.15.2-.26.05-.18,0-.4-.12-.6-.21-.35-.55-.5-.8-.36m6.38,5.74c-.36-.2-.74-.17-.88.08-.06.09-.07.2-.04.32.05.18.2.36.41.47.36.2.73.16.88-.08.04-.06.05-.13.05-.2,0-.04,0-.08-.02-.11-.05-.18-.2-.35-.41-.47m-1.44-5.74c-.25-.14-.59.01-.8.36-.12.2-.16.43-.12.6.03.12.1.21.2.26.25.14.59-.02.8-.36.09-.15.14-.31.14-.45,0-.05,0-.1-.02-.15-.03-.12-.1-.21-.2-.26m1.65,3.64c-.45,0-.79.21-.79.5s.34.5.79.5.78-.21.78-.5-.34-.5-.78-.5m-2.37,3.41c-.1.05-.16.14-.2.26-.01.05-.02.1-.02.15,0,.15.05.31.14.45.21.34.55.5.8.36.1-.05.17-.14.2-.26.01-.05.02-.1.02-.15,0-.15-.05-.31-.14-.46-.21-.34-.55-.5-.8-.36m-1.75-7.68c-.29,0-.51.3-.51.71s.22.71.51.71.51-.3.51-.71-.22-.71-.51-.71m0,8.14c-.29,0-.51.31-.51.71s.22.71.51.71.51-.31.51-.71-.22-.71-.51-.71"/>
  <path class="cls-1" d="m37.12,9.83c.15-.08.38.05.53.29.15.24.14.5,0,.59-.15.08-.39-.05-.53-.29-.15-.24-.14-.5,0-.58m-2.33,3.96c0,.16.26.3.58.3s.58-.13.58-.3-.26-.3-.58-.3-.58.13-.58.3m2.33,3.96c.15.08.38-.05.53-.29.15-.24.14-.5,0-.58-.15-.08-.39.05-.53.29-.14.24-.14.51,0,.59m4.75,0c.15-.08.15-.34,0-.59-.14-.24-.38-.37-.53-.29-.15.08-.15.34,0,.59.15.24.38.37.53.29m2.33-3.96c0-.16-.26-.3-.58-.3s-.58.13-.58.3.26.3.58.3.58-.13.58-.3m-2.33-3.96c-.15-.08-.38.05-.53.29-.15.24-.14.51,0,.59.15.08.38-.05.53-.29.15-.24.14-.5,0-.59"/>
  <path class="cls-4" d="m35.38,11.51c.09-.14.36-.14.61,0,.25.14.39.37.3.51-.09.14-.36.14-.61,0-.25-.14-.39-.37-.3-.51m0,4.57c.08.14.36.14.61,0,.25-.14.39-.37.3-.51-.09-.14-.36-.14-.61,0-.25.14-.39.37-.3.51m4.11,2.29c.17,0,.31-.23.31-.51s-.14-.51-.31-.51-.31.23-.31.51.14.51.31.51m4.11-2.29c.09-.14-.05-.37-.3-.51-.25-.14-.52-.14-.61,0-.08.14.05.37.3.51.25.14.52.14.61,0m0-4.57c-.08-.14-.36-.14-.61,0-.25.14-.39.37-.3.51.09.14.36.14.61,0,.25-.14.39-.37.3-.51m-4.11-2.29c-.17,0-.31.23-.31.51s.14.51.31.51.31-.23.31-.51-.14-.51-.31-.51"/>
  <path class="cls-3" d="m42.71,10.05h-6.5v5.22h0c.04.52.22.94.52,1.25.3.3.73.47,1.23.48.02,0,.03,0,.05,0,.2.02.46.05.69.13.24.08.42.19.54.33,0,0,.25.27.25.27l.24-.28c.12-.14.3-.24.54-.32.24-.08.52-.11.7-.13h0s.06,0,.06,0c.5-.02.92-.19,1.22-.49.3-.3.48-.72.53-1.24h0v-5.23h-.07Z"/>
  <path class="cls-8" d="m42.6,10.22h-6.23v5.05c.04.48.2.86.48,1.14.28.27.67.42,1.13.44,0,0,.06,0,.06,0,.21.02.48.05.73.13.27.08.47.21.61.37,0,0,.13.14.13.14l.12-.14c.14-.16.35-.28.61-.37.26-.08.54-.11.73-.13h.06c.46-.02.85-.17,1.12-.45.28-.27.44-.66.48-1.13v-5.06h-.02Z"/>
  <path class="cls-6" d="m39.59,15.31v1.82c.15-.13.35-.24.59-.32.19-.06.43-.1.71-.13v-1.85c-.18.19-.56.46-1.29.48m-1.49-.49v1.85c.19.02.45.05.71.13.24.08.43.19.59.32v-1.82c-.73-.02-1.12-.29-1.3-.49m-.22,1.32c-.03-.13-.22-.18-.39-.11-.06.02-.33.19-.37.08-.05-.15.31-.14.58-.28.23-.12.22-.45.04-.56-.16-.1-.37-.06-.52.01-.13.06-.31.12-.33.02-.03-.17.41-.17.68-.27.41-.16.39-.67.05-.76,0,0-.1-.03-.21-.04-.2-.03-.69.03-.84.14.17.05.46.05.46.05,0,0-.24.12-.35.24.15.01.38,0,.57-.12.07-.04.22-.06.28,0,.06.07.05.2-.07.24-.16.05-.64.08-.83.28-.18.2-.09.43.11.53.14.07.35.05.55-.06.14-.08.27-.12.3-.01.04.12-.15.14-.33.17-.18.04-.37.09-.42.26-.07.24.18.4.26.41.11.01.28,0,.43-.17.11-.12.18-.03.08.04-.34.27.04.42.25.37-.15-.01-.2-.05-.22-.13-.04-.14.27-.15.24-.35m3.19.51c.39-.03.71-.16.94-.38.02-.02.07-.07.09-.09h-1.03v.47Zm0-1.31h1.36s0-.06,0-.09v-.4h-1.37v.49Zm-1.58-3.07v2.84h.07c.8-.02,1.14-.35,1.24-.5.03-.04.06-.08.08-.13.03-.05.05-.11.07-.17.03-.1.03-.17.03-.18v-1.53c0-.11.05-.23.12-.33h-1.62Zm1.21,1.76s-.12.34-.4.57c-.28.24-.62.28-.64.29h-.04s0-.03,0-.03c0-.02.09-.37.37-.6.28-.24.65-.26.67-.26h.04s-.01.04-.01.04Zm0-.76s-.12.33-.4.57c-.28.24-.62.28-.64.29h-.04s0-.03,0-.03c0-.02.09-.37.37-.6.28-.24.65-.26.67-.26h.04s-.01.04-.01.04Zm0-.72s-.12.33-.4.57c-.28.24-.62.28-.64.29h-.04s0-.03,0-.03c0-.01.09-.36.37-.6.28-.24.65-.26.67-.26h.04s-.01.04-.01.04Zm.47,1.47h1.26v-.49h-1.26v.49Z"/>
  <path class="cls-11" d="m37.55,13.73c-.06,0-.11.05-.11.1,0,0,0,.01,0,.02-.03,0-.11.04-.13.05-.01-.02-.05-.05-.06-.07.01-.02.02-.04.02-.06,0-.06-.05-.1-.11-.1s-.11.05-.11.1c0,.03.01.05.03.07-.02.02-.05.06-.06.08-.02,0-.09-.03-.11-.04,0,0,0-.01,0-.01,0-.06-.05-.1-.11-.1s-.11.05-.11.1.05.1.11.1c0,0,.01,0,.02,0,.01.03.08.17.08.17h.02c.15-.04.29-.06.5-.03h.02s.07-.15.08-.17c0,0,.01,0,.02,0,.06,0,.11-.05.11-.1s-.05-.1-.11-.1m1.95-1.45h-1.62s.07.09.09.15v.04c.03.05.04.1.04.15v1.53s0,.08.03.18c.02.06.04.12.07.17.02.05.05.09.08.13.11.14.44.48,1.24.5h.07s0-2.84,0-2.84m-1.17.24s.38.02.67.26.37.59.37.6v.04s-.03,0-.03,0c-.02,0-.36-.05-.64-.28-.28-.24-.39-.56-.4-.57v-.04s.03,0,.03,0Zm0,.72s.38.02.67.26.37.59.37.6v.04s-.03,0-.03,0c-.02,0-.36-.05-.64-.29-.28-.24-.39-.56-.4-.57v-.04s.03,0,.03,0Zm1.01,1.66s-.36-.05-.64-.28c-.28-.24-.39-.56-.4-.57v-.04s.03,0,.03,0c.02,0,.38.02.67.26h0c.28.24.37.59.37.6v.04s-.03,0-.03,0Z"/>
  <path class="cls-1" d="m42.23,11.48s-.02.08-.04.13c-.03.05-.05.11-.05.2,0,.02,0,.05,0,.07-.14-.09-.22-.17-.22-.29h0c0-.08.08-.16.16-.25.02-.02.03-.03.05-.05l.02.02c.07.06.08.1.08.17m-.23,4.29v.42h.11c.1-.12.17-.26.23-.42h-.34Zm-.51.42h-.42v-.42h.42v.42Zm0-.42v-.42h.51v.42h-.51Zm.51-1.33h.44v.42h-.44v-.42Zm-.51.42h-.42v-.32s.03-.07.04-.1h.37v.42Zm0-.84h.51v.42h-.51v-.42Zm-3.68-.51h-1.26v-.36h1.26v.36Zm0-.68h-1.26v-.36h1.23s.04.09.04.14v.22Zm.1-1.43h-1.37v-.36h1.37v.36Zm0-.72h-1.37v-.29h1.37v.29Zm0,1.43h-1.37v-.36h1.37v.36Zm1.67-1.73v1.7h.64s0,0,0,0c0,0,0,0,0,0-.04,0-.11-.06-.09-.14l.02-.06s0-.03-.02-.03c-.02,0-.04.02-.07.05-.03.04-.07.09-.13.08-.02,0-.03,0-.04-.02-.04.02-.1.04-.19.06l-.08.02.11-.12s.07-.07.1-.09h0s0,0,0,0,0,0,0,0c0-.01,0-.03.02-.04-.05-.02-.09-.05-.09-.1,0,0,0-.01,0-.02,0,0,0,0,0,0-.05-.05-.08-.11-.1-.15l-.03-.06.06.02c.07.03.12.05.18.09.01,0,.02,0,.03,0,0,0,0,0,.01,0,0-.01,0-.02,0-.03,0,0,0-.01,0-.02,0-.03.02-.06.04-.07,0-.02-.02-.03-.03-.04-.02-.02-.06-.03-.06-.03l-.07-.02.07-.02c.08-.03.12-.01.17.01.03.02.06.06.07.11,0,0,0,0,.01,0,.05,0,.04.06.04.1,0,.05,0,.07.02.08.02,0,.03.01.05.02.06,0,.13,0,.2,0-.01-.01-.02-.02-.03-.04-.01-.02-.02-.04-.02-.07,0-.01,0-.02,0-.04.02-.05.05-.09.11-.1-.05-.05-.21-.21-.25-.25-.02.06-.06.11-.11.11,0,0-.02,0-.02,0-.04.04-.1.05-.16.03-.04-.01-.06-.04-.08-.08l-.02-.06.06.02s.07.02.09,0c0,0,0-.01,0-.02,0-.07.05-.09.08-.1.03-.01.04-.02.04-.03,0,0,0-.02-.01-.03-.01,0-.03,0-.1,0-.12,0-.14-.07-.14-.1,0,0,0-.01,0-.02-.03-.03-.07-.07-.12-.14l-.05-.07.15.06s.06.02.09.04c0,0,.02,0,.03,0,0,0,0,0,.01,0,0-.02-.02-.04-.02-.06,0-.03.01-.05.03-.07,0-.02-.02-.04-.03-.05-.02-.02-.06-.03-.06-.03l-.07-.02.07-.02c.08-.03.12-.01.17.01.03.02.06.06.06.1,0,0,0,0,.01,0,.02,0,.04.02.05.04.02-.03.05-.05.1-.05h0s0-.01,0-.02c0-.07-.06-.13-.06-.13.11.02.17.11.17.16,0,.04-.01.07-.04.09.01,0,.03.01.03.04,0,.04-.02.07-.05.09-.02.02-.04.04-.04.08,0,.06.07.12.16.19.02-.07.05-.12.1-.14h0c.07-.02.16,0,.24.04,0,0,0-.02,0-.02,0,0,0-.01,0-.02-.02-.01-.04-.04-.04-.06,0-.04.03-.11.16-.12.01-.02.04-.03.07-.04,0,0-.03-.09-.04-.12h0s-.04,0-.05-.02c-.01-.01-.02-.03-.02-.05,0-.04.04-.07.07-.07.02,0,.04,0,.05.02.01.01.02.03.02.05h0s0,.01,0,.02c.01,0,.03.02.05.04.01-.02.02-.05.03-.06-.01-.01-.02-.03-.02-.04h0s0-.04.02-.05c.01-.01.03-.02.05-.02.04,0,.07.03.07.07h0s0,.03-.02.04c0,.02.02.04.03.06.02-.01.04-.03.06-.04,0,0,0-.01,0-.02h0s0-.04.02-.05c.01-.01.03-.02.05-.02.04,0,.07.03.07.07,0,.04-.03.06-.07.06,0,.03-.05.13-.05.13.03.01.05.02.07.04.04.04.07.11.08.17,0,.02.01.02.03.02.05,0,.02-.12-.05-.15.01,0,.09.02.09.02.09.02.13.09.12.15,0,.04-.03.09-.08.12-.02.01-.06.03-.13.02,0,.03-.02.06-.03.09-.02.03-.03.07-.03.1,0,.07.04.07.05.07.02,0,.03,0,.04-.02.01-.01.02-.04.02-.07v-.08s.06.04.06.04c.05.04.08.09.07.15,0,.07-.05.14-.1.17-.05.03-.11.03-.17.01-.03,0-.06-.03-.08-.05,0,0,0,0,0,.01.09.16.31.26.38.29.15.07.32.21.43.39.05.07.1.11.14.11,0,0,.02-.02.02-.07v-.02c0-.1-.08-.21-.22-.31l-.03-.02c-.13-.1-.23-.17-.23-.34v-.02c0-.14.11-.24.21-.33h0c-.09-.04-.19-.11-.22-.24-.06-.02-.13-.08-.13-.23v-.02c0-.09.05-.15.09-.2,0,0,.03-.05.03-.05h0s.01-.03.01-.03c0,0,.05.03.07.04.02,0,.14-.02.14-.02v.06s-.02.06-.02.09c0,.02,0,.04,0,.05.01.04.02.07.02.11,0,.07-.03.13-.08.17.01.07.08.11.18.16,0,0,0,0,0,0,.03-.04.05-.08.05-.11-.04-.02-.1-.08-.1-.2v-.06s0-.02,0-.02c0-.04-.01-.1-.02-.11l-.02-.03-.03-.05h.05c.05.02.08.02.1.03.01-.01.08-.06.08-.06l.07.06s.1.1.12.19c0,.03,0,.05,0,.08,0,.09-.04.15-.1.19,0,.06-.03.11-.07.17h0c.09.07.13.13.13.25,0,0,0,.01,0,.01,0,.06-.02.12-.04.17-.02.05-.04.1-.05.16,0,.01,0,.02,0,.03,0,.07.03.12.06.18.04.08.09.16.09.28,0,0,0,.01,0,.01,0,.14-.07.23-.17.24,0,.01.04.05.04.05.02.02.02.05.02.06,0,.09-.08.16-.17.16-.01,0-.03,0-.04,0,0,.02-.01.03-.02.05h0c.07,0,.14.02.15.06.03,0,.05.02.08.04.03.03.04.06.04.09,0,0,0,.01,0,.02v.06s-.04-.05-.04-.05c-.03-.03-.05-.04-.07-.05,0,.05-.05.09-.12.09-.06,0-.09-.03-.11-.05-.01-.01-.02-.01-.02-.01-.01,0-.06.02-.06.05,0,.01,0,.01,0,.02,0,.01.02.04.02.07,0,.08-.05.12-.11.12,0,.04-.06.18-.07.2h.66v-3.14h-2.85Zm-1.48,0v1.7h.5v-.35h-.4v-.29h.4v-.26h-.31v-.29h.31v-.35h.29v.35h.31v.29h-.31v.26h.39v.29h-.39v.35h.51v-1.7h-1.3Zm2.49.69s-.06.02-.08.05c.02.02.05.03.07.05.06.04.12.09.17.12.04-.02.08-.02.14-.03-.02-.02-.03-.05-.03-.08s.01-.06.03-.08c-.03,0-.05,0-.09-.01-.07-.02-.15-.03-.21-.02m-.23.88s0,.01,0,.02c0,.01,0,.02-.01.02.01.03.03.05.09.07,0,0,.02,0,.04.01.03,0,.01-.12,0-.18,0,0-.01-.04-.01-.04-.05,0-.1,0-.14,0,.02.03.04.08.04.11m1.47.38c.03.11.05.21.1.26.07.06.13.1.19.1.06,0,.1-.05.1-.07,0,0,0-.05,0-.07-.06,0-.17-.04-.31-.23-.05-.07-.1-.14-.15-.19.03.07.05.14.07.22m-.65.28v.92h.6s-.03-.15-.03-.15c0,0,0-.02-.01-.05,0,0,0,0-.01,0-.02,0-.05-.02-.06-.04-.04.03-.08.05-.12.05-.03,0-.05,0-.06-.02-.05.02-.1.04-.17.05l-.08.02.11-.12s.05-.06.08-.08c0,0,0,0,0,0,0-.01,0-.03.01-.04-.05-.02-.09-.05-.09-.1,0-.02,0-.04.02-.06h0s0,0,0,0h0s.02,0,.02,0c0-.01-.03-.09-.13-.02.04-.07.1-.11.16-.1.03,0,.05.02.07.04,0,0,.02,0,.02,0,.04,0,.08.02.11.03.03.01.05.03.07.03.05,0,.1-.08.1-.1,0-.03-.11-.09-.18-.13,0,0,0,0,0,.01,0,.04-.02.11-.1.14.01-.05,0-.1,0-.1,0-.02-.04-.05-.08-.07,0,0,0,0,0,0,0,.05-.05.08-.11.08h-.09l.06-.07s.02-.02.02-.02c0-.03-.02-.06-.03-.09-.02-.04-.04-.07-.04-.13,0-.06.05-.12.1-.12,0,0,0,0,.01,0,0,0,0-.02,0-.02,0-.02,0-.03,0-.04-.07.05-.18.17-.18.32"/>
  <path class="cls-11" d="m39.49,6.63c.92,0,2.07.07,2.41.12.03,0,.08,0,.11.02v-1.1s.08,0,.13,0c.2-.05.36-.3.42-.4.05-.09.15-.29.15-.47,0-.04,0-.07-.01-.1,0-.02-.01-.03-.02-.05,0,0,.42.06.66-.03-.11-.07-.33-.6-.37-.91-.13-.82-.77-1.28-1.59-1.28-.21,0-3.53,0-3.73,0-.82-.02-1.5.45-1.64,1.27-.05.32-.26.84-.37.91.24.1.67.03.67.03,0,.01-.01.03-.02.05,0,.03-.01.07-.01.1,0,.18.1.38.15.47.06.1.22.35.42.4.03,0,.06.01.09.01v1.1s.09-.02.13-.03c.34-.05,1.49-.13,2.41-.12"/>
  <path class="cls-3" d="m42.02,6.78s-.08-.02-.12-.02c-.34-.05-1.49-.14-2.41-.12-.92-.01-2.07.07-2.41.12-.04,0-.09.01-.13.02-.03.01-.05.02-.05.04,0,.04,0,.05.01.06.01,0,.03,0,.07,0,.33-.03.98-.07,1.65-.1.05,0,.1,0,.14,0,.24,0,.48-.01.71-.02.16,0,.32,0,.48,0,.04,0,.09,0,.14,0,.76.02,1.52.06,1.89.1.04,0,.06.01.08,0,0,0,0-.03,0-.05,0-.02-.03-.04-.06-.05"/>
  <path class="cls-10" d="m37.38,6.27c0,.1-.06.19-.13.19s-.13-.08-.13-.19.06-.19.13-.19.13.09.13.19m.69-.08c0-.11-.09-.21-.2-.21-.11,0-.21.09-.21.21s.09.21.21.21c.11,0,.2-.09.2-.21m.79-.04c0-.12-.1-.21-.22-.21s-.22.1-.22.21.1.21.22.21c.12,0,.22-.09.22-.21m.84-.01c0-.12-.1-.22-.22-.22s-.22.1-.22.22.1.22.22.22.22-.1.22-.22m1.88.15c0,.1.06.19.13.19s.13-.08.13-.19-.06-.19-.13-.19-.13.09-.13.19m-.71-.08c0,.11.09.21.2.21s.21-.09.21-.21-.09-.21-.21-.21-.2.09-.2.21m-.78-.05c0,.12.09.22.22.22.12,0,.22-.1.22-.22s-.1-.21-.22-.21c-.13,0-.22.1-.22.21"/>
  <path class="cls-2" d="m37.19,5.74c-.29.07-.38.15-.37.24,0,.08.07.13.12.13h.01v-.12c0-.18,1.29-.29,2.53-.29,1.24,0,2.54.15,2.53.31v.1h0s.1-.05.1-.13c0-.11-.06-.16-.37-.22-.4-.09-1.37-.18-2.26-.18h-.04c-.9,0-1.86.07-2.27.17"/>
  <path class="cls-1" d="m41.77,3.31s.02-.02.02-.02c.33.12.7.44.57.85,0,.02-.01.03-.02.05,0,.01-.01.03-.02.04-.06.14-.25.37-.42.66-.06.1-.19.37-.14.57,0,.02.01.03.02.05-.16-.03-.38-.07-.64-.1.14-.1.26-.28.3-.51.04-.18.02-.36-.04-.49-.02-.09.24-.09.46-.11-.05-.03-.09-.12-.13-.21.15-.08.26-.23.26-.4s-.09-.3-.24-.39m-1.79.41c.06.08.15.17.27.27,0,0-.1.01-.09.01-.24.06-.44.19-.37.28h0c.1.12.16.3.16.51h0c0,.21-.06.38-.15.5.3.01.61.03.9.06-.12-.14-.17-.37-.12-.62.04-.2.13-.36.25-.47.05-.07-.11-.15-.29-.24.36-.16.29-1.01-.37-.86-.08.02-.15.04-.21.08.05.07.08.16.08.25,0,.08-.02.15-.06.22m-.93-.45c-.06-.04-.14-.07-.23-.1-.65-.15-.72.7-.37.86-.18.08-.34.17-.29.24.12.1.21.27.25.47.05.24,0,.47-.11.61.3-.02.6-.04.89-.04-.09-.12-.14-.3-.14-.49h0c0-.22.06-.4.16-.52h0c.08-.09-.13-.22-.37-.28,0,0-.1-.01-.09-.01.13-.12.22-.22.29-.3-.03-.06-.05-.12-.05-.19,0-.08.03-.16.07-.23m-2.03.43c0-.16.09-.3.24-.39-.01-.01-.03-.02-.04-.04-.34.12-.73.44-.6.86,0,.02,0,.03.01.05,0,.01.01.03.02.04.06.14.25.37.42.66.06.1.19.37.14.57,0,0,0,.01,0,.02.16-.03.37-.06.6-.09-.13-.1-.24-.28-.28-.49-.04-.18-.02-.36.04-.49.02-.09-.24-.09-.46-.11.05-.04.1-.13.13-.23-.13-.08-.22-.22-.22-.37"/>
  <path class="cls-12" d="m41.11,4.4c-.12-.02-.24.14-.28.36-.04.22.02.41.14.43.12.02.28-.08.33-.36.05-.26-.07-.41-.19-.43m-3.22,0c-.12.02-.22.14-.19.43.03.3.22.38.33.36.11-.02.18-.21.14-.43-.04-.22-.17-.38-.28-.36"/>
  <path class="cls-16" d="m41.11,4.4c-.12-.02-.24.14-.28.36-.04.22.02.41.14.43.12.02.28-.08.33-.36.05-.26-.07-.41-.19-.43Zm-3.22,0c-.12.02-.22.14-.19.43.03.3.22.38.33.36.11-.02.18-.21.14-.43-.04-.22-.17-.38-.28-.36Z"/>
  <path class="cls-4" d="m42.13,4.98c.14-.24.28-.31.35-.28.09.04.14.28.03.48-.14.24-.38.26-.44.22-.07-.04-.05-.22.06-.42m-2.63.23c.12,0,.24-.19.24-.41,0-.22-.05-.43-.24-.44-.17,0-.24.22-.24.44,0,.23.12.4.24.41m-2.63-.23c-.14-.24-.28-.31-.35-.28-.09.04-.14.28-.03.48.14.24.38.26.44.22.07-.04.05-.22-.06-.42"/>
  <path class="cls-16" d="m42.13,4.98c.14-.24.28-.31.35-.28.09.04.14.28.03.48-.14.24-.38.26-.44.22-.07-.04-.05-.22.06-.42Zm-2.63.23c.12,0,.24-.19.24-.41,0-.22-.05-.43-.24-.44-.17,0-.24.22-.24.44,0,.23.12.4.24.41Zm-2.63-.23c-.14-.24-.28-.31-.35-.28-.09.04-.14.28-.03.48.14.24.38.26.44.22.07-.04.05-.22-.06-.42Z"/>
  <path class="cls-3" d="m38.66,2.07c-.16,0-.3.08-.38.2-.08-.06-.18-.1-.29-.1-.12,0-.22.04-.3.11-.07-.05-.17-.08-.27-.08-.14,0-.27.06-.34.15-.08-.08-.2-.13-.33-.13-.23,0-.42.16-.43.35-.04-.01-.09-.02-.14-.02-.24,0-.43.17-.43.39,0,.05.01.1.03.14-.2.04-.34.19-.34.38,0,.12.06.23.16.3-.07.07-.11.16-.11.26,0,.21.19.39.43.39s.44-.17.44-.39c0-.12-.07-.23-.17-.31.07-.07.11-.16.11-.26,0-.05-.01-.1-.03-.14.18-.04.32-.18.34-.35.04.01.09.02.14.02.14,0,.27-.06.34-.15.02.02.03.03.05.05-.02.04-.03.09-.03.14,0,.12.05.22.14.3-.14.08-.24.23-.24.39,0,.25.24.46.53.46s.53-.21.53-.46c0-.14-.08-.27-.19-.36.11-.08.18-.19.18-.32,0-.03,0-.05,0-.08.13-.02.24-.09.3-.19.08.06.18.1.29.1.24,0,.44-.18.44-.39s-.2-.39-.44-.39"/>
  <path class="cls-8" d="m36.46,2.6c0-.14.13-.25.29-.25s.29.11.29.25-.13.24-.29.24-.29-.11-.29-.24m-.57.33c0-.13.13-.25.29-.25s.29.11.29.25-.13.25-.29.25-.29-.11-.29-.25m-.31.52c0-.14.13-.24.29-.24s.29.11.29.24-.13.25-.29.25-.29-.11-.29-.25m.63.57c0-.14-.13-.25-.29-.25s-.29.11-.29.25.13.24.29.24.29-.11.29-.24m2.15-1.57c0-.14.13-.25.29-.25s.29.11.29.25-.13.25-.29.25-.29-.11-.29-.25m-.67.09c0-.14.13-.25.29-.25s.29.11.29.25-.13.25-.29.25-.29-.11-.29-.25m-.43.46c0-.15.15-.27.33-.27s.33.12.33.27-.15.27-.33.27-.33-.12-.33-.27m-.09.68c0-.18.17-.32.38-.32s.38.14.38.32-.17.32-.38.32-.38-.14-.38-.32m.11-.9c.07-.07.18-.12.31-.12.02,0,.04,0,.06,0-.02-.04-.03-.08-.03-.12s.01-.09.03-.12c-.05-.06-.14-.1-.23-.1-.16,0-.29.11-.29.24,0,.09.06.17.15.22"/>
  <path class="cls-3" d="m39.95,2.45c0,.21.19.39.44.39.11,0,.21-.04.29-.1.06.1.17.17.3.19,0,.03,0,.05,0,.08,0,.13.07.25.18.32-.12.08-.19.21-.19.36,0,.26.24.46.53.46s.53-.21.53-.46c0-.16-.09-.3-.24-.39.09-.07.14-.18.14-.3,0-.05-.01-.09-.03-.14.02-.01.04-.03.05-.05.08.09.21.16.35.16.05,0,.09,0,.14-.02.02.17.16.31.34.35-.02.05-.03.09-.03.14,0,.1.04.19.11.26-.1.07-.17.18-.17.3,0,.21.2.39.44.39s.43-.17.43-.39c0-.1-.04-.19-.12-.26.1-.07.16-.18.16-.3,0-.18-.15-.34-.34-.38.02-.05.03-.09.03-.14,0-.21-.2-.39-.43-.39-.05,0-.09,0-.14.02-.02-.2-.21-.36-.43-.36-.13,0-.25.05-.33.13-.08-.09-.2-.15-.35-.15-.1,0-.19.03-.27.08-.08-.07-.18-.11-.3-.11s-.21.04-.29.1c-.08-.12-.22-.2-.38-.2-.24,0-.44.17-.44.39"/>
  <path class="cls-8" d="m42.29,2.84c-.16,0-.29-.11-.29-.25s.13-.25.29-.25.29.11.29.25-.13.25-.29.25m.57.33c-.16,0-.29-.11-.29-.25s.13-.25.29-.25.29.11.29.25-.13.25-.29.25m.31.52c-.16,0-.29-.11-.29-.24s.13-.24.29-.24.29.11.29.24-.13.24-.29.24m-.34.32c0,.14.13.24.29.24s.29-.11.29-.24-.13-.25-.29-.25-.29.11-.29.25m-1.78-1.23c-.16,0-.29-.11-.29-.25s.13-.25.29-.25.29.11.29.25-.13.25-.29.25m.39.49c-.18,0-.33-.12-.33-.27s.15-.27.33-.27.33.12.33.27-.15.27-.33.27m.04.73c-.21,0-.38-.14-.38-.32s.17-.32.38-.32.38.14.38.32-.17.32-.38.32m.42-1.44c0-.14-.13-.25-.29-.25-.09,0-.18.04-.23.1.02.04.03.08.03.12s-.01.08-.03.12c.02,0,.04,0,.06,0,.12,0,.23.05.31.12.09-.04.15-.12.15-.22m-1.52.13c-.16,0-.29-.11-.29-.25s.13-.25.29-.25.29.11.29.25-.13.25-.29.25"/>
  <path class="cls-7" d="m40.32,1.78s0,0,0,0c-.07-.28-.35-.49-.7-.52v-.28h.15c.05.12.17.21.31.21.18,0,.33-.14.33-.32s-.15-.32-.33-.32c-.15,0-.27.09-.31.22h-.15v-.16c.13-.04.22-.16.22-.3,0-.17-.15-.32-.33-.32s-.33.14-.33.32c0,.14.1.26.23.3v.16h-.16c-.04-.13-.17-.22-.31-.22-.18,0-.33.14-.33.32s.15.32.33.32c.14,0,.26-.09.31-.2h.16v.28c-.34.04-.62.25-.69.52,0,0-.01.01-.01.03,0,.02,0,.11,0,.11v.05s0,.08,0,.09c0,.02.01.03.01.03,0,0,.01,0,.03.01.11.26.41.45.78.45s.66-.19.77-.44c0,0,.02,0,.02-.01.01-.01.02-.02.02-.04,0,0,0-.1,0-.09v-.16s0-.02-.01-.03"/>
  <path class="cls-3" d="m39.94,3.23c.03-.06.05-.13.05-.2,0-.09-.03-.18-.09-.25.04-.06.07-.14.07-.21,0-.23-.21-.42-.48-.42s-.48.19-.48.42c0,.08.03.15.07.22-.05.07-.08.15-.08.24,0,.08.03.15.07.22-.05.07-.09.16-.09.26,0,.26.24.47.53.47s.53-.21.53-.47c0-.1-.04-.2-.1-.28"/>
  <path class="cls-8" d="m39.13,3.5c0-.18.17-.33.38-.33s.39.15.39.33-.17.33-.39.33-.38-.15-.38-.33m.63-.77s.07-.11.07-.17c0-.16-.15-.28-.33-.28s-.34.13-.34.28c0,.07.03.12.07.17.07-.05.16-.08.27-.08s.19.03.26.08m.03.45s.05-.1.05-.16c0-.16-.16-.3-.35-.3s-.35.13-.35.3c0,.06.03.12.07.17.08-.06.19-.1.3-.1.11,0,.21.03.28.09"/>
</svg>