<?xml version="1.0" encoding="UTF-8"?>
<svg id="Vrstva_1" data-name="Vrstva 1" xmlns="http://www.w3.org/2000/svg" viewBox="0 0 72.19 39.47">
  <defs>
    <style>
      .cls-1 {
        fill: none;
        stroke: #010000;
        stroke-miterlimit: 10;
        stroke-width: .5px;
      }

      .cls-2 {
        stroke-width: 0px;
      }
    </style>
  </defs>
  <path class="cls-2" d="m11.52,3.98s-.07-.09-.12-.12c-.53-.5-1.24-.82-1.98-.82-2.03,0-3.04,1.64-3.04,3.51,0,.41.09.99.19,1.38.11.41.27.72.54,1.06.54.67,1.38,1.04,2.23,1.04.79,0,1.58-.32,2.2-.8.04-.02.09-.08.17-.08l-.1.67c-.7.47-1.6.62-2.43.62-2.42,0-3.88-1.52-3.88-3.93,0-1.06.45-2.22,1.27-2.92.82-.68,1.83-.97,2.89-.97.8,0,1.63.19,2.37.51-.11.28-.18.56-.23.85h-.08Z"/>
  <path class="cls-1" d="m11.52,3.98s-.07-.09-.12-.12c-.53-.5-1.24-.82-1.98-.82-2.03,0-3.04,1.64-3.04,3.51,0,.41.09.99.19,1.38.11.41.27.72.54,1.06.54.67,1.38,1.04,2.23,1.04.79,0,1.58-.32,2.2-.8.04-.02.09-.08.17-.08l-.1.67c-.7.47-1.6.62-2.43.62-2.42,0-3.88-1.52-3.88-3.93,0-1.06.45-2.22,1.27-2.92.82-.68,1.83-.97,2.89-.97.8,0,1.63.19,2.37.51-.11.28-.18.56-.23.85h-.08Z"/>
  <path class="cls-2" d="m13.35,5.96v-1.19l-.03-1.73-.02-.29c.19.01.39.06.57.06.16,0,.32-.05.48-.06-.01.09-.01.19-.02.28l-.03.75-.04,2.34c0,.28-.01.58-.01.87,0,.39.01.76.08,1.14.21,1.26,1.15,1.8,2.35,1.8.39,0,1.01-.13,1.33-.35.32-.22.6-.58.76-.93.29-.66.29-1.73.3-2.43,0-.43.02-.85.02-1.28,0-.4-.02-.78-.03-1.18l-.04-1c.26.03.51.07.78,0-.01.45-.07.9-.09,1.34l-.11,3.05c-.01.41-.05.95-.18,1.34-.11.34-.36.83-.62,1.08-.64.63-1.47.86-2.34.86-.65,0-1.31-.11-1.89-.41-.22-.11-.32-.21-.5-.37-.69-.63-.78-1.6-.76-2.48l.04-1.21Z"/>
  <path class="cls-1" d="m13.35,5.96v-1.19l-.03-1.73-.02-.29c.19.01.39.06.57.06.16,0,.32-.05.48-.06-.01.09-.01.19-.02.28l-.03.75-.04,2.34c0,.28-.01.58-.01.87,0,.39.01.76.08,1.14.21,1.26,1.15,1.8,2.35,1.8.39,0,1.01-.13,1.33-.35.32-.22.6-.58.76-.93.29-.66.29-1.73.3-2.43,0-.43.02-.85.02-1.28,0-.4-.02-.78-.03-1.18l-.04-1c.26.03.51.07.78,0-.01.45-.07.9-.09,1.34l-.11,3.05c-.01.41-.05.95-.18,1.34-.11.34-.36.83-.62,1.08-.64.63-1.47.86-2.34.86-.65,0-1.31-.11-1.89-.41-.22-.11-.32-.21-.5-.37-.69-.63-.78-1.6-.76-2.48l.04-1.21Z"/>
  <path class="cls-2" d="m21.83,3.01l-.02-.25s.09,0,.13.02c.29.07.6.02.9-.02-.02.1-.02.21-.02.32l-.05,2.91c0,.07.01.13.01.19,0,.04.06.08.1.07,0,0,.23-.17.31-.23.16-.14.3-.29.45-.44l.54-.53,2.14-2.29c.13,0,.27.02.4.02.15,0,.32-.02.47-.02l-2.47,2.42-.93.95c.88,1.01,1.79,2.01,2.67,3.03l.89,1.05v.08c-.2-.01-.38-.06-.58-.06-.21,0-.41.04-.62.06-.26-.32-.51-.65-.78-.97l-1.49-1.77-.91-1.04c-.05-.04-.12-.08-.18-.03-.01.05-.01.1-.01.16,0,.39.01.78.01,1.17v1.12l.04,1.09.02.28c-.29-.06-.55-.04-.84-.01h-.21c0-.09,0-.18.02-.28l.06-1.95c.01-.5.02-1.02.02-1.53s-.01-.98-.02-1.46l-.03-1.04-.02-1Z"/>
  <path class="cls-1" d="m21.83,3.01l-.02-.25s.09,0,.13.02c.29.07.6.02.9-.02-.02.1-.02.21-.02.32l-.05,2.91c0,.07.01.13.01.19,0,.04.06.08.1.07,0,0,.23-.17.31-.23.16-.14.3-.29.45-.44l.54-.53,2.14-2.29c.13,0,.27.02.4.02.15,0,.32-.02.47-.02l-2.47,2.42-.93.95c.88,1.01,1.79,2.01,2.67,3.03l.89,1.05v.08c-.2-.01-.38-.06-.58-.06-.21,0-.41.04-.62.06-.26-.32-.51-.65-.78-.97l-1.49-1.77-.91-1.04c-.05-.04-.12-.08-.18-.03-.01.05-.01.1-.01.16,0,.39.01.78.01,1.17v1.12l.04,1.09.02.28c-.29-.06-.55-.04-.84-.01h-.21c0-.09,0-.18.02-.28l.06-1.95c.01-.5.02-1.02.02-1.53s-.01-.98-.02-1.46l-.03-1.04-.02-1Z"/>
  <path class="cls-2" d="m29.43,2.77l1.46-.02c.79-.01,1.8.05,2.21.85.13.25.23.57.23.86,0,1.28-1.15,1.9-2.26,2.1l2.27,2.88.53.61.19.24c-.22-.01-.43-.06-.65-.06-.21,0-.41.05-.62.06-.22-.31-.44-.62-.67-.93l-1.3-1.69-.88-1.03h-.42v1.35l.04,2.29c-.16-.01-.34-.04-.51-.04-.18,0-.36.02-.54.04.01-.43.05-.85.06-1.28l.05-3.85-.07-2.14v-.27l.86.02Zm.08,3.45c.18.01.36.02.53.02.36,0,.57-.01.92-.08.8-.17,1.41-.72,1.41-1.58,0-.36-.1-.71-.36-.98-.29-.3-.45-.35-.85-.41-.21-.03-.49-.03-.69-.03-.3,0-.61.01-.9.02l-.04,3.03Z"/>
  <path class="cls-1" d="m29.43,2.77l1.46-.02c.79-.01,1.8.05,2.21.85.13.25.23.57.23.86,0,1.28-1.15,1.9-2.26,2.1l2.27,2.88.53.61.19.24c-.22-.01-.43-.06-.65-.06-.21,0-.41.05-.62.06-.22-.31-.44-.62-.67-.93l-1.3-1.69-.88-1.03h-.42v1.35l.04,2.29c-.16-.01-.34-.04-.51-.04-.18,0-.36.02-.54.04.01-.43.05-.85.06-1.28l.05-3.85-.07-2.14v-.27l.86.02m.08,3.45c.18.01.36.02.53.02.36,0,.57-.01.92-.08.8-.17,1.41-.72,1.41-1.58,0-.36-.1-.71-.36-.98-.29-.3-.45-.35-.85-.41-.21-.03-.49-.03-.69-.03-.3,0-.61.01-.9.02l-.04,3.03Z"/>
  <path class="cls-2" d="m38.09,2.61l3.13,7.28.19.4c-.19-.02-.37-.04-.56-.04s-.41,0-.6.04l-.1-.32-.49-1.32-.54-1.3-1.32-.03-1.48.03c-.39.97-.78,1.94-1.08,2.94-.12-.04-.25-.04-.39-.04s-.27.01-.41.04l3.44-7.67h.22Zm.85,4.27l-1.22-2.82-1.2,2.81c.44,0,.88.01,1.32.01h1.1m-.99-4.77h-.38l1.38-1.37c.1-.1.19-.18.27-.28.1-.07.18-.18.3-.2.18-.04.39.05.44.23.03.08.05.23-.01.3-.05.12-.18.18-.27.24l-1.73,1.08Z"/>
  <path class="cls-1" d="m38.09,2.61l3.13,7.28.19.4c-.19-.02-.37-.04-.56-.04s-.41,0-.6.04l-.1-.32-.49-1.32-.54-1.3-1.32-.03-1.48.03c-.39.97-.78,1.94-1.08,2.94-.12-.04-.25-.04-.39-.04s-.27.01-.41.04l3.44-7.67h.22m.85,4.27l-1.22-2.82-1.2,2.81c.44,0,.88.01,1.32.01h1.1m-.99-4.77h-.38l1.38-1.37c.1-.1.19-.18.27-.28.1-.07.18-.18.3-.2.18-.04.39.05.44.23.03.08.05.23-.01.3-.05.12-.18.18-.27.24l-1.73,1.08Z"/>
  <path class="cls-2" d="m43.5,2.77l1.46-.02c.79-.01,1.8.05,2.21.85.14.25.23.57.23.86,0,1.28-1.15,1.9-2.26,2.1l2.27,2.88.53.61.19.24c-.22-.01-.43-.06-.65-.06s-.41.05-.62.06c-.22-.31-.44-.62-.67-.93l-1.3-1.69-.88-1.03h-.42v1.35l.05,2.29c-.17-.01-.34-.04-.51-.04-.18,0-.36.02-.54.04.01-.43.04-.85.05-1.28l.06-3.85-.07-2.14v-.27l.86.02Zm.07,3.45c.17.01.35.02.53.02.35,0,.57-.01.91-.08.81-.17,1.41-.72,1.41-1.58,0-.36-.1-.71-.36-.98-.29-.3-.45-.35-.85-.41-.21-.03-.49-.03-.7-.03-.3,0-.61.01-.9.02l-.04,3.03Z"/>
  <path class="cls-1" d="m43.5,2.77l1.46-.02c.79-.01,1.8.05,2.21.85.14.25.23.57.23.86,0,1.28-1.15,1.9-2.26,2.1l2.27,2.88.53.61.19.24c-.22-.01-.43-.06-.65-.06s-.41.05-.62.06c-.22-.31-.44-.62-.67-.93l-1.3-1.69-.88-1.03h-.42v1.35l.05,2.29c-.17-.01-.34-.04-.51-.04-.18,0-.36.02-.54.04.01-.43.04-.85.05-1.28l.06-3.85-.07-2.14v-.27l.86.02m.07,3.45c.17.01.35.02.53.02.35,0,.57-.01.91-.08.81-.17,1.41-.72,1.41-1.58,0-.36-.1-.71-.36-.98-.29-.3-.45-.35-.85-.41-.21-.03-.49-.03-.7-.03-.3,0-.61.01-.9.02l-.04,3.03Z"/>
  <path class="cls-2" d="m49.52,6.27v-3.68h.19l5.42,5.79.08.07c.02-.4.03-.81.03-1.2v-3.53l-.05-.88v-.09c.15.02.31.03.46.03.09,0,.19,0,.27-.03-.01.09-.01.17-.02.26l-.05,1.08-.1,2.61-.04,2.47.04,1.25h-.17c-.22-.27-.44-.53-.67-.78l-1.8-2-3.07-3.26-.02,1.03c0,.55,0,1.09,0,1.63v.88l.04,1.3.05,1.06c-.25-.05-.51-.05-.76,0,.05-.49.08-.97.09-1.45l.08-2.56Z"/>
  <path class="cls-1" d="m49.52,6.27v-3.68h.19l5.42,5.79.08.07c.02-.4.03-.81.03-1.2v-3.53l-.05-.88v-.09c.15.02.31.03.46.03.09,0,.19,0,.27-.03-.01.09-.01.17-.02.26l-.05,1.08-.1,2.61-.04,2.47.04,1.25h-.17c-.22-.27-.44-.53-.67-.78l-1.8-2-3.07-3.26-.02,1.03c0,.55,0,1.09,0,1.63v.88l.04,1.3.05,1.06c-.25-.05-.51-.05-.76,0,.05-.49.08-.97.09-1.45l.08-2.56Z"/>
  <path class="cls-2" d="m60.73,2.6l3.13,7.28.18.4c-.18-.02-.37-.04-.56-.04s-.41,0-.6.04l-.1-.32-.5-1.32-.54-1.3-1.32-.03-1.48.03c-.39.97-.78,1.94-1.08,2.94-.12-.04-.25-.04-.39-.04s-.27.01-.41.04l3.44-7.67h.22Zm.85,4.27l-1.22-2.82-1.2,2.81c.44,0,.88.01,1.32.01h1.1Z"/>
  <path class="cls-1" d="m60.73,2.6l3.13,7.28.18.4c-.18-.02-.37-.04-.56-.04s-.41,0-.6.04l-.1-.32-.5-1.32-.54-1.3-1.32-.03-1.48.03c-.39.97-.78,1.94-1.08,2.94-.12-.04-.25-.04-.39-.04s-.27.01-.41.04l3.44-7.67h.22m.85,4.27l-1.22-2.82-1.2,2.81c.44,0,.88.01,1.32.01h1.1Z"/>
  <path class="cls-2" d="m1,19.77c.05.39-.02.66-.36.66s-.42-.21-.37-.66v-1.86c-.05-.58.03-.88.37-.88s.41.3.36.88v1.86Zm1.8,0c.04.39-.02.66-.37.66s-.41-.21-.37-.66v-1.86c-.04-.58.03-.88.37-.88s.41.3.37.88v1.86Z"/>
  <path class="cls-1" d="m1,19.77c.05.39-.02.66-.36.66s-.42-.21-.37-.66v-1.86c-.05-.58.03-.88.37-.88s.41.3.36.88v1.86m1.8,0c.04.39-.02.66-.37.66s-.41-.21-.37-.66v-1.86c-.04-.58.03-.88.37-.88s.41.3.37.88v1.86Z"/>
  <path class="cls-2" d="m4.48,20.37v-1.19l-.03-1.73-.02-.29c.18.01.39.06.57.06.17,0,.32-.05.49-.06-.01.09-.01.19-.02.28l-.03.75-.04,2.33c0,.28-.01.58-.01.87,0,.38.01.76.08,1.14.21,1.26,1.16,1.79,2.36,1.79.39,0,1.01-.13,1.33-.35.32-.22.6-.58.76-.92.28-.66.28-1.73.3-2.43,0-.43.02-.85.02-1.28,0-.4-.02-.78-.04-1.18l-.04-1c.26.03.52.07.78,0-.01.45-.07.91-.09,1.35l-.11,3.05c-.01.42-.05.95-.18,1.34-.11.34-.36.84-.62,1.08-.64.63-1.48.86-2.34.86-.65,0-1.31-.11-1.9-.41-.22-.11-.32-.21-.5-.36-.69-.63-.78-1.6-.76-2.48l.04-1.22Z"/>
  <path class="cls-1" d="m4.48,20.37v-1.19l-.03-1.73-.02-.29c.18.01.39.06.57.06.17,0,.32-.05.49-.06-.01.09-.01.19-.02.28l-.03.75-.04,2.33c0,.28-.01.58-.01.87,0,.38.01.76.08,1.14.21,1.26,1.16,1.79,2.36,1.79.39,0,1.01-.13,1.33-.35.32-.22.6-.58.76-.92.28-.66.28-1.73.3-2.43,0-.43.02-.85.02-1.28,0-.4-.02-.78-.04-1.18l-.04-1c.26.03.52.07.78,0-.01.45-.07.91-.09,1.35l-.11,3.05c-.01.42-.05.95-.18,1.34-.11.34-.36.84-.62,1.08-.64.63-1.48.86-2.34.86-.65,0-1.31-.11-1.9-.41-.22-.11-.32-.21-.5-.36-.69-.63-.78-1.6-.76-2.48l.04-1.22Z"/>
  <path class="cls-2" d="m15.8,23.24c.43.7.92,1.12,1.78,1.12s1.53-.71,1.53-1.58c0-.74-.5-1.11-1.11-1.39-.52-.24-1.08-.42-1.55-.74-.49-.33-.78-.91-.78-1.51,0-1.42,1.12-2.11,2.45-2.11.53,0,1.17.16,1.57.53-.13.28-.21.6-.3.9h-.11c-.23-.59-.72-.99-1.36-.99-.76,0-1.39.54-1.39,1.32,0,.42.15.76.48,1.02.17.15.22.17.43.27.13.07.28.13.42.19.17.07.33.13.5.21.16.08.35.14.51.23.24.13.51.26.69.47.28.35.45.72.45,1.17,0,1.57-1.22,2.49-2.72,2.49-.54,0-1.42-.21-1.79-.62.11-.32.17-.65.21-.98h.11Zm3.55-8.52l-1.36,1.84h-.6l-1.36-1.84h.38l1.29,1.16,1.28-1.16h.37Z"/>
  <path class="cls-1" d="m15.8,23.24c.43.7.92,1.12,1.78,1.12s1.53-.71,1.53-1.58c0-.74-.5-1.11-1.11-1.39-.52-.24-1.08-.42-1.55-.74-.49-.33-.78-.91-.78-1.51,0-1.42,1.12-2.11,2.45-2.11.53,0,1.17.16,1.57.53-.13.28-.21.6-.3.9h-.11c-.23-.59-.72-.99-1.36-.99-.76,0-1.39.54-1.39,1.32,0,.42.15.76.48,1.02.17.15.22.17.43.27.13.07.28.13.42.19.17.07.33.13.5.21.16.08.35.14.51.23.24.13.51.26.69.47.28.35.45.72.45,1.17,0,1.57-1.22,2.49-2.72,2.49-.54,0-1.42-.21-1.79-.62.11-.32.17-.65.21-.98h.11m3.55-8.52l-1.36,1.84h-.6l-1.36-1.84h.38l1.29,1.16,1.28-1.16h.37Z"/>
  <path class="cls-2" d="m24.33,17.02l3.13,7.28.19.4c-.19-.02-.38-.03-.57-.03s-.4,0-.6.03l-.1-.32-.49-1.32-.54-1.3-1.33-.03-1.47.03c-.39.97-.78,1.94-1.08,2.94-.12-.03-.25-.03-.38-.03s-.28.01-.41.03l3.43-7.67h.22Zm.85,4.27l-1.22-2.82-1.2,2.81c.44,0,.88,0,1.32,0h1.1Z"/>
  <path class="cls-1" d="m24.33,17.02l3.13,7.28.19.4c-.19-.02-.38-.03-.57-.03s-.4,0-.6.03l-.1-.32-.49-1.32-.54-1.3-1.33-.03-1.47.03c-.39.97-.78,1.94-1.08,2.94-.12-.03-.25-.03-.38-.03s-.28.01-.41.03l3.43-7.67h.22m.85,4.27l-1.22-2.82-1.2,2.81c.44,0,.88,0,1.32,0h1.1Z"/>
  <path class="cls-2" d="m29.74,17.18l1.47-.02c.79-.01,1.79.05,2.21.85.13.25.23.57.23.86,0,1.28-1.15,1.89-2.26,2.09l2.27,2.87.53.62.19.24c-.22,0-.43-.05-.65-.05s-.41.04-.62.05c-.22-.31-.44-.62-.67-.92l-1.3-1.69-.88-1.04h-.42v1.36l.04,2.29c-.16,0-.34-.03-.51-.03-.18,0-.36.02-.54.03.01-.43.04-.85.05-1.27l.06-3.85-.07-2.14v-.27l.86.02Zm.08,3.45c.18.01.35.02.53.02.36,0,.58,0,.91-.08.81-.17,1.41-.72,1.41-1.57,0-.36-.1-.72-.36-.98-.29-.3-.45-.34-.85-.41-.21-.03-.49-.03-.69-.03-.3,0-.61.01-.9.02l-.05,3.03Z"/>
  <path class="cls-1" d="m29.74,17.18l1.47-.02c.79-.01,1.79.05,2.21.85.13.25.23.57.23.86,0,1.28-1.15,1.89-2.26,2.09l2.27,2.87.53.62.19.24c-.22,0-.43-.05-.65-.05s-.41.04-.62.05c-.22-.31-.44-.62-.67-.92l-1.3-1.69-.88-1.04h-.42v1.36l.04,2.29c-.16,0-.34-.03-.51-.03-.18,0-.36.02-.54.03.01-.43.04-.85.05-1.27l.06-3.85-.07-2.14v-.27l.86.02m.08,3.45c.18.01.35.02.53.02.36,0,.58,0,.91-.08.81-.17,1.41-.72,1.41-1.57,0-.36-.1-.72-.36-.98-.29-.3-.45-.34-.85-.41-.21-.03-.49-.03-.69-.03-.3,0-.61.01-.9.02l-.05,3.03Z"/>
  <path class="cls-2" d="m36.32,17.06l1.5,2.91c.53,1.02,1.09,1.99,1.7,3,.29-.52.57-1.04.86-1.56l1.44-2.67c.31-.56.63-1.11.94-1.67h.14l.54,4.77c.1.96.24,1.91.36,2.86-.17-.02-.33-.03-.5-.03s-.36,0-.54.03l-.35-4c-.05-.55-.13-1.1-.2-1.64l-1.55,2.84-.59,1.14c-.26.52-.49,1.05-.74,1.58h-.12l-.61-1.24c-.71-1.45-1.48-2.89-2.23-4.32l-.47,4.3-.06,1.1c-.01.09-.01.17-.01.24-.25-.03-.52-.04-.77,0v-.1s.38-2.27.38-2.27l.54-4c.07-.42.11-.85.16-1.27h.19Z"/>
  <path class="cls-1" d="m36.32,17.06l1.5,2.91c.53,1.02,1.09,1.99,1.7,3,.29-.52.57-1.04.86-1.56l1.44-2.67c.31-.56.63-1.11.94-1.67h.14l.54,4.77c.1.96.24,1.91.36,2.86-.17-.02-.33-.03-.5-.03s-.36,0-.54.03l-.35-4c-.05-.55-.13-1.1-.2-1.64l-1.55,2.84-.59,1.14c-.26.52-.49,1.05-.74,1.58h-.12l-.61-1.24c-.71-1.45-1.48-2.89-2.23-4.32l-.47,4.3-.06,1.1c-.01.09-.01.17-.01.24-.25-.03-.52-.04-.77,0v-.1s.38-2.27.38-2.27l.54-4c.07-.42.11-.85.16-1.27h.19Z"/>
  <path class="cls-2" d="m48.19,17.02l3.13,7.28.19.4c-.19-.02-.37-.03-.56-.03s-.41,0-.6.03l-.1-.32-.5-1.32-.54-1.3-1.32-.03-1.48.03c-.39.97-.78,1.94-1.08,2.94-.12-.03-.25-.03-.39-.03s-.27.01-.41.03l3.43-7.67h.22Zm.85,4.27l-1.22-2.82-1.2,2.81c.44,0,.88,0,1.32,0h1.1Z"/>
  <path class="cls-1" d="m48.19,17.02l3.13,7.28.19.4c-.19-.02-.37-.03-.56-.03s-.41,0-.6.03l-.1-.32-.5-1.32-.54-1.3-1.32-.03-1.48.03c-.39.97-.78,1.94-1.08,2.94-.12-.03-.25-.03-.39-.03s-.27.01-.41.03l3.43-7.67h.22m.85,4.27l-1.22-2.82-1.2,2.81c.44,0,.88,0,1.32,0h1.1Z"/>
  <path class="cls-2" d="m52.89,20.69v-3.68h.19l5.42,5.79.08.07c.02-.4.03-.81.03-1.2v-3.52l-.04-.88v-.09c.14.02.31.03.46.03.09,0,.19,0,.27-.03-.01.09-.01.18-.02.26l-.05,1.08-.1,2.61-.03,2.46.03,1.24h-.17c-.22-.27-.44-.53-.67-.78l-1.79-1.99-3.08-3.27-.02,1.04c-.01.55,0,1.09,0,1.63v.88l.04,1.3.05,1.06c-.25-.04-.51-.04-.76,0,.04-.49.08-.97.09-1.45l.07-2.55Z"/>
  <path class="cls-1" d="m52.89,20.69v-3.68h.19l5.42,5.79.08.07c.02-.4.03-.81.03-1.2v-3.52l-.04-.88v-.09c.14.02.31.03.46.03.09,0,.19,0,.27-.03-.01.09-.01.18-.02.26l-.05,1.08-.1,2.61-.03,2.46.03,1.24h-.17c-.22-.27-.44-.53-.67-.78l-1.79-1.99-3.08-3.27-.02,1.04c-.01.55,0,1.09,0,1.63v.88l.04,1.3.05,1.06c-.25-.04-.51-.04-.76,0,.04-.49.08-.97.09-1.45l.07-2.55Z"/>
  <path class="cls-2" d="m61.38,20.37v-1.19l-.03-1.73-.02-.29c.19.01.38.06.57.06.16,0,.32-.05.48-.06-.01.09-.01.19-.02.28l-.03.75-.04,2.33c0,.28-.01.58-.01.87,0,.38.01.76.08,1.14.21,1.26,1.15,1.79,2.36,1.79.38,0,1.01-.13,1.33-.35.32-.22.61-.58.76-.92.29-.66.29-1.73.3-2.43,0-.43.02-.85.02-1.28,0-.4-.02-.78-.03-1.18l-.04-1c.26.03.52.07.78,0-.01.46-.07.91-.09,1.35l-.11,3.05c-.01.42-.04.95-.17,1.34-.11.34-.37.84-.62,1.08-.64.63-1.48.86-2.35.86-.65,0-1.31-.11-1.9-.41-.22-.11-.32-.21-.5-.36-.69-.63-.78-1.6-.76-2.48l.04-1.21Zm2.24-4.84c0-.58.51-1.1,1.1-1.1s1.09.51,1.09,1.1-.5,1.09-1.09,1.09-1.1-.49-1.1-1.09m1.77,0c0-.35-.31-.68-.67-.68s-.68.32-.68.68.33.68.68.68.67-.32.67-.68"/>
  <path class="cls-1" d="m61.38,20.37v-1.19l-.03-1.73-.02-.29c.19.01.38.06.57.06.16,0,.32-.05.48-.06-.01.09-.01.19-.02.28l-.03.75-.04,2.33c0,.28-.01.58-.01.87,0,.38.01.76.08,1.14.21,1.26,1.15,1.79,2.36,1.79.38,0,1.01-.13,1.33-.35.32-.22.61-.58.76-.92.29-.66.29-1.73.3-2.43,0-.43.02-.85.02-1.28,0-.4-.02-.78-.03-1.18l-.04-1c.26.03.52.07.78,0-.01.46-.07.91-.09,1.35l-.11,3.05c-.01.42-.04.95-.17,1.34-.11.34-.37.84-.62,1.08-.64.63-1.48.86-2.35.86-.65,0-1.31-.11-1.9-.41-.22-.11-.32-.21-.5-.36-.69-.63-.78-1.6-.76-2.48l.04-1.21m2.24-4.84c0-.58.51-1.1,1.1-1.1s1.09.51,1.09,1.1-.5,1.09-1.09,1.09-1.1-.49-1.1-1.09m1.77,0c0-.35-.31-.68-.67-.68s-.68.32-.68.68.33.68.68.68.67-.32.67-.68Z"/>
  <path class="cls-2" d="m70.14,19.77c.04.39-.02.66-.37.66s-.41-.21-.37-.66v-1.86c-.04-.58.03-.88.37-.88s.41.3.37.88v1.86Zm1.79,0c.04.39-.02.66-.36.66s-.42-.21-.38-.66v-1.86c-.04-.58.03-.88.38-.88s.41.3.36.88v1.86Z"/>
  <path class="cls-1" d="m70.14,19.77c.04.39-.02.66-.37.66s-.41-.21-.37-.66v-1.86c-.04-.58.03-.88.37-.88s.41.3.37.88v1.86m1.79,0c.04.39-.02.66-.36.66s-.42-.21-.38-.66v-1.86c-.04-.58.03-.88.38-.88s.41.3.36.88v1.86Z"/>
  <path class="cls-2" d="m20.61,31.84l-.02-.25s.09,0,.14.02c.29.07.6.02.9-.02-.02.1-.02.21-.02.32l-.05,2.92c0,.07.01.13.01.19,0,.03.07.08.1.07,0,0,.23-.17.31-.23.15-.14.3-.29.45-.44l.54-.52,2.14-2.29c.13,0,.27.02.4.02.15,0,.32-.02.47-.02l-2.47,2.42-.94.95c.88,1.01,1.8,2.01,2.68,3.03l.89,1.05v.08c-.2-.01-.38-.06-.58-.06-.21,0-.41.05-.62.06-.27-.32-.51-.65-.78-.97l-1.49-1.77-.92-1.03c-.05-.05-.12-.08-.18-.03-.01.05-.01.1-.01.15,0,.39.01.78.01,1.17v1.12l.04,1.09.02.28c-.29-.06-.55-.04-.84-.01h-.21c0-.09,0-.18.02-.28l.06-1.95c0-.51.02-1.02.02-1.53s-.01-.98-.02-1.46l-.03-1.04-.02-1Z"/>
  <path class="cls-1" d="m20.61,31.84l-.02-.25s.09,0,.14.02c.29.07.6.02.9-.02-.02.1-.02.21-.02.32l-.05,2.92c0,.07.01.13.01.19,0,.03.07.08.1.07,0,0,.23-.17.31-.23.15-.14.3-.29.45-.44l.54-.52,2.14-2.29c.13,0,.27.02.4.02.15,0,.32-.02.47-.02l-2.47,2.42-.94.95c.88,1.01,1.8,2.01,2.68,3.03l.89,1.05v.08c-.2-.01-.38-.06-.58-.06-.21,0-.41.05-.62.06-.27-.32-.51-.65-.78-.97l-1.49-1.77-.92-1.03c-.05-.05-.12-.08-.18-.03-.01.05-.01.1-.01.15,0,.39.01.78.01,1.17v1.12l.04,1.09.02.28c-.29-.06-.55-.04-.84-.01h-.21c0-.09,0-.18.02-.28l.06-1.95c0-.51.02-1.02.02-1.53s-.01-.98-.02-1.46l-.03-1.04-.02-1Z"/>
  <path class="cls-2" d="m27.3,35.03v-.62c.53-.36,1.12-.63,1.77-.63.49,0,1.01.16,1.36.52.41.42.43.8.42,1.35l-.03,1.32c0,.26-.02.53-.02.79,0,.32-.05.99.42.99.09,0,.17,0,.25-.04v.24s-.05.01-.08.03c-.09.02-.16.05-.25.08-.57.1-1.05.01-1.14-.64l-.1.1c-.46.46-.97.7-1.63.7-.78,0-1.46-.53-1.46-1.34,0-.46.23-.99.65-1.21.43-.23.91-.3,1.39-.37.32-.06.67-.09.97-.26.07-.03.12-.06.17-.12.04-.11.03-.24.03-.36,0-.82-.46-1.31-1.29-1.31-.47,0-.95.23-1.21.63-.04.04-.08.1-.1.15h-.12Zm2.72,1.33s-.07.02-.1.05l-.33.06c-.75.14-1.87.26-1.87,1.26,0,.69.41,1.03,1.08,1.03.29,0,.67-.21.89-.4.07-.08.13-.15.2-.23.05-.03.07-.08.09-.12l.04-1.64Z"/>
  <path class="cls-1" d="m27.3,35.03v-.62c.53-.36,1.12-.63,1.77-.63.49,0,1.01.16,1.36.52.41.42.43.8.42,1.35l-.03,1.32c0,.26-.02.53-.02.79,0,.32-.05.99.42.99.09,0,.17,0,.25-.04v.24s-.05.01-.08.03c-.09.02-.16.05-.25.08-.57.1-1.05.01-1.14-.64l-.1.1c-.46.46-.97.7-1.63.7-.78,0-1.46-.53-1.46-1.34,0-.46.23-.99.65-1.21.43-.23.91-.3,1.39-.37.32-.06.67-.09.97-.26.07-.03.12-.06.17-.12.04-.11.03-.24.03-.36,0-.82-.46-1.31-1.29-1.31-.47,0-.95.23-1.21.63-.04.04-.08.1-.1.15h-.12m2.72,1.33s-.07.02-.1.05l-.33.06c-.75.14-1.87.26-1.87,1.26,0,.69.41,1.03,1.08,1.03.29,0,.67-.21.89-.4.07-.08.13-.15.2-.23.05-.03.07-.08.09-.12l.04-1.64Z"/>
  <path class="cls-2" d="m35.56,31.46l-1.36,1.84h-.6l-1.35-1.84h.37l1.29,1.16,1.29-1.16h.36Zm-2.96,6.61c.26.43.75.78,1.26.78s1.08-.39,1.08-.97c0-.76-.7-.87-1.28-1.05-.31-.1-.63-.19-.87-.41-.27-.24-.45-.64-.45-.99,0-1.06.8-1.63,1.79-1.63.41,0,.79.08,1.17.25.02.01.06.02.08.04-.11.25-.2.52-.26.78h-.1c-.14-.37-.53-.71-.94-.71-.55,0-.99.3-.99.89,0,.66.5.86,1.05,1,.24.07.79.22.99.37.36.29.55.58.55,1.06,0,.68-.33,1.12-.88,1.47-.29.19-.81.27-1.14.27-.45,0-.99-.12-1.38-.35.09-.27.18-.53.23-.8h.09Z"/>
  <path class="cls-1" d="m35.56,31.46l-1.36,1.84h-.6l-1.35-1.84h.37l1.29,1.16,1.29-1.16h.36m-2.96,6.61c.26.43.75.78,1.26.78s1.08-.39,1.08-.97c0-.76-.7-.87-1.28-1.05-.31-.1-.63-.19-.87-.41-.27-.24-.45-.64-.45-.99,0-1.06.8-1.63,1.79-1.63.41,0,.79.08,1.17.25.02.01.06.02.08.04-.11.25-.2.52-.26.78h-.1c-.14-.37-.53-.71-.94-.71-.55,0-.99.3-.99.89,0,.66.5.86,1.05,1,.24.07.79.22.99.37.36.29.55.58.55,1.06,0,.68-.33,1.12-.88,1.47-.29.19-.81.27-1.14.27-.45,0-.99-.12-1.38-.35.09-.27.18-.53.23-.8h.09Z"/>
  <path class="cls-2" d="m37.09,35.03v-.62c.53-.36,1.12-.63,1.77-.63.5,0,1.01.16,1.37.52.41.42.43.8.42,1.35l-.03,1.32c0,.26-.02.53-.02.79,0,.32-.06.99.42.99.09,0,.18,0,.26-.04v.24s-.06.01-.08.03c-.09.02-.16.05-.25.08-.57.1-1.05.01-1.14-.64l-.1.1c-.46.46-.97.7-1.63.7-.78,0-1.46-.53-1.46-1.34,0-.46.23-.99.65-1.21.43-.23.9-.3,1.39-.37.32-.06.67-.09.97-.26.07-.03.12-.06.16-.12.04-.11.03-.24.03-.36,0-.82-.46-1.31-1.29-1.31-.47,0-.95.23-1.21.63-.05.04-.08.1-.1.15h-.12Zm2.72,1.33s-.07.02-.1.05l-.33.06c-.75.14-1.87.26-1.87,1.26,0,.69.4,1.03,1.08,1.03.3,0,.67-.21.89-.4.07-.08.13-.15.2-.23.04-.03.07-.08.09-.12l.05-1.64Z"/>
  <path class="cls-1" d="m37.09,35.03v-.62c.53-.36,1.12-.63,1.77-.63.5,0,1.01.16,1.37.52.41.42.43.8.42,1.35l-.03,1.32c0,.26-.02.53-.02.79,0,.32-.06.99.42.99.09,0,.18,0,.26-.04v.24s-.06.01-.08.03c-.09.02-.16.05-.25.08-.57.1-1.05.01-1.14-.64l-.1.1c-.46.46-.97.7-1.63.7-.78,0-1.46-.53-1.46-1.34,0-.46.23-.99.65-1.21.43-.23.9-.3,1.39-.37.32-.06.67-.09.97-.26.07-.03.12-.06.16-.12.04-.11.03-.24.03-.36,0-.82-.46-1.31-1.29-1.31-.47,0-.95.23-1.21.63-.05.04-.08.1-.1.15h-.12m2.72,1.33s-.07.02-.1.05l-.33.06c-.75.14-1.87.26-1.87,1.26,0,.69.4,1.03,1.08,1.03.3,0,.67-.21.89-.4.07-.08.13-.15.2-.23.04-.03.07-.08.09-.12l.05-1.64Z"/>
  <path class="cls-2" d="m45.4,37.22l-.43,1.07-.26.73-.03.09c-.11-.02-.21-.04-.32-.04-.12,0-.25,0-.38.04-.02-.09-.05-.17-.09-.24l-.7-1.8-.94-2.25-.41-.92h.1c.14.02.3.03.44.03.12,0,.25,0,.38-.02h.12c.02.07.04.14.08.23l.23.71.66,1.7.44,1.08.18.4.1.1c.06-.1.1-.19.14-.29l.62-1.57.92-2.35c.1.01.2.02.29.02.12,0,.24,0,.36-.03-.02.08-.06.15-.09.22l-1.41,3.1Z"/>
  <path class="cls-1" d="m45.4,37.22l-.43,1.07-.26.73-.03.09c-.11-.02-.21-.04-.32-.04-.12,0-.25,0-.38.04-.02-.09-.05-.17-.09-.24l-.7-1.8-.94-2.25-.41-.92h.1c.14.02.3.03.44.03.12,0,.25,0,.38-.02h.12c.02.07.04.14.08.23l.23.71.66,1.7.44,1.08.18.4.1.1c.06-.1.1-.19.14-.29l.62-1.57.92-2.35c.1.01.2.02.29.02.12,0,.24,0,.36-.03-.02.08-.06.15-.09.22l-1.41,3.1Z"/>
  <path class="cls-2" d="m48.1,35.03v-.62c.53-.36,1.12-.63,1.77-.63.49,0,1.01.16,1.36.52.41.42.43.8.42,1.35l-.03,1.32c0,.26-.02.53-.02.79,0,.32-.06.99.42.99.09,0,.18,0,.26-.04v.24s-.06.01-.08.03c-.09.02-.17.05-.25.08-.58.1-1.05.01-1.14-.64l-.1.1c-.46.46-.97.7-1.63.7-.78,0-1.46-.53-1.46-1.34,0-.46.23-.99.65-1.21.43-.23.9-.3,1.39-.37.32-.06.67-.09.97-.26.07-.03.12-.06.17-.12.04-.11.03-.24.03-.36,0-.82-.46-1.31-1.29-1.31-.47,0-.94.23-1.21.63-.05.04-.08.1-.1.15h-.12Zm2.72,1.33s-.07.02-.1.05l-.33.06c-.75.14-1.87.26-1.87,1.26,0,.69.41,1.03,1.08,1.03.3,0,.67-.21.89-.4.06-.08.13-.15.2-.23.04-.03.07-.08.09-.12l.04-1.64Z"/>
  <path class="cls-1" d="m48.1,35.03v-.62c.53-.36,1.12-.63,1.77-.63.49,0,1.01.16,1.36.52.41.42.43.8.42,1.35l-.03,1.32c0,.26-.02.53-.02.79,0,.32-.06.99.42.99.09,0,.18,0,.26-.04v.24s-.06.01-.08.03c-.09.02-.17.05-.25.08-.58.1-1.05.01-1.14-.64l-.1.1c-.46.46-.97.7-1.63.7-.78,0-1.46-.53-1.46-1.34,0-.46.23-.99.65-1.21.43-.23.9-.3,1.39-.37.32-.06.67-.09.97-.26.07-.03.12-.06.17-.12.04-.11.03-.24.03-.36,0-.82-.46-1.31-1.29-1.31-.47,0-.94.23-1.21.63-.05.04-.08.1-.1.15h-.12m2.72,1.33s-.07.02-.1.05l-.33.06c-.75.14-1.87.26-1.87,1.26,0,.69.41,1.03,1.08,1.03.3,0,.67-.21.89-.4.06-.08.13-.15.2-.23.04-.03.07-.08.09-.12l.04-1.64Z"/>
</svg>