<?xml version="1.0" encoding="UTF-8"?>
<svg id="Vrstva_1" data-name="Vrstva 1" xmlns="http://www.w3.org/2000/svg" viewBox="0 0 69.2 63.7">
  <defs>
    <style>
      .cls-1 {
        fill: #f8e830;
      }

      .cls-1, .cls-2, .cls-3, .cls-4, .cls-5, .cls-6, .cls-7, .cls-8, .cls-9, .cls-10, .cls-11, .cls-12, .cls-13, .cls-14, .cls-15, .cls-16, .cls-17, .cls-18, .cls-19, .cls-20, .cls-21, .cls-22, .cls-23, .cls-24, .cls-25, .cls-26 {
        stroke-width: 0px;
      }

      .cls-2 {
        fill: #fefefe;
      }

      .cls-3 {
        fill: #0e1f1f;
      }

      .cls-4 {
        fill: #d1d6db;
      }

      .cls-5 {
        fill: #fdfdfe;
      }

      .cls-6 {
        fill: #f6f7f9;
      }

      .cls-7 {
        fill: #fcfdfd;
      }

      .cls-8 {
        fill: #fafafb;
      }

      .cls-9 {
        fill: #f8f9fa;
      }

      .cls-10 {
        fill: #d0d6db;
      }

      .cls-11 {
        fill: #f9e92e;
      }

      .cls-12 {
        fill: #242b4e;
      }

      .cls-13 {
        fill: #f6e635;
      }

      .cls-14 {
        fill: #c9cd86;
      }

      .cls-15 {
        fill: #1b2216;
      }

      .cls-16 {
        fill: #e3e17e;
      }

      .cls-17 {
        fill: #fbfbfc;
      }

      .cls-18 {
        fill: #20284b;
      }

      .cls-19 {
        fill: #161c33;
      }

      .cls-20 {
        fill: #242a4c;
      }

      .cls-21 {
        fill: #1f274a;
      }

      .cls-22 {
        fill: #edf0f7;
      }

      .cls-23 {
        fill: #fcfcfc;
      }

      .cls-24 {
        fill: #58581e;
      }

      .cls-25 {
        fill: #484d1f;
      }

      .cls-26 {
        fill: #22294c;
      }
    </style>
  </defs>
  <path class="cls-18" d="m55.64,30.83c.09.02.18.05.27.05.76,0,1.53,0,2.29,0,.65,0,.72.01,1.28.25.27-.46.52-.93.8-1.39.24-.39.41-.83.77-1.15.36-.31.76-.48,1.24-.48.82,0,1.64-.01,2.46,0,.77.02,1.35.39,1.69,1.08.33.67.24,1.33-.18,1.94-.17.24-.38.46-.56.7-.05.06-.08.18-.05.25.6,1.84,1.21,3.68,1.81,5.52.54,1.65,1.06,3.3,1.61,4.94.25.73.15,1.39-.34,1.98-.31.37-.72.58-1.2.63-.26.02-.52.02-.78.02-3.78,0-7.57,0-11.36,0-.22,0-.31.06-.37.28-.7,2.73-1.97,5.18-3.75,7.36-1.7,2.09-3.82,3.66-6.17,4.94-3.57,1.94-7.12,3.91-10.68,5.87-.2.11-.34.11-.54,0-4.08-2.33-8.17-4.65-12.25-6.99-1-.57-1.89-1.31-2.74-2.07-2.05-1.84-3.6-4.04-4.69-6.56-.36-.82-.61-1.68-.88-2.54-.07-.23-.16-.29-.39-.29-3.59,0-7.18,0-10.77,0-.69,0-1.29-.16-1.74-.73-.31-.38-.41-.82-.41-1.29C0,39.75,0,36.34,0,32.93c0-.82.32-1.43,1.04-1.83.31-.18.65-.21,1.01-.21,1.26,0,2.53,0,3.79,0,.67,0,1.33,0,2,0,.89.01,1.55.2,2.27.63.36-.22.7-.43,1.05-.65-.29-.61-.28-1.26.11-1.89.32-.52.81-.77,1.4-.88,0,0,.02.01.03.01,0,0,.02,0,.02-.01,0-.07.01-.13.01-.2,0-5.79,0-11.57,0-17.36.85-.19,1.69-.38,2.54-.57,1.55-.34,3.11-.67,4.66-1,.16-.03.26-.11.34-.27,1.32-2.68,3.23-4.82,5.77-6.4,1.93-1.19,4.02-1.92,6.27-2.19,3.6-.43,6.94.3,10.02,2.21,2.53,1.57,4.44,3.71,5.74,6.39.08.16.18.23.34.26,2.37.51,4.75,1.02,7.12,1.53.03,0,.05.02.07.04,0,6.68,0,13.36,0,20.04,0,.08.03.16.05.24m-39.81-2.72c0-.1.01-.19.01-.29,0-5.3,0-10.61,0-15.91,0-.07,0-.14,0-.2-.03-.12-.07-.12-.2,0-.39.09-.79.17-1.18.26-.02,0-.03,0-.05,0-.02.12-.06.23-.06.35,0,4.95,0,9.89,0,14.84,0,.27,0,.54,0,.81,0,.16.06.22.22.22.38,0,.75,0,1.13,0,.05,0,.1-.04.15-.06m36.65,2.78c.06.02.11.06.17.06.34,0,.68,0,1.01,0,.06,0,.12-.04.18-.05.02-.02.05-.05.07-.07.02-.08.05-.16.05-.24,0-6.12,0-12.24,0-18.37,0-.09-.04-.17-.06-.26-.02,0-.03,0-.05,0-.4-.08-.81-.17-1.21-.25h-.13c-.02.11-.05.22-.05.33,0,6.07,0,12.14,0,18.21,0,.21.01.42.02.64m-4.24-14.75c.02-.21.05-.42.04-.63-.04-.69-.08-1.39-.17-2.07-.18-1.53-.67-2.96-1.35-4.34-.03-.07-.08-.13-.12-.19-.56.3-1.11.59-1.66.87-.12.06-.18.12-.17.28.05.52.1,1.04.1,1.56,0,.62-.03,1.23-.05,1.85-.08.58-.16,1.16-.22,1.74-.01.13,0,.27.06.39.42.97.85,1.93,1.28,2.9.12.28.25.55.38.85.48-.22.94-.41,1.39-.63.09-.04.17-.16.19-.26.11-.77.19-1.54.29-2.31M29.05,6.04c-.09-.67-.18-1.35-.28-2.03-1.22.01-2.37.23-3.46.68-.27.11-.56.24-.77.43-1.14,1.03-2.04,2.25-2.8,3.58-.17.3-.19.57-.1.88.22.72.45,1.43.67,2.15.04.13.08.25.12.39,1.04-.34,2.06-.69,3.08-1.02.18-.06.32-.15.44-.3.97-1.32,1.94-2.64,2.93-3.94.2-.26.3-.5.18-.82m.67-.12q.06.42.43.51c1.33.34,2.67.66,3.99,1.03.46.13.88.17,1.27-.14.05-.03.1-.05.16-.07,1.24-.56,2.52-1,3.82-1.4.29-.09.29-.09.21-.39-.02-.14-.02-.29-.05-.43-.15-.56-.29-1.11-.46-1.66-.03-.11-.16-.23-.27-.27-1.18-.43-2.37-.78-3.61-.98-.6-.1-1.2-.19-1.8-.01-.32.09-.65.18-.97.29-.97.34-1.94.7-2.8,1.29-.15.1-.2.2-.17.38.1.62.17,1.24.26,1.86m14.47,7.43c.12-1.14.1-2.27-.04-3.4,0-.07-.05-.15-.1-.2-1.16-1.26-2.44-2.38-3.91-3.28-.09-.05-.24-.06-.34-.03-.38.11-.76.22-1.13.36-1.06.41-2.12.83-3.18,1.24-.21.08-.29.21-.29.45.03,1.1.04,2.2.06,3.3,0,.48.03.96.04,1.44.05.09.08.19.15.25.32.28.65.54.98.81.99.81,1.99,1.62,2.98,2.43.08.07.15.15.3.1,1.37-.53,2.74-1.05,4.12-1.58.08-.03.16-.14.17-.22.07-.55.13-1.11.19-1.66m-22.43,2.25c-.02.07-.05.13-.05.19-.03.62-.06,1.23-.07,1.85,0,.16.04.32.1.47.55,1.43,1.46,2.64,2.44,3.8.1.11.17.1.3.06,1.05-.33,2.11-.66,3.17-.98.23-.07.29-.18.31-.4.1-.84.21-1.68.33-2.52.09-.58.2-1.16.31-1.73.07-.21.21-.42.05-.65-.9-1.29-1.8-2.57-2.69-3.86-.08-.11-.15-.14-.29-.09-1.01.34-2.03.67-3.04,1.01-.08.03-.18.09-.21.17-.39.85-.59,1.74-.66,2.67m7.48,1.1c-.09.45-.2.9-.26,1.36-.14.92-.25,1.83-.38,2.75-.02.13,0,.23.12.32,1.1.85,2.19,1.71,3.29,2.56.1.07.24.12.36.12,1.02,0,2.04,0,3.07,0,.12,0,.25-.02.36-.07.78-.33,1.55-.68,2.33-1.02.17-.07.23-.2.25-.38.08-.57.18-1.14.26-1.71.13-.83.25-1.66.38-2.49.04-.22.09-.43.11-.65,0-.08-.05-.18-.12-.23-1.33-1.09-2.66-2.17-3.99-3.26-.11-.09-.19-.08-.31-.03-.39.16-.78.31-1.18.46-1.31.51-2.63,1.01-3.95,1.52-.09.03-.2.11-.23.19-.07.18-.09.37-.13.56m-14.15,28.6c.13.39.27.78.41,1.17.61,1.74,1.53,3.32,2.68,4.76,1.45,1.82,3.21,3.28,5.24,4.42,3.49,1.97,6.97,3.96,10.46,5.94.19.11.34.13.55.01,3.36-1.86,6.71-3.71,10.09-5.55,1.69-.92,3.22-2.02,4.55-3.41,1.78-1.86,3.1-4.01,3.92-6.45.11-.32.2-.65.31-1-.46,0-.87,0-1.29,0-.15,0-.19.08-.23.2-.37,1.28-.93,2.48-1.63,3.62-1.11,1.8-2.53,3.31-4.24,4.55-.01-.12-.04-.24-.04-.37,0-2.5,0-5,0-7.49,0-.12,0-.25,0-.38,0-.16-.05-.22-.22-.22-1.76,0-3.53,0-5.29,0-.05,0-.1.05-.15.08-.01.17-.04.34-.04.51,0,3.63,0,7.25,0,10.88,0,.1-.03.2-.05.3,0-.04,0-.08,0-.12v-11.48s-.04,0-.06,0v11.63c-.06.04-.11.08-.17.11-1.81.99-3.63,1.98-5.43,2.98-.23.13-.39.12-.62,0-1.78-1.03-3.57-2.04-5.36-3.05-.19-.1-.25-.21-.25-.42,0-3.68,0-7.36,0-11.03,0-.21-.03-.3-.28-.3-1.72.01-3.44,0-5.16,0h-.25v8.27c-.07-.04-.1-.05-.13-.08-.51-.41-1.02-.81-1.52-1.25-1.22-1.07-2.18-2.35-3-3.75-.56-.95-.99-1.96-1.33-3-.05-.16-.12-.21-.28-.2-.4.02-.81.01-1.21.02.18-.02.35-.04.53-.05.29,0,.57,0,.86,0,0-.02,0-.04,0-.06-.43,0-.86,0-1.29,0-.06,0-.15.05-.18.1-.02.04.04.12.06.19,0-.03.01-.05.02-.08M1.92,32.8v10.46c.06,0,.1.02.13.02,1.95,0,3.9.01,5.85,0,1.06,0,1.89-.66,2.12-1.67.17-.74.15-1.49,0-2.24-.12-.57-.46-.99-.94-1.31.71-.64.94-.93,1-1.64.05-.62.03-1.26-.05-1.87-.06-.54-.38-.98-.83-1.3-.47-.33-1-.43-1.56-.43-1.82,0-3.63,0-5.44,0h-.27Zm12.02,10.46v-3.46c.5,0,.97,0,1.44,0,.18,0,.27.05.34.22.42,1.01.86,2.01,1.29,3.02.07.17.15.25.36.24.69-.02,1.37,0,2.06,0,.07,0,.14-.01.23-.02-.55-1.19-1.09-2.36-1.63-3.54.05-.03.08-.05.11-.06.82-.22,1.5-1.03,1.52-2.1.02-.82.02-1.64,0-2.46-.01-.6-.18-1.16-.62-1.61-.51-.52-1.14-.69-1.84-.68-1.79,0-3.57,0-5.36,0-.07,0-.15,0-.22.01v10.45h2.31Zm34.1-5.18c0-.54,0-1.08,0-1.62,0-.55,0-1.1-.04-1.65-.08-1.09-.94-1.96-2.04-1.99-1.4-.04-2.8-.05-4.2,0-.94.03-1.62.53-1.93,1.44-.1.3-.15.64-.15.96-.01,1.84,0,3.69,0,5.53,0,.17.01.35.03.52.14,1.19,1.02,1.98,2.2,1.99,1.29.01,2.59.02,3.88,0,.94-.02,1.68-.43,2.04-1.34.14-.36.19-.77.2-1.16.03-.9,0-1.79,0-2.69m-24.53-1.06v-2.21h4.95v-1.99h-7.27v10.44h7.27v-2h-4.95v-2.22h4.19v-2.01h-4.2Zm43.78,6.26c-.02-.09-.03-.15-.05-.21-1.1-3.36-2.2-6.71-3.3-10.07-.05-.14-.11-.19-.26-.19-.78,0-1.56.01-2.35,0-.23,0-.33.06-.41.28-1.08,3.32-2.17,6.65-3.25,9.97-.02.07-.04.14-.06.23.72,0,1.4,0,2.09,0,.21,0,.29-.07.34-.25.17-.6.36-1.2.53-1.79.04-.14.11-.19.26-.19,1.04,0,2.08,0,3.13,0,.18,0,.24.06.29.23.17.61.37,1.21.55,1.82.03.11.07.18.21.18.75,0,1.5,0,2.27,0m-32.19-8.45c-.21.26-.38.49-.56.71-1.47,1.85-2.94,3.69-4.41,5.54-.06.08-.14.18-.14.27-.01.63,0,1.27,0,1.91h7.89v-2h-5.1c.07-.1.12-.17.17-.24,1.6-2.01,3.21-4.02,4.81-6.04.06-.08.13-.18.13-.27.01-.63,0-1.25,0-1.89h-7.88v2h5.1Zm13.85-2.02c.01.06.02.09.02.12,1.11,3.39,2.21,6.78,3.32,10.16.05.16.14.2.29.19.71,0,1.43-.02,2.14,0,.26,0,.36-.08.44-.32.83-2.55,1.66-5.1,2.5-7.64.27-.83.54-1.66.82-2.52-.73,0-1.43,0-2.13,0-.18,0-.25.06-.3.22-.56,1.79-1.12,3.58-1.68,5.36-.2.64-.4,1.28-.61,1.95-.04-.05-.06-.07-.07-.1-.47-1.51-.94-3.03-1.41-4.54-.28-.89-.55-1.78-.83-2.67-.04-.12-.06-.23-.24-.22-.74.01-1.49,0-2.26,0m-11.49-5.17h.02c0-.21,0-.43,0-.64,0-.21,0-.43,0-.64-.04-.63-.39-.96-1.02-.97-.48,0-.97.01-1.45,0-.66-.02-1.13.34-1.12,1.12,0,.74,0,1.49,0,2.23,0,.12.01.25.03.37.07.43.36.73.8.75.64.03,1.29.03,1.94,0,.47-.02.78-.36.8-.83.02-.46,0-.93,0-1.39m-4.36-.85c0-.19.02-.36,0-.53-.06-.51-.41-.85-.92-.86-.55-.01-1.1-.01-1.65,0-.51.01-.87.31-.93.82-.04.35-.03.72.01,1.07.06.42.32.7.76.75.36.04.73.03,1.1.04.7,0,.64-.1.65.69,0,.21-.1.27-.28.27-.23,0-.46,0-.7,0q-.53,0-.57-.5s0-.02-.02-.03h-.97c0,.18-.02.35,0,.51.06.52.35.84.88.86.6.03,1.2.03,1.79,0,.5-.03.82-.39.85-.89.01-.27.01-.54,0-.81-.03-.58-.41-.94-.98-.95-.3,0-.6,0-.9,0-.68,0-.68,0-.65-.68,0-.2.09-.27.29-.26.26.01.52,0,.78,0,.49,0,.48-.02.48.47,0,.02.02.03.03.06h.94Zm12.88.87c0-.42,0-.83,0-1.25-.02-.66-.38-1.01-1.03-1.02-.48,0-.97,0-1.45,0-.76,0-1.11.36-1.11,1.12,0,.74,0,1.49,0,2.23,0,.13.02.27.04.4.08.4.36.69.77.71.63.03,1.25.04,1.88,0,.58-.03.88-.38.9-.96.01-.41,0-.83,0-1.24m-6.73.15s.03-.01.05-.02c.44.63.88,1.26,1.32,1.89.06.08.14.19.22.2.37.02.74,0,1.15,0-.39-.55-.74-1.06-1.09-1.56-.18-.25-.35-.51-.53-.76.18-.26.36-.52.54-.78.32-.46.64-.91.99-1.4-.34,0-.62.01-.91,0-.17,0-.26.06-.35.19-.23.34-.47.68-.71,1.02-.21.29-.41.59-.62.88-.02,0-.03-.01-.05-.02v-2.05h-.97v4.47h.97v-2.06Zm-18.91-9.38c.07.26.13.53.2.79.44,1.6,1.13,3.07,2.1,4.41.06.08.17.18.26.18.56.02,1.11,0,1.75,0-.34-.5-.61-.98-.95-1.4-.9-1.1-1.77-2.22-2.38-3.51-.09-.2-.14-.48-.3-.56-.16-.09-.43.02-.65.04,0,0-.02.01-.05.03m-7.45,11.59c.02.05.02.08.04.1.42.64.84,1.29,1.27,1.93.05.07.17.12.26.12.41.01.83,0,1.24,0,.34,0,.73.09.99-.05.26-.14.4-.53.58-.81.28-.42.55-.85.85-1.3-.63,0-1.22,0-1.8,0-.08,0-.18.09-.23.17-.19.28-.37.57-.56.87-.2-.32-.39-.61-.58-.9-.04-.06-.12-.14-.19-.14-.61-.01-1.23,0-1.86,0m12.99-4.62v.3c0,1,0,2.01,0,3.01,0,.27-.02.3-.29.3-.28,0-.56,0-.84,0-.19,0-.28-.08-.27-.28.01-.15,0-.3,0-.45h-.88s-.05.01-.1.02c0,.26-.02.52,0,.78.05.44.37.75.8.77.59.03,1.17.02,1.76,0,.3,0,.55-.17.66-.44.09-.22.15-.46.15-.69.02-1.03,0-2.07,0-3.1,0-.07-.01-.15-.02-.22h-.99Zm-2.6.86v-.85h-3.59v.86h1.32v3.61h.99v-3.61h1.29Zm23.5-.87v4.48h3.12v-.85h-2.14v-3.63h-.98Zm-3.11-1.57c.58,0,1.1,0,1.62,0,.19,0,.3-.06.4-.21.85-1.2,1.49-2.49,1.92-3.89.02-.05.02-.11.03-.18-.36.15-.71.28-1.04.43-.12.06-.25.15-.33.25-.53.71-1.05,1.43-1.57,2.14-.34.47-.67.93-1.04,1.45m21.05,6.2c-.8,0-1.54,0-2.28,0-.06,0-.15.05-.18.1-.39.67-.77,1.35-1.17,2.06.61,0,1.17,0,1.74,0,.07,0,.16-.06.21-.12.55-.66,1.09-1.32,1.69-2.03m-33.28,21.29c-.02.58.19.8.75.8.22,0,.44,0,.67,0,.37-.02.59-.24.6-.6,0-.54,0-1.08,0-1.62,0-.35-.22-.59-.56-.61-.29-.02-.58-.02-.87,0-.35.02-.56.25-.59.6-.01.19-.01.39,0,.58.02.37.26.6.64.6.24,0,.49-.03.74-.04.04.5.03.54-.15.56-.44.06-.56.01-.64-.26h-.59Zm4.39-2.05c-.11,0-.18.01-.26,0-.29-.05-.47.08-.63.32-.29.44-.61.86-.95,1.27-.21.26-.22.53-.17.85h1.35c0,.15.02.27.02.39h.63v-.39c.11,0,.2-.02.31-.02v-.54c-.11-.01-.21-.02-.31-.03v-1.85Zm.49,2.43h1.38v.4h.63c0-.14.01-.27.02-.38.12-.02.21-.03.3-.04v-.53c-.11-.01-.2-.02-.32-.03v-1.84c-.11,0-.2.01-.28,0-.26-.04-.42.06-.57.28-.31.45-.63.9-.98,1.32-.21.25-.21.51-.18.83m-5.39.41v-2.85c-.23.01-.46-.03-.65.04-.21.08-.43.22-.56.4-.09.12-.04.35-.04.53,0,.03,0,.05.02.11.2-.15.39-.28.62-.44v2.2h.61Zm6.55-28.3h3.18c-.63-.2-1.21-.38-1.78-.55-.08-.02-.18-.05-.24-.02-.38.18-.75.37-1.16.57m-14.86,21.33h5.57v-.03h-5.57v.03Zm29.32-.02v.02h1.27v-.02h-1.27Z"/>
  <path class="cls-19" d="m55.64,30.83c-.02-.08-.05-.16-.05-.24,0-6.68,0-13.36,0-20.04.02.07.05.14.05.2,0,6.68,0,13.35,0,20.02,0,.02,0,.04,0,.06"/>
  <path class="cls-19" d="m12.71,10.55c0,5.79,0,11.57,0,17.36,0,.07,0,.13-.01.2,0,0-.01.01-.02.01,0,0-.02,0-.03-.01,0-5.75,0-11.49,0-17.24,0-.11.03-.21.05-.32"/>
  <path class="cls-1" d="m40.12,56.87c.02-.1.05-.2.05-.3,0-3.63,0-7.25,0-10.88,0-.17.03-.34.04-.51.1,0,.19.02.29.02,1.15,0,2.29,0,3.44,0,.45,0,.9,0,1.36-.01.11,0,.23,0,.34,0,.23,0,.18.17.18.3,0,2.6,0,5.2,0,7.8,0,.09,0,.17,0,.26,0,0,.05,0,.08,0,1.72-1.23,3.14-2.74,4.24-4.55.7-1.14,1.26-2.33,1.63-3.62.04-.12.08-.2.23-.2.41,0,.83,0,1.29,0-.11.36-.2.68-.31,1.01-.83,2.44-2.14,4.59-3.92,6.45-1.33,1.39-2.86,2.5-4.55,3.41-3.37,1.83-6.73,3.69-10.09,5.55-.21.12-.36.1-.55-.01-3.48-1.98-6.97-3.97-10.46-5.94-2.03-1.14-3.8-2.6-5.24-4.42-1.14-1.44-2.06-3.02-2.68-4.76-.14-.39-.27-.78-.41-1.17,0-.04,0-.07,0-.11.41,0,.81,0,1.21-.01.16,0,.23.05.28.2.34,1.04.78,2.05,1.33,3,.82,1.4,1.78,2.67,3,3.75.49.43,1.01.83,1.52,1.25.03.02.06.04.13.08v-8.27h.25c1.72,0,3.44,0,5.16,0,.25,0,.28.09.28.3,0,3.68,0,7.36,0,11.03,0,.21.06.32.25.42,1.79,1.01,3.58,2.03,5.36,3.05.22.13.39.13.62,0,1.81-1,3.62-1.99,5.43-2.98.06-.03.11-.07.17-.11.02-.01.03-.02.05-.03"/>
  <path class="cls-2" d="m39.03,18.16c-.13.83-.25,1.66-.38,2.48-.09.57-.19,1.14-.26,1.71-.02.18-.08.3-.25.38-.78.34-1.55.68-2.33,1.02-.11.05-.24.07-.37.07-1.02,0-2.04,0-3.07,0-.12,0-.27-.05-.36-.13-1.1-.85-2.19-1.71-3.29-2.56-.12-.09-.14-.19-.12-.32.12-.92.24-1.83.38-2.75.07-.46.17-.91.26-1.36.05,0,.1,0,.14-.02,1.53-.57,3.06-1.14,4.59-1.71.61-.23,1.15-.08,1.64.32.35.28.7.56,1.06.84.73.57,1.47,1.14,2.2,1.72.08.07.11.2.16.31"/>
  <path class="cls-7" d="m1.92,32.8h.27c1.82,0,3.63,0,5.45,0,.56,0,1.09.09,1.56.43.45.32.77.76.83,1.3.07.62.1,1.25.04,1.87-.06.72-.29,1.01-1,1.64.48.32.82.75.94,1.31.16.74.18,1.5,0,2.24-.23,1.01-1.06,1.66-2.12,1.67-1.95.02-3.9,0-5.85,0-.04,0-.07,0-.13-.02v-10.46Zm2.33,8.46c1.06,0,2.11,0,3.16,0,.24,0,.38-.17.38-.42,0-.45,0-.91,0-1.36,0-.29-.14-.43-.43-.44-.98,0-1.97,0-2.95,0-.17,0-.18.07-.18.21,0,.61,0,1.22,0,1.83,0,.06.01.11.02.19m0-6.45v2.2h1.53c.51,0,1.02,0,1.53,0,.33,0,.48-.14.48-.44,0-.44,0-.89,0-1.33,0-.29-.14-.42-.43-.43-.28,0-.56,0-.84,0h-2.27"/>
  <path class="cls-5" d="m13.94,43.26h-2.31v-10.45c.07,0,.14-.01.22-.01,1.79,0,3.57,0,5.36,0,.7,0,1.33.17,1.84.69.44.45.6,1,.62,1.61.02.82.02,1.64,0,2.46-.02,1.07-.7,1.88-1.52,2.1-.03,0-.06.03-.11.06.54,1.18,1.08,2.35,1.63,3.54-.09,0-.16.02-.23.02-.68,0-1.37,0-2.06,0-.2,0-.29-.07-.36-.24-.43-1.01-.87-2.01-1.29-3.02-.07-.17-.16-.22-.34-.22-.47.01-.95,0-1.44,0v3.47Zm0-5.5c1,0,1.97,0,2.95,0,.33,0,.46-.13.46-.46,0-.67,0-1.33,0-2,0-.36-.13-.48-.49-.49-.9,0-1.79,0-2.69,0h-.23v2.95Z"/>
  <path class="cls-7" d="m48.05,38.07c0,.9.02,1.8,0,2.69-.01.39-.06.8-.2,1.16-.36.91-1.1,1.32-2.04,1.34-1.29.03-2.59.01-3.88,0-1.19,0-2.06-.8-2.2-1.99-.02-.17-.03-.35-.03-.52,0-1.84,0-3.69,0-5.53,0-.32.05-.66.15-.96.31-.91.99-1.41,1.93-1.44,1.4-.05,2.8-.04,4.2,0,1.1.03,1.97.89,2.04,1.99.04.55.04,1.1.04,1.65,0,.54,0,1.08,0,1.62m-6.05-.05c0,.88,0,1.76,0,2.63,0,.49.11.6.59.6.87,0,1.74,0,2.6,0,.4,0,.52-.12.53-.51,0-.45,0-.91,0-1.36,0-1.32,0-2.64,0-3.96,0-.52-.09-.61-.6-.61-.85,0-1.7,0-2.55,0-.47,0-.57.11-.57.58v2.63"/>
  <polygon class="cls-5" points="23.51 37.01 27.71 37.01 27.71 39.03 23.51 39.03 23.51 41.25 28.46 41.25 28.46 43.25 21.19 43.25 21.19 32.82 28.46 32.82 28.46 34.8 23.51 34.8 23.51 37.01"/>
  <path class="cls-7" d="m67.29,43.27c-.77,0-1.52,0-2.27,0-.14,0-.18-.07-.21-.18-.18-.61-.38-1.21-.55-1.82-.05-.17-.11-.23-.29-.23-1.04.01-2.08,0-3.13,0-.15,0-.22.05-.26.19-.17.6-.36,1.19-.53,1.79-.05.18-.13.26-.34.25-.68-.02-1.37,0-2.09,0,.02-.09.04-.16.06-.23,1.09-3.32,2.17-6.65,3.25-9.97.07-.22.17-.29.4-.28.78.02,1.56.01,2.35,0,.15,0,.22.05.26.19,1.1,3.36,2.2,6.72,3.3,10.07.02.06.03.13.05.21m-6.03-4.25h2.3c-.38-1.25-.75-2.48-1.15-3.76-.39,1.29-.77,2.52-1.15,3.76"/>
  <path class="cls-7" d="m35.1,34.82h-5.1v-2h7.88c0,.64,0,1.26,0,1.89,0,.09-.07.2-.13.27-1.6,2.01-3.21,4.03-4.81,6.04-.05.07-.1.14-.17.24h5.1v2h-7.89c0-.65,0-1.28,0-1.91,0-.09.08-.19.14-.27,1.47-1.85,2.94-3.7,4.41-5.54.18-.22.35-.45.56-.71"/>
  <path class="cls-7" d="m48.96,32.8c.77,0,1.51,0,2.26,0,.18,0,.2.11.24.22.28.89.56,1.78.83,2.67.47,1.51.94,3.03,1.41,4.54,0,.02.03.05.07.1.21-.66.41-1.31.61-1.95.56-1.79,1.12-3.57,1.68-5.36.05-.16.12-.22.3-.22.7.01,1.41,0,2.13,0-.28.86-.55,1.69-.82,2.52-.83,2.55-1.67,5.09-2.5,7.64-.08.24-.17.33-.44.32-.71-.02-1.43-.01-2.14,0-.16,0-.24-.04-.29-.19-1.1-3.39-2.21-6.78-3.32-10.17,0-.03-.01-.06-.02-.12"/>
  <path class="cls-2" d="m28.59,16.35c-.1.58-.22,1.15-.31,1.73-.12.84-.23,1.68-.33,2.52-.02.22-.08.33-.31.4-1.06.31-2.11.64-3.17.98-.12.04-.2.05-.3-.06-.98-1.16-1.89-2.37-2.44-3.8-.06-.15-.1-.31-.1-.47.01-.62.04-1.23.07-1.85,0-.07.03-.13.05-.19.08-.03.16-.05.24-.09,1.23-.64,2.49-1.21,3.78-1.72.53-.21.92-.11,1.26.36.22.31.42.62.64.92.3.43.62.85.93,1.28"/>
  <path class="cls-4" d="m35.3,13.23c-.02-.48-.04-.96-.04-1.44-.02-1.1-.03-2.2-.06-3.3,0-.24.07-.37.29-.45,1.06-.41,2.11-.83,3.18-1.24.37-.14.75-.26,1.13-.36.1-.03.25-.02.34.03,1.47.9,2.75,2.02,3.91,3.28.05.05.09.13.1.2.14,1.13.16,2.27.04,3.4.02-.29-.22-.34-.41-.4-.94-.3-1.87-.65-2.83-.85-1.08-.23-2.19-.37-3.29-.48-.7-.07-1.4,0-2.11-.02-.19,0-.25.07-.24.25,0,.46,0,.92,0,1.38"/>
  <path class="cls-4" d="m29.72,5.92c-.09-.62-.16-1.24-.26-1.86-.03-.18.03-.28.17-.38.86-.59,1.82-.95,2.8-1.29.32-.11.64-.2.97-.29.6-.17,1.21-.08,1.8.01,1.24.2,2.44.56,3.61.98.11.04.23.16.27.27.17.55.32,1.11.46,1.66.04.14.04.29.05.43-.23.05-.47.1-.7.15-1.23.26-2.38.75-3.51,1.29-.43.21-.88.25-1.32.13-1.36-.36-2.7-.74-4.05-1.11-.09-.02-.2,0-.29,0"/>
  <path class="cls-4" d="m22.31,11.72c-.22-.72-.45-1.43-.67-2.15-.1-.31-.07-.58.1-.88.76-1.33,1.66-2.55,2.8-3.58.21-.19.5-.32.77-.43,1.1-.45,2.24-.66,3.46-.68.09.69.19,1.36.28,2.03-.06.04-.14.07-.19.12-.14.17-.28.34-.41.52-.77,1.03-1.57,2.04-2.3,3.1-.42.61-.95.98-1.64,1.18-.74.22-1.47.5-2.21.75"/>
  <path class="cls-2" d="m35.3,13.23c0-.46.02-.92,0-1.38,0-.19.05-.25.24-.25.7,0,1.41-.05,2.11.02,1.1.11,2.21.25,3.29.48.96.21,1.89.55,2.83.85.19.06.43.11.41.4-.06.56-.11,1.11-.19,1.66-.01.08-.1.19-.17.22-1.37.53-2.74,1.05-4.11,1.58-.15.06-.21-.03-.3-.1-.99-.81-1.99-1.62-2.98-2.43-.33-.27-.66-.53-.98-.81-.07-.06-.1-.17-.15-.25"/>
  <path class="cls-13" d="m52.64,11.71c.4.08.81.17,1.21.25,0,6.07,0,12.14,0,18.22q0,.65-.64.65t-.63-.64c0-6.04,0-12.09,0-18.13,0-.12.04-.24.06-.36"/>
  <path class="cls-11" d="m14.46,11.96c.39-.09.78-.17,1.18-.26.02,0,.04,0,.06,0,.01.12.04.25.04.37,0,5.05,0,10.1,0,15.15,0,.21,0,.42,0,.64,0,.13-.04.2-.18.2-.31,0-.62,0-.93,0-.12,0-.17-.05-.17-.17,0-.19,0-.39,0-.58,0-5.12,0-10.23,0-15.35"/>
  <path class="cls-10" d="m44.89,13.46c.02-.62.06-1.23.05-1.85,0-.52-.05-1.04-.1-1.56-.02-.16.04-.22.17-.28.55-.28,1.09-.57,1.66-.87.04.06.09.12.12.19.68,1.38,1.16,2.81,1.35,4.34.08.69.12,1.38.17,2.07.01.21-.03.42-.04.63,0-.14-.02-.29,0-.43,0-.17-.03-.29-.18-.39-.5-.32-.98-.68-1.49-.98-.54-.32-1.12-.59-1.68-.88"/>
  <path class="cls-5" d="m44.89,13.46c.56.29,1.14.56,1.68.88.51.3.99.66,1.49.98.16.1.19.22.18.39,0,.14,0,.29,0,.43-.09.77-.18,1.54-.29,2.31-.01.1-.1.22-.18.26-.45.22-.9.41-1.39.63-.13-.3-.26-.58-.38-.85-.43-.96-.86-1.93-1.28-2.9-.05-.12-.07-.26-.06-.39.07-.58.15-1.16.22-1.74"/>
  <path class="cls-10" d="m28.59,16.35c-.31-.43-.62-.85-.93-1.28-.22-.31-.42-.62-.64-.92-.33-.47-.72-.57-1.26-.36-1.29.51-2.55,1.08-3.78,1.72-.07.04-.16.06-.24.09.07-.93.27-1.82.66-2.67.03-.07.13-.14.21-.17,1.01-.34,2.03-.67,3.04-1.01.14-.05.21-.02.29.09.9,1.29,1.79,2.58,2.69,3.86.16.23.02.44-.05.65"/>
  <path class="cls-8" d="m37.46,27.63c0,.46.02.93,0,1.39-.02.47-.33.81-.8.83-.64.03-1.29.03-1.94,0-.44-.02-.72-.32-.8-.75-.02-.12-.03-.25-.03-.37,0-.74,0-1.49,0-2.23,0-.78.46-1.14,1.12-1.12.48.02.97,0,1.45,0,.63,0,.98.34,1.02.97.01.21,0,.42,0,.64,0,.21,0,.42,0,.64h-.02m-2.57-.02c0,.39,0,.77,0,1.16,0,.15.05.24.21.24.39,0,.77,0,1.16,0,.15,0,.22-.07.22-.24,0-.76,0-1.52,0-2.29,0-.17-.07-.24-.24-.24-.37,0-.73,0-1.1,0-.19,0-.25.08-.25.26,0,.37,0,.73,0,1.1"/>
  <path class="cls-17" d="m33.11,26.78h-.95s-.03-.04-.03-.06c0-.5.01-.47-.48-.47-.26,0-.52,0-.78,0-.19,0-.28.06-.29.26-.03.68-.04.68.65.68.3,0,.6,0,.9,0,.58,0,.96.37.98.95.01.27.01.54,0,.81-.02.5-.34.87-.85.89-.6.03-1.19.03-1.79,0-.52-.03-.82-.34-.88-.86-.02-.16,0-.32,0-.51h.97s.02.02.02.03q.05.5.58.5c.23,0,.46,0,.69,0,.18,0,.28-.07.28-.27,0-.79.05-.68-.65-.69-.37,0-.73,0-1.1-.03-.44-.05-.7-.33-.76-.75-.05-.35-.05-.72-.01-1.07.06-.5.41-.8.93-.82.55-.01,1.1-.01,1.65,0,.51.01.86.35.92.86.02.17,0,.34,0,.53"/>
  <path class="cls-23" d="m45.98,27.65c0,.42.01.83,0,1.25-.02.58-.32.93-.9.96-.62.03-1.25.02-1.88,0-.4-.02-.68-.31-.76-.71-.03-.13-.04-.27-.05-.4,0-.74,0-1.49,0-2.23,0-.76.35-1.12,1.11-1.12.48,0,.97,0,1.45,0,.65.01,1.01.36,1.03,1.02.01.41,0,.83,0,1.24m-.99-.03c0-.37,0-.73,0-1.1,0-.2-.07-.28-.27-.27-.36,0-.71.01-1.07,0-.21,0-.27.09-.27.28,0,.74,0,1.48,0,2.23,0,.18.08.27.26.27.37,0,.73,0,1.1,0,.17,0,.26-.08.25-.27,0-.38,0-.75,0-1.13"/>
  <path class="cls-23" d="m39.25,27.8v2.06h-.97v-4.47h.97v2.05s.03.01.05.02c.21-.29.41-.59.62-.88.24-.34.48-.67.71-1.02.09-.13.18-.2.35-.19.29.02.57,0,.91,0-.35.49-.67.94-.99,1.4-.18.26-.36.52-.54.78.18.25.35.51.53.76.35.5.71,1.01,1.09,1.56-.41,0-.78.01-1.15,0-.08,0-.16-.12-.22-.2-.44-.63-.88-1.26-1.32-1.89-.02,0-.03.01-.05.02"/>
  <path class="cls-8" d="m20.34,18.42s.04-.03.05-.03c.22-.02.48-.13.65-.04.15.08.2.36.3.56.61,1.29,1.48,2.41,2.38,3.51.34.42.61.9.95,1.4-.64,0-1.2,0-1.75,0-.09,0-.2-.1-.26-.18-.97-1.34-1.66-2.82-2.1-4.41-.07-.27-.14-.54-.2-.79"/>
  <path class="cls-7" d="m12.89,30.02c.63,0,1.24,0,1.86,0,.07,0,.15.08.19.14.19.29.37.58.58.9.19-.31.37-.6.56-.87.05-.07.15-.17.23-.17.59-.01,1.17,0,1.8,0-.29.45-.57.88-.85,1.3-.18.28-.32.66-.58.81-.26.14-.66.05-.99.05-.41,0-.83,0-1.24,0-.09,0-.21-.05-.26-.12-.43-.64-.85-1.28-1.27-1.93-.01-.02-.02-.05-.04-.1"/>
  <path class="cls-10" d="m39.03,18.16c-.05-.1-.08-.24-.16-.31-.73-.58-1.46-1.15-2.2-1.72-.36-.28-.71-.56-1.06-.84-.49-.39-1.03-.54-1.64-.32-1.53.57-3.06,1.14-4.59,1.71-.04.02-.09.02-.14.02.04-.19.06-.38.13-.56.03-.08.14-.15.23-.19,1.31-.51,2.63-1.01,3.95-1.52.39-.15.79-.3,1.18-.46.12-.05.2-.05.31.04,1.33,1.09,2.66,2.17,3.99,3.26.06.05.12.16.12.23-.02.22-.07.44-.11.65"/>
  <path class="cls-9" d="m25.88,25.4h.99c0,.07.02.14.02.22,0,1.03,0,2.07,0,3.1,0,.23-.06.48-.15.69-.12.28-.36.43-.66.44-.59.02-1.18.03-1.76,0-.44-.02-.75-.34-.8-.77-.03-.25,0-.51,0-.77.04,0,.07-.02.1-.02.28,0,.56,0,.88,0,0,.15,0,.3,0,.45-.02.2.08.28.27.28.28,0,.56,0,.84,0,.27,0,.29-.03.29-.3,0-1,0-2.01,0-3.01v-.3Z"/>
  <polygon class="cls-23" points="23.28 26.25 22 26.25 22 29.86 21.01 29.86 21.01 26.26 19.69 26.26 19.69 25.4 23.28 25.4 23.28 26.25"/>
  <polygon class="cls-23" points="46.78 25.39 47.76 25.39 47.76 29.02 49.9 29.02 49.9 29.87 46.78 29.87 46.78 25.39"/>
  <path class="cls-8" d="m43.67,23.82c.37-.51.7-.98,1.04-1.45.52-.72,1.04-1.43,1.57-2.14.08-.11.2-.2.33-.26.33-.15.67-.28,1.04-.43-.01.07-.01.13-.03.18-.43,1.4-1.08,2.69-1.92,3.89-.1.15-.21.22-.4.21-.52-.01-1.04,0-1.62,0"/>
  <path class="cls-23" d="m64.72,30.01c-.59.71-1.14,1.38-1.69,2.03-.05.06-.14.12-.21.12-.57.01-1.13,0-1.74,0,.4-.71.78-1.38,1.17-2.06.03-.05.12-.1.18-.1.74,0,1.48,0,2.28,0"/>
  <path class="cls-9" d="m29.72,5.92c.1,0,.2-.02.29,0,1.35.37,2.7.75,4.05,1.11.44.12.89.08,1.32-.13,1.13-.54,2.27-1.04,3.51-1.29.23-.05.47-.1.7-.15.08.3.08.3-.21.39-1.3.4-2.58.84-3.82,1.4-.05.02-.11.04-.16.07-.4.31-.81.27-1.27.14-1.32-.37-2.66-.69-3.99-1.03q-.36-.09-.43-.51"/>
  <path class="cls-9" d="m31.44,51.31h.59c.07.27.2.32.64.26.18-.02.19-.07.15-.56-.25.01-.49.04-.74.04-.38,0-.62-.23-.64-.6-.01-.19-.01-.39,0-.58.02-.35.24-.58.59-.6.29-.02.58-.02.87,0,.34.02.56.27.56.61,0,.54,0,1.08,0,1.62,0,.36-.23.59-.6.6-.22,0-.44,0-.67,0-.56,0-.77-.21-.75-.8m1.02-.82s0,.02,0,.02c.12-.03.32-.03.34-.08.04-.17.04-.36,0-.54,0-.04-.2-.07-.3-.07-.44-.01-.43,0-.44.44,0,.2.07.26.25.24.05,0,.1,0,.15,0"/>
  <path class="cls-9" d="m22.31,11.72c.74-.25,1.47-.53,2.21-.75.69-.21,1.22-.58,1.64-1.18.73-1.06,1.53-2.07,2.3-3.1.13-.18.27-.35.41-.52.05-.05.12-.08.19-.12.11.31.01.56-.18.82-.99,1.3-1.96,2.62-2.93,3.94-.12.16-.25.24-.43.3-1.02.33-2.04.67-3.08,1.02-.04-.14-.08-.27-.12-.4"/>
  <path class="cls-6" d="m35.83,49.26v1.84c.1.01.19.02.31.03v.54c-.1,0-.19.02-.31.02v.39h-.63c0-.12-.01-.24-.02-.39h-1.36c-.05-.33-.04-.6.17-.85.33-.41.65-.83.95-1.27.16-.24.34-.37.63-.32.07.01.15,0,.26,0m-.65.98s-.03-.01-.04-.02c-.21.29-.42.58-.64.88h.68v-.87Z"/>
  <path class="cls-6" d="m36.32,51.69c-.03-.32-.03-.58.18-.83.35-.42.68-.87.98-1.32.15-.22.31-.32.57-.28.08.01.17,0,.28,0v1.84c.11.01.21.02.32.03v.53c-.09.01-.18.02-.3.04,0,.12-.01.24-.02.38h-.63v-.4h-1.38Zm.68-.58h.66v-.92c-.23.32-.43.6-.66.92"/>
  <path class="cls-16" d="m52.64,11.71c-.02.12-.06.24-.06.36,0,6.04,0,12.09,0,18.13q0,.64.63.64t.64-.65c0-6.07,0-12.14,0-18.22.02,0,.03,0,.05,0,0,6.18,0,12.36,0,18.55,0,.11,0,.21,0,.32-.02.02-.05.05-.07.07-.44,0-.88-.02-1.32-.02,0-6.17,0-12.33,0-18.5,0-.22,0-.44,0-.67h.13"/>
  <path class="cls-6" d="m30.94,52.1h-.61v-2.2c-.22.16-.41.3-.62.44-.01-.06-.02-.09-.02-.11,0-.18-.05-.41.04-.53.13-.18.34-.32.55-.4.19-.07.42-.03.65-.04v2.85Z"/>
  <path class="cls-14" d="m14.46,11.96c0,5.12,0,10.23,0,15.35,0,.19,0,.39,0,.58,0,.12.05.17.17.17.31,0,.62,0,.93,0,.14,0,.18-.07.18-.2,0-.21,0-.42,0-.64,0-5.05,0-10.1,0-15.15,0-.12-.02-.25-.04-.37.19.05.09.21.09.3,0,5.36,0,10.73,0,16.09h-1.39v-.31c0-1.88,0-3.76,0-5.64,0-3.4,0-6.79,0-10.19.02,0,.03,0,.05,0"/>
  <path class="cls-25" d="m45.9,53.55s-.08,0-.09,0c0-.09,0-.17,0-.26,0-2.6,0-5.2,0-7.8,0-.13.06-.31-.18-.3-.11,0-.23,0-.34,0-.45,0-.9.01-1.36.01-1.14,0-2.29,0-3.44,0-.1,0-.19-.01-.29-.02.05-.03.1-.08.14-.08,1.77,0,3.53,0,5.29,0,.16,0,.23.06.22.22,0,.12,0,.25,0,.38,0,2.5,0,4.99,0,7.49,0,.12.02.24.04.37"/>
  <path class="cls-24" d="m52.51,11.71c0,.22,0,.44,0,.67,0,6.16,0,12.33,0,18.5-.01.01-.03.02-.04.01,0-.21-.02-.42-.02-.64,0-6.07,0-12.14,0-18.21,0-.11.03-.22.05-.33"/>
  <path class="cls-15" d="m53.92,30.82c0-.11,0-.21,0-.32,0-6.18,0-12.36,0-18.54.02.09.06.17.06.26,0,6.12,0,12.24,0,18.37,0,.08-.04.16-.05.24"/>
  <path class="cls-22" d="m37.48,23.8c.41-.2.78-.4,1.16-.57.06-.03.17,0,.24.02.58.17,1.15.35,1.78.55h-3.18Z"/>
  <path class="cls-15" d="m14.41,11.96c0,3.4,0,6.79,0,10.19v5.96h1.41s.02,0,.02,0c-.05.02-.1.06-.15.06-.38,0-.75,0-1.13,0-.16,0-.22-.06-.22-.22,0-.27,0-.54,0-.81,0-4.95,0-9.89,0-14.84,0-.12.04-.23.06-.35"/>
  <path class="cls-24" d="m15.83,28.11h-.04c0-5.37,0-10.73,0-16.1,0-.1.1-.25-.09-.3-.02,0-.04,0-.06,0,.13-.11.18-.11.21,0,.02.06,0,.13,0,.2,0,5.3,0,10.61,0,15.91,0,.1,0,.19-.01.29"/>
  <path class="cls-3" d="m40.12,56.87s-.03.02-.05.03v-11.63s.04,0,.06,0v11.48s0,.08,0,.12"/>
  <rect class="cls-15" x="22.62" y="45.1" width="5.57" height=".03"/>
  <path class="cls-3" d="m15.09,45.2s0,.07,0,.11c0,.03-.02.05-.02.08-.02-.06-.08-.15-.06-.19.03-.05.12-.1.18-.1.43,0,.86,0,1.29,0,0,.02,0,.04,0,.06-.29,0-.57,0-.86,0-.18,0-.35.03-.53.05"/>
  <path class="cls-15" d="m52.48,30.89s.03,0,.04-.01c.44,0,.88.02,1.32.02-.06.02-.12.05-.18.05-.34,0-.68,0-1.01,0-.06,0-.11-.04-.17-.06"/>
  <path class="cls-15" d="m51.94,45.11h1.27v.02h-1.27v-.02"/>
  <path class="cls-18" d="m45.29,45.18h.34s-.34,0-.34,0Z"/>
  <path class="cls-12" d="m4.25,41.26c0-.08-.02-.13-.02-.19,0-.61,0-1.22,0-1.82,0-.14.02-.21.18-.21.98,0,1.97,0,2.95,0,.29,0,.43.15.43.43,0,.45,0,.91,0,1.36,0,.26-.14.42-.38.42-1.05.01-2.1,0-3.16,0"/>
  <path class="cls-20" d="m4.25,34.81h2.27c.28,0,.56,0,.84,0,.29,0,.43.14.43.43,0,.44,0,.89,0,1.33,0,.31-.15.44-.48.44-.51,0-1.02,0-1.53,0h-1.53v-2.2Z"/>
  <path class="cls-21" d="m13.94,37.76v-2.95h.23c.9,0,1.79,0,2.69,0,.36,0,.49.12.49.49,0,.67,0,1.33,0,2,0,.33-.13.46-.46.46-.97,0-1.95,0-2.95,0"/>
  <path class="cls-26" d="m42,38.02v-2.63c0-.48.11-.58.57-.58.85,0,1.7,0,2.54,0,.51,0,.6.09.6.61,0,1.32,0,2.64,0,3.96,0,.45,0,.91,0,1.36,0,.4-.13.51-.53.51-.87,0-1.74,0-2.6,0-.48,0-.59-.11-.59-.6,0-.88,0-1.76,0-2.63"/>
  <path class="cls-26" d="m61.26,39.02c.38-1.25.75-2.47,1.15-3.76.39,1.29.77,2.52,1.15,3.76h-2.3Z"/>
  <path class="cls-18" d="m34.9,27.61c0-.37,0-.73,0-1.1,0-.18.05-.27.25-.26.37,0,.73,0,1.1,0,.17,0,.24.07.24.24,0,.76,0,1.52,0,2.29,0,.16-.07.24-.22.24-.39,0-.77,0-1.16,0-.16,0-.21-.09-.21-.24,0-.39,0-.77,0-1.16"/>
  <path class="cls-20" d="m44.99,27.62c0,.38,0,.75,0,1.13,0,.19-.08.27-.25.27-.37,0-.73,0-1.1,0-.18,0-.26-.09-.26-.27,0-.74,0-1.48,0-2.23,0-.19.06-.28.27-.28.36.01.71,0,1.07,0,.2,0,.27.08.27.27,0,.37,0,.73,0,1.1"/>
  <path class="cls-20" d="m32.46,50.49s-.1,0-.15,0c-.19.03-.25-.04-.25-.24,0-.44,0-.45.44-.44.11,0,.29.03.3.07.03.17.04.37,0,.54-.01.05-.22.06-.34.08,0,0,0-.02,0-.02"/>
  <path class="cls-12" d="m35.18,50.24v.87h-.68c.22-.31.43-.6.64-.88.01,0,.03.01.04.02"/>
  <path class="cls-20" d="m37.01,51.11c.23-.32.43-.6.66-.92v.92h-.66Z"/>
</svg>