<?xml version="1.0" encoding="UTF-8"?>
<svg id="Vrstva_1" data-name="Vrstva 1" xmlns="http://www.w3.org/2000/svg" viewBox="0 0 105.32 24.71">
  <defs>
    <style>
      .cls-1 {
        stroke-width: 0px;
      }
    </style>
  </defs>
  <polygon class="cls-1" points="13.83 9.42 10.51 5.09 10.51 9.42 9.49 9.42 9.49 .39 10.51 .39 10.51 4.47 13.72 .39 14.98 .39 11.58 4.78 15.08 9.42 13.83 9.42"/>
  <path class="cls-1" d="m20.91,2.97v6.46h-.96v-1.11c-.44.79-1.14,1.28-2.08,1.28-1.53,0-2.78-1.49-2.78-3.4s1.25-3.39,2.78-3.39c.93,0,1.64.49,2.08,1.28v-1.11h.96Zm-.96,3.23c0-1.32-.85-2.31-1.96-2.31s-1.94.99-1.94,2.31.85,2.31,1.94,2.31,1.96-.99,1.96-2.31"/>
  <path class="cls-1" d="m23.89,4.05v3.5c0,.98.48.92,1.46.87v1.01c-1.65.26-2.42-.26-2.42-1.87v-3.5h-1.09v-1.08h1.09v-1.47l.96-.34v1.81h1.46v1.08h-1.46Z"/>
  <path class="cls-1" d="m28.87,8.53c.76,0,1.31-.41,1.58-.94l.81.54c-.48.88-1.32,1.46-2.42,1.46-1.77,0-2.94-1.46-2.94-3.39s1.16-3.4,2.88-3.4,2.74,1.6,2.74,3.41c0,.17-.01.33-.03.5h-4.6c.19,1.16.97,1.82,1.99,1.82m-1.99-2.8h3.67c-.16-1.28-.94-1.87-1.77-1.87-1.03,0-1.75.75-1.9,1.87"/>
  <path class="cls-1" d="m32.24.39h1.02l.67,1.05.67-1.05h1.02l-1.16,1.74h-1.05l-1.16-1.74Zm3.05,2.47v1.18c-.82-.04-1.71.45-1.71,1.97v3.42h-.96V2.97h.96v1.08c.35-.9,1.02-1.2,1.71-1.2"/>
  <path class="cls-1" d="m36.06,1.05c0-.41.28-.76.65-.76s.64.35.64.76-.28.75-.64.75-.65-.34-.65-.75m.16,1.92h.96v6.45h-.96V2.97Z"/>
  <path class="cls-1" d="m43.51,5.46v3.96h-.96v-3.9c0-1.06-.52-1.65-1.36-1.65s-1.59.61-1.59,2.13v3.42h-.96V2.97h.96v.93c.41-.76,1.01-1.1,1.78-1.1,1.29,0,2.13,1.01,2.13,2.66"/>
  <path class="cls-1" d="m50.35,2.97v6.46h-.96v-1.11c-.44.79-1.14,1.28-2.08,1.28-1.53,0-2.78-1.49-2.78-3.4s1.25-3.39,2.78-3.39c.93,0,1.64.49,2.08,1.28v-1.11h.96Zm-.96,3.23c0-1.32-.85-2.31-1.96-2.31s-1.95.99-1.95,2.31.84,2.31,1.95,2.31,1.96-.99,1.96-2.31"/>
  <polygon class="cls-1" points="60.42 .39 60.42 9.42 59.4 9.42 59.4 5.36 55.67 5.36 55.67 9.42 54.65 9.42 54.65 .39 55.67 .39 55.67 4.22 59.4 4.22 59.4 .39 60.42 .39"/>
  <path class="cls-1" d="m61.66,6.2c0-1.91,1.29-3.39,2.89-3.39s2.9,1.49,2.9,3.39-1.3,3.4-2.9,3.4-2.89-1.49-2.89-3.4m4.83,0c0-1.3-.85-2.3-1.94-2.3s-1.93.99-1.93,2.3.85,2.3,1.93,2.3,1.94-.99,1.94-2.3"/>
  <rect class="cls-1" x="68.59" width=".96" height="9.42"/>
  <path class="cls-1" d="m71,2.97h.96v6.45h-.96V2.97Zm.96-.84l.73-1.74h-1.13l-.52,1.74h.92Z"/>
  <polygon class="cls-1" points="76.88 9.42 74.38 6.36 74.38 9.42 73.42 9.42 73.42 .39 74.38 .39 74.38 5.82 76.75 2.97 77.98 2.97 75.36 6.09 78.07 9.42 76.88 9.42"/>
  <path class="cls-1" d="m78.15,6.2c0-1.91,1.29-3.39,2.89-3.39s2.9,1.49,2.9,3.39-1.3,3.4-2.9,3.4-2.89-1.49-2.89-3.4m4.83,0c0-1.3-.85-2.3-1.94-2.3s-1.93.99-1.93,2.3.85,2.3,1.93,2.3,1.94-.99,1.94-2.3"/>
  <polygon class="cls-1" points="89.73 2.97 87.54 9.42 86.41 9.42 84.22 2.97 85.25 2.97 86.97 8.22 88.7 2.97 89.73 2.97"/>
  <path class="cls-1" d="m95.83,2.97v6.45h-.96v-1.11c-.44.79-1.14,1.28-2.08,1.28-1.53,0-2.78-1.48-2.78-3.4s1.25-3.39,2.78-3.39c.93,0,1.64.49,2.08,1.28v-1.11h.96Zm-.96,3.23c0-1.32-.84-2.31-1.95-2.31s-1.95.99-1.95,2.31.85,2.31,1.95,2.31,1.95-.99,1.95-2.31m-1.65-4.1h-.92l.88-1.7h1.15l-1.11,1.7Z"/>
  <polygon class="cls-1" points="4.34 22.12 1.02 17.79 1.02 22.12 0 22.12 0 13.09 1.02 13.09 1.02 17.17 4.23 13.09 5.48 13.09 2.09 17.48 5.59 22.12 4.34 22.12"/>
  <path class="cls-1" d="m11.42,15.67v6.46h-.96v-1.11c-.44.79-1.14,1.28-2.08,1.28-1.53,0-2.78-1.49-2.78-3.4s1.25-3.39,2.78-3.39c.93,0,1.64.49,2.08,1.28v-1.11h.96Zm-.96,3.23c0-1.32-.85-2.31-1.96-2.31s-1.94.99-1.94,2.31.85,2.31,1.94,2.31,1.96-.99,1.96-2.31"/>
  <path class="cls-1" d="m18.38,13.09v9.04h-.96v-1.11c-.44.79-1.14,1.28-2.08,1.28-1.53,0-2.78-1.49-2.78-3.4s1.25-3.39,2.78-3.39c.93,0,1.64.49,2.08,1.28v-3.69h.96Zm-.96,5.81c0-1.32-.85-2.31-1.96-2.31s-1.95.99-1.95,2.31.84,2.31,1.95,2.31,1.96-.99,1.96-2.31"/>
  <path class="cls-1" d="m22.49,21.23c.76,0,1.31-.41,1.58-.94l.81.54c-.48.88-1.32,1.46-2.42,1.46-1.77,0-2.95-1.46-2.95-3.39s1.17-3.4,2.88-3.4,2.74,1.6,2.74,3.41c0,.17-.01.33-.03.5h-4.6c.19,1.16.97,1.82,1.99,1.82m-1.99-2.8h3.67c-.16-1.28-.94-1.87-1.77-1.87-1.03,0-1.75.75-1.9,1.87"/>
  <path class="cls-1" d="m25.85,13.09h1.02l.67,1.05.67-1.05h1.02l-1.16,1.74h-1.05l-1.16-1.74Zm3.05,2.47v1.18c-.82-.04-1.71.45-1.71,1.97v3.42h-.95v-6.45h.95v1.08c.35-.9,1.02-1.2,1.71-1.2"/>
  <path class="cls-1" d="m34.71,18.16v3.96h-.96v-3.9c0-1.06-.52-1.65-1.36-1.65s-1.59.61-1.59,2.13v3.42h-.96v-6.45h.96v.93c.41-.76,1.01-1.1,1.78-1.1,1.29,0,2.13,1.01,2.13,2.66"/>
  <path class="cls-1" d="m35.88,13.74c0-.41.29-.76.65-.76s.64.35.64.76-.29.75-.64.75-.65-.34-.65-.75m.16,1.92h.96v6.45h-.96v-6.45Z"/>
  <path class="cls-1" d="m38.15,18.9c0-1.91,1.23-3.39,2.89-3.39,1.09,0,2.01.67,2.43,1.69l-.8.54c-.27-.68-.89-1.14-1.63-1.14-1.1,0-1.93.99-1.93,2.3s.84,2.29,1.93,2.29c.75,0,1.35-.45,1.66-1.12l.81.56c-.46,1.01-1.4,1.68-2.47,1.68-1.66,0-2.89-1.49-2.89-3.4"/>
  <path class="cls-1" d="m45.99,16.75v3.5c0,.98.48.92,1.46.87v1.01c-1.65.26-2.42-.26-2.42-1.87v-3.5h-1.09v-1.08h1.09v-1.47l.96-.34v1.81h1.46v1.08h-1.46Z"/>
  <polygon class="cls-1" points="53.5 15.67 51.3 22.12 50.18 22.12 47.98 15.67 49.01 15.67 50.74 20.92 52.46 15.67 53.5 15.67"/>
  <path class="cls-1" d="m54.31,15.67h.96v6.45h-.96v-6.45Zm.96-.84l.73-1.74h-1.13l-.52,1.74h.92Z"/>
  <polygon class="cls-1" points="57.44 23.93 56.62 23.93 57.06 20.79 58.16 20.79 57.44 23.93"/>
  <path class="cls-1" d="m68.07,18.9c0,1.91-1.25,3.4-2.78,3.4-.93,0-1.64-.49-2.08-1.28v3.69h-.96v-9.04h.96v1.11c.44-.79,1.14-1.28,2.08-1.28,1.53,0,2.78,1.49,2.78,3.39m-.96,0c0-1.32-.85-2.31-1.94-2.31s-1.96.99-1.96,2.31.84,2.31,1.96,2.31,1.94-.99,1.94-2.31"/>
  <path class="cls-1" d="m71.88,21.23c.76,0,1.31-.41,1.58-.94l.81.54c-.48.88-1.32,1.46-2.42,1.46-1.77,0-2.94-1.46-2.94-3.39s1.16-3.4,2.88-3.4,2.74,1.6,2.74,3.41c0,.17-.01.33-.03.5h-4.6c.19,1.16.97,1.82,1.99,1.82m-1.99-2.8h3.67c-.16-1.28-.94-1.87-1.77-1.87-1.03,0-1.75.75-1.9,1.87"/>
  <path class="cls-1" d="m81.12,13.09v9.04h-.96v-1.11c-.44.79-1.14,1.28-2.08,1.28-1.53,0-2.78-1.49-2.78-3.4s1.25-3.39,2.78-3.39c.93,0,1.64.49,2.08,1.28v-3.69h.96Zm-.96,5.81c0-1.32-.85-2.31-1.96-2.31s-1.94.99-1.94,2.31.85,2.31,1.94,2.31,1.96-.99,1.96-2.31"/>
  <path class="cls-1" d="m82.41,13.74c0-.41.29-.76.65-.76s.64.35.64.76-.29.75-.64.75-.65-.34-.65-.75m.16,1.92h.96v6.45h-.96v-6.45Z"/>
  <polygon class="cls-1" points="88.45 22.12 85.95 19.06 85.95 22.12 84.99 22.12 84.99 13.09 85.95 13.09 85.95 18.52 88.32 15.67 89.55 15.67 86.92 18.79 89.64 22.12 88.45 22.12"/>
  <path class="cls-1" d="m95.06,15.67v6.45h-.95v-.93c-.41.76-1.01,1.1-1.78,1.1-1.29,0-2.13-1.01-2.13-2.66v-3.96h.96v3.9c0,1.06.52,1.65,1.36,1.65s1.59-.61,1.59-2.13v-3.42h.95Zm-3.69-1.98c0-.77.51-1.37,1.24-1.37s1.24.59,1.24,1.37-.49,1.38-1.24,1.38-1.24-.59-1.24-1.38m.73,0c0,.34.19.59.52.59.35,0,.53-.26.53-.59s-.18-.58-.53-.58c-.33,0-.52.26-.52.58"/>
  <path class="cls-1" d="m99.18,15.55v1.18c-.82-.04-1.71.45-1.71,1.97v3.42h-.95v-6.45h.95v1.08c.35-.9,1.02-1.2,1.71-1.2"/>
  <path class="cls-1" d="m105.32,15.67v6.46h-.96v-1.11c-.44.79-1.14,1.28-2.08,1.28-1.53,0-2.78-1.49-2.78-3.4s1.25-3.39,2.78-3.39c.93,0,1.64.49,2.08,1.28v-1.11h.96Zm-.96,3.23c0-1.32-.85-2.31-1.96-2.31s-1.94.99-1.94,2.31.85,2.31,1.94,2.31,1.96-.99,1.96-2.31"/>
</svg>