<?xml version="1.0" encoding="UTF-8"?>
<svg id="Vrstva_1" data-name="Vrstva 1" xmlns="http://www.w3.org/2000/svg" viewBox="0 0 67.08 33.73">
  <defs>
    <style>
      .cls-1 {
        stroke-width: 0px;
      }
    </style>
  </defs>
  <g>
    <polygon class="cls-1" points="5.55 7.53 5.55 8.6 0 8.6 0 7.62 4.11 1.17 .11 1.17 .11 .1 5.45 .1 5.45 1.07 1.34 7.53 5.55 7.53"/>
    <path class="cls-1" d="m12.55,2.53v6.07h-1.06v-1.04c-.48.74-1.26,1.2-2.3,1.2-1.69,0-3.07-1.4-3.07-3.2s1.39-3.19,3.07-3.19c1.03,0,1.81.46,2.3,1.2v-1.04h1.06Zm-1.06,3.04c0-1.24-.93-2.18-2.16-2.18s-2.15.94-2.15,2.18.93,2.17,2.15,2.17,2.16-.93,2.16-2.17m-1.82-3.86h-1.02l.97-1.6h1.28l-1.23,1.6Z"/>
    <path class="cls-1" d="m22.99,4.82v3.78h-1.06v-3.74c0-.96-.53-1.48-1.34-1.48-.85,0-1.49.53-1.49,1.85v3.38h-1.06v-3.74c0-.96-.5-1.48-1.29-1.48s-1.55.53-1.55,1.85v3.38h-1.06V2.53h1.06v.82c.44-.68,1.07-.97,1.81-.97.83,0,1.43.38,1.79,1.03.42-.69,1.12-1.03,1.91-1.03,1.35,0,2.28.93,2.28,2.45"/>
    <path class="cls-1" d="m27.41,7.76c.84,0,1.45-.39,1.75-.89l.9.51c-.53.83-1.46,1.37-2.67,1.37-1.96,0-3.26-1.37-3.26-3.19s1.29-3.19,3.18-3.19,3.02,1.51,3.02,3.21c0,.16-.01.32-.04.47h-5.09c.21,1.09,1.07,1.71,2.2,1.71m-2.2-2.64h4.06c-.18-1.2-1.04-1.76-1.96-1.76-1.14,0-1.93.71-2.1,1.76"/>
    <path class="cls-1" d="m37.12,7.18c-.51.95-1.54,1.58-2.73,1.58-1.83,0-3.19-1.4-3.19-3.19s1.36-3.19,3.19-3.19c1.2,0,2.22.63,2.68,1.59l-.89.51c-.3-.64-.98-1.07-1.8-1.07-1.21,0-2.14.93-2.14,2.16s.92,2.15,2.14,2.15c.83,0,1.49-.43,1.83-1.06l.9.52ZM32.41.1h1.13l.74.98.74-.98h1.13l-1.29,1.64h-1.17l-1.29-1.64Z"/>
    <path class="cls-1" d="m43.56,4.87v3.73h-1.06v-3.67c0-1-.57-1.55-1.51-1.55s-1.76.57-1.76,2v3.22h-1.06V2.53h1.06v.88c.45-.72,1.12-1.03,1.97-1.03,1.42,0,2.36.95,2.36,2.5"/>
    <path class="cls-1" d="m44.85.72c0-.39.32-.72.72-.72s.7.33.7.72-.32.7-.7.7-.72-.32-.72-.7m.18,1.81h1.06v6.07h-1.06V2.53Z"/>
    <path class="cls-1" d="m47.37,5.56c0-1.8,1.36-3.19,3.19-3.19,1.2,0,2.22.63,2.68,1.59l-.89.51c-.3-.64-.98-1.07-1.8-1.07-1.22,0-2.14.93-2.14,2.16s.92,2.15,2.14,2.15c.83,0,1.49-.42,1.83-1.06l.9.52c-.51.95-1.54,1.58-2.73,1.58-1.83,0-3.19-1.4-3.19-3.19"/>
    <path class="cls-1" d="m56.03,3.55v3.29c0,.92.53.86,1.61.81v.95c-1.82.24-2.67-.24-2.67-1.76v-3.29h-1.2v-1.02h1.2v-1.38l1.06-.32v1.7h1.61v1.02h-1.61Z"/>
    <polygon class="cls-1" points="64.32 2.53 61.89 8.6 60.66 8.6 58.23 2.53 59.37 2.53 61.27 7.47 63.18 2.53 64.32 2.53"/>
    <path class="cls-1" d="m65.22,2.53h1.06v6.07h-1.06V2.53Zm1.06-.79l.8-1.64h-1.25l-.57,1.64h1.02Z"/>
  </g>
  <g>
    <path class="cls-1" d="m2.59,20.29l.96-.56c.27.68.88.97,1.7.97,1.04,0,1.74-.49,1.74-1.54v-6.01h1.12v6.01c0,1.77-1.3,2.65-2.85,2.65-1.2,0-2.21-.51-2.66-1.52"/>
    <path class="cls-1" d="m15.74,15.58v6.07h-1.06v-1.04c-.49.74-1.26,1.2-2.3,1.2-1.69,0-3.07-1.4-3.07-3.19s1.39-3.19,3.07-3.19c1.03,0,1.81.46,2.3,1.2v-1.04h1.06Zm-1.06,3.04c0-1.24-.94-2.17-2.16-2.17s-2.15.94-2.15,2.17.93,2.17,2.15,2.17,2.16-.94,2.16-2.17"/>
    <path class="cls-1" d="m22.72,17.92v3.73h-1.06v-3.67c0-1-.57-1.55-1.51-1.55s-1.76.57-1.76,2v3.22h-1.06v-6.07h1.06v.88c.45-.72,1.12-1.03,1.97-1.03,1.42,0,2.36.95,2.36,2.5"/>
    <polygon class="cls-1" points="26.53 13.15 27.74 13.15 30.21 20.24 32.66 13.15 33.89 13.15 30.84 21.65 29.56 21.65 26.53 13.15"/>
    <path class="cls-1" d="m36.98,20.82c.84,0,1.45-.39,1.75-.89l.9.51c-.53.83-1.46,1.37-2.67,1.37-1.96,0-3.26-1.37-3.26-3.19s1.29-3.19,3.18-3.19,3.02,1.51,3.02,3.21c0,.16-.01.32-.04.47h-5.09c.21,1.09,1.07,1.71,2.2,1.71m-2.2-2.64h4.06c-.18-1.2-1.04-1.76-1.96-1.76-1.14,0-1.93.71-2.1,1.76"/>
    <path class="cls-1" d="m46.7,20.23c-.51.95-1.54,1.58-2.73,1.58-1.83,0-3.19-1.4-3.19-3.19s1.36-3.19,3.19-3.19c1.2,0,2.22.63,2.68,1.59l-.89.51c-.3-.64-.98-1.07-1.8-1.07-1.21,0-2.14.93-2.14,2.16s.92,2.15,2.14,2.15c.83,0,1.49-.43,1.83-1.06l.9.52Zm-4.71-7.08h1.13l.74.98.74-.98h1.13l-1.29,1.64h-1.17l-1.29-1.64Z"/>
    <path class="cls-1" d="m50.6,20.82c.84,0,1.45-.39,1.75-.89l.9.51c-.53.83-1.46,1.37-2.67,1.37-1.96,0-3.26-1.37-3.26-3.19s1.29-3.19,3.18-3.19,3.02,1.51,3.02,3.21c0,.16-.01.32-.04.47h-5.09c.21,1.09,1.07,1.71,2.2,1.71m-2.2-2.64h4.06c-.18-1.2-1.04-1.76-1.96-1.76-1.14,0-1.93.71-2.1,1.76"/>
    <path class="cls-1" d="m54.32,13.15h1.13l.74.98.74-.98h1.13l-1.29,1.64h-1.17l-1.29-1.64Zm3.38,2.32v1.11c-.91-.04-1.9.43-1.9,1.86v3.22h-1.06v-6.07h1.06v1.02c.39-.85,1.13-1.13,1.9-1.13"/>
    <path class="cls-1" d="m64.49,15.58v6.07h-1.06v-1.04c-.49.74-1.26,1.2-2.3,1.2-1.69,0-3.07-1.4-3.07-3.19s1.38-3.19,3.07-3.19c1.03,0,1.81.46,2.3,1.2v-1.04h1.06Zm-1.06,3.04c0-1.24-.94-2.17-2.16-2.17s-2.15.94-2.15,2.17.93,2.17,2.15,2.17,2.16-.94,2.16-2.17"/>
  </g>
  <g>
    <path class="cls-1" d="m8.17,31.64l.97-.56c.3.94,1.03,1.54,2.27,1.54s1.8-.55,1.8-1.31c0-.88-.75-1.17-2-1.55-1.36-.44-2.67-.86-2.67-2.44s1.25-2.41,2.67-2.41,2.41.79,2.88,1.86l-.95.55c-.3-.73-.9-1.31-1.93-1.31-.91,0-1.54.49-1.54,1.26s.6,1.08,1.79,1.46c1.48.49,2.88.92,2.88,2.56,0,1.49-1.2,2.44-2.94,2.44-1.62,0-2.77-.82-3.22-2.09"/>
    <rect class="cls-1" x="15.56" y="24.71" width="1.06" height="8.87"/>
    <path class="cls-1" d="m23.48,27.5v6.07h-1.06v-.88c-.45.72-1.12,1.03-1.97,1.03-1.42,0-2.36-.95-2.36-2.5v-3.73h1.06v3.67c0,1,.57,1.55,1.51,1.55s1.76-.57,1.76-2v-3.22h1.06Z"/>
    <path class="cls-1" d="m29.38,31.91c0,1.13-.97,1.82-2.27,1.82-1.21,0-2.07-.58-2.42-1.42l.91-.52c.19.58.75.95,1.51.95.64,0,1.2-.23,1.2-.83,0-1.3-3.4-.56-3.4-2.76,0-1.07.92-1.81,2.15-1.81,1,0,1.8.47,2.18,1.26l-.89.5c-.23-.55-.76-.78-1.3-.78s-1.08.27-1.08.81c0,1.3,3.4.54,3.4,2.77m-4.2-6.88h1.13l.74.98.74-.98h1.13l-1.29,1.64h-1.17l-1.29-1.64Z"/>
    <path class="cls-1" d="m30.12,30.54c0-1.8,1.42-3.19,3.2-3.19s3.21,1.4,3.21,3.19-1.43,3.19-3.21,3.19-3.2-1.4-3.2-3.19m5.34,0c0-1.23-.94-2.16-2.15-2.16s-2.14.93-2.14,2.16.93,2.16,2.14,2.16,2.15-.93,2.15-2.16"/>
    <polygon class="cls-1" points="42.92 27.5 40.5 33.58 39.26 33.58 36.83 27.5 37.97 27.5 39.88 32.45 41.78 27.5 42.92 27.5"/>
    <path class="cls-1" d="m43.64,25.69c0-.39.32-.72.72-.72s.71.33.71.72-.32.7-.71.7-.72-.32-.72-.7m.18,1.81h1.06v6.07h-1.06v-6.07Z"/>
    <path class="cls-1" d="m46.16,30.54c0-1.8,1.36-3.19,3.19-3.19,1.2,0,2.22.63,2.68,1.59l-.89.51c-.3-.64-.98-1.07-1.8-1.07-1.22,0-2.14.93-2.14,2.16s.92,2.15,2.14,2.15c.83,0,1.49-.42,1.83-1.06l.9.52c-.51.95-1.54,1.58-2.73,1.58-1.83,0-3.19-1.4-3.19-3.19"/>
    <path class="cls-1" d="m55.98,32.74c.84,0,1.45-.39,1.75-.89l.9.51c-.53.83-1.46,1.37-2.67,1.37-1.96,0-3.26-1.37-3.26-3.19s1.29-3.19,3.18-3.19,3.02,1.51,3.02,3.21c0,.16-.01.32-.04.47h-5.09c.21,1.09,1.07,1.71,2.2,1.71m-2.2-2.64h4.06c-.18-1.2-1.04-1.76-1.96-1.76-1.14,0-1.93.71-2.1,1.76"/>
  </g>
</svg>