<?xml version="1.0" encoding="UTF-8"?>
<svg id="Vrstva_1" data-name="Vrstva 1" xmlns="http://www.w3.org/2000/svg" viewBox="0 0 72.26 34.9">
  <defs>
    <style>
      .cls-1 {
        stroke-width: 0px;
      }
    </style>
  </defs>
  <path class="cls-1" d="m5.16,4.57c0,1.37-1.04,2.42-2.43,2.42h-1.73v2.69H0V2.15h2.73c1.39,0,2.43,1.04,2.43,2.42m-.99,0c0-.86-.61-1.48-1.44-1.48h-1.73v2.97h1.73c.83,0,1.44-.63,1.44-1.48"/>
  <path class="cls-1" d="m5.89,5.91c0-2.17,1.71-3.9,3.89-3.9s3.9,1.73,3.9,3.9-1.72,3.9-3.9,3.9-3.89-1.74-3.89-3.9m6.8,0c0-1.65-1.26-2.94-2.9-2.94s-2.9,1.28-2.9,2.94,1.26,2.92,2.9,2.92,2.9-1.28,2.9-2.92"/>
  <polygon class="cls-1" points="20.53 2.15 20.53 9.68 19.54 9.68 19.54 6.29 15.89 6.29 15.89 9.68 14.89 9.68 14.89 2.15 15.89 2.15 15.89 5.34 19.54 5.34 19.54 2.15 20.53 2.15"/>
  <path class="cls-1" d="m21.74,5.91c0-2.17,1.71-3.9,3.89-3.9s3.9,1.73,3.9,3.9-1.72,3.9-3.9,3.9-3.89-1.74-3.89-3.9m6.8,0c0-1.65-1.26-2.94-2.9-2.94s-2.9,1.28-2.9,2.94,1.26,2.92,2.9,2.92,2.9-1.28,2.9-2.92"/>
  <path class="cls-1" d="m30.05,7.97l.86-.5c.27.83.91,1.37,2.01,1.37s1.59-.48,1.59-1.16c0-.77-.67-1.03-1.77-1.38-1.2-.39-2.37-.76-2.37-2.16s1.11-2.13,2.37-2.13,2.13.7,2.55,1.65l-.84.48c-.27-.64-.79-1.16-1.71-1.16-.81,0-1.37.43-1.37,1.12s.53.96,1.58,1.29c1.31.43,2.55.82,2.55,2.27,0,1.32-1.06,2.16-2.6,2.16-1.43,0-2.45-.72-2.85-1.85"/>
  <polygon class="cls-1" points="41.23 3.1 39.01 3.1 39.01 9.68 38.02 9.68 38.02 3.1 35.8 3.1 35.8 2.15 41.23 2.15 41.23 3.1"/>
  <rect class="cls-1" x="42.22" y="2.15" width="1" height="7.53"/>
  <polygon class="cls-1" points="50.51 2.15 50.51 9.68 49.7 9.68 45.83 4.05 45.83 9.68 44.83 9.68 44.83 2.15 45.64 2.15 49.51 7.76 49.51 2.15 50.51 2.15"/>
  <path class="cls-1" d="m51.58,7.97l.86-.5c.27.83.91,1.37,2.01,1.37s1.59-.48,1.59-1.16c0-.77-.67-1.03-1.77-1.38-1.2-.39-2.37-.76-2.37-2.16s1.11-2.13,2.37-2.13,2.13.7,2.55,1.65l-.84.48c-.27-.64-.79-1.16-1.71-1.16-.81,0-1.37.43-1.37,1.12s.53.96,1.58,1.29c1.31.43,2.55.82,2.55,2.27,0,1.32-1.06,2.16-2.6,2.16-1.43,0-2.45-.72-2.85-1.85"/>
  <polygon class="cls-1" points="62.76 3.1 60.54 3.1 60.54 9.68 59.55 9.68 59.55 3.1 57.33 3.1 57.33 2.15 62.76 2.15 62.76 3.1"/>
  <polygon class="cls-1" points="63.03 2.15 64.1 2.15 66.29 8.43 68.46 2.15 69.54 2.15 66.84 9.68 65.72 9.68 63.03 2.15"/>
  <path class="cls-1" d="m70.27,1.42l.86-1.42h1.13l-1.08,1.42h-.9Zm.15,8.26h1V2.15h-1v7.53Z"/>
  <polygon class="cls-1" points="12.78 14.69 12.78 22.22 11.98 22.22 8.11 16.59 8.11 22.22 7.1 22.22 7.1 14.69 7.91 14.69 11.78 20.3 11.78 14.69 12.78 14.69"/>
  <path class="cls-1" d="m18.74,20.53h-3.39l-.61,1.69h-1.06l2.81-7.53h1.13l2.81,7.53h-1.07l-.61-1.69Zm-.34-.94l-1.35-3.71-1.35,3.71h2.7Z"/>
  <path class="cls-1" d="m23.59,18.45c0-2.17,1.71-3.9,3.89-3.9s3.9,1.73,3.9,3.9-1.72,3.9-3.9,3.9-3.89-1.74-3.89-3.9m6.8,0c0-1.66-1.26-2.94-2.9-2.94s-2.9,1.28-2.9,2.94,1.26,2.92,2.9,2.92,2.9-1.28,2.9-2.92"/>
  <path class="cls-1" d="m31.9,20.51l.86-.5c.27.83.91,1.37,2.01,1.37s1.59-.48,1.59-1.16c0-.77-.67-1.03-1.77-1.38-1.2-.39-2.37-.76-2.37-2.16s1.11-2.13,2.37-2.13,2.13.7,2.55,1.65l-.84.48c-.27-.64-.79-1.16-1.71-1.16-.81,0-1.37.43-1.37,1.12s.53.96,1.58,1.29c1.31.43,2.55.82,2.55,2.27,0,1.32-1.06,2.16-2.6,2.16-1.43,0-2.45-.72-2.85-1.85"/>
  <polygon class="cls-1" points="45.52 22.22 44.53 22.22 44.53 16.34 42.07 20.43 41.94 20.43 39.48 16.35 39.48 22.22 38.48 22.22 38.48 14.69 39.61 14.69 42.01 18.67 44.39 14.69 45.52 14.69 45.52 22.22"/>
  <polygon class="cls-1" points="51.63 21.27 51.63 22.22 47.13 22.22 47.13 14.69 51.57 14.69 51.57 15.64 48.13 15.64 48.13 17.95 51.3 17.95 51.3 18.88 48.13 18.88 48.13 21.27 51.63 21.27"/>
  <polygon class="cls-1" points="57.08 22.22 53.83 18.6 53.83 22.22 52.83 22.22 52.83 14.69 53.83 14.69 53.83 18.09 56.97 14.69 58.2 14.69 54.87 18.35 58.3 22.22 57.08 22.22"/>
  <path class="cls-1" d="m58.76,19.69v-5h1v4.96c0,1.04.62,1.73,1.83,1.73s1.83-.69,1.83-1.73v-4.96h.99v5c0,1.63-1.17,2.67-2.82,2.67s-2.83-1.03-2.83-2.67"/>
  <polygon class="cls-1" points="20.59 27.23 20.59 34.76 19.6 34.76 19.6 31.37 15.95 31.37 15.95 34.76 14.95 34.76 14.95 27.23 15.95 27.23 15.95 30.42 19.6 30.42 19.6 27.23 20.59 27.23"/>
  <polygon class="cls-1" points="26.88 29.38 24.73 34.76 23.63 34.76 21.48 29.38 22.49 29.38 24.18 33.76 25.87 29.38 26.88 29.38"/>
  <path class="cls-1" d="m27.16,32.07c0-1.59,1.26-2.83,2.83-2.83s2.84,1.24,2.84,2.83-1.27,2.83-2.84,2.83-2.83-1.24-2.83-2.83m4.73,0c0-1.08-.83-1.91-1.9-1.91s-1.89.83-1.89,1.91.83,1.91,1.89,1.91,1.9-.83,1.9-1.91"/>
  <polygon class="cls-1" points="37.54 33.86 37.54 34.76 33.4 34.76 33.4 34.13 36.14 30.27 33.51 30.27 33.51 29.38 37.43 29.38 37.43 30 34.68 33.86 37.54 33.86"/>
  <path class="cls-1" d="m43.71,27.23v7.53h-.93v-.92c-.43.66-1.12,1.06-2.03,1.06-1.49,0-2.72-1.24-2.72-2.83s1.23-2.83,2.72-2.83c.91,0,1.6.41,2.03,1.07v-3.08h.93Zm-.93,4.84c0-1.1-.83-1.92-1.91-1.92s-1.9.83-1.9,1.92.83,1.93,1.9,1.93,1.91-.83,1.91-1.93"/>
  <path class="cls-1" d="m49.89,31.46v3.3h-.94v-3.25c0-.88-.51-1.38-1.33-1.38s-1.56.51-1.56,1.77v2.85h-.94v-5.38h.94v.77c.4-.63.99-.91,1.74-.91,1.26,0,2.09.84,2.09,2.22"/>
  <path class="cls-1" d="m56.58,29.38v5.38h-.94v-.92c-.43.66-1.12,1.06-2.03,1.06-1.49,0-2.72-1.24-2.72-2.83s1.23-2.83,2.72-2.83c.91,0,1.6.41,2.03,1.06v-.92h.94Zm-.94,2.69c0-1.1-.83-1.92-1.91-1.92s-1.9.83-1.9,1.92.83,1.93,1.9,1.93,1.91-.83,1.91-1.93m-1.61-3.42h-.9l.86-1.42h1.13l-1.08,1.42Z"/>
</svg>