<?xml version="1.0" encoding="UTF-8"?>
<svg id="Vrstva_1" data-name="Vrstva 1" xmlns="http://www.w3.org/2000/svg" viewBox="0 0 84.04 27.38">
  <defs>
    <style>
      .cls-1, .cls-2 {
        stroke-width: 0px;
      }

      .cls-2 {
        fill: #fff;
      }
    </style>
  </defs>
  <polygon class="cls-1" points="25.16 4.7 25.16 14.06 24.11 14.06 24.11 9.85 20.24 9.85 20.24 14.06 19.18 14.06 19.18 4.7 20.24 4.7 20.24 8.67 24.11 8.67 24.11 4.7 25.16 4.7"/>
  <path class="cls-1" d="m26.44,10.72c0-1.98,1.33-3.52,2.99-3.52s3.01,1.54,3.01,3.52-1.34,3.52-3.01,3.52-2.99-1.54-2.99-3.52m5.01,0c0-1.35-.88-2.38-2.02-2.38s-2,1.03-2,2.38.88,2.38,2,2.38,2.02-1.03,2.02-2.38"/>
  <path class="cls-1" d="m37.53,12.23c0,1.24-.91,2.01-2.13,2.01-1.14,0-1.93-.64-2.27-1.56l.85-.57c.18.64.71,1.04,1.41,1.04.6,0,1.13-.26,1.13-.91,0-1.43-3.19-.61-3.19-3.03,0-1.18.86-1.99,2.01-1.99.93,0,1.68.52,2.05,1.39l-.83.55c-.22-.6-.72-.85-1.22-.85s-1.01.29-1.01.9c0,1.43,3.19.59,3.19,3.05"/>
  <path class="cls-1" d="m44.72,10.72c0,1.98-1.3,3.52-2.88,3.52-.97,0-1.7-.51-2.15-1.32v3.82h-.99V7.38h.99v1.15c.46-.82,1.18-1.32,2.15-1.32,1.58,0,2.88,1.54,2.88,3.52m-.99,0c0-1.36-.88-2.39-2.02-2.39s-2.03,1.03-2.03,2.39.88,2.39,2.03,2.39,2.02-1.03,2.02-2.39"/>
  <path class="cls-1" d="m50.82,7.38v6.68h-.99v-.96c-.42.79-1.05,1.13-1.84,1.13-1.33,0-2.21-1.04-2.21-2.75v-4.1h.99v4.04c0,1.1.53,1.71,1.41,1.71s1.65-.63,1.65-2.21v-3.54h.99Zm-3.83-2.05c0-.8.52-1.42,1.29-1.42s1.29.62,1.29,1.42-.51,1.43-1.29,1.43-1.29-.62-1.29-1.43m.75,0c0,.35.19.62.53.62.36,0,.55-.27.55-.62s-.18-.6-.55-.6c-.34,0-.53.27-.53.6"/>
  <path class="cls-1" d="m58.02,4.7v9.36h-.99v-1.15c-.46.82-1.18,1.32-2.15,1.32-1.58,0-2.88-1.54-2.88-3.52s1.3-3.52,2.88-3.52c.97,0,1.7.51,2.15,1.32v-3.82h.99Zm-.99,6.01c0-1.36-.88-2.39-2.03-2.39s-2.02,1.03-2.02,2.39.88,2.39,2.02,2.39,2.03-1.03,2.03-2.39"/>
  <polygon class="cls-1" points="63.1 14.06 60.51 10.89 60.51 14.06 59.52 14.06 59.52 4.7 60.51 4.7 60.51 10.33 62.97 7.38 64.24 7.38 61.52 10.61 64.33 14.06 63.1 14.06"/>
  <path class="cls-1" d="m70.43,7.38v6.68h-.99v-1.15c-.46.82-1.18,1.32-2.15,1.32-1.58,0-2.88-1.54-2.88-3.52s1.3-3.52,2.88-3.52c.97,0,1.7.51,2.15,1.32v-1.15h.99Zm-.99,3.34c0-1.36-.88-2.39-2.03-2.39s-2.02,1.03-2.02,2.39.88,2.39,2.02,2.39,2.03-1.03,2.03-2.39"/>
  <polygon class="cls-1" points="15.09 17.85 15.09 27.2 14.24 27.2 10.14 20.21 10.14 27.2 9.08 27.2 9.08 17.85 9.94 17.85 14.03 24.83 14.03 17.85 15.09 17.85"/>
  <path class="cls-1" d="m22.4,20.52v6.68h-.99v-1.15c-.46.82-1.18,1.32-2.15,1.32-1.58,0-2.88-1.54-2.88-3.52s1.3-3.52,2.88-3.52c.97,0,1.7.51,2.15,1.32v-1.15h.99Zm-.99,3.34c0-1.36-.88-2.39-2.03-2.39s-2.02,1.03-2.02,2.39.88,2.39,2.02,2.39,2.03-1.03,2.03-2.39"/>
  <polygon class="cls-1" points="32.82 17.85 32.82 27.2 31.77 27.2 31.77 22.99 27.9 22.99 27.9 27.2 26.84 27.2 26.84 17.85 27.9 17.85 27.9 21.82 31.77 21.82 31.77 17.85 32.82 17.85"/>
  <path class="cls-1" d="m34.02,17.85h1.06l.69,1.08.69-1.08h1.06l-1.21,1.81h-1.09l-1.21-1.81Zm3.17,2.55v1.22c-.85-.04-1.78.47-1.78,2.04v3.54h-.99v-6.68h.99v1.12c.36-.93,1.06-1.24,1.78-1.24"/>
  <path class="cls-1" d="m37.98,18.53c0-.43.3-.79.67-.79s.66.36.66.79-.29.77-.66.77-.67-.35-.67-.77m.17,1.99h.99v6.68h-.99v-6.68Z"/>
  <path class="cls-1" d="m44.68,25.37c0,1.24-.91,2.01-2.13,2.01-1.14,0-1.94-.64-2.27-1.56l.85-.57c.18.64.71,1.04,1.41,1.04.6,0,1.13-.26,1.13-.91,0-1.43-3.19-.61-3.19-3.03,0-1.18.86-1.99,2.01-1.99.93,0,1.68.52,2.05,1.39l-.83.55c-.22-.6-.72-.86-1.22-.86s-1.01.29-1.01.9c0,1.43,3.19.59,3.19,3.05m-3.94-7.57h1.06l.69,1.08.69-1.08h1.06l-1.21,1.8h-1.09l-1.21-1.8Z"/>
  <path class="cls-1" d="m47.21,21.64v3.62c0,1.02.5.95,1.51.9v1.04c-1.71.27-2.51-.27-2.51-1.94v-3.62h-1.13v-1.12h1.13v-1.52l.99-.35v1.87h1.51v1.12h-1.51Z"/>
  <path class="cls-1" d="m49.72,18.53c0-.43.3-.79.67-.79s.66.36.66.79-.3.77-.66.77-.67-.35-.67-.77m.17,1.99h.99v6.68h-.99v-6.68Z"/>
  <polygon class="cls-1" points="59.84 26.03 59.84 27.2 55.34 27.2 55.34 17.85 56.4 17.85 56.4 26.03 59.84 26.03"/>
  <path class="cls-1" d="m65.65,20.52v6.68h-.99v-.96c-.42.79-1.05,1.14-1.84,1.14-1.33,0-2.21-1.04-2.21-2.75v-4.1h.99v4.04c0,1.1.54,1.71,1.41,1.71s1.65-.63,1.65-2.21v-3.54h.99Z"/>
  <polygon class="cls-1" points="70.74 27.2 68.14 24.04 68.14 27.2 67.15 27.2 67.15 17.85 68.14 17.85 68.14 23.48 70.6 20.52 71.88 20.52 69.15 23.76 71.97 27.2 70.74 27.2"/>
  <path class="cls-1" d="m72.04,23.86c0-1.98,1.33-3.52,2.99-3.52s3.01,1.54,3.01,3.52-1.34,3.52-3.01,3.52-2.99-1.54-2.99-3.52m5.01,0c0-1.35-.88-2.38-2.02-2.38s-2,1.03-2,2.38.88,2.38,2,2.38,2.02-1.03,2.02-2.38"/>
  <polygon class="cls-1" points="84.04 20.52 81.76 27.21 80.6 27.21 78.32 20.52 79.39 20.52 81.18 25.96 82.97 20.52 84.04 20.52"/>
  <path class="cls-2" d="m0,8.18c0,.72.13,1.57.49,2.38.43.96.93,1.87,1.68,2.63.97.98,2.1,1.69,3.42,2.09.92.28,1.87.38,2.83.29.86-.07,1.69-.23,2.49-.6.92-.42,1.75-.97,2.46-1.69,1.12-1.14,1.84-2.5,2.14-4.07.13-.67.15-1.35.1-2.03-.07-.9-.29-1.77-.66-2.6-.44-.97-1.05-1.82-1.84-2.54-.72-.65-1.53-1.16-2.43-1.52-.66-.26-1.34-.43-2.05-.5-.63-.06-1.27-.05-1.9.04-.76.11-1.49.32-2.18.64-.83.39-1.57.91-2.23,1.56-.87.87-1.49,1.88-1.89,3.04C.12,6.2.01,7.11,0,8.18"/>
  <path class="cls-1" d="m0,8.18c.01-1.08.12-1.99.42-2.86.39-1.16,1.02-2.17,1.89-3.04.65-.65,1.39-1.17,2.23-1.56.69-.32,1.42-.54,2.18-.64.63-.09,1.27-.1,1.9-.04.7.07,1.39.24,2.05.49.91.36,1.71.87,2.43,1.52.79.72,1.4,1.57,1.84,2.54.38.83.59,1.69.66,2.6.05.68.03,1.36-.1,2.03-.3,1.57-1.02,2.93-2.14,4.07-.71.72-1.54,1.27-2.46,1.69-.79.37-1.63.52-2.49.6-.96.08-1.91-.01-2.83-.29-1.32-.4-2.45-1.11-3.42-2.09-.75-.76-1.25-1.67-1.68-2.63C.13,9.76,0,8.91,0,8.18m7.82,6.18c.49,0,1.02-.05,1.53-.21.06-.02.13-.05.17-.1.33-.4.67-.79.98-1.2.16-.22.27-.49.39-.74.05-.09.05-.18-.02-.27-.12-.17-.22-.34-.33-.52-.37-.57-.73-1.15-1.09-1.73-.04-.07-.09-.1-.17-.1-.92.02-1.85.04-2.77.03-.25,0-.4.07-.53.29-.39.64-.8,1.27-1.21,1.89-.1.15-.1.27-.02.43.3.58.61,1.15,1.06,1.63.13.14.29.29.46.35.48.16.99.22,1.55.24m6.63-6.18c.03-.23-.07-.43-.16-.62-.28-.62-.7-1.15-1.12-1.68-.11-.14-.22-.16-.38-.12-.72.2-1.45.39-2.18.58-.09.02-.13.06-.16.14-.3.92-.61,1.84-.91,2.76-.02.05,0,.13.02.17.16.26.33.52.49.77.32.5.64,1.01.96,1.51.05.08.1.11.2.1.11-.02.23-.02.35-.04.57-.09,1.1-.3,1.62-.55.16-.08.35-.12.44-.29.1-.19.21-.38.3-.57.31-.69.53-1.41.54-2.17m-13.31,0c0,.08-.01.17,0,.25.12.89.4,1.73.82,2.52.03.05.08.11.13.13.38.17.77.35,1.16.5.35.13.71.21,1.09.23.09,0,.14-.02.19-.1.43-.69.86-1.38,1.31-2.06.16-.24.17-.43.08-.69-.27-.75-.53-1.51-.76-2.28-.07-.22-.16-.34-.4-.4-.7-.16-1.39-.36-2.08-.54-.11-.03-.19-.02-.26.08-.3.42-.62.82-.91,1.26-.21.32-.39.68-.36,1.09M7.82,3.07h.04c0,.37,0,.75,0,1.12,0,.07.02.11.08.16.82.59,1.64,1.19,2.46,1.79.06.05.11.05.18.03.74-.21,1.49-.41,2.23-.61.08-.02.11-.06.12-.13.03-.24.07-.48.09-.73.04-.43.01-.85-.1-1.26-.07-.25-.23-.44-.39-.63-.57-.69-1.25-1.23-2.1-1.53-.15-.05-.29-.08-.45-.05-.29.06-.58.09-.86.16-.41.09-.82.2-1.19.4-.08.04-.11.1-.11.19,0,.37,0,.73,0,1.1m-.19.01h.03c0-.33-.02-.66,0-.99.02-.23-.09-.32-.27-.39-.59-.24-1.21-.37-1.83-.46-.11-.02-.24-.03-.34,0-.88.33-1.65.84-2.27,1.55-.22.25-.39.51-.45.85-.1.61-.06,1.21.05,1.8,0,.04.06.09.1.1.75.21,1.5.41,2.24.62.06.02.12.02.18-.02.82-.6,1.65-1.2,2.47-1.8.04-.03.08-.1.08-.15,0-.37,0-.74,0-1.11m-2.66,11.76c1.85.84,3.7.7,5.56.12-.04-.05-.09-.07-.13-.09-.31-.16-.64-.31-.9-.55-.02-.02-.07-.01-.1,0-.2.05-.39.11-.59.14-.76.13-1.52.09-2.27-.08-.32-.08-.59-.07-.87.11-.21.14-.45.23-.7.35m8.72-2.21s.02,0,.03,0c1.2-1.59,1.92-3.33,1.7-5.36-.25.23-.51.46-.76.7-.03.02-.03.08-.04.12-.01.18,0,.36-.03.54-.11.8-.38,1.56-.77,2.26-.11.21-.21.4-.14.64.01.04,0,.09,0,.13v.96m-11.82,0c0-.14,0-.24,0-.34,0-.3,0-.6.03-.9,0-.11,0-.21-.06-.31-.47-.88-.78-1.8-.88-2.8-.02-.18-.06-.32-.21-.44-.19-.15-.36-.34-.54-.51-.08.83-.05,1.65.18,2.45.3,1.03.83,1.96,1.48,2.85M14.08,3.42c-.67-1.13-2.88-2.71-4.01-2.87.07.12.16.23.22.36.04.09.1.14.18.17.11.05.23.1.34.15.77.37,1.42.89,1.94,1.56.14.18.27.33.51.33.02,0,.05.01.07.02.25.09.49.18.75.27m-12.44-.06c.3-.11.59-.21.88-.31.04-.01.07-.05.1-.08.57-.78,1.32-1.32,2.19-1.72.15-.07.33-.11.46-.21.2-.16.38-.37.56-.56-1.71.5-3.11,1.45-4.18,2.88"/>
  <path class="cls-2" d="m7.82,14.37c-.56-.02-1.07-.07-1.55-.24-.17-.06-.33-.21-.46-.35-.46-.47-.76-1.05-1.06-1.62-.08-.16-.08-.28.02-.43.41-.62.83-1.25,1.21-1.89.13-.22.28-.29.53-.29.92,0,1.85-.02,2.77-.03.09,0,.13.03.17.1.36.58.73,1.15,1.1,1.73.11.17.21.35.33.52.07.09.07.18.02.27-.13.25-.23.52-.39.74-.31.41-.65.8-.98,1.2-.04.05-.11.08-.17.1-.51.17-1.04.22-1.53.21"/>
  <path class="cls-2" d="m14.45,8.19c0,.76-.22,1.48-.54,2.17-.09.2-.19.39-.3.57-.09.17-.28.22-.44.29-.52.25-1.05.46-1.62.55-.11.02-.23.02-.35.03-.09.01-.15-.03-.2-.1-.32-.51-.64-1.01-.96-1.51-.16-.26-.33-.51-.49-.77-.03-.05-.04-.12-.02-.17.3-.92.61-1.84.92-2.76.03-.08.07-.12.15-.14.73-.19,1.46-.38,2.18-.58.16-.05.27-.03.38.11.42.53.83,1.06,1.12,1.68.09.2.19.39.16.62"/>
  <path class="cls-2" d="m1.13,8.18c-.04-.41.14-.76.36-1.09.28-.43.6-.84.91-1.26.07-.1.15-.11.27-.08.69.19,1.38.38,2.08.54.24.06.33.17.4.39.24.76.49,1.52.76,2.28.09.26.08.45-.08.69-.46.67-.88,1.37-1.31,2.06-.05.07-.1.1-.19.1-.38-.01-.74-.1-1.09-.23-.39-.15-.77-.33-1.16-.5-.05-.02-.1-.08-.13-.13-.42-.79-.7-1.63-.82-2.52-.01-.08,0-.17,0-.25"/>
  <path class="cls-2" d="m7.82,3.07c0-.36,0-.73,0-1.1,0-.09.03-.15.11-.19.38-.2.78-.31,1.19-.4.29-.06.58-.1.86-.16.16-.03.3,0,.45.04.86.29,1.53.84,2.1,1.53.16.19.33.38.39.63.11.41.14.84.1,1.26-.02.24-.06.49-.09.73,0,.08-.04.11-.12.13-.75.2-1.49.41-2.23.61-.07.02-.12.02-.18-.03-.82-.6-1.64-1.19-2.46-1.79-.06-.04-.08-.09-.08-.16,0-.37,0-.75,0-1.12h-.03"/>
  <path class="cls-2" d="m7.63,3.08c0,.37,0,.74,0,1.11,0,.05-.04.12-.08.15-.82.6-1.65,1.2-2.47,1.8-.06.04-.11.04-.18.02-.75-.21-1.5-.41-2.24-.62-.04-.01-.09-.06-.1-.1-.12-.6-.16-1.2-.05-1.8.06-.33.23-.6.45-.85.62-.71,1.39-1.22,2.27-1.55.1-.04.23-.02.34,0,.63.09,1.24.22,1.83.46.18.08.29.17.27.4-.02.33,0,.66,0,.99h-.03Z"/>
  <path class="cls-2" d="m4.97,14.85c.25-.12.49-.21.7-.35.28-.18.54-.19.87-.11.75.18,1.51.21,2.27.09.2-.03.4-.1.59-.14.03,0,.08-.01.1,0,.26.24.59.39.9.55.05.02.09.05.13.09-1.86.57-3.71.71-5.56-.12"/>
  <path class="cls-2" d="m13.68,12.64v-.96s0-.09,0-.13c-.06-.24.03-.43.14-.64.39-.71.66-1.46.77-2.26.02-.18.02-.36.03-.54,0-.04.01-.09.04-.12.25-.24.5-.47.76-.7.22,2.03-.5,3.77-1.7,5.36-.01,0-.02,0-.03,0"/>
  <path class="cls-2" d="m1.87,12.63c-.65-.89-1.17-1.82-1.48-2.85-.24-.8-.27-1.62-.18-2.45.18.18.35.36.54.51.15.12.2.26.21.44.09.99.41,1.92.88,2.8.05.1.07.19.06.31-.02.3-.02.6-.03.9,0,.1,0,.21,0,.34"/>
  <path class="cls-2" d="m14.08,3.42c-.25-.09-.5-.18-.75-.27-.02,0-.05-.02-.07-.02-.24,0-.37-.15-.51-.33-.53-.67-1.17-1.19-1.94-1.56-.11-.05-.23-.1-.34-.15-.08-.04-.14-.08-.18-.17-.06-.13-.15-.25-.22-.36,1.13.16,3.34,1.74,4.01,2.87"/>
  <path class="cls-2" d="m1.64,3.36C2.71,1.92,4.11.97,5.82.47c-.19.19-.36.39-.56.56-.13.1-.3.14-.46.21-.86.4-1.62.95-2.19,1.72-.03.03-.06.07-.1.08-.29.11-.58.21-.88.31"/>
</svg>