<?xml version="1.0" encoding="UTF-8"?>
<svg id="Vrstva_1" data-name="Vrstva 1" xmlns="http://www.w3.org/2000/svg" viewBox="0 0 81.43 23.63">
  <defs>
    <style>
      .cls-1 {
        stroke-width: 0px;
      }
    </style>
  </defs>
  <path class="cls-1" d="m0,.56c.47-.11,1.21-.18,1.95-.18,1.07,0,1.75.18,2.25.6.43.32.7.81.7,1.46,0,.81-.54,1.51-1.4,1.81v.04c.78.18,1.7.83,1.7,2.06,0,.71-.28,1.25-.71,1.65-.56.53-1.49.77-2.84.77-.74,0-1.3-.05-1.65-.1V.56Zm1.07,3.38h.97c1.12,0,1.78-.6,1.78-1.4,0-.95-.72-1.35-1.8-1.35-.49,0-.77.04-.94.07v2.67Zm0,3.94c.22.04.51.05.89.05,1.1,0,2.12-.4,2.12-1.6,0-1.12-.97-1.59-2.13-1.59h-.88v3.15Z"/>
  <path class="cls-1" d="m6.6,4.62c0-.7-.01-1.3-.05-1.85h.94l.05,1.16h.04c.27-.8.93-1.3,1.65-1.3.11,0,.2.01.29.02v1.02c-.11-.01-.22-.02-.37-.02-.76,0-1.3.57-1.45,1.37-.02.16-.04.33-.04.5v3.17h-1.08v-4.08Z"/>
  <path class="cls-1" d="m12.9,8.83c-1.59,0-2.84-1.18-2.84-3.05,0-1.98,1.31-3.15,2.94-3.15s2.85,1.24,2.85,3.04c0,2.2-1.53,3.16-2.94,3.16h-.01Zm.05-.81c1.03,0,1.8-.97,1.8-2.32,0-1-.5-2.26-1.78-2.26s-1.81,1.18-1.81,2.3c0,1.3.74,2.28,1.78,2.28h.01Z"/>
  <path class="cls-1" d="m17.2,4.37c0-.62-.01-1.11-.05-1.6h.96l.06.97h.02c.29-.55.98-1.1,1.96-1.1.82,0,2.09.49,2.09,2.52v3.54h-1.08v-3.41c0-.95-.35-1.76-1.37-1.76-.7,0-1.25.5-1.44,1.1-.05.13-.07.33-.07.5v3.57h-1.08v-4.32Z"/>
  <path class="cls-1" d="m28.23,8.47c-.29.13-.91.34-1.71.34-1.79,0-2.95-1.21-2.95-3.03s1.25-3.16,3.18-3.16c.64,0,1.2.16,1.49.32l-.24.82c-.26-.14-.66-.28-1.25-.28-1.36,0-2.09,1.02-2.09,2.24,0,1.37.88,2.22,2.06,2.22.61,0,1.02-.15,1.32-.28l.19.81Z"/>
  <path class="cls-1" d="m30.02,5.93c.02,1.45.94,2.04,2.02,2.04.77,0,1.25-.13,1.64-.31l.2.77c-.38.17-1.04.38-1.99.38-1.81,0-2.91-1.21-2.91-2.99s1.06-3.2,2.79-3.2c1.93,0,2.44,1.7,2.44,2.79,0,.22-.01.38-.04.5h-4.15Zm3.15-.77c0-.68-.29-1.75-1.48-1.75-1.1,0-1.57,1.01-1.65,1.75h3.14Z"/>
  <path class="cls-1" d="m36.63,5.48h.02c.15-.21.34-.47.51-.67l1.75-2.04h1.28l-2.29,2.44,2.61,3.49h-1.31l-2.03-2.84-.55.61v2.23h-1.08V0h1.08v5.48Z"/>
  <path class="cls-1" d="m49.09,8.69c-.23-.23-.45-.46-.77-.8-.71.65-1.49.93-2.41.93-1.6,0-2.53-1.08-2.53-2.32,0-1.13.67-1.9,1.62-2.41v-.04c-.42-.54-.7-1.14-.7-1.73,0-1,.73-2.03,2.11-2.03,1.03,0,1.82.67,1.82,1.75,0,.87-.5,1.56-1.81,2.21v.04c.7.81,1.48,1.71,2.01,2.3.38-.58.64-1.37.8-2.41h.98c-.22,1.3-.57,2.33-1.19,3.05.44.47.87.93,1.36,1.46h-1.27Zm-2.99-.67c.71,0,1.3-.32,1.69-.75-.49-.52-1.41-1.54-2.32-2.59-.45.28-1.07.81-1.07,1.68,0,.94.69,1.67,1.68,1.67h.01Zm.21-6.98c-.67,0-1.03.56-1.03,1.2,0,.59.28,1.04.62,1.48.85-.48,1.37-.92,1.37-1.62,0-.5-.28-1.06-.95-1.06h-.01Z"/>
  <path class="cls-1" d="m60.88,5.07c-.06-1.14-.13-2.55-.13-3.56h-.03c-.29.95-.62,2.01-1.04,3.14l-1.46,4h-.81l-1.35-3.93c-.39-1.16-.71-2.23-.94-3.21h-.03c-.02,1.03-.09,2.41-.16,3.65l-.22,3.54h-1.02l.58-8.25h1.36l1.41,3.99c.34,1.02.61,1.94.83,2.79h.02c.22-.83.52-1.75.88-2.79l1.47-3.99h1.36l.52,8.25h-1.05l-.2-3.62Z"/>
  <path class="cls-1" d="m67.99,7.27c0,.52.03,1.02.09,1.42h-.97l-.1-.74h-.04c-.32.46-.97.88-1.81.88-1.2,0-1.81-.85-1.81-1.7,0-1.43,1.27-2.22,3.56-2.2v-.12c0-.49-.13-1.39-1.35-1.37-.56,0-1.14.16-1.55.44l-.24-.72c.49-.31,1.21-.52,1.96-.52,1.83,0,2.27,1.24,2.27,2.43v2.21Zm-1.05-1.6c-1.18-.02-2.51.18-2.51,1.34,0,.71.47,1.03,1,1.03.78,0,1.29-.49,1.46-.99.04-.11.05-.23.05-.34v-1.03Z"/>
  <path class="cls-1" d="m69.71,4.62c0-.7-.01-1.3-.05-1.85h.94l.05,1.16h.04c.27-.8.93-1.3,1.65-1.3.11,0,.2.01.29.02v1.02c-.11-.01-.22-.02-.37-.02-.76,0-1.3.57-1.45,1.37-.02.16-.04.33-.04.5v3.17h-1.08v-4.08Z"/>
  <path class="cls-1" d="m74.28,1.76c-.39,0-.65-.3-.65-.66,0-.38.27-.68.67-.68s.66.3.66.68c0,.35-.26.66-.67.66h-.01Zm-.51,1.01h1.08v5.93h-1.08V2.77Z"/>
  <path class="cls-1" d="m77.24,5.93c.02,1.45.94,2.04,2.02,2.04.77,0,1.25-.13,1.64-.31l.2.77c-.38.17-1.04.38-1.98.38-1.81,0-2.92-1.21-2.92-2.99s1.06-3.2,2.79-3.2c1.94,0,2.44,1.7,2.44,2.79,0,.22-.01.38-.04.5h-4.15Zm3.15-.77c.01-.68-.28-1.75-1.48-1.75-1.1,0-1.57,1.01-1.65,1.75h3.14Z"/>
  <polygon class="cls-1" points="17.56 12.68 17.56 16.14 21.55 16.14 21.55 12.68 22.63 12.68 22.63 20.94 21.55 20.94 21.55 17.07 17.56 17.07 17.56 20.94 16.48 20.94 16.48 12.68 17.56 12.68"/>
  <path class="cls-1" d="m24.95,15.01l1.28,3.5c.15.39.29.86.39,1.21h.03c.11-.35.23-.81.38-1.24l1.18-3.48h1.14l-1.62,4.22c-.77,2.03-1.3,3.06-2.03,3.71-.54.45-1.05.64-1.32.69l-.27-.89c.27-.09.62-.26.94-.53.29-.23.65-.65.91-1.2.05-.11.09-.19.09-.26s-.02-.15-.09-.28l-2.18-5.46h1.18Z"/>
  <path class="cls-1" d="m30.32,16.62c0-.62-.01-1.11-.05-1.6h.96l.06.96h.02c.29-.55.98-1.1,1.96-1.1.82,0,2.09.49,2.09,2.52v3.54h-1.08v-3.42c0-.96-.35-1.76-1.37-1.76-.7,0-1.25.5-1.45,1.1-.05.13-.07.33-.07.5v3.57h-1.08v-4.32Z"/>
  <path class="cls-1" d="m41.34,20.72c-.28.14-.91.34-1.7.34-1.79,0-2.95-1.21-2.95-3.02s1.25-3.16,3.18-3.16c.64,0,1.2.16,1.49.32l-.24.82c-.26-.14-.66-.28-1.25-.28-1.36,0-2.09,1.02-2.09,2.24,0,1.37.88,2.22,2.06,2.22.61,0,1.02-.15,1.32-.28l.18.81Zm-2.29-6.51l-1.18-1.75h.82l.72,1.16h.02l.72-1.16h.81l-1.15,1.75h-.77Z"/>
  <path class="cls-1" d="m43.12,14.01c-.39,0-.65-.31-.65-.66,0-.38.27-.67.67-.67s.66.29.66.67c0,.35-.26.66-.67.66h-.01Zm-.51,1.01h1.08v5.93h-1.08v-5.93Z"/>
  <path class="cls-1" d="m49.69,20.72c-.28.14-.91.34-1.7.34-1.79,0-2.95-1.21-2.95-3.02s1.25-3.16,3.18-3.16c.64,0,1.2.16,1.49.32l-.24.82c-.26-.14-.66-.28-1.25-.28-1.36,0-2.09,1.02-2.09,2.24,0,1.37.88,2.22,2.06,2.22.61,0,1.02-.15,1.32-.28l.18.81Z"/>
  <path class="cls-1" d="m53.29,21.07c-1.59,0-2.84-1.17-2.84-3.05,0-1.98,1.31-3.15,2.94-3.15s2.85,1.24,2.85,3.04c0,2.2-1.53,3.16-2.94,3.16h-.01Zm.05-.81c1.03,0,1.8-.97,1.8-2.31,0-1-.5-2.27-1.77-2.27s-1.81,1.17-1.81,2.3c0,1.3.73,2.28,1.78,2.28h.01Z"/>
  <path class="cls-1" d="m57.93,15.01l1.16,3.32c.2.55.36,1.04.48,1.53h.04c.14-.49.31-.98.5-1.53l1.15-3.32h1.12l-2.32,5.93h-1.03l-2.25-5.93h1.15Z"/>
  <path class="cls-1" d="m63.92,14.01c-.39,0-.65-.31-.65-.66,0-.38.27-.67.68-.67s.66.29.66.67c0,.35-.26.66-.67.66h-.01Zm-.52,1.01h1.08v5.93h-1.08v-5.93Z"/>
</svg>