<?xml version="1.0" encoding="UTF-8"?>
<svg id="Vrstva_1" data-name="Vrstva 1" xmlns="http://www.w3.org/2000/svg" viewBox="0 0 64.51 9.02">
  <defs>
    <style>
      .cls-1 {
        stroke-width: 0px;
      }
    </style>
  </defs>
  <polygon class="cls-1" points="7.96 8.87 6.84 8.87 6.84 2.22 4.06 6.85 3.91 6.85 1.13 2.23 1.13 8.87 0 8.87 0 .36 1.28 .36 3.98 4.86 6.68 .36 7.96 .36 7.96 8.87"/>
  <path class="cls-1" d="m9.49.98c0-.39.32-.72.72-.72s.7.33.7.72-.32.7-.7.7-.72-.32-.72-.7m.18,1.81h1.06v6.07h-1.06V2.79Z"/>
  <rect class="cls-1" x="12.34" width="1.06" height="8.87"/>
  <path class="cls-1" d="m21.1,2.79v6.07h-1.06v-1.04c-.49.74-1.26,1.2-2.3,1.2-1.69,0-3.07-1.4-3.07-3.19s1.39-3.19,3.07-3.19c1.03,0,1.81.46,2.3,1.2v-1.04h1.06Zm-1.06,3.04c0-1.24-.94-2.17-2.16-2.17s-2.15.94-2.15,2.17.94,2.17,2.15,2.17,2.16-.94,2.16-2.17"/>
  <path class="cls-1" d="m28.08,5.14v3.73h-1.06v-3.67c0-1-.57-1.55-1.51-1.55s-1.76.57-1.76,2v3.22h-1.06V2.79h1.06v.88c.45-.72,1.12-1.03,1.97-1.03,1.42,0,2.36.95,2.36,2.5"/>
  <polygon class="cls-1" points="40.66 8.87 39.54 8.87 39.54 2.22 36.76 6.85 36.61 6.85 33.83 2.23 33.83 8.87 32.7 8.87 32.7 .36 33.98 .36 36.69 4.86 39.38 .36 40.66 .36 40.66 8.87"/>
  <path class="cls-1" d="m48.46,2.79v6.07h-1.06v-1.04c-.49.74-1.26,1.2-2.3,1.2-1.69,0-3.07-1.4-3.07-3.19s1.39-3.19,3.07-3.19c1.03,0,1.81.46,2.3,1.2v-1.04h1.06Zm-1.06,3.04c0-1.24-.94-2.17-2.16-2.17s-2.15.94-2.15,2.17.94,2.17,2.15,2.17,2.16-.94,2.16-2.17"/>
  <path class="cls-1" d="m49.72,5.83c0-1.8,1.36-3.19,3.19-3.19,1.2,0,2.22.63,2.68,1.59l-.89.51c-.3-.64-.98-1.07-1.8-1.07-1.22,0-2.14.93-2.14,2.16s.92,2.15,2.14,2.15c.83,0,1.49-.42,1.83-1.06l.9.52c-.51.95-1.54,1.58-2.73,1.58-1.83,0-3.19-1.4-3.19-3.19"/>
  <path class="cls-1" d="m56.69,2.79h1.06v6.07h-1.06V2.79Zm1.06-.79l.8-1.64h-1.25l-.57,1.64h1.02Z"/>
  <polygon class="cls-1" points="63.19 8.87 60.42 5.99 60.42 8.87 59.37 8.87 59.37 .36 60.42 .36 60.42 5.48 63.05 2.79 64.41 2.79 61.51 5.73 64.51 8.87 63.19 8.87"/>
</svg>