<?xml version="1.0" encoding="UTF-8"?>
<svg id="Vrstva_1" data-name="Vrstva 1" xmlns="http://www.w3.org/2000/svg" viewBox="0 0 63.01 27.58">
  <defs>
    <style>
      .cls-1 {
        stroke-width: 0px;
      }
    </style>
  </defs>
  <polygon class="cls-1" points="14.28 10.54 12.95 10.54 12.95 2.64 9.64 8.14 9.47 8.14 6.16 2.66 6.16 10.54 4.82 10.54 4.82 .43 6.33 .43 9.55 5.78 12.76 .43 14.28 .43 14.28 10.54"/>
  <path class="cls-1" d="m23.55,3.32v7.22h-1.26v-1.24c-.58.88-1.5,1.43-2.73,1.43-2.01,0-3.65-1.66-3.65-3.8s1.65-3.8,3.65-3.8c1.23,0,2.15.55,2.73,1.43v-1.24h1.26Zm-1.26,3.61c0-1.47-1.11-2.59-2.57-2.59s-2.56,1.11-2.56,2.59,1.11,2.58,2.56,2.58,2.57-1.11,2.57-2.58"/>
  <path class="cls-1" d="m31.85,6.11v4.43h-1.26v-4.36c0-1.19-.68-1.85-1.79-1.85s-2.09.68-2.09,2.38v3.83h-1.26V3.32h1.26v1.04c.53-.85,1.33-1.23,2.34-1.23,1.69,0,2.8,1.13,2.8,2.97"/>
  <path class="cls-1" d="m38.83,9.34v1.2h-5.56v-.84l3.68-5.18h-3.54v-1.2h5.27v.84l-3.7,5.18h3.84ZM33.83.43h1.34l.88,1.17.88-1.17h1.34l-1.53,1.95h-1.39l-1.53-1.95Z"/>
  <path class="cls-1" d="m43.38,9.54c1,0,1.72-.46,2.08-1.05l1.07.61c-.63.98-1.73,1.63-3.18,1.63-2.33,0-3.87-1.63-3.87-3.8s1.53-3.8,3.78-3.8,3.6,1.79,3.6,3.81c0,.19-.01.38-.04.56h-6.05c.24,1.3,1.27,2.04,2.61,2.04m-2.61-3.13h4.82c-.22-1.43-1.24-2.09-2.33-2.09-1.36,0-2.3.84-2.5,2.09"/>
  <rect class="cls-1" x="48.3" width="1.26" height="10.54"/>
  <path class="cls-1" d="m54.98,9.54c1,0,1.72-.46,2.08-1.05l1.07.61c-.63.98-1.73,1.63-3.18,1.63-2.33,0-3.87-1.63-3.87-3.8s1.53-3.8,3.78-3.8,3.6,1.79,3.6,3.81c0,.19-.01.37-.04.56h-6.05c.24,1.3,1.27,2.04,2.61,2.04m-2.61-3.13h4.82c-.22-1.43-1.24-2.09-2.33-2.09-1.36,0-2.29.84-2.5,2.09m2.76-4.09h-1.21l1.16-1.91h1.52l-1.46,1.91Z"/>
  <polygon class="cls-1" points="5.7 27.39 1.34 22.54 1.34 27.39 0 27.39 0 17.28 1.34 17.28 1.34 21.85 5.56 17.28 7.21 17.28 2.74 22.19 7.35 27.39 5.7 27.39"/>
  <path class="cls-1" d="m11.93,20.04v1.31c-1.08-.04-2.25.51-2.25,2.21v3.83h-1.26v-7.22h1.26v1.21c.46-1.01,1.34-1.34,2.25-1.34"/>
  <path class="cls-1" d="m19.4,20.17v7.22h-1.26v-1.04c-.53.85-1.33,1.23-2.34,1.23-1.69,0-2.8-1.13-2.8-2.97v-4.43h1.26v4.36c0,1.18.68,1.85,1.79,1.85s2.09-.68,2.09-2.38v-3.83h1.26Z"/>
  <path class="cls-1" d="m23.31,21.38v3.91c0,1.1.63,1.02,1.92.97v1.13c-2.17.29-3.18-.29-3.18-2.09v-3.91h-1.43v-1.21h1.43v-1.65l1.26-.38v2.02h1.92v1.21h-1.92Z"/>
  <path class="cls-1" d="m26.5,18.02c0-.46.38-.85.85-.85s.84.39.84.85-.38.84-.84.84-.85-.37-.85-.84m.22,2.15h1.26v7.22h-1.26v-7.22Z"/>
  <path class="cls-1" d="m37.13,20.17v7.22h-1.26v-1.24c-.58.88-1.5,1.43-2.73,1.43-2.01,0-3.65-1.66-3.65-3.8s1.65-3.8,3.65-3.8c1.23,0,2.15.55,2.73,1.43v-1.24h1.26Zm-1.26,3.61c0-1.47-1.11-2.59-2.57-2.59s-2.56,1.11-2.56,2.59,1.11,2.58,2.56,2.58,2.57-1.11,2.57-2.58"/>
  <polygon class="cls-1" points="43.59 27.39 40.29 23.97 40.29 27.39 39.04 27.39 39.04 17.28 40.29 17.28 40.29 23.36 43.41 20.17 45.03 20.17 41.58 23.66 45.15 27.39 43.59 27.39"/>
  <path class="cls-1" d="m45.25,23.78c0-2.14,1.69-3.8,3.8-3.8s3.81,1.66,3.81,3.8-1.7,3.8-3.81,3.8-3.8-1.66-3.8-3.8m6.35,0c0-1.46-1.11-2.57-2.55-2.57s-2.54,1.11-2.54,2.57,1.11,2.57,2.54,2.57,2.55-1.11,2.55-2.57"/>
  <polygon class="cls-1" points="60.47 20.17 57.58 27.39 56.11 27.39 53.22 20.17 54.58 20.17 56.84 26.05 59.11 20.17 60.47 20.17"/>
  <path class="cls-1" d="m61.32,18.02c0-.46.38-.85.85-.85s.84.39.84.85-.38.84-.84.84-.85-.37-.85-.84m.22,2.15h1.26v7.22h-1.26v-7.22Z"/>
</svg>