<?xml version="1.0" encoding="UTF-8"?>
<svg id="Vrstva_1" data-name="Vrstva 1" xmlns="http://www.w3.org/2000/svg" viewBox="0 0 50.1 27.46">
  <defs>
    <style>
      .cls-1 {
        stroke-width: 0px;
      }
    </style>
  </defs>
  <path class="cls-1" d="m21.07,5.61c0,3.11-2.23,5.61-5.32,5.61h-4.38V0h4.38c3.09,0,5.32,2.5,5.32,5.61m-1.43,0c0-2.37-1.59-4.2-3.89-4.2h-2.89v8.4h2.89c2.31,0,3.89-1.83,3.89-4.2"/>
  <path class="cls-1" d="m30.77,3.21v8.01h-1.39v-1.38c-.64.98-1.67,1.59-3.03,1.59-2.23,0-4.06-1.84-4.06-4.22s1.83-4.22,4.06-4.22c1.36,0,2.39.61,3.03,1.59v-1.38h1.39Zm-1.39,4.01c0-1.64-1.23-2.87-2.85-2.87s-2.84,1.23-2.84,2.87,1.23,2.87,2.84,2.87,2.85-1.23,2.85-2.87"/>
  <path class="cls-1" d="m39.99,6.3v4.92h-1.39v-4.84c0-1.31-.75-2.05-1.99-2.05s-2.32.75-2.32,2.64v4.25h-1.39V3.21h1.39v1.15c.59-.95,1.48-1.36,2.6-1.36,1.88,0,3.11,1.25,3.11,3.3"/>
  <polygon class="cls-1" points="0 16.03 1.6 16.03 4.86 25.4 8.1 16.03 9.71 16.03 5.69 27.25 4.01 27.25 0 16.03"/>
  <path class="cls-1" d="m13.8,26.15c1.11,0,1.91-.51,2.31-1.17l1.19.67c-.7,1.09-1.92,1.81-3.53,1.81-2.58,0-4.3-1.81-4.3-4.22s1.7-4.22,4.2-4.22,3.99,1.99,3.99,4.23c0,.21-.02.42-.05.63h-6.72c.27,1.44,1.41,2.26,2.9,2.26m-2.9-3.48h5.35c-.24-1.59-1.38-2.32-2.58-2.32-1.51,0-2.55.93-2.77,2.32"/>
  <path class="cls-1" d="m26.63,25.38c-.67,1.25-2.04,2.08-3.61,2.08-2.42,0-4.21-1.84-4.21-4.22s1.79-4.22,4.21-4.22c1.59,0,2.93.83,3.54,2.1l-1.17.67c-.4-.85-1.3-1.41-2.37-1.41-1.6,0-2.82,1.23-2.82,2.85s1.22,2.84,2.82,2.84c1.09,0,1.97-.56,2.42-1.39l1.19.69Zm-6.22-9.34h1.49l.98,1.3.98-1.3h1.49l-1.7,2.16h-1.54l-1.7-2.16Z"/>
  <path class="cls-1" d="m31.78,26.15c1.11,0,1.91-.51,2.31-1.17l1.19.67c-.7,1.09-1.92,1.81-3.53,1.81-2.58,0-4.3-1.81-4.3-4.22s1.7-4.22,4.2-4.22,3.99,1.99,3.99,4.23c0,.21-.02.42-.05.63h-6.72c.27,1.44,1.41,2.26,2.9,2.26m-2.9-3.48h5.35c-.24-1.59-1.38-2.32-2.58-2.32-1.51,0-2.55.93-2.77,2.32"/>
  <path class="cls-1" d="m36.68,16.03h1.49l.98,1.3.98-1.3h1.49l-1.7,2.16h-1.54l-1.7-2.16Zm4.46,3.06v1.46c-1.2-.05-2.5.56-2.5,2.45v4.25h-1.39v-8.01h1.39v1.35c.51-1.12,1.49-1.49,2.5-1.49"/>
  <path class="cls-1" d="m50.1,19.24v8.01h-1.39v-1.38c-.64.98-1.67,1.59-3.03,1.59-2.23,0-4.06-1.84-4.06-4.22s1.83-4.22,4.06-4.22c1.36,0,2.39.61,3.03,1.59v-1.38h1.39Zm-1.39,4.01c0-1.64-1.23-2.87-2.85-2.87s-2.84,1.23-2.84,2.87,1.23,2.87,2.84,2.87,2.85-1.23,2.85-2.87"/>
</svg>