<?xml version="1.0" encoding="UTF-8"?>
<svg id="Vrstva_1" data-name="Vrstva 1" xmlns="http://www.w3.org/2000/svg" viewBox="0 0 73.72 24.76">
  <defs>
    <style>
      .cls-1 {
        stroke-width: 0px;
      }
    </style>
  </defs>
  <polygon class="cls-1" points="8 10.47 6.87 10.47 6.87 2.62 4.08 8.09 3.93 8.09 1.14 2.64 1.14 10.47 0 10.47 0 .43 1.28 .43 4 5.74 6.71 .43 8 .43 8 10.47"/>
  <path class="cls-1" d="m9.53,1.16c0-.46.32-.85.72-.85s.71.39.71.85-.32.83-.71.83-.72-.37-.72-.83m.18,2.14h1.06v7.17h-1.06V3.3Z"/>
  <rect class="cls-1" x="12.4" width="1.06" height="10.47"/>
  <path class="cls-1" d="m21.2,3.3v7.17h-1.06v-1.23c-.49.88-1.27,1.42-2.31,1.42-1.7,0-3.09-1.65-3.09-3.77s1.39-3.77,3.09-3.77c1.04,0,1.82.54,2.31,1.42v-1.23h1.06Zm-1.06,3.59c0-1.46-.94-2.57-2.17-2.57s-2.16,1.1-2.16,2.57.94,2.57,2.16,2.57,2.17-1.1,2.17-2.57"/>
  <path class="cls-1" d="m28.22,6.07v4.4h-1.06v-4.33c0-1.17-.58-1.84-1.51-1.84s-1.77.67-1.77,2.37v3.8h-1.06V3.3h1.06v1.03c.45-.85,1.12-1.22,1.98-1.22,1.43,0,2.37,1.12,2.37,2.95"/>
  <path class="cls-1" d="m38.87,3.3v7.17h-1.06v-1.23c-.49.88-1.27,1.42-2.31,1.42-1.7,0-3.09-1.65-3.09-3.77s1.39-3.77,3.09-3.77c1.04,0,1.82.54,2.31,1.42v-1.23h1.06Zm-1.06,3.59c0-1.46-.94-2.57-2.17-2.57s-2.16,1.1-2.16,2.57.94,2.57,2.16,2.57,2.17-1.1,2.17-2.57"/>
  <path class="cls-1" d="m43.19,8.86l.96-.66c.27.8.88,1.15,1.71,1.15,1.05,0,1.74-.57,1.74-1.82V.43h1.12v7.1c0,2.09-1.31,3.13-2.87,3.13-1.21,0-2.22-.6-2.67-1.79"/>
  <path class="cls-1" d="m56.4,3.3v7.17h-1.06v-1.23c-.49.88-1.27,1.42-2.31,1.42-1.7,0-3.09-1.65-3.09-3.77s1.39-3.77,3.09-3.77c1.04,0,1.82.54,2.31,1.42v-1.23h1.06Zm-1.06,3.59c0-1.46-.94-2.57-2.17-2.57s-2.16,1.1-2.16,2.57.94,2.57,2.16,2.57,2.17-1.1,2.17-2.57"/>
  <path class="cls-1" d="m60.98,3.17v1.31c-.92-.04-1.9.5-1.9,2.19v3.8h-1.06V3.3h1.06v1.2c.39-1,1.14-1.33,1.9-1.33"/>
  <polygon class="cls-1" points="65.86 10.47 63.08 7.07 63.08 10.47 62.02 10.47 62.02 .43 63.08 .43 63.08 6.47 65.72 3.3 67.08 3.3 64.17 6.77 67.18 10.47 65.86 10.47"/>
  <path class="cls-1" d="m73.72,3.3v7.17h-1.06v-1.23c-.49.88-1.27,1.42-2.31,1.42-1.7,0-3.09-1.65-3.09-3.77s1.39-3.77,3.09-3.77c1.04,0,1.82.54,2.31,1.42v-1.23h1.06Zm-1.06,3.59c0-1.46-.94-2.57-2.17-2.57s-2.16,1.1-2.16,2.57.94,2.57,2.16,2.57,2.17-1.1,2.17-2.57"/>
  <path class="cls-1" d="m19.84,21.74c0,1.61-1.1,2.84-2.48,2.84h-3.69v-10.04h3.42c1.33,0,2.39,1.19,2.39,2.74,0,.9-.37,1.64-.93,2.09.77.43,1.28,1.28,1.28,2.37m-5.03-5.95v3.07h2.28c.71,0,1.27-.67,1.27-1.54s-.56-1.53-1.27-1.53h-2.28Zm3.91,5.91c0-.9-.6-1.62-1.36-1.62h-2.55v3.26h2.55c.76,0,1.36-.72,1.36-1.64"/>
  <path class="cls-1" d="m20.64,14.54h1.14l.74,1.16.74-1.16h1.14l-1.3,1.94h-1.17l-1.29-1.94Zm3.39,2.74v1.31c-.92-.04-1.9.5-1.9,2.19v3.8h-1.06v-7.17h1.06v1.2c.39-1,1.14-1.33,1.9-1.33"/>
  <path class="cls-1" d="m27.7,23.59c.84,0,1.45-.46,1.76-1.05l.9.6c-.54.98-1.47,1.62-2.69,1.62-1.96,0-3.27-1.62-3.27-3.77s1.29-3.77,3.2-3.77,3.04,1.78,3.04,3.79c0,.19-.01.37-.04.56h-5.11c.21,1.29,1.07,2.02,2.21,2.02m-2.21-3.11h4.08c-.18-1.42-1.05-2.08-1.97-2.08-1.15,0-1.94.83-2.11,2.08"/>
  <polygon class="cls-1" points="36 23.38 36 24.57 31.3 24.57 31.3 23.74 34.41 18.59 31.42 18.59 31.42 17.4 35.88 17.4 35.88 18.24 32.75 23.38 36 23.38"/>
  <path class="cls-1" d="m37.27,17.4h1.06v7.17h-1.06v-7.17Zm1.06-.93l.8-1.94h-1.26l-.57,1.94h1.03Z"/>
  <polygon class="cls-1" points="43.8 24.58 41.02 21.18 41.02 24.58 39.96 24.58 39.96 14.54 41.02 14.54 41.02 20.57 43.66 17.4 45.02 17.4 42.11 20.88 45.12 24.58 43.8 24.58"/>
  <path class="cls-1" d="m45.21,20.99c0-2.12,1.43-3.77,3.21-3.77s3.22,1.65,3.22,3.77-1.44,3.77-3.22,3.77-3.21-1.65-3.21-3.77m5.37,0c0-1.45-.94-2.55-2.16-2.55s-2.15,1.1-2.15,2.55.94,2.55,2.15,2.55,2.16-1.1,2.16-2.55"/>
  <polygon class="cls-1" points="58.07 17.4 55.63 24.58 54.39 24.58 51.95 17.4 53.09 17.4 55.01 23.24 56.93 17.4 58.07 17.4"/>
  <path class="cls-1" d="m58.8,15.27c0-.46.32-.85.72-.85s.71.39.71.85-.32.83-.71.83-.72-.37-.72-.83m.18,2.14h1.06v7.17h-1.06v-7.17Z"/>
</svg>