<?xml version="1.0" encoding="UTF-8"?>
<svg id="Vrstva_1" data-name="Vrstva 1" xmlns="http://www.w3.org/2000/svg" viewBox="0 0 37.59 25.76">
  <defs>
    <style>
      .cls-1 {
        stroke-width: 0px;
      }
    </style>
  </defs>
  <path class="cls-1" d="m.12,7.46l1.08-.62c.34,1.04,1.14,1.71,2.52,1.71s1.99-.61,1.99-1.45c0-.97-.83-1.29-2.22-1.72-1.51-.48-2.96-.96-2.96-2.7S1.91,0,3.48,0s2.67.88,3.19,2.06l-1.05.61c-.34-.81-1-1.45-2.14-1.45-1.01,0-1.71.54-1.71,1.4s.66,1.2,1.98,1.61c1.64.54,3.19,1.02,3.19,2.84,0,1.66-1.33,2.71-3.26,2.71-1.79,0-3.07-.9-3.57-2.31"/>
  <path class="cls-1" d="m9.98,4v3.65c0,1.02.59.96,1.79.9v1.05c-2.02.27-2.96-.27-2.96-1.95v-3.65h-1.33v-1.13h1.33v-1.53l1.17-.35v1.88h1.79v1.13h-1.79Z"/>
  <path class="cls-1" d="m19.56,2.87v6.73h-1.17v-1.16c-.54.82-1.4,1.33-2.54,1.33-1.87,0-3.4-1.55-3.4-3.54s1.53-3.54,3.4-3.54c1.15,0,2.01.51,2.54,1.33v-1.16h1.17Zm-1.17,3.36c0-1.37-1.04-2.41-2.4-2.41s-2.38,1.04-2.38,2.41,1.04,2.41,2.38,2.41,2.4-1.04,2.4-2.41"/>
  <path class="cls-1" d="m27.3,5.46v4.13h-1.17v-4.07c0-1.1-.63-1.72-1.67-1.72s-1.95.63-1.95,2.22v3.57h-1.17V2.87h1.17v.97c.5-.79,1.24-1.14,2.18-1.14,1.58,0,2.61,1.05,2.61,2.77"/>
  <path class="cls-1" d="m28.94,2.87h1.17v6.73h-1.17V2.87Zm1.17-.87l.89-1.82h-1.39l-.63,1.82h1.13Z"/>
  <polygon class="cls-1" points="36.14 9.6 33.07 6.41 33.07 9.6 31.9 9.6 31.9 .17 33.07 .17 33.07 5.84 35.98 2.87 37.48 2.87 34.27 6.12 37.59 9.6 36.14 9.6"/>
  <path class="cls-1" d="m0,20.92l1.08-.62c.34,1.04,1.14,1.71,2.52,1.71s1.99-.61,1.99-1.45c0-.97-.83-1.29-2.22-1.72-1.51-.48-2.96-.96-2.96-2.7s1.39-2.67,2.96-2.67,2.67.88,3.19,2.06l-1.05.61c-.34-.81-1-1.45-2.14-1.45-1.01,0-1.71.54-1.71,1.4s.66,1.2,1.98,1.61c1.64.54,3.19,1.02,3.19,2.84,0,1.66-1.33,2.71-3.26,2.71-1.79,0-3.07-.9-3.57-2.31"/>
  <polygon class="cls-1" points="12.43 23.06 9.36 19.87 9.36 23.06 8.19 23.06 8.19 13.64 9.36 13.64 9.36 19.31 12.26 16.33 13.77 16.33 10.56 19.59 13.88 23.06 12.43 23.06"/>
  <path class="cls-1" d="m20.77,16.33l-2.75,7.15c-.57,1.51-1.61,2.37-2.99,2.27v-1.09c.9.07,1.47-.48,1.82-1.37l.12-.26-2.93-6.7h1.25l2.29,5.28,1.94-5.28h1.25Z"/>
  <path class="cls-1" d="m28.88,19.7c0,1.99-1.53,3.54-3.4,3.54-1.14,0-2.01-.51-2.54-1.33v1.16h-1.17v-9.42h1.17v3.85c.54-.82,1.4-1.33,2.54-1.33,1.87,0,3.4,1.55,3.4,3.54m-1.17,0c0-1.37-1.04-2.41-2.38-2.41s-2.4,1.04-2.4,2.41,1.04,2.41,2.4,2.41,2.38-1.04,2.38-2.41"/>
  <path class="cls-1" d="m37.03,16.33v6.73h-1.17v-1.16c-.54.82-1.4,1.33-2.54,1.33-1.87,0-3.4-1.55-3.4-3.54s1.53-3.54,3.4-3.54c1.15,0,2.01.51,2.54,1.33v-1.16h1.17Zm-1.17,3.36c0-1.37-1.04-2.41-2.4-2.41s-2.38,1.04-2.38,2.41,1.04,2.41,2.38,2.41,2.4-1.04,2.4-2.41"/>
</svg>