<?xml version="1.0" encoding="UTF-8"?>
<svg id="Vrstva_1" data-name="Vrstva 1" xmlns="http://www.w3.org/2000/svg" viewBox="0 0 101.39 34.41">
  <defs>
    <style>
      .cls-1, .cls-2, .cls-3, .cls-4 {
        stroke-width: 0px;
      }

      .cls-2 {
        fill: #faf9f8;
      }

      .cls-3 {
        fill: #dab920;
      }

      .cls-4 {
        fill: #c69a08;
      }
    </style>
  </defs>
  <path class="cls-1" d="m34.12,6.99h-3.3v2.32h.24c.37,0,.64.07.79.22.16.15.24.34.24.58s-.08.43-.24.58c-.16.15-.42.22-.79.22h-1.89c-.37,0-.64-.07-.79-.22-.16-.15-.24-.34-.24-.58,0-.29.12-.52.37-.68.12-.08.38-.12.77-.12V3.04c-.27-.03-.47-.11-.61-.26-.14-.15-.21-.33-.21-.55,0-.24.08-.43.24-.58.16-.15.42-.22.79-.22h1.57c.37,0,.64.08.79.23.16.15.24.34.24.58s-.08.43-.24.58c-.16.15-.42.22-.79.22h-.24v2.35h3.3v-2.35h-.24c-.37,0-.64-.07-.79-.22-.16-.15-.24-.34-.24-.58s.08-.43.24-.58c.16-.15.42-.22.79-.22h1.57c.37,0,.64.08.79.23.16.15.24.34.24.58,0,.22-.07.4-.21.55-.14.15-.34.23-.61.26v6.27c.4,0,.65.04.77.12.25.16.37.39.37.69,0,.24-.08.43-.24.58-.16.15-.42.22-.79.22h-1.89c-.37,0-.64-.07-.79-.22-.16-.15-.24-.34-.24-.58s.08-.43.24-.57c.16-.15.42-.22.79-.22h.24v-2.32Z"/>
  <path class="cls-1" d="m45.68,7.5c0,.62-.16,1.21-.49,1.79-.33.58-.82,1.03-1.47,1.38-.65.34-1.33.51-2.03.51s-1.38-.17-2.02-.5c-.64-.34-1.13-.79-1.47-1.37-.34-.58-.5-1.18-.5-1.81s.17-1.27.51-1.89.83-1.1,1.47-1.46c.64-.35,1.31-.53,2.01-.53s1.38.18,2.03.54c.65.36,1.14.85,1.47,1.46.33.61.5,1.24.5,1.89m-1.54,0c0-.52-.18-.99-.53-1.42-.49-.58-1.13-.88-1.92-.88-.7,0-1.28.23-1.75.7-.47.46-.7,1-.7,1.61,0,.5.24.97.71,1.4.47.44,1.05.65,1.74.65s1.27-.22,1.75-.65c.47-.43.71-.91.71-1.41"/>
  <path class="cls-1" d="m52.59,5.7c-.25-.16-.51-.28-.79-.36-.28-.08-.57-.12-.86-.12-.6,0-1.07.1-1.42.3-.16.09-.23.18-.23.29,0,.12.1.24.32.35.16.08.52.16,1.08.24,1.02.15,1.74.29,2.14.44.53.19.93.48,1.22.86s.43.78.43,1.21c0,.57-.24,1.05-.73,1.44-.7.56-1.6.84-2.72.84-.45,0-.86-.04-1.24-.12-.38-.08-.73-.2-1.04-.36-.08.07-.16.12-.24.16-.09.04-.17.05-.26.05-.24,0-.43-.08-.58-.25-.14-.16-.21-.44-.21-.83v-.54c0-.39.07-.66.21-.83.14-.16.33-.25.56-.25.18,0,.34.05.47.16s.22.29.29.55c.23.21.52.37.85.47.33.11.71.16,1.14.16.71,0,1.26-.11,1.65-.34.18-.11.28-.23.28-.36,0-.21-.13-.38-.4-.52-.27-.13-.82-.25-1.65-.34-1.24-.14-2.07-.4-2.48-.78-.42-.38-.62-.85-.62-1.41s.23-1.05.7-1.43c.63-.52,1.46-.78,2.48-.78.36,0,.7.04,1.03.11.33.07.64.18.94.32.1-.07.18-.13.27-.17.08-.04.16-.05.23-.05.21,0,.39.08.53.25.14.16.21.44.21.82v.39c0,.35-.04.59-.12.71-.16.24-.38.36-.66.36-.19,0-.35-.06-.49-.18-.14-.12-.23-.28-.27-.48"/>
  <path class="cls-1" d="m58.25,10.04v2.63h.93c.37,0,.64.07.79.22.16.15.24.34.24.58s-.08.43-.24.58c-.16.15-.42.22-.79.22h-2.73c-.37,0-.64-.07-.79-.22-.16-.15-.24-.34-.24-.58s.08-.43.24-.58c.16-.15.42-.22.79-.22h.26v-7.25h-.26c-.37,0-.64-.07-.79-.22-.16-.15-.24-.34-.24-.58s.08-.43.24-.57c.16-.15.42-.22.79-.22h1.81v.55c.36-.26.73-.45,1.12-.57s.78-.19,1.19-.19c1.05,0,1.95.37,2.69,1.11.74.74,1.11,1.6,1.11,2.55,0,1.06-.44,1.93-1.32,2.62-.73.57-1.56.86-2.48.86-.4,0-.79-.06-1.17-.18-.39-.12-.77-.3-1.15-.54m4.58-2.75c0-.22-.09-.51-.26-.86-.17-.35-.43-.64-.79-.87-.35-.23-.77-.35-1.25-.35-.77,0-1.38.3-1.83.9-.31.41-.46.81-.46,1.19,0,.43.22.84.66,1.25.44.4.98.61,1.63.61s1.2-.2,1.63-.6c.44-.4.66-.82.66-1.27"/>
  <path class="cls-1" d="m72.69,3.82v5.5c.33,0,.57.08.72.23.15.15.23.34.23.58s-.08.43-.24.58c-.16.15-.42.22-.79.22h-1.47v-.37c-.44.21-.86.37-1.26.47-.4.1-.78.16-1.14.16-.51,0-.95-.11-1.32-.33-.37-.22-.67-.53-.88-.92-.16-.28-.23-.63-.23-1.06v-3.45h-.26c-.37,0-.64-.07-.79-.22s-.24-.34-.24-.58.08-.43.24-.57c.16-.15.42-.22.79-.22h1.81v4.77c0,.34.08.59.24.75.16.16.4.24.73.24s.65-.06,1.01-.19c.36-.13.8-.36,1.33-.69v-3.27h-.56c-.37,0-.64-.07-.79-.22-.16-.15-.24-.34-.24-.58s.08-.43.24-.57c.16-.15.42-.22.79-.22h2.1Zm-1.71-2.35c0,.43-.14.79-.44,1.1-.29.3-.64.45-1.04.45s-.75-.15-1.04-.45c-.29-.3-.43-.67-.43-1.1,0-.4.14-.75.43-1.04.29-.29.64-.43,1.05-.43s.76.15,1.05.43c.29.29.43.63.43,1.04m-.69,0c0-.2-.08-.38-.23-.53-.15-.15-.34-.22-.56-.22s-.41.07-.56.22c-.15.15-.22.33-.22.53,0,.22.08.42.23.58.15.16.34.24.55.24s.4-.08.55-.24c.15-.16.23-.35.23-.58"/>
  <path class="cls-1" d="m82.21.78v8.54h.26c.37,0,.63.07.79.22.16.15.24.34.24.58s-.08.43-.24.57c-.16.15-.42.22-.79.22h-1.81v-.39c-.35.21-.72.38-1.1.49-.38.11-.78.16-1.19.16-1.16,0-2.09-.35-2.8-1.05-.71-.7-1.06-1.56-1.06-2.6s.37-2.01,1.11-2.78c.74-.77,1.65-1.15,2.72-1.15.4,0,.79.06,1.18.19.39.13.77.32,1.14.58v-2h-.26c-.37,0-.64-.07-.79-.22-.16-.15-.24-.34-.24-.57s.08-.43.24-.58c.16-.15.42-.22.79-.22h1.8Zm-1.54,6.81c0-.66-.22-1.22-.67-1.68-.45-.46-.99-.69-1.64-.69s-1.19.23-1.63.69c-.45.46-.67,1.01-.67,1.66,0,.59.2,1.07.6,1.45.4.38.97.57,1.7.57s1.29-.19,1.7-.57c.41-.38.61-.85.61-1.43"/>
  <path class="cls-1" d="m86.65,8.25v2.67h-1.81c-.37,0-.64-.08-.79-.22-.16-.15-.24-.34-.24-.58s.08-.43.24-.58c.16-.15.42-.22.79-.22h.26V2.38h-.26c-.37,0-.64-.07-.79-.22-.16-.15-.24-.34-.24-.58s.08-.43.24-.57c.16-.15.42-.22.79-.22h1.81v5.41l1.2-1.01c-.12-.23-.19-.41-.19-.55,0-.24.08-.43.23-.58.16-.15.42-.22.79-.22h1.76c.37,0,.64.07.79.22.16.15.24.34.24.58s-.08.43-.24.57c-.16.15-.42.22-.79.22h-.43l-1.87,1.58,2.52,2.32h.45c.37,0,.64.07.79.22s.24.34.24.58-.08.43-.24.57c-.16.15-.42.22-.79.22h-1.78c-.37,0-.64-.08-.79-.22-.16-.15-.24-.34-.24-.58,0-.2.09-.4.26-.6l-1.63-1.5-.29.24Z"/>
  <path class="cls-1" d="m98.55,10.92v-.38c-.39.21-.81.37-1.28.48-.47.11-.89.16-1.27.16-.83,0-1.5-.23-2.02-.68-.52-.46-.77-.96-.77-1.51,0-.67.33-1.3.99-1.87.66-.58,1.57-.86,2.73-.86.47,0,1.01.05,1.62.16v-.38c0-.24-.1-.44-.3-.59-.2-.15-.58-.23-1.13-.23-.46,0-1.05.09-1.78.28-.27.07-.48.1-.63.1-.21,0-.38-.08-.52-.23-.14-.15-.21-.35-.21-.59,0-.14.02-.25.08-.35.05-.1.12-.18.21-.24.09-.06.28-.13.56-.22.38-.11.77-.2,1.17-.26.4-.07.76-.1,1.08-.1.96,0,1.7.21,2.23.65.53.43.79,1.02.79,1.76v3.3h.26c.37,0,.64.07.79.22.16.15.24.34.24.58s-.08.43-.24.57c-.16.15-.42.22-.79.22h-1.81Zm0-2.87c-.62-.12-1.19-.19-1.71-.19-.63,0-1.17.16-1.62.48-.28.2-.42.41-.42.62,0,.15.07.27.2.37.25.17.59.26,1.03.26.37,0,.79-.07,1.26-.23.47-.15.89-.36,1.25-.62v-.69Z"/>
  <path class="cls-1" d="m35.7,19.69v5.5c.33,0,.57.08.72.23.16.15.23.34.23.58s-.08.43-.24.57c-.16.15-.42.22-.79.22h-1.47v-.37c-.44.21-.86.37-1.26.47-.4.11-.78.16-1.14.16-.51,0-.95-.11-1.32-.33-.37-.22-.66-.53-.88-.92-.16-.28-.23-.63-.23-1.06v-3.45h-.26c-.37,0-.64-.07-.79-.22-.16-.15-.24-.34-.24-.58s.08-.43.24-.57c.16-.15.42-.22.79-.22h1.81v4.77c0,.34.08.59.24.75.16.16.4.24.73.24s.65-.06,1-.19c.36-.13.8-.36,1.33-.69v-3.27h-.56c-.37,0-.64-.07-.79-.22-.16-.15-.24-.34-.24-.58s.08-.43.24-.57c.16-.15.42-.22.79-.22h2.1Z"/>
  <path class="cls-1" d="m51.67,18.91v6.27h1.04c.37,0,.64.08.79.22.16.15.24.34.24.58s-.08.43-.24.58c-.16.15-.42.22-.79.22h-3.61c-.37,0-.64-.07-.79-.22-.16-.15-.24-.34-.24-.58s.08-.43.24-.57c.16-.15.42-.22.79-.22h1.03v-6.27h-1.67v1.52c0,.39-.07.66-.22.82-.14.16-.33.25-.56.25s-.41-.08-.55-.25-.22-.44-.22-.82v-3.13h7.99v3.13c0,.39-.07.66-.21.82-.14.16-.33.25-.56.25s-.41-.08-.55-.25c-.14-.16-.21-.44-.21-.82v-1.52h-1.69Z"/>
  <path class="cls-1" d="m64.18,23.37c0,.62-.16,1.21-.49,1.79-.33.58-.82,1.03-1.47,1.38-.65.34-1.33.51-2.03.51s-1.38-.17-2.02-.5c-.64-.34-1.13-.79-1.47-1.37-.34-.58-.5-1.18-.5-1.81s.17-1.27.51-1.89.83-1.1,1.47-1.46c.64-.35,1.31-.53,2.01-.53s1.38.18,2.03.54c.65.36,1.14.85,1.47,1.46.33.61.5,1.24.5,1.89m-1.54,0c0-.52-.18-.99-.53-1.42-.49-.58-1.13-.88-1.92-.88-.7,0-1.28.23-1.75.7-.47.46-.7,1-.7,1.61,0,.5.24.97.71,1.4.47.44,1.05.65,1.74.65s1.27-.22,1.75-.65c.47-.43.71-.91.71-1.41"/>
  <path class="cls-1" d="m67.86,19.69v.54c.28-.25.59-.44.93-.56.34-.13.71-.19,1.1-.19.91,0,1.64.29,2.17.88.42.47.63,1.09.63,1.85v2.98c.33,0,.57.07.72.22.16.15.23.34.23.58s-.08.43-.24.57c-.16.15-.42.22-.79.22h-1.39c-.37,0-.64-.07-.79-.22-.16-.15-.24-.34-.24-.58s.08-.43.23-.57c.15-.15.4-.22.72-.22v-3.03c0-.35-.09-.6-.27-.77-.23-.21-.59-.31-1.06-.31-.36,0-.67.07-.94.22-.27.14-.61.45-1.02.91v2.98c.4,0,.65.04.77.12.24.16.37.39.37.69,0,.23-.08.43-.24.57-.16.15-.42.22-.79.22h-1.75c-.37,0-.64-.07-.79-.22-.16-.15-.24-.34-.24-.58,0-.29.12-.52.36-.68.12-.08.38-.12.78-.12v-3.9c-.33,0-.57-.08-.72-.23-.16-.15-.23-.34-.23-.58s.08-.43.24-.57c.16-.15.42-.22.79-.22h1.47Z"/>
  <path class="cls-1" d="m77.4,24.12v2.67h-1.81c-.37,0-.64-.08-.79-.22-.16-.15-.24-.34-.24-.58s.08-.43.24-.58c.16-.15.42-.22.79-.22h.26v-6.94h-.26c-.37,0-.64-.07-.79-.22-.16-.15-.24-.34-.24-.58s.08-.43.24-.57c.16-.15.42-.22.79-.22h1.81v5.41l1.2-1.01c-.12-.23-.19-.41-.19-.55,0-.24.08-.43.23-.58.16-.15.42-.22.79-.22h1.76c.37,0,.64.07.79.22.16.15.24.34.24.58s-.08.43-.24.57c-.16.15-.42.22-.79.22h-.43l-1.87,1.58,2.52,2.32h.45c.37,0,.64.07.79.22s.24.34.24.58-.08.43-.24.57c-.16.15-.42.22-.79.22h-1.78c-.37,0-.64-.08-.79-.22-.16-.15-.24-.34-.24-.58,0-.2.09-.4.26-.6l-1.63-1.5-.29.24Z"/>
  <path class="cls-1" d="m91.19,19.68v5.5c.33,0,.57.08.72.23.15.15.23.34.23.58s-.08.43-.24.58c-.16.15-.42.22-.79.22h-1.47v-.37c-.44.21-.86.37-1.26.47-.4.1-.78.16-1.14.16-.51,0-.95-.11-1.32-.33-.37-.22-.67-.53-.88-.92-.16-.28-.23-.63-.23-1.06v-3.45h-.26c-.37,0-.64-.07-.79-.22s-.24-.34-.24-.58.08-.43.24-.57c.16-.15.42-.22.79-.22h1.81v4.77c0,.34.08.59.24.75.16.16.4.24.73.24s.65-.06,1.01-.19c.36-.13.8-.36,1.33-.69v-3.27h-.56c-.37,0-.64-.07-.79-.22-.16-.15-.24-.34-.24-.58s.08-.43.24-.57c.16-.15.42-.22.79-.22h2.1Zm-1.71-2.35c0,.43-.14.79-.44,1.1-.29.3-.64.45-1.04.45s-.75-.15-1.04-.45c-.29-.3-.43-.67-.43-1.1,0-.4.14-.75.43-1.04.29-.29.64-.43,1.05-.43s.76.15,1.05.43c.29.29.43.63.43,1.04m-.69,0c0-.2-.08-.38-.23-.53-.15-.15-.34-.22-.56-.22s-.41.07-.56.22c-.15.15-.22.33-.22.53,0,.22.08.42.23.58.15.16.34.24.55.24s.4-.08.55-.24c.15-.16.23-.35.23-.58"/>
  <path class="cls-1" d="m22.82,34.41h0c-.38,0-.69-.31-.69-.69V.72c0-.38.31-.69.69-.69s.69.31.69.69v33c0,.38-.31.69-.69.69"/>
  <path class="cls-2" d="m14.57,13.45h-1.94v-1.56c.34-.25,1.02-.71,1.92-1.18,1.32-.69-.14-2.54-1.89-2.65-.12-.79-1.62-1.57-3.81-.69-.78-1.78-3.37-1.62-4.48-.51-.78-.39-2.98-.39-3.21,1.92-1.48.53-1.2,1.43-.97,2.19.17.58.83.98,1.13,1.14v12.91c0,.69.56,1.26,1.26,1.26h8.8c.7,0,1.26-.56,1.26-1.26v-2.04h1.94c.7,0,1.26-.56,1.26-1.26v-7.01c0-.69-.56-1.26-1.26-1.26m.4,7.47c0,.44-.35.79-.79.79h-1.61v-7.14h1.61c.44,0,.79.35.79.79v5.55Z"/>
  <path class="cls-3" d="m10.63,25.05H3.44c-.6,0-1.09-.49-1.09-1.09v-11.88h9.28v11.98c0,.55-.45.99-.99.99"/>
  <path class="cls-2" d="m11.46,9.83s.78.34.95.9c.17.56.37,1.22-.71,1.61-.17,1.69-1.78,1.69-2.35,1.4-.81.81-2.71.93-3.28-.37-1.61.64-2.71.07-2.79-.51-1.29-.09-2.35-1.44-1.39-1.95.97-.51,1.59-1,1.59-1l7.99-.09Z"/>
  <path class="cls-4" d="m4.08,23.75h0c-.28,0-.5-.22-.5-.5v-7.54c0-.28.23-.5.5-.5s.5.23.5.5v7.54c0,.28-.22.5-.5.5"/>
  <path class="cls-4" d="m7.14,23.75h0c-.28,0-.5-.22-.5-.5v-7.54c0-.28.22-.5.5-.5s.5.23.5.5v7.54c0,.28-.22.5-.5.5"/>
  <path class="cls-4" d="m10.2,23.75h0c-.28,0-.5-.22-.5-.5v-7.54c0-.28.22-.5.5-.5s.5.23.5.5v7.54c0,.28-.22.5-.5.5"/>
</svg>