<?xml version="1.0" encoding="UTF-8"?>
<svg id="Vrstva_1" data-name="Vrstva 1" xmlns="http://www.w3.org/2000/svg" viewBox="0 0 85.63 48.99">
  <defs>
    <style>
      .cls-1 {
        fill: #e30613;
      }

      .cls-1, .cls-2, .cls-3 {
        stroke-width: 0px;
      }

      .cls-4 {
        fill: none;
        stroke: #1d1d1b;
        stroke-width: .43px;
      }

      .cls-3 {
        fill: #feca1e;
      }
    </style>
  </defs>
  <path class="cls-3" d="m64.82,44.88c0,2.07-1.46,3.74-3.26,3.74H3.47c-1.8,0-3.26-1.68-3.26-3.74v-6.59c0-2.06,1.46-3.74,3.26-3.74h58.09c1.8,0,3.26,1.68,3.26,3.74v6.59Z"/>
  <path class="cls-4" d="m64.82,44.88c0,2.07-1.46,3.74-3.26,3.74H3.47c-1.8,0-3.26-1.68-3.26-3.74v-6.59c0-2.06,1.46-3.74,3.26-3.74h58.09c1.8,0,3.26,1.68,3.26,3.74v6.59Z"/>
  <path class="cls-2" d="m84.87,41.61c-.5-1.26-1.22-2.34-2.13-3.35-.74-.87-1.56-1.74-2.11-2.77.58.65,1.3,1.04,2.04.92-.81-.15-2.03-1.27-2.43-1.98.4.3.96.2,1.42.15-1.08-.68-1.47-1.44-1.66-2.4,0-.4-.02-.81-.1-1.23-.15-.68-1.05-2.96-2.23-2.36,0,0,0-.02-.01-.03-.27-1.1-.8-1.96-1.67-2.72-.53-.47-1.84-1.09-2.08-1.24-1.78-1.27-2.87-1.68-3.78-2.38-1.18-.93-1.83-1.97-2.61-2.93-.45-.68-.84-1.46-1.06-1.97-.59-1.37-1.24-2.31-1.45-3.76.56,1.24,2.32,1.92,3.56,2.12-1.49-1.91-1.29-2.7-2.33-4.77,1.41-.04-.23-1.85-.52-2.58,1.22-.28-.51-2.24-.99-3.11-.45-.88-1.01-1.85-1.97-2.29-.2-.37-.6-.69-.85-1.05.13-.63.69-1.08.4-1.89-.63.47-1.42.54-1.76,1.33-.1.01-2.72-.4-3.45.08-1.56,1.02-6.66.17-5.72,2.6.1.24.2.4.59.49.1,0-.07.46.24.64.32.18,1.01.25,1.17.17,1.29-.04,1.94.61,2.93.88.99.28,1.51.21,1.62.5.37.98,1.26,2.07.46,5.07-.96,3.62-1.74,2.56-2.31,3.78-.31.66-.42,1.38-.49,2.11-.06.03-.1.05-.1.05-.83.37-1.59.82-2.48,1.1-.89.29-1.77.45-2.66.67-.78.55-.52,1.67-.28,3.06.16.9.57,2.58.27,3.58.05.21.37-.02.43.16,0,.82.31,1.44.63,1.88,0,0,1.31-1.59.75-2.22-.2-.19-.43-.35-.63-.46h0c.12-.16.25-.33.23-.5-.02-.26-.28-.5-.39-.76-.13-1.29-.19-3.11.39-3.6,1.53.59,2.84-.16,4.17.05,0,0,.01.01.02.02-1.01,1.15-2.33,2.63-3.34,3.77-.38,1.16.06,1.45,2.52,4.82.38.55.21.97.87,1.67.26.02.17-.36.42-.34.33,1.02.63,1.51,1.49,2.14.36-.6.69-1.7.23-2.34-.25-.34-.51-.31-1-.49-.15-.99-3.56-3.41-2.7-4.57.62-.85,2.5-1.39,3.8-2,.79,1.1,1.49,2.3,2.43,3.24,1.6,1.55,3.79,2.81,5.91,3.8,0,.04,0,.08,0,.12.09,1.26-.13,2.18-.51,3.35-.25.76-.05,1.37.46,2,.68.89,1.73,1.45,2.54,2.21.69.63,1.35,1.29,1.78,2.18.31.61.64,1.32.39,2.01-.12.33-.36.65-.56.93-.2.23-.79.66-.84.94-.08.31.41.23.41.51,0,.26-.51.46-.67.66-.35.43-.58,1.35-.6,1.9.76.35,2.03-.1,2.66-.78.3-.36.15-.46-.03-.86-.15-.43-.53-1,.18-.86.05-1.3.71-2.47,1.27-3.61.12-.27.38-.63.28-.96-.13-.31-.61-.56-.84-.79-.56-.53-1.32-1.04-1.55-1.78-.23-.76-.49-1.53-.65-2.32-.15-.84.29-1.72.83-2.25,0,0,0-.01.02-.03.54.62.9,1.3,1.1,2.26.13.56.18,1.16.33,1.7.2.73.99,1.09,1.55,1.57,1.09.96,2.56,2.33,2.43,3.93-.06.63-.33,1.29-.61,1.85-.25.48-.85,1.09-.8,1.69,0,.08.03.18.06.26l.07.02c.26-.11.32-.06.36.19.08.31-.33.46-.51.66-.43.46-.66,1.18-.64,1.81.48.08,1.36,0,1.83-.27.68-.39.77-.55.59-1.26-.08-.25-.2-.51-.23-.79-.03-.13-.05-.28,0-.38.07-.13.28-.07.33-.13.15-.26-.08-.55-.12-.84-.03-.28.02-.56.12-.81.21-.66.59-1.24.97-1.8.3-.49.73-1.04.38-1.6-.36-.58-1.01-1.01-1.43-1.6-.35-.49-.78-1.19-.91-1.8-.1-.53-.13-1.6.05-2.08.11-.28.46-.61.64-.86.22-.3.4-.63.56-.99.59-1.29.82-2.61.65-3.98.76-.42.79,1.36.74,1.8-.1,1.22-.3,2.44-.3,3.66,0,2.58.76,5.48,2.74,7.26,1.37,1.27,3.39,1.22,4.57,2.64-.26-1.22-.31-2.33-.76-3.5"/>
  <path class="cls-1" d="m5.65,41.86c.56,0,.74-.25.74-1.02,0-.69-.19-.9-.76-.9-.05,0-.12,0-.2.01v1.91h.22Zm-.22,2.74c0,.9-.01,1-.19,1.22-.18.24-.47.39-.78.39-.33,0-.65-.18-.84-.47-.13-.2-.14-.3-.14-1.15v-4.62c0-.98.02-1.07.29-1.34.26-.26.35-.28,1.33-.28h.71c1.04,0,1.53.09,1.85.35.44.35.65,1.07.65,2.27,0,1.94-.47,2.48-2.14,2.48h-.74v1.14"/>
  <path class="cls-1" d="m12.65,41.88c.11.33.32.99.53,1.64-.03-.26-.05-.49-.06-.57-.09-.84-.12-1.07-.12-1.2v-1.99c0-.84.02-.92.16-1.11.19-.24.44-.37.74-.37s.58.16.76.42c.11.19.13.29.13,1.07v4.88c0,.84-.01.92-.18,1.12-.19.25-.43.37-.78.37h-.43c-.38,0-.58-.07-.79-.26-.11-.11-.14-.16-.41-.87l-.87-2.37c-.03-.11-.07-.22-.1-.29-.01-.07-.1-.35-.21-.74-.03-.08-.09-.29-.17-.52.03.25.04.49.05.57.04.79.06.91.06,1.12v1.97c0,.71-.02.89-.18,1.11-.14.24-.42.38-.71.38-.31,0-.6-.17-.73-.42-.13-.26-.15-.39-.15-1.07v-4.88c0-.82.01-.92.16-1.13.18-.22.47-.36.79-.36h.43c.36,0,.59.08.79.25.12.13.15.19.41.89l.89,2.37Z"/>
  <path class="cls-1" d="m17.66,41.32h1.04c.75,0,.82.01,1,.16.21.16.32.39.32.63,0,.28-.13.54-.38.69-.16.11-.24.11-.94.11h-1.04v1.62h1.26c.75,0,.82,0,1,.15.21.17.32.4.32.64,0,.29-.14.54-.38.69-.16.11-.24.12-.94.12h-1.59c-.97,0-1.06-.02-1.32-.29-.27-.25-.29-.35-.29-1.32v-4.53c0-.98.02-1.07.28-1.34.27-.26.36-.28,1.34-.28h1.59c.75,0,.82.01,1,.15.21.16.32.39.32.64,0,.27-.14.53-.38.68-.16.1-.24.12-.94.12h-1.26v1.36Z"/>
  <path class="cls-1" d="m21,39.89c0-.91.01-.99.18-1.23.2-.26.48-.39.79-.39s.64.17.83.46c.13.2.14.3.14,1.16v3.61c0,.51.01.65.07.81.07.18.27.3.51.3s.43-.12.49-.3c.07-.16.07-.3.07-.81v-3.61c0-.91.01-.99.19-1.23.2-.24.48-.39.79-.39.33,0,.64.17.83.46.13.2.14.29.14,1.16v3.58c0,.91-.1,1.45-.37,1.85-.4.61-1.11.93-2.16.93-1.13,0-1.89-.37-2.25-1.09-.18-.37-.26-.89-.26-1.68v-3.58Z"/>
  <path class="cls-1" d="m31.82,41.21c.14.7.2,1.01.41,2.3.02-.2.05-.39.07-.58.06-.52.13-1.05.15-1.14.02-.2.06-.4.08-.59l.23-1.5c.09-.65.13-.78.23-.98.13-.27.45-.44.82-.44.55,0,1,.39,1,.88,0,.19,0,.21-.16.89l-1.02,4.68c-.19.87-.21.92-.39,1.1-.21.21-.43.29-.79.29h-.41c-.34,0-.58-.1-.79-.32-.13-.15-.16-.22-.38-1.02l-1.24-4.64c-.19-.73-.19-.75-.19-.93,0-.5.45-.93.97-.93.26,0,.51.1.7.29.17.17.21.28.39,1.13l.31,1.52Z"/>
  <path class="cls-1" d="m37.44,41.56c.13.03.21.03.29.03.57,0,.76-.21.76-.85,0-.6-.2-.79-.84-.79h-.21v1.62Zm0,3.04c0,.9-.01.99-.19,1.22-.2.25-.48.39-.79.39s-.64-.18-.82-.47c-.13-.2-.14-.3-.14-1.15v-4.62c0-.98.02-1.07.28-1.34.27-.26.36-.28,1.34-.28h.9c1.78,0,2.39.58,2.39,2.28,0,.96-.23,1.4-.89,1.71.63.33.84.67.86,1.41l.03.78c.01.22.03.52.03.57,0,.4-.05.57-.23.78-.2.21-.45.33-.73.33-.32,0-.62-.15-.81-.42-.13-.2-.15-.3-.2-1.17l-.02-.5c-.03-.78-.14-.93-.66-.93h-.34v1.4"/>
  <path class="cls-1" d="m43.92,41.85c-.06-.34-.11-.78-.23-1.74-.06.72-.12,1.23-.19,1.77l-.13.98h.75l-.19-1Zm-.78,2.58l-.03.32c-.1.75-.12.79-.22,1-.14.27-.5.47-.84.47-.54,0-.99-.42-.99-.94,0-.17.01-.21.13-.85l.9-4.66c.14-.74.19-.89.36-1.11.18-.23.42-.31.87-.31h.63c.46,0,.77.1.94.32.16.2.2.32.38,1.04l1.09,4.67c.17.7.17.71.17.9,0,.49-.45.91-.99.91-.34,0-.69-.19-.83-.44-.11-.21-.13-.24-.26-.99l-.06-.37h-1.25"/>
  <path class="cls-1" d="m50.67,41.88c.12.33.32.99.54,1.64-.02-.26-.05-.49-.06-.57-.09-.84-.11-1.07-.11-1.2v-1.99c0-.84.01-.92.16-1.11.18-.24.44-.37.73-.37.31,0,.59.16.76.42.12.19.13.29.13,1.07v4.88c0,.84-.01.92-.18,1.12-.19.25-.43.37-.78.37h-.43c-.38,0-.58-.07-.79-.26-.12-.11-.14-.16-.41-.87l-.87-2.37c-.04-.11-.08-.22-.11-.29-.01-.07-.09-.35-.21-.74-.02-.08-.08-.29-.16-.52.02.25.04.49.05.57.04.79.06.91.06,1.12v1.97c0,.71-.03.89-.19,1.11-.14.24-.42.38-.7.38-.32,0-.61-.17-.73-.42-.13-.26-.15-.39-.15-1.07v-4.88c0-.82,0-.92.16-1.13.18-.22.47-.36.79-.36h.43c.36,0,.59.08.79.25.12.13.14.19.41.89l.88,2.37Z"/>
  <path class="cls-1" d="m54.9,37.5c-.21.07-.37.11-.46.11-.22,0-.47-.32-.47-.62,0-.22.11-.31.57-.54l1.03-.49c.12-.06.19-.08.27-.08.33,0,.6.35.6.77,0,.24-.12.35-.47.47l-1.07.36Zm.67,7.1c0,.9-.02.99-.19,1.22-.2.24-.48.39-.78.39-.34,0-.65-.18-.84-.47-.13-.2-.14-.3-.14-1.15v-4.71c0-.91.01-.99.19-1.23.2-.26.48-.39.78-.39.34,0,.65.17.84.46.13.2.14.3.14,1.16v4.71"/>
  <path class="cls-1" d="m58.33,44.6c0,.9,0,.99-.19,1.22-.19.25-.48.39-.79.39s-.64-.18-.82-.47c-.13-.2-.14-.3-.14-1.15v-4.71c0-.9.01-.99.19-1.23.19-.25.48-.39.79-.39.33,0,.64.17.83.46.13.2.14.3.14,1.16v1.87l.93-2.29c.3-.71.32-.75.46-.92.14-.16.42-.28.67-.28.49,0,.93.43.93.89,0,.24-.05.37-.38,1.05l-.91,1.93,1.02,2.19c.33.71.37.81.37,1.01,0,.47-.47.88-.99.88s-.79-.25-1.15-1.12l-.95-2.35v1.85Z"/>
</svg>