<?xml version="1.0" encoding="UTF-8"?>
<svg id="Vrstva_1" data-name="Vrstva 1" xmlns="http://www.w3.org/2000/svg" viewBox="0 0 69.66 25.08">
  <defs>
    <style>
      .cls-1, .cls-2, .cls-3 {
        stroke-width: 0px;
      }

      .cls-4 {
        fill: none;
        stroke: #fff;
        stroke-miterlimit: 10;
        stroke-width: .87px;
      }

      .cls-2 {
        fill: #ec6723;
      }

      .cls-3 {
        fill: #fff;
      }
    </style>
  </defs>
  <rect class="cls-2" width="20" height="20"/>
  <path class="cls-2" d="m42.03,20.03h-.2c-.46,0-.78-.26-.96-.79v-.17c0-.18.08-.31.23-.41,0-.49-.07-1.49-.2-2.99l.03-.03h.03c.22,0,.36.91.44,2.73v.03h.03c.12-.25.3-.38.52-.38h.17c.48.16.73.48.73.96-.08.7-.35,1.05-.81,1.05m-.9-.9l-.03-.38s-.07.07-.09.21l.09.26h.03v-.09Zm.9-.81h-.03c-.33,0-.49.41-.49,1.22v.12c.15.06.28.09.41.09h.03c.35,0,.55-.25.61-.76-.1-.44-.28-.67-.52-.67m5.94,2.58h.06v.12h-.06v-.12Zm-.26.47l.26-.23v.06c0,.16-.39.39-1.16.7-.97.27-1.58.41-1.83.41,0,.71.09,1.57.26,2.59v.09c-.03.08-.1.12-.2.12l-1.69-1.28c-.95-.67-1.42-1.19-1.42-1.54v-.06c.03-.19.13-.29.29-.29h.03l1.28.12h1.14v-.09l.06-2.35v-.03h-.03c-.16.43-.34.64-.55.64h-.03c-.23,0-.35-.2-.35-.61v-.12c.01-.79.1-1.19.28-1.19h.03s.07.05.09.15c-.07.38-.1.78-.1,1.19.01.18.04.26.09.26.31-.37.54-.77.68-1.22.06-.58.18-.87.35-.87.1,0,.15.07.15.2h.03c-.22.75-.34,1.33-.34,1.74l-.03,1.45v.81c1.53-.22,2.45-.44,2.73-.64m-2.82,3.23c-.16-1.02-.23-1.77-.23-2.27l-.78.03-1.63-.15-.03.03v.03c.13.37.68.89,1.66,1.57l1.02.79v-.03Zm3.91-7.38c-.18-.15-.37-.23-.55-.23-.85.09-1.28.21-1.28.38-.18,1.38-.26,2.28-.26,2.7v.12h.03v-.09h.06v.2c0,.13-.06.2-.17.2-.14-.06-.2-.15-.2-.29v-.26c0-.48.09-1.35.26-2.59h-.03l-.78.15h-.17l-.12-.12c0-.08.38-.21,1.13-.38v-.61l-.03-.26c.03-.14.07-.2.12-.2h.09c.1,0,.15.25.15.76v.2h.03l.82-.17h.32c.23,0,.45.15.64.44v.06h-.03Zm.73,1.73v.2c-.2.52-.54.79-1.02.79h-.17c-.27-.06-.41-.2-.41-.41v-.09c0-.36.3-.77.9-1.22l.29-.09c.21.01.32.1.32.26l-.12.09-.03-.03h-.03v.03c.17.21.26.36.26.46m-.29.09c-.08-.29-.23-.44-.44-.44l-.26.29v.23h-.06v-.14c-.07,0-.16.16-.26.49,0,.12.07.17.2.17h.12c.46-.15.7-.35.7-.58v-.03Zm1.61,1.21h-.15c-.16,0-.23-.28-.23-.84v-.7c0-.23.04-.35.12-.35h.09c.08,0,.12.14.12.41v1.08c.1,0,.28-.68.52-2.04.05-.08.12-.12.2-.14.08.03.12.06.12.09-.29,1.67-.55,2.5-.79,2.5m5.84.65h.06v.12h-.06v-.12Zm-.26.47l.26-.23v.06c0,.16-.39.39-1.16.7-.97.27-1.58.41-1.83.41,0,.71.09,1.57.26,2.59v.09c-.03.08-.1.12-.2.12l-1.69-1.28c-.95-.67-1.42-1.19-1.42-1.54v-.06c.03-.19.12-.29.29-.29h.03l1.28.12h1.13v-.09l.06-2.35v-.03h-.03c-.16.43-.34.64-.55.64h-.03c-.23,0-.35-.2-.35-.61v-.12c.01-.79.1-1.19.28-1.19h.03s.07.05.09.15c-.07.38-.1.78-.1,1.19.02.18.04.26.09.26.31-.37.54-.77.68-1.22.06-.58.18-.87.35-.87.1,0,.15.07.15.2h.03c-.22.75-.33,1.33-.33,1.74l-.03,1.45v.81c1.53-.22,2.44-.44,2.73-.64m-2.82,3.23c-.15-1.02-.23-1.77-.23-2.27l-.79.03-1.63-.15-.03.03v.03c.13.37.68.89,1.66,1.57l1.02.79v-.03Zm-1.33-6.68h-.06l-.06-.06c0-.09.14-.28.41-.58l.67-1.16h.06s.08.06.11.18c-.11.41-.4.91-.87,1.51-.12.08-.2.12-.26.12m8.77-.7c-.18-.15-.37-.23-.55-.23-.85.09-1.28.21-1.28.38-.18,1.38-.26,2.28-.26,2.7v.12h.03v-.09h.06v.2c0,.13-.06.2-.18.2-.14-.06-.2-.15-.2-.29v-.26c0-.48.09-1.35.26-2.59h-.03l-.79.15h-.17l-.12-.12c0-.08.38-.21,1.13-.38v-.61l-.03-.26c.03-.14.07-.2.12-.2h.09c.1,0,.15.25.15.76v.2h.03l.81-.17h.32c.23,0,.45.15.64.44v.06h-.03Zm-.23,2.2l-.17.03h-.2c0,.14.09.2.26.2h.17c.29,0,.85-.11,1.69-.32-.6.43-1.18.64-1.74.64-.45,0-.67-.14-.67-.41v-.12c0-.3.25-.7.76-1.19.17-.12.32-.18.44-.18h.15c.19.04.29.14.29.29v.09c0,.35-.32.67-.96.96m.67-.99l-.06-.06c-.3,0-.58.26-.84.78h.03c.34-.08.63-.29.87-.64v-.09Zm2.55.72l-.09.15c.14.27.31.52.52.76v.06l-.06.06h-.11c-.17,0-.35-.21-.55-.64-.37.44-.62.67-.76.7-.08-.03-.12-.06-.12-.09,0-.08.19-.33.58-.75l.09-.12c-.13-.22-.28-.42-.44-.58v-.06l.09-.09h.15c.16.1.29.26.38.46h.03l1.4-1.6c.11-.1.21-.15.29-.15l.06.12c-.28.43-.77,1.02-1.45,1.77m4.07-1.93c-.18-.15-.37-.23-.55-.23-.85.09-1.28.21-1.28.38-.18,1.38-.26,2.28-.26,2.7v.12h.03v-.09h.06v.2c0,.13-.06.2-.17.2-.14-.06-.2-.15-.2-.29v-.26c0-.48.09-1.35.26-2.59h-.03l-.79.15h-.17l-.11-.12c0-.08.38-.21,1.13-.38v-.61l-.03-.26c.04-.14.07-.2.12-.2h.09c.1,0,.14.25.14.76v.2h.03l.81-.17h.32c.23,0,.45.15.64.44v.06h-.03Zm-.19.33h-.09c-.19-.03-.29-.12-.29-.26v-.12c0-.12.07-.22.2-.32h.06c.12,0,.22.09.32.26v.15c0,.11-.07.2-.2.29m-.3.44h.03l.11.12v.03l-.11,1.22.06.64-.09.03c-.17-.06-.26-.22-.26-.49v-.26c.06-.85.15-1.28.26-1.28m1.81,2.4c-.27,0-.45-.3-.52-.9v-.2c0-.99.16-2.31.46-3.95l.03-.03h.09s.08.08.12.23c-.27,1.81-.41,3.06-.41,3.75.06.66.21.99.44.99l.03.03v.03l-.23.06Z"/>
  <path class="cls-1" d="m26.29,10.58h-1.26v3.1h-1.03v-6.19c0-.69-.11-1.15-.8-1.15h-.23v-.23h2.98c.97,0,2.87.23,2.87,2.29,0,1.95-1.89,2.18-2.52,2.18m-.4-4.07c-.29,0-.63.06-.86.12v3.44c.23.05.57.11.86.11.63,0,1.78-.46,1.78-1.84s-1.15-1.84-1.78-1.84m6.02,7.28c-1.6,0-2.52-1.26-2.52-2.81s.92-2.81,2.52-2.81,2.52,1.26,2.52,2.81-.92,2.81-2.52,2.81m0-5.16c-.86,0-1.43,1.03-1.43,2.35s.57,2.35,1.43,2.35,1.43-1.03,1.43-2.35-.57-2.35-1.43-2.35m3.79,5.05v-6.19c0-.69-.11-1.15-.8-1.15h-.23v-.23h1.03c.8,0,1.03.23,1.03,1.38v6.19h-1.03Zm6.14,0l-.4-.52h-.06c-.23.29-.74.63-1.61.63-.63,0-1.66-.34-1.66-1.61s1.38-1.61,2.93-1.61h.34c0-1.6-.52-1.95-1.2-1.95-.63,0-1.09.23-1.26.97h-.52c0-.4,0-.75.29-1.03.29-.29,1.03-.4,1.72-.4,1.03,0,2.01.34,2.01,2.41v3.1h-.57Zm-.46-2.64h-.34c-1.15,0-1.84.46-1.84,1.15,0,.74.52,1.09,1.09,1.09s.86-.34,1.09-.69v-1.55Zm-1.38-3.39l.63-1.38h1.03l-1.2,1.38h-.46Zm5.79.98c-.74,0-1.15.35-1.15.8,0,.4.35.74.92.98l.69.29c.97.4,1.49.8,1.49,1.6,0,.97-.86,1.49-2.01,1.49-.92,0-1.49-.17-1.78-.46-.29-.29-.29-.63-.29-1.21h.23c.12.74.63,1.21,1.61,1.21.86,0,1.26-.35,1.26-.8s-.34-.75-1.03-1.03l-.69-.29c-.86-.35-1.38-.8-1.38-1.55,0-.98.8-1.49,1.89-1.49.86,0,1.43.17,1.72.46.29.29.29.63.29,1.2h-.23c-.11-.74-.63-1.2-1.55-1.2m-.63-.92l-.92-1.2h.46l.98.8.97-.8h.46l-.92,1.2h-1.03Zm8.01,3.44h-3.42c0,1.26.57,2.18,1.55,2.18.75,0,1.21-.35,1.61-.92l.23.17c-.52.86-1.2,1.2-2.06,1.2-1.61,0-2.41-1.26-2.41-2.81s.8-2.81,2.24-2.81c1.55,0,2.29.92,2.29,2.52l-.02.46Zm-2.21-2.47c-.69,0-1.2.86-1.2,2.01h2.41c0-1.26-.4-2.01-1.2-2.01m8.26,4.77v.22c-.11.06-.34.11-.57.11-.57,0-1.15-.23-1.66-.92l-1.38-1.83v2.64h-1.03v-6.19c0-.69-.12-1.15-.8-1.15h-.23v-.23h1.03c.8,0,1.03.23,1.03,1.38v3.38l1.43-1.84c.34-.45.74-.75,1.49-.75h.34v.29c-.4,0-.8.16-1.09.52l-1.26,1.61,1.43,1.84c.45.57.8.86,1.26.93"/>
  <path class="cls-3" d="m7.79,3.14c-3,.07-4.51.32-4.51.74v.19c0,.24.72.94,2.16,2.1,2.16,1.99,3.5,3.63,4.01,4.94-.99.33-2.45.64-4.38.93-1.38,0-2.24-.14-2.59-.43h-.06c.35.49,1.44.74,3.27.74h.43c1.13,0,2.33-.21,3.58-.62.16.32.56,1.53,1.17,3.64.06,1.11.21,1.67.43,1.67h.19l.19-.12-.12-5.74c4.12-1.53,6.17-2.97,6.17-4.32v-.12c0-.84-.66-1.59-1.98-2.22-2.46-.91-5.05-1.36-7.78-1.36h-.18Zm.37.68c1.42,0,2.8.12,4.14.37,3.21.69,4.82,1.51,4.82,2.47,0,1.12-1.87,2.42-5.62,3.89l-.19-1.6c-.46-1.9-.98-3.16-1.54-3.77h-.06l-.06.06.43.86c.37,1,.64,2.54.8,4.63l-.74.18-1.23-2.04c-1.08-1.39-2.71-2.99-4.88-4.82.87-.16,2.24-.25,4.14-.25m2.65,7.59l.12.12v1.67h-.06l-.49-1.67.43-.12Z"/>
  <path class="cls-4" d="m7.79,3.14c-3,.07-4.51.32-4.51.74v.19c0,.24.72.94,2.16,2.1,2.16,1.99,3.5,3.63,4.01,4.94-.99.33-2.45.64-4.38.93-1.38,0-2.24-.14-2.59-.43h-.06c.35.49,1.44.74,3.27.74h.43c1.13,0,2.33-.21,3.58-.62.16.32.56,1.53,1.17,3.64.06,1.11.21,1.67.43,1.67h.19l.19-.12-.12-5.74c4.12-1.53,6.17-2.97,6.17-4.32v-.12c0-.84-.66-1.59-1.98-2.22-2.46-.91-5.05-1.36-7.78-1.36h-.18Zm.37.68c1.42,0,2.8.12,4.14.37,3.21.69,4.82,1.51,4.82,2.47,0,1.12-1.87,2.42-5.62,3.89l-.19-1.6c-.46-1.9-.98-3.16-1.54-3.77h-.06l-.06.06.43.86c.37,1,.64,2.54.8,4.63l-.74.18-1.23-2.04c-1.08-1.39-2.71-2.99-4.88-4.82.87-.16,2.24-.25,4.14-.25Zm2.65,7.59l.12.12v1.67h-.06l-.49-1.67.43-.12Z"/>
</svg>