<?xml version="1.0" encoding="UTF-8"?>
<svg id="Vrstva_1" data-name="Vrstva 1" xmlns="http://www.w3.org/2000/svg" viewBox="0 0 66.2 28.13">
  <defs>
    <style>
      .cls-1 {
        stroke-width: 0px;
      }
    </style>
  </defs>
  <path class="cls-1" d="m13.84,4.06l.03,2.37.04,1.18.02.24c-.16-.01-.34-.06-.5-.06-.19,0-.38.04-.58.06l.02-.24.04-.86.05-2.56V1.53l-.06-1.16c.19,0,.37.04.56.04.17,0,.34-.02.5-.03-.01.1-.01.19-.02.3l-.04.99-.05,1.91,1.41.03,3.13-.03V1.25l-.06-.89c.19,0,.37.04.56.04.17,0,.34-.02.51-.03-.02.1-.02.19-.03.3l-.1,3.56.04,2.46.06,1.16c-.17-.01-.33-.06-.49-.06-.2,0-.38.04-.58.06l.02-.24.05-1.13.04-2.43h-4.56Z"/>
  <path class="cls-1" d="m13.84,4.06h-.24s.03,2.37.03,2.37l.04,1.19h0s.02.25.02.25l.24-.02.02-.24c-.14,0-.32-.05-.52-.06-.23,0-.42.05-.59.06v.24s.25.02.25.02l.02-.24h0s.04-.87.04-.87h0s.05-2.57.05-2.57V1.52l-.06-1.17h-.24s-.01.25-.01.25c.17,0,.36.04.57.04.18,0,.36-.02.52-.03l-.02-.24-.24-.03c-.01.11-.01.21-.02.3h0s-.04,1-.04,1l-.06,2.15,1.65.03,3.37-.03V1.24l-.06-.89-.24.02v.24c.16,0,.35.04.56.04.19,0,.36-.02.53-.03l-.02-.24-.23-.05c-.03.13-.03.24-.04.33h0s-.1,3.59-.1,3.59l.04,2.47.06,1.16h.24s.02-.25.02-.25c-.14,0-.3-.05-.51-.06-.23,0-.42.05-.59.06v.24s.25.02.25.02l.02-.24h0s.05-1.14.05-1.14h0s.04-2.67.04-2.67h-5.04v.24s.24,0,.24,0v.24h4.32l-.03,2.18-.05,1.11-.02.24-.03.28.28-.02c.22-.01.4-.06.57-.06.12,0,.28.04.48.06l.27.02-.07-1.42h-.24s.24,0,.24,0l-.04-2.46.1-3.56h-.24s.24.02.24.02c.01-.12.01-.21.03-.27l.07-.32-.32.03c-.18.01-.33.03-.49.03-.16,0-.34-.03-.55-.04h-.27s.07,1.13.07,1.13v2.08l-2.89.03-1.17-.02.05-1.67h-.24s.24,0,.24,0l.04-.99h-.24s.24.01.24.01c.01-.12.01-.21.02-.29l.03-.29-.29.03c-.16.01-.33.03-.48.03-.16,0-.34-.03-.54-.04h-.26s.07,1.4.07,1.4v2.66h.24-.24s-.05,2.56-.05,2.56h.24s-.24,0-.24,0l-.04.86h.24s-.24,0-.24,0l-.02.24-.03.27.28-.02c.22-.01.41-.06.56-.06.12,0,.29.04.49.06l.28.02-.05-.51-.04-1.17h-.24s.24,0,.24,0l-.03-2.37h-.24v.24-.24Z"/>
  <path class="cls-1" d="m23.53,2.57c.72,0,1.41.28,1.89.83.47.52.65,1.17.65,1.86,0,.53-.13,1.03-.39,1.48-.51.86-1.36,1.23-2.34,1.23-.33,0-.82-.1-1.11-.23-.37-.16-.57-.33-.84-.62-.51-.57-.62-1.15-.62-1.89,0-1.62,1.2-2.66,2.77-2.66m1.11,4.38c.26-.37.36-.74.43-1.18.03-.19.04-.37.04-.57,0-.98-.37-2.27-1.59-2.27-1.39,0-1.79,1.3-1.79,2.46,0,1.08.45,2.22,1.69,2.22.52,0,.91-.26,1.22-.66"/>
  <path class="cls-1" d="m23.53,2.81c.66,0,1.28.26,1.71.75h0c.42.47.58,1.05.58,1.7,0,.49-.12.95-.36,1.36v.02s0-.02,0-.02c-.47.78-1.22,1.11-2.14,1.12-.28,0-.77-.1-1.02-.21-.34-.15-.49-.28-.76-.57h0c-.46-.52-.56-1.01-.56-1.73,0-.75.27-1.35.72-1.76.45-.42,1.08-.66,1.82-.66v-.47c-.84,0-1.59.28-2.14.78-.55.51-.87,1.24-.87,2.11,0,.76.12,1.43.69,2.05h0c.28.31.52.51.92.68.34.15.84.25,1.21.25,1.03,0,1.99-.41,2.54-1.35h0c.29-.49.43-1.03.43-1.6,0-.73-.19-1.44-.71-2.01l-.18.16.18-.16c-.53-.61-1.29-.91-2.07-.91v.47h0Zm1.11,4.15l.19.14c.29-.41.4-.83.47-1.28.03-.2.05-.4.05-.61,0-.52-.09-1.12-.37-1.62-.27-.5-.76-.9-1.46-.89-.77,0-1.32.38-1.62.91-.31.53-.41,1.18-.41,1.78,0,.57.12,1.17.42,1.64.3.48.82.82,1.51.81.6,0,1.07-.31,1.41-.75h0s0,0,0,0l-.19-.14-.19-.14c-.28.36-.59.56-1.03.56-.55,0-.87-.23-1.11-.6-.23-.36-.34-.88-.34-1.39,0-.55.1-1.13.34-1.54.25-.41.6-.67,1.21-.68.52,0,.82.25,1.04.65.22.39.31.93.31,1.39,0,.18-.01.36-.04.53-.07.42-.16.75-.39,1.08l.19.14-.19-.14.19.14Z"/>
  <path class="cls-1" d="m27.24,6.83c.26.43.74.78,1.26.78s1.07-.38,1.07-.96c0-.75-.7-.86-1.27-1.04-.31-.1-.62-.19-.87-.4-.26-.24-.45-.63-.45-.99,0-1.05.8-1.61,1.78-1.61.4,0,.78.07,1.16.25l.08.03c-.11.25-.2.52-.26.78h-.1c-.14-.36-.53-.7-.93-.7-.55,0-.98.3-.98.89,0,.65.49.85,1.04.99.24.07.78.22.98.36.36.28.54.58.54,1.05,0,.68-.33,1.11-.87,1.46-.28.19-.8.26-1.14.26-.45,0-.98-.12-1.37-.35.09-.27.19-.53.23-.8h.08Z"/>
  <path class="cls-1" d="m27.24,6.83l-.2.12c.3.48.84.88,1.46.89.32,0,.64-.11.89-.32.25-.2.42-.51.42-.88,0-.45-.24-.78-.54-.94-.29-.17-.62-.24-.9-.32-.31-.1-.59-.18-.78-.35h0c-.21-.19-.37-.54-.37-.81,0-.47.17-.79.44-1.02.27-.23.66-.36,1.11-.36.37,0,.72.07,1.05.23h0s.09.04.09.04l.09-.22-.22-.09c-.12.26-.21.54-.28.82l.23.06v-.24h-.1v.24l.22-.09c-.18-.44-.61-.84-1.15-.85-.32,0-.62.09-.85.28-.23.19-.37.5-.37.85,0,.39.16.69.41.87.24.18.53.27.81.35l.06-.23-.06.23c.12.03.31.09.49.15.18.06.36.14.42.18l.14-.19-.15.19c.32.27.44.46.45.86,0,.59-.26.93-.76,1.26h0s0,0,0,0c-.2.14-.7.23-1.01.22-.41,0-.92-.12-1.25-.31l-.12.2.22.08c.09-.26.19-.53.24-.84l-.23-.04v.24h.08v-.24l-.2.12.2-.12v-.24h-.29l-.03.2c-.04.24-.13.49-.22.76l-.06.18.16.1c.44.26,1,.38,1.49.38.38,0,.9-.07,1.27-.3l-.13-.2.13.2c.59-.37.99-.9.98-1.66,0-.54-.24-.94-.63-1.24h0s0,0,0,0c-.15-.1-.34-.17-.54-.24-.2-.07-.4-.12-.52-.15h0c-.26-.07-.5-.15-.64-.26-.14-.12-.22-.23-.22-.5,0-.24.08-.38.2-.49.12-.1.31-.17.54-.17.27-.01.6.27.71.55l.06.15h.45l.04-.18c.06-.25.15-.5.25-.74l.1-.22-.31-.12-.09.22.1-.21c-.41-.19-.83-.27-1.26-.27-.54,0-1.04.15-1.41.47-.38.31-.61.8-.61,1.38,0,.43.21.87.52,1.16h0c.3.27.65.36.95.46.3.09.6.16.8.28.2.13.29.23.3.53,0,.21-.09.38-.25.52-.16.13-.37.21-.58.21-.4,0-.83-.29-1.06-.66l-.07-.11h-.13v.24Z"/>
  <path class="cls-1" d="m32.54,1.21v.27s-.09,1.32-.09,1.32l1.17-.02c-.04.14-.02.3-.01.44l-1.16-.02-.02.24-.03,2.39c-.01.66-.1,1.77.86,1.77.16,0,.33-.04.49-.07v.26c-.3.11-.6.16-.92.16-.13,0-.35-.05-.48-.08-.34-.07-.63-.4-.73-.72-.11-.32-.08-.55-.06-.88l.06-1.92v-1.15l-.72.02v-.45l.72.02c0-.4-.03-.81-.04-1.21l.96-.37Z"/>
  <path class="cls-1" d="m32.54,1.21h-.24s-.01.26-.01.26h.24s-.24,0-.24,0l-.09,1.58,1.43-.03v-.24s-.23-.06-.23-.06c-.02.1-.03.19-.03.27v.24s.25-.02.25-.02v-.24s-1.16-.02-1.16-.02h-.22s-.04.46-.04.46h0s-.03,2.4-.03,2.4h0c0,.12,0,.27,0,.42,0,.33.02.69.16,1.01.14.33.48.59.94.58.21,0,.38-.05.54-.08l-.04-.23h-.24v.26h.24l-.08-.22c-.27.1-.55.15-.84.15-.08,0-.3-.05-.44-.07l-.04.23.05-.23c-.22-.03-.48-.32-.55-.56h0c-.05-.17-.07-.29-.07-.43,0-.11,0-.23.01-.37h0s.07-1.92.07-1.92v-1.39l-.97.03v.24h.24v-.2h.48s.24.02.24.02v-.24c0-.42-.03-.82-.04-1.21h-.24s.09.23.09.23l.96-.37-.09-.22h-.24s.24,0,.24,0l-.09-.22-1.12.43v.17c.01.41.05.81.05,1.2h.24v-.24s-.72-.02-.72-.02h-.24s0,.54,0,.54v.38l.97-.03v-.24h-.24v1.14l-.06,1.91h0c0,.13-.01.26-.01.39,0,.18.02.37.09.58l.22-.08-.23.07c.13.39.45.78.91.89h0s0,0,0,0c.12.02.34.08.52.08.34,0,.68-.06,1-.18l.15-.06v-.71l-.28.05c-.18.03-.33.07-.45.07-.31-.01-.41-.11-.51-.3-.09-.2-.12-.51-.12-.81,0-.14,0-.28,0-.41l.03-2.38h0s.94,0,.94,0h.26s-.02-.26-.02-.26v-.2s0-.16,0-.16l.07-.3-1.22.02.06-1.07v-.28s.03-.36.03-.36l-.34.13.09.22Z"/>
  <path class="cls-1" d="m35.34,1.35c-.31,0-.56-.25-.56-.56s.25-.55.56-.55.56.25.56.55-.26.56-.56.56m-.53,1.33c.18.03.36.03.54.03.14,0,.28,0,.42-.03-.06.86-.07,1.72-.07,2.58s0,1.66.05,2.48v.11c-.14-.02-.31-.03-.47-.03-.15,0-.31,0-.47.03.06-.86.07-1.74.07-2.6s.01-1.66-.05-2.49v-.08Z"/>
  <path class="cls-1" d="m35.34,1.11c-.17,0-.32-.14-.32-.32,0-.17.15-.32.32-.32l.22.09.1.22-.1.23-.22.1v.47c.43,0,.79-.35.79-.8,0-.44-.37-.79-.79-.79-.44,0-.79.35-.79.79,0,.44.36.79.79.79v-.47h0Zm-.53,1.57l-.04.23c.2.03.4.03.58.03.14,0,.3,0,.47-.04l-.05-.23-.24-.02c-.06.87-.07,1.73-.07,2.59s0,1.67.05,2.5h0s.01.12.01.12l.24-.03.03-.23c-.16-.02-.34-.04-.52-.04-.15,0-.33,0-.52.04l.05.23.24.02c.06-.87.07-1.75.07-2.62,0-.21,0-.42,0-.63,0-.62,0-1.25-.06-1.88h0s-.02-.1-.02-.1l-.23.04-.04.23.04-.23-.23.04v.08s.25-.04.25-.04l-.24.02c.05.61.05,1.23.05,1.85,0,.21,0,.42,0,.63,0,.86-.01,1.73-.07,2.59l-.02.31.31-.07c.12-.03.27-.03.42-.03.15,0,.31.01.45.03l.31.04-.05-.42-.24.03h.24c-.04-.83-.05-1.65-.05-2.48s0-1.71.07-2.56l.02-.32-.31.07c-.1.02-.22.02-.36.02-.18,0-.35,0-.5-.03l-.33-.06.06.33.23-.04Z"/>
  <path class="cls-1" d="m42.01,6.3l.02,1.06v.49c-.2-.03-.34-.03-.47-.03-.16,0-.3,0-.45.03.01-.32.04-.62.05-.94.01-.41.03-.8.05-1.2,0-.24,0-.49,0-.73,0-.26-.03-.88-.14-1.08-.23-.45-.59-.74-1.12-.74-.49,0-.97.22-1.22.67-.22.46-.22,1.02-.22,1.52v1.78l.03.65v.07c-.14-.02-.3-.03-.45-.03s-.31-.01-.45.03c.01-.43.04-.86.05-1.29.02-.66.03-1.3.03-1.95,0-.35-.02-.71-.03-1.06-.01-.28-.01-.58-.02-.86.18.02.31.03.43.03.14,0,.29,0,.44-.03v.23l-.03.35v.39c.39-.67.99-1.04,1.77-1.04.49,0,1.05.16,1.38.54.41.5.39.95.38,1.56l-.03,1.59Z"/>
  <path class="cls-1" d="m42.01,6.3h-.24s.02,1.06.02,1.06h.24s-.24,0-.24,0v.49h.24l.04-.23c-.22-.04-.38-.04-.51-.04-.15,0-.32,0-.5.04l.05.23h.24c.01-.3.04-.61.05-.93h0c.01-.4.03-.8.05-1.2h0c0-.24,0-.49,0-.74,0-.14,0-.36-.03-.58-.03-.23-.05-.43-.14-.61h0c-.25-.5-.71-.87-1.33-.86-.56,0-1.13.26-1.42.79h0s0,0,0,0c-.26.53-.25,1.12-.25,1.62v1.79l.03.65v.07h.24l.04-.23c-.15-.02-.32-.04-.48-.04h-.14c-.11,0-.24,0-.38.04l.07.23h.24c.01-.41.04-.85.05-1.28h0c.02-.66.03-1.31.03-1.96,0-.36-.02-.72-.03-1.07h0s0,0,0,0c-.01-.28-.01-.57-.02-.86h-.24s-.03.24-.03.24c.19.03.33.03.46.03.14,0,.31,0,.48-.04l-.05-.23h-.24v.22l-.03.34h0v1.29l.44-.76c.36-.6.87-.92,1.56-.92.45,0,.94.15,1.2.46l.18-.16-.18.15c.29.36.33.64.33,1.08,0,.1,0,.2,0,.32l-.03,1.59h0s.24,0,.24,0h.24s.03-1.58.03-1.58c0-.11,0-.22,0-.33,0-.46-.06-.93-.44-1.39h0c-.4-.46-1.02-.63-1.56-.63-.85,0-1.56.43-1.97,1.16l.2.12h.24v-.39l.03-.34h0v-.54l-.29.06c-.11.02-.25.03-.39.02-.11,0-.22,0-.4-.03l-.28-.04v.28c.02.28.02.58.03.87h.24s-.24,0-.24,0c.01.36.03.71.03,1.06,0,.65-.01,1.29-.03,1.95h0c-.01.42-.04.86-.05,1.29v.33s.31-.1.31-.1c.06-.02.14-.02.24-.02h.14c.14,0,.28.01.41.03l.27.04v-.35h0s-.03-.65-.03-.65v-1.78c0-.5,0-1.03.2-1.42l-.21-.1.21.11c.19-.36.58-.54,1.01-.55.43,0,.69.21.9.61h0s.07.24.08.43c.02.2.03.42.03.54,0,.24,0,.49,0,.73h.24-.24c-.01.39-.03.79-.05,1.2h0c0,.31-.03.61-.05.94v.31s.29-.07.29-.07c.12-.03.24-.03.4-.03.13,0,.25,0,.43.03l.28.05v-.78l-.02-1.06h-.24s.24,0,.24,0h-.24Z"/>
  <path class="cls-1" d="m47.97,5.23l-2.22-.04-1.56.04c-.1,1.23.59,2.29,1.91,2.29.53,0,1.15-.27,1.52-.65l.16-.08-.07.55c-.54.38-1.21.65-1.88.65-.27,0-.52-.06-.77-.12-.57-.12-1.1-.53-1.41-1.03-.32-.49-.41-.99-.41-1.55,0-.66.23-1.48.69-1.98.46-.49,1.15-.73,1.81-.73,1.41,0,2.19.85,2.24,2.23l-.02.43Zm-2.22-2.3c-1.03,0-1.47.97-1.54,1.86.48,0,.95.03,1.43.03s.98-.02,1.48-.03c-.02-.92-.28-1.86-1.37-1.86"/>
  <path class="cls-1" d="m47.97,4.99l-2.23-.04-1.78.04-.02.21v.25c-.01.61.17,1.18.54,1.61.37.43.93.69,1.6.69.61,0,1.26-.29,1.69-.73l-.17-.16.11.21.16-.08-.11-.21-.24-.03-.07.55.24.03-.14-.19c-.5.36-1.14.6-1.74.6-.23,0-.46-.06-.72-.12h0c-.49-.1-.99-.47-1.26-.92h0c-.29-.46-.37-.88-.37-1.43,0-.61.22-1.39.63-1.82.4-.43,1.03-.66,1.64-.66.66,0,1.13.19,1.46.53.33.33.52.83.55,1.48h.24s-.24-.02-.24-.02l-.02.43.47.02.02-.43h0s0-.02,0-.02c-.03-.73-.25-1.35-.68-1.79-.43-.44-1.05-.67-1.8-.67-.72,0-1.47.26-1.99.81-.52.56-.75,1.42-.75,2.14,0,.59.1,1.14.44,1.68l.2-.13-.2.12c.34.56.92,1,1.56,1.14l.05-.23-.05.23c.25.05.52.13.82.13.73,0,1.45-.28,2.02-.69l.08-.06.08-.65.05-.44-.55.28-.04.02-.03.03c-.32.33-.9.59-1.35.58-.56,0-.96-.2-1.25-.53-.28-.32-.44-.78-.44-1.3v-.21s-.23-.02-.23-.02v.24s1.56-.03,1.56-.03l2.22.03v-.47s0,0,0,0Zm-2.23-2.06v-.24c-.59,0-1.05.29-1.32.7-.28.4-.42.9-.45,1.38l-.02.25h.25c.47.02.95.04,1.43.04.5,0,.99-.02,1.48-.03h.24s0-.24,0-.24c-.01-.48-.08-.98-.32-1.39-.23-.41-.68-.71-1.29-.7v.47c.47,0,.7.18.88.47.17.29.24.72.25,1.16h.24s0-.24,0-.24c-.5.01-.99.03-1.47.03-.47,0-.94-.02-1.42-.03v.24s.23.02.23.02c.03-.41.15-.84.37-1.14.22-.3.5-.49.94-.5v-.24Z"/>
  <path class="cls-1" d="m53.1,3.78h-.09c-.09-.12-.17-.26-.29-.36-.25-.29-.71-.46-1.08-.46-1.27,0-1.9,1.12-1.9,2.27,0,.58.15,1.19.52,1.65.35.44.93.71,1.5.71.63,0,1.05-.26,1.51-.68l.07.03-.05.5c-.49.36-1.07.55-1.67.55-1.11,0-2.01-.36-2.53-1.4-.21-.43-.27-.84-.27-1.32,0-1.69,1.2-2.66,2.83-2.66.62,0,1.19.12,1.73.45l-.25.72Z"/>
  <path class="cls-1" d="m53.1,3.78v-.24h-.09v.24l.19-.14c-.08-.11-.17-.27-.34-.41l-.15.18.18-.16c-.32-.35-.82-.54-1.26-.54-.71,0-1.26.32-1.62.8-.35.47-.52,1.09-.52,1.71,0,.62.16,1.28.57,1.8.4.51,1.04.8,1.68.8.71,0,1.2-.31,1.67-.74l-.16-.18-.1.21.07.03.1-.21-.24-.02-.05.5.24.02-.14-.19c-.46.33-.98.5-1.53.5-.53,0-1-.09-1.38-.28-.38-.2-.69-.5-.93-.98h0c-.19-.39-.25-.76-.25-1.21,0-.79.28-1.38.73-1.79.45-.41,1.1-.64,1.87-.64.59,0,1.11.11,1.61.41l.12-.2-.22-.08-.25.72.22.08v-.24.24l.22.08.25-.72.06-.18-.16-.1c-.58-.35-1.2-.48-1.85-.48-.86,0-1.63.26-2.18.76-.56.5-.89,1.24-.88,2.14,0,.49.07.95.3,1.42h0c.28.56.67.95,1.14,1.2.47.24,1.01.34,1.6.34.65,0,1.28-.2,1.81-.59l.09-.06.06-.61.02-.17-.22-.1-.14-.07-.12.11c-.45.4-.79.61-1.35.62-.5,0-1.01-.24-1.31-.62-.32-.41-.47-.97-.46-1.51,0-.53.15-1.05.43-1.42.28-.37.67-.6,1.24-.61.3,0,.72.16.9.38v.02s.03.01.03.01c.08.06.16.18.25.32l.07.1h.38l.06-.16-.22-.08Z"/>
  <path class="cls-1" d="m.98,20.77c.04.38-.02.66-.36.66s-.42-.21-.37-.66v-1.85c-.04-.58.04-.88.37-.88s.41.3.36.88v1.85Zm1.78,0c.04.38-.02.66-.36.66s-.41-.21-.37-.66v-1.85c-.04-.58.03-.88.37-.88s.41.3.36.88v1.85Z"/>
  <path class="cls-1" d="m.75,20.8v.16c.01.11-.01.18-.03.2l-.1.03c-.11,0-.11-.02-.11-.02,0,0-.03-.06-.03-.2v-.18s.01-.01.01-.01v-1.87h0s-.01-.25-.01-.25c0-.19.03-.31.05-.34l.09-.04.09.03s.05.15.05.33c0,.08,0,.16-.01.26h0v1.86h.47v-1.85h-.24l.24.02c0-.11.01-.2.01-.3,0-.22-.02-.4-.11-.57-.09-.17-.3-.28-.5-.27-.2,0-.41.1-.5.27-.1.17-.12.36-.12.58,0,.09,0,.18.01.28l.24-.02H.01v1.85h.24l-.24-.02v.22c-.01.18.01.35.13.49.12.15.31.2.48.2.19,0,.38-.08.48-.23.1-.15.13-.31.13-.48v-.22s-.48.05-.48.05h0Zm2.02-.03l-.24.03v.16c.01.12-.01.18-.03.2-.01.01,0,.02-.1.03-.11,0-.11-.02-.11-.02,0,0-.03-.06-.03-.19v-.18s.01-.01.01-.01v-1.87h0c0-.1-.01-.18-.01-.26,0-.18.03-.3.05-.34l.09-.04.09.03s.05.15.05.33c0,.08,0,.16-.01.26h0v1.88h0s.24-.01.24-.01h.24v-1.85h-.24l.24.02c0-.1.01-.2.01-.29,0-.22-.02-.4-.11-.57-.09-.17-.3-.28-.5-.27-.2,0-.41.1-.5.27-.1.17-.12.36-.12.58,0,.09,0,.18.01.28l.24-.02h-.24v1.85h.24l-.24-.02v.23c-.01.18.01.34.13.49.12.15.31.2.48.2.19,0,.38-.08.49-.23.1-.15.12-.31.13-.48v-.21s-.25.03-.25.03h.24-.24Z"/>
  <path class="cls-1" d="m4.44,21.38v-1.18l-.04-1.71-.02-.28c.19,0,.38.05.57.05.16,0,.32-.04.48-.05l-.02.27-.04.75-.04,2.32c0,.28-.01.58-.01.86,0,.38.01.76.08,1.14.21,1.25,1.15,1.78,2.34,1.78.38,0,1.01-.13,1.32-.35.32-.22.6-.58.76-.92.28-.65.28-1.72.29-2.41,0-.43.03-.84.03-1.27,0-.39-.03-.78-.03-1.17l-.04-.99c.26.03.52.07.78,0-.01.45-.06.89-.09,1.33l-.11,3.03c0,.41-.04.94-.17,1.33-.11.34-.36.83-.61,1.07-.63.62-1.46.85-2.33.85-.64,0-1.3-.11-1.88-.4-.22-.11-.32-.21-.49-.36-.69-.62-.78-1.6-.76-2.47l.05-1.2Z"/>
  <path class="cls-1" d="m4.44,21.38h.24v-1.18h0s-.04-1.73-.04-1.73l-.02-.29-.24.02v.24c.15,0,.35.05.57.05.21,0,.37-.05.49-.05v-.24s-.25-.02-.25-.02l-.02.27-.04.75h0s-.04,2.33-.04,2.33h0c0,.28-.01.57-.01.87,0,.39.01.78.08,1.18h0c.11.67.44,1.19.9,1.51.46.33,1.04.47,1.67.47.43,0,1.06-.13,1.46-.39.36-.25.66-.63.84-1.02h0c.31-.74.3-1.81.31-2.51h0c0-.42.02-.84.03-1.27,0-.4-.03-.79-.03-1.17h0s-.04-1-.04-1h-.24s-.03.25-.03.25c.15.02.31.04.48.04.12,0,.25-.01.38-.04l-.06-.23h-.24c0,.43-.06.87-.09,1.32h0s-.11,3.05-.11,3.05h0c0,.4-.05.91-.16,1.26-.1.3-.35.79-.55.97h0c-.58.57-1.34.78-2.16.79-.62,0-1.24-.11-1.77-.38h0c-.19-.09-.26-.17-.44-.33l-.16.18.16-.18c-.55-.49-.68-1.28-.68-2.07v-.21s.05-1.2.05-1.2h0s-.24,0-.24,0h-.24s-.05,1.19-.05,1.19h0s0,.23,0,.23c0,.83.13,1.78.84,2.42h0c.16.15.29.28.54.4l.1-.21-.11.21c.63.32,1.32.43,1.99.43.9,0,1.81-.24,2.49-.92l-.17-.17.16.17c.3-.3.55-.8.67-1.17.14-.44.17-.98.18-1.4h-.24s.24,0,.24,0l.11-3.03h-.24s.24,0,.24,0c.02-.43.08-.88.09-1.34v-.31s-.29.07-.29.07c-.09.02-.17.03-.27.03-.13,0-.27-.02-.42-.04l-.28-.03.06,1.27h.24s-.24,0-.24,0c0,.4.03.78.03,1.16,0,.42-.02.83-.03,1.27h.24-.24c0,.69-.02,1.74-.27,2.32l.22.09-.22-.1c-.13.3-.4.63-.67.82-.23.17-.86.31-1.19.31-.56,0-1.04-.13-1.4-.38-.36-.25-.61-.63-.7-1.2h0c-.06-.36-.07-.72-.07-1.1,0-.28.01-.57.01-.86h-.24.24s.04-2.31.04-2.31h-.24s.24,0,.24,0l.04-.75h-.24s.24,0,.24,0l.02-.27.02-.27-.27.02c-.2.01-.35.06-.47.05-.15,0-.34-.04-.56-.05h-.27s.04.53.04.53l.04,1.71h.24s-.24,0-.24,0v1.18h.24-.24s.24,0,.24,0Z"/>
  <path class="cls-1" d="m22.09,19.54c-.61-.7-1.53-1.08-2.46-1.08s-1.76.35-2.37,1.03c-.58.66-.79,1.57-.79,2.43,0,.91.26,1.93.9,2.6.63.67,1.47.89,2.38.89.59,0,1.2-.1,1.74-.36v-1.77c0-.34-.01-.67-.03-1.01.21.02.37.04.52.04s.36,0,.48-.07c0,.11,0,.22,0,.33l-.03,1.09v1.67c-.95.33-1.95.5-2.97.5-.74,0-1.48-.16-2.14-.48-.69-.32-1.14-.79-1.5-1.44-.33-.61-.39-1.27-.39-1.94,0-2.56,1.84-3.89,4.26-3.89.97,0,1.76.14,2.65.53l.14.09c-.1.27-.17.56-.25.84h-.12Z"/>
  <path class="cls-1" d="m22.09,19.54l.18-.16c-.66-.76-1.65-1.16-2.64-1.16-.96,0-1.89.38-2.55,1.11h0c-.63.72-.85,1.7-.85,2.58,0,.95.27,2.02.96,2.77.69.74,1.61.97,2.55.97.62,0,1.26-.1,1.84-.38l.13-.07v-1.92c0-.35-.01-.68-.03-1.02h-.24s-.03.25-.03.25c.21.02.38.04.55.04h.09c.14,0,.33,0,.53-.12l-.14-.19-.24-.02c-.01.12,0,.24,0,.35h.24-.24s-.03,1.08-.03,1.08h0v1.68h.24l-.08-.22c-.93.32-1.9.49-2.9.49-.71,0-1.41-.16-2.04-.46h0c-.64-.3-1.04-.72-1.39-1.34l-.21.11.21-.11c-.3-.56-.36-1.17-.36-1.83,0-1.22.43-2.12,1.14-2.73.71-.61,1.72-.93,2.89-.93.95,0,1.69.13,2.55.51l.1-.22-.13.2.14.09.13-.2-.22-.08c-.1.29-.18.57-.26.86l.23.06v-.24h-.12v.24l.18-.16-.18.16v.24h.3l.05-.17c.08-.29.15-.56.25-.83l.06-.18-.3-.19h-.01s-.02-.02-.02-.02c-.91-.41-1.75-.56-2.74-.55-1.25,0-2.38.34-3.2,1.04-.82.7-1.31,1.75-1.3,3.09,0,.69.06,1.39.42,2.06h0c.38.69.87,1.21,1.61,1.55l.1-.22-.1.21c.7.33,1.47.51,2.25.51,1.05,0,2.08-.18,3.05-.52l.16-.06v-1.84l.03-1.09h0c0-.12,0-.22,0-.31l.04-.51-.42.3-.08.02h-.18s-.09,0-.09,0c-.13,0-.29-.02-.5-.04l-.28-.03.02.28c.02.33.03.66.03.99v1.77h.24l-.1-.21c-.49.24-1.07.34-1.63.34-.87,0-1.63-.21-2.21-.82-.58-.61-.84-1.58-.83-2.44,0-.81.2-1.68.73-2.27l-.18-.16.18.16c.57-.63,1.35-.95,2.2-.95.86,0,1.72.36,2.28,1l.07.08h.11v-.24Z"/>
  <path class="cls-1" d="m24.37,21.61v-.61c.53-.37,1.11-.62,1.76-.62.49,0,1.01.15,1.35.51.4.41.43.8.41,1.35l-.03,1.31c0,.26-.02.52-.02.79,0,.32-.05.98.41.98l.25-.04v.24l-.08.04-.25.07c-.57.1-1.04.01-1.13-.63l-.1.1c-.46.46-.96.69-1.62.69-.78,0-1.45-.52-1.45-1.33,0-.46.23-.98.64-1.2.43-.23.9-.3,1.38-.37.32-.05.67-.09.96-.25l.16-.12c.05-.11.03-.24.03-.36,0-.81-.46-1.3-1.28-1.3-.47,0-.94.23-1.2.62l-.1.15h-.12Zm2.7,1.32l-.1.05-.33.06c-.74.15-1.86.25-1.86,1.25,0,.69.4,1.03,1.07,1.03.3,0,.67-.21.89-.4l.19-.23.09-.12.04-1.63Z"/>
  <path class="cls-1" d="m24.6,21.61v-.61h-.24l.14.19c.5-.35,1.04-.58,1.63-.58.44,0,.9.14,1.18.44.31.33.34.56.35,1.01v.17s.24,0,.24,0h-.24s-.03,1.31-.03,1.31h0c0,.25-.02.51-.02.79v.21c0,.18,0,.39.08.6.04.1.1.21.2.29.1.08.24.13.38.13h.02l.27-.05-.04-.23h-.24v.24h.24l-.1-.22-.06.03-.23.07.07.23-.04-.23c-.11.02-.22.03-.32.03-.17,0-.29-.04-.36-.1-.08-.06-.14-.16-.17-.37l-.06-.48-.44.45.17.17-.17-.17c-.43.42-.85.62-1.45.62-.68,0-1.21-.43-1.22-1.1,0-.39.21-.84.52-.99h0c.38-.21.82-.27,1.3-.35.31-.05.69-.09,1.04-.28h.01s.18-.14.18-.14l.05-.04.03-.06c.05-.12.05-.23.05-.32v-.14c0-.45-.13-.84-.4-1.12-.27-.28-.66-.42-1.12-.42-.55,0-1.09.26-1.4.73l-.1.15.2.13v-.24h-.12v.47h.12s.13,0,.13,0l.17-.26-.2-.13.2.13c.21-.32.61-.52,1.01-.52.36,0,.61.11.78.28.16.17.26.43.27.79v.14s-.01.14-.01.14l.22.09-.14-.19-.16.12.14.19-.11-.21c-.23.13-.56.17-.89.22-.47.08-.97.14-1.45.4h0c-.52.28-.77.88-.77,1.41,0,.47.2.88.52,1.15.31.27.73.42,1.17.42.71,0,1.3-.26,1.79-.76l.1-.1-.17-.17-.23.03c.04.29.16.53.35.68.19.15.42.2.66.2.13,0,.26-.01.4-.04h.01s.26-.08.26-.08h.02s.09-.05.09-.05l.14-.06v-.67l-.53.09.04.23v-.24l-.08-.02s-.06-.07-.08-.17c-.02-.1-.03-.23-.03-.34v-.21c0-.25.02-.51.02-.79h-.24.24s.03-1.32.03-1.32h0s0-.16,0-.16c0-.47-.07-.93-.48-1.34-.41-.42-.99-.59-1.52-.59-.71,0-1.35.28-1.9.67l-.1.07v.73h.47,0Zm2.46,1.32l-.1-.21-.07.03-.3.06c-.36.07-.84.13-1.26.32-.21.1-.41.23-.55.42-.15.19-.24.45-.23.74,0,.39.12.72.36.95.24.22.58.32.95.32.4,0,.79-.24,1.04-.47h.01s.21-.25.21-.25h0s.09-.14.09-.14l.04-.06.06-2.09-.35.16.1.21h-.24s-.04,1.55-.04,1.55l-.04.05-.19.22.18.15-.16-.18c-.18.17-.54.35-.73.34-.3,0-.5-.07-.62-.19-.13-.12-.21-.3-.21-.6,0-.2.05-.34.14-.45.12-.17.35-.29.64-.37.28-.09.6-.14.89-.19l.33-.06h.03s.13-.06.13-.06l-.1-.21h-.24s.24,0,.24,0Z"/>
  <path class="cls-1" d="m30.84,25.32c0,.77-.04,1.55-.66,2.12-.35.28-.81.47-1.26.45l-.08-.32h.09c.43.02.64-.25.84-.59.19-.55.21-1.14.21-1.71v-3.19c0-.54,0-1.09-.07-1.63l.11.02.26.02h.33l.29-.04-.03.24c-.04.79-.04,1.57-.04,2.35v2.28Zm-.41-6.17c-.31,0-.56-.25-.56-.56s.25-.55.56-.55.56.25.56.55-.26.56-.56.56"/>
  <path class="cls-1" d="m30.6,25.32c0,.38-.01.75-.09,1.08-.08.33-.22.61-.49.86l.16.18-.15-.19c-.3.24-.69.4-1.04.4h-.06s-.01.24-.01.24l.23-.06-.08-.32-.23.06-.02.24h.09s0,.01,0,.01h0s.03,0,.03,0c.26,0,.48-.09.64-.23.16-.14.27-.31.38-.48v-.02s.02-.03.02-.03c.2-.59.22-1.21.22-1.78v-3.19c0-.54,0-1.1-.08-1.66l-.23.03-.04.23.11.02h0s.27.03.27.03h.01s.34,0,.34,0h.02l.31-.05-.03-.23-.23-.03-.03.24h0s0,.02,0,.02c-.04.8-.04,1.58-.04,2.36v2.28h.47v-1.3s0-.98,0-.98c0-.78,0-1.55.04-2.34h-.24s.23.02.23.02l.03-.24.04-.31-.59.09h-.3l-.24-.02-.1-.02-.32-.06.04.32c.07.51.07,1.06.07,1.6v3.19c0,.57-.02,1.13-.19,1.63l.22.08-.2-.12c-.1.16-.19.29-.28.37-.09.08-.18.12-.33.12h-.02s0,.24,0,.24l.02-.24h-.09s-.33-.05-.33-.05l.16.64.04.17h.18s.08.01.08.01c.5,0,.97-.21,1.33-.5h0s0-.01,0-.01c.35-.32.54-.71.63-1.1.09-.4.1-.8.1-1.19h-.47Zm-.17-6.17v-.24c-.17,0-.32-.15-.32-.32,0-.17.15-.31.32-.32l.22.09.1.22-.1.23-.22.1v.47c.43,0,.79-.35.79-.8,0-.44-.37-.79-.79-.79-.44,0-.79.35-.8.79,0,.44.36.8.8.8v-.24Z"/>
  <path class="cls-1" d="m36.33,19.58l-.02-1.81v-.29l.1.02c.12.02.24.02.36.02.15,0,.31-.01.45-.05-.01.11-.01.22-.02.32l-.03.9-.03,6.96h-.11s-.2-.03-.2-.03c-.17,0-.33,0-.49.03l.02-1.04-.07.07c-.39.71-1,1.09-1.83,1.09-.32,0-.64-.09-.94-.22-.27-.12-.46-.32-.67-.53-.46-.48-.58-1.28-.58-1.91,0-.7.16-1.39.62-1.93.43-.52,1.07-.8,1.73-.8.76,0,1.33.4,1.71,1.06v-1.88Zm-3.01,4.55c.12.68.7,1.26,1.41,1.26,1.27,0,1.6-1.44,1.6-2.45,0-.92-.35-2.09-1.47-2.09-1.4,0-1.65,1.31-1.65,2.44,0,.29.06.56.11.84"/>
  <path class="cls-1" d="m36.56,19.57l-.02-1.81h-.24s.24,0,.24,0v-.29h-.24l-.05.23.1.02h0c.15.03.29.03.41.03.17,0,.34-.01.5-.05l-.06-.23-.24-.02c-.01.12-.01.24-.02.31h0s-.03.92-.03.92h0s-.03,6.97-.03,6.97h.24s.02-.23.02-.23h-.11s-.19-.03-.19-.03h-.01s-.01,0-.01,0c-.17,0-.35,0-.54.04l.05.23h.24s.02-1.03.02-1.03v-.66s-.48.57-.48.57l-.02.02v.02c-.38.65-.88.96-1.63.97-.27,0-.57-.08-.84-.2h0c-.22-.1-.38-.26-.6-.48l-.17.17.17-.16c-.39-.4-.52-1.14-.51-1.75,0-.66.15-1.29.57-1.78h0c.38-.46.96-.71,1.55-.71.67,0,1.15.33,1.5.94l.44.79v-2.79h-.47v1.66s0,.22,0,.22h.24l.21-.12c-.4-.71-1.06-1.18-1.91-1.18-.72,0-1.44.31-1.91.88h-.01s.01,0,.01,0c-.51.6-.68,1.35-.68,2.09,0,.66.11,1.51.64,2.07h0c.21.21.41.44.74.58h0c.32.14.68.24,1.04.24.9,0,1.61-.44,2.03-1.22l-.21-.11.18.16.07-.07-.18-.16h-.24s-.02,1.03-.02,1.03v.3s.28-.06.28-.06c.13-.03.28-.03.45-.03v-.24l-.03.24.2.02h.11s.26.04.26.04l.03-7.22.03-.89h-.24s.24.02.24.02c.01-.12.01-.23.02-.32l.03-.33-.32.08c-.11.03-.25.04-.39.04-.12,0-.23,0-.31-.02l-.05.23.05-.23-.1-.02-.29-.06v.58h0s.02,1.82.02,1.82h.47s0,0,0,0Zm-3.24,4.55l-.23.04c.14.78.8,1.45,1.64,1.45.73,0,1.23-.44,1.49-.98.27-.54.35-1.18.35-1.71,0-.49-.09-1.04-.35-1.5-.25-.46-.71-.83-1.36-.82-.78,0-1.3.4-1.56.93-.27.53-.33,1.17-.33,1.75,0,.32.06.61.11.89h0s.23-.04.23-.04l.23-.04c-.05-.28-.11-.54-.1-.8,0-.55.07-1.12.28-1.53.22-.41.52-.66,1.14-.67.47,0,.74.22.94.58.2.35.29.84.29,1.27,0,.48-.08,1.06-.3,1.5-.23.44-.53.71-1.06.72-.57,0-1.07-.49-1.18-1.06h0s-.23.04-.23.04Z"/>
  <path class="cls-1" d="m41.12,20.38c.72,0,1.41.28,1.89.83.47.52.65,1.17.65,1.86,0,.53-.13,1.03-.4,1.48-.51.86-1.36,1.23-2.34,1.23-.33,0-.82-.1-1.12-.23-.37-.16-.57-.33-.84-.62-.52-.57-.62-1.15-.62-1.89,0-1.62,1.2-2.66,2.78-2.66m1.1,4.38c.26-.37.36-.74.43-1.18.03-.19.05-.37.05-.57,0-.98-.37-2.27-1.59-2.27-1.39,0-1.79,1.3-1.79,2.46,0,1.08.44,2.22,1.69,2.22.51,0,.91-.26,1.21-.66"/>
  <path class="cls-1" d="m41.12,20.62c.66,0,1.28.26,1.71.75h0s0,0,0,0c.42.47.58,1.05.58,1.7,0,.49-.12.95-.36,1.36h0c-.47.78-1.22,1.11-2.13,1.12-.29,0-.77-.1-1.02-.21-.34-.15-.5-.28-.76-.57h0c-.47-.52-.56-1-.56-1.73,0-.75.27-1.35.72-1.76.45-.42,1.08-.66,1.82-.66v-.47c-.84,0-1.6.28-2.14.78-.55.51-.87,1.24-.87,2.11,0,.76.12,1.43.69,2.05h0c.28.31.52.51.92.68.34.15.84.25,1.21.25,1.03,0,1.98-.41,2.54-1.35h0c.28-.49.43-1.03.43-1.6,0-.73-.19-1.44-.71-2.01l-.18.16.18-.16c-.53-.61-1.29-.91-2.07-.91v.47h0Zm1.1,4.15l.19.14c.29-.41.4-.83.47-1.28l-.23-.04.23.04c.03-.2.05-.4.05-.61,0-.52-.09-1.12-.37-1.62-.27-.5-.76-.9-1.46-.89-.77,0-1.32.38-1.62.91-.31.53-.41,1.18-.41,1.78,0,.57.11,1.17.42,1.64.3.48.82.82,1.52.81.6,0,1.07-.31,1.4-.75h0s0,0,0,0l-.19-.14-.19-.14c-.28.36-.6.56-1.02.56-.55,0-.88-.23-1.12-.6-.23-.36-.34-.88-.34-1.39,0-.55.1-1.13.34-1.54.25-.41.59-.67,1.21-.68.52,0,.82.25,1.04.64.22.39.31.93.31,1.39,0,.19-.01.36-.04.53h0c-.07.43-.15.75-.39,1.08l.19.14-.19-.14.19.14Z"/>
  <path class="cls-1" d="m47.76,18.07l-1.35,1.82h-.6l-1.34-1.82h.37l1.28,1.15,1.28-1.15h.36Zm-2.94,6.56c.26.43.74.78,1.26.78s1.07-.38,1.07-.96c0-.75-.7-.86-1.27-1.04-.31-.1-.62-.19-.86-.4-.26-.24-.45-.63-.45-.99,0-1.05.8-1.61,1.78-1.61.41,0,.79.07,1.16.25l.08.03c-.11.25-.2.52-.26.78h-.1c-.14-.36-.53-.7-.93-.7-.54,0-.98.3-.98.89,0,.65.49.85,1.04.99.24.07.79.22.98.36.36.28.55.58.55,1.05,0,.68-.33,1.11-.87,1.46-.28.19-.8.26-1.14.26-.45,0-.98-.12-1.36-.35.08-.27.18-.53.23-.8h.09Z"/>
  <path class="cls-1" d="m47.57,17.93l-1.28,1.73h-.36l-1.27-1.73-.19.14v.24h.28l1.37,1.23,1.37-1.23h.27s0-.47,0-.47h-.36s-.09,0-.09,0l-1.19,1.07-1.19-1.07h-.93l1.69,2.3h.84l1.42-1.92-.38-.28h0Zm-2.75,6.7l-.2.12c.3.49.83.88,1.46.89.32,0,.64-.11.89-.32.25-.2.42-.51.42-.88,0-.45-.24-.78-.54-.94-.29-.17-.63-.24-.9-.32l-.07.23.07-.23c-.31-.1-.59-.19-.78-.36h0c-.21-.19-.38-.54-.37-.81,0-.47.17-.79.44-1.02.27-.23.66-.36,1.11-.36.38,0,.72.07,1.06.23h0s.08.04.08.04l.09-.22-.22-.1c-.12.27-.21.54-.28.82l.23.06v-.24h-.1v.24l.22-.09c-.18-.44-.61-.84-1.15-.85-.31,0-.62.09-.85.28-.23.19-.38.5-.37.85,0,.39.16.69.41.87.24.18.53.27.81.35l.06-.23-.06.23c.12.03.31.09.5.15.18.06.36.14.41.18l.14-.19-.15.19c.33.27.45.46.46.86,0,.59-.26.93-.76,1.26h0c-.2.14-.7.23-1.01.23-.41,0-.91-.12-1.24-.31l-.12.2.23.07c.08-.26.19-.53.24-.83l-.23-.04v.24h.09v-.24l-.2.12.2-.12v-.24h-.29l-.03.2c-.04.24-.13.49-.22.77l-.06.18.16.1c.44.26,1,.38,1.49.38.38,0,.9-.07,1.27-.3h0c.58-.36.99-.9.98-1.66,0-.54-.24-.94-.64-1.24h0s0,0,0,0c-.15-.1-.34-.17-.54-.24-.2-.07-.4-.12-.52-.16h0s0,0,0,0c-.26-.07-.5-.15-.64-.26-.14-.12-.22-.23-.22-.5,0-.24.08-.38.2-.49.12-.1.31-.17.54-.17.27-.01.61.27.71.55l.06.15h.45l.05-.18c.06-.25.14-.5.25-.74l.1-.22-.3-.12-.09.22.1-.21c-.41-.19-.83-.27-1.26-.27-.54,0-1.04.15-1.41.47-.38.31-.61.8-.61,1.38,0,.44.21.87.53,1.16h0c.3.27.65.36.95.46h0c.3.09.6.16.8.28.2.13.3.23.3.53,0,.21-.09.38-.25.51-.16.13-.37.21-.59.21-.4,0-.83-.29-1.05-.66l-.07-.11h-.13v.24Z"/>
  <path class="cls-1" d="m49.36,20.49c.18.03.36.03.54.03.14,0,.28,0,.42-.03-.05.86-.07,1.72-.07,2.58s.01,1.66.05,2.48v.11c-.14-.02-.3-.03-.47-.03-.15,0-.32,0-.47.03.06-.86.06-1.74.06-2.6s.01-1.66-.05-2.49v-.07Zm.43-.64h-.37l1.37-1.37c.1-.1.18-.18.27-.27.1-.06.18-.17.29-.2.17-.04.39.05.44.23v.3c-.07.12-.18.17-.29.24l-1.72,1.07Z"/>
  <path class="cls-1" d="m49.32,20.72c.2.03.4.03.58.03.14,0,.3,0,.47-.04l-.05-.23h-.24c-.05.86-.07,1.71-.07,2.58s.01,1.67.06,2.5h0s.01.12.01.12l.24-.02.03-.23c-.16-.02-.34-.04-.52-.04-.15,0-.33,0-.52.04l.05.23.24.02c.06-.87.07-1.75.07-2.62,0-.23,0-.45,0-.68,0-.61,0-1.22-.05-1.83h0s-.01-.1-.01-.1l-.47.08v.07s.25-.04.25-.04l-.24.02c.05.6.05,1.19.05,1.8,0,.23,0,.45,0,.68,0,.86,0,1.73-.06,2.59l-.02.31.31-.07c.12-.03.27-.03.42-.03.16,0,.31.01.45.03l.3.04-.04-.41-.24.02h.24c-.04-.83-.05-1.66-.05-2.48s.01-1.71.07-2.56l.02-.32-.31.07c-.1.02-.22.02-.36.02-.17,0-.35,0-.5-.03l-.08.47h0Zm.47-.88v-.24h-.37v.24l.17.17,1.37-1.37h0c.09-.09.18-.17.28-.28l-.18-.16.13.2.16-.13.05-.03h0s0,0,0,0h.03s.12.07.12.07l.23-.07h-.24s0,.29,0,.29h.24s-.21-.09-.21-.09c0,.02-.06.06-.19.14l.13.2-.13-.2-1.72,1.07.13.2v-.24.24l.13.2,1.72-1.08h0c.07-.06.25-.12.36-.34l.02-.04v-.35s.01-.04.01-.04v-.04c-.1-.27-.35-.41-.59-.41l-.14.02.06.23-.05-.23c-.24.06-.33.21-.38.23l-.03.02-.02.02c-.07.08-.16.16-.27.27l.17.16-.17-.17-1.77,1.77h1.01l.06-.04-.13-.2Z"/>
  <path class="cls-1" d="m52.21,24.49l.07-4.11-.07-2.6v-.29l.1.02c.21.03.44.02.65.01.07.02.17-.1.17.01-.01.1-.01.2-.01.31l-.06,1.91v2.63c0,.14-.01.24.08.36.23.12.81-.5.95-.64l.68-.69.85-.9h.1s.24.03.24.03c.18,0,.35,0,.52-.03v.08c-.44.36-.88.72-1.31,1.09l-.36.31-.73.68c.43.46.82.95,1.23,1.41l.5.55.5.57.33.41v.07c-.18-.03-.36-.03-.54-.03-.2,0-.38,0-.58.03-.19-.25-.37-.5-.58-.73l-.36-.4-.56-.67-.56-.62-.21-.22h-.21c-.04.13-.02.31-.02.45v1.03l.04.88v.28h-.09s-.24-.03-.24-.03c-.2,0-.39-.01-.58.03,0-.1,0-.2.01-.28l.03-.88Z"/>
  <path class="cls-1" d="m52.21,24.49h.24s.07-4.11.07-4.11l-.07-2.61h-.24s.24,0,.24,0v-.29h-.24l-.05.23.1.02h0s0,0,0,0c.12.02.25.03.36.03.12,0,.23,0,.33-.01v-.24s-.09.22-.09.22h.09s.16-.02.16-.02h.02s-.05-.15-.05-.15v.15s.05,0,.05,0l-.05-.14v.15s0-.21,0-.21l-.17.12.17.09v-.21l-.17.12.14-.1h-.18l.04.1.14-.1h-.18.24l-.24-.03c-.01.12-.01.23-.01.33h.24-.24s-.07,1.91-.07,1.91v2.73c0,.1.01.27.12.41l.03.04.05.02.18.04c.15,0,.25-.06.35-.12.3-.18.6-.52.7-.61l.68-.69h0s.85-.91.85-.91l-.17-.16-.03.23h.1s0,.01,0,.01l.25.02h0s0,0,0,0c.18,0,.36,0,.57-.04l-.04-.23h-.24v.08h.24l-.15-.18c-.43.36-.89.72-1.32,1.1l.16.18-.15-.18-.36.31h0s-.91.84-.91.84l.16.17c.42.45.81.94,1.23,1.41l.5.55.17-.16-.18.16.5.57.32.4.18-.15h-.24v.07h.24l.04-.23c-.2-.04-.4-.04-.58-.04-.2,0-.4,0-.62.04l.04.23.19-.14c-.19-.25-.38-.51-.59-.75l-.36-.4-.18.16.18-.15-.56-.67h0s-.56-.63-.56-.63h0s-.21-.22-.21-.22l-.07-.07h-.48l-.05.16c-.03.11-.04.21-.04.3v.23s0,1.03,0,1.03h0s.04.89.04.89v.28h.24l.03-.24h-.09s0-.01,0-.01l-.24-.02h-.01s-.01,0-.01,0h-.2c-.14,0-.28,0-.44.04l.05.23h.24c0-.1,0-.18.01-.25h0s.03-.91.03-.91h0s-.24,0-.24,0h-.24s-.03.88-.03.88h.24s-.23-.03-.23-.03c-.02.11-.02.22-.02.32v.3l.29-.07c.1-.02.21-.03.33-.03h.2s0-.24,0-.24l-.02.24.24.02h.08s.27.04.27.04v-.55h0s-.04-.89-.04-.89v-1.02s0-.23,0-.23l.02-.15-.22-.07v.24h.11l.13.14.55.62.55.66h0s.37.41.37.41c.2.22.38.46.56.72l.09.12.14-.02c.17-.03.34-.03.54-.03.17,0,.35,0,.49.03l.28.05v-.44l-.38-.47h0s-.51-.58-.51-.58l-.5-.55h-.01s.01,0,.01,0c-.41-.45-.8-.95-1.24-1.41l-.17.16.16.17.73-.67.36-.3h0c.42-.37.87-.73,1.3-1.09l.09-.07v-.47l-.28.05c-.15.03-.31.03-.48.03v.24l.02-.24-.23-.02h-.09s-.12-.03-.12-.03l-.94.99-.68.69.17.17-.17-.17c-.07.07-.22.23-.38.37l-.23.17-.08.04h-.02s0,0,0,0v.1l.04-.08h-.04s0,.08,0,.08l.04-.08-.11.21.19-.14s-.03-.04-.03-.13v-.09s0-2.63,0-2.63l.06-1.92h0c0-.11,0-.2.01-.28h0v-.03l-.05-.17-.21-.11c-.1,0-.13.03-.15.04h-.01s.04.12.04.12v-.12h-.04s.04.12.04.12v-.12.18l.06-.17h-.06s0,.17,0,.17l.06-.17h-.04s-.04-.01-.04-.01c-.1,0-.21.01-.31.01-.1,0-.2,0-.29-.02l-.04.23.05-.23-.1-.02-.29-.06v.59h0s.07,2.61.07,2.61l-.07,4.11h.24s-.24,0-.24,0h.24Z"/>
  <path class="cls-1" d="m61.13,21.2l-.02-.64v-.07c.14.03.29.03.43.03.16,0,.31,0,.46-.03-.03.42-.05.85-.06,1.28-.01.66-.02,1.31-.02,1.97,0,.4.02.8.02,1.19,0,.24.01.49.02.73-.18-.02-.31-.03-.43-.03-.14,0-.29,0-.42.03v-.23l.02-.64v-.11c-.38.66-1.01,1.03-1.77,1.03-.49,0-1.04-.18-1.38-.55-.39-.43-.39-1-.38-1.55l.04-1.58-.02-1.07v-.48c.2.03.34.03.47.03.15,0,.31,0,.46-.03-.03.26-.04.54-.06.8-.02.69-.05,1.38-.05,2.07,0,.34.02.86.18,1.16.23.45.64.67,1.15.67.3,0,.64-.12.86-.32.28-.24.38-.52.46-.88.06-.34.05-.66.05-1.01v-1.78Zm-2.34-2.29c.04-.71.5-1.09,1.09-1.09s1.08.5,1.08,1.09-.49,1.08-1.08,1.08-1.13-.49-1.09-1.08m1.76,0c0-.35-.31-.68-.67-.68s-.68.31-.68.68.33.67.68.67.67-.32.67-.67"/>
  <path class="cls-1" d="m61.37,21.19l-.02-.63v-.07s-.24,0-.24,0l-.05.23c.17.04.34.03.48.04.15,0,.32,0,.5-.03l-.05-.23-.24-.02c-.03.43-.06.86-.07,1.29h0c-.01.66-.02,1.31-.02,1.97,0,.4.02.81.02,1.19,0,.25.01.5.02.75h.24s.03-.25.03-.25c-.18-.02-.32-.04-.46-.04-.14,0-.3,0-.48.04l.06.23h.24v-.22l.02-.63h0v-1l-.44.77c-.35.6-.88.9-1.56.91-.44,0-.93-.16-1.2-.47h0c-.27-.29-.32-.7-.32-1.16v-.22s.04-1.58.04-1.58l-.02-1.08h-.24s.24,0,.24,0v-.48h-.24l-.04.23c.21.03.37.03.51.03.16,0,.32,0,.49-.03l-.04-.23-.24-.03c-.03.27-.05.55-.06.81h0c-.02.69-.06,1.38-.06,2.08,0,.35.01.88.2,1.27h0c.27.53.79.8,1.36.79.36,0,.74-.13,1.02-.38l-.16-.18.16.18c.33-.28.46-.64.54-1h0c.05-.28.06-.55.06-.8v-.26s0-1.78,0-1.78h-.47v1.78s0,.26,0,.26c0,.25,0,.48-.05.7l.23.04-.23-.05c-.07.34-.16.55-.38.75h0s0,0,0,0c-.16.15-.47.26-.7.26-.44,0-.74-.17-.94-.54l-.02-.04.02.04c-.12-.21-.15-.73-.15-1.05,0-.69.03-1.37.05-2.06h-.24s.24,0,.24,0c.01-.26.02-.53.05-.78l.04-.31-.31.05c-.14.02-.28.03-.42.03-.13,0-.25,0-.44-.03l-.27-.04v.75h0s.02,1.08.02,1.08l-.04,1.57v.23c0,.49.04,1.04.45,1.48h0c.4.44,1.01.62,1.55.63.84,0,1.56-.42,1.98-1.15l-.21-.12h-.24v.11l-.02.63h0v.54l.29-.07c.1-.03.23-.03.37-.03.1,0,.22.01.4.03l.28.03-.02-.28c-.01-.24-.02-.49-.02-.72,0-.4-.02-.81-.02-1.19,0-.65,0-1.3.02-1.96h0c.01-.42.03-.85.06-1.27l.02-.31-.3.06c-.13.02-.26.03-.41.03-.14,0-.28,0-.39-.02l-.29-.06v.37h0s.02.64.02.64h.47s0-.01,0-.01Zm-2.34-2.26c.02-.31.12-.52.27-.66.15-.14.34-.21.59-.21.23,0,.44.1.59.25.16.16.25.37.25.6,0,.46-.39.85-.85.85-.22,0-.44-.09-.6-.24-.16-.15-.26-.34-.26-.55v-.04s-.47-.04-.47-.04v.07c0,.72.63,1.26,1.33,1.27.72,0,1.32-.59,1.32-1.32,0-.72-.59-1.33-1.32-1.33-.35,0-.67.11-.92.35-.24.23-.39.57-.41.97l.47.03h0Zm1.52-.01h.24c0-.49-.4-.91-.9-.92-.5,0-.91.41-.92.92,0,.51.43.9.92.9.49,0,.89-.41.9-.9h-.47c0,.1-.05.21-.13.3-.08.08-.2.13-.3.13-.11,0-.22-.05-.31-.13-.09-.08-.14-.19-.14-.3,0-.11.05-.22.13-.31.08-.08.2-.13.31-.13.11,0,.21.05.3.14.08.09.13.2.13.31h.24Z"/>
  <path class="cls-1" d="m64.17,20.77c.05.38-.02.66-.36.66s-.41-.21-.37-.66v-1.85c-.04-.58.03-.88.37-.88s.41.3.36.88v1.85Zm1.78,0c.04.38-.02.66-.36.66s-.42-.21-.37-.66v-1.85c-.04-.58.03-.88.37-.88s.4.3.36.88v1.85Z"/>
  <path class="cls-1" d="m63.93,20.8v.17c.01.11-.01.18-.03.2-.01.01,0,.02-.1.03-.11,0-.11-.02-.11-.02,0,0-.03-.06-.03-.19v-.18s.01-.01.01-.01v-1.87h0c0-.1-.01-.19-.01-.26,0-.18.03-.3.05-.34l.09-.04.09.03s.05.15.05.32c0,.08,0,.17-.01.27h0v1.86h.47v-1.85h-.24l.24.02c0-.11.01-.21.01-.3,0-.21-.02-.4-.11-.56-.09-.17-.3-.28-.49-.27-.2,0-.41.1-.5.27-.1.17-.12.36-.12.58,0,.09,0,.18.01.28l.24-.02h-.24v1.85h.24l-.24-.02v.23c-.01.18.01.34.13.49.12.15.31.2.48.2.19,0,.38-.08.48-.22.1-.15.13-.31.13-.47v-.22s-.48.06-.48.06h0Zm2.02-.03l-.24.03v.17c.01.11-.01.18-.03.2l-.1.03c-.11,0-.11-.02-.11-.02,0,0-.03-.06-.03-.19v-.18s.01-.01.01-.01v-1.87h0c0-.1-.01-.18-.01-.25,0-.18.03-.3.05-.34l.09-.04.09.03s.05.15.05.33c0,.08,0,.16-.01.26h0v1.88h0s.24-.01.24-.01h.24v-1.85h-.24l.24.02c0-.11.01-.2.01-.3,0-.22-.02-.4-.11-.57-.09-.17-.3-.28-.5-.27-.2,0-.41.1-.5.27-.1.17-.12.36-.12.58,0,.09,0,.18.01.28l.24-.02h-.24v1.85h.24l-.24-.02v.23c-.01.18.01.35.13.49.12.15.31.2.48.2.19,0,.38-.08.48-.23.1-.15.13-.31.13-.47v-.22s-.25.03-.25.03h.24-.24Z"/>
</svg>