<?xml version="1.0" encoding="UTF-8"?>
<svg id="Vrstva_1" data-name="Vrstva 1" xmlns="http://www.w3.org/2000/svg" viewBox="0 0 73.75 26.1">
  <defs>
    <style>
      .cls-1 {
        stroke-width: 0px;
      }
    </style>
  </defs>
  <polygon class="cls-1" points="20.66 .56 20.66 7.15 19.79 7.15 19.79 4.18 16.59 4.18 16.59 7.15 15.72 7.15 15.72 .56 16.59 .56 16.59 3.35 19.79 3.35 19.79 .56 20.66 .56"/>
  <path class="cls-1" d="m21.72,4.79c0-1.39,1.1-2.48,2.48-2.48s2.48,1.08,2.48,2.48-1.11,2.48-2.48,2.48-2.48-1.08-2.48-2.48m4.14,0c0-.95-.73-1.68-1.67-1.68s-1.66.73-1.66,1.68.72,1.68,1.66,1.68,1.67-.73,1.67-1.68"/>
  <path class="cls-1" d="m30.89,5.86c0,.88-.75,1.41-1.76,1.41-.94,0-1.6-.45-1.87-1.1l.71-.4c.15.45.58.74,1.17.74.5,0,.93-.18.93-.64,0-1.01-2.64-.43-2.64-2.14,0-.83.72-1.4,1.67-1.4.77,0,1.39.37,1.7.98l-.69.39c-.18-.42-.59-.6-1.01-.6s-.84.21-.84.63c0,1.01,2.64.41,2.64,2.15"/>
  <path class="cls-1" d="m36.84,4.79c0,1.39-1.07,2.48-2.38,2.48-.8,0-1.4-.36-1.78-.93v2.69h-.82V2.44h.82v.81c.38-.57.98-.93,1.78-.93,1.31,0,2.38,1.08,2.38,2.48m-.82,0c0-.96-.73-1.69-1.67-1.69s-1.68.72-1.68,1.69.73,1.69,1.68,1.69,1.67-.73,1.67-1.69"/>
  <path class="cls-1" d="m41.89,2.44v4.71h-.82v-.68c-.35.56-.87.8-1.52.8-1.1,0-1.83-.74-1.83-1.94v-2.89h.82v2.84c0,.77.44,1.21,1.17,1.21s1.37-.44,1.37-1.55v-2.5h.82Zm-3.16-1.44c0-.56.43-1,1.06-1s1.07.43,1.07,1-.42,1.01-1.07,1.01-1.06-.43-1.06-1.01m.62,0c0,.24.16.43.44.43.3,0,.45-.19.45-.43s-.15-.42-.45-.42c-.28,0-.44.19-.44.42"/>
  <path class="cls-1" d="m47.85.56v6.59h-.82v-.81c-.38.57-.98.93-1.78.93-1.31,0-2.38-1.08-2.38-2.48s1.07-2.48,2.38-2.48c.8,0,1.4.36,1.78.93V.56h.82Zm-.82,4.24c0-.96-.73-1.69-1.68-1.69s-1.67.72-1.67,1.69.72,1.69,1.67,1.69,1.68-.73,1.68-1.69"/>
  <polygon class="cls-1" points="52.06 7.15 49.91 4.91 49.91 7.15 49.09 7.15 49.09 .56 49.91 .56 49.91 4.52 51.94 2.44 53 2.44 50.75 4.72 53.07 7.15 52.06 7.15"/>
  <path class="cls-1" d="m58.12,2.44v4.71h-.82v-.81c-.38.57-.98.93-1.78.93-1.31,0-2.38-1.08-2.38-2.48s1.07-2.48,2.38-2.48c.8,0,1.4.36,1.78.93v-.81h.82Zm-.82,2.35c0-.96-.73-1.69-1.68-1.69s-1.67.72-1.67,1.69.72,1.69,1.67,1.69,1.68-.73,1.68-1.69"/>
  <path class="cls-1" d="m.71,17.88h-.71l.38-2.29h.94l-.61,2.29Zm1.46,0h-.71l.38-2.29h.94l-.61,2.29Z"/>
  <polygon class="cls-1" points="8.99 9.97 8.99 16.56 8.28 16.56 4.9 11.64 4.9 16.56 4.02 16.56 4.02 9.97 4.73 9.97 8.12 14.88 8.12 9.97 8.99 9.97"/>
  <path class="cls-1" d="m15.03,11.85v4.71h-.82v-.81c-.38.57-.98.93-1.78.93-1.31,0-2.38-1.08-2.38-2.48s1.07-2.48,2.38-2.48c.8,0,1.4.36,1.78.93v-.81h.82Zm-.82,2.35c0-.96-.73-1.69-1.68-1.69s-1.67.73-1.67,1.69.73,1.69,1.67,1.69,1.68-.73,1.68-1.69"/>
  <path class="cls-1" d="m22.8,13.67v2.89h-.82v-2.84c0-.77-.44-1.21-1.17-1.21s-1.37.44-1.37,1.55v2.49h-.82v-6.59h.82v2.56c.35-.55.87-.8,1.53-.8,1.1,0,1.83.73,1.83,1.94"/>
  <path class="cls-1" d="m26.23,11.77v.86c-.71-.03-1.47.33-1.47,1.44v2.49h-.82v-4.71h.82v.79c.3-.66.88-.88,1.47-.88"/>
  <path class="cls-1" d="m31.49,11.85v4.71h-.82v-.81c-.38.57-.98.93-1.78.93-1.31,0-2.38-1.08-2.38-2.48s1.07-2.48,2.38-2.48c.8,0,1.4.36,1.78.93v-.81h.82Zm-.82,2.35c0-.96-.73-1.69-1.68-1.69s-1.67.73-1.67,1.69.73,1.69,1.67,1.69,1.68-.73,1.68-1.69"/>
  <path class="cls-1" d="m37.45,9.97v6.59h-.82v-.81c-.38.57-.98.93-1.78.93-1.31,0-2.38-1.08-2.38-2.48s1.07-2.48,2.38-2.48c.8,0,1.4.36,1.78.93v-2.69h.82Zm-.82,4.24c0-.96-.73-1.69-1.68-1.69s-1.67.73-1.67,1.69.73,1.69,1.67,1.69,1.68-.73,1.68-1.69"/>
  <path class="cls-1" d="m40.97,15.91c.65,0,1.12-.3,1.36-.69l.7.4c-.42.64-1.13,1.06-2.07,1.06-1.52,0-2.52-1.06-2.52-2.48s1-2.48,2.47-2.48,2.34,1.17,2.34,2.49c0,.12,0,.24-.03.37h-3.95c.16.85.83,1.33,1.7,1.33m-1.7-2.04h3.14c-.14-.93-.81-1.37-1.51-1.37-.89,0-1.5.55-1.63,1.37m.11-3.91h.88l.57.76.57-.76h.88l-1,1.27h-.9l-1-1.27Z"/>
  <polygon class="cls-1" points="50.34 15.73 50.34 16.56 46.62 16.56 46.62 9.97 47.5 9.97 47.5 15.73 50.34 15.73"/>
  <path class="cls-1" d="m55.15,11.85v4.71h-.82v-.68c-.35.56-.87.8-1.53.8-1.1,0-1.83-.73-1.83-1.94v-2.89h.82v2.84c0,.77.44,1.21,1.17,1.21s1.37-.44,1.37-1.55v-2.49h.82Z"/>
  <polygon class="cls-1" points="59.36 16.56 57.21 14.33 57.21 16.56 56.39 16.56 56.39 9.97 57.21 9.97 57.21 13.93 59.25 11.85 60.3 11.85 58.05 14.13 60.38 16.56 59.36 16.56"/>
  <path class="cls-1" d="m60.44,14.21c0-1.39,1.1-2.48,2.48-2.48s2.48,1.08,2.48,2.48-1.11,2.48-2.48,2.48-2.48-1.08-2.48-2.48m4.14,0c0-.95-.73-1.68-1.67-1.68s-1.66.73-1.66,1.68.72,1.68,1.66,1.68,1.67-.73,1.67-1.68"/>
  <polygon class="cls-1" points="70.36 11.85 68.48 16.56 67.52 16.56 65.64 11.85 66.52 11.85 68 15.68 69.48 11.85 70.36 11.85"/>
  <path class="cls-1" d="m71.59,9.97h.71l-.38,2.29h-.94l.61-2.29Zm1.46,0h.71l-.38,2.29h-.94l.61-2.29Z"/>
  <polygon class="cls-1" points="19.68 25.15 19.68 25.97 15.96 25.97 15.96 19.38 16.83 19.38 16.83 25.15 19.68 25.15"/>
  <path class="cls-1" d="m24.49,21.27v4.71h-.82v-.68c-.35.56-.87.8-1.53.8-1.1,0-1.83-.73-1.83-1.94v-2.89h.82v2.84c0,.77.44,1.21,1.17,1.21s1.37-.44,1.37-1.55v-2.49h.82Z"/>
  <polygon class="cls-1" points="28.7 25.97 26.55 23.74 26.55 25.97 25.73 25.97 25.73 19.38 26.55 19.38 26.55 23.35 28.58 21.27 29.64 21.27 27.39 23.55 29.71 25.97 28.7 25.97"/>
  <path class="cls-1" d="m34.76,21.27v4.71h-.82v-.81c-.38.57-.98.93-1.78.93-1.31,0-2.38-1.08-2.38-2.48s1.07-2.48,2.38-2.48c.8,0,1.4.36,1.78.93v-.81h.82Zm-.82,2.35c0-.96-.73-1.68-1.68-1.68s-1.67.73-1.67,1.68.73,1.69,1.67,1.69,1.68-.73,1.68-1.69m-1.41-2.99h-.79l.75-1.24h.99l-.95,1.24Z"/>
  <path class="cls-1" d="m39.34,24.68c0,.88-.75,1.41-1.76,1.41-.94,0-1.6-.45-1.87-1.1l.71-.4c.15.45.58.74,1.17.74.5,0,.93-.18.93-.64,0-1.01-2.64-.43-2.64-2.14,0-.83.72-1.4,1.67-1.4.77,0,1.39.37,1.7.98l-.69.39c-.18-.42-.59-.6-1.01-.6s-.84.21-.84.63c0,1.01,2.64.41,2.64,2.15m-3.26-5.33h.88l.57.76.57-.76h.88l-1,1.27h-.9l-1-1.27Z"/>
  <polygon class="cls-1" points="48.91 25.97 48.04 25.97 48.04 20.83 45.89 24.41 45.77 24.41 43.62 20.83 43.62 25.97 42.74 25.97 42.74 19.38 43.73 19.38 45.83 22.87 47.92 19.38 48.91 19.38 48.91 25.97"/>
  <path class="cls-1" d="m50.1,19.86c0-.3.24-.56.55-.56s.55.25.55.56-.25.55-.55.55-.55-.24-.55-.55m.14,1.4h.82v4.71h-.82v-4.71Z"/>
  <polygon class="cls-1" points="55.27 25.97 53.13 23.74 53.13 25.97 52.31 25.97 52.31 19.38 53.13 19.38 53.13 23.35 55.16 21.27 56.21 21.27 53.96 23.55 56.29 25.97 55.27 25.97"/>
  <rect class="cls-1" x="57.05" y="19.1" width=".82" height="6.87"/>
</svg>