<?xml version="1.0" encoding="UTF-8"?>
<svg id="Vrstva_1" data-name="Vrstva 1" xmlns="http://www.w3.org/2000/svg" viewBox="0 0 86.58 26.39">
  <defs>
    <style>
      .cls-1 {
        stroke-width: 0px;
      }
    </style>
  </defs>
  <path class="cls-1" d="m4.83,5.83c0-1.8,1.42-3.19,3.2-3.19s3.21,1.4,3.21,3.19-1.43,3.19-3.21,3.19-3.2-1.4-3.2-3.19m5.34,0c0-1.23-.94-2.16-2.15-2.16s-2.14.93-2.14,2.16.93,2.16,2.14,2.16,2.15-.93,2.15-2.16"/>
  <path class="cls-1" d="m18.91,5.83c0,1.8-1.38,3.19-3.07,3.19-1.03,0-1.81-.46-2.29-1.2v3.47h-1.06V2.79h1.06v1.04c.49-.74,1.26-1.2,2.29-1.2,1.69,0,3.07,1.4,3.07,3.19m-1.06,0c0-1.24-.94-2.17-2.15-2.17s-2.16.94-2.16,2.17.93,2.17,2.16,2.17,2.15-.94,2.15-2.17"/>
  <path class="cls-1" d="m21.73,3.81v3.29c0,.92.53.86,1.61.81v.95c-1.82.24-2.67-.24-2.67-1.76v-3.29h-1.2v-1.02h1.2v-1.38l1.06-.32v1.7h1.61v1.02h-1.61Z"/>
  <path class="cls-1" d="m24.42.98c0-.39.32-.72.72-.72s.7.33.7.72-.32.7-.7.7-.72-.32-.72-.7m.18,1.81h1.06v6.07h-1.06V2.79Z"/>
  <path class="cls-1" d="m36.11,5.09v3.78h-1.06v-3.74c0-.96-.53-1.48-1.34-1.48-.85,0-1.49.53-1.49,1.85v3.38h-1.06v-3.74c0-.96-.5-1.48-1.29-1.48s-1.55.53-1.55,1.85v3.38h-1.06V2.79h1.06v.82c.44-.68,1.07-.97,1.81-.97.83,0,1.43.38,1.79,1.03.42-.69,1.12-1.03,1.91-1.03,1.35,0,2.28.93,2.28,2.45"/>
  <path class="cls-1" d="m43.67,2.79v6.07h-1.06v-1.04c-.49.74-1.26,1.2-2.3,1.2-1.69,0-3.07-1.4-3.07-3.19s1.39-3.19,3.07-3.19c1.03,0,1.81.46,2.3,1.2v-1.04h1.06Zm-1.06,3.04c0-1.24-.94-2.17-2.16-2.17s-2.15.94-2.15,2.17.93,2.17,2.15,2.17,2.16-.94,2.16-2.17"/>
  <rect class="cls-1" x="45.28" width="1.06" height="8.87"/>
  <path class="cls-1" d="m50.89,8.03c.84,0,1.45-.39,1.75-.89l.9.51c-.53.83-1.46,1.37-2.67,1.37-1.96,0-3.26-1.37-3.26-3.19s1.29-3.19,3.18-3.19,3.02,1.51,3.02,3.21c0,.16-.01.32-.04.47h-5.09c.21,1.09,1.07,1.71,2.2,1.71m-2.2-2.64h4.06c-.18-1.2-1.04-1.76-1.96-1.76-1.14,0-1.93.71-2.1,1.76"/>
  <path class="cls-1" d="m60.41,5.14v3.73h-1.06v-3.67c0-1-.57-1.55-1.51-1.55s-1.76.57-1.76,2v3.22h-1.06V2.79h1.06v.88c.45-.72,1.12-1.03,1.97-1.03,1.42,0,2.36.95,2.36,2.5"/>
  <path class="cls-1" d="m64.82,8.03c.84,0,1.45-.39,1.75-.89l.9.51c-.53.83-1.46,1.37-2.67,1.37-1.96,0-3.26-1.37-3.26-3.19s1.29-3.19,3.18-3.19,3.02,1.51,3.02,3.21c0,.16-.01.32-.04.47h-5.09c.21,1.09,1.07,1.71,2.2,1.71m-2.2-2.64h4.06c-.18-1.2-1.04-1.76-1.96-1.76-1.14,0-1.93.71-2.1,1.76"/>
  <path class="cls-1" d="m71.92,2.68v1.11c-.91-.04-1.9.43-1.9,1.86v3.22h-1.06V2.79h1.06v1.02c.39-.85,1.13-1.13,1.9-1.13"/>
  <path class="cls-1" d="m78.71,2.79v5.82c0,1.9-1.52,2.84-3.1,2.84-1.36,0-2.38-.52-2.88-1.48l.92-.52c.28.57.79,1.02,1.98,1.02,1.26,0,2.03-.72,2.03-1.86v-.86c-.49.74-1.26,1.21-2.28,1.21-1.73,0-3.1-1.4-3.1-3.17s1.37-3.16,3.1-3.16c1.02,0,1.8.46,2.28,1.2v-1.05h1.04Zm-1.04,3c0-1.21-.94-2.15-2.16-2.15s-2.16.93-2.16,2.15.93,2.16,2.16,2.16,2.16-.93,2.16-2.16"/>
  <path class="cls-1" d="m85.68,2.79l-2.48,6.45c-.51,1.36-1.46,2.14-2.7,2.05v-.98c.81.06,1.32-.44,1.64-1.24l.11-.23-2.65-6.05h1.13l2.07,4.76,1.75-4.76h1.13Z"/>
  <path class="cls-1" d="m0,24.87l.96-.56c.27.68.87.97,1.7.97,1.04,0,1.74-.49,1.74-1.54v-6.01h1.12v6.01c0,1.77-1.3,2.65-2.85,2.65-1.2,0-2.21-.51-2.66-1.52"/>
  <path class="cls-1" d="m13.14,20.16v6.07h-1.06v-1.04c-.49.74-1.26,1.2-2.3,1.2-1.69,0-3.07-1.4-3.07-3.19s1.39-3.19,3.07-3.19c1.03,0,1.81.46,2.3,1.2v-1.04h1.06Zm-1.06,3.04c0-1.24-.94-2.17-2.16-2.17s-2.15.94-2.15,2.17.94,2.17,2.15,2.17,2.16-.94,2.16-2.17"/>
  <path class="cls-1" d="m17.7,20.05v1.11c-.91-.04-1.9.43-1.9,1.86v3.22h-1.06v-6.07h1.06v1.02c.39-.85,1.13-1.13,1.9-1.13"/>
  <path class="cls-1" d="m18.06,23.19c0-1.8,1.42-3.19,3.2-3.19s3.21,1.4,3.21,3.19-1.43,3.19-3.21,3.19-3.2-1.4-3.2-3.19m5.35,0c0-1.23-.94-2.16-2.15-2.16s-2.14.93-2.14,2.16.93,2.16,2.14,2.16,2.15-.93,2.15-2.16"/>
  <path class="cls-1" d="m29.9,24.56c0,1.13-.97,1.82-2.27,1.82-1.21,0-2.07-.58-2.42-1.42l.91-.52c.19.58.75.95,1.51.95.64,0,1.2-.23,1.2-.83,0-1.3-3.4-.56-3.4-2.76,0-1.07.92-1.81,2.15-1.81,1,0,1.8.47,2.19,1.26l-.89.5c-.23-.55-.76-.78-1.3-.78s-1.08.27-1.08.81c0,1.3,3.4.54,3.4,2.77"/>
  <rect class="cls-1" x="31.09" y="17.36" width="1.06" height="8.87"/>
  <path class="cls-1" d="m39.85,20.16v6.07h-1.06v-1.04c-.49.74-1.26,1.2-2.3,1.2-1.69,0-3.07-1.4-3.07-3.19s1.39-3.19,3.07-3.19c1.03,0,1.81.46,2.3,1.2v-1.04h1.06Zm-1.06,3.04c0-1.24-.94-2.17-2.16-2.17s-2.15.94-2.15,2.17.93,2.17,2.15,2.17,2.16-.94,2.16-2.17"/>
  <polygon class="cls-1" points="46.84 20.15 44.41 26.23 43.17 26.23 40.74 20.15 41.89 20.15 43.79 25.1 45.7 20.15 46.84 20.15"/>
  <path class="cls-1" d="m57.02,23.82c0,1.36-1.09,2.4-2.47,2.4h-3.67v-8.5h3.4c1.32,0,2.38,1.01,2.38,2.32,0,.76-.37,1.39-.92,1.77.76.36,1.28,1.08,1.28,2m-5.01-5.04v2.6h2.27c.71,0,1.26-.57,1.26-1.3s-.56-1.3-1.26-1.3h-2.27Zm3.89,5c0-.76-.6-1.37-1.35-1.37h-2.54v2.76h2.54c.75,0,1.35-.61,1.35-1.39"/>
  <path class="cls-1" d="m64.37,20.15v6.07h-1.06v-1.04c-.49.74-1.26,1.2-2.3,1.2-1.69,0-3.07-1.4-3.07-3.2s1.38-3.19,3.07-3.19c1.03,0,1.81.46,2.3,1.2v-1.04h1.06Zm-1.06,3.04c0-1.24-.93-2.18-2.16-2.18s-2.15.94-2.15,2.18.93,2.17,2.15,2.17,2.16-.93,2.16-2.17m-1.82-3.86h-1.02l.97-1.6h1.28l-1.23,1.6Z"/>
  <path class="cls-1" d="m68.93,20.05v1.11c-.91-.04-1.9.43-1.9,1.86v3.22h-1.06v-6.07h1.06v1.02c.39-.85,1.13-1.13,1.9-1.13"/>
  <path class="cls-1" d="m71.8,21.18v3.29c0,.92.53.86,1.61.81v.95c-1.82.24-2.67-.24-2.67-1.76v-3.29h-1.2v-1.02h1.2v-1.38l1.06-.32v1.7h1.61v1.02h-1.61Z"/>
  <path class="cls-1" d="m77.3,25.39c.84,0,1.45-.39,1.75-.89l.9.51c-.53.83-1.46,1.37-2.67,1.37-1.96,0-3.26-1.37-3.26-3.19s1.29-3.19,3.18-3.19,3.02,1.51,3.02,3.21c0,.16-.01.32-.04.47h-5.09c.21,1.09,1.07,1.71,2.2,1.71m-2.2-2.64h4.06c-.18-1.2-1.04-1.76-1.96-1.76-1.14,0-1.93.71-2.1,1.76"/>
  <polygon class="cls-1" points="85.27 26.23 82.5 23.35 82.5 26.23 81.44 26.23 81.44 17.73 82.5 17.73 82.5 22.84 85.12 20.16 86.48 20.16 83.58 23.09 86.58 26.23 85.27 26.23"/>
</svg>