<?xml version="1.0" encoding="UTF-8"?>
<svg id="Vrstva_1" data-name="Vrstva 1" xmlns="http://www.w3.org/2000/svg" viewBox="0 0 64.4 40.52">
  <defs>
    <style>
      .cls-1, .cls-2 {
        fill-rule: evenodd;
      }

      .cls-1, .cls-2, .cls-3 {
        stroke-width: 0px;
      }

      .cls-1, .cls-3 {
        fill: #312783;
      }

      .cls-2 {
        fill: #e30613;
      }
    </style>
  </defs>
  <path class="cls-2" d="m48.34,20.58c6.72.15,12.98-6.85,9.25-13.43C52.93.57,43.37.95,36.28,2.12c-9.56,1.92-19.79,6.75-25.99,14.51h7.86v1.46H7.4C15.47,7,28.59.74,42.18,0c7.17-.11,16.42,1.59,18.09,9.87.67,7.2-4.86,11.97-11.75,12.22H3.88l2.3,2.7-6.18-3.3,6.14-3.33-2.22,2.47,44.42-.05Z"/>
  <path class="cls-1" d="m9.13,28.77h.04c.4.01.69.02.89.02.87,0,1.51-.18,1.94-.54.42-.36.64-.91.64-1.64,0-.7-.25-1.25-.74-1.67-.49-.42-1.16-.63-2-.64l-.76,4.47Zm-.43-5.04c.05-.26.13-.44.24-.53.12-.09.42-.14.9-.14,1.24,0,2.24.33,3,.99.76.66,1.14,1.52,1.14,2.58,0,.67-.14,1.25-.43,1.75s-.7.91-1.26,1.23c-.25.15-.6.26-1.04.33-.44.07-.98.11-1.61.11h-1.19c-.26,0-.45-.04-.56-.11-.11-.07-.17-.18-.17-.34,0-.05,0-.1,0-.15,0-.05.01-.12.02-.19l.93-5.53Zm7.31,3.33c0,.58.14,1.05.43,1.39.29.34.67.51,1.16.51.28,0,.56-.06.82-.18.26-.12.5-.29.7-.5.25-.27.45-.61.61-1.01.15-.4.23-.81.23-1.22,0-.56-.15-1.01-.44-1.34-.29-.33-.69-.5-1.18-.5-.31,0-.6.07-.87.2-.27.13-.52.33-.74.59-.22.26-.4.57-.53.94-.13.37-.2.74-.2,1.11m-1.4.02c0-.53.1-1.06.31-1.58.21-.52.49-.96.86-1.33.38-.38.78-.67,1.22-.86.44-.19.9-.29,1.4-.29.89,0,1.61.28,2.15.83.54.56.81,1.3.81,2.23,0,.53-.11,1.06-.32,1.58-.21.53-.5.97-.85,1.32-.37.38-.78.67-1.23.86-.45.19-.92.29-1.41.29-.88,0-1.59-.28-2.13-.84-.54-.56-.81-1.3-.81-2.22m9.05-.95c.81-.24,1.43-.49,1.85-.75.42-.26.64-.51.64-.75,0-.12-.04-.2-.11-.25-.07-.05-.21-.07-.4-.07h-1.68l-.31,1.82Zm-.53,3.19c-.04.26-.12.45-.24.57-.12.12-.28.18-.49.18-.19,0-.34-.05-.44-.14-.1-.09-.15-.24-.15-.42,0-.04,0-.09.02-.16,0-.01,0-.02,0-.02l.89-5.31c.05-.32.15-.56.29-.69.14-.13.36-.2.66-.2h2.06c.62,0,1.06.11,1.35.31.28.21.42.53.42.98,0,.64-.33,1.2-.98,1.68-.66.48-1.68.91-3.06,1.28l-.33,1.95Zm6.61-5.02l-.15.88c.34.01.66.04.94.1.29.06.55.14.79.24.29-.17.49-.32.6-.45.11-.13.17-.27.17-.42,0-.13-.05-.22-.14-.27-.09-.05-.25-.08-.47-.08h-1.75Zm-.34,2.01l-.5,3.01c-.04.26-.12.45-.24.57-.12.12-.28.18-.49.18-.19,0-.34-.05-.44-.14-.1-.09-.15-.24-.15-.42,0-.04,0-.09.01-.16,0-.01,0-.02,0-.02l.89-5.31c.06-.32.15-.56.3-.69.14-.13.36-.2.66-.2h2.06c.72,0,1.24.1,1.56.31.31.2.47.53.47.98,0,.35-.1.66-.31.94-.21.28-.53.55-.98.81.31.28.53.62.69,1.02.15.4.23.88.23,1.41s-.07.91-.2,1.15c-.13.25-.34.37-.63.37-.2,0-.35-.05-.45-.15-.1-.1-.15-.26-.15-.47,0-.06,0-.19.02-.37.01-.19.02-.34.02-.46,0-.74-.21-1.32-.62-1.73-.41-.4-.99-.61-1.73-.61h-.03Zm7.16-.2c.46.01.86.08,1.2.19.34.12.63.29.87.52-.1-.49-.22-.93-.36-1.35-.14-.41-.3-.8-.48-1.15-.23.24-.46.5-.66.81-.21.3-.4.63-.58.98m-.5,1.01c-.16.3-.31.61-.44.93-.13.32-.24.64-.33.98l-.02.05c-.18.67-.45,1.01-.8,1.01-.19,0-.33-.05-.43-.16-.1-.1-.15-.26-.15-.45,0-.35.15-.92.46-1.71.31-.79.71-1.6,1.2-2.43.51-.85.93-1.44,1.28-1.78.35-.34.7-.52,1.04-.52.25,0,.46.07.63.22.18.15.35.4.52.76.35.74.62,1.52.81,2.33.19.81.28,1.6.28,2.34,0,.55-.05.92-.16,1.11-.11.19-.29.28-.56.28-.11,0-.21-.02-.3-.07-.09-.05-.15-.12-.2-.2-.04-.08-.06-.26-.07-.54,0-.28-.04-.5-.1-.65-.19-.48-.5-.85-.93-1.11-.43-.26-.95-.38-1.56-.38h-.18Zm7.14,1.54c.4-.48.75-1.02,1.07-1.6.31-.59.62-1.29.92-2.11.06-.16.13-.37.22-.64.27-.81.58-1.21.94-1.21.17,0,.31.05.42.15.11.1.16.23.16.39,0,.38-.14.94-.44,1.7-.3.76-.68,1.55-1.17,2.38-.48.81-.91,1.42-1.31,1.82-.39.4-.75.6-1.08.6-.18,0-.35-.08-.5-.24-.15-.16-.31-.43-.48-.8-.3-.68-.53-1.38-.68-2.12-.15-.74-.23-1.5-.23-2.29,0-.62.06-1.04.18-1.26.11-.23.32-.34.61-.34.2,0,.34.06.44.19.1.13.15.32.15.59,0,.07,0,.24-.02.51-.02.27-.03.51-.03.72,0,.67.07,1.31.21,1.92.14.61.34,1.17.61,1.66m5.9-2.55c.46.01.86.08,1.2.19.34.12.63.29.87.52-.1-.49-.22-.93-.36-1.35-.14-.41-.3-.8-.48-1.15-.23.24-.45.5-.67.81-.21.3-.4.63-.57.98m-.5,1.01c-.16.3-.31.61-.44.93-.13.32-.24.64-.33.98l-.02.05c-.18.67-.45,1.01-.8,1.01-.19,0-.33-.05-.43-.16-.1-.1-.15-.26-.15-.45,0-.35.15-.92.46-1.71.31-.79.71-1.6,1.2-2.43.5-.85.93-1.44,1.28-1.78.35-.34.7-.52,1.04-.52.24,0,.45.07.63.22.18.15.35.4.52.76.35.74.62,1.52.81,2.33.19.81.29,1.6.29,2.34,0,.55-.05.92-.16,1.11-.1.19-.29.28-.56.28-.11,0-.21-.02-.3-.07-.09-.05-.16-.12-.2-.2-.04-.08-.06-.26-.07-.54,0-.28-.04-.5-.1-.65-.19-.48-.5-.85-.93-1.11-.43-.26-.95-.38-1.56-.38h-.18Z"/>
  <path class="cls-1" d="m44.9,14.64c0,.99.24,1.78.73,2.36.49.58,1.15.87,1.97.87.48,0,.95-.1,1.39-.31.45-.2.85-.49,1.2-.86.43-.46.77-1.03,1.03-1.71.26-.68.38-1.37.38-2.07,0-.96-.25-1.71-.75-2.27-.5-.56-1.16-.84-2.01-.84-.52,0-1.01.11-1.47.34-.46.22-.88.56-1.25,1.01-.37.43-.67.97-.89,1.6-.22.63-.34,1.26-.34,1.89m-2.38.03c0-.9.18-1.79.53-2.67.35-.88.84-1.63,1.45-2.25.64-.65,1.34-1.14,2.08-1.47.74-.32,1.54-.49,2.37-.49,1.52,0,2.73.47,3.64,1.42.91.95,1.36,2.21,1.36,3.78,0,.9-.18,1.79-.54,2.69-.36.9-.84,1.64-1.44,2.24-.64.64-1.33,1.13-2.09,1.46-.76.33-1.56.49-2.4.49-1.5,0-2.7-.47-3.61-1.42-.91-.95-1.37-2.21-1.37-3.78"/>
  <path class="cls-2" d="m45.86,14.24c-.08.79.02,1.43.31,1.92.29.49.73.77,1.3.83.33.04.66-.01.99-.14.33-.13.63-.33.9-.59.33-.34.62-.76.85-1.28.23-.52.38-1.06.44-1.61.08-.76-.04-1.38-.34-1.85-.3-.48-.74-.75-1.32-.81-.37-.04-.72.02-1.05.16-.34.14-.65.38-.95.71-.3.32-.55.72-.75,1.21-.21.49-.34.98-.39,1.47"/>
  <path class="cls-1" d="m52.9,6.99c.05-.08.11-.13.18-.16.07-.02.14-.01.2.03.05.03.08.07.1.12.01.05,0,.1-.03.15-.05.08-.11.13-.18.16-.07.03-.14.02-.2-.02-.05-.03-.09-.07-.1-.12-.01-.05,0-.1.02-.15m1.83,1.73c.05-.08.11-.14.18-.16.07-.02.14-.02.2.03.05.03.08.07.1.12.01.05,0,.1-.02.15-.05.08-.11.13-.18.16-.07.02-.14.02-.2-.03-.05-.03-.09-.07-.1-.12-.01-.05,0-.1.02-.14m-1.59-3.15c.08-.03.15-.05.22-.05.07,0,.14.01.21.05.06.03.11.07.13.11.02.04.02.09,0,.15-.02.03-.04.06-.07.08-.03.02-.06.03-.1.04-.05,0-.12,0-.2-.05-.03-.01-.05-.02-.07-.03-.09-.03-.16-.03-.21,0-.06.03-.14.12-.25.27l-.38.54c-.05.07-.09.11-.15.12-.05.02-.1.02-.16-.01-.05-.02-.08-.06-.1-.1-.01-.04-.01-.09.02-.14,0-.01.01-.02.02-.03,0,0,0-.01.01-.02l.74-1.06c.04-.06.09-.1.14-.12.05-.01.1,0,.17.02.05.02.08.05.09.08.01.03,0,.08-.02.13v.02Zm-2.02.68c.03-.09.07-.16.14-.2.06-.04.13-.05.2-.02.06.02.1.05.12.09.02.04.03.09,0,.15-.03.09-.07.16-.14.2-.06.04-.13.05-.2.03-.06-.02-.1-.05-.13-.09-.03-.05-.03-.1-.01-.15m-1.17-.51c.14.03.25.04.33.02.08-.02.13-.06.15-.13.02-.09-.07-.18-.28-.26-.02,0-.03-.01-.04-.02l-.25-.1c-.11-.04-.19-.1-.23-.18-.04-.07-.05-.17-.02-.28.04-.16.13-.27.26-.32.14-.05.32-.05.55,0l.51.12c.07.02.12.04.15.08.03.03.04.07.02.13-.02.06-.05.1-.11.13-.06.03-.12.03-.21,0l-.58-.14c-.06-.01-.1-.02-.13-.01-.03,0-.04.02-.05.04,0,.02,0,.04.02.06.02.02.07.04.16.08l.31.12c.16.06.27.13.33.22.06.09.08.2.05.32-.05.21-.17.35-.35.44-.19.08-.41.09-.69.03l-.49-.12c-.09-.02-.15-.05-.19-.08-.03-.03-.04-.08-.02-.14.02-.07.05-.12.11-.14.06-.02.14-.02.24,0l.45.11Zm-3.96-.19c-.2-.03-.33-.06-.4-.11-.07-.05-.1-.12-.08-.22.01-.1.06-.16.13-.19.08-.03.2-.04.38-.01l.63.08c.3.04.52.02.67-.05.15-.08.24-.21.27-.41.01-.1-.01-.18-.07-.24-.06-.07-.16-.12-.3-.18-.05-.02-.12-.04-.2-.07-.26-.09-.43-.16-.49-.2-.16-.09-.26-.18-.31-.27-.05-.09-.07-.21-.05-.34.01-.12.06-.23.12-.33.07-.1.16-.17.26-.23.09-.05.2-.08.32-.09.11-.01.27,0,.46.02l.71.09c.12.02.2.05.26.1.06.05.08.12.07.2-.01.1-.06.16-.13.19-.07.03-.2.03-.38.01l-.64-.08c-.14-.02-.24-.02-.31,0-.07.02-.11.06-.11.12-.01.09.12.18.4.27.09.03.15.05.2.07.33.12.56.25.68.4.12.15.16.35.13.59-.05.35-.21.61-.49.79-.28.18-.63.24-1.05.18l-.65-.09Zm-2.07-2.44l-.45,1.94c-.03.11-.06.19-.12.24-.05.05-.13.07-.22.06-.08,0-.14-.03-.18-.07-.04-.04-.06-.1-.05-.18,0-.01,0-.02,0-.03,0-.01,0-.03.01-.06l.52-2.24c.04-.14.08-.25.15-.32.07-.06.16-.09.27-.08.13,0,.27.13.42.37.03.05.06.1.08.12.08.12.17.22.27.3.11.08.22.14.34.19l.14-.61c.02-.09.06-.16.12-.21.06-.05.13-.07.22-.06.08,0,.14.03.18.07.04.04.06.1.06.17,0,.02,0,.03,0,.04,0,0,0,.02,0,.03l-.55,2.37c-.03.12-.07.2-.12.25-.05.05-.13.07-.22.06-.08,0-.14-.03-.18-.07-.04-.04-.06-.1-.05-.18,0-.01,0-.02,0-.03,0-.01,0-.03.01-.06l.29-1.26c-.2-.06-.38-.15-.53-.28s-.29-.28-.4-.47m-8.53.83l-.46.1c-.1.02-.17.02-.23,0-.05-.02-.08-.08-.1-.15-.02-.1,0-.17.06-.23.06-.06.15-.11.29-.14l1.45-.32c.1-.02.18-.02.23,0,.05.02.09.08.1.16.02.09,0,.17-.05.23-.06.06-.15.11-.29.14l-.44.1.12,2.19c0,.11,0,.2-.05.27-.04.06-.1.1-.19.12-.08.02-.14.01-.19-.02-.05-.03-.08-.08-.1-.16,0,0,0-.02,0-.03,0-.01,0-.03,0-.06l-.12-2.19Zm-1.46,2.43l-.12-1.12-.58.16c-.1.03-.17.03-.23,0-.05-.03-.09-.08-.11-.16-.02-.09-.01-.16.03-.22.05-.06.12-.1.23-.13l.83-.23c.1-.03.18-.04.22-.03.04.01.07.05.09.11,0,.02.01.07.02.14,0,.03,0,.05,0,.07l.14,1.3c.02.2,0,.34-.07.42-.07.08-.22.15-.45.22-.57.16-1.04.15-1.42-.02-.38-.17-.64-.49-.76-.95-.07-.26-.09-.51-.04-.75.04-.24.14-.45.3-.64.1-.11.22-.21.37-.3.15-.08.34-.16.57-.22l.71-.2c.12-.04.22-.04.29-.01.07.03.12.08.14.17.03.08.01.15-.03.22-.04.06-.12.11-.21.13l-.64.18c-.24.07-.42.13-.52.19-.1.06-.18.12-.24.21-.08.11-.13.24-.15.38-.02.14,0,.29.04.45.09.32.26.54.52.65.26.11.59.11.98,0l.1-.03Zm-4.38-.49l.35,1.96c.02.11.01.2-.01.27-.03.07-.09.11-.18.14-.08.03-.14.03-.2,0-.05-.02-.09-.07-.12-.14,0-.01,0-.02,0-.03,0-.01,0-.03-.01-.06l-.4-2.27c-.03-.15-.02-.26.02-.35.04-.08.11-.15.21-.18.12-.04.3.01.53.17.05.04.09.06.12.08.12.08.24.14.37.17.13.04.26.05.39.04l-.11-.61c-.02-.1,0-.17.03-.24.03-.07.09-.11.18-.14.07-.03.14-.03.19,0,.05.02.09.07.12.13,0,.01.01.03.01.04,0,.01,0,.02,0,.03l.42,2.4c.02.12.02.21-.01.27-.03.07-.09.11-.18.15-.08.03-.14.03-.19,0-.06-.03-.1-.08-.12-.15,0-.01,0-.02-.01-.03,0-.01,0-.03-.01-.06l-.22-1.28c-.21.02-.41,0-.6-.04-.19-.05-.37-.14-.55-.27m-3.7,3.31c.1-.06.18-.08.24-.07.05,0,.1.05.14.11.05.09.05.18.02.25-.04.08-.12.15-.26.22l-.78.42c-.14.07-.25.11-.32.1-.08,0-.14-.05-.18-.13,0-.02-.02-.03-.03-.05,0-.02-.01-.04-.02-.06l-.77-2.24c-.03-.09-.03-.17-.01-.24.02-.07.07-.13.15-.17.07-.04.14-.05.19-.04.06.01.11.05.14.11,0,.02.01.03.02.03,0,0,0,.02,0,.02l.73,2.11.73-.4Zm27.91-2.09c.08-.13.18-.23.3-.32.12-.08.25-.14.39-.16.11-.02.22-.02.32,0,.1.02.2.06.3.12.19.12.31.27.36.47.05.19,0,.39-.11.59-.08.12-.18.23-.3.31-.12.08-.26.14-.4.16-.11.02-.21.02-.31,0-.1-.02-.2-.06-.29-.11-.2-.12-.32-.28-.36-.47s0-.39.12-.59m.38.23c-.06.1-.09.2-.07.3.02.1.07.17.16.22.11.07.23.07.37.02.14-.05.25-.15.34-.29.06-.1.09-.21.07-.3-.01-.1-.06-.17-.15-.22-.11-.07-.23-.08-.37-.02-.14.05-.26.15-.34.29m-27.13.54c-.01.15-.02.3-.01.44,0,.15.02.29.04.44v.02c.05.3,0,.48-.14.54-.07.03-.14.04-.2.01-.06-.03-.1-.08-.14-.15-.06-.14-.1-.39-.11-.76-.01-.36,0-.76.06-1.17.06-.42.12-.73.2-.93.08-.2.19-.32.32-.38.1-.04.19-.05.29-.02.09.03.21.1.33.21.27.23.51.5.72.78.22.29.39.58.52.88.09.22.14.37.13.46,0,.09-.07.16-.17.21-.05.02-.09.03-.13.02-.04,0-.08-.02-.12-.04-.03-.03-.07-.09-.12-.2-.05-.11-.1-.19-.16-.24-.16-.16-.34-.25-.56-.28-.21-.03-.44.01-.69.12l-.07.03Zm.02-.49c.19-.08.36-.12.51-.13.15-.01.3,0,.44.06-.12-.17-.25-.33-.38-.47-.13-.14-.26-.26-.39-.38-.05.14-.09.28-.12.43-.03.16-.05.32-.06.49m10.63-3.05l.03,1.32c0,.11-.02.2-.06.26-.04.06-.11.1-.2.11-.08.01-.15,0-.2-.03-.05-.03-.08-.09-.09-.17,0-.02,0-.04,0-.07h0s-.04-2.34-.04-2.34c0-.14.02-.25.07-.32.05-.07.14-.12.26-.14l.87-.16c.31-.06.54-.06.69,0,.15.06.24.19.28.38.03.15,0,.29-.06.43-.06.13-.18.27-.35.42.15.09.28.22.37.38.1.16.17.35.21.58.04.22.04.39,0,.51-.04.11-.12.18-.24.2-.09.02-.15,0-.2-.03-.05-.04-.08-.1-.1-.19,0-.03-.01-.08-.02-.16-.01-.08-.02-.15-.03-.2-.06-.32-.19-.55-.4-.69-.21-.14-.47-.18-.78-.12h-.02Zm-.01-.88v.39c.15-.02.29-.03.41-.03.13,0,.24.02.36.04.11-.1.18-.18.22-.24.04-.06.05-.13.04-.19,0-.05-.04-.09-.08-.1-.04-.01-.11-.01-.2,0l-.74.14Zm3,.81c-.07.13-.12.27-.17.41-.05.14-.09.28-.12.43v.02c-.07.29-.18.44-.33.45-.08,0-.14-.02-.19-.06-.05-.04-.07-.11-.07-.19,0-.15.05-.4.17-.75.12-.35.28-.7.47-1.07.2-.37.37-.64.52-.79.15-.15.29-.24.44-.24.11,0,.2.02.28.08.08.06.16.17.24.32.16.31.3.64.39.99.1.35.15.68.16,1.01.01.24,0,.4-.05.48-.04.08-.12.13-.23.13-.05,0-.09,0-.13-.03-.04-.02-.07-.05-.09-.08-.02-.03-.03-.11-.04-.23,0-.12-.03-.22-.06-.28-.09-.2-.23-.36-.42-.46-.19-.1-.42-.15-.68-.14h-.08Zm.2-.45c.2,0,.37.02.52.06.15.04.28.11.39.21-.05-.21-.11-.4-.18-.58-.07-.18-.14-.34-.23-.49-.1.11-.19.23-.27.36-.08.13-.16.28-.23.43"/>
  <path class="cls-1" d="m38.05,12.73h-.32c-.23,0-.42-.06-.55-.19-.14-.13-.2-.31-.2-.54,0-.29.1-.53.29-.69.2-.16.48-.24.84-.24h.22l.18-1.12c.06-.34.19-.61.37-.78.18-.17.42-.26.72-.26.26,0,.45.07.58.2.14.13.2.33.2.57,0,.08,0,.14,0,.18,0,.03,0,.07-.01.11l-.18,1.11h.71c.42,0,.71.05.85.15.15.1.22.29.22.56,0,.28-.1.51-.29.68-.19.17-.44.26-.76.26h-1.02l-.51,3c-.02.11-.03.21-.04.33-.01.11-.02.24-.02.38,0,.33.3.5.9.53h.15c.42.02.71.09.89.21.17.12.26.31.26.57,0,.33-.16.58-.47.77-.31.18-.76.27-1.35.27-.79,0-1.36-.14-1.73-.42-.37-.28-.55-.73-.55-1.34,0-.22.01-.45.03-.69.02-.24.05-.49.09-.73l.49-2.86Zm-4.74,5.18c-.39.3-.76.53-1.14.67-.37.15-.74.22-1.12.22-.7,0-1.27-.2-1.69-.6-.43-.4-.64-.93-.64-1.58,0-.13,0-.27.02-.42.01-.15.03-.31.06-.49l.6-3.63c.06-.36.18-.62.34-.79.16-.17.39-.26.66-.26s.47.08.63.23c.16.15.23.35.23.61,0,.05,0,.1,0,.13,0,.03,0,.06-.01.09l-.54,3.31c-.03.14-.04.27-.06.41-.02.14-.02.25-.02.34,0,.34.1.6.29.77.19.18.47.26.84.26.53,0,.97-.17,1.32-.52.35-.34.58-.82.68-1.44l.52-3.14c.06-.36.17-.62.34-.79.17-.17.39-.26.68-.26.26,0,.46.07.61.21.14.14.22.34.22.59,0,.07,0,.11,0,.14,0,.03,0,.06-.01.1l-.96,5.73c-.05.34-.17.59-.34.75-.18.15-.43.23-.76.23-.24,0-.43-.06-.56-.18-.13-.12-.2-.29-.2-.52,0-.05,0-.09,0-.11,0-.03,0-.05,0-.07m-8.44.02c-.36.3-.74.52-1.12.67-.39.15-.78.22-1.19.22-.67,0-1.22-.2-1.63-.6-.41-.4-.62-.92-.62-1.58,0-.96.42-1.69,1.25-2.18.84-.5,2.05-.75,3.66-.75h.35l.07-.38s.01-.04.01-.06c0-.02,0-.05,0-.09,0-.16-.05-.29-.16-.37-.1-.09-.26-.13-.45-.13h-2.55c-.28,0-.5-.06-.65-.19-.16-.12-.23-.3-.23-.53,0-.29.11-.51.33-.66.22-.15.53-.22.95-.22h2.46c.69,0,1.21.17,1.57.5.37.34.55.82.55,1.44,0,.11,0,.23-.01.34-.01.11-.02.22-.04.33l-.61,3.65c-.09.58-.22.96-.39,1.15-.17.19-.41.28-.75.28-.24,0-.43-.07-.57-.22-.14-.15-.21-.36-.23-.62m.49-2.93c-1.08,0-1.87.11-2.37.34-.51.23-.76.59-.76,1.08,0,.27.08.49.25.63.17.15.41.22.72.22.6,0,1.1-.2,1.48-.6.38-.4.61-.96.68-1.67"/>
  <path class="cls-3" d="m17.02,40.44c-.09,0-.21.01-.34.01-.2,0-.34-.04-.42-.11-.09-.08-.13-.2-.13-.38v-1.4h-.29v-.42h.29v-.62h.56v.62h.34v.42h-.34v1.29c0,.05.02.09.04.1.03.02.09.03.18.03h.12v.45Z"/>
  <path class="cls-3" d="m18.21,40.49c-.32,0-.57-.1-.74-.32-.17-.21-.26-.52-.26-.91,0-.36.09-.65.27-.86.18-.21.42-.31.74-.31s.57.11.74.32c.17.21.26.51.26.9,0,.05,0,.09,0,.14h-1.43c.01.18.05.31.11.41.08.11.2.17.38.17.08,0,.16-.03.23-.08.07-.05.11-.11.13-.19h.58c-.05.23-.16.41-.33.55-.18.13-.39.2-.66.2m.42-1.44c-.01-.14-.05-.24-.1-.32-.07-.1-.18-.15-.33-.15s-.25.06-.33.18c-.04.08-.08.17-.1.29h.86Z"/>
  <polygon class="cls-3" points="19.59 37.34 19.87 37.34 20.15 37.34 20.15 40.43 19.87 40.43 19.59 40.43 19.59 37.34"/>
  <rect class="cls-3" x="20.67" y="39.81" width=".6" height=".63"/>
  <polygon class="cls-3" points="22.75 37.26 21.85 40.52 21.39 40.52 22.3 37.26 22.75 37.26"/>
  <path class="cls-3" d="m23.53,38.57v1.86h-.56v-1.86h-.31v-.42h.31v-.19c0-.22.05-.39.16-.49.11-.11.27-.16.49-.16.1,0,.18,0,.26.01v.48h-.17c-.07,0-.12.02-.15.05-.02.03-.03.1-.03.2v.1h.35v.42h-.35Z"/>
  <path class="cls-3" d="m24.71,40.49c-.2,0-.35-.06-.47-.18-.12-.12-.18-.28-.18-.48,0-.21.05-.38.16-.5.11-.12.26-.2.47-.24l.37-.06c.1-.01.18-.04.24-.07.03-.01.05-.04.06-.08.02-.03.02-.07.02-.11,0-.06-.04-.11-.09-.15-.06-.04-.16-.06-.28-.06-.1,0-.19.03-.25.08-.06.06-.09.14-.1.24h-.53c.01-.27.1-.47.25-.6.16-.13.39-.2.69-.2.26,0,.47.06.62.18.15.12.23.28.23.49v1.28c0,.1,0,.17.02.22.01.04.04.07.09.1h0v.08h-.6c-.02-.1-.04-.19-.04-.27h0c-.17.22-.4.33-.68.33m.67-.9v-.26c-.07.04-.15.07-.26.09l-.2.04c-.1.02-.17.06-.22.11-.05.05-.08.12-.08.2,0,.09.02.16.07.22.04.05.11.08.19.08.18,0,.32-.07.43-.2.02-.03.04-.07.05-.12.02-.05.02-.1.02-.15"/>
  <polygon class="cls-3" points="26.93 39.26 26.24 38.15 26.58 38.15 26.91 38.15 27.27 38.82 27.62 38.15 27.95 38.15 28.27 38.15 27.59 39.27 28.3 40.43 27.96 40.43 27.62 40.43 27.25 39.73 26.88 40.43 26.55 40.43 26.21 40.43 26.93 39.26"/>
  <path class="cls-3" d="m28.73,38.22h.6v.63h-.6v-.63Zm0,1.58h.6v.63h-.6v-.63Z"/>
  <path class="cls-3" d="m32.84,39.42c0,.34-.09.6-.28.8-.19.19-.44.29-.75.29-.25,0-.46-.08-.62-.24-.16-.16-.26-.38-.29-.65h.56c.02.14.06.24.12.31.07.07.16.11.28.11s.22-.05.29-.15c.08-.1.11-.24.11-.4s-.04-.31-.11-.41c-.07-.1-.18-.15-.3-.15-.08,0-.15.02-.22.06-.07.04-.12.09-.15.15l-.49-.02.19-1.67h1.54v.51h-1.14l-.1.65c.15-.1.32-.15.5-.15.25,0,.45.09.61.28.16.18.24.42.24.71"/>
  <path class="cls-3" d="m33.49,40.43c.04-.46.16-.91.35-1.36.18-.42.4-.79.66-1.11h-1.4v-.53h2v.46c-.29.34-.52.73-.7,1.18-.18.45-.29.9-.33,1.36h-.57Z"/>
  <path class="cls-3" d="m35.7,40.43c.04-.46.16-.91.35-1.36.18-.42.4-.79.66-1.11h-1.4v-.53h2v.46c-.29.34-.52.73-.7,1.18-.18.45-.29.9-.33,1.36h-.57Z"/>
  <path class="cls-3" d="m39.52,40.51c-.24,0-.43-.07-.58-.22-.15-.15-.23-.34-.24-.58h.56c0,.1.02.17.08.23.05.06.12.09.21.09h.03c.16,0,.28-.08.36-.26.06-.13.1-.33.11-.6-.15.17-.33.26-.55.26-.25,0-.46-.09-.62-.28-.16-.19-.24-.43-.24-.72,0-.31.09-.56.28-.76.18-.2.42-.3.7-.3.32,0,.56.13.73.39.17.26.25.63.25,1.13,0,.55-.09.96-.27,1.23-.17.26-.42.39-.74.39h-.06Zm.52-2.1c0-.16-.04-.29-.12-.4-.08-.11-.18-.16-.3-.16-.14,0-.24.05-.31.14-.07.1-.11.23-.11.42,0,.16.04.29.12.38.08.1.18.15.3.15s.23-.05.3-.15c.08-.1.12-.22.12-.38"/>
  <path class="cls-3" d="m42.36,38.81c.06.03.12.07.18.12.18.16.27.37.27.63,0,.29-.09.52-.27.69-.18.17-.42.26-.71.26s-.53-.09-.71-.26c-.18-.18-.27-.41-.27-.69,0-.26.09-.47.27-.63.05-.05.11-.09.17-.12l-.11-.08c-.16-.13-.24-.31-.24-.52,0-.25.08-.45.24-.6.16-.15.38-.23.64-.23s.48.08.64.23c.16.15.24.35.24.6,0,.22-.08.39-.24.52-.04.03-.07.05-.11.08m-.53.27c-.12,0-.22.04-.29.13-.07.09-.11.2-.11.35s.04.26.11.34c.07.08.17.13.29.13s.22-.04.3-.13c.07-.08.11-.2.11-.34s-.03-.26-.11-.35c-.07-.09-.17-.13-.29-.13m0-.45c.11,0,.19-.03.26-.1.06-.07.1-.16.1-.28s-.03-.21-.1-.28c-.06-.07-.15-.1-.26-.1s-.19.03-.26.1c-.06.07-.09.17-.09.28s.03.21.09.28c.06.07.15.1.26.1"/>
  <path class="cls-3" d="m43.88,38.32h-.68v-.43c.17.01.33-.03.47-.12.14-.09.24-.23.31-.4h.46v3.06h-.56v-2.11Z"/>
  <path class="cls-3" d="m47.43,37.37c.23,0,.43.07.57.22.15.15.23.34.24.58h-.56c0-.1-.02-.17-.07-.23-.05-.06-.12-.09-.21-.09h-.02c-.16,0-.29.09-.36.26-.06.14-.1.33-.11.59.15-.17.33-.26.54-.26.25,0,.45.09.61.28.16.19.24.43.24.72,0,.31-.09.57-.27.76-.18.2-.42.3-.7.3-.32,0-.56-.13-.72-.39-.17-.26-.25-.64-.25-1.13,0-.55.09-.96.27-1.24.17-.26.42-.39.74-.39h.06Zm-.51,2.1c0,.16.04.3.12.4.08.11.18.16.3.16.13,0,.24-.05.31-.14.07-.1.1-.23.1-.42,0-.16-.04-.29-.11-.38-.08-.1-.18-.15-.3-.15s-.22.05-.3.15c-.08.1-.11.23-.11.38"/>
  <path class="cls-3" d="m50.49,39.42c0,.34-.09.6-.28.8-.18.19-.44.29-.75.29-.25,0-.46-.08-.62-.24-.16-.16-.26-.38-.29-.65h.56c.02.14.06.24.12.31.07.07.16.11.28.11s.22-.05.29-.15c.07-.1.11-.24.11-.4s-.04-.31-.11-.41c-.07-.1-.17-.15-.3-.15-.08,0-.15.02-.21.06-.07.04-.12.09-.15.15l-.49-.02.18-1.67h1.54v.51h-1.14l-.1.65c.16-.1.32-.15.5-.15.25,0,.46.09.61.28.16.18.24.42.24.71"/>
  <path class="cls-3" d="m51.61,38.32h-.68v-.43c.17.01.33-.03.46-.12.14-.09.24-.23.31-.4h.46v3.06h-.56v-2.11Z"/>
  <path class="cls-3" d="m.84,32.76h1.41c.28,0,.5.06.66.19.16.13.24.31.24.54s-.09.43-.27.55c-.03.02-.06.04-.1.06.07.03.13.06.18.1.19.13.28.31.28.56,0,.3-.09.52-.28.68-.18.15-.45.23-.81.23H.84v-2.91Zm.58,1.14h.7c.15,0,.27-.03.34-.08.08-.06.11-.14.11-.26,0-.1-.04-.17-.12-.22-.08-.05-.2-.08-.36-.08h-.67v.64Zm0,1.26h.74c.16,0,.28-.03.36-.1.08-.07.12-.17.12-.31,0-.12-.04-.21-.12-.27-.08-.06-.2-.09-.36-.09h-.73v.78Z"/>
  <path class="cls-3" d="m4.18,33.22l-.46-.59h.45l.26.33h0l.26-.33h.45l-.46.59h-.51Zm-.37.3h.54v.39s.04-.08.07-.12c.13-.21.3-.32.52-.32h.13v.58c-.05,0-.11,0-.17,0-.17,0-.3.04-.39.13-.09.09-.13.22-.13.39v1.12h-.57v-2.15Z"/>
  <path class="cls-3" d="m6.16,35.72c-.33,0-.58-.1-.76-.3-.18-.2-.27-.49-.27-.86,0-.35.09-.61.27-.81.18-.19.43-.29.75-.29s.58.1.76.3c.18.2.27.48.27.85,0,.04,0,.09-.01.13h-1.47c.01.17.05.3.11.38.08.1.21.16.4.16.09,0,.17-.02.24-.07.07-.05.12-.11.13-.17h.58c-.05.22-.16.39-.34.51-.18.12-.4.19-.67.19m.43-1.36c-.01-.13-.05-.23-.1-.3-.07-.1-.19-.15-.34-.15s-.26.06-.34.17c-.05.07-.08.16-.1.28h.88Z"/>
  <polygon class="cls-3" points="7.38 35.23 8.47 33.98 8.49 33.96 7.46 33.96 7.46 33.74 7.46 33.51 9.2 33.51 9.2 33.75 9.2 33.98 8.12 35.2 9.25 35.2 9.25 35.43 9.25 35.67 7.38 35.67 7.38 35.45 7.38 35.23"/>
  <path class="cls-3" d="m9.77,35.42c-.2-.2-.3-.48-.3-.82s.1-.63.3-.84c.2-.21.47-.31.81-.31s.61.1.81.31c.2.21.3.49.3.84s-.1.62-.3.82-.47.3-.81.3-.6-.1-.81-.3m1.19-.34c.09-.11.13-.27.13-.48s-.04-.38-.13-.5c-.09-.11-.22-.17-.38-.17s-.3.06-.39.17c-.09.11-.13.28-.13.5s.04.37.13.48c.09.11.22.17.39.17s.3-.06.38-.17"/>
  <polygon class="cls-3" points="11.86 33.51 12.17 33.51 12.49 33.51 12.95 35.12 12.95 35.12 13.41 33.51 13.71 33.51 14.01 33.51 13.23 35.67 12.93 35.67 12.64 35.67 11.86 33.51"/>
  <path class="cls-3" d="m14.84,35.73c-.2,0-.36-.06-.48-.17-.12-.11-.18-.26-.18-.45,0-.2.05-.35.16-.47.11-.12.27-.19.48-.22l.37-.05c.1-.01.18-.04.24-.07.03-.01.05-.04.06-.07.02-.03.02-.07.02-.1,0-.06-.04-.11-.09-.14-.06-.04-.16-.06-.28-.06-.11,0-.19.03-.25.08-.06.05-.09.12-.1.22h-.55c.01-.25.1-.44.26-.57.16-.12.4-.19.7-.19.27,0,.48.06.63.17.15.11.23.27.23.46v1.21c0,.1,0,.16.02.2.01.04.05.07.09.09h0v.08h-.61c-.03-.09-.04-.17-.05-.26h0c-.18.21-.41.31-.69.31m.68-.85v-.24c-.06.04-.15.07-.26.09l-.21.04c-.1.02-.17.05-.22.1s-.08.11-.08.19c0,.09.02.15.07.2.05.05.11.07.19.07.18,0,.33-.06.43-.19.02-.03.04-.06.05-.11.02-.05.02-.1.02-.14m-.57-1.66l.38-.59h.62l-.59.59h-.41Z"/>
  <path class="cls-3" d="m18.42,33.68h-.7v-.41c.18.01.33-.03.48-.12.14-.08.25-.21.32-.37h.47v2.89h-.57v-1.99Z"/>
  <path class="cls-3" d="m19.81,35.03v-.49l1.07-1.76h.63v1.8h.33v.45h-.33v.64h-.56v-.64h-1.14Zm1.14-.45v-1.2l-.7,1.16-.02.04h.72Z"/>
  <path class="cls-3" d="m22.93,33.68h-.7v-.41c.18.01.34-.03.48-.12.14-.08.25-.21.32-.37h.47v2.89h-.57v-1.99Z"/>
  <path class="cls-3" d="m24.47,35.37v-.3h.61v.51c0,.21-.05.38-.15.5-.1.12-.25.21-.46.26v-.22c.14-.04.23-.11.28-.2.03-.06.05-.15.06-.26h-.34v-.3Z"/>
  <path class="cls-3" d="m26.98,35.67c.04-.43.16-.86.35-1.29.18-.39.4-.74.67-1.04h-1.43v-.5h2.04v.43c-.29.32-.53.69-.72,1.12-.19.42-.3.85-.33,1.28h-.58Z"/>
  <path class="cls-3" d="m29.94,32.78c.24,0,.43.07.59.21.15.14.23.32.25.55h-.56c0-.09-.02-.16-.08-.22-.05-.05-.12-.08-.21-.08h-.03c-.17,0-.29.08-.37.25-.06.13-.1.31-.11.56.15-.16.34-.24.55-.24.26,0,.46.09.63.26.16.18.24.4.24.68,0,.29-.09.53-.28.72-.18.19-.42.28-.71.28-.32,0-.57-.12-.74-.36-.17-.25-.25-.6-.25-1.07,0-.52.09-.9.28-1.16.17-.24.42-.37.75-.37h.06Zm-.52,1.98c0,.15.04.28.12.38.08.1.18.15.3.15.14,0,.24-.05.31-.14.07-.09.11-.22.11-.4,0-.15-.04-.27-.12-.37-.08-.09-.18-.14-.31-.14s-.23.05-.31.14c-.08.09-.12.21-.12.36"/>
  <path class="cls-3" d="m32.42,33.62c0-.11-.03-.2-.1-.27-.07-.07-.15-.1-.26-.1-.12,0-.22.04-.29.12-.07.08-.1.19-.11.34h-.52c0-.3.09-.52.25-.68.17-.16.4-.24.7-.24.26,0,.47.08.64.23.17.15.25.34.25.58,0,.21-.09.37-.26.5l-.08.05c.06.03.12.06.17.1.16.13.25.32.25.58,0,.28-.09.51-.27.67-.18.17-.42.25-.72.25s-.55-.08-.73-.25c-.17-.16-.26-.4-.26-.7h.55c0,.16.04.29.11.37.07.08.17.13.3.13s.23-.04.31-.13c.08-.09.12-.2.12-.34,0-.12-.04-.22-.12-.3-.07-.07-.16-.1-.26-.11-.06,0-.11,0-.16,0-.05,0-.08,0-.1,0v-.42s.05,0,.1,0c.05,0,.11,0,.16-.01.09-.01.16-.04.21-.09.06-.06.1-.15.1-.27"/>
  <path class="cls-3" d="m35.33,33.68h-.7v-.41c.18.01.34-.03.48-.12.14-.08.25-.21.32-.37h.47v2.89h-.57v-1.99Z"/>
  <path class="cls-3" d="m38.71,34.71c0,.32-.1.57-.28.75-.19.18-.44.28-.77.28-.26,0-.47-.08-.64-.23-.17-.15-.27-.36-.29-.62h.57c.01.13.06.23.13.29.07.07.17.1.29.1s.22-.05.3-.15c.08-.1.11-.22.11-.38s-.04-.29-.12-.39c-.08-.1-.18-.15-.31-.15-.08,0-.15.02-.22.06-.07.03-.12.08-.16.15l-.5-.02.19-1.58h1.57v.48h-1.17l-.1.61c.16-.1.33-.15.51-.15.26,0,.47.09.63.26.16.17.24.4.24.67"/>
  <path class="cls-3" d="m43.02,33.63c-.01-.14-.07-.25-.18-.33-.11-.08-.26-.12-.43-.12-.15,0-.27.03-.36.1-.09.07-.13.16-.13.28,0,.09.05.15.14.2.09.05.28.1.57.17.42.1.71.21.85.33.14.12.21.32.21.59s-.11.49-.32.65c-.21.16-.51.24-.87.24s-.65-.09-.86-.26c-.21-.17-.32-.41-.33-.73h.58c0,.15.06.28.17.36.11.08.25.12.44.12s.35-.03.45-.09c.11-.06.16-.15.16-.26s-.04-.19-.12-.24c-.08-.05-.24-.11-.49-.16-.46-.1-.77-.22-.93-.33-.15-.12-.23-.3-.23-.56,0-.28.1-.51.3-.67.2-.17.48-.25.83-.25.32,0,.59.09.79.26.21.17.32.4.34.7h-.59Z"/>
  <polygon class="cls-3" points="44.15 35.67 44.15 32.76 44.45 32.76 44.76 32.76 44.76 35.15 46.21 35.15 46.21 35.41 46.21 35.67 44.15 35.67"/>
  <path class="cls-3" d="m48.96,34.57c0,.42-.09.72-.27.9-.19.18-.48.28-.9.28s-.69-.1-.89-.29c-.19-.19-.29-.49-.29-.89v-1.81h.61v1.84c0,.21.05.37.14.47.09.11.24.16.43.16.2,0,.35-.05.44-.14.09-.09.13-.26.13-.48v-1.84h.61v1.81Z"/>
  <path class="cls-3" d="m51.13,33.63c-.01-.14-.07-.25-.18-.33-.11-.08-.26-.12-.43-.12-.15,0-.28.03-.36.1-.09.07-.13.16-.13.28,0,.09.05.15.14.2.09.05.28.1.57.17.42.1.71.21.85.33.14.12.22.32.22.59s-.11.49-.32.65c-.22.16-.51.24-.87.24s-.66-.09-.86-.26c-.21-.17-.32-.41-.33-.73h.59c0,.15.06.27.17.36.1.08.25.12.44.12s.34-.03.45-.09c.11-.06.16-.15.16-.26s-.04-.19-.12-.24c-.08-.05-.24-.11-.49-.16-.46-.1-.77-.22-.93-.34-.15-.12-.23-.3-.23-.56,0-.28.1-.51.31-.67.2-.17.48-.25.83-.25.33,0,.59.09.8.26.2.17.32.4.34.7h-.59Zm-.81-1.17l-.46-.59h.45l.26.33h0l.26-.33h.45l-.46.59h-.51Z"/>
  <path class="cls-3" d="m52.51,35.34c-.25-.27-.38-.65-.38-1.11s.13-.85.38-1.13c.25-.28.59-.42,1.02-.42s.77.14,1.02.42c.25.28.38.66.38,1.13s-.13.84-.38,1.11c-.25.27-.59.41-1.02.41s-.77-.14-1.02-.41m1.6-.37c.14-.18.21-.43.21-.74s-.07-.58-.21-.76c-.14-.18-.34-.27-.58-.27s-.44.09-.58.27c-.14.18-.21.44-.21.76s.07.56.21.74c.14.18.33.27.58.27s.44-.09.58-.27"/>
  <polygon class="cls-3" points="55.19 32.76 55.51 32.76 55.83 32.76 56.47 34.98 57.11 32.76 57.42 32.76 57.74 32.76 56.75 35.67 56.46 35.67 56.17 35.67 55.19 32.76"/>
  <polygon class="cls-3" points="58.08 32.76 58.38 32.76 58.68 32.76 58.68 35.67 58.38 35.67 58.08 35.67 58.08 32.76"/>
  <path class="cls-3" d="m61.72,34.65c-.04.34-.17.6-.4.8-.23.2-.52.3-.86.3-.41,0-.73-.14-.98-.41-.24-.27-.36-.64-.36-1.11s.12-.85.36-1.13c.24-.28.57-.42.98-.42.34,0,.63.09.86.28.23.19.36.44.4.76h-.61c-.02-.15-.09-.28-.2-.37-.12-.09-.26-.14-.44-.14-.22,0-.4.09-.53.27-.13.18-.19.43-.19.75s.06.56.19.73c.13.18.31.26.53.26.18,0,.32-.05.44-.15.12-.1.18-.24.2-.41h.61Z"/>
  <polygon class="cls-3" points="62.19 35.67 62.19 32.76 64.33 32.76 64.33 33.01 64.33 33.27 62.79 33.27 62.79 33.89 64.22 33.89 64.22 34.14 64.22 34.39 62.79 34.39 62.79 35.15 64.4 35.15 64.4 35.41 64.4 35.67 62.19 35.67"/>
</svg>