<?xml version="1.0" encoding="UTF-8"?>
<svg id="Vrstva_1" data-name="Vrstva 1" xmlns="http://www.w3.org/2000/svg" viewBox="0 0 82.35 26.05">
  <defs>
    <style>
      .cls-1 {
        stroke-width: 0px;
      }
    </style>
  </defs>
  <polygon class="cls-1" points="1.45 .59 1.45 3.04 3.83 3.04 3.83 .59 5.27 .59 5.27 6.97 3.83 6.97 3.83 4.3 1.45 4.3 1.45 6.97 0 6.97 0 .59 1.45 .59"/>
  <path class="cls-1" d="m11.03,4.61c0,1.7-1.2,2.47-2.45,2.47-1.35,0-2.4-.89-2.4-2.39s.99-2.46,2.47-2.46,2.37.98,2.37,2.37m-3.35.05c0,.8.33,1.39.95,1.39.56,0,.92-.56.92-1.39,0-.69-.27-1.39-.92-1.39-.69,0-.95.71-.95,1.39"/>
  <path class="cls-1" d="m11.92,5.71c.26.16.81.35,1.24.35s.61-.15.61-.39-.14-.35-.68-.53c-.96-.32-1.33-.84-1.32-1.39,0-.86.74-1.52,1.89-1.52.54,0,1.02.12,1.31.27l-.26.99c-.21-.11-.61-.26-1.01-.26-.35,0-.55.14-.55.38,0,.22.18.33.75.53.88.3,1.25.75,1.26,1.43,0,.86-.68,1.5-2.01,1.5-.61,0-1.15-.13-1.5-.32l.26-1.03Z"/>
  <path class="cls-1" d="m16.04,3.89c0-.61-.02-1.13-.04-1.55h1.25l.07.65h.02c.34-.49.87-.75,1.55-.75,1.01,0,1.92.88,1.92,2.36,0,1.69-1.07,2.48-2.1,2.48-.56,0-.99-.23-1.2-.53h-.02v2.3h-1.44V3.89Zm1.44,1.09c0,.11,0,.22.03.3.09.39.43.68.84.68.62,0,.99-.52.99-1.31,0-.74-.33-1.3-.98-1.3-.41,0-.77.3-.86.73-.02.08-.03.17-.03.26v.63Z"/>
  <path class="cls-1" d="m26.08,5.49c0,.61.02,1.1.04,1.49h-1.25l-.07-.65h-.03c-.18.28-.62.76-1.45.76-.94,0-1.63-.59-1.63-2.02v-2.72h1.45v2.49c0,.67.22,1.08.72,1.08.4,0,.63-.28.72-.5.04-.09.05-.2.05-.31v-2.76h1.45v3.15Zm-3.27-4.53c0-.53.39-.96,1.1-.96s1.07.41,1.07.95-.42.92-1.08.92-1.09-.4-1.09-.91m1.52-.02c0-.24-.15-.46-.44-.46s-.43.24-.43.47c0,.22.16.45.43.45.28,0,.44-.21.44-.46"/>
  <path class="cls-1" d="m31.73.25v5.35c0,.52.02,1.07.04,1.38h-1.28l-.07-.68h-.02c-.29.52-.85.79-1.45.79-1.1,0-1.98-.94-1.98-2.38,0-1.56.97-2.46,2.08-2.46.57,0,1.01.2,1.22.52h.02V.25h1.44Zm-1.44,4.06c0-.08-.01-.18-.02-.26-.08-.39-.4-.71-.84-.71-.65,0-.99.59-.99,1.32,0,.79.39,1.28.98,1.28.42,0,.75-.28.83-.69.03-.11.04-.21.04-.33v-.61Z"/>
  <path class="cls-1" d="m34.34,4.29h.02c.1-.19.22-.38.33-.56l.94-1.39h1.73l-1.66,1.88,1.9,2.76h-1.77l-1.12-1.9-.37.46v1.45h-1.44V.25h1.44v4.05Z"/>
  <path class="cls-1" d="m40.72,6.97l-.08-.46h-.03c-.3.37-.78.57-1.33.57-.94,0-1.5-.68-1.5-1.42,0-1.2,1.08-1.78,2.72-1.77v-.07c0-.25-.13-.6-.84-.6-.47,0-.98.16-1.28.35l-.27-.93c.32-.18.96-.41,1.8-.41,1.54,0,2.04.91,2.04,2v1.61c0,.45.02.87.07,1.13h-1.3Zm-.17-2.19c-.76,0-1.35.17-1.35.73,0,.37.25.55.57.55.36,0,.65-.24.75-.53.02-.08.03-.16.03-.25v-.5Z"/>
  <path class="cls-1" d="m43.66,7.96c.29-.81.53-1.72.66-2.55l1.35-.1c-.29.93-.7,1.86-1.14,2.57l-.87.08Zm1.86,0c.28-.81.53-1.72.66-2.55l1.35-.1c-.29.93-.71,1.86-1.14,2.57l-.87.08Z"/>
  <path class="cls-1" d="m49.93.59v3.68c0,1.1.42,1.66,1.16,1.66s1.17-.53,1.17-1.66V.59h1.44v3.58c0,1.97-.99,2.91-2.66,2.91s-2.56-.89-2.56-2.93V.59h1.45Z"/>
  <polygon class="cls-1" points="56.88 .59 60.78 .59 60.78 1.77 58.33 1.77 58.33 3.23 60.62 3.23 60.62 4.41 58.33 4.41 58.33 6.97 56.88 6.97 56.88 .59"/>
  <path class="cls-1" d="m66.16,4.61c0,1.7-1.2,2.47-2.45,2.47-1.35,0-2.4-.89-2.4-2.39s.99-2.46,2.47-2.46,2.37.98,2.37,2.37m-3.35.05c0,.8.33,1.39.95,1.39.56,0,.92-.56.92-1.39,0-.69-.27-1.39-.92-1.39-.69,0-.95.71-.95,1.39"/>
  <path class="cls-1" d="m66.09,7.83c.38-.03.67-.11.85-.3.21-.22.29-.59.29-1.51v-3.68h1.45v4.02c0,1.01-.23,1.63-.65,2.03-.43.4-1.1.57-1.79.57l-.14-1.13Zm2.62-6.78c0,.4-.29.72-.78.72-.45,0-.75-.32-.75-.72s.29-.73.77-.73.75.31.76.73"/>
  <path class="cls-1" d="m71.42,1.01v1.33h1.03v1.06h-1.03v1.68c0,.56.13.82.57.82.18,0,.32-.02.43-.04v1.09c-.18.08-.52.12-.93.12-.46,0-.85-.16-1.08-.4-.27-.27-.4-.72-.4-1.37v-1.9h-.62v-1.06h.62v-1l1.41-.32Z"/>
  <path class="cls-1" d="m77.66,5.49c0,.61.02,1.1.04,1.49h-1.25l-.07-.65h-.03c-.18.28-.62.76-1.45.76-.94,0-1.63-.59-1.63-2.02v-2.72h1.45v2.49c0,.67.22,1.08.72,1.08.4,0,.62-.28.72-.5.04-.09.05-.2.05-.31v-2.76h1.45v3.15Zm-3.27-4.53c0-.53.39-.96,1.1-.96s1.07.41,1.07.95-.42.92-1.08.92-1.09-.4-1.09-.91m1.52-.02c0-.24-.15-.46-.44-.46s-.43.24-.43.47c0,.22.16.45.43.45.28,0,.44-.21.44-.46"/>
  <path class="cls-1" d="m78.49,3.13c.29-.93.7-1.86,1.14-2.57l.87-.08c-.29.81-.53,1.73-.66,2.56l-1.35.09Zm1.85,0c.29-.93.7-1.86,1.14-2.57l.87-.08c-.28.81-.53,1.73-.66,2.56l-1.35.09Z"/>
  <path class="cls-1" d="m26.32,16.46l-2.09-6.39h.89l.99,3.15c.28.86.51,1.64.68,2.39h.02c.18-.74.45-1.54.73-2.38l1.08-3.16h.88l-2.28,6.39h-.91Z"/>
  <path class="cls-1" d="m29.83,15.6c.25.16.68.33,1.1.33.61,0,.89-.3.89-.68s-.24-.62-.85-.84c-.83-.29-1.21-.75-1.21-1.3,0-.74.6-1.35,1.58-1.35.46,0,.87.13,1.13.28l-.21.61c-.18-.11-.51-.27-.94-.27-.49,0-.77.29-.77.63,0,.38.27.55.87.78.8.3,1.2.7,1.2,1.38,0,.81-.62,1.38-1.71,1.38-.5,0-.97-.12-1.29-.31l.21-.64Zm1.04-4.36l-.91-1.35h.64l.56.9h.02l.56-.9h.63l-.89,1.35h-.61Z"/>
  <path class="cls-1" d="m34.16,14.32c.02,1.13.74,1.59,1.57,1.59.6,0,.96-.1,1.27-.24l.14.6c-.29.13-.8.29-1.53.29-1.41,0-2.26-.93-2.26-2.31s.82-2.47,2.15-2.47c1.5,0,1.9,1.32,1.9,2.16,0,.17-.02.3-.03.39h-3.22Zm2.45-.6c0-.53-.22-1.35-1.16-1.35-.84,0-1.21.78-1.28,1.35h2.44Z"/>
  <path class="cls-1" d="m38.45,13.11c0-.47-.01-.86-.04-1.24h.73l.04.74h.03c.26-.44.68-.84,1.44-.84.63,0,1.1.38,1.3.92h.02c.14-.26.32-.45.51-.6.27-.21.58-.32,1.02-.32.61,0,1.51.4,1.51,1.99v2.7h-.82v-2.6c0-.88-.32-1.41-1-1.41-.47,0-.84.35-.98.76-.04.11-.07.27-.07.42v2.83h-.81v-2.75c0-.73-.32-1.26-.96-1.26-.52,0-.9.42-1.03.83-.05.12-.07.26-.07.41v2.77h-.81v-3.35Z"/>
  <path class="cls-1" d="m47.29,10.58c0,.28-.2.51-.53.51-.29,0-.5-.23-.5-.51s.22-.52.52-.52.51.23.51.52m-.93,1.29h.83v4.59h-.83v-4.59Z"/>
  <path class="cls-1" d="m48.58,13.11c0-.47-.01-.86-.04-1.24h.74l.05.76h.02c.23-.44.76-.86,1.52-.86.64,0,1.62.38,1.62,1.95v2.74h-.83v-2.64c0-.74-.28-1.36-1.06-1.36-.55,0-.98.39-1.12.85-.04.1-.06.25-.06.39v2.76h-.83v-3.35Z"/>
  <path class="cls-1" d="m56.38,16.46l-.07-.58h-.03c-.26.36-.75.68-1.4.68-.93,0-1.4-.65-1.4-1.32,0-1.11.99-1.71,2.76-1.71v-.09c0-.38-.1-1.06-1.04-1.06-.43,0-.87.13-1.2.34l-.19-.55c.38-.25.93-.41,1.51-.41,1.4,0,1.74.96,1.74,1.88v1.72c0,.4.02.79.08,1.1h-.76Zm-.12-2.34c-.91-.02-1.94.14-1.94,1.03,0,.54.36.8.79.8.6,0,.98-.38,1.11-.77.03-.09.05-.18.05-.26v-.8Z"/>
  <path class="cls-1" d="m7.71,19.64c.38-.08,1.15-.13,1.87-.13.88,0,1.42.09,1.89.36.45.24.77.67.77,1.25s-.33,1.1-1.05,1.37v.02c.73.2,1.27.75,1.27,1.57,0,.58-.27,1.03-.66,1.36-.46.37-1.24.58-2.51.58-.71,0-1.24-.05-1.56-.1v-6.27Zm1.43,2.45h.47c.76,0,1.17-.31,1.17-.79s-.37-.74-1.02-.74c-.31,0-.49.02-.62.04v1.49Zm0,2.83c.14.02.31.02.56.02.65,0,1.23-.25,1.23-.92s-.58-.9-1.3-.9h-.49v1.8Z"/>
  <path class="cls-1" d="m14.22,20.73l-.94-1.44h.94l.47.82h.02l.48-.82h.94l-.94,1.44h-.98Zm-.83,2.1c0-.68-.02-1.13-.04-1.53h1.24l.05.85h.04c.24-.67.81-.96,1.25-.96.13,0,.2,0,.3.02v1.36c-.11-.02-.23-.04-.39-.04-.53,0-.89.28-.99.73-.02.09-.03.21-.03.32v2.35h-1.44v-3.11Z"/>
  <path class="cls-1" d="m18.02,24.08c.05.6.64.88,1.31.88.49,0,.89-.07,1.28-.19l.19.98c-.47.19-1.05.29-1.68.29-1.57,0-2.47-.91-2.47-2.36,0-1.17.73-2.47,2.34-2.47,1.5,0,2.07,1.17,2.07,2.31,0,.25-.03.46-.05.57h-2.99Zm1.7-.99c0-.35-.15-.94-.82-.94-.61,0-.85.55-.89.94h1.71Z"/>
  <path class="cls-1" d="m23.53,19.98v1.33h1.03v1.06h-1.03v1.68c0,.56.13.82.57.82.18,0,.32-.02.43-.04v1.09c-.18.08-.52.12-.93.12-.46,0-.85-.16-1.08-.4-.27-.27-.4-.72-.4-1.37v-1.9h-.62v-1.06h.62v-1l1.41-.32Z"/>
  <path class="cls-1" d="m26.89,20.02c0,.4-.3.72-.78.72s-.76-.32-.75-.72c0-.42.29-.73.76-.73s.76.31.77.73m-1.49,1.29h1.44v4.64h-1.44v-4.64Z"/>
  <path class="cls-1" d="m27.99,24.68c.27.16.81.35,1.24.35s.62-.15.62-.39-.14-.35-.68-.53c-.96-.32-1.33-.84-1.32-1.39,0-.86.74-1.52,1.89-1.52.54,0,1.02.12,1.31.27l-.26.99c-.21-.11-.61-.26-1.01-.26-.35,0-.55.14-.55.38,0,.22.18.33.75.53.88.3,1.25.75,1.26,1.43,0,.86-.68,1.5-2.01,1.5-.61,0-1.15-.13-1.5-.32l.26-1.03Z"/>
  <rect class="cls-1" x="32.12" y="19.21" width="1.44" height="6.73"/>
  <path class="cls-1" d="m37.36,25.94l-.08-.46h-.03c-.3.37-.78.57-1.33.57-.94,0-1.5-.68-1.5-1.42,0-1.2,1.08-1.78,2.72-1.77v-.07c0-.25-.13-.6-.84-.6-.47,0-.98.16-1.28.35l-.27-.93c.32-.18.96-.41,1.8-.41,1.54,0,2.04.91,2.04,2v1.61c0,.45.02.87.07,1.13h-1.3Zm-.17-2.19c-.76,0-1.35.17-1.35.73,0,.37.25.55.57.55.36,0,.65-.24.75-.53.02-.08.03-.16.03-.25v-.5Z"/>
  <path class="cls-1" d="m40.69,21.31l.62,2.15c.11.39.2.76.27,1.13h.03c.08-.38.15-.73.26-1.13l.6-2.15h1.52l-1.73,4.64h-1.44l-1.69-4.64h1.56Z"/>
  <path class="cls-1" d="m46.61,19.55h1.43v2.82h.03c.14-.25.29-.47.44-.7l1.45-2.12h1.77l-2.11,2.72,2.23,3.67h-1.69l-1.56-2.76-.55.67v2.08h-1.43v-6.39Z"/>
  <path class="cls-1" d="m56.57,24.45c0,.61.02,1.1.04,1.49h-1.25l-.07-.65h-.03c-.18.28-.62.76-1.45.76-.94,0-1.63-.59-1.63-2.02v-2.72h1.45v2.49c0,.67.22,1.08.72,1.08.4,0,.63-.28.72-.5.04-.08.05-.2.05-.31v-2.76h1.45v3.15Z"/>
  <path class="cls-1" d="m61.21,25.83c-.26.11-.74.21-1.29.21-1.5,0-2.45-.91-2.45-2.37,0-1.36.93-2.46,2.65-2.46.38,0,.8.07,1.1.18l-.23,1.07c-.17-.08-.43-.14-.81-.14-.76,0-1.25.54-1.24,1.3,0,.85.57,1.3,1.27,1.3.34,0,.61-.06.82-.14l.17,1.06Zm-2-5.1l-.94-1.44h.94l.48.82h.02l.47-.82h.95l-.95,1.44h-.98Z"/>
  <path class="cls-1" d="m63.01,24.08c.05.6.64.88,1.31.88.49,0,.89-.07,1.28-.19l.19.98c-.47.19-1.05.29-1.68.29-1.57,0-2.47-.91-2.47-2.36,0-1.17.73-2.47,2.34-2.47,1.5,0,2.07,1.17,2.07,2.31,0,.25-.03.46-.05.57h-2.99Zm1.7-.99c0-.35-.15-.94-.82-.94-.61,0-.85.55-.89.94h1.71Z"/>
  <path class="cls-1" d="m66.91,22.83c0-.68-.02-1.13-.04-1.53h1.24l.05.85h.04c.24-.67.81-.96,1.25-.96.13,0,.2,0,.3.02v1.36c-.11-.02-.23-.04-.39-.04-.53,0-.89.28-.99.73-.02.09-.03.21-.03.32v2.35h-1.44v-3.11Z"/>
  <path class="cls-1" d="m73.04,25.94l-.08-.46h-.03c-.3.37-.78.57-1.33.57-.94,0-1.5-.68-1.5-1.42,0-1.2,1.08-1.78,2.72-1.77v-.07c0-.25-.13-.6-.84-.6-.47,0-.98.16-1.28.35l-.27-.93c.32-.18.96-.41,1.8-.41,1.54,0,2.04.91,2.04,2v1.61c0,.45.02.87.07,1.13h-1.3Zm-.17-2.19c-.76,0-1.35.17-1.35.73,0,.37.25.55.57.55.36,0,.65-.24.75-.53.02-.08.03-.16.03-.25v-.5Z"/>
</svg>