<?xml version="1.0" encoding="UTF-8"?>
<svg id="Vrstva_1" data-name="Vrstva 1" xmlns="http://www.w3.org/2000/svg" viewBox="0 0 75.45 36.91">
  <defs>
    <style>
      .cls-1 {
        fill: #cd1719;
      }

      .cls-1, .cls-2, .cls-3, .cls-4, .cls-5, .cls-6 {
        stroke-width: 0px;
      }

      .cls-2, .cls-6 {
        fill-rule: evenodd;
      }

      .cls-3, .cls-6 {
        fill: #e30613;
      }

      .cls-5 {
        fill: #090400;
      }
    </style>
  </defs>
  <path class="cls-4" d="m10.04,21.95c0,2.01-1.59,3.52-3.54,3.52s-3.54-1.51-3.54-3.52,1.61-3.52,3.54-3.52,3.54,1.59,3.54,3.52m-.84,0c0-1.49-1.11-2.73-2.7-2.73s-2.7,1.25-2.7,2.73,1.24,2.74,2.7,2.74,2.7-1.19,2.7-2.74"/>
  <polygon class="cls-4" points="14.11 25.33 13.27 25.33 13.27 19.34 11.67 19.34 11.67 18.57 15.72 18.57 15.72 19.34 14.11 19.34 14.11 25.33"/>
  <path class="cls-4" d="m22.03,25.33h-1.02l-1.99-2.86h-.35v2.86h-.84v-6.76h1.02c.6,0,1.25,0,1.78.31.57.33.89.97.89,1.61,0,.97-.65,1.78-1.62,1.89l2.13,2.94Zm-3.36-3.56h.27c.86,0,1.79-.16,1.79-1.24s-1.01-1.21-1.84-1.21h-.22v2.45Z"/>
  <path class="cls-4" d="m30.75,21.95c0,2.01-1.59,3.52-3.54,3.52s-3.54-1.51-3.54-3.52,1.61-3.52,3.54-3.52,3.54,1.59,3.54,3.52m-.84,0c0-1.49-1.11-2.73-2.7-2.73s-2.7,1.25-2.7,2.73,1.24,2.74,2.7,2.74,2.7-1.19,2.7-2.74"/>
  <polygon class="cls-4" points="36.72 18.57 37.82 18.57 34.78 21.61 37.88 25.33 36.74 25.33 34.19 22.18 33.85 22.51 33.85 25.33 33.01 25.33 33.01 18.57 33.85 18.57 33.85 21.5 36.72 18.57"/>
  <path class="cls-4" d="m46.44,21.95c0,2.01-1.59,3.52-3.54,3.52s-3.54-1.51-3.54-3.52,1.6-3.52,3.54-3.52,3.54,1.59,3.54,3.52m-.84,0c0-1.49-1.11-2.73-2.7-2.73s-2.7,1.25-2.7,2.73,1.24,2.74,2.7,2.74,2.7-1.19,2.7-2.74"/>
  <polygon class="cls-4" points="50.93 23.57 52.94 18.57 53.86 18.57 50.93 25.69 47.99 18.57 48.91 18.57 50.93 23.57"/>
  <rect class="cls-4" x="55.85" y="18.57" width=".84" height="6.76"/>
  <path class="cls-4" d="m64.33,19.86c-.48-.43-1.15-.66-1.78-.66-1.52,0-2.67,1.26-2.67,2.76s1.15,2.74,2.65,2.74c.66,0,1.3-.25,1.8-.7v.99c-.52.31-1.18.48-1.78.48-1.93,0-3.52-1.53-3.52-3.49s1.6-3.56,3.6-3.56c.59,0,1.19.14,1.7.46v.98Z"/>
  <polygon class="cls-4" points="66.77 18.57 70.41 18.57 70.41 19.34 67.62 19.34 67.62 21.23 70.32 21.23 70.32 22 67.62 22 67.62 24.56 70.41 24.56 70.41 25.33 66.77 25.33 66.77 18.57"/>
  <path class="cls-3" d="m10.15,11.85h-2.32l-1.76-2.76h-.02v2.76h-1.87v-7.17h2.79c1.42,0,2.49.68,2.49,2.21,0,.99-.55,1.85-1.57,2.03l2.25,2.94Zm-4.1-3.96h.18c.61,0,1.29-.11,1.29-.89s-.68-.89-1.29-.89h-.18v1.79Z"/>
  <polygon class="cls-3" points="13.63 6.26 13.63 7.45 15.73 7.45 15.73 9.03 13.63 9.03 13.63 10.27 15.84 10.27 15.84 11.85 11.76 11.85 11.76 4.68 15.84 4.68 15.84 6.26 13.63 6.26"/>
  <polygon class="cls-3" points="18.1 4.68 19.96 4.68 23.38 9.06 23.4 9.06 23.4 4.68 25.26 4.68 25.26 11.85 23.4 11.85 19.98 7.45 19.96 7.45 19.96 11.85 18.1 11.85 18.1 4.68"/>
  <polygon class="cls-3" points="30.44 11.85 28.57 11.85 28.57 6.26 27.03 6.26 27.03 4.68 31.98 4.68 31.98 6.26 30.44 6.26 30.44 11.85"/>
  <path class="cls-3" d="m38.88,7.08c-.38-.51-1-.79-1.64-.79-1.14,0-1.91.88-1.91,1.99s.78,1.95,1.94,1.95c.61,0,1.22-.29,1.61-.76v2.24c-.62.19-1.07.33-1.65.33-1,0-1.95-.38-2.69-1.06-.79-.71-1.15-1.65-1.15-2.71,0-.98.37-1.92,1.06-2.63.7-.72,1.72-1.16,2.73-1.16.6,0,1.15.13,1.7.36v2.24Z"/>
  <path class="cls-3" d="m42.96,10.6l-.49,1.25h-1.98l2.76-7.17h2.04l2.7,7.17h-1.99l-.47-1.25h-2.57Zm1.3-3.71h-.02l-.77,2.28h1.55l-.76-2.28Z"/>
  <path class="cls-3" d="m55.64,11.85h-2.32l-1.76-2.76h-.02v2.76h-1.87v-7.17h2.79c1.42,0,2.49.68,2.49,2.21,0,.99-.55,1.85-1.57,2.03l2.26,2.94Zm-4.1-3.96h.18c.61,0,1.29-.11,1.29-.89s-.69-.89-1.29-.89h-.18v1.79Z"/>
  <polygon class="cls-6" points="57.87 4.61 66.32 11.9 57.89 11.9 57.87 4.61"/>
  <path class="cls-2" d="m75.45,15.4v12.81h-7.74s-.08-.02-.12-.02c-.39,0-.77,0-1.15,0h-1.36c-.23,0-.46,0-.68,0-.23,0-.46,0-.68,0h-.7c-.23,0-.45,0-.68,0-.23,0-.46,0-.68,0h-.68c-.23,0-.46,0-.68,0h-2.05c-.23,0-.46,0-.7,0h-1.36c-.23,0-.46,0-.68,0-.23,0-.45,0-.68,0s-.46,0-.68,0h-.68c-.23,0-.46,0-.68,0h-.7c-.23,0-.46,0-.68,0-.23,0-.45,0-.68,0-.23,0-.45-.01-.68,0-.15,0-.29-.01-.44-.01-1.51,0-3.01,0-4.51,0-2.03,0-4.07,0-6.1,0-2.04,0-4.08.02-6.11-.02-.14,0-.28,0-.41.01-.15,0-.31,0-.47,0-.14,0-.29-.01-.43-.01-1.07,0-2.13,0-3.2,0h-2.95c-.33,0-.66,0-.98,0s-.66,0-.98,0h-1.97c-.33,0-.67,0-1,0h-.98c-.33,0-.65,0-.98,0h-.98c-.33,0-.66,0-.98,0-.33,0-.65,0-.98,0-.33,0-.65,0-.98,0-.28,0-.56-.01-.84-.01-2.38,0-4.76,0-7.14,0-1.71,0-3.43,0-5.14,0-.48,0-.96,0-1.44,0V0h58.05c.15.14.3.27.45.41.16.15.33.29.49.43.28.25.56.5.84.74.17.15.35.31.52.46.29.25.58.51.86.76.18.16.35.31.53.47.27.24.54.47.81.71.19.17.37.33.56.5.29.26.59.52.88.78.16.14.33.29.49.43.27.24.54.48.82.72.19.17.38.34.57.51.29.26.59.52.88.78.16.14.33.29.49.43.28.24.56.49.84.74.18.16.35.31.53.47.29.25.57.51.86.76.18.16.35.31.53.47.27.24.54.48.82.72.18.16.36.33.55.49.29.26.59.52.88.78.16.15.33.29.49.44.27.24.55.48.82.73.19.16.37.33.56.5.29.26.59.52.88.78.15.14.31.27.46.4M.76.76v26.45s0,.07,0,.1c0,0,0,0,0,.01,0,0,0,0,.01.01h.13c3.41,0,6.82,0,10.23,0,.78,0,1.57,0,2.35,0,.07,0,.14.01.21.01.07,0,.15-.01.22-.01.28,0,.57.01.85.01,1.09,0,2.17,0,3.25,0,4.57,0,9.14,0,13.71,0,.31,0,.63.01.94.01,1.09,0,2.19,0,3.28,0h1.74c.29,0,.59,0,.88,0h.88c.29,0,.58,0,.87,0,.29,0,.59,0,.88,0h.88c.29,0,.58,0,.87,0h1.76c.29,0,.59,0,.88,0s.58,0,.86,0h.88c.29,0,.59,0,.88,0s.58,0,.87,0c.29,0,.58,0,.87,0,.22,0,.43.01.65.01,1.09,0,2.19,0,3.28,0h.8c.27,0,.53,0,.8,0h1.6c.27,0,.53,0,.8,0h1.6c.27,0,.53,0,.8,0h.79c.27,0,.53,0,.8,0h1.6c.27,0,.53,0,.8,0s.53,0,.8,0h.8c.27,0,.53,0,.8,0,.26,0,.53,0,.8,0,.27,0,.53,0,.79,0,.07,0,.15.02.22.02,2.02,0,4.04,0,6.06,0h.13v-11.69s-.06-.07-.1-.1c-.29-.26-.58-.51-.87-.77-.17-.15-.34-.31-.52-.46-.27-.24-.54-.48-.82-.72-.18-.16-.36-.33-.55-.49-.29-.26-.58-.51-.87-.77-.17-.15-.33-.3-.5-.44-.27-.24-.54-.47-.81-.71-.19-.17-.38-.35-.58-.52-.29-.26-.59-.52-.88-.78-.16-.14-.33-.29-.49-.43-.28-.25-.56-.5-.84-.74-.17-.15-.34-.31-.52-.46-.29-.25-.58-.51-.86-.76-.18-.16-.35-.31-.53-.47-.28-.24-.55-.48-.83-.73-.18-.16-.36-.32-.54-.48-.29-.26-.58-.51-.87-.77-.17-.15-.33-.3-.5-.44-.27-.24-.54-.48-.82-.72-.19-.17-.38-.34-.57-.51-.29-.26-.59-.52-.88-.78-.16-.15-.33-.29-.49-.44-.26-.23-.53-.46-.79-.69-.19-.17-.38-.34-.57-.51-.09-.08-.19-.16-.28-.24-.06-.06-.14-.08-.22-.08-18.9,0-37.8,0-56.69,0h-.16Z"/>
  <path class="cls-2" d="m70.41,15.3v.75H3.34v-.74s.07-.01.1-.01c.21,0,.41,0,.62,0h66.35Z"/>
  <path class="cls-5" d="m73.74,30.2v.95h1.09l-1.14,4.75v.93h1.76v-.95h-1.14l1.14-4.75v-.93h-1.71Zm-1.17,4.16v.95c0,.47-.12.64-.31.64s-.31-.17-.31-.64v-3.58c0-.47.12-.65.31-.65s.31.18.31.65v.71h.57v-.64c0-1.06-.31-1.67-.9-1.67s-.9.61-.9,1.67v3.45c0,1.06.31,1.67.9,1.67s.9-.61.9-1.67v-.88h-.57Zm-2.41,2.47h.58v-1h-.58v1Zm-1.68-5.68h1.04v-.95h-1.64v6.63h1.64v-.95h-1.04v-1.94h.83v-.95h-.83v-1.85Zm-1.81,3.21v.95c0,.47-.12.64-.31.64s-.31-.17-.31-.64v-3.58c0-.47.12-.65.31-.65s.31.18.31.65v.71h.57v-.64c0-1.06-.31-1.67-.9-1.67s-.9.61-.9,1.67v3.45c0,1.06.31,1.67.9,1.67s.9-.61.9-1.67v-.88h-.57Zm-2.49,2.47h.6v-6.63h-.6v6.63Zm-2.02-6.63h-.61l.59,6.63h.9l.59-6.63h-.55l-.45,5.41h-.01l-.45-5.41Zm-2.93,5.04c0,1.06.32,1.67.91,1.67s.91-.61.91-1.67v-3.45c0-1.06-.32-1.67-.91-1.67s-.91.61-.91,1.67v3.45Zm.6-3.51c0-.47.12-.65.31-.65s.31.18.31.65v3.58c0,.47-.12.65-.31.65s-.31-.18-.31-.65v-3.58Zm-1.68,5.1h.62l-.84-3.67.84-2.95h-.6l-.78,2.87h-.01v-2.87h-.6v6.63h.6v-2.04l.19-.61.59,2.64Zm-3.86-1.59c0,1.06.32,1.67.91,1.67s.91-.61.91-1.67v-3.45c0-1.06-.32-1.67-.91-1.67s-.91.61-.91,1.67v3.45Zm.6-3.51c0-.47.12-.65.31-.65s.31.18.31.65v3.58c0,.47-.12.65-.31.65s-.31-.18-.31-.65v-3.58Zm-2.13-.58c.21,0,.31.21.31.68v.65c0,.53-.14.7-.36.7h-.23v-2.04h.29Zm.98,5.68c-.06-.25-.07-.48-.07-.81v-1.02c0-.69-.1-1.18-.4-1.4v-.02c.27-.22.39-.65.39-1.33v-.52c0-1.02-.27-1.52-.89-1.52h-.91v6.63h.6v-2.7h.21c.27,0,.39.23.39.84v1.04c0,.54.02.64.05.81h.61Zm-4.27-5.68h.63v5.68h.6v-5.68h.63v-.95h-1.86v.95Zm-2.31,4.09c0,1.06.32,1.67.91,1.67s.91-.61.91-1.67v-3.45c0-1.06-.32-1.67-.91-1.67s-.91.61-.91,1.67v3.45Zm.6-3.51c0-.47.12-.65.31-.65s.31.18.31.65v3.58c0,.47-.12.65-.31.65s-.31-.18-.31-.65v-3.58Z"/>
  <path class="cls-1" d="m46.07,36.83h.62l-.84-3.67.84-2.95h-.6l-.78,2.87h-.01v-2.87h-.6v6.63h.6v-2.04l.19-.61.58,2.64Zm-3.06-5.68h1.04v-.95h-1.64v6.63h1.64v-.95h-1.04v-1.94h.83v-.95h-.83v-1.85Zm-2.63-.95h-.61l.59,6.63h.9l.59-6.63h-.55l-.45,5.41h-.01l-.45-5.41Zm-1.95,1.17h.01l.28,3.35h-.58l.28-3.35Zm.48-1.17h-.88l-.61,6.63h.55l.1-1.2h.74l.1,1.2h.61l-.61-6.63Zm-2.89.95c.19,0,.31.17.31.64v3.45c0,.47-.11.64-.31.64h-.34v-4.73h.34Zm-.94,5.68h.95c.6,0,.9-.58.9-1.64v-3.35c0-1.06-.3-1.64-.9-1.64h-.95v6.63Zm-2.49-1.59c0,1.06.32,1.67.91,1.67s.91-.61.91-1.67v-3.45c0-1.06-.32-1.67-.91-1.67s-.91.61-.91,1.67v3.45Zm.6-3.51c0-.47.12-.65.31-.65s.31.18.31.65v3.58c0,.47-.12.65-.31.65s-.31-.18-.31-.65v-3.58Zm-2.12-.58c.19,0,.31.17.31.64v3.45c0,.47-.11.64-.31.64h-.34v-4.73h.34Zm-.94,5.68h.95c.6,0,.9-.58.9-1.64v-3.35c0-1.06-.3-1.64-.9-1.64h-.95v6.63Z"/>
  <path class="cls-5" d="m28.49,31.37h.01l.28,3.35h-.58l.28-3.35Zm.48-1.17h-.88l-.61,6.63h.55l.1-1.2h.74l.1,1.2h.61l-.61-6.63Zm-2.66,6.63h.62v-6.63h-.54v3.97h-.01l-.61-3.97h-.76v6.63h.54v-4.8h.01l.74,4.8Zm-3.31-6.63h-.61l.59,6.63h.9l.59-6.63h-.55l-.45,5.41h-.01l-.45-5.41Zm-2.93,5.04c0,1.06.32,1.67.91,1.67s.91-.61.91-1.67v-3.45c0-1.06-.32-1.67-.91-1.67s-.91.61-.91,1.67v3.45Zm.6-3.51c0-.47.12-.65.31-.65s.31.18.31.65v3.58c0,.47-.12.65-.31.65s-.31-.18-.31-.65v-3.58Zm-1.76,2.63v.95c0,.47-.12.64-.31.64s-.31-.17-.31-.64v-3.58c0-.47.12-.65.31-.65s.31.18.31.65v.71h.57v-.64c0-1.06-.31-1.67-.9-1.67s-.9.61-.9,1.67v3.45c0,1.06.31,1.67.9,1.67s.9-.61.9-1.67v-.88h-.57Zm-3.01,2.47c.1.02.18.02.29.02.45,0,.86-.34.86-1.67v-4.98h-.6v5.06c0,.51-.15.63-.34.63-.07,0-.14,0-.21,0v.95Zm-2.31-6.63v5.05c0,1.06.31,1.67.9,1.67s.9-.61.9-1.67v-5.05h-.57v5.11c0,.47-.12.64-.31.64s-.31-.17-.31-.64v-5.11h-.6Zm-1.42.95c.19,0,.3.15.3.62v.99c0,.47-.1.62-.3.62h-.28v-2.24h.28Zm0-.95h-.89v6.63h.6v-2.49h.28c.6,0,.9-.58.9-1.64v-.86c0-1.06-.3-1.64-.9-1.64m-2.18,6.63h.58v-1h-.58v1Zm-1.58,0h.8l.43-6.63h-.53l-.31,5.26h-.01l-.29-5.26h-.58l-.28,5.23h-.01l-.32-5.23h-.59l.43,6.63h.83l.21-3.53h.01l.21,3.53Zm-3.35,0h.8l.43-6.63h-.52l-.31,5.26h-.01l-.3-5.26h-.58l-.29,5.23h-.01l-.32-5.23h-.58l.43,6.63h.83l.21-3.53h0l.21,3.53Zm-3.35,0h.8l.43-6.63h-.52l-.31,5.26h-.01l-.3-5.26h-.58l-.29,5.23h-.01l-.32-5.23H0l.43,6.63h.82l.21-3.53h.01l.21,3.53Z"/>
</svg>