<?xml version="1.0" encoding="UTF-8"?>
<svg id="Vrstva_1" data-name="Vrstva 1" xmlns="http://www.w3.org/2000/svg" viewBox="0 0 39.18 45.62">
  <defs>
    <style>
      .cls-1 {
        fill: #e63312;
      }

      .cls-1, .cls-2, .cls-3 {
        stroke-width: 0px;
      }

      .cls-3 {
        fill: #7eb429;
      }
    </style>
  </defs>
  <rect class="cls-3" x="13.84" y="8.96" width="1.28" height="22.37"/>
  <path class="cls-2" d="m38.53,23.87c0,.58-.46,1.01-1.03,1.01-.54,0-1-.46-1-1s.44-1.04,1.01-1.04,1.02.47,1.02,1.03m.28,1.34v-.33h-.49c.37-.19.55-.6.55-1.01,0-.36-.13-.72-.55-1.11-.09-.09-.44-.27-.78-.27-.39,0-.72.16-.82.26-.38.33-.55.75-.55,1.14s.18.8.55,1h-.49v.33h2.58Z"/>
  <rect class="cls-2" x="36.22" y="25.99" width=".59" height=".35"/>
  <path class="cls-2" d="m36.98,27.26c-.27,0-.49.2-.49.47,0,.25.17.45.43.45.31,0,.42-.25.5-.5.05-.17.1-.34.23-.47.12-.14.31-.21.49-.21.42,0,.72.34.72.74s-.32.71-.7.71v-.35c.23,0,.36-.18.36-.4,0-.2-.16-.36-.36-.36-.28,0-.36.23-.43.45-.12.39-.29.72-.75.72s-.82-.35-.82-.84c0-.44.38-.81.82-.78v.35Z"/>
  <rect class="cls-2" x="36.22" y="29.13" width=".59" height=".35"/>
  <path class="cls-3" d="m.06,7.82C.12,7.08.37,1.72.47.32l.1-.06c1.49,1.09,4.85,3.63,5.21,3.91,0-.58-.03-3.38-.02-3.83l2.14.05c-.06.82-.16,2.38-.25,3.91-.08,1.52-.16,3.01-.19,3.69l-.1.05c-1.26-.82-5.04-3.81-5.19-3.94,0,.43.01,3.46.02,3.8l-2.14-.07Z"/>
  <path class="cls-3" d="m11.48,5.15c.27-.59.64-1.36.89-1.86.19.43.59,1.17.88,1.77l-1.77.09Zm-1.36,3.01c.23-.49.61-1.31.69-1.46l3.15-.18c.11.18.64,1.11.94,1.62l2.07-1.23c-.44-.6-3.26-5.03-4.51-6.92h-.1c-1.02,1.6-3.92,6.51-4.23,7.05l1.99,1.11Z"/>
  <path class="cls-3" d="m18.29,7.82c.02-.27.03-1.76.03-2.9v-2.74c-.5,0-1.99.05-2.32.06V.41c.47.04,2.95.08,3.07.08h.91c.2,0,2.48-.04,2.99-.08v1.83c-.2,0-2.14-.06-2.3-.06v2.91c0,1.08.01,2.52.03,2.73h-2.42Z"/>
  <path class="cls-3" d="m25.8,2.97c0,1.68.08,2.43.48,2.9.24.28.57.38.89.38.37,0,.7-.15.93-.49.28-.43.3-.87.3-3.25v-.4c0-.72-.04-1.45-.05-1.83h2.4c0,.23.01,1.03.01,1.85v.48c0,2.01-.11,3.25-.91,4.2-.64.78-1.65,1.17-2.82,1.17-.86,0-2.14-.15-2.93-1.31-.51-.76-.69-1.54-.69-4.08v-.57c0-.48.01-1.35.01-1.59h2.44c-.04.27-.06.87-.06,1.82v.71Z"/>
  <path class="cls-3" d="m34.19,4.62c0,.4.03,3.05.05,3.21h-2.33c.04-.25.02-3.57.02-3.79v-.86c0-.32-.02-2.59-.05-2.79,1.44,0,2.89.02,3.83.15,1.55.2,2.39.81,2.39,1.77,0,.86-.53,1.52-1.35,2.09.31.36,1.92,1.98,2.19,2.31l-1.92,1.45c-.24-.4-2.27-3.34-2.55-3.8.46-.27,1.2-.85,1.2-1.55,0-.49-.35-.96-1.48-.97v2.79Z"/>
  <path class="cls-2" d="m1.37,8.62c.25.78,4.18,9.3,4.73,10.55.5-1.15,4.92-9.99,5.12-10.55l.96.51c-.67,1.18-5.61,10.95-6.17,12.13h-.03c-.29-.54-5.09-11.03-5.61-12.13l.99-.51Z"/>
  <path class="cls-2" d="m22.07,20.68c.05-.44.07-5.36.07-8.03v-2.83c-2.19,0-4.33.07-4.85.08v-.96c.76.08,4.5.12,4.68.12h1.46c.32,0,3.74-.05,4.57-.12v.96c-.32-.02-3.18-.08-4.85-.08v3.1c0,3.42.08,7.43.12,7.76h-1.2Z"/>
  <path class="cls-2" d="m30.02,15.88c.17-.4,2.22-4.73,2.68-5.69.34.76,2.53,4.97,2.78,5.49l-5.46.2Zm-2.41,5.12c.27-.57,1.72-3.82,2-4.33l6.23-.22c.25.44,2.02,3.89,2.38,4.53l.96-.57c-1.28-2.14-5.16-9.77-6.45-12.13h-.03c-.34.66-4.99,10.22-6.03,12.2l.94.52Z"/>
  <path class="cls-1" d="m21.73,39.75c-2.93,1.1-5.97,2.86-7.24,5.86-1.28-3.04-4.31-4.76-7.28-5.86l-2.17-.79c-1.55-.55-2.52-1.24-3.52-2.62-1-1.35-1.52-2.97-1.52-4.62,0-4.1,2.79-7.17,6.97-7.17,3.76,0,6.55,2.59,7.52,6.1,1.07-3.52,3.66-6.1,7.48-6.1,4.17,0,7,3.04,7,7.14,0,3.35-1.96,6.14-5.07,7.28l-2.17.79Z"/>
</svg>