<?xml version="1.0" encoding="UTF-8"?>
<svg id="Vrstva_1" data-name="Vrstva 1" xmlns="http://www.w3.org/2000/svg" viewBox="0 0 65.01 26.96">
  <defs>
    <style>
      .cls-1 {
        stroke-width: 0px;
      }
    </style>
  </defs>
  <g>
    <path class="cls-1" d="m15.44,8.41l1.1-.64c.31.78,1.01,1.12,1.96,1.12,1.2,0,2-.56,2-1.78V.19h1.29v6.92c0,2.04-1.5,3.05-3.28,3.05-1.38,0-2.54-.59-3.06-1.75"/>
    <path class="cls-1" d="m23.17,6.48c0-2.07,1.63-3.68,3.67-3.68s3.69,1.61,3.69,3.68-1.65,3.68-3.69,3.68-3.67-1.61-3.67-3.68m6.15,0c0-1.41-1.08-2.49-2.47-2.49s-2.46,1.08-2.46,2.49,1.08,2.49,2.46,2.49,2.47-1.08,2.47-2.49"/>
    <path class="cls-1" d="m36.79,8.06c0,1.3-1.12,2.1-2.61,2.1-1.4,0-2.38-.67-2.78-1.64l1.05-.6c.22.67.87,1.09,1.73,1.09.74,0,1.38-.26,1.38-.95,0-1.49-3.91-.64-3.91-3.17,0-1.23,1.06-2.08,2.47-2.08,1.15,0,2.07.54,2.52,1.45l-1.02.57c-.26-.63-.88-.89-1.49-.89s-1.24.31-1.24.94c0,1.5,3.91.62,3.91,3.19"/>
    <path class="cls-1" d="m41.41,9.01c.96,0,1.66-.45,2.01-1.02l1.03.59c-.61.95-1.68,1.58-3.07,1.58-2.25,0-3.75-1.58-3.75-3.68s1.48-3.68,3.66-3.68,3.48,1.73,3.48,3.69c0,.18-.01.36-.04.54h-5.86c.24,1.26,1.23,1.97,2.53,1.97m-2.53-3.03h4.67c-.21-1.38-1.2-2.03-2.25-2.03-1.31,0-2.22.81-2.42,2.03"/>
    <path class="cls-1" d="m47.72,2.78v.21h1.84v1.17h-1.84v5.81h-1.22v-5.81h-1.12v-1.17h1.12v-.21c0-1.86,1.06-2.91,3.06-2.77v1.17c-1.22-.1-1.84.38-1.84,1.59"/>
  </g>
  <g>
    <path class="cls-1" d="m0,21.89c0-2.82,2.12-5.07,5.11-5.07,1.8,0,3.4.94,4.22,2.38l-1.13.66c-.56-1.08-1.75-1.78-3.09-1.78-2.29,0-3.83,1.66-3.83,3.82s1.54,3.8,3.83,3.8c1.34,0,2.53-.7,3.09-1.76l1.13.64c-.81,1.44-2.4,2.39-4.22,2.39-2.99,0-5.11-2.26-5.11-5.07"/>
    <path class="cls-1" d="m16.91,22.49v4.29h-1.22v-4.22c0-1.15-.66-1.79-1.73-1.79s-2.03.66-2.03,2.31v3.7h-1.22v-9.78h1.22v3.8c.52-.83,1.29-1.19,2.26-1.19,1.64,0,2.71,1.09,2.71,2.88"/>
    <path class="cls-1" d="m18.22,23.29c0-2.07,1.63-3.68,3.67-3.68s3.69,1.61,3.69,3.68-1.65,3.68-3.69,3.68-3.67-1.61-3.67-3.68m6.15,0c0-1.41-1.08-2.49-2.47-2.49s-2.46,1.08-2.46,2.49,1.08,2.49,2.46,2.49,2.47-1.08,2.47-2.49"/>
    <polygon class="cls-1" points="32.95 19.79 30.16 26.78 28.73 26.78 25.93 19.79 27.25 19.79 29.44 25.48 31.64 19.79 32.95 19.79"/>
    <path class="cls-1" d="m40.71,19.79v6.99h-1.22v-1.2c-.56.85-1.45,1.38-2.64,1.38-1.94,0-3.54-1.61-3.54-3.68s1.59-3.68,3.54-3.68c1.19,0,2.08.53,2.64,1.38v-1.2h1.22Zm-1.22,3.49c0-1.43-1.08-2.5-2.49-2.5s-2.47,1.08-2.47,2.5,1.08,2.5,2.47,2.5,2.49-1.08,2.49-2.5"/>
    <path class="cls-1" d="m48.75,22.49v4.29h-1.22v-4.22c0-1.15-.66-1.79-1.73-1.79s-2.03.66-2.03,2.31v3.7h-1.22v-6.99h1.22v1.01c.52-.83,1.29-1.19,2.26-1.19,1.64,0,2.71,1.09,2.71,2.88"/>
    <path class="cls-1" d="m53.82,25.82c.96,0,1.66-.45,2.01-1.02l1.03.59c-.61.95-1.68,1.58-3.07,1.58-2.25,0-3.75-1.58-3.75-3.68s1.48-3.68,3.66-3.68,3.48,1.73,3.48,3.69c0,.18-.01.36-.04.54h-5.86c.24,1.26,1.23,1.97,2.53,1.97m-2.53-3.03h4.67c-.21-1.38-1.2-2.03-2.25-2.03-1.31,0-2.22.81-2.42,2.03"/>
    <path class="cls-1" d="m58.19,23.29c0-2.07,1.56-3.68,3.68-3.68,1.38,0,2.56.73,3.09,1.83l-1.02.59c-.35-.74-1.13-1.23-2.07-1.23-1.4,0-2.46,1.08-2.46,2.49s1.06,2.47,2.46,2.47c.95,0,1.72-.49,2.11-1.22l1.03.6c-.59,1.09-1.77,1.82-3.14,1.82-2.11,0-3.68-1.61-3.68-3.68"/>
  </g>
</svg>