<?xml version="1.0" encoding="UTF-8"?>
<svg id="Vrstva_1" data-name="Vrstva 1" xmlns="http://www.w3.org/2000/svg" viewBox="0 0 79.93 24.33">
  <defs>
    <style>
      .cls-1 {
        stroke-width: 0px;
      }
    </style>
  </defs>
  <polygon class="cls-1" points="4.82 10.04 1.14 5.22 1.14 10.04 0 10.04 0 0 1.14 0 1.14 4.53 4.7 0 6.09 0 2.32 4.88 6.21 10.04 4.82 10.04"/>
  <path class="cls-1" d="m12.68,2.87v7.17h-1.06v-1.23c-.49.88-1.27,1.42-2.31,1.42-1.7,0-3.09-1.65-3.09-3.77s1.39-3.77,3.09-3.77c1.04,0,1.82.54,2.31,1.42v-1.23h1.06Zm-1.06,3.59c0-1.46-.94-2.57-2.17-2.57s-2.16,1.1-2.16,2.57.94,2.57,2.16,2.57,2.17-1.1,2.17-2.57"/>
  <path class="cls-1" d="m15.99,4.07v3.89c0,1.09.54,1.02,1.62.96v1.12c-1.83.29-2.69-.29-2.69-2.08v-3.89h-1.21v-1.2h1.21v-1.64l1.06-.37v2.01h1.62v1.2h-1.62Z"/>
  <polygon class="cls-1" points="22.72 10.04 19.94 6.64 19.94 10.04 18.87 10.04 18.87 0 19.94 0 19.94 6.04 22.57 2.87 23.94 2.87 21.02 6.34 24.04 10.04 22.72 10.04"/>
  <path class="cls-1" d="m30.58,2.87v7.17h-1.06v-1.23c-.49.88-1.27,1.42-2.31,1.42-1.7,0-3.09-1.65-3.09-3.77s1.39-3.77,3.09-3.77c1.04,0,1.82.54,2.31,1.42v-1.23h1.06Zm-1.06,3.59c0-1.46-.94-2.57-2.17-2.57s-2.16,1.1-2.16,2.57.94,2.57,2.16,2.57,2.17-1.1,2.17-2.57"/>
  <path class="cls-1" d="m41.36,2.87v7.17h-1.06v-1.23c-.49.88-1.27,1.42-2.31,1.42-1.7,0-3.09-1.65-3.09-3.77s1.39-3.77,3.09-3.77c1.04,0,1.82.54,2.31,1.42v-1.23h1.06Zm-1.06,3.59c0-1.46-.94-2.57-2.17-2.57s-2.16,1.1-2.16,2.57.94,2.57,2.16,2.57,2.17-1.1,2.17-2.57"/>
  <polygon class="cls-1" points="52.54 0 52.54 10.04 51.42 10.04 51.42 5.52 47.27 5.52 47.27 10.04 46.13 10.04 46.13 0 47.27 0 47.27 4.26 51.42 4.26 51.42 0 52.54 0"/>
  <path class="cls-1" d="m53.92,6.45c0-2.12,1.43-3.77,3.21-3.77s3.22,1.65,3.22,3.77-1.44,3.77-3.22,3.77-3.21-1.65-3.21-3.77m5.37,0c0-1.45-.94-2.55-2.16-2.55s-2.15,1.1-2.15,2.55.94,2.55,2.15,2.55,2.16-1.11,2.16-2.55"/>
  <path class="cls-1" d="m67.02,5.64v4.4h-1.06v-4.33c0-1.17-.58-1.84-1.51-1.84s-1.77.67-1.77,2.37v3.8h-1.06V2.87h1.06v1.03c.45-.85,1.12-1.22,1.98-1.22,1.43,0,2.37,1.12,2.37,2.95"/>
  <polygon class="cls-1" points="72.92 8.85 72.92 10.04 68.22 10.04 68.22 9.21 71.33 4.06 68.34 4.06 68.34 2.87 72.8 2.87 72.8 3.7 69.67 8.85 72.92 8.85"/>
  <path class="cls-1" d="m79.93,2.87v7.17h-1.06v-1.23c-.49.88-1.27,1.42-2.31,1.42-1.7,0-3.09-1.65-3.09-3.77s1.39-3.77,3.09-3.77c1.04,0,1.82.54,2.31,1.42v-1.23h1.06Zm-1.06,3.59c0-1.46-.94-2.57-2.17-2.57s-2.16,1.1-2.16,2.57.94,2.57,2.16,2.57,2.17-1.1,2.17-2.57"/>
  <path class="cls-1" d="m24.87,21.3c0,1.61-1.1,2.84-2.48,2.84h-3.69v-10.04h3.42c1.33,0,2.39,1.19,2.39,2.74,0,.9-.37,1.64-.93,2.09.77.43,1.28,1.28,1.28,2.37m-5.03-5.95v3.07h2.28c.71,0,1.27-.67,1.27-1.54s-.56-1.53-1.27-1.53h-2.28Zm3.91,5.91c0-.9-.6-1.62-1.35-1.62h-2.55v3.26h2.55c.75,0,1.35-.72,1.35-1.64"/>
  <path class="cls-1" d="m25.67,14.1h1.14l.74,1.16.74-1.16h1.14l-1.29,1.94h-1.17l-1.29-1.94Zm3.4,2.74v1.31c-.92-.04-1.9.5-1.9,2.19v3.8h-1.06v-7.17h1.06v1.2c.39-1,1.13-1.33,1.9-1.33"/>
  <path class="cls-1" d="m32.73,23.15c.84,0,1.45-.46,1.76-1.05l.9.6c-.54.98-1.47,1.62-2.68,1.62-1.97,0-3.27-1.62-3.27-3.77s1.29-3.77,3.2-3.77,3.04,1.78,3.04,3.79c0,.19-.01.37-.04.56h-5.11c.21,1.29,1.07,2.02,2.21,2.02m-2.21-3.11h4.08c-.18-1.42-1.05-2.08-1.97-2.08-1.15,0-1.94.83-2.11,2.08"/>
  <polygon class="cls-1" points="41.03 22.95 41.03 24.14 36.33 24.14 36.33 23.31 39.44 18.16 36.45 18.16 36.45 16.97 40.91 16.97 40.91 17.81 37.78 22.95 41.03 22.95"/>
  <path class="cls-1" d="m41.58,20.56c0-2.12,1.43-3.77,3.21-3.77s3.22,1.65,3.22,3.77-1.44,3.77-3.22,3.77-3.21-1.65-3.21-3.77m5.37,0c0-1.45-.94-2.55-2.16-2.55s-2.15,1.1-2.15,2.55.94,2.55,2.15,2.55,2.16-1.1,2.16-2.55"/>
  <polygon class="cls-1" points="54.45 16.97 52.01 24.14 50.76 24.14 48.32 16.97 49.47 16.97 51.38 22.81 53.3 16.97 54.45 16.97"/>
  <path class="cls-1" d="m61.22,16.97v7.17h-1.06v-1.23c-.49.88-1.27,1.42-2.31,1.42-1.7,0-3.09-1.65-3.09-3.77s1.39-3.77,3.09-3.77c1.04,0,1.82.54,2.31,1.42v-1.23h1.06Zm-1.06,3.59c0-1.46-.94-2.57-2.17-2.57s-2.16,1.11-2.16,2.57.94,2.57,2.16,2.57,2.17-1.11,2.17-2.57m-1.83-4.56h-1.03l.98-1.89h1.28l-1.23,1.89Z"/>
</svg>