<?xml version="1.0" encoding="UTF-8"?>
<svg id="Vrstva_1" data-name="Vrstva 1" xmlns="http://www.w3.org/2000/svg" viewBox="0 0 140.1 11.7">
  <defs>
    <style>
      .cls-1 {
        stroke-width: 0px;
      }
    </style>
  </defs>
  <path class="cls-1" d="m0,.17h2.54v5.02h.03c.25-.44.52-.84.79-1.24L5.92.17h3.16l-3.75,4.83,3.94,6.51h-2.98l-2.79-4.9-.96,1.19v3.7H0V.17Z"/>
  <path class="cls-1" d="m13.2,8.6l-.81,2.91h-2.64L13.2.17h3.37l3.53,11.34h-2.78l-.88-2.91h-3.25Zm2.88-1.92l-.71-2.41c-.2-.67-.4-1.51-.57-2.19h-.03c-.17.67-.34,1.53-.52,2.19l-.67,2.41h2.51Z"/>
  <path class="cls-1" d="m31.19,7.17c-.05-1.36-.1-3.01-.1-4.66h-.03c-.37,1.45-.84,3.06-1.28,4.39l-1.38,4.43h-2l-1.21-4.38c-.37-1.35-.74-2.96-1.03-4.44h-.03c-.05,1.53-.12,3.28-.18,4.69l-.22,4.31h-2.37L22.07.17h3.42l1.11,3.79c.37,1.31.71,2.73.96,4.06h.07c.3-1.31.69-2.81,1.08-4.07l1.2-3.77h3.37l.61,11.34h-2.49l-.18-4.34Z"/>
  <rect class="cls-1" x="35.85" y=".17" width="2.56" height="11.34"/>
  <path class="cls-1" d="m40.63.32c.83-.13,2.04-.24,3.42-.24,1.68,0,2.86.25,3.67.89.69.54,1.06,1.35,1.06,2.39,0,1.43-1.03,2.42-2,2.78v.05c.79.32,1.23,1.06,1.51,2.1.35,1.3.69,2.78.91,3.22h-2.63c-.17-.34-.45-1.25-.77-2.64-.32-1.43-.81-1.8-1.87-1.82h-.76v4.46h-2.54V.32Zm2.54,4.88h1.01c1.28,0,2.04-.64,2.04-1.63s-.71-1.56-1.89-1.56c-.62,0-.98.03-1.16.08v3.11Z"/>
  <path class="cls-1" d="m53.4,8.6l-.81,2.91h-2.64L53.4.17h3.37l3.53,11.34h-2.78l-.88-2.91h-3.25Zm2.88-1.92l-.71-2.41c-.2-.67-.4-1.51-.57-2.19h-.03c-.17.67-.34,1.53-.52,2.19l-.67,2.41h2.51Z"/>
  <path class="cls-1" d="m65.2.32c.79-.13,1.9-.24,3.47-.24s2.71.3,3.47.91c.74.57,1.21,1.51,1.21,2.62s-.35,2.07-1.04,2.69c-.88.81-2.17,1.19-3.69,1.19-.34,0-.64-.02-.88-.07v4.07h-2.54V.32Zm2.54,5.15c.22.05.47.07.86.07,1.36,0,2.21-.69,2.21-1.83,0-1.04-.72-1.67-2.02-1.67-.5,0-.86.04-1.04.08v3.35Z"/>
  <polygon class="cls-1" points="75 .17 77.56 .17 77.56 9.36 82.07 9.36 82.07 11.51 75 11.51 75 .17"/>
  <path class="cls-1" d="m85.62.17v6.51c0,1.97.76,2.96,2.05,2.96s2.09-.94,2.09-2.96V.17h2.56v6.36c0,3.5-1.77,5.17-4.73,5.17s-4.53-1.6-4.53-5.2V.17h2.56Z"/>
  <path class="cls-1" d="m94.63,8.87c.67.35,1.75.71,2.84.71,1.18,0,1.8-.49,1.8-1.23s-.54-1.11-1.9-1.58c-1.89-.67-3.13-1.72-3.13-3.37,0-1.94,1.63-3.4,4.29-3.4,1.3,0,2.22.25,2.89.57l-.57,2.05c-.44-.22-1.26-.54-2.36-.54s-1.65.52-1.65,1.09c0,.72.62,1.04,2.1,1.6,2,.74,2.93,1.78,2.93,3.38,0,1.9-1.45,3.52-4.56,3.52-1.3,0-2.58-.35-3.21-.71l.52-2.1Z"/>
  <path class="cls-1" d="m106.93,9.29c.47.29,1.45.61,2.2.61s1.09-.25,1.09-.67-.25-.64-1.2-.96c-1.72-.57-2.37-1.5-2.36-2.48,0-1.55,1.31-2.71,3.35-2.71.96,0,1.8.24,2.3.49l-.44,1.77c-.37-.2-1.09-.47-1.78-.47-.62,0-.98.25-.98.66s.32.61,1.33.96c1.57.54,2.2,1.35,2.22,2.54,0,1.55-1.19,2.68-3.55,2.68-1.08,0-2.04-.25-2.66-.59l.45-1.82Z"/>
  <path class="cls-1" d="m113.9,10.15c0-.93.62-1.56,1.51-1.56s1.48.62,1.5,1.56c0,.89-.61,1.55-1.53,1.55-.86,0-1.48-.66-1.48-1.55"/>
  <path class="cls-1" d="m118.46,5.99c0-1.21-.02-2-.07-2.71h2.19l.1,1.51h.07c.42-1.21,1.41-1.72,2.22-1.72.23,0,.35.02.54.05v2.41c-.2-.03-.4-.07-.69-.07-.94,0-1.58.5-1.75,1.29-.03.17-.05.37-.05.57v4.17h-2.56v-5.52Z"/>
  <path class="cls-1" d="m123.57,10.15c0-.93.62-1.56,1.51-1.56s1.48.62,1.5,1.56c0,.89-.61,1.55-1.53,1.55-.86,0-1.48-.66-1.48-1.55"/>
  <path class="cls-1" d="m136.26,7.3c0,3.01-2.14,4.39-4.34,4.39-2.41,0-4.26-1.58-4.26-4.24s1.75-4.38,4.41-4.38c2.51,0,4.19,1.73,4.19,4.22m-5.96.08c0,1.41.59,2.47,1.68,2.47,1.01,0,1.63-.99,1.63-2.49,0-1.21-.47-2.46-1.63-2.46s-1.68,1.26-1.68,2.47"/>
  <path class="cls-1" d="m137.09,10.15c0-.93.62-1.56,1.51-1.56s1.48.62,1.5,1.56c0,.89-.61,1.55-1.53,1.55-.86,0-1.48-.66-1.48-1.55"/>
</svg>