<?xml version="1.0" encoding="utf-8"?>
<!-- Generator: Adobe Illustrator 28.0.0, SVG Export Plug-In . SVG Version: 6.00 Build 0)  -->
<svg version="1.1" id="Vrstva_1" xmlns="http://www.w3.org/2000/svg" xmlns:xlink="http://www.w3.org/1999/xlink" x="0px" y="0px"
	 viewBox="0 0 898.4 898.4" style="enable-background:new 0 0 898.4 898.4;" xml:space="preserve">
<g id="Vrstva_1_00000078009742256246973600000008056588987096768673_">
</g>
<g id="Vrstva_2_00000056407108756624304900000002160772121587914937_">
</g>
<path d="M863.1,274.3c-22.6-53.5-55-101.5-96.3-142.8c-41.2-41.2-89.3-73.6-142.8-96.3C568.7,11.9,509.8,0,449.2,0
	c-60.6,0-119.5,11.9-174.9,35.3c-53.5,22.6-101.5,55-142.8,96.3c-41.2,41.2-73.6,89.3-96.3,142.8C11.9,329.7,0,388.6,0,449.2
	c0,60.6,11.9,119.5,35.3,174.9c22.6,53.5,55,101.5,96.3,142.8c41.2,41.2,89.3,73.6,142.8,96.3c55.4,23.4,114.2,35.3,174.9,35.3
	s119.5-11.9,174.9-35.3c53.5-22.6,101.5-55,142.8-96.3c41.2-41.2,73.6-89.3,96.3-142.8c23.4-55.4,35.3-114.2,35.3-174.9
	S886.5,329.7,863.1,274.3z M850.4,449.2c0,84.1-26.7,166.4-75.8,234.4V214.8C823.7,282.8,850.4,365.1,850.4,449.2z M726.6,205.9
	v486.8L483.2,449.3L726.6,205.9z M472.8,391.8V48.7c89.7,5.3,175.2,40.7,242.6,100.6L472.8,391.8z M715.3,749.2
	c-67.4,59.8-152.8,95.2-242.5,100.5v-343L715.3,749.2z M424.8,507.7v341.9c-89.3-5.4-174.4-40.8-241.6-100.4L424.8,507.7z
	 M183.1,149.2c67.2-59.6,152.3-95,241.7-100.4v342.1L183.1,149.2z M415.4,449.3L172.8,691.8V206.7L415.4,449.3z M124.8,213.4V685
	C75.1,616.7,48,533.9,48,449.2C48,364.5,75.1,281.7,124.8,213.4z"/>
</svg>
