<?xml version="1.0" encoding="utf-8"?>
<!-- Generator: Adobe Illustrator 28.0.0, SVG Export Plug-In . SVG Version: 6.00 Build 0)  -->
<svg version="1.1" id="Vrstva_1" xmlns="http://www.w3.org/2000/svg" xmlns:xlink="http://www.w3.org/1999/xlink" x="0px" y="0px"
	 viewBox="0 0 692.3 662.9" style="enable-background:new 0 0 692.3 662.9;" xml:space="preserve">
<style type="text/css">
	.st0{fill:#FFFFFF;}
	.st1{fill:#F49600;}
	.st2{fill-rule:evenodd;clip-rule:evenodd;fill:#F49600;}
	.st3{fill-rule:evenodd;clip-rule:evenodd;}
	.st4{fill-rule:evenodd;clip-rule:evenodd;fill:#848687;}
	.st5{fill-rule:evenodd;clip-rule:evenodd;fill:#97999A;}
	.st6{fill-rule:evenodd;clip-rule:evenodd;fill:#6F7679;}
	.st7{fill-rule:evenodd;clip-rule:evenodd;fill:#818688;}
	.st8{fill-rule:evenodd;clip-rule:evenodd;fill:#979A9E;}
	.st9{fill-rule:evenodd;clip-rule:evenodd;fill:#E30613;}
	.st10{fill-rule:evenodd;clip-rule:evenodd;fill:#B7BEC8;}
	.st11{fill-rule:evenodd;clip-rule:evenodd;fill:#E8422C;}
	.st12{fill-rule:evenodd;clip-rule:evenodd;fill:#FCD198;}
	.st13{fill-rule:evenodd;clip-rule:evenodd;fill:#FFFFFF;}
	.st14{fill-rule:evenodd;clip-rule:evenodd;fill:#F0F0F0;}
	.st15{fill-rule:evenodd;clip-rule:evenodd;fill:#E0C0A1;}
	.st16{fill-rule:evenodd;clip-rule:evenodd;fill:#B9B8B8;}
	.st17{fill:#959B9F;}
	.st18{clip-path:url(#SVGID_00000140007868526718479230000015090358770083250565_);}
	.st19{clip-path:url(#SVGID_00000114775888101680907310000011360409620974591902_);}
	.st20{clip-path:url(#SVGID_00000114775888101680907310000011360409620974591902_);fill:none;stroke:#FFFFFF;stroke-width:3.08;}
	.st21{clip-path:url(#SVGID_00000114775888101680907310000011360409620974591902_);fill:#FFFFFF;}
	.st22{clip-path:url(#SVGID_00000114775888101680907310000011360409620974591902_);fill:none;stroke:#000000;stroke-width:0.586;}
	.st23{clip-path:url(#SVGID_00000114775888101680907310000011360409620974591902_);fill:none;stroke:#000000;stroke-width:0.898;}
	.st24{clip-path:url(#SVGID_00000114775888101680907310000011360409620974591902_);fill-rule:evenodd;clip-rule:evenodd;}
	
		.st25{clip-path:url(#SVGID_00000114775888101680907310000011360409620974591902_);fill-rule:evenodd;clip-rule:evenodd;fill:#FFFFFF;}
	.st26{clip-path:url(#SVGID_00000015356072559751164810000015608693173110980235_);fill:#FFFFFF;}
	.st27{clip-path:url(#SVGID_00000121270414088823136430000016126653966490773181_);}
	.st28{clip-path:url(#SVGID_00000121270414088823136430000016126653966490773181_);fill:none;stroke:#000000;stroke-width:1.273;}
	.st29{clip-path:url(#SVGID_00000121270414088823136430000016126653966490773181_);fill:#FFFFFF;}
	.st30{clip-path:url(#SVGID_00000121270414088823136430000016126653966490773181_);fill:none;stroke:#000000;stroke-width:0.955;}
	.st31{clip-path:url(#SVGID_00000121270414088823136430000016126653966490773181_);fill:none;stroke:#000000;stroke-width:0.318;}
	
		.st32{clip-path:url(#SVGID_00000121270414088823136430000016126653966490773181_);fill:none;stroke:#000000;stroke-width:0.318;stroke-linecap:round;}
	
		.st33{clip-path:url(#SVGID_00000121270414088823136430000016126653966490773181_);fill:none;stroke:#000000;stroke-width:0.318;stroke-linecap:round;stroke-linejoin:round;}
	
		.st34{clip-path:url(#SVGID_00000121270414088823136430000016126653966490773181_);fill:none;stroke:#000000;stroke-width:0.191;stroke-linecap:round;stroke-linejoin:round;}
	.st35{clip-path:url(#SVGID_00000121270414088823136430000016126653966490773181_);fill-rule:evenodd;clip-rule:evenodd;}
	.st36{clip-path:url(#SVGID_00000181794291679140800890000001500284020536973192_);fill:#FFFFFF;}
	.st37{clip-path:url(#SVGID_00000181794291679140800890000001500284020536973192_);fill:none;stroke:#000000;}
	.st38{clip-path:url(#SVGID_00000008151125269921893770000001067655198759713688_);}
	
		.st39{clip-path:url(#SVGID_00000008151125269921893770000001067655198759713688_);fill:none;stroke:#000000;stroke-width:0.761;stroke-miterlimit:10;}
	.st40{clip-path:url(#SVGID_00000008151125269921893770000001067655198759713688_);fill-rule:evenodd;clip-rule:evenodd;}
	.st41{clip-path:url(#SVGID_00000008151125269921893770000001067655198759713688_);fill:#FFFFFF;}
	
		.st42{clip-path:url(#SVGID_00000008151125269921893770000001067655198759713688_);fill:none;stroke:#FFFFFF;stroke-width:0.898;stroke-miterlimit:10;}
	
		.st43{clip-path:url(#SVGID_00000008151125269921893770000001067655198759713688_);fill-rule:evenodd;clip-rule:evenodd;fill:#FFFFFF;}
	
		.st44{clip-path:url(#SVGID_00000008151125269921893770000001067655198759713688_);fill:none;stroke:#000000;stroke-width:0.429;stroke-linecap:round;stroke-linejoin:round;stroke-miterlimit:10;}
	.st45{clip-path:url(#SVGID_00000008151125269921893770000001067655198759713688_);enable-background:new    ;}
	.st46{clip-path:url(#SVGID_00000114074635872493023470000012925931860130313350_);}
	.st47{clip-path:url(#SVGID_00000182492646008332300030000014143782463751788456_);}
	.st48{clip-path:url(#SVGID_00000096027097669648844170000011136960028939279263_);}
	.st49{clip-path:url(#SVGID_00000176043427275825050380000009218459841060530083_);}
	.st50{clip-path:url(#SVGID_00000062886036523263463800000013561767906307563693_);}
	.st51{clip-path:url(#SVGID_00000177478681774273678780000008666350615365237651_);}
	.st52{clip-path:url(#SVGID_00000015318187095383584730000012739117064407011002_);}
	.st53{clip-path:url(#SVGID_00000017502011347428361520000004471350989489050036_);}
	.st54{clip-path:url(#SVGID_00000008151125269921893770000001067655198759713688_);fill:none;stroke:#000000;stroke-width:0.141;}
	
		.st55{clip-path:url(#SVGID_00000008151125269921893770000001067655198759713688_);fill:none;stroke:#000000;stroke-width:0.382;stroke-linecap:round;stroke-linejoin:round;stroke-miterlimit:10;}
	.st56{clip-path:url(#SVGID_00000008151125269921893770000001067655198759713688_);fill:none;stroke:#000000;stroke-width:1.368;}
	
		.st57{clip-path:url(#SVGID_00000008151125269921893770000001067655198759713688_);fill:none;stroke:#000000;stroke-width:2;stroke-miterlimit:10;}
	
		.st58{clip-path:url(#SVGID_00000008151125269921893770000001067655198759713688_);fill:none;stroke:#000000;stroke-width:0.2;stroke-miterlimit:10;}
	
		.st59{clip-path:url(#SVGID_00000008151125269921893770000001067655198759713688_);fill:none;stroke:#FFFFFF;stroke-width:0.596;stroke-linecap:round;stroke-linejoin:round;stroke-miterlimit:22.926;}
	
		.st60{clip-path:url(#SVGID_00000008151125269921893770000001067655198759713688_);fill:none;stroke:#000000;stroke-width:0.225;stroke-miterlimit:10;}
	
		.st61{clip-path:url(#SVGID_00000008151125269921893770000001067655198759713688_);fill:none;stroke:#000000;stroke-width:1.45;stroke-miterlimit:10;}
	
		.st62{clip-path:url(#SVGID_00000008151125269921893770000001067655198759713688_);fill:none;stroke:#FFFFFF;stroke-width:0.435;stroke-miterlimit:10;}
	
		.st63{clip-path:url(#SVGID_00000008151125269921893770000001067655198759713688_);fill:none;stroke:#000000;stroke-width:0.514;stroke-miterlimit:10;}
	
		.st64{clip-path:url(#SVGID_00000008151125269921893770000001067655198759713688_);fill:none;stroke:#000000;stroke-width:0.206;stroke-miterlimit:22.926;}
	
		.st65{clip-path:url(#SVGID_00000008151125269921893770000001067655198759713688_);fill:none;stroke:#000000;stroke-width:0.312;stroke-miterlimit:10;}
	
		.st66{clip-path:url(#SVGID_00000008151125269921893770000001067655198759713688_);fill:none;stroke:#000000;stroke-width:0.575;stroke-miterlimit:10;}
	.st67{clip-path:url(#SVGID_00000008151125269921893770000001067655198759713688_);fill:none;stroke:#000000;stroke-width:1.522;}
	.st68{clip-path:url(#SVGID_00000008151125269921893770000001067655198759713688_);fill:none;stroke:#000000;stroke-width:4.558;}
	.st69{clip-path:url(#SVGID_00000008151125269921893770000001067655198759713688_);fill:#020203;}
	.st70{fill:none;stroke:#FFFFFF;stroke-width:12;stroke-linecap:round;stroke-linejoin:round;}
	.st71{fill:#A90F09;}
	.st72{fill:none;stroke:#FFFFFF;stroke-width:12;stroke-linecap:round;stroke-linejoin:round;stroke-miterlimit:10;}
</style>
<g>
	<g>
		<path class="st0" d="M774.4,95.4c-0.1,0-0.3,0-0.4,0c0,0,0,0,0,0l0,0c0,0,0,0,0,0c-4.6-0.4-13.6-0.3-19.5-0.3c-1.4,0-2.6,0-3.6,0
			c-5.1,0-6,0-25.3,0.3c-1.4,0-2.8-0.6-3.8-1.6s-1.5-2.4-1.4-3.9c3.6-50.1,5.2-89.5,5.7-134.7l-9.1,0l-8.9,0.3l-8.9,0.6l-5.8,0.6
			c-1.5,0.1-2.9-0.3-4-1.3c-1.1-1-1.7-2.4-1.6-3.9l0.4-17.6c0,0,0,0,0,0c0.5-18.8,0.5-20.8,0.7-36.7l0-2.1c0-1.4,0.6-2.6,1.5-3.6
			c1-0.9,2.3-1.5,3.6-1.5c25.6,0.3,32,0.3,62.7,0.3c29.8,0,36.1,0,61.2-0.3c1.4-0.1,2.7,0.5,3.7,1.5c1,1,1.5,2.4,1.4,3.8l0,0.5
			c-0.2,4.5-0.5,12.8-0.9,25c-0.2,6.5-0.3,13.2-0.4,20.2c0,3.3-0.1,6.7-0.1,10.2c0,1.4-0.6,2.7-1.7,3.7s-2.4,1.4-3.8,1.3l-3.7-0.3
			c-9.4-0.7-21.4-1.5-27.9-1.6c3.4,24.4,3.8,62.5,0.7,91.8c-0.3,3,0.8,6.8,1.8,10.4c1.3,4.5,2.7,9.1,1.8,13.6
			c-1.8,8.9-6.2,15.3-8.9,19.2c-0.2,0.2-0.3,0.5-0.5,0.7c0,0.2,0,0.5,0,0.7C779.3,93.4,777,95.4,774.4,95.4z M716.8-55
			C716.8-55,716.8-55,716.8-55l14.4,0c1.4,0,2.7,0.5,3.6,1.5s1.5,2.3,1.5,3.6c-0.3,45.9-1.9,85.4-5.3,134.9
			c14.1-0.2,15.3-0.2,19.9-0.2c1,0,2.2,0,3.6,0c4.9,0,11.2,0,16.1,0.1c0.3-0.5,0.7-1,1-1.5c2.3-3.4,5.9-8.5,7.3-15.4
			c0.4-2-0.6-5.4-1.6-8.6c-1.3-4.3-2.7-9.3-2.2-14.3c3.2-30.4,2.6-71.9-1.5-94.6c-0.4-2.4,0.9-4.8,3.2-5.7
			c3.1-1.2,10.7-0.9,34.7,0.8c0-1.6,0-3.2,0.1-4.8c0.1-7.1,0.2-13.8,0.4-20.5c0.3-8.6,0.5-15.3,0.7-20.1c-20.9,0.2-28.3,0.2-56,0.2
			c-28.7,0-36.2,0-57.7-0.2c-0.1,13.3-0.2,16.3-0.7,33.9l-0.3,11.9l0.2,0c0.1,0,0.1,0,0.2,0l9-0.6c0.1,0,0.1,0,0.2,0l9-0.3
			C716.7-55,716.7-55,716.8-55z"/>
	</g>
	<g>
		<path class="st0" d="M770.9,106.9c-1.3,0-2.7-0.5-3.7-1.3c-1.6-1.3-2.4-3.4-2-5.4c0.1-0.8,0.3-1.5,0.5-2.2
			c-0.1-0.1-0.2-0.2-0.3-0.4c-0.4-0.6-0.7-1.2-0.9-1.8c-3.5,0-7.1,0-10.1,0c-1.4,0-2.6,0-3.6,0c-5.1,0-6,0-25.3,0.3
			c-1.7,0-3.2-0.6-4.3-1.8s-1.7-2.8-1.6-4.4c3.5-49.8,5.2-89,5.6-133.9l-8.4,0l-8.8,0.3l-8.8,0.6l-5.8,0.6c-1.7,0.2-3.3-0.4-4.5-1.5
			c-1.2-1.1-1.9-2.7-1.9-4.4l0.4-17.6c0.5-18.8,0.5-20.9,0.7-36.8l0-2.1c0-1.5,0.6-3,1.8-4.1c1.1-1.1,2.6-1.7,4.1-1.7
			c25.6,0.3,32,0.3,62.7,0.3c29.8,0,36,0,61.2-0.3c0.4,0,0.8,0,1.1,0.1c3.4,0.1,6.4,0.1,10.2,0.1c3.3,0,4.9-0.1,8.6-0.3
			c4.3-0.2,11.4-0.6,26.6-1.1l1.4,0c7.8-0.3,15.2-0.5,22-0.5c16.7,0,26.4,1.4,36.3,9.5c10,7.9,16.3,24.8,16.3,44.2
			c0,15.9-3.9,30.5-10.7,40.1c-2.3,3.2-4.7,5.8-7.5,8c3.5,2.2,6.5,5.3,9.5,9.4c0,0,0,0.1,0.1,0.1c6.3,9.3,9.7,22,9.7,36.8
			c0,29.6-12.5,51-33.6,57.3c-9.9,2.9-45.2,3.2-59.9,3.2l-10.6-0.1c-11.4,9-27.1,8.5-35.8,8.3c-0.6,0-1.2,0-1.8,0
			c-10.1-0.2-23.5,1.1-26.9,2.3C772.3,106.8,771.6,106.9,770.9,106.9z M776.2,87.1c1.6,0,3.2,0.7,4.4,2c1,1.2,1.5,2.7,1.4,4.2
			c6.3-0.6,13.2-0.8,18-0.7c0.6,0,1.2,0,1.8,0.1c8,0.2,21.4,0.6,29.4-6.7c1.1-1,2.5-1.6,4-1.5l12.7,0.1c34.8,0,52.2-1.5,56.5-2.7
			c15.8-4.8,25.2-22,25.2-46.2c0-12.3-2.7-23-7.6-30.2c-4.2-5.8-7.5-7.9-14.9-9.4c-2.5-0.5-4.4-2.6-4.7-5.1c-0.3-2.5,1.2-5,3.5-6
			c7.4-3.2,10.5-5.5,14.1-10.4c5.4-7.6,8.6-20,8.6-33.4c0-15.7-4.7-29.5-11.9-35.1c0,0-0.1-0.1-0.1-0.1c-6.6-5.4-12.8-6.9-28.9-6.9
			c-6.5,0-13.8,0.3-21.6,0.5l-1.4,0c-15.2,0.5-21.9,0.8-26.4,1c-3.7,0.2-5.7,0.3-9.2,0.3c-3.9,0-7.1,0-10.8-0.1l-0.5,0
			c-0.3,0-0.6,0-0.9-0.1c-24.4,0.3-30.9,0.3-60.4,0.3c-28.3,0-36,0-57-0.2c-0.1,12.7-0.2,15.9-0.7,33.2l-0.2,11l8.6-0.6
			c0.1,0,0.1,0,0.2,0l9-0.3c0.1,0,0.1,0,0.2,0l14.4,0c1.6,0,3,0.6,4.1,1.7s1.7,2.6,1.7,4.2c-0.3,45.7-1.9,85-5.3,134.2
			c13.3-0.2,14.6-0.2,19.1-0.2c1,0,2.2,0,3.6,0c4.9,0,11.7-0.1,16.8,0.1c1.6,0.1,3.2,0.8,4.2,2.1c0.2,0.2,0.4,0.5,0.6,0.8
			C776.1,87.1,776.2,87.1,776.2,87.1z"/>
	</g>
	<g>
		<path class="st0" d="M723.6,92l0.1-1.9c3.7-51.4,5.3-91.6,5.7-138.3l-12.6,0l-9,0.3l-9,0.6l-7.8,0.8l0.4-19.6
			c0.5-18.8,0.6-20.8,0.7-36.8l0-3.8l1.7,0c25.6,0.3,32,0.3,62.8,0.3c29.9,0,36.1,0,61.3-0.3l1.8,0l-0.1,2.3
			c-0.2,4.5-0.5,12.8-0.9,25c-0.2,6.6-0.3,13.2-0.4,20.3c0,3.3-0.1,6.7-0.1,10.2l0,1.8l-5.5-0.4c-12.3-0.9-27.2-1.9-32.1-1.5
			c3.8,23.5,4.4,64.6,1.2,94.8c-0.4,3.7,0.8,7.8,2,11.7c1.3,4.3,2.4,8.3,1.7,11.9c-1.7,8.3-5.8,14.3-8.3,17.9
			c-0.7,1.1-1.6,2.3-1.7,2.7c0-0.1,0.1-0.5-0.2-0.9c-0.3-0.4-0.7-0.5-0.8-0.5l-0.3,3.4c0,0,0,0,0,0l0,0c0,0,0,0,0,0
			c-4.8-0.4-13.8-0.3-19.8-0.3c-1.4,0-2.6,0-3.6,0c-5.1,0-6.1,0-25.4,0.3L723.6,92z M716.7-51.6l16.1,0l0,1.7
			c-0.3,47-2,87.2-5.6,138.4c17.5-0.3,18.6-0.3,23.6-0.3c1,0,2.2,0,3.6,0c5.3,0,12.9-0.1,18,0.2c0.4-0.8,1-1.8,1.9-3.1
			c2.3-3.4,6.3-9.1,7.8-16.7c0.6-2.8-0.5-6.4-1.6-10.3c-1.2-4.2-2.5-8.6-2.1-13c3.2-30.6,2.6-72.6-1.5-95.5l-0.2-1.4l1.3-0.5
			c2.8-1.1,15.1-0.3,34.9,1.1l1.9,0.1c0-2.8,0.1-5.6,0.1-8.4c0.1-7.1,0.2-13.8,0.4-20.4c0.3-11,0.6-18.9,0.8-23.7
			c-23.7,0.3-30.4,0.3-59.5,0.3c-30.1,0-36.9,0-61.1-0.3l0,0.4c-0.2,16-0.2,18-0.7,36.9l-0.3,15.7l4-0.4l9.1-0.6L716.7-51.6z"/>
	</g>
</g>
<g>
	<g>
		<path class="st2" d="M692.3,632.5c0,16.7-84.6,30.3-188.9,30.3s-188.9-13.6-188.9-30.3s84.6-30.3,188.9-30.3
			S692.3,615.8,692.3,632.5"/>
	</g>
	<g>
		<path class="st0" d="M390,623.1h-3.1c-8.4,0-8.6,0-9.8-1.3l-2.2-2.2h3.1c0.9,0,1.8-0.1,2.7-0.1c2.8-0.2,5.4-0.4,7.2,1.4L390,623.1
			z M476.6,587.5l-0.8-0.2c-4.6-0.9-10.1-3.7-15.4-6.3l-0.8-0.4v-0.8c0-1.9,0-2,0.9-6.5l0.2-1.2l1.2,0.1c7.3,0.9,13.6,2.7,19.8,4.5
			l1.5,0.4l-0.7,1.4c-0.9,1.9-0.9,1.9-5.5,8.2L476.6,587.5z M462.1,579.1c4.6,2.3,9.4,4.6,13.3,5.6c2.6-3.7,3.5-4.9,4-5.8
			c-5.3-1.5-10.7-3-16.7-3.8C462.3,577.5,462.2,578.2,462.1,579.1z"/>
	</g>
	<g>
		<path class="st3" d="M140,138.8c0,0-14.7-40-5.8-60.5c7.5-17,102.4-44.2,102.4-44.2l99.8,1.6c0,0,15.7,30.4-0.6,59.5
			C319.8,92.4,140,138.8,140,138.8"/>
	</g>
	<g>
		<path class="st3" d="M335.6,91.6c0,7.2-1.8,13.4-1.8,20.6c6.2,3.6,12.5,13.4,18.7,18.8c10.7,26.8-0.9,44.7-29.5,44.7
			c4.5,18.8,37.5-0.9,37.5,19.7c-1.8,14.3-5.4,28.6-8.9,43.8c1.8,0.9,4.4,0.9,5.3,2.7h-6.2c-3.6,11.6-6.1,22.9-13.4,34.9
			c-4.6,7.6,0.9,5.4,0.9,5.4c1.8,0.9-1.8-0.9-3.6-0.9c0,3.6,0.9,5.4-1.8,9.8H332v-5.4c-6.2,1.8-16.1,15.2-26.8,18.8
			c3.6,12.5,24.1,26.8,33.9,33.1v1.8c-5.3,4.5-17.8-11.6-23.2-11.6c1.8,6.2,8,14.3,8,19.7c-0.9,0.9-1.8,0.9-1.8,0h-1.8
			c9.8,21.5,27.6,41.1,42.8,59c13.4,13.4,17.8,16.1,31.2,0c5.4,0,12.5,12.5,18.7,16.1c17-0.9,17.9-0.9,19.6,17
			c4.5,1.8,9.8,3.6,15.2,5.4c0.9,2.7,1.8,4.5,1.8,8.1c25.9,2.7,61.5,2.7,86.5,14.3c3.6,3.6,4.4,2.7,8,0.9
			c-1.8-19.7,4.5-38.4,2.7-58.1c-3.6,2.7-7.1,27.7-13.4,36.6c-26.7,5.4,1.8-51.8,8.9-53.6V392c-11.6-19.7-32.1,34.9-41,37.5
			c-10.7-0.9-16-11.6-10.7-20.6c10.7-12.5,41-52.7,56.2-35.8h1.8c0,1.8,3.6,5.4,5.4,5.4c5.3-8,14.3-10.7,22.3-6.3
			c24.1,23.2-9.8,56.3-8,84.9h2.7c4.5,5.4,3.6,6.3-1.8,11.6c-0.9,6.3,1.8,20.6,6.3,26.8c2.7,0,4.4,0.9,7.1,0.9
			c1.8,2.7,2.7,4.5,2.7,8c-3.6,1.8-6.2,2.7-8.9,3.6c-0.9,3.6,3.6,9.8,5.4,12.5c25.8-1.8,36.6,4.5,53.5,22.4
			c17.8,30.4,14.3,67.9-17.8,86.7v0.9c14.3-0.9,27.6-2.7,41-1.8v1.8c-11.6,1.8-24.1,0.9-37.5,1.8c0.9,0,0.9,0.9,0.9,0.9
			c7.1,0,14.3,0.9,21.4,0.9v0.9h-16.1c0.9,0.9,8,1.8,8,2.7c-8,0.9-16-3.6-25.8-0.9c0,0,0,0.9,0.9,0.9c8,1.8,16,2.7,24.1,4.5v1.8
			c-8-3.6-17.8-4.5-26.8-6.3c-4.4,0-33.9,9.8-34.8,8.1c0-0.9,0-0.9,7.1-2.7c-2.7-0.9-4.4,0-16.9,0.9v-0.9c1.8-0.9,3.6-0.9,5.3-0.9
			v-0.9c-10.7,0-10.7,0-13.4-0.9v-0.9c3.6-0.9,7.1-0.9,10.7-0.9v-0.9h-15.2c0-0.9,0-0.9-0.9-1.8c5.4,0,10.7-0.9,16.1-0.9
			c-8-2.7-25-0.9-34.8-0.9c9.8,0,9.8,0,41.9-0.9v-1.8c-35.7-20.6-41.9-55.4-21.4-91.2c3.6-2.7,8-10.7,9.8-10.7
			c-1.8-10.7-25-12.5-10.7-23.2c0-7.2-3.6-18.8-7.1-22.3h-1.8c-8,12.5-15.2,28.6-25,42.9c0,3.6,5.3,8,8,9c0.9,4.5-2.7,8.9-5.4,14.3
			c-12.5-4.5-6.2-1.8-16.9-1.8c-1.8,2.7-2.7,3.6-7.1,6.3c9.8,24.1-8.9,43.8-32.1,44.7c-0.9,0-0.9,0-12.5-2.7c0,0-0.9,0.9-1.8,1.8
			c0.9,4.5,5.3,8.9,8.9,11.6v3.6c-4.5,2.7-8,5.4-11.6,10.7h-1.8c-8-14.3-17.8-22.3-32.1-28.6v-3.6c2.7-0.9,3.6-2.7,3.6-3.6
			c-5.4-2.7-5.4-2.7-14.3-6.3c-0.9,13.4-11.6,23.2-21.4,32.2c-6.2,3.6-6.2,3.6-7.1,4.5c15.2,0,21.4-0.9,32.1,0
			c0.9,0,0.9,0.9,0.9,1.8h-9.8v1.8H390c0.9,0.9,0.9,0.9,1.8,1.8c0,0-0.9,0-0.9,0.9c-19.6-1.8-35.7,1.8-55.3,7.2
			c0-0.9-0.9-0.9-0.9-1.8c-2.7,0-5.4,0-8,0.9c-0.9-4.5,7.1-3.6,7.1-3.6v-1.8c-2.7,0-4.5,0-7.1,0.9c-0.9-0.9-0.9-1.8-1.8-1.8h-7.1
			v-3.6c-4.5,0-4.5,0-6.2-0.9c0.9-0.9,0.9-1.8,0.9-2.7H307c3.6,3.6,8,7.2,12.5,10.7c2.7,14.3-41,13.4-49,12.5
			c1.8,3.6,6.2,4.5,7.1,9.8c-19.6,12.5-37.5,11.6-61.5,11.6c-20.5,0-41.9-4.5-61.5-11.6c-7.1-6.3-7.1-20.6-14.3-26.8
			c-8,2.7-7.1,12.5-4.5,20.6c-0.9,0.9-0.9,1.8-1.8,2.7c-5.3-0.9-9.8-0.9-15.1-1.8c-8-7.2-8.9-23.3-8.9-33.1
			c2.7-14.3,38.3-12.5,12.5-31.3c-11.6-4.5-23.2-7.2-35.7-11.6c-5.4-2.7-15.2-10.7-21.4-10.7v-0.9c-9.8-7.2-6.2-8.9-6.2-21.5
			c-2.7-42.9-27.7-73.3-30.3-115.3c0-7.2,0.9-9.8,0.9-11.6c-33.9-38.4-7.1-57.2,7.1-95.7c5.4-22.3,0.9-43.8,0-65.3
			c-1.8,0.9-3.6,2.7-5.3,4.5c-0.9-0.9-1.8-0.9-1.8-1.8c0-5.4,3.6-8.9,3.6-13.4c-3.6,1.8-6.3,4.5-8.9,6.3c0,0-0.9,0-0.9-0.9
			c0-5.4,2.7-8.9,3.6-13.4c-3.6,0.9-8,8-13.4,8c-3.6-3.6,30.3-68.8,35.7-76.9c11.6-14.3,40.1-35.8,56.2-35.8c0-2.7,9.4,3.3,14.4,6
			c5,2.8,11.3,9.6,11.3,9.6l7.6-2.5l3.9-3.1l0.9-16.3l15.2-42.2l75.4-11l92.8,8.2l9,17.1 M378.4,550.2L378.4,550.2
			c-0.9-7.2-6.2-8.9-13.4-9.8v4.5C365.9,545.8,365.9,545.8,378.4,550.2 M381.9,569.9L381.9,569.9v-5.4c-5.4-3.6-20.5-12.5-26.7-8.9
			C362.3,560.1,373.9,569,381.9,569.9 M357,592.3L357,592.3c8-1.8,25-9.8,23.2-19.7c-8-3.6-15.2-7.2-22.3-11.6
			c-5.3,0,0,25.9-16.9,16.1c-8.9-10.7,5.3-18.8-1.8-26.8c-0.9-0.9-0.9-2.7-1.8-4.5c-8,1.8-8,15.2-8,22.4
			C332.9,585.1,341.8,591.4,357,592.3 M418.5,585.1L418.5,585.1c4.5-6.2,4.5-6.2,5.4-8.1c-6.2-1.8-12.5-3.6-19.6-4.5
			c-0.9,4.5-0.9,4.5-0.9,6.3C408.7,581.5,414,584.2,418.5,585.1 M439,587.8L439,587.8c1.8-0.9,2.7-1.8,4.4-2.7v-1.8
			c-3.6-2.7-8-3.6-13.4-3.6C432.8,584.2,434.5,587.8,439,587.8 M439.9,568.1L439.9,568.1c1.8-9,6.2-16.1,8-22.4
			c-15.2,1.8-29.4,2.7-45.5,1.8c0.9,3.6,0.9,7.2,0.9,12.5C415.8,564.5,427.4,565.4,439.9,568.1 M430.1,544.9L430.1,544.9
			c15.2-2.7,30.3-8,43.7-8c4.5,0.9,10.7,3.6,11.6,3.6c12.5-16.1-3.6-8.9-0.9-17.9c3.6-6.2,3.6-6.2,5.3-10.7c2.7,0,14.3,8.9,15.2,9.8
			c8-4.5,22.3-35.8,22.3-42.9c-17.8-12.5-67.8-15.2-92.8-12.5c-0.9,15.2-5.3,18.8-20.5,18.8c-0.9,6.3-7.1,5.4-13.4,6.3
			c-0.9,13.4-10.7,7.2-20.5,8.9c-1.8,3.6-3.6,8.1-5.3,12.5c4.5,1.8,8,7.2,11.6,8c0.9,3.6,5.4,8.1,8,10.7
			C404.2,550.2,411.4,544.9,430.1,544.9 M562.1,426.8L562.1,426.8c1.8-9.8,21.4-35.8,0-38.4c-6.2,6.3-0.9,28.6-0.9,37.5L562.1,426.8
			 M599.5,604.8L599.5,604.8c37.5-6.3,27.6-68.8-14.3-54.5c0.9,3.6,6.2,10.7,8,14.3c18.7-0.9,13.4,34-5.3,19.7
			c-2.7-8.1,0-24.2-10.7-26.8C558.5,577.1,573.7,604.8,599.5,604.8 M304.4,616.4L304.4,616.4c-0.9-1.8-1.8-1.8-1.8-3.6
			c6.3,0,9.8,0,14.3,0.9c-0.9-4.5-8-8.9-10.7-15.2c-25-39.4,4.4-85.8,43.7-90.3c21.4,0.9,13.4,2.7,23.2-15.2
			c-0.9-8.9,4.5-12.5,5.4-18.8c-7.1-3.6-10.7-6.3-14.3-15.2c-3.6-17.9-28.5-31.3-36.6-6.3c-5.3,9.8-11.6,17-14.3,30.4
			c-1.8,6.3-5.4,11.6-12.5,14.3c-6.2,17-11.6,17.9-25.9,29.5c0.9,4.5-2.7,9-5.4,14.3c-5.3,25.9,0.9,27.7-29.4,30.4
			c0,23.2,7.1,19.7,27.6,25.9C279.4,603,294.5,614.6,304.4,616.4 M579.9,635.2L579.9,635.2c0.9,0,0.9,0,0.9-0.9h-3.6v0.9H579.9
			 M585.3,638.8L585.3,638.8c6.2-0.9,6.2-0.9,9.8-1.8c-2.7-0.9-6.3-0.9-8.9-0.9v1.8C581.7,637.9,581.7,638.8,585.3,638.8
			 M329.3,620.9L329.3,620.9c-1.8-1.8-5.3-0.9-8.9-0.9C321.3,620.9,321.3,620.9,329.3,620.9 M344.5,624.4L344.5,624.4
			c-1.8-0.9-0.9-0.9-3.6,0H344.5 M350.7,626.2L350.7,626.2c0-0.9,0.9-0.9,1.8-0.9v-1.8c-0.9,0.9-2.7,0.9-3.6,0.9v1.8H350.7
			 M321.3,617.3L321.3,617.3v-1.8c-2.7,0-2.7,0-6.2,0.9C315.9,616.4,315.9,616.4,321.3,617.3 M188.4,603.9L188.4,603.9
			c3.6-8.9,12.5-12.5,13.4-17c-6.2,1.8-23.2,0.9-29.4,3.6C174.2,601.2,176,603.9,188.4,603.9"/>
	</g>
	<g>
		<path class="st4" d="M241.9,659.3c8-0.9,27.6-3.6,31.2-11.6c-32.1,6.3-58,8.9-90.1,0.9c-23.2-8-25-3.6-33-26.8
			c-7.1-9.8-26.7-7.2-37.4-7.2c-0.9,17,1.8,28.6,18.7,28.6c0-7.1,2.7-29.5,12.5-20.6c3.6,7.2,6.2,18.8,11.6,25
			C181.3,660.2,215.2,659.3,241.9,659.3"/>
	</g>
	<g>
		<path class="st5" d="M227.7,652.2c15.2-0.9,29.4-5.4,41.9-6.2c0-17-87.4-40.2-97.2-42c-1.8-3.6-0.9-11.6-0.9-14.3h-3.6
			c0,5.4,1.8,14.3-0.9,19.7c-1.8-3.6-0.9-16.1-0.9-19.7c-0.9,0-2.7-0.9-3.6-0.9c-1.8,5.4,0,13.4-2.7,20.6v-20.6h-4.5
			c0,4.5,0,4.5-0.9,20.6h-0.9v-21.5h-3.6c0,4.5,0.9,18.8-1.8,23.2h-0.9c0.9-8.1,0.9-16.1,0.9-23.2h-4.5c0,7.1,0,14.3-0.9,21.5H142
			v-22.3c-3.6-0.9-3.6-0.9-6.2-0.9c0,17.9,0.9,19.7-1.8,21.5c0-2.7,0.9-8.1,0-9.8c-4.4,7.2-13.4,7.2-20.5,14.3
			c1.8,3.6,29.4-0.9,37.5,7.2c11.6,23.2,8,20.6,33.9,27.7C191.1,652.2,220.5,652.2,227.7,652.2"/>
	</g>
	<g>
		<path class="st4" d="M291.9,637.9c5.3-0.9,24.1-1.8,24.1-8.9c-2.7,0-53.5,3.6-54.4,4.5C269.6,639.6,283.8,637.9,291.9,637.9"/>
	</g>
	<g>
		<path class="st6" d="M597.7,632.5c77.6-13.4,52.6-128.8-24.1-106.4c0,4.5,7.1,15.2,8.9,20.6c22.3,0,26.8-5.4,40.1,17.9
			c13.4,58.1-68.7,55.4-53.5,0.9c9.8-18.8,4.5-13.4-5.3-32.2h-1.8c0,0-14.3,18.8-16.9,23.2C530.9,596.7,558.5,632.5,597.7,632.5"/>
	</g>
	<g>
		<path class="st5" d="M258,630.7c17-4.5,35.7,0.9,52.6-4.5v-0.9c-13.4-11.6-28.5-18.8-44.6-25.9c-23.2-6.3-25.9-3.6-27.6-27.7h-1.8
			c0,8,0,16.1,0.9,25h-1.8v-25.9H233c-0.9,6.3-0.9,15.2-2.7,23.3v-24.2h-0.9c-1.8,8.1-2.7,17.9-3.6,27.7c-1.8-3.6,0-17,0-19.7
			c-5.4,0-4.5,17.9-5.4,22.3h-0.9c0-6.2,0.9-13.4,0.9-19.7c-6.2,0-4.4,14.3-5.3,20.5h-0.9v-18.8c-0.9,0.9-1.8,0.9-2.7,0.9
			c-0.9,0.9-1.8,15.2-1.8,17c-0.9,0.9-0.9,0.9-1.8,0.9v-16.1c-0.9-0.9-0.9-0.9-2.7,0c-0.9,4.5-0.9,8-2.7,12.5v-2.7
			c-5.4,0-9.8,4.5-11.6,9.8c20.5,7.1,20.5,7.1,40.1,14.3C239.3,622.6,250.9,629.8,258,630.7"/>
	</g>
	<g>
		<path class="st6" d="M355.2,620.9c18.7-1.8,41.9-18.8,44.6-39.3c-4.5-1.8-12.5-7.2-17.9-6.3c-18.7,34-60.6,21.5-54.4-18.8
			c5.4-15.2,13.4-25,26.7-26.8c3.6-5.4,8-11.6,8.9-16.1c-37.5-10.7-69.6,25.9-61.5,67.1C311.5,608.3,327.5,620.9,355.2,620.9"/>
	</g>
	<g>
		<path class="st7" d="M446.2,620c2.7-2.7,5.3-4.5,7.1-7.2c0-8-8.9-8.9-8.9-13.4c6.2-5.4,12.5-14.3,17.9-19.7c0-1.8,0-3.6-0.9-4.5
			h2.7c0-2.7,0-4.5-0.9-6.3h-2.7c-6.3,6.3-14.3,16.1-21.4,24.1c-5.4-1.8-7.1-10.7-14.3-11.6c-1.8,1.8-8.9,8.1-8.9,12.5
			C428.3,598.5,438.1,608.3,446.2,620"/>
	</g>
	<g>
		<path class="st8" d="M468.5,596.7c58.9-11.6,7.1-93-23.2-39.4c-1.8,4.5-4.5,19.7,0.9,23.3c13.4-11.6,8-17.9,14.3-27.7
			c22.3-9.8,32.1,29.5,8,29.5c-7.1-2.7-8.9,4.5-15.2,10.7c0.9,0.9,0.9,0.9,3.6,0C460.4,596.7,464.9,596.7,468.5,596.7"/>
	</g>
	<g>
		<rect x="133.1" y="585.1" class="st5" width="0.9" height="4.5"/>
	</g>
	<g>
		<path class="st9" d="M187.5,586c4.5-0.9,12.5-1.8,14.3-4.5c6.2,0.9,29.4-7.2,24.1-15.2c3.6-0.9,11.6-19.7,12.5-22.4
			c13.4-17.9,54.4-19.7,58-43.8c-2.7,0-11.6,1.8-15.2,0v-0.9c15.2-2.7,28.5-5.3,31.2-22.3c-1.8,0.9-7.1,4.5-13.4,7.2
			c-36.6,15.2-77.6,5.4-111.5-16.1h-0.9c-1.8,1.8,0,4.5-2.7,7.2v-6.3c-4.5,0.9-1.8,3.6-5.3,7.2c-0.9-0.9,0.9-6.3,0.9-6.3H176
			c-0.9,2.7-0.9,3.6-1.8,7.2v-7.2c-0.9-0.9-1.8-0.9-3.6-0.9c0,8.1,0,8.1-0.9,8.9h-0.9c0.9-5.4,0.9-5.4,0-9.8c-1.8-0.9-1.8-0.9-2.7,0
			c0,3.6-0.9,7.2-0.9,10.7c-2.7,0-0.9-10.7-0.9-12.5c-0.9,0-1.8-0.9-2.7-0.9c0,4.5,1.8,11.6-0.9,17c0-1.8,0-1.8-0.9-17.9
			c-0.9,0-0.9-0.9-1.8-0.9c0,6.2,1.8,17-0.9,23.2h-0.9v-24.1c-1.8-0.9-1.8-0.9-3.6-0.9c-1.8,7.1-0.9,17.9-0.9,26.8
			c-0.9-9.8-1.8-19.7-1.8-28.6c-1.8-0.9-1.8-0.9-3.6-0.9c0,8.9,0.9,18.8,0.9,30.4c-3.6-4.5-0.9-22.3-2.7-29.5
			c-0.9,7.2-0.9,33.1-2.7,35.8c0-5.4,0-11.6-0.9-17h-0.9c-1.8,7.1-1.8,16.1-2.7,25h-0.9v-11.6c-4.5,2.7-8,45.6-26.7,33.1
			c-8.9-10.7,0-19.7,1.8-28.6c-6.2,4.5-17,34-26.8,10.7c0.9-5.4,1.8-10.7,2.7-15.2c3.6-6.3,4.5-7.2,4.5-8c0,0-0.9,0-0.9-0.9
			c-23.2,16.1-38.3-8.9-16-24.1c7.1-3.6,17.8-8.9,19.6-16.1c-5.3,0.9-1.8,1.8-5.3,5.4c0-1.8,0-1.8,0.9-3.6h-2.7
			c0,1.8-0.9,2.7-0.9,4.5c-0.9,0.9-0.9,0.9-0.9,0v-4.5c-0.9-0.9-1.8-0.9-2.7-0.9c-0.9,7.1-0.9,7.1-1.8,8c-0.9-0.9,0-6.3-0.9-8h-1.8
			c-0.9,3.6-0.9,3.6-0.9,6.3c0,0-0.9,0-0.9-0.9v-6.3c-0.9-0.9-1.8-0.9-2.7-0.9c-0.9,3.6-0.9,8-0.9,11.6c-1.8-1.8-0.9-9.8-0.9-11.6
			c-0.9-1.8-0.9-0.9-2.7-1.8c0,5.4,0,9.8-0.9,15.2H68v-16.1c-0.9-0.9-1.8-1.8-4.4-0.9v19.7c-1.8-1.8-1.8-20.6-1.8-22.4
			c-2.7-1.8-2.7-1.8-3.6-1.8c0.9,20.6,0.9,20.6,0.9,25c-1.8-9.8-1.8-17.9-1.8-25.9c-1.8-1.8-0.9-0.9-2.7-1.8V459
			c-2.7-8.9-1.8-20.6-1.8-28.6c-1.8-1.8-1.8-1.8-3.6-2.7c0,8.9,2.7,22.4,0.9,31.3c-2.7-7.2-2.7-26.8-3.6-34
			c-2.7-1.8-2.7-1.8-3.6-1.8c2.7,31.3,2.7,31.3,1.8,33.1c-1.8-10.7,0.9-36.7-8-39.3c0,11.6,1.8,25.9,2.7,39.3
			c-2.7-5.4-4.5-38.5-4.5-42h-1.8c-4.5,39.3,19.6,64.4,26.8,102.8c0.9,9.8,1.8,20.6,1.8,31.3c5.3,17.9,78.5,34.9,91.9,35.8v-0.9h1.8
			v0.9C166.1,585.1,176.8,586,187.5,586"/>
	</g>
	<g>
		<path class="st10" d="M597.7,584.2c6.3-5.4,4.5-9.8,2.7-16.1H596c0,0.9-0.9,0.9-0.9,1.8c-6.3-1.8-26.8-50.1-29.4-55.4
			c-5.4,1.8-5.4,1.8-8,3.6c0,8.1,24.1,42,32.1,51.9C589.7,578,586.2,584.2,597.7,584.2"/>
	</g>
	<g>
		<path class="st10" d="M469.4,578.9c25-1.8-1.8-40.2-10.7-17.9v5.4c8.9-7.2,8,7.2,8,11.6C467.6,578.9,467.6,578.9,469.4,578.9"/>
	</g>
	<g>
		<path class="st11" d="M440.8,578.9c-0.9-3.6,0-6.3-1.8-9c-18.7-3.6-34.8-7.1-53.5-12.5c-6.2-3.6-16-9.8-25-9.8
			c0,0.9-0.9,1.8-1.8,1.8c6.3,8.9,63.3,24.1,71.4,26.8C439,578,439,578,440.8,578.9"/>
	</g>
	<g>
		<path class="st6" d="M400.7,578c0.9-5.4,0.9-5.4,0.9-8.1c-15.2-4.5-15.2-4.5-17.8-4.5v6.3C387.3,574.4,396.2,577.1,400.7,578"/>
	</g>
	<g>
		<path class="st10" d="M346.3,573.5c0,0,0.9,0,0.9-0.9c0-2.7,0-4.5-0.9-6.3C340.9,566.3,340,572.6,346.3,573.5"/>
	</g>
	<g>
		<path class="st9" d="M247.3,567.2c29.4-5.3,11.6-15.2,24.1-37.6l-0.9-0.9c-21.4,11.6-32.1,11.6-40.1,38.4H247.3z"/>
	</g>
	<g>
		<path class="st10" d="M352.5,562.8c4.4-8-2.7-7.2-8.9-8c-0.9,3.6-0.9,3.6-0.9,5.3C347.2,560.1,349.8,563.6,352.5,562.8"/>
	</g>
	<g>
		<path class="st6" d="M398,558.3c0-0.9,0.9-1.8,0.9-2.7c0.9,0.9,0.9,0.9,1.8,0.9c-0.9-15.2-6.2-12.5-22.3-12.5
			C381,553.8,390,556.5,398,558.3"/>
	</g>
	<g>
		<path class="st11" d="M495.2,552c17.8-20.6,30.3-43.8,41.9-66.2c0.9-5.4-3.6-7.1-3.6-11.6c1.8-1.8,1.8-1.8,3.6-3.6v-0.9
			c-25-11.6-61.5-11.6-90.1-13.4c-9.8,5.4-9.8,5.4-8.9,5.4c26.7,0,70.4,0.9,91,16.1c-0.9,12.5-24.1,58.1-38.3,67.9
			c0.9,1.8,2.7,4.5,3.6,6.3H495.2z"/>
	</g>
	<g>
		<path class="st10" d="M352.5,552c0.9,0,1.8,0,2.7-0.9c0-1.8,0-0.9-0.9-1.8v-1.8c8.9-5.4,6.3-7.2,4.5-13.4c-0.9,0-1.8-0.9-2.7-0.9
			c-0.9,1.8-1.8,4.5-2.7,4.5c-0.9-0.9-0.9-2.7-0.9-4.5c-8.9,0.9-19.6,10.7-8,17.9v-2.7C348,549.3,349.8,552,352.5,552"/>
	</g>
	<g>
		<path class="st7" d="M519.3,545.8c1.8-3.6,1.8-5.4,2.7-8c-9.8-9.9-6.2-8.1-15.1,4.5v1.8C513,538.6,513.9,545.8,519.3,545.8"/>
	</g>
	<g>
		<path class="st7" d="M489,543.1c4.5-4.5,14.3-14.3,14.3-18.8c-3.6-2.7-8.9-8-13.4-8c0,1.8-2.7,4.5-2.7,7.2
			c13.4,14.3,8.9,4.5,0,18.8C488.1,543.1,489,543.1,489,543.1"/>
	</g>
	<g>
		<path class="st6" d="M397.1,543.1c0-7.2-19.6-27.7-25-26.8c0,0.9-8.9,17.9-8,18.8c5.4-2.7,8,0.9,10.7,3.6
			C381.9,540.4,390,542.2,397.1,543.1"/>
	</g>
	<g>
		<path class="st11" d="M362.3,531.5c2.7-6.3,8-13.4,7.2-18.8c0.9-0.9,1.8-0.9,2.7-0.9c1.8-3.6,6.2-9,6.2-12.5
			c-0.9-1.8-1.8-2.7-3.6-2.7c-3.6,6.3-17,27.7-17,33.1C361.4,531.5,361.4,531.5,362.3,531.5"/>
	</g>
	<g>
		<path class="st10" d="M573.7,523.4c1.8,0,2.7-0.9,4.4-0.9c0-4.5-2.7-8.9-4.4-12.5c-1.8,0-3.6,0.9-6.2,2.7c0,2.7,3.6,8,5.4,10.7
			H573.7z"/>
	</g>
	<g>
		<path class="st12" d="M118.9,523.4c14.3-9.8,19.6-45.6,23.2-61.7c0.9-28.6,4.5-61.7,0.9-88.5c7.1-15.2,26.8-82.3,17.8-101v2.7
			h-2.7c-0.9-2.7-1.8-6.3-2.7-8.9h-0.9c0,11.6,1.8,23.2,4.5,35.8c0.9,0.9,1.8,1.8,0.9,3.6h-1.8c-5.4-10.7-8-25-14.3-35.8
			c0.9,7.2,0.9,7.2,1.8,17.9h-1.8c-1.8-3.6-3.6-12.5-7.1-14.3c0,8,0.9,18.8-1.8,27.7h-1.8c-3.6-9.8-8-37.6-10.7-39.4
			c-1.8,14.3-1.8,14.3-2.7,17h-0.9c-3.6-5.4-4.5-17-6.3-23.2h-1.8c-2.7,14.3-2.7,14.3-5.3,25.9c0,0.9,0,0.9-1.8,0.9
			c0-0.9,0-0.9-1.8-18.8c-1.8,0-4.5,8.1-6.2,11.6h-1.8c-0.9-2.7-0.9-2.7-1.8-17.9c-2.7,0-5.4,8.1-7.1,11.6c-1.8-0.9-1.8-0.9-1.8-1.8
			c0.9-9.8,0.9-9.8,0-13.4c-1.8,2.7-3.6,6.3-7.1,11.6h-1.8c-1.8-1.8-0.9-23.2-0.9-25c-2.7,0.9-10.7,17.9-13.4,23.3h-1.8
			c-2.7-5.4-1.8-11.6-1.8-17c-7.1,7.2,6.2,49.2,12.5,55.4c4.5-1.8,6.2-1.8,9.8-1.8v1.8c-6.2,0.9-10.7,1.8-10.7,10.7
			c0,0,0,0.9,0.9,0.9c2.7-3.6,15.2-2.7,16,0c0,0.9-29.4-0.9-12.5,24.1c16,13.4,9.8,36.7,20.5,48.3c4.5-3.6,5.4-4.5,8-5.4
			c0,4.5-8,7.2-7.1,14.3c3.5-0.9,8-1.8,11.6-2.7l0.9,0.9v1.8c-18.7,4.5-22.3,18.8-10.7,37.5c5.4,22.4-8,22.4-25.9,34
			c-7.1,11.6,0,18.8,11.6,18.8c8.9-2.7,24.1-22.3,26.8-19.7c0,10.7-33,35.8-15.2,46.5c12.5-1.8,23.2-32.2,30.3-42
			C128.7,476.9,92.1,523.4,118.9,523.4"/>
	</g>
	<g>
		<path class="st8" d="M553.2,515.4c16.1-7.1,16.1-7.1,27.7-13.4v-2.7c-8.9,0.9-13.4,6.3-22.3,9.8c-4.5,0-8.9-1.8-9.8,5.4
			C550.5,516.3,553.2,515.4,553.2,515.4"/>
	</g>
	<g>
		<path class="st11" d="M556.7,506.4c5.3-2.7,10.7-5.4,15.2-8.9c0-8-3.6-17-6.2-24.1c-27.7,0-16.1,17-10.7,33.1H556.7z"/>
	</g>
	<g>
		<path class="st12" d="M391.8,497.5c5.4-1.8,6.2-3.6,6.2-8c-5.4-2.7-26.8-15.2-21.4,4.5C381.9,497.5,386.4,497.5,391.8,497.5"/>
	</g>
	<g>
		<path class="st12" d="M270.5,488.5c41.9-8.9,54.4-22.3,61.5-66.2c0-3.6,0.9-10.7,0-13.4c-25.9-2.7-61.5-1.8-85.6,11.6h-2.7
			c-0.9-3.6-2.7-7.1-4.5-10.7c-0.9,0.9-0.9,0.9-3.6,24.1c0-9.8,4.4-24.1,0.9-31.3c-2.7,8.9,0.9,25-3.6,34.9c0.9-8.1,8-42.9-3.6-45.6
			c0,1.8,0,6.3,0.9,8.9c0.9,0,0.9-0.9,0.9-0.9c0,1.8,0.9,2.7,0.9,4.5c0-1.8,0-2.7,0.9-4.5c0,12.5-2.7,25.1-3.6,39.3l-0.9,0.9
			c0-0.9,0.9-11.6,0.9-14.3c-1.8,0.9-3.6,17-3.6,21.5H225c0-4.5,1.8-13.4,2.7-25.9c-0.9,0.9-1.8,0.9-2.7,0.9
			c-3.6,25-3.6,25-3.6,25.9c-0.9-1.8-0.9-1.8,1.8-24.1c-16,4.5-16,4.5-16.9,5.4c0,2.7,0,4.5-0.9,7.1h-0.9c0-2.7,0.9-4.5,0.9-6.3
			c-17.8,3.6-33.9,14.3-54.4,17c-1.8,0.9-1.8,0.9-6.3,1.8v4.5c13.4,5.4,25,11.6,37.5,11.6v-0.9c-1.8-1.8-11.6-9.8-12.5-12.5
			c11.6,2.7,26.8,18.8,39.2,25C229.4,482.3,250,488.5,270.5,488.5"/>
	</g>
	<g>
		<path class="st12" d="M405.1,486.8c3.6-0.9,5.4-0.9,5.4-3.6c-8-6.2-9.8-8.9-12.5-18.8C382.8,458.1,381.9,485,405.1,486.8"/>
	</g>
	<g>
		<path class="st12" d="M423,481.4c8-5.3,10.7-8.9,8-17.9c-3.6,0-6.3,0-9.8,0.9c0.9,2.7,0.9,2.7,0.9,6.2c-0.9,0-11.6-23.2-20.5-9.8
			c0,2.7,0.9,2.7,1.8,5.4h-2.7C404.2,477.8,412.3,481.4,423,481.4"/>
	</g>
	<g>
		<path class="st8" d="M540.7,479.6c4.5-3.6,18.7-9,23.2-10.7c1.8-4.5,4.5-4.5,6.2-7.1c-8.9,0-23.2,8.9-33,13.4c0,1.8,0,2.7,0.9,4.5
			H540.7z"/>
	</g>
	<g>
		<path class="st11" d="M385.5,479.6c0-2.7,0-2.7-0.9-9c-0.9,0.9-5.3,7.2-4.5,9H385.5z"/>
	</g>
	<g>
		<path class="st12" d="M381,470.7V468c-10.7-5.4-16.9-20.6-3.6-26.8c5.4,5.4,16.9,10.7,23.2,5.4c11.6-14.3,15.2,2.7,27.6-7.2
			c10.7-17.9-13.4-13.4-17.8-16.1c-15.2-15.2-10.7-17.9-25.9-3.6c-17.8,8-58-55.4-66-72.4c-0.9-4.5-1.8-9.8-6.2-10.7
			c0.9,4.5,1.8,8.9,1.8,13.4c-3.6,0-4.5-3.6-8-5.4c4.4,22.3,27.6,37.6,40.1,53.6c1.8,1.8,4.5,7.2,6.3,8.9c0,10.7-3.6,17.9-8.9,28.6
			c5.4,4.5,17.8,7.1,21.4,13.4C365.9,458.1,369.5,472.5,381,470.7"/>
	</g>
	<g>
		<path class="st10" d="M549.6,465.3c7.1-3.6,8.9-4.5,15.2-5.4c4.4-18.8,8-32.2,14.3-49.2c14.3-52.7-28.5-36.6-22.3-23.2
			c2.7,0,5.3-1.8,8-2.7c25.9,11.6-5.4,44.7-5.4,64.4c0,2.7,1.8,5.4,1.8,8h-1.8c-3.6-5.4-2.7-10.7-2.7-16.1
			c3.6-27.7,3.6-92.1-37.5-59c0.9,0.9,5.4,8,7.2,8.9c3.6-3.6,8-8,12.5-8c17,19.7,10.7,48.3,7.1,73.3
			C546,459.9,545.1,464.4,549.6,465.3"/>
	</g>
	<g>
		<path class="st7" d="M382.8,464.4c1.8-1.8,5.3-2.7,7.1-4.5c3.6,0,6.2,0.9,8.9,0.9c5.3-9.8,13.4-8,19.6,0
			c15.2-0.9,45.5-13.4,14.3-18.8c-5.3,0-10.7,3.6-17.8,4.5c-4.5-1.8-4.5-1.8-8-2.7c-8.9,9.8-14.3,11.6-28.5,1.8
			C366.8,444.7,373.9,464.4,382.8,464.4"/>
	</g>
	<g>
		<path class="st3" d="M305.3,458.1c8-2.7,11.6-8.9,10.7-15.2c-2.7,0-8,21.5-22.3,5.4c-0.9-2.7-1.8-7.2-2.7-8.9h-0.9
			C291.9,451.9,292.8,456.4,305.3,458.1"/>
	</g>
	<g>
		<path class="st3" d="M217.9,445.6c0.9-1.8,2.7-16.1,1.8-18.8c-0.9,5.4-2.7,17.9-1.8,19.7V445.6z"/>
	</g>
	<g>
		<path class="st13" d="M146.5,443.8c15.1-4.5,33-4.5,45.5-12.5c43.7-15.2,31.2-3.6,35.7-44.7c0.9,0,0.9-0.9,0.9-0.9
			c10.7,10.7,8.9,15.2,16,30.4h2.7c37.5-11.6,65.1-16.1,102.6-6.3c-0.9-8-9.8-16.1-14.3-21.5c-15.2-14.3-23.2-22.4-31.2-41.1
			c0-0.9-0.9-0.9-0.9-0.9c-0.9,1.8-0.9,3.6-1.8,5.4h-0.9c2.7-20.6-8.9-39.3-25.9-51c-17.8,0-31.2-3.6-48.2-13.4
			c-7.1-8.9-7.1-9.8-8-10.7c-0.9,0.9-0.9,0.9-1.8,0.9c-12.5-11.6-18.7-20.6-26.8-36.7c-8.9-20.6-32.1-93.9-43.7-94.8
			c0.9,5.4,9.8,13.4,8.9,20.6c0,0-11.6-20.6-14.3-24.1h-1.8c4.4,8.9,11.6,21.5,12.5,30.4c-0.9-0.9-0.9-0.9-10.7-25h-1.8
			c3.6,8.1,9.8,27.7,10.7,30.4c-4.4-3.6-11.6-48.3-26.7-44.7c11.6,14.3,23.2,34,25.9,52.7h-0.9c-6.2-24.1-30.3-76.9-60.6-50.1
			c-37.5,10.7-51.7,59.9-69.6,93.9c0,0-0.9,1.8-0.9,2.7h0.9c8.9-7.1,11.6-10.7,12.5-10.7c3.6,2.7-1.8,11.6-3.6,16.1l0.9,0.9
			c4.5-4.5,10.7-8.9,11.6-14.3c2.7,0,2.7,0,2.7,0.9c-0.9,6.2-7.1,13.4-8.9,21.5h0.9c8-6.3,11.6-10.7,16.1-18.8h0.9
			c1.8,4.5-3.6,17.9-5.4,25.9h0.9c2.7-4.5,6.3-8,8.9-12.5c0.9-3.6,1.8-9.8,3.6-11.6c2.7,1.8,0,23.2,0,27.7c0,0,0,0.9,0.9,0.9
			c4.4-7.2,10.7-26.8,13.4-28.6c0.9,0,0.9,0.9,1.8,1.8v27.7c0.9,0,0.9,0,0.9,0.9c3.6-6.3,5.3-9.8,7.1-16.1H85
			c0.9,2.7,0,14.3,1.8,16.1c1.8-5.4,2.7-8.9,3.6-12.5c4.5,0.9,4.5,15.2,5.3,21.4c3.6-5.4,3.6-11.6,6.2-15.2
			c2.7,3.6,1.8,9.8,3.6,15.2c1.8-6.3,3.6-13.4,4.5-19.7h1.8c6.2,5.4,5.3,9.8,7.1,19.7c0.9-1.8,0.9-1.8,1.8-17h0.9
			c6.2,10.7,5.3,34,11.6,43.8c0.9-6.3,0.9-6.3,1.8-29.5c3.6,0,5.4,8.9,8,12.5c0-6.3-1.8-12.5-1.8-17h1.8c0.9,0.9,8.9,21.5,10.7,25
			c0.9-8.9-3.6-17.9-0.9-26.8h1.8c0.9,0.9,1.8,1.8,1.8,2.7c0-4.5,0-15.2,0.9-15.2h1.8c4.4,12.5,10.7,24.1,17.8,35.8
			c0-0.9-5.4-47.4-5.4-50.1c0,0,0.9,0,0.9-0.9c0.9,1.8,2.7,32.2,4.5,40.2c1.8,6.3,10.7,22.3,9.8,27.7h-0.9c-1.8-1.8-5.3-8.1-6.3-9.8
			c-0.9,0-1.8,0.9-2.7,0.9c0-0.9-0.9-0.9-0.9-0.9c-2.7,0-4.5,0.9-10.7,1.8c-2.7,27.7-11.6,54.5-20.5,81.4c0.9,12.5,0.9,45.6,0,69.7
			H146.5z"/>
	</g>
	<g>
		<path class="st7" d="M531.8,442.9c4.5-5.4,12.5-28.6,12.5-34c-2.7-0.9-5.4-1.8-8-2.7C536.2,410.8,512.2,442.9,531.8,442.9"/>
	</g>
	<g>
		<path class="st14" d="M332,442.1c2.7-2.7,5.4-4.5,6.2-7.2c6.2-1.8,11.6-15.2,10.7-20.6c-4.5-2.7-9.8-4.5-15.2-5.4
			c0,11.6-0.9,20.6-2.7,33.1C332,442.9,332,442.9,332,442.1"/>
	</g>
	<g>
		<path class="st3" d="M214.3,442.1c0.9-5.4,1.8-9.8,0.9-13.4C215.2,428.6,212.5,442.9,214.3,442.1"/>
	</g>
	<g>
		<path class="st3" d="M307.9,441.2c5.4-1.8,5.4-1.8,5.4-6.3c-1.8-1.8-8,0-7.1-8c2.7-1.8,2.7-2.7,2.7-5.4H307
			C303.5,425.1,297.2,441.2,307.9,441.2"/>
	</g>
	<g>
		<path class="st13" d="M93.9,440.3c0-8.9-8-17.9-8-28.6c2.7-13.4,8.9-17,1.8-30.4c-2.7-13.4-5.4-25-11.6-34.9
			c-14.3-17-9.8-24.1-9.8-42.9c-5.3-15.2-14.3-33.1-15.2-48.3h-1.8c0,0.9-0.9,3.6-3.6,3.6c-3.6-3.6-0.9-14.3-0.9-17
			c-1.8,0-3.6,2.7-6.2,5.4c0.9,1.8,1.8,2.7,2.7,5.4c-1.8,2.7,0.9,29.5,1.8,35.8c0,28.6-12.5,47.4-25.9,72.4
			C6.5,400.9,61.8,440.3,93.9,440.3"/>
	</g>
	<g>
		<path class="st3" d="M210.7,439.4c0-2.7,0-6.3,0.9-8.9c-0.9,0.9-1.8,6.3-1.8,9.8C209.8,439.4,210.7,439.4,210.7,439.4"/>
	</g>
	<g>
		<path class="st3" d="M199.1,437.6c0.9-0.9,0.9-2.7,0.9-3.6c0-0.9-0.9-0.9-0.9-0.9c-0.9,1.8-0.9,3.6-0.9,5.4L199.1,437.6z"/>
	</g>
	<g>
		<path class="st7" d="M501.4,425.1c5.4-3.6,21.4-30.4,21.4-33.1c-9.8-18.8-18.7,7.1-29.4,18.8C489,417.9,494.3,424.2,501.4,425.1"
			/>
	</g>
	<g>
		<path class="st12" d="M230.3,425.1c0-1.8,0-2.7-0.9-4.5c0,1.8,0,2.7-0.9,4.5H230.3z"/>
	</g>
	<g>
		<path class="st10" d="M545.1,407.2c0.9-3.6,0.9-3.6,0.9-8c-0.9-0.9-0.9-0.9-3.6-0.9c-2.7,3.6-2.7,3.6-4.5,4.5
			C540.7,404.5,543.4,405.4,545.1,407.2"/>
	</g>
	<g>
		<path class="st13" d="M311.5,344.6c0-4.5-0.9-8.9-0.9-13.4c0,0,0.9,0,0.9-0.9c1.8,1.8,2.7,2.7,3.6,4.5c0.9,0,0.9-0.9,0.9-0.9
			c-0.9-3.6-3.6-8.9-1.8-11.6h0.9c0.9,0.9,0.9,0.9,1.8,1.8c0.9,0,0.9-0.9,0.9-0.9c-5.3-6.3-10.7-11.6-15.2-18.8
			c-8,0-17.8-5.4-24.1-4.5c0.9,2.7,8.9,9.8,11.6,12.5c6.2,8.9,9.8,17.9,14.3,28.6C307.9,341,309.7,342.8,311.5,344.6"/>
	</g>
	<g>
		<path class="st3" d="M246.4,331.2c0-1.8,0-7.2-0.9-8.1c0,0.9-1.8,6.3,0,8.1H246.4z"/>
	</g>
	<g>
		<path class="st3" d="M236.6,331.2c1.8-1.8,1.8-1.8,2.7-1.8c0,0.9,0,0.9,0.9,1.8c3.6-3.6,2.7-10.7-0.9-11.6c0,2.7,0.9,5.4,0.9,8.1
			c-0.9,0-0.9,0.9-1.8,0.9c0,0,0-12.5-3.6-7.1c1.8,2.7,0.9,5.3,0,8.9C235.7,331.2,235.7,331.2,236.6,331.2"/>
	</g>
	<g>
		<path class="st3" d="M257.1,329.4c6.2-0.9,12.5-1.8,18.7-2.7v-0.9c-6.3,0.9-13.4,0.9-19.6,0.9l-0.9-0.9c-0.9,0-1.8,0-2.7,1.8
			C253.5,330.3,255.3,329.4,257.1,329.4"/>
	</g>
	<g>
		<path class="st3" d="M232.1,328.5c1.8-2.7,1.8-3.6,1.8-5.4c-0.9,0-1.8-0.9-1.8-0.9h-0.9c0,1.8,0,4.5-0.9,6.3H232.1z"/>
	</g>
	<g>
		<path class="st3" d="M225.9,328.5l0.9-0.9c0-0.9-0.9-1.8-0.9-2.7h-1.8v2.7C225,327.6,225.9,327.6,225.9,328.5"/>
	</g>
	<g>
		<path class="st3" d="M221.4,328.5c0.9-1.8,0.9-1.8,0.9-2.7h-1.8v1.8L221.4,328.5z"/>
	</g>
	<g>
		<path class="st3" d="M252.6,323.1c7.1-1.8,14.3-3.6,20.5-3.6v-1.8c-7.1,0-14.3,1.8-21.4,3.6c-0.9,0.9-0.9,0.9-0.9,1.8H252.6z"/>
	</g>
	<g>
		<path class="st12" d="M304.4,300.8c36.6-9.8,53.5-76.9,53.5-110c-4.5-4.5-25.9-5.4-33.9-5.4v0.9c-11.6,1.8-26.8,5.4-38.4-2.7
			c-1.8,0-2.7,0.9-4.5,0.9c-0.9,0.9-0.9,2.7-0.9,3.6h-3.6v0.9c-1.8,0.9-1.8,0.9-2.7,0.9c0-2.7,3.6-8,3.6-8c0.9,1.8,0.9,1.8,1.8,1.8
			c0-1.8,0-4.5,0.9-7.1c0.9,0,0.9,0,1.8,0.9c0-2.7,0-5.4,0.9-7.1c1.8,2.7,0.9,6.2,0.9,9.8c11.6,7.2,26.7,3.6,38.4,2.7
			c-0.9-3.6-0.9-3.6-1.8-8c-2.7-0.9-4.5-1.8-7.1-3.6v-1.8c23.2,4.5,41,0.9,41-27.7c-8.9-18.8-26.7-25.9-35.7-42.9h-1.8
			c-8.9,16.1-10.7,51.9-39.2,41.1c-9.8-12.5-9.8-26.8-8-42c-14.3-1.8-33-5.4-47.3-3.6c-6.2,10.7-6.2,10.7-13.4,21.4
			c8.9,48.3,3.6,102.8,16.9,151.1c10.7,23.3,21.4,29.5,44.6,30.4c3.6-3.6,5.4-7.2,3.6-9.8h-1.8c0,1.8-0.9,3.6-1.8,6.3h-1.8
			c0.9-3.6,2.7-8,2.7-10.7h-1.8c-2.7,8-2.7,8-2.7,9.8c-3.6,0,1.8-11.6,1.8-16.1h-1.8c-0.9,3.6-1.8,7.1-2.7,10.7
			c-0.9,0-0.9,0.9-1.8,0.9c0.9-3.6,7.1-17.9,1.8-18.8c-1.8,5.4-1.8,5.4-4.5,9.9h-0.9c0,0,4.5-14.3,4.5-17h-1.8
			c-2.7,6.3-2.7,6.3-2.7,7.1c-2.7-2.7,2.7-10.7,3.6-11.6c0-0.9-0.9-1.8-0.9-2.7h-0.9c0,0.9-0.9,3.6-2.7,2.7c0-1.8,0-1.8,0.9-5.3h2.7
			v-11.6c0.9,0,0.9,0.9,1.8,0.9C266.9,268.6,274,300.8,304.4,300.8"/>
	</g>
	<g>
		<path class="st13" d="M276.7,296.3h1.8c0-3.6,0-2.7-2.7-3.6c0,0.9-0.9,1.8-0.9,3.6H276.7z"/>
	</g>
	<g>
		<path class="st13" d="M167,290c1.8-0.9,2.7-1.8,4.5-1.8c0.9-5.4,1.8-5.4,1.8-7.2c-2.7-5.4-11.6-24.1-14.3-25v10.7
			c0.9,0,0.9,0.9,0.9,0.9c0.9,0,0.9-0.9,0.9-0.9c3.6,1.8,3.6,17.9,4.5,23.3H167z"/>
	</g>
	<g>
		<path class="st3" d="M324,284.7c0-0.9,0.9-0.9,0.9-1.8c-0.9,0-0.9-0.9-0.9-0.9C323.1,282,323.1,285.6,324,284.7"/>
	</g>
	<g>
		<path class="st3" d="M295.4,280.2c0-0.9,0-1.8,0.9-2.7h-1.8v1.8L295.4,280.2z"/>
	</g>
	<g>
		<path class="st3" d="M304.4,278.4v-1.8c-0.9,0-0.9,0-0.9,1.8C304.4,279.3,304.4,279.3,304.4,278.4"/>
	</g>
	<g>
		<path class="st3" d="M290.1,277.5c0-0.9,0-1.8,0.9-2.7h-1.8C289.2,277.5,289.2,278.4,290.1,277.5"/>
	</g>
	<g>
		<path class="st12" d="M216.1,274c0,0,0-0.9,0.9-0.9c-6.2-9.8-10.7-20.6-13.4-31.3c-11.6-26.8-27.6-53.7-39.2-80.5
			c-6.2-18.8-6.2-18.8-7.1-19.7c-5.4-0.9-10.7-2.7-16.9-1.8c1.8,1.8,2.7,2.7,4.4,4.5c9.8-4.5,9.8,9,15.2,14.3
			c14.3,37.6,27.6,69.8,45.5,105.5C215.2,272.2,215.2,272.2,216.1,274"/>
	</g>
	<g>
		<path class="st3" d="M346.3,274c1.8-1.8,0-3.6-1.8-4.5C344.5,270.4,344.5,274.9,346.3,274"/>
	</g>
	<g>
		<path class="st3" d="M346.3,265.9v-1.8c0-0.9-0.9-0.9-0.9-0.9c-0.9,0-0.9,0.9-0.9,1.8C345.4,266.8,345.4,266.8,346.3,265.9"/>
	</g>
	<g>
		<path class="st3" d="M305.3,259.7c1.8-1.8,1.8-6.3,1.8-8.1C299,247.1,299.9,258.8,305.3,259.7"/>
	</g>
	<g>
		<path class="st3" d="M350.7,258.8v-2.7c0-0.9,0-0.9-0.9-1.8v4.5H350.7z"/>
	</g>
	<g>
		<rect x="303.5" y="253.4" class="st13" width="0.9" height="2.7"/>
	</g>
	<g>
		<path class="st3" d="M320.4,253.4c0.9-0.9,0.9-0.9,0-1.8h-1.8c0,0,0,0.9,0.9,1.8H320.4z"/>
	</g>
	<g>
		<path class="st3" d="M352.5,252.5v-1.8c-0.9-0.9-0.9-1.8-3.6-0.9v0.9C350.7,251.6,351.6,252.5,352.5,252.5"/>
	</g>
	<g>
		<path class="st3" d="M341.8,247.1c0.9,0,0.9-0.9,0.9-1.8h-1.8v1.8H341.8z"/>
	</g>
	<g>
		<path class="st3" d="M307.9,240.9v-2.7H307l-0.9,0.9C307,240.9,307,240.9,307.9,240.9"/>
	</g>
	<g>
		<path class="st3" d="M329.3,239.1v-2.7c-0.9,0-0.9,0-1.8,1.8C327.5,239.1,328.4,239.1,329.3,239.1"/>
	</g>
	<g>
		<path class="st3" d="M324,236.4c0.9,0,0.9-0.9,0.9-1.8h-1.8v1.8C324,237.3,324,237.3,324,236.4"/>
	</g>
	<g>
		<path class="st3" d="M227.4,270.8c0-0.9,0-1.8,0.9-2.7h-1.8v1.8L227.4,270.8z"/>
	</g>
	<g>
		<path class="st3" d="M236.3,269v-1.8c-0.9,0-0.9,0-0.9,1.8C236.3,269.9,236.3,269.9,236.3,269"/>
	</g>
	<g>
		<path class="st3" d="M222,268.1c0-0.9,0-1.8,0.9-2.7h-1.8C221.1,268.1,221.1,269,222,268.1"/>
	</g>
	<g>
		<path class="st3" d="M252.4,243.9c0.9-0.9,0.9-0.9,0-1.8h-1.8c0,0,0,0.9,0.9,1.8H252.4z"/>
	</g>
	<g>
		<path class="st3" d="M239.9,231.4v-2.7H239l-0.9,0.9C239,231.4,239,231.4,239.9,231.4"/>
	</g>
	<g>
		<path class="st3" d="M261.3,229.6V227c-0.9,0-0.9,0-1.8,1.8C259.5,229.6,260.4,229.6,261.3,229.6"/>
	</g>
	<g>
		<path class="st3" d="M255.9,227c0.9,0,0.9-0.9,0.9-1.8H255v1.8C255.9,227.9,255.9,227.9,255.9,227"/>
	</g>
	<g>
		<path class="st3" d="M202.4,224.8v-2.7h-0.9l-0.9,0.9C201.5,224.8,201.5,224.8,202.4,224.8"/>
	</g>
	<g>
		<path class="st3" d="M223.8,223v-2.7c-0.9,0-0.9,0-1.8,1.8C222,223,222.9,223,223.8,223"/>
	</g>
	<g>
		<path class="st3" d="M218.4,220.3c0.9,0,0.9-0.9,0.9-1.8h-1.8v1.8C218.4,221.2,218.4,221.2,218.4,220.3"/>
	</g>
	<g>
		<rect x="243.7" y="212.3" class="st3" width="1.8" height="2.7"/>
	</g>
	<g>
		<path class="st3" d="M262.4,210.5c3.6-2.7,0.9-10.7,0.9-12.5c3.6-1.8,3.6-2.7,3.6-6.3c-4.5-0.9-6.2-2.7-6.2-7.1
			c1.8-0.9,2.7-3.6,3.6-4.5v-1.8c-1.8-0.9-4.5-1.8-6.2-2.7V172c9.8-6.3-2.7-5.4-0.9-12.5c4.5-2.7,3.6-3.6,5.3-6.2
			c-1.8-2.7-4.5-1.8-7.1-3.6c0,0,1.8-39.3-6.3-15.2c-0.9,5.4-0.9,10.7-1.8,16.1c-1.8,0.9-2.7,0.9-2.7,4.5c1.8,1.8,2.7,2.7,4.5,3.6
			v3.6c-0.9,0.9-1.8,1.8-2.7,2.7c0.9,4.5,4.5,4.5,4.5,10.7c-9.8,2.7,0.9,8.9,1.8,10.7v6.3c0,0.9-0.9,1.8-1.8,2.7
			c0,4.5,1.8,5.4,6.3,5.4c0.9,3.6,1.8,6.3,3.6,9.8H262.4z"/>
	</g>
	<g>
		<path class="st12" d="M204.5,210.5c0-27.7,1.8-59.9-4.5-84c-3.6,0-6.3,1.8-9.8,4.5c4.5,6.2,6.3,8,0.9,13.4c0,3.6,4.5,9,4.5,10.7
			c-13.4-6.3,3.6-26.8-14.3-19.7c-0.9,6.3-0.9,6.3,0,8.9h-0.9c-1.8-3.6-1.8-3.6-2.7-7.1c-1.8,0.9-1.8,0-4.5,1.8
			c3.6,14.3,8.9,24.1,18.7,34c0.9,0,9.8,1.8,6.2,5.4c-12.5,2.7-25.9-28.6-27.7-38.5h-0.9c4.5,24.1,19.6,49.2,33.9,69.7
			C204.5,209.6,204.5,209.6,204.5,210.5"/>
	</g>
	<g>
		<path class="st15" d="M262.4,206.9c-0.9-4.5-0.9-4.5-1.8-8h-1.8C258.9,200.6,258.9,206,262.4,206.9"/>
	</g>
	<g>
		<path class="st15" d="M255.3,198c0.9-0.9,1.8-1.8,2.7-1.8c0,0.9,0.9,0.9,1.8,1.8c0-0.9,0.9-1.8,0.9-2.7h2.7
			c-0.9-3.6-6.2-6.3-5.4-12.5c0.9-0.9,1.8-1.8,3.6-1.8c0-0.9,0-0.9-0.9-0.9c-3.6-0.9-5.3-3.6-5.3-8.9c0.9-0.9,1.8-1.8,2.7-2.7v-0.9
			c-3.6-2.7-2.7-6.3-3.6-9.8c1.8-0.9,3.6-1.8,4.5-2.7v-1.8h-4.5c-2.7-5.4-0.9-17.9,0-23.3c-6.2-0.9-3.6,17.9-3.6,22.3
			c-0.9,0.9-3.6,0.9-4.5,1.8c2.7,4.5,6.2,0,5.3,10.7c-2.7,0.9-2.7,0.9-2.7,1.8c0.9,0.9,2.7,1.8,3.6,1.8v9.8c-1.8,0-3.6,0-3.6,3.6
			c7.1,0,6.3,6.2,6.3,12.5C255.3,194.4,251.7,198,255.3,198"/>
	</g>
	<g>
		<path class="st3" d="M234.8,190.8c0-0.9,0.9-0.9,0.9-0.9c-1.8-0.9-1.8-0.9-2.7-0.9v0.9C233.9,190.8,234.8,190.8,234.8,190.8"/>
	</g>
	<g>
		<path class="st3" d="M305.3,169.3c8-8,6.2-4.5,15.2-2.7c2.7-6.3-9.8-11.6-14.3-1.8c-13.4,0-13.4-30.4,9.8-16.1
			c1.8,0,1.8,0,3.6-0.9c0-3.6,0-6.3-0.9-9.8c0,0.9,0,0.9-0.9,9c-3.6-3.6-2.7-6.3-2.7-10.7c0,0-0.9,0-0.9-0.9c0,2.7,0,5.4-0.9,8
			c-16.1-7.2-10.7,0-20.5,5.4v8.9c-7.1-5.4,0.9-8.9-5.4,0.9c-2.7-1.8-9.8,0-14.3,0c0.9,2.7,16,4.5,16.9,0.9c0.9,0,2.7,1.8,5.4,1.8
			C297.2,165.8,300.8,169.3,305.3,169.3"/>
	</g>
	<g>
		<path class="st4" d="M285.6,138.1c21.4-3.6,22.3-25.9,28.5-42.9h-2.7c-1.8,5.3-1.8,8-3.6,12.5c-0.9-1.8,0-5.4,0-7.2
			c-0.9,0.9-0.9,0.9-2.7,10.7c0-6.3,0-16.1,2.7-19.7v0.9v6.3c0,0,0,0.9,0.9,0.9c0.9-2.7,0.9-2.7,1.8-10.7h-6.2
			c-0.9,8.9-2.7,17.9-3.6,26.8c-1.8-3.6,1.8-22.4,1.8-26.8h-1.8c-2.7,10.7-2.7,23.2-4.5,34.9c0-12.5,0.9-24.1,1.8-35.8
			c-8-0.9-16.1-1.8-24.1-2.7C272.3,99.6,265.1,136.3,285.6,138.1"/>
	</g>
	<g>
		<path class="st3" d="M285.6,130c0-14.3,0.9-27.7,1.8-41.1c-0.9-0.9-0.9-0.9-1.8,0C285.6,90.7,283,130,285.6,130"/>
	</g>
	<g>
		<path class="st3" d="M291.9,126.4c0.9-11.6,1.8-24.1,2.7-35.8v-0.9C293.7,92.5,290.1,126.4,291.9,126.4"/>
	</g>
	<g>
		<path class="st3" d="M283,126.4V88h-0.9c-2.7,8.9-0.9,26.8-0.9,37.5C281.2,125.5,282.1,125.5,283,126.4"/>
	</g>
	<g>
		<path class="st3" d="M289.2,123.7c0.9-11.6,0.9-22.3,1.8-34c0,0.9-0.9,0.9-0.9,0.9c-0.9,14.3-0.9,14.3-1.8,32.2
			C289.2,122.9,289.2,122.9,289.2,123.7"/>
	</g>
	<g>
		<path class="st3" d="M274,122.9c1.8-28.6,1.8-30.4,1.8-32.2H274c0,10.7,0,21.5-0.9,32.2H274z"/>
	</g>
	<g>
		<path class="st3" d="M278.5,117.5c0-9,0.9-18.8,0.9-28.6c0,0,0-0.9-0.9-0.9c0,3.6,0,3.6-1.8,29.5H278.5z"/>
	</g>
	<g>
		<path class="st4" d="M330.2,108.5c4.5-4.5,3.6-13.4,2.7-17.9h-1.8c0,2.7,0,5.4-0.9,8.1l-0.9,0.9c0-1.8,0.9-8,0.9-9h-0.9
			c-0.9,1.8-0.9,1.8-1.8,7.1h-1.8c0.9-2.7,0.9-4.5,0.9-7.1H324C324,94.3,320.4,108.5,330.2,108.5"/>
	</g>
	<g>
		<path class="st4" d="M320.4,95.1h1.8v-5.4c-0.9,0-1.8,0.9-2.7,0.9c0,1.8-0.9,2.7-0.9,4.5H320.4z"/>
	</g>
	<g>
		<path class="st12" d="M269.6,95.1v-9.8c-10.7,0-31.2-1.8-41.9,3.6v0.9C241.9,92.5,255.3,92.5,269.6,95.1"/>
	</g>
	<g>
		<path class="st4" d="M316.8,94.3c0.9-1.8,0.9-3.6,0.9-4.5h-4.5c0,1.8,0.9,1.8,1.8,3.6C315.9,93.3,315.9,94.3,316.8,94.3"/>
	</g>
	<g>
		<path class="st12" d="M200,126.4l8.3-9.3l4.6-2.9c0,0,13.9,38.7,14.5,49.7c0.6,11-4.1,41.6-3.5,49.7c0.6,8.1,17.4,62.5,18.5,65.4
			c1.2,2.9,12.1,15.6,12.1,15.6s-26-4.1-40.5-24.3c-14.5-20.2-30.7-65.4-35.3-72.3C174.2,191.1,154,142,154,142l1.2-11.6L200,126.4z
			"/>
	</g>
	<g>
		<path class="st12" d="M141.3,140.2c0,0,16.4-3.1,8.7-4.8c-7.7-1.7-9.3,1.3-9.3,1.3s-7.2-28.8-4.6-40.8c2.7-12,12.3-36.1,41-44.8
			c28.7-8.7,16.1-7.7,50.9-6.4c34.8,1.3,50.5-7.3,60.8-1.9c10.4,5.4,47.3-7.1,47.6-4.7c0.2,1.3,4.5,16.1,3.9,30.3
			c-0.5,12.3-5.9,24.3-5.9,24.3L271,88.4l-1.3,12.4l-31.4,7l-23.1,4.3l-13.4,14.7l-6,5.7l-36.4,5.7L141.3,140.2z"/>
	</g>
	<g>
		<path class="st3" d="M176,87.6c-0.2-0.3-1.3-1.8-1-5.1c0.3-3.3,2.9-4.1,4-5.5c1.1-1.4,4.6-3.2,6.2-3.5c1.6-0.3,2,1.9,1.9,3.2
			c-0.1,1.3,2,1.7,4.6,1.1c2.6-0.6,5.2,2,5.2,2c4.5,6.2,6.3,8,0.9,13.4c0,3.6,4.5,9,4.5,10.7c-13.4-6.3,3.6-26.8-14.3-19.7
			c-0.9,6.3-0.9,6.3,0,8.9h-0.9c-1.8-3.6-1.8-3.6-2.7-7.1c-1.8,0.9-1.8,0-4.5,1.8c3.6,14.3,8.9,24.1,18.7,34c0.9,0,9.8,1.8,6.3,5.4
			c-12.5,2.7-25.9-28.6-27.7-38.5h-0.9C176.4,88.8,176.2,87.9,176,87.6"/>
	</g>
	<g>
		<path class="st3" d="M214,253.5v-2.7h-0.9l-0.9,0.9C213.1,253.5,213.1,253.5,214,253.5"/>
	</g>
	<g>
		<path class="st3" d="M235.4,251.7V249c-0.9,0-0.9,0-1.8,1.8C233.6,251.7,234.6,251.7,235.4,251.7"/>
	</g>
	<g>
		<path class="st3" d="M207.4,239.2c0.9,0,0.9-0.9,0.9-1.8h-1.8v1.8C207.4,240.1,207.4,240.1,207.4,239.2"/>
	</g>
	<g>
		<path class="st3" d="M207.2,225v-2.7h-0.9l-0.9,0.9C206.3,225,206.3,225,207.2,225"/>
	</g>
	<g>
		<path class="st3" d="M221,215.7V213c-0.9,0-0.9,0-1.8,1.8C219.2,215.7,220.1,215.7,221,215.7"/>
	</g>
	<g>
		<path class="st3" d="M215.7,213c0.9,0,0.9-0.9,0.9-1.8h-1.8v1.8C215.7,213.9,215.7,213.9,215.7,213"/>
	</g>
	<g>
		<path class="st3" d="M197.1,189.7v-2.7h-0.9l-0.9,0.9C196.2,189.7,196.2,189.7,197.1,189.7"/>
	</g>
	<g>
		<path class="st3" d="M203.1,176.9v-2.7c-0.9,0-0.9,0-1.8,1.8C201.3,176.9,202.2,176.9,203.1,176.9"/>
	</g>
	<g>
		<path class="st3" d="M197.7,174.2c0.9,0,0.9-0.9,0.9-1.8h-1.8v1.8C197.7,175.1,197.7,175.1,197.7,174.2"/>
	</g>
	<g>
		<path class="st3" d="M305.2,214.3v-2.7h-0.9l-0.9,0.9C304.3,214.3,304.3,214.3,305.2,214.3"/>
	</g>
	<g>
		<path class="st3" d="M326.6,212.5v-2.7c-0.9,0-0.9,0-1.8,1.8C324.8,212.5,325.7,212.5,326.6,212.5"/>
	</g>
	<g>
		<path class="st3" d="M321.2,209.8c0.9,0,0.9-0.9,0.9-1.8h-1.8v1.8C321.2,210.7,321.2,210.7,321.2,209.8"/>
	</g>
	<g>
		<path class="st3" d="M230.8,278v-2.7h-0.9l-0.9,0.9C229.9,278,229.9,278,230.8,278"/>
	</g>
	<g>
		<path class="st3" d="M252.2,276.2v-2.7c-0.9,0-0.9,0-1.8,1.8C250.4,276.2,251.3,276.2,252.2,276.2"/>
	</g>
	<g>
		<path class="st3" d="M246.9,273.5c0.9,0,0.9-0.9,0.9-1.8H246v1.8C246.9,274.4,246.9,274.4,246.9,273.5"/>
	</g>
	<g>
		<path d="M135.8,84.5c0,0,56.3,76.1,94.5-18.3c2.5-6.9,17-10.3,17-10.3l-2.7,8.4c-6.7,15.6-15.2,31.5-26.1,44.5
			c-4.7,5.6-10.5,10-14.4,16.4c-3.1,5.1-4.6,10.7-5.3,16.5c-1.3,11.2-0.6,22.7,1.2,33.8c0.1,0.5,1.6,9.1,1.6,9
			c-4.9,0.8-9.6-0.2-17.8,1.4c0.8-9.4,3.5-48.7-1.3-55.8c-4.7-7.1-36.1-11-62-42.5C128.1,83.5,135.3,82.8,135.8,84.5"/>
	</g>
	<g>
		<path d="M180.6,191.5c-0.4,0-0.7-0.2-0.9-0.6c-0.1-0.2-0.1-0.5,0-0.7c-0.3-2.2-0.8-5.9-1.1-6.7c-0.1-0.3-0.1-0.6,0.1-0.8
			c0.1-0.3,0.4-0.4,0.7-0.5c2.5-0.3,8.4-0.7,8.7-0.7l13-1.1l2.4-0.7c0.3-0.1,0.5,0,0.8,0.1c0.2,0.1,0.4,0.4,0.4,0.6l1.6,8
			c0.1,0.3,0,0.5-0.2,0.8c-0.2,0.2-0.4,0.3-0.7,0.4c-8.5,0.4-22.6,1.2-24.3,2C180.9,191.4,180.7,191.5,180.6,191.5z M180.7,183.9
			c0.4,1.6,0.7,4.1,0.8,5.4c4.6-0.8,18.3-1.5,22.6-1.7l-1.2-5.9l-1.5,0.4c-0.1,0-0.1,0-0.2,0l-13.1,1.1
			C188.1,183.3,183.5,183.6,180.7,183.9z"/>
	</g>
	<g>
		<path class="st10" d="M348.7,55.5c16.8-0.1-2.5-16.9-2.5-16.9S221.4-68,119,73c0,0-16.5,21.3,8,14
			C151.6,79.8,262.4,56.2,348.7,55.5"/>
	</g>
	<g>
		<path class="st16" d="M131.4,68.7c0,0,44.5-38.4,46.6-40.1c2.2-1.7,7.8-2.8,12.5,0.5c4.7,3.3,7.5,8.3,0,12.2
			c-7.5,3.9-57.7,30.4-57.7,30.4S128.4,73.6,131.4,68.7"/>
	</g>
	<g>
		<path class="st17" d="M131.3,74c-0.8,0-1.6-0.2-2.2-0.9c-1.5-1.8,0.1-4.4,0.7-5.3l0.2-0.3l0.2-0.2c1.8-1.6,44.5-38.5,46.7-40.2
			c2.7-2.1,9.3-3.4,14.8,0.5c3.7,2.6,5.6,5.6,5.4,8.5c-0.2,2.7-2.1,5-5.6,6.8c-7.4,3.8-57.2,30.2-57.7,30.4l-0.2,0.1
			C133.2,73.6,132.3,74,131.3,74z M183.7,28.8c-2,0-3.7,0.6-4.6,1.2c-1.6,1.2-29.7,25.5-45.4,39c9.1-4.8,49.3-26,55.8-29.5
			c1.6-0.8,3.5-2.1,3.6-3.8c0.1-1.5-1.3-3.4-3.8-5.2C187.5,29.3,185.5,28.8,183.7,28.8z"/>
	</g>
	<g>
		<path class="st16" d="M332.4,42.8c0,0-58.1-9-60.7-9.5c-2.7-0.6-7.2-4.2-7.7-9.9c-0.5-5.7,1.5-11,9.3-7.9
			c7.8,3.2,60.5,24.2,60.5,24.2S338.1,41.9,332.4,42.8"/>
	</g>
	<g>
		<path class="st17" d="M332.4,44.7l-0.3,0c-2.4-0.4-58.2-9-60.9-9.6c-3.4-0.7-8.6-4.9-9.2-11.6c-0.4-4.5,0.7-7.9,3-9.6
			c2.2-1.6,5.1-1.7,8.8-0.2c7.7,3.1,60,24,60.5,24.2l0.2,0.1c0.7,0.3,2.9,1.6,2.6,3.7c-0.4,2.3-3.4,2.8-4.5,2.9L332.4,44.7z
			 M269.2,16.4c-0.7,0-1.3,0.1-1.8,0.5c-1.2,0.9-1.8,3.2-1.5,6.3c0.4,4.9,4.3,7.8,6.2,8.2c2,0.4,38.7,6.1,59.1,9.3
			c-9.6-3.8-51.8-20.7-58.6-23.5C271.5,16.8,270.3,16.4,269.2,16.4z"/>
	</g>
	<g>
		<path class="st16" d="M231.8,9c5.3-1.1,22.9-2.3,20.5,8.1c-1.8,7.7-17.7,7.6-23.8,8.8c-6,1.2-21.3,4.7-23.5-4.2
			C202.5,11.9,226.3,10.1,231.8,9"/>
	</g>
	<g>
		<path class="st17" d="M216,29.5c-5.8,0-11.3-1.5-12.8-7.2c-0.5-2-0.2-4,0.9-5.7c3.6-5.4,14.3-7.4,24-8.8c1.4-0.2,2.6-0.4,3.3-0.5
			c0.3-0.1,15.3-2.9,21,3c1.3,1.3,2.6,3.7,1.8,7.4c-1.7,7.4-12.7,8.7-20.7,9.6c-1.8,0.2-3.4,0.4-4.6,0.6l-0.8,0.2
			C225.2,28.5,220.5,29.5,216,29.5z M239.4,10.2c-2.7,0-5.4,0.3-7.2,0.7l0,0c-0.8,0.2-2,0.3-3.5,0.6c-6,0.9-18.5,2.7-21.4,7.2
			c-0.6,0.8-0.7,1.7-0.4,2.7c1.7,6.7,14.9,4.1,20.5,3l0.8-0.2c1.3-0.3,3-0.5,4.9-0.7c6.5-0.8,16.3-1.9,17.5-6.7
			c0.5-2.2-0.2-3.3-0.8-3.9C247.8,10.8,243.5,10.2,239.4,10.2z"/>
	</g>
	<g>
		<path class="st17" d="M120.4,81.3l-0.4-1.8c1.3-0.3,133.7-32.1,231.7-33.6l0,1.9C253.9,49.3,121.7,81,120.4,81.3z"/>
	</g>
	<g>
		<path class="st3" d="M5.9,250.7c0,0,32.3,7.2,34.6,7.4c2.3,0.3,68.9,27.6,77.6,33c8.7,5.4,30.5,15.1,38.4,15.6
			c7.9,0.5,27.1-10.5,27.1-10.5l3.3-1.5l-0.8,5.4c0,0-4.6,7.2-12,9.2c-7.4,2-16.9,4.1-24.8,1.8c-7.9-2.3-26.9-10.8-38.1-16.9
			c-11.3-6.1-26.1-14.3-34.3-16.9c-8.2-2.6-13.3-6.4-26.9-10.7c-13.6-4.3-15.9-5.1-23.5-7.4c-7.7-2.3-14.3-4.6-17.7-5.6
			c-3.3-1-8.7-1.3-8.7-1.3L5.9,250.7z"/>
	</g>
	<g>
		<path class="st13" d="M35.2,197.9l-30.1,53c0,0,51,12.2,86,29.7c35,17.5,50.6,29.7,69.5,28.2c19-1.5,25.3-13.6,25.3-13.6l-9.2-8
			l-21.9-39.6l-103.1-36L35.2,197.9z"/>
	</g>
	<g>
		<path class="st3" d="M21.3,222.5l-1.3,5.9l-7.1,15.7l-7.1,7.2l-2.2,0.8l-3.4,0.1c0,0,8.6-13.2,10.1-15.6
			c1.5-2.3,7.9-14.6,8.5-15.5"/>
	</g>
	<g>
		<line class="st3" x1="271.9" y1="90.5" x2="188.8" y2="78.5"/>
	</g>
	<g>
		<rect x="228.7" y="42.5" transform="matrix(0.1427 -0.9898 0.9898 0.1427 113.8193 300.3946)" width="3.3" height="83.9"/>
	</g>
	<g>
		<path d="M148,338.2c-1.3-1.3-2.5-1.8-4.7-2.1c2-0.7,3-1.3,4-2.4c1.4-1.6,2-4.2,1.6-6.8c-0.5-3.2-2.4-5.9-4.5-7.1
			c-1.9-1.2-3.6-1.5-7.1-1.8c-1.4-0.1-3-0.2-4.5-0.3c-5.4-0.4-5.3-0.4-6.6-0.6c-0.7-0.1-1.3-0.2-1.9-0.3c-0.6-0.1-1.2-0.1-2-0.3
			c0,1.8-5.4,13.3-5.4,13.3c-2.7,9.2-6.6,17.5-10.8,26.1c0,0-1.4,0.6-2.1,1.6c1.3-0.3,5-0.2,7.5,0c2,0.2,6.4,0.6,9.8-1.3
			c1.3,0,2,0.1,3.4,0.1c8.4,0.1,14.5-0.4,16.3-0.9c5.5-1.4,9.2-5.5,9.4-10.8C150.3,342,149.5,339.7,148,338.2 M133.3,326.3
			c1.1,0.1,1.7,0.1,2.8,0.2c2.4,0.1,3.5,0.8,3.5,2.6c0.1,1.3-0.5,2.2-1.4,2.4c-0.5,0.1-1.3,0.1-2.4,0.1c-1.1,0-1.7-0.1-2.8-0.1
			C133.2,329.3,133.2,328.3,133.3,326.3 M134.8,346.4c-1.7,0-2.5,0-4.2,0c0.5-2.3,0.8-3.4,1.2-5.7c1.7,0,2.5,0.1,4.3,0.1
			c2.8,0,3.5,0.5,3.4,2.5C139.2,345.6,137.9,346.4,134.8,346.4"/>
	</g>
	<g>
		<path d="M102.6,319.1c1.4-4,1.9-7.7,2.4-7.9c0.8-0.4,4.3,1.9,9,3.3c4.6,1.3,9.4,1.3,10.2,2.3c0.2,0.2-0.1,2.4-0.3,4.8
			c-0.2,1.8-0.3,5.7-0.6,5.9c-0.8,0.5-6.8-1.7-7.3-1.4c-2.7,1.8-6.8,27.2-10.1,29.2c-1.4,0.8-4.3-0.5-5.6-0.7
			c-1.2-0.1-5.7-0.5-5.9-0.8c-0.9-1.8,9.6-19,13.2-29.5c-1-0.3-1.4-0.4-2.4-0.7c-0.6-0.1-0.9-0.2-1.5-0.4c-0.6-0.1-0.9-0.2-1.5-0.3
			c-0.4-0.1-0.6-0.1-1-0.2C101.8,321.2,102.1,320.5,102.6,319.1"/>
	</g>
	<g>
		<path class="st12" d="M128.2,329.3c-1.2-2.1-2.5-2.9-5.2-3.2c-0.8-0.1-1.7-0.2-2.6-0.3c-2.6-0.3-2.5-0.3-3.2-0.4
			c-0.6-0.1-1-0.2-1.7-0.4c-0.1,0.7-0.4,2.1-0.4,2.1c-2,9.6-5.7,18.4-9.7,27.3c0,0,0,0,0,0c0,0.1,0,0.1-0.1,0.1c0,0,0,0,0,0
			c0,0,0,0,0,0c-0.6-0.1-0.9-0.1-1.5-0.2c-0.1,0.2-0.2,0.3-0.4,0.4c-0.3,0.3-0.4,0.5-0.7,0.8c0.7,0.1,1,0.2,1.7,0.3
			c0,0,1.2,0.1,1.4,0c0.1,0,0.2-0.1,0.2-0.1c0,0,0,0,0,0c0,0,1.5-0.9,5.5-0.6c1.7,0.1,2.8,0.2,3.6,0.2c3.7,0.1,5.9-0.7,8.2-2.8
			c2.9-2.7,5.3-7.5,6.1-12.6C130.1,335.4,129.5,331.6,128.2,329.3"/>
	</g>
	<g>
		<path d="M119.2,332.6c-0.2,0-0.3,0-0.4,0c-1.4,5.9-2.2,9-4.5,15.2c0.3,0.1,0.5,0.1,0.9,0.2c0.3,0,0.5,0.1,0.8,0.1
			c1.9,0.1,3.6-0.6,4.8-2.1c1.1-1.4,2.1-3.8,2.6-6.2c0.4-1.7,1.1-6.7-2.7-7.2C120.1,332.5,119.8,332.5,119.2,332.6"/>
	</g>
</g>
</svg>
