<?xml version="1.0" encoding="utf-8"?>
<!-- Generator: Adobe Illustrator 28.0.0, SVG Export Plug-In . SVG Version: 6.00 Build 0)  -->
<svg version="1.1" id="Layer_1" xmlns="http://www.w3.org/2000/svg" xmlns:xlink="http://www.w3.org/1999/xlink" x="0px" y="0px"
	 viewBox="0 0 65 40.6" style="enable-background:new 0 0 65 40.6;" xml:space="preserve">
<g id="XMLID_1_">
	<polygon id="XMLID_8_" points="61.5,0.1 60.9,0 4.1,0 3.7,0.1 32.5,25.7 	"/>
	<path id="XMLID_9_" d="M64.7,2.7L44.2,20.8l20.3,17.7c0.3-0.6,0.5-1.2,0.5-1.9V4.1C65,3.6,64.9,3.1,64.7,2.7z"/>
	<path id="XMLID_10_" d="M0.3,2.5C0.1,3,0,3.5,0,4.1v32.5c0,0.6,0.1,1.1,0.4,1.7l20.4-17.5L0.3,2.5z"/>
	<polygon id="XMLID_11_" points="32.5,31.1 23.8,23.4 3.8,40.6 4.1,40.6 60.8,40.6 41.2,23.5 	"/>
</g>
</svg>
