<?xml version="1.0" encoding="utf-8"?>
<!-- Generator: Adobe Illustrator 28.0.0, SVG Export Plug-In . SVG Version: 6.00 Build 0)  -->
<svg version="1.1" id="Vrstva_1" xmlns="http://www.w3.org/2000/svg" xmlns:xlink="http://www.w3.org/1999/xlink" x="0px" y="0px"
	 viewBox="0 0 254.4 219.5" style="enable-background:new 0 0 254.4 219.5;" xml:space="preserve">
<style type="text/css">
	.st0{fill:#FFFFFF;}
	.st1{fill:#F49600;}
	.st2{fill-rule:evenodd;clip-rule:evenodd;fill:#F49600;}
	.st3{fill-rule:evenodd;clip-rule:evenodd;}
	.st4{fill-rule:evenodd;clip-rule:evenodd;fill:#848687;}
	.st5{fill-rule:evenodd;clip-rule:evenodd;fill:#97999A;}
	.st6{fill-rule:evenodd;clip-rule:evenodd;fill:#6F7679;}
	.st7{fill-rule:evenodd;clip-rule:evenodd;fill:#818688;}
	.st8{fill-rule:evenodd;clip-rule:evenodd;fill:#979A9E;}
	.st9{fill-rule:evenodd;clip-rule:evenodd;fill:#E30613;}
	.st10{fill-rule:evenodd;clip-rule:evenodd;fill:#B7BEC8;}
	.st11{fill-rule:evenodd;clip-rule:evenodd;fill:#E8422C;}
	.st12{fill-rule:evenodd;clip-rule:evenodd;fill:#FCD198;}
	.st13{fill-rule:evenodd;clip-rule:evenodd;fill:#FFFFFF;}
	.st14{fill-rule:evenodd;clip-rule:evenodd;fill:#F0F0F0;}
	.st15{fill-rule:evenodd;clip-rule:evenodd;fill:#E0C0A1;}
	.st16{fill-rule:evenodd;clip-rule:evenodd;fill:#B9B8B8;}
	.st17{fill:#959B9F;}
	.st18{clip-path:url(#SVGID_00000137822434293427677220000016536579619942360731_);}
	.st19{clip-path:url(#SVGID_00000086692681729412685750000014354033323224508567_);}
	.st20{clip-path:url(#SVGID_00000086692681729412685750000014354033323224508567_);fill:none;stroke:#FFFFFF;stroke-width:3.08;}
	.st21{clip-path:url(#SVGID_00000086692681729412685750000014354033323224508567_);fill:#FFFFFF;}
	.st22{clip-path:url(#SVGID_00000086692681729412685750000014354033323224508567_);fill:none;stroke:#000000;stroke-width:0.586;}
	.st23{clip-path:url(#SVGID_00000086692681729412685750000014354033323224508567_);fill:none;stroke:#000000;stroke-width:0.898;}
	.st24{clip-path:url(#SVGID_00000086692681729412685750000014354033323224508567_);fill-rule:evenodd;clip-rule:evenodd;}
	
		.st25{clip-path:url(#SVGID_00000086692681729412685750000014354033323224508567_);fill-rule:evenodd;clip-rule:evenodd;fill:#FFFFFF;}
	.st26{clip-path:url(#SVGID_00000000201753830001438420000009845511205927068040_);fill:#FFFFFF;}
	.st27{clip-path:url(#SVGID_00000183928096740264505260000013328772550871085227_);}
	.st28{clip-path:url(#SVGID_00000183928096740264505260000013328772550871085227_);fill:none;stroke:#000000;stroke-width:1.273;}
	.st29{clip-path:url(#SVGID_00000183928096740264505260000013328772550871085227_);fill:#FFFFFF;}
	.st30{clip-path:url(#SVGID_00000183928096740264505260000013328772550871085227_);fill:none;stroke:#000000;stroke-width:0.955;}
	.st31{clip-path:url(#SVGID_00000183928096740264505260000013328772550871085227_);fill:none;stroke:#000000;stroke-width:0.318;}
	
		.st32{clip-path:url(#SVGID_00000183928096740264505260000013328772550871085227_);fill:none;stroke:#000000;stroke-width:0.318;stroke-linecap:round;}
	
		.st33{clip-path:url(#SVGID_00000183928096740264505260000013328772550871085227_);fill:none;stroke:#000000;stroke-width:0.318;stroke-linecap:round;stroke-linejoin:round;}
	
		.st34{clip-path:url(#SVGID_00000183928096740264505260000013328772550871085227_);fill:none;stroke:#000000;stroke-width:0.191;stroke-linecap:round;stroke-linejoin:round;}
	.st35{clip-path:url(#SVGID_00000183928096740264505260000013328772550871085227_);fill-rule:evenodd;clip-rule:evenodd;}
	.st36{clip-path:url(#SVGID_00000044889212898355457180000004512754130633168294_);fill:#FFFFFF;}
	.st37{clip-path:url(#SVGID_00000044889212898355457180000004512754130633168294_);fill:none;stroke:#000000;}
	.st38{clip-path:url(#SVGID_00000007415708023774157000000007817991120858322058_);}
	
		.st39{clip-path:url(#SVGID_00000007415708023774157000000007817991120858322058_);fill:none;stroke:#000000;stroke-width:0.761;stroke-miterlimit:10;}
	.st40{clip-path:url(#SVGID_00000007415708023774157000000007817991120858322058_);fill-rule:evenodd;clip-rule:evenodd;}
	.st41{clip-path:url(#SVGID_00000007415708023774157000000007817991120858322058_);fill:#FFFFFF;}
	
		.st42{clip-path:url(#SVGID_00000007415708023774157000000007817991120858322058_);fill:none;stroke:#FFFFFF;stroke-width:0.898;stroke-miterlimit:10;}
	
		.st43{clip-path:url(#SVGID_00000007415708023774157000000007817991120858322058_);fill-rule:evenodd;clip-rule:evenodd;fill:#FFFFFF;}
	
		.st44{clip-path:url(#SVGID_00000007415708023774157000000007817991120858322058_);fill:none;stroke:#000000;stroke-width:0.429;stroke-linecap:round;stroke-linejoin:round;stroke-miterlimit:10;}
	.st45{clip-path:url(#SVGID_00000007415708023774157000000007817991120858322058_);enable-background:new    ;}
	.st46{clip-path:url(#SVGID_00000133519205601234630990000004335451954178375571_);}
	.st47{clip-path:url(#SVGID_00000075885018315579841320000001929798223557491883_);}
	.st48{clip-path:url(#SVGID_00000085944487016724349410000016856921752309924265_);}
	.st49{clip-path:url(#SVGID_00000111911793833176164880000001544239180009303970_);}
	.st50{clip-path:url(#SVGID_00000164471526183529345090000013393100547997408935_);}
	.st51{clip-path:url(#SVGID_00000173875956840004549830000002546672338291315893_);}
	.st52{clip-path:url(#SVGID_00000034072110561779432250000007050940802223395721_);}
	.st53{clip-path:url(#SVGID_00000105391007818990854470000016396251438111151243_);}
	.st54{clip-path:url(#SVGID_00000007415708023774157000000007817991120858322058_);fill:none;stroke:#000000;stroke-width:0.141;}
	
		.st55{clip-path:url(#SVGID_00000007415708023774157000000007817991120858322058_);fill:none;stroke:#000000;stroke-width:0.382;stroke-linecap:round;stroke-linejoin:round;stroke-miterlimit:10;}
	.st56{clip-path:url(#SVGID_00000007415708023774157000000007817991120858322058_);fill:none;stroke:#000000;stroke-width:1.368;}
	
		.st57{clip-path:url(#SVGID_00000007415708023774157000000007817991120858322058_);fill:none;stroke:#000000;stroke-width:2;stroke-miterlimit:10;}
	
		.st58{clip-path:url(#SVGID_00000007415708023774157000000007817991120858322058_);fill:none;stroke:#000000;stroke-width:0.2;stroke-miterlimit:10;}
	
		.st59{clip-path:url(#SVGID_00000007415708023774157000000007817991120858322058_);fill:none;stroke:#FFFFFF;stroke-width:0.596;stroke-linecap:round;stroke-linejoin:round;stroke-miterlimit:22.926;}
	
		.st60{clip-path:url(#SVGID_00000007415708023774157000000007817991120858322058_);fill:none;stroke:#000000;stroke-width:0.225;stroke-miterlimit:10;}
	
		.st61{clip-path:url(#SVGID_00000007415708023774157000000007817991120858322058_);fill:none;stroke:#000000;stroke-width:1.45;stroke-miterlimit:10;}
	
		.st62{clip-path:url(#SVGID_00000007415708023774157000000007817991120858322058_);fill:none;stroke:#FFFFFF;stroke-width:0.435;stroke-miterlimit:10;}
	
		.st63{clip-path:url(#SVGID_00000007415708023774157000000007817991120858322058_);fill:none;stroke:#000000;stroke-width:0.514;stroke-miterlimit:10;}
	
		.st64{clip-path:url(#SVGID_00000007415708023774157000000007817991120858322058_);fill:none;stroke:#000000;stroke-width:0.206;stroke-miterlimit:22.926;}
	
		.st65{clip-path:url(#SVGID_00000007415708023774157000000007817991120858322058_);fill:none;stroke:#000000;stroke-width:0.312;stroke-miterlimit:10;}
	
		.st66{clip-path:url(#SVGID_00000007415708023774157000000007817991120858322058_);fill:none;stroke:#000000;stroke-width:0.575;stroke-miterlimit:10;}
	.st67{clip-path:url(#SVGID_00000007415708023774157000000007817991120858322058_);fill:none;stroke:#000000;stroke-width:1.522;}
	.st68{clip-path:url(#SVGID_00000007415708023774157000000007817991120858322058_);fill:none;stroke:#000000;stroke-width:4.558;}
	.st69{clip-path:url(#SVGID_00000007415708023774157000000007817991120858322058_);fill:#020203;}
	.st70{fill:none;stroke:#FFFFFF;stroke-width:12;stroke-linecap:round;stroke-linejoin:round;}
	.st71{fill:#A90F09;}
	.st72{fill:none;stroke:#FFFFFF;stroke-width:12;stroke-linecap:round;stroke-linejoin:round;stroke-miterlimit:10;}
</style>
<g>
	<g>
		<path d="M239.9,114.6c-5-7.1-9.7-10-18.5-11.8c8.3-3.5,12.3-6.5,16.5-12.4c6-8.5,9.7-22.1,9.7-36.8c0-17.6-5.4-32.9-14.1-39.7
			c-7.9-6.5-15.3-8.2-32.6-8.2c-7,0-14.9,0.3-23.2,0.6c-28,0.9-28,1.3-35.4,1.3c-3.9,0-7,0-10.6-0.1c-3.1-0.1-6.6,0.5-11.3,0.2
			c0.2,9.4-20.6,71.2-20.6,71.2L89.3,205.5c0,0-4.5,3.1-5.3,8.1c4.7-1.7,19.2-2.9,29-2.7c8.1,0.2,24.8,1.4,35.3-8.2l12.7,0.1
			c31.2,0,52.2-1.2,58.2-2.9c18.5-5.6,29.4-25,29.4-51.8C248.6,134.6,245.6,122.9,239.9,114.6 M177.8,52.9h13.1
			c11.3,0,15.5,3.5,15.5,12.9c0,6.8-2.6,11.5-6.4,12.6c-2,0.6-5.4,0.9-10.7,0.9H177L177.8,52.9 M190.9,154.9h-16.3l1-28.2h17.5
			c11.3,0,14.3,2.6,14.3,12.6C207.4,151.1,203.2,154.9,190.9,154.9"/>
	</g>
	<g>
		<path class="st0" d="M83.9,218.7c-1.2,0-2.3-0.4-3.3-1.2c-1.4-1.1-2.1-2.9-1.8-4.7c0.7-4.6,3.5-8,5.5-9.9L94.6,78.7
			c0-0.4,0.1-0.8,0.2-1.2c8.5-25.3,20.5-63.6,20.4-69.5c0-1.4,0.5-2.8,1.6-3.8c1-1,2.4-1.5,3.8-1.4c2.5,0.1,4.6,0,6.7-0.1
			c1.6-0.1,3-0.2,4.5-0.1c3.6,0.1,6.6,0.1,10.5,0.1c3.3,0,5.1-0.1,8.7-0.3c4.2-0.2,11.4-0.6,26.6-1.1l1.4,0c7.8-0.3,15.2-0.5,22-0.5
			c18.7,0,27.1,2.2,35.8,9.4c9.9,7.8,16,24.5,16,43.7c0,15.7-3.9,30.2-10.6,39.7c-2.5,3.5-5,6.1-8.2,8.4c3.8,2.2,7,5.3,10.2,9.8
			c0,0,0,0.1,0.1,0.1c6.2,9.1,9.6,21.7,9.6,36.4c0,29.2-12.4,50.4-33,56.6c-9.8,2.9-45,3.2-59.7,3.2l-10.9-0.1
			c-11.2,9-26.9,8.5-35.5,8.3c-0.6,0-1.2,0-1.8,0c-10.2-0.2-23.7,1.1-27.2,2.4C85.1,218.6,84.5,218.7,83.9,218.7z M104.7,80.2
			L94.3,205.9c0,0.3-0.1,0.5-0.1,0.7c6.2-0.6,13.3-0.9,18.8-0.8c0.6,0,1.2,0,1.8,0.1c8.1,0.2,21.7,0.6,29.9-6.9
			c1-0.9,2.2-1.4,3.5-1.3l12.7,0.1c34.9,0,52.4-1.5,56.7-2.7c16.1-4.9,25.7-22.4,25.7-46.9c0-12.4-2.7-23.3-7.7-30.6
			c-4.3-6-7.7-8.2-15.3-9.7c-2.2-0.4-3.9-2.3-4.1-4.5c-0.2-2.2,1-4.3,3.1-5.2c7.5-3.2,10.8-5.6,14.4-10.6c5.4-7.7,8.7-20.3,8.7-33.8
			c0-15.9-4.8-29.9-12.1-35.7c0,0-0.1-0.1-0.1-0.1c-6.7-5.6-13.1-7.1-29.4-7.1c-6.6,0-13.9,0.3-21.6,0.5l-1.4,0
			c-15.2,0.5-22,0.8-26.4,1c-3.8,0.2-5.7,0.3-9.2,0.3c-3.9,0-7.1,0-10.7-0.1c-1,0-2.2,0-3.6,0.1c-1,0.1-2,0.1-3.1,0.2
			C121.6,29.3,108.1,69.9,104.7,80.2z M190.9,160h-16.3c-1.4,0-2.7-0.6-3.7-1.6c-1-1-1.5-2.3-1.4-3.7l1-28.2
			c0.1-2.7,2.4-4.9,5.1-4.9h17.5c12,0,19.4,3,19.4,17.8C212.5,153.8,206,160,190.9,160z M179.9,149.8h11c10.1,0,11.4-2.1,11.4-10.5
			c0-4.3-0.6-5.8-1.2-6.2c-0.7-0.6-2.6-1.3-8-1.3h-12.6L179.9,149.8z M189.3,84.5H177c-1.4,0-2.7-0.6-3.7-1.6s-1.5-2.3-1.4-3.7
			l0.8-26.5c0.1-2.8,2.3-4.9,5.1-4.9h13.1c8.8,0,20.6,1.9,20.6,18c0,8.9-3.9,15.6-10.1,17.5C198.8,84.1,195.1,84.5,189.3,84.5z
			 M182.2,74.2h7c5.7,0,8.2-0.4,9.2-0.7c1-0.3,2.8-2.7,2.8-7.7c0-5.3-0.4-7.8-10.4-7.8h-8.1L182.2,74.2z"/>
	</g>
	<g>
		<path d="M6.2,46.5C6.8,26.9,6.8,25.4,6.9,7.6c25.6,0.3,32.2,0.3,62.8,0.3c29.8,0,36.1,0,61.3-0.3c-0.2,4.4-0.5,12.9-0.9,25.5
			c-0.4,9.7-0.4,19.7-0.6,30.5c-16.9-1.2-35.1-2.5-37.9-1.5c3.9,22.3,4.9,63.8,1.5,96c-0.8,8.1,5,17,3.7,23.5
			c-2.8,13.5-12.5,21-9.4,21.3c-5.9-0.5-18-0.3-23.6-0.3c-5.1,0-6.1,0-25.4,0.3c3.5-49.2,5.3-90.1,5.7-140.2l-14.4,0l-9,0.3l-9,0.6
			l-5.9,0.6L6.2,46.5z"/>
	</g>
	<g>
		<path class="st0" d="M87.4,207.9c-0.1,0-0.3,0-0.4,0c0,0,0,0,0,0l0,0c0,0,0,0,0,0c-4.6-0.4-13.6-0.3-19.5-0.3c-1.4,0-2.6,0-3.6,0
			c-5.1,0-6,0-25.3,0.3c-1.4,0-2.8-0.6-3.8-1.6s-1.5-2.4-1.4-3.9c3.6-50.1,5.2-89.5,5.7-134.7l-9.1,0L21,68.1l-8.9,0.6l-5.8,0.6
			c-1.5,0.1-2.9-0.3-4-1.3c-1.1-1-1.7-2.4-1.6-3.9l0.4-17.6c0,0,0,0,0,0C1.6,27.6,1.7,25.5,1.8,9.6l0-2.1c0-1.4,0.6-2.6,1.5-3.6
			C4.3,3,5.6,2.4,7,2.5c25.6,0.3,32,0.3,62.7,0.3c29.8,0,36.1,0,61.2-0.3c1.4-0.1,2.7,0.5,3.7,1.5c1,1,1.5,2.4,1.4,3.8l0,0.5
			c-0.2,4.5-0.5,12.8-0.9,25c-0.2,6.5-0.3,13.2-0.4,20.2c0,3.3-0.1,6.7-0.1,10.2c0,1.4-0.6,2.7-1.7,3.7s-2.4,1.4-3.8,1.3l-3.7-0.3
			c-9.4-0.7-21.4-1.5-27.9-1.6c3.4,24.4,3.8,62.5,0.7,91.8c-0.3,3,0.8,6.8,1.8,10.4c1.3,4.5,2.7,9.1,1.8,13.6
			c-1.8,8.9-6.2,15.3-8.9,19.2c-0.2,0.2-0.3,0.5-0.5,0.7c0,0.2,0,0.5,0,0.7C92.3,205.9,90,207.9,87.4,207.9z M29.8,57.6
			C29.8,57.6,29.8,57.6,29.8,57.6l14.4,0c1.4,0,2.7,0.5,3.6,1.5s1.5,2.3,1.5,3.6c-0.3,45.9-1.9,85.4-5.3,134.9
			c14.1-0.2,15.3-0.2,19.9-0.2c1,0,2.2,0,3.6,0c4.9,0,11.2,0,16.1,0.1c0.3-0.5,0.7-1,1-1.5c2.3-3.4,5.9-8.5,7.3-15.4
			c0.4-2-0.6-5.4-1.6-8.6c-1.3-4.3-2.7-9.3-2.2-14.3c3.2-30.4,2.6-71.9-1.5-94.6c-0.4-2.4,0.9-4.8,3.2-5.7
			c3.1-1.2,10.7-0.9,34.7,0.8c0-1.6,0-3.2,0.1-4.8c0.1-7.1,0.2-13.8,0.4-20.5c0.3-8.6,0.5-15.3,0.7-20.1C104.8,13,97.4,13,69.7,13
			c-28.7,0-36.2,0-57.7-0.2c-0.1,13.3-0.2,16.3-0.7,33.9l-0.3,11.9l0.2,0c0.1,0,0.1,0,0.2,0l9-0.6c0.1,0,0.1,0,0.2,0l9-0.3
			C29.7,57.6,29.7,57.6,29.8,57.6z"/>
	</g>
	<g>
		<path class="st1" d="M83.1,206.8c0,0,4.9-0.3,5.3-0.6c0.3-0.3,0.6-0.5,0.8-0.6l0,0c0,0,4.6-4.7,20.5-4.6c6.7,0,11.2-0.1,14.3-0.3
			c14.3-0.5,21.4-4.4,27.8-14.9c8.3-13.3,13.2-36.6,13.2-62.3c0-22.7-4-42-10.8-53.1c-6.3-10.1-13.1-13.5-26.8-13.5
			c-4.3,0-8.7,0.2-13.5,0.4C100.5,58,100.5,58,97.1,58c-3.1,0-5.3,0-9.2-0.3c0,3.5,0.1,10.3,0.1,10.3c0,37.6-1.5,91.1-3.8,131.5l0,0
			l0,0.6c0,0,0,0.1,0,0.1h0l0,0.2C84.2,200.6,83.8,205,83.1,206.8"/>
	</g>
	<g>
		<path class="st0" d="M83.1,211.9c-1.6,0-3.2-0.8-4.1-2.1c-1-1.4-1.3-3.2-0.6-4.8c0.2-0.6,0.6-2.7,0.7-4.6c0,0,0-0.1,0-0.1
			c0-0.1,0-0.1,0-0.2l0-0.5c0-0.2,0-0.5,0.1-0.7c2.2-40.2,3.7-93.9,3.7-130.7l-0.1-10.3c0-1.4,0.6-2.8,1.6-3.8c1-1,2.4-1.5,3.8-1.4
			c3.8,0.2,5.9,0.2,8.9,0.2c3.3,0,3.3,0,16.5-0.7c4.6-0.2,9.2-0.5,13.8-0.5c15.5,0,23.9,4.3,31.2,15.9c7.4,11.9,11.6,32.3,11.6,55.8
			c0,26.6-5.2,50.9-14,65c-7.4,12-16.1,16.7-32,17.3c-3.5,0.2-8.3,0.3-14.5,0.3c-11.7-0.1-16.2,2.7-16.9,3.2
			c-0.4,0.5-0.9,0.9-1.4,1.1c-1.1,0.8-2.5,1.2-8,1.5C83.3,211.9,83.2,211.9,83.1,211.9z M93.1,63.1l0,4.9c0,37.7-1.5,90.4-3.8,131.4
			c3.5-1.7,9.9-3.7,20.4-3.6c6,0,10.6,0,14-0.2c12.6-0.5,18.1-3.4,23.8-12.5c7.8-12.5,12.5-34.8,12.5-59.6
			c0-21.7-3.7-40.1-10.1-50.4c-5.4-8.6-10.4-11-22.5-11c-4.3,0-8.7,0.2-13.2,0.4c-13.5,0.7-13.5,0.7-17,0.7
			C95.7,63.1,94.5,63.1,93.1,63.1z"/>
	</g>
	<g>
		<path d="M113.7,91.5l-2,0.5l-1.8,73.8l3.8,0.5l3.3,0.3c8.1,0,13.8-3.9,17.1-11.6c2.9-6.9,4.8-18.6,4.8-30.6
			c0-8.4,0-33.8-18.7-33.8C118,90.6,116.5,90.9,113.7,91.5"/>
	</g>
	<g>
		<path class="st0" d="M117.1,171.7c-0.1,0-0.3,0-0.4,0l-3.3-0.3c-0.1,0-0.1,0-0.2,0l-3.8-0.5c-2.6-0.3-4.5-2.6-4.5-5.2l1.8-73.8
			c0.1-2.3,1.6-4.3,3.9-4.8l2-0.5c0,0,0,0,0,0c2.9-0.7,4.8-1.1,7.8-1.1c10.2,0,17.7,6.2,21.2,17.3c2.6,8.2,2.6,17.2,2.6,21.6
			c0,12.8-1.9,25-5.2,32.6C134.8,166.6,127.2,171.7,117.1,171.7z M115.2,161.3l2.1,0.2c5.9-0.1,9.8-2.8,12.3-8.5
			c2.6-6.2,4.3-17.4,4.3-28.6c0-19.6-4.3-28.7-13.6-28.7c-1.3,0-2.1,0.1-3.6,0.4L115.2,161.3z"/>
	</g>
	<g>
		<path class="st0" d="M239.9,114.6c-5-7.1-9.7-10-18.5-11.8c8.3-3.5,12.3-6.5,16.5-12.4c6-8.5,9.7-22.1,9.7-36.8
			c0-17.6-5.4-32.9-14.1-39.7c-7.9-6.5-15.3-8.2-32.6-8.2c-7,0-14.9,0.3-23.2,0.6c-28,0.9-28,1.3-35.4,1.3c-3.9,0-7,0-10.6-0.1
			c-0.2,0-0.4,0-0.6,0c0,0,0-0.1,0-0.1c-25.2,0.3-31.5,0.3-61.3,0.3c-30.6,0-37.2,0-62.8-0.3C6.8,25.4,6.8,26.9,6.2,46.5L5.8,64.1
			l5.9-0.6l9-0.6l9-0.3l14.4,0c-0.4,50.1-2.2,91-5.7,140.2c19.3-0.3,20.3-0.3,25.4-0.3c4.6,0,13.8-0.1,20.1,0.1
			c-0.2,1.4-0.5,3.2-0.8,4.1c0,0,4.9-0.3,5.3-0.6c0.3-0.3,0.6-0.5,0.8-0.6l0,0c0,0-4.5,3.1-5.3,8.1c4.7-1.7,19.2-2.9,29-2.7
			c8.1,0.2,24.8,1.4,35.3-8.2l12.7,0.1c31.2,0,52.2-1.2,58.2-2.9c18.5-5.6,29.4-25,29.4-51.8C248.6,134.6,245.6,122.9,239.9,114.6"
			/>
	</g>
	<g>
		<path class="st0" d="M83.9,219.5c-1.3,0-2.7-0.5-3.7-1.3c-1.6-1.3-2.4-3.4-2-5.4c0.1-0.8,0.3-1.5,0.5-2.2
			c-0.1-0.1-0.2-0.2-0.3-0.4c-0.4-0.6-0.7-1.2-0.9-1.8c-3.5,0-7.1,0-10.1,0c-1.4,0-2.6,0-3.6,0c-5.1,0-6,0-25.3,0.3
			c-1.7,0-3.2-0.6-4.3-1.8s-1.7-2.8-1.6-4.4c3.5-49.8,5.2-89,5.6-133.9l-8.4,0L21,68.8l-8.8,0.6l-5.8,0.6c-1.7,0.2-3.3-0.4-4.5-1.5
			C0.6,67.3,0,65.7,0,64l0.4-17.6C0.9,27.6,0.9,25.5,1.1,9.6l0-2.1c0-1.5,0.6-3,1.8-4.1C4,2.3,5.4,1.7,7,1.7C32.6,2,39,2,69.7,2
			c29.8,0,36,0,61.2-0.3c0.4,0,0.8,0,1.1,0.1c3.4,0.1,6.4,0.1,10.2,0.1c3.3,0,4.9-0.1,8.6-0.3c4.3-0.2,11.4-0.6,26.6-1.1l1.4,0
			c7.8-0.3,15.2-0.5,22-0.5c16.7,0,26.4,1.4,36.3,9.5c10,7.9,16.3,24.8,16.3,44.2c0,15.9-3.9,30.5-10.7,40.1c-2.3,3.2-4.7,5.8-7.5,8
			c3.5,2.2,6.5,5.3,9.5,9.4c0,0,0,0.1,0.1,0.1c6.3,9.3,9.7,22,9.7,36.8c0,29.6-12.5,51-33.6,57.3c-9.9,2.9-45.2,3.2-59.9,3.2
			l-10.6-0.1c-11.4,9-27.1,8.5-35.8,8.3c-0.6,0-1.2,0-1.8,0c-10.1-0.2-23.5,1.1-26.9,2.3C85.3,219.3,84.6,219.5,83.9,219.5z
			 M89.2,199.7c1.6,0,3.2,0.7,4.4,2c1,1.2,1.5,2.7,1.4,4.2c6.3-0.6,13.2-0.8,18-0.7c0.6,0,1.2,0,1.8,0.1c8,0.2,21.4,0.6,29.4-6.7
			c1.1-1,2.5-1.6,4-1.5L161,197c34.8,0,52.2-1.5,56.5-2.7c15.8-4.8,25.2-22,25.2-46.2c0-12.3-2.7-23-7.6-30.2
			c-4.2-5.8-7.5-7.9-14.9-9.4c-2.5-0.5-4.4-2.6-4.7-5.1c-0.3-2.5,1.2-5,3.5-6c7.4-3.2,10.5-5.5,14.1-10.4c5.4-7.6,8.6-20,8.6-33.4
			c0-15.7-4.7-29.5-11.9-35.1c0,0-0.1-0.1-0.1-0.1c-6.6-5.4-12.8-6.9-28.9-6.9c-6.5,0-13.8,0.3-21.6,0.5l-1.4,0
			c-15.2,0.5-21.9,0.8-26.4,1c-3.7,0.2-5.7,0.3-9.2,0.3c-3.9,0-7.1,0-10.8-0.1l-0.5,0c-0.3,0-0.6,0-0.9-0.1
			c-24.4,0.3-30.9,0.3-60.4,0.3c-28.3,0-36,0-57-0.2c-0.1,12.7-0.2,15.9-0.7,33.2l-0.2,11l8.6-0.6c0.1,0,0.1,0,0.2,0l9-0.3
			c0.1,0,0.1,0,0.2,0l14.4,0c1.6,0,3,0.6,4.1,1.7s1.7,2.6,1.7,4.2c-0.3,45.7-1.9,85-5.3,134.2c13.3-0.2,14.6-0.2,19.1-0.2
			c1,0,2.2,0,3.6,0c4.9,0,11.7-0.1,16.8,0.1c1.6,0.1,3.2,0.8,4.2,2.1c0.2,0.2,0.4,0.5,0.6,0.8C89.1,199.7,89.2,199.7,89.2,199.7z"/>
	</g>
	<g>
		<path d="M239.9,114.6c-5-7.1-9.7-10-18.5-11.8c8.3-3.5,12.3-6.5,16.5-12.4c6-8.5,9.7-22.1,9.7-36.8c0-17.6-5.4-32.9-14.1-39.7
			c-7.9-6.5-15.3-8.2-32.6-8.2c-7,0-14.9,0.3-23.2,0.6c-28,0.9-28,1.3-35.4,1.3c-3.9,0-7,0-10.6-0.1c-3.1-0.1-6.6,0.5-11.3,0.2
			c0.2,9.4-20.6,71.2-20.6,71.2L89.3,205.5c0,0-4.5,3.1-5.3,8.1c4.7-1.7,19.2-2.9,29-2.7c8.1,0.2,24.8,1.4,35.3-8.2l12.7,0.1
			c31.2,0,52.2-1.2,58.2-2.9c18.5-5.6,29.4-25,29.4-51.8C248.6,134.6,245.6,122.9,239.9,114.6 M177.8,52.9h13.1
			c11.3,0,15.5,3.5,15.5,12.9c0,6.8-2.6,11.5-6.4,12.6c-2,0.6-5.4,0.9-10.7,0.9H177L177.8,52.9 M190.9,154.9h-16.3l1-28.2h17.5
			c11.3,0,14.3,2.6,14.3,12.6C207.4,151.1,203.2,154.9,190.9,154.9"/>
	</g>
	<g>
		<path d="M6.2,46.5C6.8,26.9,6.8,25.4,6.9,7.6c25.6,0.3,32.2,0.3,62.8,0.3c29.8,0,36.1,0,61.3-0.3c-0.2,4.4-0.5,12.9-0.9,25.5
			c-0.4,9.7-0.4,19.7-0.6,30.5c-16.9-1.2-35.1-2.5-37.9-1.5c3.9,22.3,4.9,63.8,1.5,96c-0.8,8.1,5,17,3.7,23.5
			c-2.8,13.5-12.5,21-9.4,21.3c-5.9-0.5-18-0.3-23.6-0.3c-5.1,0-6.1,0-25.4,0.3c3.5-49.2,5.3-90.1,5.7-140.2l-14.4,0l-9,0.3l-9,0.6
			l-5.9,0.6L6.2,46.5z"/>
	</g>
	<g>
		<path class="st0" d="M36.6,204.6l0.1-1.9c3.7-51.4,5.3-91.6,5.7-138.3l-12.6,0l-9,0.3l-9,0.6L4.1,66l0.4-19.6
			C5,27.7,5,25.6,5.2,9.7l0-3.8l1.7,0c25.6,0.3,32,0.3,62.8,0.3c29.9,0,36.1,0,61.3-0.3l1.8,0l-0.1,2.3c-0.2,4.5-0.5,12.8-0.9,25
			c-0.2,6.6-0.3,13.2-0.4,20.3c0,3.3-0.1,6.7-0.1,10.2l0,1.8l-5.5-0.4c-12.3-0.9-27.2-1.9-32.1-1.5c3.8,23.5,4.4,64.6,1.2,94.8
			c-0.4,3.7,0.8,7.8,2,11.7c1.3,4.3,2.4,8.3,1.7,11.9c-1.7,8.3-5.8,14.3-8.3,17.9c-0.7,1.1-1.6,2.3-1.7,2.7c0-0.1,0.1-0.5-0.2-0.9
			c-0.3-0.4-0.7-0.5-0.8-0.5l-0.3,3.4c0,0,0,0,0,0l0,0c0,0,0,0,0,0c-4.8-0.4-13.8-0.3-19.8-0.3c-1.4,0-2.6,0-3.6,0
			c-5.1,0-6.1,0-25.4,0.3L36.6,204.6z M29.7,60.9l16.1,0l0,1.7c-0.3,47-2,87.2-5.6,138.4c17.5-0.3,18.6-0.3,23.6-0.3
			c1,0,2.2,0,3.6,0c5.3,0,12.9-0.1,18,0.2c0.4-0.8,1-1.8,1.9-3.1c2.3-3.4,6.3-9.1,7.8-16.7c0.6-2.8-0.5-6.4-1.6-10.3
			c-1.2-4.2-2.5-8.6-2.1-13c3.2-30.6,2.6-72.6-1.5-95.5L89.7,61l1.3-0.5c2.8-1.1,15.1-0.3,34.9,1.1l1.9,0.1c0-2.8,0.1-5.6,0.1-8.4
			c0.1-7.1,0.2-13.8,0.4-20.4c0.3-11,0.6-18.9,0.8-23.7c-23.7,0.3-30.4,0.3-59.5,0.3c-30.1,0-36.9,0-61.1-0.3l0,0.4
			c-0.2,16-0.2,18-0.7,36.9L7.6,62.2l4-0.4l9.1-0.6L29.7,60.9z"/>
	</g>
	<g>
		<path class="st1" d="M83.1,206.8c0,0,4.9-0.3,5.3-0.6c0.3-0.3,0.6-0.5,0.8-0.6l0,0c0,0,4.6-4.7,20.5-4.6c6.7,0,11.2-0.1,14.3-0.3
			c14.3-0.5,21.4-4.4,27.8-14.9c8.3-13.3,13.2-36.6,13.2-62.3c0-22.7-4-42-10.8-53.1c-6.3-10.1-13.1-13.5-26.8-13.5
			c-4.3,0-8.7,0.2-13.5,0.4C100.5,58,100.5,58,97.1,58c-3.1,0-5.3,0-9.2-0.3c0,3.5,0.1,10.3,0.1,10.3c0,37.6-1.5,91.1-3.8,131.5l0,0
			l0,0.6c0,0,0,0.1,0,0.1h0l0,0.2C84.2,200.6,83.8,205,83.1,206.8"/>
	</g>
	<g>
		<path d="M113.7,91.5l-2,0.5l-1.8,73.8l3.8,0.5l3.3,0.3c8.1,0,13.8-3.9,17.1-11.6c2.9-6.9,4.8-18.6,4.8-30.6
			c0-8.4,0-33.8-18.7-33.8C118,90.6,116.5,90.9,113.7,91.5"/>
	</g>
	<g>
		<path class="st0" d="M47.8,184.6l3.3-0.4c0.8-0.1,1.6-0.2,2.4-0.2l0,0c-0.7-0.2-1.5-0.5-2.2-0.8l-3.2-1.2l0.1-1.5l3.3-0.6
			c0.9-0.1,1.6-0.3,2.4-0.3l0,0c-0.8-0.2-1.5-0.4-2.3-0.7l-3.2-1.1l0.2-1.8l7,2.9l-0.2,1.7l-3,0.6c-0.8,0.1-1.5,0.2-2.3,0.3l0,0
			c0.9,0.2,1.6,0.5,2.2,0.8l2.9,1.2l-0.2,1.7l-7.4,1.5L47.8,184.6z"/>
	</g>
	<g>
		<path class="st0" d="M48.9,173.3l3.3-0.5c0.8-0.1,1.6-0.2,2.3-0.3l0,0c-0.7-0.2-1.5-0.5-2.2-0.8l-3.2-1.2l0.1-1.5l3.3-0.6
			c0.8-0.2,1.6-0.3,2.4-0.4l0,0c-0.8-0.2-1.5-0.4-2.3-0.6l-3.2-1l0.1-1.8l7,2.9l-0.1,1.7l-3,0.6c-0.8,0.2-1.5,0.3-2.3,0.4l0,0
			c0.9,0.2,1.6,0.5,2.3,0.7l2.9,1.2l-0.1,1.7l-7.4,1.6L48.9,173.3z"/>
	</g>
	<g>
		<path class="st0" d="M49.7,161.9l3.3-0.5c0.8-0.1,1.6-0.2,2.3-0.3l0,0c-0.7-0.2-1.5-0.5-2.3-0.7l-3.2-1.2l0.1-1.5l3.3-0.7
			c0.8-0.2,1.6-0.3,2.4-0.4l0,0c-0.8-0.2-1.5-0.4-2.3-0.6l-3.2-1l0.1-1.8l7.1,2.8l-0.1,1.7l-3,0.7c-0.7,0.2-1.4,0.3-2.3,0.4l0,0
			c0.9,0.2,1.6,0.4,2.3,0.7l2.9,1.1l-0.1,1.7l-7.4,1.7L49.7,161.9z"/>
	</g>
	<g>
		<path class="st0" d="M56.6,153.2c-0.7,0-1.1-0.6-1.1-1.2c0-0.7,0.5-1.1,1.2-1.1c0.7,0,1.1,0.5,1.1,1.2
			C57.7,152.8,57.2,153.2,56.6,153.2"/>
	</g>
	<g>
		<path class="st0" d="M48.6,146.7l2,0.1l0.1-1.8l1.3,0.1l-0.1,1.8l3.4,0.2c0.9,0,1.3-0.2,1.3-0.9c0-0.3,0-0.5,0-0.7l1.3,0
			c0.1,0.3,0.1,0.8,0.1,1.3c0,0.7-0.3,1.2-0.6,1.6c-0.4,0.4-1.1,0.5-2,0.5l-3.5-0.2l-0.1,1.1l-1.3-0.1l0.1-1.1l-1.6-0.1L48.6,146.7z
			"/>
	</g>
	<g>
		<path class="st0" d="M54.7,137.4c2.7,0.1,3.7,2.1,3.7,3.8c-0.1,2-1.5,3.5-3.9,3.4c-2.4-0.1-3.7-1.8-3.6-3.8
			C50.9,138.6,52.4,137.3,54.7,137.4 M54.5,142.6c1.3,0.1,2.5-0.5,2.5-1.6c0-1-1.1-1.7-2.4-1.8c-1.1-0.1-2.5,0.3-2.5,1.5
			C52.1,142.1,53.4,142.6,54.5,142.6"/>
	</g>
	<g>
		<path class="st0" d="M56.5,129.5c0.8,0,1.6,0,2.2,0l-0.1,1.6l-1,0.1l0,0c0.5,0.3,1.1,1.1,1.1,2.3c-0.1,1.4-1,2.5-3.2,2.4l-4.3-0.2
			l0.1-1.9l4,0.2c1.1,0,1.9-0.3,2-1.2c0-0.7-0.4-1.2-0.8-1.3c-0.2-0.1-0.4-0.1-0.6-0.1l-4.5-0.2l0.1-1.9L56.5,129.5z"/>
	</g>
	<g>
		<path class="st0" d="M53.7,127.5c-0.9,0-1.6,0-2.2,0l0.1-1.6l1.3,0l0-0.1c-0.9-0.4-1.4-1.2-1.4-2c0-0.2,0-0.3,0-0.4l1.7,0.1
			c0,0.1-0.1,0.3-0.1,0.5c0,0.8,0.5,1.5,1.3,1.7c0.2,0,0.4,0.1,0.6,0.1l3.8,0.1l-0.1,1.9L53.7,127.5z"/>
	</g>
	<g>
		<path class="st0" d="M48.6,115.7l8.5,0.2c0.7,0,1.5,0,2,0l0,1.7l-1.1,0.1l0,0c0.7,0.4,1.2,1.3,1.2,2.3c0,1.7-1.6,3-3.8,2.9
			c-2.5-0.1-3.8-1.6-3.8-3.3c0-0.9,0.4-1.6,0.9-1.9l0,0l-4-0.1L48.6,115.7z M54.7,117.7c-0.1,0-0.3,0-0.5,0
			c-0.7,0.1-1.2,0.7-1.3,1.4c0,1.1,1,1.8,2.4,1.8c1.4,0,2.3-0.6,2.4-1.6c0-0.7-0.4-1.3-1.1-1.5c-0.2,0-0.3-0.1-0.5-0.1L54.7,117.7z"
			/>
	</g>
	<g>
		<path class="st0" d="M56,112.6c1.4,0,2-1,2-2.2c0-0.8-0.1-1.4-0.3-1.9l1.2-0.3c0.2,0.6,0.4,1.5,0.4,2.5c0,2.4-1.5,3.7-3.7,3.7
			c-2.1,0-3.9-1.3-3.8-3.6c0-2.3,1.8-3,3.5-3c0.4,0,0.6,0,0.8,0.1L56,112.6z M54.8,109.5c-0.8,0-1.8,0.3-1.8,1.4
			c0,1.1,1,1.5,1.8,1.6L54.8,109.5z"/>
	</g>
	<g>
		<path class="st0" d="M59.2,106.4c-0.5,0-1.3-0.1-2-0.1l-8.5-0.1l0-1.9l4.2,0v0c-0.7-0.5-1.1-1.2-1.1-2.2c0-1.7,1.5-2.9,3.7-2.9
			c2.6,0,3.9,1.6,3.9,3.2c0,0.9-0.4,1.7-1.2,2.2l0,0l1,0.1L59.2,106.4z M56.4,104.5c0.2,0,0.3,0,0.4-0.1c0.8-0.2,1.2-0.8,1.2-1.5
			c0-1.1-0.9-1.7-2.4-1.7c-1.3,0-2.3,0.5-2.4,1.7c0,0.7,0.5,1.3,1.2,1.5c0.1,0,0.3,0.1,0.5,0.1L56.4,104.5z"/>
	</g>
	<g>
		<path class="st0" d="M56.2,96.4c1.4,0,1.9-1,1.9-2.2c0-0.8-0.1-1.4-0.3-1.9L59,92c0.2,0.6,0.4,1.5,0.4,2.5c0,2.4-1.4,3.7-3.7,3.7
			c-2.1,0-3.9-1.3-3.9-3.5c0-2.3,1.8-3.1,3.5-3.1c0.4,0,0.6,0,0.8,0.1V96.4z M54.9,93.4c-0.8,0-1.8,0.3-1.8,1.4c0,1.1,1,1.5,1.8,1.6
			V93.4z"/>
	</g>
	<g>
		<path class="st0" d="M56.1,88.9c1.4-0.1,1.9-1.1,1.9-2.2c0-0.8-0.1-1.4-0.3-1.9l1.2-0.3c0.3,0.6,0.4,1.5,0.4,2.5
			c0,2.4-1.4,3.7-3.6,3.7c-2.1,0-3.9-1.2-3.9-3.5c0-2.3,1.7-3.1,3.4-3.1c0.4,0,0.6,0,0.8,0.1L56.1,88.9z M54.9,85.9
			c-0.8,0-1.8,0.3-1.8,1.4c0,1.1,1,1.5,1.8,1.6L54.9,85.9z"/>
	</g>
	<g>
		<path class="st0" d="M54.2,82.6c-0.9,0-1.6,0.1-2.2,0.1l0-1.6l1.3-0.1l0-0.1c-0.9-0.3-1.5-1.2-1.5-1.9c0-0.2,0-0.3,0-0.4l1.7,0
			c0,0.1,0,0.3,0,0.5c0,0.8,0.6,1.5,1.4,1.6c0.2,0,0.4,0,0.6,0l3.8-0.1l0,1.9L54.2,82.6z"/>
	</g>
	<g>
		<path class="st0" d="M58.1,78.4c-0.7,0-1.2-0.5-1.2-1.1c0-0.7,0.4-1.2,1.1-1.2c0.7,0,1.2,0.4,1.2,1.1
			C59.3,77.9,58.8,78.4,58.1,78.4"/>
	</g>
	<g>
		<path class="st0" d="M58.7,69.3c0.2,0.4,0.4,1.1,0.4,1.9c0.1,2.3-1.3,3.8-3.6,3.8c-2.2,0.1-3.9-1.4-3.9-3.9c0-0.6,0.1-1.3,0.2-1.7
			l1.4,0.3C53,70,52.9,70.4,52.9,71c0,1.4,1.1,2.1,2.4,2.1c1.5,0,2.3-1,2.3-2.2c0-0.6-0.1-1-0.3-1.3L58.7,69.3z"/>
	</g>
	<g>
		<path class="st0" d="M57.8,68.7l-3.7-2.5c-0.4-0.3-0.8-0.6-1.2-1l0,0l0.1,3.4l-1.4,0.1L51.4,63l1.1,0l3.6,2.5
			c0.4,0.3,0.9,0.6,1.2,1l0,0l-0.1-3.7l1.4-0.1l0.2,6L57.8,68.7z"/>
	</g>
</g>
<g>
</g>
</svg>
