<?xml version="1.0" encoding="utf-8"?>
<!-- Generator: Adobe Illustrator 28.0.0, SVG Export Plug-In . SVG Version: 6.00 Build 0)  -->
<svg version="1.1" id="Layer_1" xmlns="http://www.w3.org/2000/svg" xmlns:xlink="http://www.w3.org/1999/xlink" x="0px" y="0px"
	 viewBox="0 0 55 55" style="enable-background:new 0 0 55 55;" xml:space="preserve">
<g id="XMLID_2_">
	<path id="XMLID_4_" d="M55,43.4c0,0.7-0.1,1.6-0.4,2.8s-0.5,2-0.8,2.7c-0.5,1.3-2.1,2.7-4.8,4.1c-2.4,1.3-4.9,2-7.3,2
		c-0.7,0-1.4,0-2.1-0.1s-1.4-0.3-2.2-0.5c-0.8-0.2-1.5-0.4-1.9-0.6s-1.1-0.4-2.2-0.8c-1-0.4-1.7-0.6-1.9-0.7c-2.6-0.9-4.8-2-6.8-3.2
		c-3.3-2.1-6.8-4.9-10.3-8.4s-6.4-7-8.4-10.3c-1.3-2-2.3-4.3-3.2-6.8c-0.1-0.2-0.3-0.9-0.7-1.9s-0.7-1.8-0.8-2.2s-0.3-1-0.6-1.9
		S0.2,16,0.1,15.4S0,14.1,0,13.3C0,10.9,0.7,8.5,2,6c1.5-2.6,2.8-4.2,4.1-4.8c0.7-0.3,1.5-0.6,2.7-0.8S10.9,0,11.6,0
		c0.4,0,0.6,0,0.8,0.1c0.5,0.2,1.2,1.1,2.1,3c0.3,0.5,0.7,1.2,1.2,2.1s1,1.7,1.4,2.5s0.8,1.4,1.2,2.1c0.1,0.1,0.3,0.4,0.7,1
		s0.7,1,0.8,1.4s0.3,0.7,0.3,1.1c0,0.5-0.4,1.2-1.1,2s-1.5,1.5-2.4,2.1s-1.7,1.3-2.4,2.1s-1.1,1.3-1.1,1.8c0,0.2,0.1,0.5,0.2,0.9
		s0.2,0.6,0.3,0.8s0.3,0.5,0.5,0.9s0.4,0.7,0.4,0.7c2,3.6,4.2,6.6,6.8,9.2c2.6,2.6,5.6,4.8,9.2,6.8c0.1,0,0.3,0.2,0.7,0.4
		c0.4,0.2,0.8,0.5,0.9,0.5c0.1,0,0.4,0.2,0.8,0.3c0.4,0.1,0.6,0.2,0.9,0.2c0.5,0,1.1-0.4,1.8-1.1c0.7-0.7,1.4-1.5,2.1-2.4
		s1.4-1.7,2.1-2.4c0.7-0.7,1.4-1.1,2-1.1c0.4,0,0.7,0.1,1.1,0.3c0.4,0.2,0.8,0.5,1.4,0.8c0.6,0.3,0.9,0.6,1,0.7
		c0.7,0.4,1.3,0.8,2.1,1.2s1.6,0.9,2.5,1.4s1.6,0.9,2.1,1.2c1.8,0.9,2.8,1.6,3,2.1C55,42.8,55,43.1,55,43.4z"/>
</g>
</svg>
